<svg xmlns="http://www.w3.org/2000/svg" width="357.981" height="446.627"><path d="M63.188 445.939C33.66 442.02 9.63 421.559 2.033 393.866-.023 386.37-.033 385.45.23 220.911L.495 55.493l2.679-7.334C11.93 24.188 32.089 6.732 57.089 1.473 63.069.215 81.427-.006 179.31 0c111.744.007 115.434.067 123.532 2.008 24.591 5.895 43.465 22.827 51.829 46.495l2.824 7.99.264 164.281c.296 183.756.801 170.322-7 186.22-3.366 6.862-5.919 10.256-13.249 17.62-7.733 7.77-10.482 9.803-18.547 13.715-17.828 8.648-7.93 8.047-135.968 8.259-62.425.103-116.339-.189-119.807-.65zm235.599-5.474c4.586-.91 11.555-3.399 17.208-6.147 7.934-3.858 10.92-6.037 18.113-13.222 7.05-7.04 9.347-10.147 12.648-17.103 7.214-15.2 6.739-2.4 6.739-181.5v-162l-2.927-8.93c-8.26-25.204-30.161-43.04-57.262-46.632-5.125-.679-46.324-.918-119.811-.695-125.707.38-115.571-.233-132.5 8.024-12.016 5.86-23.871 17.714-29.736 29.733-7.696 15.772-7.266 5.01-7.247 181.708.015 134.694.232 158.804 1.482 164.705 5.417 25.573 26.545 46.35 53 52.12 4.734 1.032 29.913 1.325 119.293 1.388 97.823.068 114.344-.13 121-1.449zM64.542 387.9c-4.505-3.955-6.345-9.568-4.554-13.891.704-1.699 4.143-5.713 7.643-8.92l6.364-5.83V333.47l-6.567-4.763c-13.434-9.743-13.287-19.714.489-33.176l5.078-4.963v-22.705l-5.644-5.38c-10.478-9.987-11.741-14.189-5.829-19.38 15.105-13.262 42.468-14.16 60.833-1.994 8.02 5.312 7.562 10.051-1.92 19.872l-6.44 6.672v23.207l5.035 5.17c9.145 9.389 11.989 18.131 8.016 24.646-1.927 3.16-11.398 11.317-13.141 11.317-.503 0-.91 6.185-.91 13.828v13.827l7 7c5.754 5.754 7 7.57 7 10.205 0 7.727-5.79 14.128-12.784 14.136-3.26.004-12.498-4.025-13.705-5.977-.346-.56-3.248-1.019-6.45-1.019-4.877 0-6.76.567-11.631 3.5-7.746 4.664-12.901 4.782-17.883.407zm36.803-19.06c.357-5.035.65-15.621.65-23.525v-14.371l-2.565-.976c-1.411-.536-4.307-.975-6.435-.975-2.129 0-5.024.439-6.435.975l-2.565.976v47.049h16.7l.65-9.154zm4.443-48.726c.683-2.05-2.624-4.813-7.338-6.134-7.798-2.183-18.455.884-18.455 5.31 0 2.216.175 2.246 12.69 2.153 9.119-.067 12.807-.441 13.103-1.33zM89.732 309.45c2.62-.338 6.73-.164 9.136.386 5.276 1.206 7.334.58 6.93-2.108-1.084-7.192-24.311-7.514-25.649-.355-.387 2.072 1.645 3.856 3.583 3.146.681-.25 3.381-.73 6-1.069zm14.513-52.157c2.622-4.796 2.25-8.953-1.1-12.303-4.981-4.982-14.573-4.978-19.924.007-3.41 3.176-3.812 6.61-1.366 11.646 1.938 3.989 2.14 6.06 2.14 21.992v17.589l5.25-.6c2.887-.328 6.825-.249 8.75.178l3.5.777.5-18.043c.405-14.63.83-18.648 2.25-21.243zm134.827 130.934c-3.984-2.198-7.077-7.369-7.077-11.83 0-3.475 3.043-7.787 9.75-13.816l4.25-3.82-.026-13.634-.026-13.634-5.141-3.49c-13.795-9.362-14.157-18.547-1.293-32.763l5.486-6.061v-23.41l-5.598-5.127c-6.308-5.778-8.402-9.164-8.402-13.59 0-2.469.891-3.696 4.75-6.535 10.445-7.686 25.72-10.929 39.084-8.296 9.736 1.918 18.496 5.75 22.916 10.022 5.223 5.05 4.446 7.634-5.383 17.903l-6.367 6.653v22.769l5.078 4.963c10.137 9.907 12.86 18.549 8.053 25.564-1.302 1.902-5.015 5.458-8.25 7.904l-5.881 4.447v25.856l6.033 5.46c7.318 6.622 9.378 10.224 8.506 14.874-.88 4.691-5.898 10.146-10.05 10.925-4.043.759-9.837-.955-14.173-4.192-2.529-1.887-4.424-2.376-9.22-2.376-5.143 0-6.691.46-10.45 3.11-5.64 3.975-11.785 4.763-16.57 2.124zm34.923-35.117v-23.884l-2.25-.603c-3.444-.923-10.324-.743-13.185.345l-2.565.976v45.958l6.75.35c3.712.192 7.762.438 9 .545l2.25.196V353.11zm-6.5-33.163c10.34.608 9.982.668 10.322-1.728.483-3.404-7.323-6.661-14.243-5.944-8.478.88-12.374 3.484-10.912 7.293.494 1.287 1.542 1.444 5.718.86 2.813-.394 6.915-.61 9.115-.48zm11.187-12.515c.193-.58-.804-2.14-2.217-3.467-5.503-5.17-23.47-3.269-23.47 2.484 0 2.191.206 2.226 12.667 2.133 7.91-.06 12.8-.491 13.02-1.15zm-1.302-52.583c2.225-4.304 1.65-7.912-1.814-11.376-4.686-4.685-14.784-4.42-19.722.517-3.442 3.442-3.702 7.412-.85 13.003 1.77 3.468 2 5.894 2 21.01v17.09l5.75-.593c3.163-.325 7.1-.202 8.75.275l3 .866.5-18.574c.42-15.585.804-19.16 2.386-22.218zM155.39 306.61c-3.68-1.659-7.17-6.239-8.03-10.543-.773-3.864 2.545-9.229 9.093-14.702l4.542-3.796V249.18l-4.885-3.51c-11.073-7.955-13.236-15.147-7.322-24.347 1.708-2.657 5.153-6.837 7.656-9.29l4.55-4.457v-23.404l-4.623-4.34c-6.156-5.777-10.376-11.63-10.376-14.386 0-5.195 12.296-12.422 25.932-15.242 6.762-1.398 9.143-1.462 16.174-.438 14.329 2.089 27.894 10.073 27.894 16.42 0 2.098-1.754 4.646-7 10.17l-7 7.368v24.587l5.53 5.797c8.443 8.853 11.057 15.913 8.046 21.736-1.55 3-9.004 10.236-12.432 12.07-2.034 1.09-2.144 1.861-2.144 15.01v13.861l7 7c5.965 5.966 7 7.51 7 10.456 0 4.57-3.604 9.799-8.361 12.13-4.48 2.196-8.777 1.374-15.04-2.876-2.983-2.025-4.91-2.503-10.077-2.503-5.375 0-7.164.481-11.267 3.032-5.854 3.64-10.665 4.476-14.86 2.586zm33.945-26.868c1.117-24.404.893-32.446-.922-33.143-2.05-.787-12.786-.787-14.837 0-1.38.53-1.581 3.591-1.581 24v23.393h16.689l.651-14.25zm-6.34-41.87c11.068.702 10.5.798 10.5-1.761 0-5.342-12.724-8.014-21.48-4.51-3.451 1.38-4.02 2.036-4.02 4.629v3.02l5.25-.832c2.887-.458 7.275-.704 9.75-.547zm11-12.915c0-4.434-9.721-7.708-17.627-5.936-6.428 1.44-8.373 2.675-8.373 5.317 0 2.25.142 2.275 13 2.275 11.43 0 13-.2 13-1.656zm-4-29.219c0-14.852.234-17.285 2-20.746 2.19-4.292 2.573-9.06.97-12.055-3.508-6.556-18.706-6.444-23.34.172-2.17 3.1-2.056 6.625.37 11.383 1.768 3.47 2 5.897 2 20.997v17.075h18v-16.826zm-125.58 17.428c-3.362-2.115-6.42-7.558-6.42-11.425 0-3.098 4.656-9.575 9.933-13.816l4.067-3.268V157.163l-5.032-3.693C53.09 143.286 52.8 134.756 65.857 120.8l6.138-6.562V92.431l-6.076-5.97c-10.122-9.942-11.264-14.207-5.225-19.509 7.236-6.353 18.52-9.935 31.3-9.935 12.78 0 24.065 3.582 31.301 9.935 6.039 5.302 4.897 9.567-5.224 19.51l-6.076 5.969V114.25l6.373 6.756c12.991 13.771 12.416 23.156-2.028 33.094l-4.345 2.99v27.003l6.439 6.2c7.306 7.035 8.548 10.128 6.466 16.104-3.328 9.548-15.491 11.426-24.24 3.743-1.263-1.108-3.784-1.617-8.082-1.629-5.291-.015-6.893.43-10.467 2.904-5.522 3.823-13.196 4.583-17.696 1.752zm35.58-35.113v-23.938l-4.464-.67c-2.454-.368-6.167-.266-8.25.226l-3.786.895-.268 23.713-.269 23.713h17.037v-23.939zm4.4-33.849a38.212 38.212 0 0 0-.25-2.186c-.311-2.018-6.784-4.344-12.15-4.367-7.286-.03-13 2.43-13 5.597v2.358l12.75-.095c9.327-.07 12.723-.42 12.65-1.307zm-10.4-10.374c10.482.763 10.5.76 10.5-1.23 0-5.028-11.879-8.214-19.942-5.348-4.43 1.575-6.19 3.651-5.225 6.167.55 1.435 1.388 1.573 5.41.89 2.616-.444 6.782-.66 9.257-.48zm7-30.628c0-15.317.228-17.737 2-21.21 2.857-5.6 2.583-9.263-.958-12.804-5.33-5.33-15.163-4.958-20.292.767-3.25 3.626-3.396 6.016-.728 11.896 1.724 3.8 1.978 6.561 1.98 21.5l.002 17.141h17.998l-.001-17.29zm136.298 108.83c-3.949-2.407-6.298-6.758-6.298-11.663 0-3.275.84-4.563 7-10.722l7-7V156.13l-3.25-2.226c-15.835-10.85-16.698-20.323-3.158-34.642l5.408-5.718V90.725l-7-7.369c-6.24-6.568-7-7.798-7-11.315 0-3.286.544-4.354 3.25-6.383 12.154-9.113 30.24-12.373 45.69-8.236 7.916 2.12 12.39 4.369 17.459 8.777 3.603 3.134 3.846 3.672 3.205 7.089-.521 2.779-2.422 5.416-7.649 10.612l-6.955 6.914v22.424l5.804 6.205c6.849 7.321 9.196 11.809 9.196 17.583 0 5.673-2.693 9.728-9.987 15.04l-6.013 4.379v26.235l5.057 4.264c2.781 2.345 6.208 6.004 7.616 8.131 3.46 5.23 2.621 9.86-2.765 15.245-3.729 3.729-4.177 3.902-8.922 3.446-3.232-.31-6.784-1.591-10.058-3.627-4.161-2.586-6.095-3.146-10.872-3.146-4.194 0-6.193.462-7.184 1.659-2.041 2.467-8.89 5.295-12.872 5.315-1.925.01-4.941-.86-6.702-1.933zm35.702-34.979v-23.938l-4.58-.687c-2.518-.378-6.455-.291-8.75.193l-4.17.879-.268 23.746-.269 23.746h18.037v-23.939zm3.812-34.815c.915-6.254-19.05-8.06-24.35-2.203-3.442 3.802-1.525 4.529 11.673 4.428 11.819-.09 12.378-.188 12.677-2.225zm-15.633-9.776c2.024-.366 6.018-.164 8.877.449 6.167 1.322 8.618.21 6.842-3.109-1.439-2.688-6.884-4.81-12.346-4.81-5.276 0-12.141 2.486-12.992 4.705-.848 2.208 1.42 4.512 3.865 3.928 1.141-.273 3.73-.796 5.754-1.163zm15.155-53.862c2.137-4.592 1.657-7.344-1.902-10.903-3.727-3.726-9.911-4.471-15.734-1.896-7.007 3.1-8.464 7.81-4.698 15.191 1.77 3.47 2 5.894 2 21.1v17.179l4.75-.543c2.612-.298 6.55-.24 8.75.13l4 .672.511-18.52c.415-15.01.855-19.255 2.323-22.41z" fill="#dc8c8f"/><path d="M63.45 445.929c-8.573-1.024-21.264-5.394-29.078-10.013-13.115-7.751-26.199-23.887-31.56-38.923l-2.317-6.5L.23 225.574C-.062 43.23-.486 55.925 6.377 41.494c8.917-18.75 24.706-32.13 45.618-38.659l7.5-2.342h239l7.5 2.328c19.88 6.17 36.453 20.036 45.027 37.672 7.418 15.256 6.941 2.76 6.958 182.59.014 156.443-.047 161.83-1.917 169.144-6.454 25.234-25.915 44.46-52.626 51.988l-7.942 2.239-112.5.158c-61.875.087-115.67-.22-119.545-.683zm243.066-7.157c24.997-8.48 42.693-28.8 46.473-53.362.73-4.738.969-57.172.76-166.417-.34-177.506.267-162.518-7.182-177.5-6.487-13.048-16.422-22.806-30.072-29.536-16.136-7.955-6.455-7.394-133.392-7.726-93.96-.245-114.79-.054-121.549 1.112-22.424 3.87-40.695 16.974-50.03 35.882-8.09 16.387-7.598 3.914-7.297 185.04l.268 161.228 2.782 8.215c6.442 19.02 22.116 35.106 40.766 41.838 12.099 4.368 10.603 4.322 133.452 4.13l117-.183 8.02-2.721zM66.299 389.096c-3.941-2.476-6.227-5.85-6.94-10.247-.62-3.819 1.68-7.253 9.886-14.763l4.75-4.348V333.09l-4.308-2.963c-5.96-4.102-11.353-10.312-12.166-14.011-.98-4.467 2.923-12.333 9.813-19.775l5.66-6.114v-22.581l-6.938-7.156c-9.996-10.31-10.237-13.527-1.464-19.563 5.663-3.896 13.083-6.555 22.273-7.98 12.372-1.92 28.868 2.489 37.425 10.002 6.149 5.398 4.781 9.548-6.545 19.863l-3.75 3.415v25l5.644 6.096c5.954 6.431 9.297 12.442 9.334 16.782.037 4.395-6.26 12.305-13.228 16.618l-2.75 1.702v27.586l6.435 6.31c9.03 8.853 9.702 13.28 3.11 20.472-3.03 3.306-3.916 3.701-8.307 3.701-3.806 0-6.095-.733-10.143-3.25-4.359-2.71-6.21-3.25-11.133-3.25-4.994 0-6.584.48-10.315 3.11-5.73 4.039-11.89 4.79-16.343 1.993zm35.046-20.257c.357-5.034.65-15.782.65-23.883 0-16.699.43-15.936-9-15.936-2.475 0-5.513.272-6.75.603l-2.25.603V377.993h16.7l.65-9.154zm4.443-49.012c.754-3.916-7.94-7.497-15.637-6.442-6.411.879-9.607 2.7-9.954 5.673l-.298 2.55 12.791-.096c10.85-.08 12.838-.336 13.098-1.686zm-12.293-10.272c2.2.016 5.8.233 8 .483 3.721.423 4 .28 4-2.045 0-1.857-.9-2.95-3.5-4.248-7.195-3.594-22-1.111-22 3.69 0 3.244.966 3.752 5.467 2.876 2.218-.431 5.833-.772 8.033-.756zm4.4-13.695l4.1.92v-17.182c0-15.208.23-17.633 2-21.105 5.261-10.32-.673-18.528-12.392-17.14-9.665 1.145-13.397 6.476-10.124 14.46 1.593 3.883 1.978 7.761 2.26 22.786l.339 18.106 4.86-.883c2.878-.524 6.529-.508 8.958.038zm141.34 92.139c-4.16-2.538-7.232-7.57-7.237-11.86-.003-2.82 1.109-4.465 6.997-10.353l7-7v-13.861c0-13.149-.11-13.92-2.145-15.01-3.427-1.834-10.88-9.07-12.432-12.07-3.097-5.99-.593-12.678 8.202-21.898l5.375-5.635v-24.667l-7-7.22c-5.51-5.682-7-7.858-7-10.222 0-8.46 22.822-18.344 38.727-16.774 12.436 1.228 26.035 7.22 29.951 13.196 2.366 3.612.975 6.674-6.703 14.757l-6.975 7.343v22.5l5.52 5.963c9.632 10.404 12.025 18.422 7.424 24.883-2.296 3.225-11.482 10.922-13.034 10.922-.504 0-.91 6.23-.91 13.94v13.941l4.933 4.16c7.358 6.205 10.418 11.057 9.55 15.147-1.578 7.44-8.817 12.776-15.379 11.335-1.589-.349-4.978-1.96-7.531-3.579-3.88-2.46-5.684-2.944-10.973-2.944-4.844 0-6.936.476-8.907 2.027-3.31 2.603-8.993 4.974-11.911 4.97-1.255-.003-3.749-.899-5.541-1.991zm34.76-34.899c0-27.031.662-25.107-8.648-25.107-9.828 0-9.352-1.271-9.352 24.99v22.919l6.75.35c3.712.192 7.762.438 9 .545l2.25.196V353.1zm3.792-35.107c-.618-5.288-12.318-7.774-20.734-4.406-3.678 1.471-5.852 4.313-4.712 6.158.262.423 6.16.765 13.107.759l12.63-.01-.291-2.5zm1.012-11.223c.58-3.01-5.437-5.769-12.586-5.773-8.162-.005-13.218 2.03-13.218 5.322v2.427l12.736-.126c11.2-.112 12.777-.335 13.068-1.85zm-1.541-50.995c2.438-5.22 2.17-8.265-1.046-11.864-3.278-3.67-9.752-4.887-15.647-2.941-7.512 2.479-9.638 8.695-5.57 16.284 1.776 3.314 2 5.642 2 20.807v17.076l5.25-.577c2.887-.318 6.825-.219 8.75.22l3.5.799.513-18.043c.405-14.245.878-18.826 2.25-21.76zm-123.5 49.71c-3.592-2.024-5.763-6.39-5.763-11.585 0-3.885.514-4.686 7-10.907l7-6.714-.054-13.393-.054-13.393-5.962-4.252c-3.279-2.338-6.853-5.713-7.942-7.5-4.205-6.896-1.711-14.993 7.637-24.794l5.375-5.635V184.314l-6.844-6.954c-9.329-9.477-9.853-13.31-2.58-18.858 6.233-4.753 15.664-7.687 26.556-8.259 14.106-.741 26.172 2.688 34.171 9.712 5.794 5.087 4.78 8.675-5.227 18.507l-6.076 5.969v22.892l6.026 6.276c6.847 7.13 8.974 11.363 8.974 17.86 0 3.79-.584 5.174-3.578 8.489-1.968 2.178-5.567 5.217-7.999 6.753l-4.42 2.792-.002 13.404-.002 13.405 6.034 5.46c3.318 3.002 6.71 6.77 7.54 8.373 2.094 4.05.92 9.193-3.064 13.417-2.801 2.97-3.888 3.441-7.928 3.441-4.605 0-9.42-1.785-12.799-4.746-1.119-.98-3.904-1.524-8-1.561-5.293-.048-6.962.392-10.593 2.798-5.239 3.47-13.2 4.384-17.427 2.001zm36.005-34.766c.307-27.215 1.043-25.238-9.385-25.209-9.72.028-9.383-.885-9.383 25.439 0 12.49.316 23.027.702 23.413.387.387 4.55.574 9.25.417l8.548-.286.268-23.774zm3.732-34.708c0-3.606-5.38-6.357-12.378-6.329-6.15.025-12.81 2.334-13.743 4.766-1.43 3.728-.008 4.163 13.265 4.065l12.856-.096v-2.406zm-10.5-9.154c10.98.736 10.5.816 10.5-1.756 0-5.713-11.425-8.936-20.03-5.65-8.598 3.284-8.23 9.442.472 7.908 2.507-.442 6.583-.668 9.058-.502zm8-30.845c0-15.619.229-18.033 2.152-22.674 1.885-4.548 1.993-5.58.868-8.295-3.43-8.28-16.112-10.168-23.132-3.443-3.274 3.137-3.832 8.118-1.388 12.393 1.09 1.907 1.437 6.793 1.464 20.583.02 9.946.227 18.271.46 18.5.233.23 4.734.417 10 .417h9.577v-17.48zm-126.96 16.362c-1.711-1.44-3.771-3.893-4.576-5.45-2.779-5.374-1.968-7.625 5.536-15.363l7-7.22v-27.917l-2.75-1.702c-6.611-4.091-13.259-12.184-13.24-16.118.018-3.964 4.668-12.104 10.332-18.086l5.658-5.975V91.866l-7.5-7.873c-8.706-9.14-9.332-11.487-4.309-16.179 15.198-14.197 46.965-14.34 63.666-.287 5.531 4.654 4.092 8.843-6.607 19.236l-5.25 5.1V114.998l3.89 3.515c5.423 4.9 11.06 13.398 11.764 17.736.822 5.07-2.958 11.21-10.018 16.272l-5.54 3.972-.048 14.004-.048 14.004 6.53 6.447c9.208 9.087 9.677 13.073 2.396 20.354-3.697 3.697-4.24 3.915-8.685 3.488-2.863-.275-6.524-1.585-9.241-3.307-2.92-1.85-6.256-2.995-9.5-3.259-5.222-.424-7.363.231-14 4.29-5.514 3.372-11.349 3.32-15.46-.14zm35.96-34.32v-23.938l-4.66-.7c-2.562-.383-6.275-.298-8.25.19l-3.59.887-.268 23.75-.269 23.75h17.037v-23.939zm4.77-33.872c1.264-3.793-8.704-7.873-16.195-6.629-6.135 1.019-9.575 3.105-9.575 5.807 0 2.305.063 2.316 12.667 2.222 9.461-.071 12.778-.426 13.103-1.4zm-10.27-10.218c9.199.752 9.985.632 10.3-1.573.514-3.598-4.21-5.856-12.3-5.878-9.354-.027-13.5 1.73-13.5 5.717v2.994l5.75-.794c3.162-.436 7.55-.645 9.75-.466zm6.5-30.51c0-15.064.231-17.493 2-20.96 2.863-5.618 2.61-10.045-.769-13.423-7.132-7.133-23.231-3.033-23.231 5.916 0 1.697.9 4.85 2 7.006 1.771 3.473 2 5.894 2 21.21v17.29h18v-17.038zm134.99 106.87c-3.476-3.241-4.278-4.707-4.72-8.62l-.531-4.715 7.13-7.005 7.13-7.004-.025-13.743-.026-13.744-5.141-3.49c-6.56-4.452-10.807-10.229-10.807-14.7 0-4.746 3.337-10.763 9.625-17.356l5.375-5.635V89.681l-5.045-4.638c-10.009-9.201-11.275-13.806-5.251-19.095 8.48-7.446 25.16-11.882 37.523-9.98 8.361 1.288 16.07 4.125 22.152 8.153 8.818 5.84 8.58 9.033-1.441 19.368l-6.938 7.156v23.295l4.514 4.515c7.062 7.061 10.486 13.12 10.486 18.554 0 3.861-.593 5.316-3.59 8.818-1.974 2.306-5.574 5.559-8 7.228l-4.41 3.034v26.762l6.103 5.821c9.399 8.964 10.482 12.705 5.672 19.586-4.599 6.579-12.692 7.293-20.475 1.807-3.702-2.61-5.269-3.072-10.4-3.072-5.145 0-6.721.469-10.637 3.163-3.053 2.1-6.19 3.316-9.342 3.619-4.41.423-5.04.18-8.932-3.45zm37.01-33.214v-23.884l-2.25-.603c-3.444-.923-10.324-.743-13.185.345l-2.565.976v47.049h18V177.11zm4-34.923c0-3.506-7.664-6.612-14.558-5.9-6.372.658-11.442 3.124-11.442 5.565 0 .994.206 2.015.46 2.267.252.253 6.102.44 13 .417 12.416-.043 12.54-.066 12.54-2.35zm-17.05-9.277c3.656-.784 6.48-.776 10.235.03 4.161.892 5.452.845 6.537-.24 3.306-3.306-3.199-7.71-11.373-7.701-9.77.01-16.422 3.792-13.296 7.558 1.428 1.72 1.504 1.724 7.897.353zm7.912-14.315c1.45.321 3.425.798 4.388 1.058 1.618.44 1.75-.842 1.75-16.965 0-15.523.23-17.96 2.092-22.17 2.548-5.76 1.948-10.562-1.676-13.412-5.206-4.095-14.221-3.831-19.451.57-2.414 2.031-2.965 3.269-2.962 6.656.002 2.393.853 5.553 2 7.435 1.793 2.94 1.997 5.045 1.997 20.621v17.347l4.612-.862c2.537-.474 5.8-.599 7.25-.278z" fill="#8c948b"/><path d="M63.45 445.929c-8.573-1.024-21.264-5.394-29.078-10.013-13.115-7.751-26.199-23.887-31.56-38.923l-2.317-6.5L.23 225.574C-.062 43.23-.486 55.925 6.377 41.494c8.917-18.75 24.706-32.13 45.618-38.659l7.5-2.342h239l7.5 2.328c19.88 6.17 36.453 20.036 45.027 37.672 7.418 15.256 6.941 2.76 6.958 182.59.014 156.443-.047 161.83-1.917 169.144-6.454 25.234-25.915 44.46-52.626 51.988l-7.942 2.239-112.5.158c-61.875.087-115.67-.22-119.545-.683zm243.066-7.157c24.997-8.48 42.693-28.8 46.473-53.362.73-4.738.969-57.172.76-166.417-.34-177.506.267-162.518-7.182-177.5-6.487-13.048-16.422-22.806-30.072-29.536-16.136-7.955-6.455-7.394-133.392-7.726-93.96-.245-114.79-.054-121.549 1.112-22.424 3.87-40.695 16.974-50.03 35.882-8.09 16.387-7.598 3.914-7.297 185.04l.268 161.228 2.782 8.215c6.442 19.02 22.116 35.106 40.766 41.838 12.099 4.368 10.603 4.322 133.452 4.13l117-.183 8.02-2.721zM65.21 388.432c-3.022-2.116-5.216-6.63-5.216-10.728 0-3.9 3.166-8.414 9.616-13.71l4.262-3.5.06-14.25c.035-7.942-.341-14.25-.849-14.25-1.743 0-11.214-8.157-13.141-11.318-4.053-6.647-1.526-14.717 7.644-24.415l5.408-5.718v-22.898l-7-7.22c-6.29-6.486-7-7.623-7-11.207 0-3.325.54-4.399 3.25-6.462 15.063-11.469 39.034-12.927 56.193-3.42 7.304 4.048 10.08 7.438 9.143 11.168-.37 1.477-3.804 5.993-7.63 10.035l-6.956 7.35v22.349l5.804 6.205c6.955 7.435 9.196 11.808 9.196 17.948 0 3.894-.565 5.221-3.693 8.684-2.031 2.248-5.631 5.42-8 7.05l-4.307 2.964v26.604l5.861 5.098c7.486 6.511 9.616 10.717 8.161 16.118-.622 2.31-2.376 5.045-4.243 6.617-2.797 2.353-3.857 2.63-8.734 2.277-3.915-.283-6.724-1.199-9.53-3.106-3.348-2.274-5.045-2.704-10.688-2.704-3.69 0-6.991.457-7.336 1.014-2.628 4.252-15.895 6.493-20.275 3.425zm36.784-34.42v-23.98l-2.75-.742c-3.907-1.054-11.615-.707-14.123.635-2.077 1.112-2.127 1.692-2.127 24.603v23.465h19v-23.98zm-6-32.498c9.334-.02 9.5-.062 9.5-2.402 0-7.425-23.753-8.2-26.085-.852-.85 2.675 2.129 5.047 5.032 4.009 1.13-.404 6.328-.744 11.553-.755zm9.794-13.137c.161-1.097-.514-2.693-1.5-3.547-2.13-1.845-7.719-3.837-10.762-3.837-4.316 0-12.5 3.071-13.585 5.098-2.033 3.8.008 4.473 13.244 4.373 11.494-.088 12.328-.226 12.603-2.087zm-2.794-29.365c0-15.535.236-18.05 2.12-22.595 2.055-4.96 2.066-5.228.365-8.814-2.149-4.528-5.924-6.61-11.985-6.61-11.214 0-16.498 7.936-11.497 17.267 1.864 3.477 1.957 4.933 1.352 20.985l-.65 17.248h20.295v-17.48zm134.22 107.514c-1.924-1.62-3.621-4.309-4.293-6.802-1.501-5.575.22-8.983 7.996-15.827l6.077-5.349V332.09l-4.308-2.963c-2.368-1.63-5.968-4.803-8-7.051-3.278-3.63-3.692-4.682-3.692-9.389 0-6.206 2.93-11.473 10.375-18.651l4.625-4.458v-22.688l-6.957-7.35c-7.052-7.45-9.142-11.562-7.346-14.45.546-.878 2.827-3.005 5.07-4.728 12.379-9.506 37.092-10.997 52.673-3.177 8.214 4.122 10.56 6.534 10.56 10.857 0 3.517-.761 4.747-7 11.315l-7 7.37v22.5l5.644 6.096c12.643 13.656 12.481 22.608-.575 31.92l-5.962 4.251-.053 13.7-.054 13.7 4.525 3.783c8.884 7.426 11.363 13.765 7.958 20.35-3.387 6.55-13.413 7.805-21.026 2.632-3.248-2.207-5.032-2.665-10.386-2.665-5.39 0-7.11.448-10.348 2.692-2.792 1.935-5.493 2.809-9.602 3.106-5.064.366-6.08.107-8.9-2.265zm37.78-33.486v-23.953l-3.75-1.041c-4.707-1.308-6.793-1.308-11.5 0l-3.75 1.041v47.906h19V353.04zm3.77-34.095c.451-2.34-3.77-5.718-8.465-6.772-4.81-1.08-12.473.044-15.986 2.347-2.112 1.384-3.074 4.385-1.811 5.648.28.28 6.236.465 13.237.413 10.617-.08 12.778-.351 13.025-1.636zm.067-11.348c1.534-7.96-21.405-10.144-26.154-2.49-2.37 3.82-.531 4.436 12.948 4.337 11.423-.084 12.907-.292 13.206-1.847zm-3.837-29.394c0-15.316.228-17.737 2-21.21 3.002-5.885 2.622-9.578-1.4-13.6-3.076-3.076-3.947-3.4-9.132-3.4-6.83 0-11.607 2.506-13.503 7.085-1.107 2.672-.994 3.734.882 8.26 1.917 4.624 2.153 7.066 2.153 22.258 0 9.385.187 17.251.416 17.48.23.23 4.504.417 9.5.417h9.084v-17.29zm-121.238 27.282c-3.59-2.024-5.762-6.39-5.762-11.585 0-3.885.514-4.686 7-10.907l7-6.714-.054-13.393-.054-13.393-5.962-4.252c-3.279-2.338-6.853-5.713-7.942-7.5-4.205-6.896-1.711-14.993 7.637-24.794l5.375-5.635V184.314l-6.844-6.954c-9.329-9.477-9.853-13.31-2.58-18.858 6.233-4.753 15.664-7.687 26.556-8.259 14.106-.741 26.172 2.688 34.171 9.712 5.794 5.087 4.78 8.675-5.227 18.507l-6.076 5.968v22.893l6.026 6.276c6.847 7.13 8.974 11.363 8.974 17.86 0 3.79-.584 5.174-3.578 8.489-1.968 2.178-5.567 5.217-7.999 6.753l-4.42 2.792-.002 13.404-.002 13.405 6.034 5.46c3.318 3.002 6.71 6.77 7.54 8.373 2.094 4.05.92 9.193-3.064 13.417-2.801 2.97-3.888 3.441-7.928 3.441-4.605 0-9.42-1.785-12.799-4.746-1.119-.98-3.904-1.524-8-1.561-5.293-.048-6.962.392-10.593 2.798-5.239 3.47-13.2 4.384-17.427 2.001zm36.006-34.766c.307-27.215 1.043-25.238-9.385-25.209-9.72.028-9.383-.885-9.383 25.439 0 12.49.316 23.027.702 23.413.387.387 4.55.574 9.25.417l8.548-.286.268-23.774zm3.732-34.708c0-3.606-5.38-6.357-12.378-6.329-6.15.025-12.81 2.334-13.743 4.766-1.43 3.728-.008 4.163 13.265 4.065l12.856-.096v-2.406zm-10.5-9.154c10.98.736 10.5.816 10.5-1.756 0-5.713-11.425-8.936-20.03-5.65-8.598 3.284-8.23 9.442.472 7.908 2.507-.442 6.583-.668 9.058-.502zm8-30.845c0-15.619.229-18.033 2.152-22.674 1.885-4.548 1.993-5.58.868-8.295-3.43-8.28-16.112-10.168-23.132-3.443-3.274 3.137-3.832 8.118-1.388 12.393 1.09 1.907 1.437 6.793 1.464 20.583.02 9.946.227 18.271.46 18.5.233.23 4.734.417 10 .417h9.577v-17.48zM66.41 213.618c-4.816-2.17-7.415-6.177-7.415-11.432 0-4.285.39-4.928 7-11.538l7-7v-26.427l-5.843-4.278c-11.604-8.495-13.17-15.21-6.041-25.886 2.264-3.39 5.639-7.379 7.5-8.864l3.384-2.7V91.89l-6.835-7.221c-10.32-10.904-10.32-14.226.006-20.42 7.886-4.73 20.376-7.648 29.802-6.962 9.393.684 19.156 3.695 25.411 7.838 8.883 5.884 8.449 10.127-2.094 20.465l-6.29 6.167v22.787l5.556 5.876c6.768 7.157 9.444 12.162 9.444 17.666 0 5.609-2.72 9.69-9.987 14.981l-6.013 4.379V183.556l6.076 5.968c7.96 7.82 9.294 10.379 7.974 15.283-2.64 9.802-12.086 12.57-21.955 6.436-4.358-2.71-6.21-3.25-11.132-3.25-4.925 0-6.615.494-10.184 2.976-5.123 3.563-11.062 4.587-15.364 2.65zm34.585-35.09c0-22.175-.107-23.521-1.935-24.5-2.444-1.308-11.123-1.344-14.5-.06l-2.565.976v47.049h19v-23.465zm-14.05-32.618c3.656-.784 6.48-.776 10.235.03 4.371.937 5.428.868 6.733-.437 2.016-2.015.636-4.373-3.993-6.823-8.381-4.436-25.598 1.183-20.915 6.826 1.475 1.776 1.53 1.78 7.94.404zm17.55-13.902c0-5.63-13.506-8.48-21.714-4.585-3.543 1.682-5.521 4.572-4.387 6.408.291.47 6.283.793 13.315.717l12.786-.138v-2.402zm-2.5-29.127c0-15.544.24-18.177 2.029-22.22 2.41-5.45 1.92-8.385-2.034-12.173-5.213-4.994-16.616-4.335-20.98 1.212-2.363 3.005-2.6 8.647-.515 12.293 1.089 1.906 1.437 6.783 1.464 20.511l.036 18.01h20v-17.633zm137.415 109.69c-3.949-1.718-7.187-5.846-8.005-10.205-.809-4.31 2.28-9.307 9.533-15.422l5.057-4.264v-26.235l-6.013-4.379c-7.249-5.279-10.146-9.621-10.233-15.338-.083-5.519 1.958-9.285 9.26-17.092l5.986-6.398V91.036l-7.005-7.117c-9.975-10.134-10.387-13.157-2.596-19.045 10.504-7.939 27.677-10.774 42.52-7.02 13.534 3.422 21.08 8.661 21.08 14.636 0 2.961-1.072 4.626-7 10.866l-7 7.37v23.087l5.452 5.674c9.154 9.527 11.666 17.522 7.6 24.189-1.927 3.16-11.398 11.317-13.141 11.317-.503 0-.91 6.185-.91 13.828v13.827l7 7c6.29 6.291 7 7.398 6.996 10.923-.011 11.57-11.091 16.392-22.035 9.589-7.04-4.377-14.672-4.468-21.645-.26-5.914 3.57-10.814 4.447-14.901 2.67zm34.585-35.019c0-16.197-.346-23.654-1.118-24.132-2.693-1.664-8.623-2.247-13.098-1.287l-4.784 1.026v47.834h19v-23.44zm-11.75-33.16c2.337-.31 6.146-.127 8.465.405 8.255 1.895 9.81-3.105 2.21-7.108-4.055-2.136-13.673-1.945-18.425.365-5.258 2.555-4.221 8.716 1.25 7.43 1.238-.291 4.163-.782 6.5-1.092zm15.25-13.38c0-3.76-5.603-6.534-13-6.437-8.624.114-14.757 3.7-13.213 7.726.38.99 3.624 1.284 13.357 1.212l12.856-.096v-2.406zm-3.501-28.809c0-15.315.229-17.737 2-21.21 2.832-5.55 2.57-9.331-.917-13.234-2.78-3.112-3.256-3.266-10.077-3.266-6.99 0-7.24.088-10.582 3.735-3.95 4.31-4.194 6.334-1.423 11.765 1.778 3.486 2 5.894 2 21.71v17.79H273.994v-17.29z" fill="#7f7f7f"/><path d="M59.07 444.918c-22.738-4.523-41.825-18.639-51.328-37.959-8.345-16.968-7.84-4.397-7.526-187.466l.279-162 2.652-7.778c9.064-26.577 31.71-45 59.863-48.7 5.94-.78 42.386-1.02 121.485-.796l113 .32 7.393 2.27c26.052 8 43.773 25.523 50.769 50.201 1.75 6.173 1.838 14.314 1.838 169.983 0 182.493.54 168.264-6.972 183.5-8.581 17.403-23.382 29.724-44.028 36.651l-7 2.35-118 .152c-64.9.083-119.992-.244-122.425-.728zm242.425-4.206c3.3-.952 10.186-3.784 15.302-6.294 15.678-7.692 28.722-22.608 34.474-39.425l2.224-6.5.28-162.5c.308-179.883.652-169.65-6.146-183.162-9.366-18.615-25.817-31.693-46.42-36.903-7.59-1.92-11.122-1.968-124.763-1.705l-116.951.27-8 2.725c-11.192 3.81-19.718 9.105-27.943 17.35-7.787 7.807-12.46 14.969-16.435 25.184l-2.622 6.741-.265 163.919c-.295 182.54-.796 168.792 6.72 184.131 9.508 19.407 30.793 34.449 52.854 37.353 3.68.484 57.316.805 119.19.713 103.37-.154 112.988-.308 118.5-1.897zM65.21 388.432c-3.022-2.116-5.216-6.63-5.216-10.728 0-3.9 3.166-8.414 9.616-13.71l4.262-3.5.06-14.25c.035-7.942-.341-14.25-.849-14.25-1.743 0-11.214-8.157-13.141-11.318-4.053-6.647-1.526-14.717 7.644-24.415l5.408-5.718v-22.898l-7-7.22c-6.29-6.486-7-7.623-7-11.207 0-3.325.54-4.399 3.25-6.462 15.063-11.469 39.034-12.927 56.193-3.42 7.304 4.048 10.08 7.438 9.143 11.168-.37 1.477-3.804 5.993-7.63 10.035l-6.956 7.35v22.349l5.804 6.205c6.955 7.435 9.196 11.808 9.196 17.948 0 3.894-.565 5.221-3.693 8.684-2.031 2.248-5.631 5.42-8 7.05l-4.307 2.964v26.604l5.861 5.098c7.486 6.511 9.616 10.717 8.161 16.118-.622 2.31-2.376 5.045-4.243 6.617-2.797 2.353-3.857 2.63-8.734 2.277-3.915-.283-6.724-1.199-9.53-3.106-3.348-2.274-5.045-2.704-10.688-2.704-3.69 0-6.991.457-7.336 1.014-2.628 4.252-15.895 6.493-20.275 3.425zm36.784-34.42v-23.98l-2.75-.742c-3.907-1.054-11.615-.707-14.123.635-2.077 1.112-2.127 1.692-2.127 24.603v23.465h19v-23.98zm-6-32.498c9.334-.02 9.5-.062 9.5-2.402 0-7.425-23.753-8.2-26.085-.852-.85 2.675 2.129 5.047 5.032 4.009 1.129-.404 6.328-.744 11.553-.755zm9.794-13.137c.161-1.097-.514-2.693-1.5-3.547-2.13-1.845-7.719-3.837-10.762-3.837-4.316 0-12.5 3.071-13.585 5.098-2.033 3.8.008 4.473 13.244 4.373 11.494-.088 12.328-.226 12.603-2.087zm-2.794-29.365c0-15.535.236-18.05 2.12-22.595 2.055-4.96 2.066-5.228.365-8.814-2.149-4.528-5.924-6.61-11.985-6.61-11.214 0-16.498 7.936-11.497 17.267 1.864 3.477 1.957 4.933 1.352 20.985l-.65 17.248h20.295v-17.48zm134.22 107.514c-1.924-1.62-3.621-4.309-4.293-6.802-1.501-5.575.22-8.983 7.996-15.827l6.077-5.349V332.09l-4.308-2.963c-2.368-1.63-5.968-4.803-8-7.051-3.278-3.63-3.692-4.682-3.692-9.389 0-6.206 2.93-11.473 10.375-18.651l4.625-4.458v-22.688l-6.957-7.35c-7.052-7.45-9.142-11.562-7.346-14.45.546-.878 2.827-3.005 5.07-4.728 12.379-9.506 37.092-10.997 52.673-3.177 8.214 4.122 10.56 6.534 10.56 10.857 0 3.517-.761 4.747-7 11.315l-7 7.37v22.5l5.644 6.096c12.643 13.656 12.481 22.608-.575 31.92l-5.962 4.251-.053 13.7-.054 13.7 4.525 3.783c8.884 7.426 11.363 13.765 7.958 20.35-3.387 6.55-13.413 7.805-21.026 2.632-3.248-2.207-5.032-2.665-10.386-2.665-5.39 0-7.11.448-10.348 2.692-2.792 1.935-5.493 2.809-9.602 3.106-5.064.366-6.08.107-8.9-2.265zm37.78-33.486v-23.953l-3.75-1.041c-4.707-1.308-6.793-1.308-11.5 0l-3.75 1.041v47.906h19V353.04zm3.77-34.095c.451-2.34-3.77-5.718-8.465-6.772-4.81-1.08-12.473.044-15.986 2.347-2.112 1.384-3.074 4.385-1.811 5.648.28.28 6.236.465 13.237.413 10.617-.08 12.778-.351 13.025-1.636zm.067-11.348c1.534-7.96-21.405-10.144-26.154-2.49-2.37 3.82-.531 4.436 12.948 4.337 11.423-.084 12.907-.292 13.206-1.847zm-3.837-29.394c0-15.316.228-17.737 2-21.21 3.002-5.885 2.622-9.578-1.4-13.6-3.076-3.076-3.947-3.4-9.132-3.4-6.83 0-11.607 2.506-13.503 7.085-1.107 2.672-.994 3.734.882 8.26 1.917 4.624 2.153 7.066 2.153 22.258 0 9.385.187 17.251.416 17.48.23.23 4.504.417 9.5.417h9.084v-17.29zm-121.238 27.282c-3.59-2.024-5.762-6.39-5.762-11.585 0-3.885.514-4.686 7-10.907l7-6.714-.054-13.393-.054-13.393-5.962-4.252c-3.279-2.338-6.853-5.713-7.942-7.5-4.205-6.896-1.711-14.993 7.637-24.794l5.375-5.635V184.314l-6.844-6.954c-9.329-9.477-9.853-13.31-2.58-18.858 6.233-4.753 15.664-7.687 26.556-8.259 14.106-.741 26.172 2.688 34.171 9.712 5.794 5.087 4.78 8.675-5.227 18.507l-6.076 5.968v22.893l6.026 6.276c6.847 7.13 8.974 11.363 8.974 17.86 0 3.79-.584 5.174-3.578 8.489-1.968 2.178-5.567 5.217-7.999 6.753l-4.42 2.792-.002 13.404-.002 13.405 6.034 5.46c3.318 3.002 6.71 6.77 7.54 8.373 2.094 4.05.92 9.193-3.064 13.417-2.801 2.97-3.888 3.441-7.928 3.441-4.605 0-9.42-1.785-12.799-4.746-1.119-.98-3.904-1.524-8-1.561-5.293-.048-6.962.392-10.593 2.798-5.239 3.47-13.2 4.384-17.427 2.001zm36.006-34.766c.307-27.215 1.043-25.238-9.385-25.209-9.72.028-9.383-.885-9.383 25.439 0 12.49.316 23.027.702 23.413.387.387 4.55.574 9.25.417l8.548-.286.268-23.774zm3.732-34.708c0-3.606-5.38-6.357-12.378-6.329-6.15.025-12.81 2.334-13.743 4.766-1.43 3.728-.008 4.163 13.265 4.065l12.856-.096v-2.406zm-10.5-9.154c10.98.736 10.5.816 10.5-1.756 0-5.713-11.425-8.936-20.03-5.65-8.598 3.284-8.23 9.442.472 7.908 2.507-.442 6.583-.668 9.058-.502zm8-30.845c0-15.619.229-18.033 2.152-22.674 1.885-4.548 1.993-5.58.868-8.295-3.43-8.28-16.112-10.168-23.132-3.443-3.274 3.137-3.832 8.118-1.388 12.393 1.09 1.907 1.437 6.793 1.464 20.583.02 9.946.227 18.271.46 18.5.233.23 4.734.417 10 .417h9.577v-17.48zM66.41 213.618c-4.816-2.17-7.415-6.177-7.415-11.432 0-4.285.39-4.928 7-11.538l7-7v-26.427l-5.843-4.278c-11.604-8.495-13.17-15.21-6.041-25.886 2.264-3.39 5.639-7.379 7.5-8.864l3.384-2.7V91.89l-6.835-7.221c-10.32-10.904-10.32-14.226.006-20.42 7.886-4.73 20.376-7.648 29.802-6.962 9.393.684 19.156 3.695 25.411 7.838 8.883 5.884 8.449 10.127-2.094 20.465l-6.29 6.167v22.787l5.556 5.876c6.768 7.157 9.444 12.162 9.444 17.666 0 5.609-2.72 9.69-9.987 14.981l-6.013 4.379V183.556l6.076 5.968c7.96 7.82 9.294 10.379 7.974 15.283-2.64 9.802-12.086 12.57-21.955 6.436-4.358-2.71-6.21-3.25-11.132-3.25-4.925 0-6.615.494-10.184 2.976-5.123 3.563-11.062 4.587-15.364 2.65zm34.585-35.09c0-22.175-.107-23.521-1.935-24.5-2.444-1.308-11.123-1.344-14.5-.06l-2.565.976v47.049h19v-23.465zm-14.05-32.618c3.656-.784 6.48-.776 10.235.03 4.371.937 5.428.868 6.733-.437 2.016-2.015.636-4.373-3.993-6.823-8.381-4.436-25.598 1.183-20.915 6.826 1.475 1.776 1.53 1.78 7.94.404zm17.55-13.902c0-5.63-13.506-8.48-21.714-4.585-3.543 1.682-5.521 4.572-4.387 6.408.291.47 6.283.793 13.315.717l12.786-.138v-2.402zm-2.5-29.127c0-15.544.24-18.177 2.029-22.22 2.41-5.45 1.92-8.385-2.034-12.173-5.213-4.994-16.616-4.335-20.98 1.212-2.363 3.005-2.6 8.647-.515 12.293 1.089 1.906 1.437 6.783 1.464 20.511l.036 18.01h20v-17.633zm137.415 109.69c-3.949-1.718-7.188-5.846-8.005-10.205-.809-4.31 2.28-9.307 9.533-15.422l5.057-4.264v-26.235l-6.013-4.379c-7.249-5.279-10.146-9.621-10.233-15.338-.083-5.519 1.958-9.285 9.26-17.092l5.986-6.398V91.036l-7.005-7.117c-9.975-10.134-10.387-13.157-2.596-19.045 10.504-7.939 27.677-10.774 42.52-7.02 13.534 3.422 21.08 8.661 21.08 14.636 0 2.961-1.072 4.626-7 10.866l-7 7.37v23.087l5.452 5.674c9.154 9.527 11.666 17.522 7.6 24.189-1.927 3.16-11.398 11.317-13.141 11.317-.503 0-.91 6.185-.91 13.828v13.827l7 7c6.29 6.291 7 7.398 6.996 10.923-.011 11.57-11.091 16.392-22.035 9.589-7.04-4.377-14.672-4.468-21.645-.26-5.914 3.57-10.814 4.447-14.901 2.67zm34.585-35.019c0-16.197-.346-23.654-1.118-24.132-2.693-1.664-8.623-2.247-13.098-1.287l-4.784 1.026v47.834h19v-23.44zm-11.75-33.16c2.337-.31 6.146-.127 8.465.405 8.255 1.895 9.81-3.105 2.21-7.108-4.055-2.136-13.673-1.945-18.425.365-5.258 2.555-4.221 8.716 1.25 7.43 1.238-.291 4.163-.782 6.5-1.092zm15.25-13.38c0-3.76-5.603-6.534-13-6.437-8.624.114-14.757 3.7-13.213 7.726.38.99 3.624 1.284 13.357 1.212l12.856-.096v-2.406zm-3.501-28.809c0-15.315.229-17.737 2-21.21 2.832-5.55 2.57-9.331-.917-13.234-2.78-3.112-3.256-3.266-10.077-3.266-6.99 0-7.24.088-10.582 3.735-3.95 4.31-4.194 6.334-1.423 11.765 1.778 3.486 2 5.894 2 21.71v17.79H273.994v-17.29z" fill="#ba1a21"/><path d="M59.07 444.918c-22.738-4.523-41.825-18.639-51.328-37.959-8.345-16.968-7.84-4.397-7.526-187.466l.279-162 2.652-7.778c9.064-26.577 31.71-45 59.863-48.7 5.94-.78 42.386-1.02 121.485-.796l113 .32 7.393 2.27c26.052 8 43.773 25.523 50.769 50.201 1.75 6.173 1.838 14.314 1.838 169.983 0 182.493.54 168.264-6.972 183.5-8.581 17.403-23.382 29.724-44.028 36.651l-7 2.35-118 .152c-64.9.083-119.992-.244-122.425-.728zm242.425-4.206c3.3-.952 10.186-3.784 15.302-6.294 15.678-7.692 28.722-22.608 34.474-39.425l2.224-6.5.28-162.5c.308-179.883.652-169.65-6.146-183.162-9.366-18.615-25.817-31.693-46.42-36.903-7.59-1.92-11.122-1.968-124.763-1.705l-116.951.27-8 2.725c-11.192 3.81-19.718 9.105-27.943 17.35-7.787 7.807-12.46 14.969-16.435 25.184l-2.622 6.741-.265 163.919c-.295 182.54-.796 168.792 6.72 184.131 9.508 19.407 30.793 34.449 52.854 37.353 3.68.484 57.316.805 119.19.713 103.37-.154 112.988-.308 118.5-1.897zM65.21 388.432c-3.022-2.116-5.216-6.63-5.216-10.728 0-3.9 3.166-8.414 9.616-13.71l4.262-3.5.06-14.25c.035-7.942-.341-14.25-.849-14.25-1.743 0-11.214-8.157-13.141-11.318-4.053-6.647-1.526-14.717 7.644-24.415l5.408-5.718v-22.898l-7-7.22c-6.29-6.486-7-7.623-7-11.207 0-3.325.54-4.399 3.25-6.462 15.063-11.469 39.034-12.927 56.193-3.42 7.304 4.048 10.08 7.438 9.143 11.168-.37 1.477-3.804 5.993-7.63 10.035l-6.956 7.35v22.349l5.804 6.205c6.955 7.435 9.196 11.808 9.196 17.948 0 3.894-.565 5.221-3.693 8.684-2.031 2.248-5.631 5.42-8 7.05l-4.307 2.964v26.604l5.861 5.098c7.486 6.511 9.616 10.717 8.161 16.118-.622 2.31-2.376 5.045-4.243 6.617-2.797 2.353-3.857 2.63-8.734 2.277-3.915-.283-6.724-1.199-9.53-3.106-3.348-2.274-5.045-2.704-10.688-2.704-3.69 0-6.991.457-7.336 1.014-2.628 4.252-15.895 6.493-20.275 3.425zm36.784-34.42v-23.98l-2.75-.742c-3.907-1.054-11.615-.707-14.123.635-2.077 1.112-2.127 1.692-2.127 24.603v23.465h19v-23.98zm-6-32.498c9.334-.02 9.5-.062 9.5-2.402 0-7.425-23.753-8.2-26.085-.852-.85 2.675 2.129 5.047 5.032 4.009 1.129-.404 6.328-.744 11.553-.755zm9.794-13.137c.161-1.097-.514-2.693-1.5-3.547-2.13-1.845-7.719-3.837-10.762-3.837-4.316 0-12.5 3.071-13.585 5.098-2.033 3.8.008 4.473 13.244 4.373 11.494-.088 12.328-.226 12.603-2.087zm-2.794-29.365c0-15.535.236-18.05 2.12-22.595 2.055-4.96 2.066-5.228.365-8.814-2.149-4.528-5.924-6.61-11.985-6.61-11.214 0-16.498 7.936-11.497 17.267 1.864 3.477 1.957 4.933 1.352 20.985l-.65 17.248h20.295v-17.48zm134.22 107.514c-1.924-1.62-3.621-4.309-4.293-6.802-1.501-5.575.22-8.983 7.996-15.827l6.077-5.349V332.09l-4.308-2.963c-2.368-1.63-5.968-4.803-8-7.051-3.278-3.63-3.692-4.682-3.692-9.389 0-6.206 2.93-11.473 10.375-18.651l4.625-4.458v-22.688l-6.957-7.35c-7.052-7.45-9.142-11.562-7.346-14.45.546-.878 2.827-3.005 5.07-4.728 12.379-9.506 37.092-10.997 52.673-3.177 8.214 4.122 10.56 6.534 10.56 10.857 0 3.517-.761 4.747-7 11.315l-7 7.37v22.5l5.644 6.096c12.643 13.656 12.481 22.608-.575 31.92l-5.962 4.251-.053 13.7-.054 13.7 4.525 3.783c8.884 7.426 11.363 13.765 7.958 20.35-3.387 6.55-13.413 7.805-21.026 2.632-3.248-2.207-5.032-2.665-10.386-2.665-5.39 0-7.11.448-10.348 2.692-2.792 1.935-5.493 2.809-9.602 3.106-5.064.366-6.08.107-8.9-2.265zm37.78-33.486v-23.953l-3.75-1.041c-4.707-1.308-6.793-1.308-11.5 0l-3.75 1.041v47.906h19V353.04zm3.77-34.095c.451-2.34-3.77-5.718-8.465-6.772-4.81-1.08-12.473.044-15.986 2.347-2.112 1.384-3.074 4.385-1.811 5.648.28.28 6.236.465 13.237.413 10.617-.08 12.778-.351 13.025-1.636zm.067-11.348c1.534-7.96-21.405-10.144-26.154-2.49-2.37 3.82-.531 4.436 12.948 4.337 11.423-.084 12.907-.292 13.206-1.847zm-3.837-29.394c0-15.316.228-17.737 2-21.21 3.002-5.885 2.622-9.578-1.4-13.6-3.076-3.076-3.947-3.4-9.132-3.4-6.83 0-11.607 2.506-13.503 7.085-1.107 2.672-.994 3.734.882 8.26 1.917 4.624 2.153 7.066 2.153 22.258 0 9.385.187 17.251.416 17.48.23.23 4.504.417 9.5.417h9.084v-17.29zM66.41 213.618c-4.816-2.17-7.415-6.177-7.415-11.432 0-4.285.39-4.928 7-11.538l7-7v-26.427l-5.843-4.278c-11.604-8.495-13.17-15.21-6.041-25.886 2.264-3.39 5.639-7.379 7.5-8.864l3.384-2.7V91.89l-6.835-7.221c-10.32-10.904-10.32-14.226.006-20.42 7.886-4.73 20.376-7.648 29.802-6.962 9.393.684 19.156 3.695 25.411 7.838 8.883 5.884 8.449 10.127-2.094 20.465l-6.29 6.167v22.787l5.556 5.876c6.768 7.157 9.444 12.162 9.444 17.666 0 5.609-2.72 9.69-9.987 14.981l-6.013 4.379V183.556l6.076 5.968c7.96 7.82 9.294 10.379 7.974 15.283-2.64 9.802-12.086 12.57-21.955 6.436-4.358-2.71-6.21-3.25-11.132-3.25-4.925 0-6.615.494-10.184 2.976-5.123 3.563-11.062 4.587-15.364 2.65zm34.585-35.09c0-22.175-.107-23.521-1.935-24.5-2.444-1.308-11.123-1.344-14.5-.06l-2.565.976v47.049h19v-23.465zm-14.05-32.618c3.656-.784 6.48-.776 10.235.03 4.371.937 5.428.868 6.733-.437 2.016-2.015.636-4.373-3.993-6.823-8.381-4.436-25.598 1.183-20.915 6.826 1.475 1.776 1.53 1.78 7.94.404zm17.55-13.902c0-5.63-13.506-8.48-21.714-4.585-3.543 1.682-5.521 4.572-4.387 6.408.291.47 6.283.793 13.315.717l12.786-.138v-2.402zm-2.5-29.127c0-15.544.24-18.177 2.029-22.22 2.41-5.45 1.92-8.385-2.034-12.173-5.213-4.994-16.616-4.335-20.98 1.212-2.363 3.005-2.6 8.647-.515 12.293 1.089 1.906 1.437 6.783 1.464 20.511l.036 18.01h20v-17.633zm137.415 109.69c-3.949-1.718-7.188-5.846-8.005-10.205-.809-4.31 2.28-9.307 9.533-15.422l5.057-4.264v-26.235l-6.013-4.379c-7.249-5.279-10.146-9.621-10.233-15.338-.083-5.519 1.958-9.285 9.26-17.092l5.986-6.398V91.036l-7.005-7.117c-9.975-10.134-10.387-13.157-2.596-19.045 10.504-7.939 27.677-10.774 42.52-7.02 13.534 3.422 21.08 8.661 21.08 14.636 0 2.961-1.072 4.626-7 10.866l-7 7.37v23.087l5.452 5.674c9.154 9.527 11.666 17.522 7.6 24.189-1.927 3.16-11.398 11.317-13.141 11.317-.503 0-.91 6.185-.91 13.828v13.827l7 7c6.29 6.291 7 7.398 6.996 10.923-.011 11.57-11.091 16.392-22.035 9.589-7.04-4.377-14.672-4.468-21.645-.26-5.914 3.57-10.814 4.447-14.901 2.67zm34.585-35.019c0-16.197-.346-23.654-1.118-24.132-2.693-1.664-8.623-2.247-13.098-1.287l-4.784 1.026v47.834h19v-23.44zm-11.75-33.16c2.337-.31 6.146-.127 8.465.405 8.255 1.895 9.81-3.105 2.21-7.108-4.055-2.136-13.673-1.945-18.425.365-5.258 2.555-4.221 8.716 1.25 7.43 1.238-.291 4.163-.782 6.5-1.092zm15.25-13.38c0-3.76-5.603-6.534-13-6.437-8.624.114-14.757 3.7-13.213 7.726.38.99 3.624 1.284 13.357 1.212l12.856-.096v-2.406zm-3.501-28.809c0-15.315.229-17.737 2-21.21 2.832-5.55 2.57-9.331-.917-13.234-2.78-3.112-3.256-3.266-10.077-3.266-6.99 0-7.24.088-10.582 3.735-3.95 4.31-4.194 6.334-1.423 11.765 1.778 3.486 2 5.894 2 21.71v17.79H273.994v-17.29z" fill="#485346"/><path d="M57.495 444.337c-23.509-5.014-43.567-21.397-52.196-42.632C-.17 388.24.031 395.062.012 223.7-.008 44.806-.508 56.78 7.689 39.996 16.313 22.336 33.42 8.467 53.64 2.74L61.496.515l113.391-.29c98.763-.252 114.55-.09 122.369 1.26 27.24 4.7 48.693 22.972 57.518 48.987l2.722 8.021v164c0 156.102-.089 164.313-1.837 170.5-5.841 20.676-22.512 39.39-42.227 47.401-14.075 5.719-11.316 5.606-135.144 5.518-96.895-.07-114.832-.304-120.792-1.575zm244.5-3.674c22.304-5.96 40.332-22.161 48.62-43.69l2.88-7.48.28-163c.312-182.692.788-170.133-7.04-185.787-7.594-15.184-21.907-27.083-40.74-33.87l-6.5-2.343-117.2-.274C50.101 3.91 57.42 3.528 41.07 11.601 23.738 20.158 9.724 37.312 5.53 55.107 4.222 60.654 4.022 82.753 4.01 223.35c-.017 179.193-.466 166.69 6.507 181.144 9.746 20.2 29.952 34.298 53.67 37.446 3.47.46 56.933.752 118.808.649 103.296-.173 113.031-.33 119-1.925zM63.877 386.11c-3.291-3.291-3.882-4.53-3.882-8.13 0-3.938.51-4.75 7-11.125l7-6.876-.047-13.743-.047-13.744-5.053-3.5c-13.818-9.572-14.16-18.488-1.228-32.046l5.375-5.635V266.613l-5.142-4.75c-10.233-9.457-11.255-13.663-4.688-19.284 14.035-12.013 41.298-12.507 58.56-1.06 8.597 5.7 8.017 9.434-3.173 20.44l-5.557 5.466v23.515l4.514 4.515c14.554 14.553 13.794 25.564-2.424 35.144l-3.09 1.825v27.427l6.103 5.821c8.492 8.1 9.539 10.35 7.408 15.931-3.353 8.78-11.987 11.011-20.85 5.39-4.059-2.574-5.685-2.997-11.446-2.982-5.785.016-7.325.432-11.116 3-3.421 2.319-5.506 2.982-9.367 2.982-4.437 0-5.382-.415-8.85-3.882zm38.118-32.05c0-21.94-.146-23.974-1.75-24.426-5.253-1.479-8.438-1.623-12.612-.572l-4.638 1.168v47.762h19v-23.932zm-4.68-32.285l8.819.283-.32-2.783c-.444-3.871-5.553-6.28-13.32-6.28-9.607 0-15.936 4.356-12.443 8.564.907 1.094 2.148 1.274 4.832.702 1.986-.423 7.58-.642 12.431-.486zm9.155-12.58c1.593-4.15-4.942-7.728-13.975-7.652-8.55.072-14.768 3.704-13.225 7.725.726 1.89 26.473 1.822 27.2-.072zm-3.475-30.137c0-15.68.211-17.872 2.105-21.783 3.905-8.067.213-15.042-8.48-16.022-10.283-1.159-16.628 2.707-16.622 10.125.002 2.329.86 5.518 1.976 7.349 1.834 3.007 1.929 4.45 1.348 20.5l-.624 17.265H102.995V279.06zM238.36 387.074c-4.004-2.441-6.927-9.472-5.5-13.227.537-1.412 3.937-5.43 7.555-8.929l6.58-6.36-.054-13.533-.054-13.532-5.962-4.252c-13.184-9.402-13.29-18.692-.364-32.037l5.434-5.61v-23.28l-6.958-7.07c-7.938-8.064-9.249-11.158-6.366-15.02 2.667-3.572 12.342-8.741 19.926-10.646 15.179-3.813 33.905-.224 43.698 8.374 6.115 5.369 5.272 8.211-5.68 19.16l-4.62 4.618v24.582l5.375 5.635c11.016 11.55 12.221 18.791 4.452 26.74-2.38 2.435-5.79 5.337-7.577 6.448l-3.25 2.021v27.63l7.127 7.128 7.127 7.127-.528 4.692c-.722 6.402-5.792 11.26-11.751 11.26-3.917 0-11.18-2.905-12.467-4.986-.344-.557-4.173-1.014-8.508-1.014-4.335 0-8.164.457-8.51 1.014-1.25 2.026-8.501 4.986-12.2 4.982-2.085-.002-5.201-.864-6.925-1.915zm36.402-34.33l-.267-24.25-5.016-.853c-3.267-.554-6.492-.454-9.25.289l-4.234 1.14v47.923h19.035l-.268-24.25zm3.733-34.695c0-5.674-13.888-8.44-22.615-4.504-3.128 1.41-3.885 2.28-3.885 4.464v2.712l13.25-.114 13.25-.114v-2.444zm0-11.02c0-4.185-4.649-6.54-12.827-6.5-8.558.043-13.673 2.221-13.673 5.823 0 1.27.197 2.505.439 2.747.241.241 6.204.396 13.25.344 12.706-.093 12.81-.113 12.81-2.414zm-3.5-28.762c0-15.455.205-17.562 1.996-20.5 2.813-4.613 2.649-10.912-.376-14.429-2.095-2.435-3.201-2.807-9.25-3.109-7.895-.393-12.652 1.744-14.46 6.499-1.074 2.825.411 10.728 2.227 11.85.474.293.863 8.72.863 18.724v18.191h19v-17.226zm-208.73-64.709c-4.142-1.861-7.262-6.996-7.267-11.958-.003-3.51.686-4.562 6.997-10.675l7-6.781v-14.075c0-7.792-.407-14.076-.91-14.076-1.744 0-11.215-8.156-13.142-11.317-4.002-6.563-1.593-14.01 7.677-23.729l5.375-5.635V91.653l-6.48-6.712c-7.996-8.282-9.37-11.319-6.738-14.893 2.531-3.438 11.299-8.625 18.137-10.728 7.451-2.293 22.7-2.333 30.08-.08 6.765 2.066 15.686 7.369 18.248 10.847 1.752 2.379 1.788 2.876.441 6-.808 1.873-4.218 6.092-7.578 9.375l-6.11 5.969V115.238l5.804 6.205c12.249 13.094 12.29 20.896.161 30.483-2.83 2.237-5.555 4.067-6.055 4.067-.504 0-.91 6.316-.91 14.154v14.155l5.85 5.294c7.058 6.387 9.287 10.43 8.076 14.652-2.282 7.96-8.367 11.816-15.378 9.745-2.227-.657-5.48-2.276-7.232-3.597-2.602-1.964-4.37-2.403-9.683-2.403-5.499 0-7.252.467-11.378 3.032-5.905 3.671-10.665 4.475-14.986 2.533zm34.73-35.458c0-27.144.742-25.107-9.148-25.107-10.417 0-9.852-1.464-9.852 25.535v23.465h19V178.1zm-7-32.258c10.957.77 10.475.86 10.811-2.047.262-2.274-.322-3.022-3.71-4.75-7.955-4.059-23.101-1.284-23.101 4.233 0 3.494.917 3.925 6.479 3.044 2.761-.438 7.046-.654 9.52-.48zm11-13.384c0-4.995-8.846-8.307-17.329-6.488-6.208 1.331-9.671 3.437-9.671 5.88 0 .995.214 2.024.477 2.287.262.262 6.337.477 13.5.477 12.669 0 13.023-.059 13.023-2.156zm-3-30.145c0-10.717.4-18.45.972-18.803.536-.33 1.448-2.366 2.03-4.523 2.162-8.03-3.173-13.994-12.518-13.994-4.942 0-7.653 1.038-11.234 4.3-2.652 2.415-3.025 8.722-.75 12.7 1.089 1.906 1.437 6.783 1.464 20.511l.036 18.01h20v-18.201zm138.642 110.642c-3.823-1.132-6.618-3.752-8.337-7.815-2.203-5.208-.886-8.258 6.75-15.63l6.945-6.705-.027-13.656-.027-13.656-4.067-2.5c-5.932-3.646-11.857-10.428-11.995-13.728-.3-7.246 1.834-11.677 9.559-19.846l5.557-5.876V90.645l-6.939-7.156c-9.816-10.123-10.185-13.366-2.157-18.93 13.941-9.66 36.407-11.016 51.962-3.134 14.158 7.175 14.52 12.017 1.787 23.875l-4.653 4.333v24.593l5.656 6.109c12.467 13.466 12.094 22.076-1.356 31.34l-5.3 3.65v28.427l4.565 3.742c6.776 5.552 9.836 10.64 9.105 15.14-.688 4.243-3.87 8.063-8.285 9.945-3.767 1.606-8.971.447-14.323-3.19-5.075-3.448-15.782-3.455-20.38-.012-2.868 2.149-5.17 3.123-9.682 4.1-.825.178-2.786-.057-4.358-.522zm33.358-35.943v-23.98l-2.701-.679c-3.667-.92-10.205-.947-13.55-.055l-2.75.733v47.962h19v-23.98zm-12.821-32.549c2.024-.366 6.044-.159 8.935.461 4.311.925 5.51.873 6.674-.29 5.89-5.89-12.284-11.637-21.788-6.89-5.523 2.76-5.12 9.068.5 7.827 1.1-.243 3.655-.741 5.679-1.108zm16.615-13.025c.427-2.99-2.737-5.329-8.979-6.638-4.74-.994-6.277-.89-11.397.772-3.976 1.29-6.028 2.515-6.253 3.73-.744 4.02.144 4.3 13.478 4.244 12.19-.05 12.872-.16 13.15-2.108zm-3.794-29.17c0-15.456.205-17.563 1.996-20.5 2.23-3.66 2.612-10.423.722-12.82-4.345-5.514-14.622-6.842-20.788-2.687-4.898 3.3-5.817 7.48-3.091 14.058 1.925 4.644 2.16 7.067 2.16 22.193v16.981h19v-17.226z" fill="#0e1f0b"/><path d="M57.495 444.337c-23.509-5.014-43.567-21.397-52.196-42.632C-.17 388.24.031 395.062.012 223.7-.008 44.806-.508 56.78 7.689 39.996 16.313 22.336 33.42 8.467 53.64 2.74L61.496.515l113.391-.29c98.763-.252 114.55-.09 122.369 1.26 27.24 4.7 48.693 22.972 57.518 48.987l2.722 8.021v164c0 156.102-.089 164.313-1.837 170.5-5.841 20.676-22.512 39.39-42.227 47.401-14.075 5.719-11.316 5.606-135.144 5.518-96.895-.07-114.832-.304-120.792-1.575zm244.5-3.674c22.304-5.96 40.332-22.161 48.62-43.69l2.88-7.48.28-163c.312-182.692.788-170.133-7.04-185.787-7.594-15.184-21.907-27.083-40.74-33.87l-6.5-2.343-117.2-.274C50.101 3.91 57.42 3.528 41.07 11.601 23.738 20.158 9.724 37.312 5.53 55.107 4.222 60.654 4.022 82.753 4.01 223.35c-.017 179.193-.466 166.69 6.507 181.144 9.746 20.2 29.952 34.298 53.67 37.446 3.47.46 56.933.752 118.808.649 103.296-.173 113.031-.33 119-1.925z"/></svg>