<svg xmlns="http://www.w3.org/2000/svg" width="358.838" height="446.887"><path d="M63.912 446.015c-15.778-1.849-31.995-9.84-43.472-21.421-8.179-8.254-13.483-16.855-17.296-28.054l-2.725-8v-164.5C.42 69.938.531 59.136 2.184 53.153c4.107-14.868 13.449-28.735 25.45-37.781 8.214-6.191 14.423-9.38 24.31-12.485L59.42.54h240l7.5 2.342c24.733 7.723 42.17 25.157 49.665 49.658 1.749 5.717 1.835 13.778 1.835 171v165l-2.724 8c-3.889 11.42-9.168 19.878-17.783 28.493-12.19 12.19-26.56 18.994-44.493 21.067-9.527 1.102-220.047 1.023-229.507-.085zm242.507-7.2c17.923-6.103 32.927-18.68 40.335-33.809 7.714-15.753 7.165-1.827 7.165-181.946 0-160.33-.015-161.617-2.07-169.033-5.224-18.849-18.07-33.872-36.43-42.604-15.384-7.317-6.81-6.883-136-6.883-108.036 0-116.446.122-122.5 1.777-20.28 5.544-36.816 18.7-45.419 36.136-6.959 14.105-6.55 2.81-6.566 181.224L4.92 384.814l2.282 7.876c7.034 24.286 26.532 42.164 52.218 47.88 4.843 1.078 28.473 1.3 122.5 1.153l116.5-.183 8-2.724zM81.4 386.72c-6.89-6.89-5.534-14.063 4.257-22.516l5.263-4.544-.02-13.56-.019-13.559-5.65-4.5c-6.975-5.556-9.192-8.497-9.957-13.209-.816-5.03 2.424-11.411 9.795-19.29l5.852-6.256v-21.44l-6.368-6.652c-9.838-10.278-10.944-14.03-5.49-18.62 15.5-13.04 45.302-13.844 61.464-1.655 4.063 3.063 4.945 4.303 5.198 7.305.277 3.288-.382 4.35-7.25 11.694l-7.554 8.078v21.29l6.125 6.548c9.111 9.74 11.694 16.788 8.451 23.059-1.551 3-9.004 10.237-12.432 12.07-2.033 1.089-2.144 1.863-2.144 14.923v13.774l5.263 4.544c9.791 8.453 11.147 15.626 4.258 22.516-4.523 4.523-10.542 4.63-18.175.321-4.264-2.406-6.5-3-11.297-3-4.927 0-6.813.529-10.71 3-3.753 2.38-5.848 3-10.135 3-4.788 0-5.783-.379-8.726-3.321zm37.289-33.398l-.269-23.719-4.206-.831c-2.605-.515-5.746-.417-8.25.257l-4.044 1.09v46.922h17.037l-.268-23.719zm4.631-34.035a30.367 30.367 0 0 0-.25-2.132c-.314-1.857-7.18-4.114-12.517-4.114-6.935 0-12.633 2.493-12.633 5.527 0 2.101.33 2.154 12.75 2.061 9.52-.071 12.725-.411 12.65-1.342zm.388-11.11c1.237-3.71-8.636-7.895-15.888-6.736-5.584.893-9.9 3.273-9.9 5.46 0 .993.188 1.994.417 2.223.23.23 5.938.392 12.685.361 8.896-.04 12.384-.4 12.686-1.307zm-3.787-29.926c0-15.317.228-17.737 2-21.21 2.264-4.438 2.479-6.854.914-10.288-3.362-7.378-18.31-7.696-23.354-.495-2.091 2.986-1.966 6.069.44 10.783 1.771 3.473 2 5.895 2 21.21l.002 17.29h17.998v-17.29zm100.094 109.216c-3.48-2.928-5.676-8.973-4.689-12.905.367-1.464 3.801-5.703 7.631-9.42l6.963-6.76v-25.91l-3.233-1.91c-5.804-3.428-11.72-9.636-12.884-13.517-1.9-6.341 2.3-15.058 11.537-23.95l3.58-3.446v-22.17l-6.075-5.97c-9.814-9.64-11.248-14.335-5.782-18.934 15.537-13.074 45.262-13.875 61.464-1.656 4.13 3.113 4.942 4.276 5.206 7.448.289 3.464-.24 4.327-6.75 11.042l-7.063 7.284v23.667l5.53 5.797c8.537 8.95 11.234 16.572 8.047 22.736-1.551 3-9.005 10.237-12.432 12.07-2.033 1.089-2.145 1.864-2.144 14.863v13.715l5.102 4.393c8.555 7.368 10.664 12.79 7.417 19.069-3.974 7.686-11.999 9.216-21.174 4.038-4.384-2.474-6.446-3-11.771-3-3.551 0-6.739.457-7.083 1.014-1.424 2.304-8.62 4.986-13.375 4.986-3.873 0-5.635-.565-8.022-2.574zm37.248-21.676c.357-6.187.65-16.741.653-23.453l.005-12.203-3.75-1.041c-2.063-.573-4.425-1.042-5.25-1.042-.825 0-3.188.469-5.25 1.042l-3.75 1.041v46.906h16.694l.649-11.25zm4.057-46.504a30.367 30.367 0 0 0-.25-2.132c-.082-.487-1.68-1.612-3.55-2.5-7.215-3.423-21.6-.868-21.6 3.836 0 2.2.195 2.232 12.75 2.138 9.52-.071 12.725-.411 12.65-1.342zm.1-11.694c0-1.01-1.27-2.785-2.823-3.944-5.69-4.248-22.677-1.812-22.677 3.251 0 .994.188 1.995.417 2.224.23.23 5.967.392 12.75.361 11.28-.051 12.333-.213 12.333-1.892zm-3.5-29.09c0-15.065.232-17.494 2-20.962 4.83-9.472.235-16.5-10.786-16.5-5.8 0-11.169 3.088-12.64 7.27-.734 2.089-.452 3.911 1.238 7.988 1.958 4.725 2.188 7.067 2.188 22.261v16.981h18v-17.038zM83.94 213.324c-4.312-2.21-8.02-7.586-8.02-11.628 0-3.784 3.551-9.02 9.475-13.972l4.525-3.783V156.492l-5.824-4.242c-6.243-4.546-10.176-10.258-10.176-14.78 0-4.367 3.548-10.646 9.98-17.666l5.899-6.438-.576-11.413-.576-11.413-4.613-4.441c-6.778-6.525-9.114-10.038-9.114-13.707 0-2.698.793-3.865 4.598-6.77 7.549-5.764 19.851-9.582 30.879-9.582 6.13 0 18.736 3.048 24.257 5.864 6.262 3.195 10.266 7.484 10.266 10.995 0 2.424-1.551 4.716-7.5 11.076l-7.5 8.02v21.595l5.663 5.975c7.033 7.422 10.813 15.125 9.876 20.124-.737 3.925-6.79 11.108-12.16 14.426l-3.379 2.088v27.186l7.129 7.351c6.947 7.165 7.114 7.456 6.573 11.49-.68 5.073-3.25 8.742-7.773 11.094-4.362 2.269-8.83 1.583-15.245-2.34-4.004-2.447-5.892-2.944-11.191-2.944-3.506 0-6.657.457-7.001 1.014-.976 1.579-7.713 4.753-11.538 5.436-2.36.422-4.556.052-6.934-1.166zm33.98-35.677c0-26.468.655-24.607-8.647-24.607-9.11 0-9.353.335-9.353 12.878 0 5.945.295 16.279.654 22.965l.654 12.157h16.692v-23.393zM106.1 144.51c2.023-.366 6.044-.159 8.935.461 4.377.94 5.503.88 6.735-.351 1.277-1.278 1.286-1.712.065-3.185-2.12-2.555-7.295-4.395-12.362-4.395-5.276 0-12.141 2.486-12.993 4.705-.847 2.208 1.421 4.512 3.866 3.928 1.141-.273 3.73-.796 5.754-1.163zm16.632-12.731c.422-2.188-4.984-5.493-10.279-6.285-2.669-.4-5.892.014-9.533 1.221-4.572 1.518-5.55 2.256-5.797 4.382l-.298 2.558 12.791-.096c11.154-.083 12.833-.31 13.116-1.78zm-3.812-29.525c0-15.32.229-17.74 2-21.214 2.72-5.33 2.515-8.392-.809-12.113-4.995-5.59-16.509-5.111-21.224.883-2.503 3.182-2.493 6.775.033 11.73 1.769 3.468 2 5.898 2.001 20.962v17.038l9 .004 9 .004v-17.293zm103.072 111.035c-4.51-2.3-7.09-5.972-7.773-11.06-.54-4.033-.375-4.324 6.573-11.489l7.128-7.351v-27.186l-3.378-2.088c-5.006-3.093-11.303-10.35-12.09-13.929-1.298-5.914 3.928-15.952 11.994-23.034l3.474-3.05V91.913l-7.5-7.874c-6.092-6.395-7.5-8.467-7.5-11.035 0-5.854 8.298-11.588 21.741-15.026 9.596-2.455 16.929-2.453 26.541.006 8.588 2.196 12.558 4.025 17.968 8.276 6.549 5.146 5.215 9.415-6.527 20.898l-4.723 4.618v21.794l5.889 6.188c6.443 6.771 10.111 13.264 10.111 17.897 0 4.27-4.338 10.375-10.597 14.91l-5.403 3.914v27.46l4.526 3.784c9.326 7.795 11.507 13.978 7.205 20.418-4.933 7.384-12.048 8.345-21.047 2.843-6.424-3.928-15.15-4.182-20-.583-3.29 2.44-8.782 4.64-11.583 4.637-.88-.001-3.144-.789-5.03-1.75zm33.928-35.642c0-26.433.631-24.607-8.5-24.607-9.13 0-8.5-1.826-8.5 24.607v23.393h17v-23.393zm-11-33.113c1.925-.316 5.75-.136 8.5.4 3.925.764 5.305.676 6.415-.41 1.218-1.192 1.218-1.619 0-3.089-3.606-4.347-13.646-5.686-20.894-2.786-3.007 1.203-4.02 2.17-4.02 3.833 0 2.994.92 3.723 3.951 3.127 1.402-.275 4.123-.759 6.048-1.075zm15.5-12.976c0-1.122-1.438-2.746-3.498-3.949-6.862-4.008-22.002-1.47-22.002 3.687v2.358l12.75-.095c11.84-.088 12.75-.23 12.75-2zm-3.5-29.053c0-15.068.232-17.496 2-20.965 2.752-5.398 2.537-8.868-.782-12.582-6.613-7.401-23.218-3.284-23.218 5.757 0 1.323.9 4.169 2 6.325 1.772 3.473 2 5.895 2.001 21.21v17.29l9 .004 9 .004v-17.042z" fill="#c2c6c1"/><path d="M63.912 446.015c-15.778-1.849-31.995-9.84-43.472-21.421-8.179-8.254-13.483-16.855-17.296-28.054l-2.725-8v-164.5C.42 69.938.531 59.136 2.184 53.153c4.107-14.868 13.449-28.735 25.45-37.781 8.214-6.191 14.423-9.38 24.31-12.485L59.42.54h240l7.5 2.342c24.733 7.723 42.17 25.157 49.665 49.658 1.749 5.717 1.835 13.778 1.835 171v165l-2.724 8c-3.889 11.42-9.168 19.878-17.783 28.493-12.19 12.19-26.56 18.994-44.493 21.067-9.527 1.102-220.047 1.023-229.507-.085zm242.507-7.2c17.923-6.103 32.927-18.68 40.335-33.809 7.714-15.753 7.165-1.827 7.165-181.946 0-160.33-.015-161.617-2.07-169.033-5.224-18.849-18.07-33.872-36.43-42.604-15.384-7.317-6.81-6.883-136-6.883-108.036 0-116.446.122-122.5 1.777-20.28 5.544-36.816 18.7-45.419 36.136-6.959 14.105-6.55 2.81-6.566 181.224L4.92 384.814l2.282 7.876c7.034 24.286 26.532 42.164 52.218 47.88 4.843 1.078 28.473 1.3 122.5 1.153l116.5-.183 8-2.724zM83.751 388.392c-3.299-2.12-6.832-8.221-6.832-11.8 0-1.965 1.86-4.576 7-9.83l7-7.154v-27.208l-6.338-5.08c-6.124-4.907-9.662-10.027-9.662-13.984 0-3.604 5.023-11.967 10.505-17.494l5.495-5.54v-23.08l-6.958-7c-10.13-10.191-10.436-13.609-1.755-19.564 8.974-6.154 15.542-7.98 28.713-7.98 13.058 0 19.504 1.77 28.73 7.889 8.735 5.792 8.393 9.43-1.851 19.735l-6.879 6.92V290.082l5.658 5.729c6.71 6.795 10.856 14.912 9.943 19.473-.835 4.179-4.52 8.791-10.569 13.232l-5.032 3.694v27.097l7 7.369c7.625 8.027 8.253 9.921 5.33 16.08-3.617 7.623-12.5 9.463-20.668 4.283-4.101-2.6-5.668-3-11.763-3-6.082 0-7.506.361-10.537 2.674-4.487 3.422-12.543 4.239-16.53 1.677zm35.168-35.279v-23.928l-5.25-.605c-2.887-.333-6.6-.221-8.25.249l-3 .855-.268 23.679-.268 23.678h17.036v-23.928zm4.805-34.295c.58-3.01-5.437-5.769-12.587-5.773-8.161-.005-13.218 2.03-13.218 5.322v2.427l12.737-.126c11.2-.112 12.777-.335 13.068-1.85zm-.26-9.987c1.596-1.597-.955-4.781-5.098-6.363-7.925-3.027-19.663-.338-20.244 4.638l-.298 2.55 12.5-.093c6.875-.052 12.788-.38 13.14-.732zm-3.545-30.328c0-15.065.232-17.494 2-20.962 2.912-5.71 2.618-10.037-.923-13.577-2.596-2.596-3.61-2.923-9.065-2.923-3.379 0-7.126.503-8.327 1.117-5.763 2.947-7.125 8.635-3.685 15.383 1.769 3.468 2 5.897 2 20.962v17.038h18v-17.038zM220.515 386.99c-4.476-3.93-6.246-8.965-4.572-13.007.67-1.616 4.088-5.624 7.597-8.907l6.38-5.967v-26.592l-6.345-4.601c-13.397-9.716-13.32-19.061.266-32.338l5.078-4.963v-23.954l-5.01-4.63c-6.399-5.914-9.99-10.791-9.99-13.569 0-1.296 1.684-3.71 4.128-5.918 15.41-13.923 47.611-13.76 62.68.317 5.268 4.92 3.975 9.364-5.21 17.913l-5.598 5.21v24.601l5.499 5.908c12.67 13.615 12.29 21.926-1.467 32.024l-5.032 3.694v27.178l7 7.219c7.631 7.87 8.305 9.88 5.377 16.05-3.747 7.898-12.314 9.71-20.715 4.382-4.15-2.631-5.633-3-12.074-3-5.613 0-7.666.39-8.715 1.655-2.008 2.421-7.235 4.345-11.806 4.345-3.03 0-4.838-.738-7.47-3.05zm36.876-25.2c.375-8.387.535-19.072.355-23.743l-.327-8.493-4.728-.861c-2.702-.492-6.346-.48-8.5.03l-3.772.891-.268 23.713-.268 23.713h16.826l.682-15.25zm4.528-42.92c0-3.204-5.743-5.822-12.782-5.826-8.125-.005-13.218 2.033-13.218 5.29v2.396h13c12.006 0 13-.142 13-1.86zm0-11.636c0-3.524-7.663-6.612-14.623-5.893-7.172.74-10.806 2.607-11.172 5.74l-.296 2.526 13.046-.033c12.946-.034 13.045-.051 13.045-2.34zm-4-28.484c0-14.816.236-17.25 2-20.71 2.946-5.774 2.635-10.519-.923-14.077-2.599-2.6-3.606-2.923-9.095-2.923-11.986 0-16.838 6.48-11.982 16 1.772 3.473 2 5.894 2 21.21v17.29h18v-16.79zM83.991 213.29c-4.5-2.295-7.09-5.97-7.768-11.022-.535-3.989-.357-4.297 6.573-11.38l7.123-7.28v-27.295l-4.017-2.784c-5.965-4.134-10.785-9.92-11.518-13.826-.942-5.02 2.321-11.57 9.476-19.021l6.007-6.256-.593-11.942-.593-11.943-5.768-6C73.464 74.71 72.896 72.101 79 66.587c9.73-8.791 27.649-12.585 42.689-9.04 11.143 2.628 23.23 10.291 23.23 14.729 0 3.036-3.215 7.648-9.433 13.532l-5.567 5.268v23.294l6.034 6.283c12.973 13.51 12.712 21.797-1.002 31.864l-5.032 3.694v27.976l5.55 5.073c6.85 6.26 8.846 9.86 7.99 14.416-.794 4.236-6.361 9.946-10.605 10.878-2.541.559-4.62-.028-10.309-2.912-5.969-3.025-8.157-3.61-13.481-3.606-5.29.004-6.846.417-9.281 2.466-2.574 2.166-8.477 4.52-11.364 4.531-.55.002-2.543-.783-4.428-1.744zm33.697-35.999l-.269-23.75-5.5-.312c-3.025-.172-6.962-.04-8.75.295l-3.25.608v11.297c0 6.214.295 16.769.654 23.455l.654 12.157h16.729l-.268-23.75zm-12.818-32.333c3.656-.784 6.48-.776 10.235.03 4.161.892 5.452.845 6.536-.24 3.307-3.306-3.198-7.71-11.373-7.701-9.769.01-16.42 3.792-13.295 7.558 1.428 1.72 1.504 1.724 7.897.353zm17.82-12.728c1.264-3.793-8.704-7.873-16.195-6.629-6.136 1.019-9.576 3.105-9.576 5.808 0 2.304.064 2.315 12.668 2.22 9.461-.07 12.778-.425 13.103-1.399zm-3.77-29.33c0-14.443.26-17.216 1.978-21 2.363-5.208 2.506-8.02.596-11.714-1.788-3.457-5.414-5.145-11.056-5.145-11.637 0-16.517 7.203-11.519 17 1.765 3.46 2 5.894 2 20.71v16.79h18V102.9zm105.208 111.43c-3.427-.656-9.02-6.768-9.749-10.653-.855-4.555 1.141-8.156 7.99-14.416l5.55-5.073v-27.976l-5.032-3.694c-13.714-10.067-13.974-18.354-1-31.864l6.032-6.283V91.442l-6.925-6.98c-6.967-7.023-9.21-11.375-7.38-14.327 2.058-3.323 10.843-8.99 17.199-11.095 17.02-5.637 38.116-2.068 48.856 8.266 5.233 5.034 4.131 8.571-5.674 18.203l-6.076 5.969v22.892l6.034 6.283c13.137 13.682 12.673 22.613-1.689 32.494l-4.345 2.99v27.696l7.129 7.129c6.907 6.907 7.111 7.253 6.59 11.14-.728 5.426-4.846 10.596-9.566 12.01-3.282.984-4.491.838-8.942-1.077-2.831-1.218-5.667-2.84-6.301-3.604-.79-.952-3.424-1.39-8.338-1.39-6.1 0-7.696.378-10.586 2.51-2.937 2.167-9.457 4.747-10.986 4.347-.275-.071-1.53-.328-2.791-.569zm31.56-37.039l-.269-23.75-5.958-.306c-3.277-.168-6.99-.047-8.25.27l-2.292.574v46.962h17.037l-.268-23.75zm-12.846-32.327c3.681-.79 6.524-.764 10.656.093 6.282 1.305 8.05.537 6.924-3.006-.936-2.95-6.29-5.026-12.72-4.934-9.384.135-14.12 2.994-12.398 7.483.662 1.726 1.091 1.747 7.538.364zm18.077-12.958c0-2.424-2.907-4.621-7.862-5.94-7.759-2.067-18.138.973-18.138 5.311 0 2.263.127 2.285 13 2.285 11.432 0 13-.2 13-1.656zm-4-29.255c0-14.816.236-17.25 2-20.71 4.975-9.75.476-17-10.549-17-11.342 0-16.254 7.078-11.45 16.5 1.768 3.468 2 5.897 2 20.962v17.038h18v-16.79z" fill="#bebebe"/><path d="M64.112 445.986c-17.101-2.27-29.99-8.718-42.807-21.416-7.791-7.718-9.785-10.41-13.728-18.53-8.24-16.97-7.754-4.765-7.438-186.5l.28-161 2.618-7.666c5.5-16.11 15.609-29.546 28.746-38.206 8.51-5.61 14.684-8.288 24.636-10.686C64.081.136 69.29.054 179.42.054c109.951 0 115.352.084 123 1.92C312.624 4.423 318.587 7 327.036 12.617c10.136 6.74 19.194 17.085 24.407 27.879 8.034 16.635 7.572 4.762 7.257 186.544l-.28 161.5-2.933 8.401c-7.859 22.514-27.487 40.642-51.28 47.361l-7.788 2.199-113 .16c-62.15.09-115.838-.215-119.307-.675zm235.806-5.446c25.93-5.454 46.681-25.07 52.46-49.588 1.316-5.58 1.514-27.352 1.527-167.952.016-180.05.56-166.179-7.125-181.873-3.174-6.483-5.868-10.154-11.74-16-11.574-11.522-23.953-17.77-39.723-20.05C286 3.73 72.84 3.73 63.522 5.077 47.806 7.348 35.51 13.547 23.85 25.074c-5.922 5.855-8.544 9.42-11.766 16C4.37 56.829 4.918 42.897 4.935 223c.016 179.31-.425 167.423 6.75 182.04 2.753 5.607 5.835 9.674 12.209 16.113 7.152 7.225 10.055 9.361 18.025 13.26 5.225 2.557 12.425 5.274 16 6.038 10.09 2.155 231.787 2.238 241.999.09zM83.751 388.39c-3.299-2.12-6.832-8.22-6.832-11.798 0-1.966 1.86-4.577 7-9.83l7-7.155v-27.208l-6.338-5.08c-6.124-4.907-9.662-10.027-9.662-13.984 0-3.604 5.023-11.967 10.505-17.494l5.495-5.54v-23.08l-6.958-7c-10.13-10.191-10.436-13.609-1.755-19.564 8.974-6.154 15.542-7.98 28.713-7.98 13.058 0 19.504 1.77 28.73 7.889 8.735 5.792 8.393 9.43-1.851 19.735l-6.879 6.92V290.082l5.658 5.729c6.71 6.795 10.856 14.912 9.943 19.473-.835 4.179-4.52 8.791-10.569 13.232l-5.032 3.694v27.097l7 7.369c7.625 8.027 8.253 9.921 5.33 16.08-3.617 7.623-12.5 9.463-20.668 4.283-4.101-2.6-5.668-3-11.763-3-6.082 0-7.506.361-10.537 2.674-4.487 3.422-12.543 4.239-16.53 1.677zm35.168-35.278v-23.928l-5.25-.605c-2.887-.333-6.6-.221-8.25.249l-3 .855-.268 23.679-.268 23.678h17.036v-23.928zm4.805-34.295c.58-3.01-5.437-5.769-12.587-5.773-8.161-.005-13.218 2.03-13.218 5.322v2.427l12.737-.126c11.2-.112 12.777-.335 13.068-1.85zm-.26-9.987c1.596-1.597-.955-4.781-5.098-6.363-7.925-3.027-19.663-.338-20.244 4.638l-.298 2.55 12.5-.093c6.875-.052 12.788-.38 13.14-.732zm-3.545-30.328c0-15.065.232-17.494 2-20.962 2.912-5.71 2.618-10.037-.923-13.577-2.596-2.596-3.61-2.923-9.065-2.923-3.379 0-7.126.503-8.327 1.117-5.763 2.947-7.125 8.635-3.685 15.383 1.769 3.468 2 5.897 2 20.962v17.038h18v-17.038zM220.515 386.99c-4.476-3.93-6.246-8.965-4.572-13.007.67-1.616 4.088-5.624 7.597-8.907l6.38-5.967v-26.592l-6.345-4.601c-13.397-9.716-13.32-19.061.266-32.338l5.078-4.963v-23.954l-5.01-4.63c-6.399-5.914-9.99-10.791-9.99-13.569 0-1.296 1.684-3.71 4.128-5.918 15.41-13.923 47.611-13.76 62.68.317 5.268 4.92 3.975 9.364-5.21 17.913l-5.598 5.21v24.601l5.499 5.908c12.67 13.615 12.29 21.926-1.467 32.024l-5.032 3.694v27.178l7 7.219c7.631 7.87 8.305 9.88 5.377 16.05-3.747 7.898-12.314 9.71-20.715 4.382-4.15-2.631-5.633-3-12.074-3-5.613 0-7.666.39-8.715 1.655-2.008 2.422-7.235 4.345-11.806 4.345-3.03 0-4.838-.738-7.47-3.05zm36.876-25.2c.375-8.387.535-19.072.355-23.743l-.327-8.493-4.728-.861c-2.702-.492-6.346-.48-8.5.03l-3.772.891-.268 23.713-.268 23.713h16.826l.682-15.25zm4.528-42.92c0-3.204-5.743-5.822-12.782-5.826-8.125-.005-13.218 2.033-13.218 5.29v2.396h13c12.006 0 13-.142 13-1.86zm0-11.636c0-3.524-7.663-6.612-14.623-5.893-7.172.74-10.806 2.607-11.172 5.74l-.296 2.526 13.046-.033c12.946-.034 13.045-.051 13.045-2.34zm-4-28.484c0-14.816.236-17.25 2-20.71 2.946-5.774 2.635-10.519-.923-14.077-2.599-2.6-3.606-2.923-9.095-2.923-11.986 0-16.838 6.48-11.982 16 1.772 3.473 2 5.894 2 21.21v17.29h18v-16.79zM83.991 213.29c-4.5-2.295-7.09-5.97-7.768-11.022-.535-3.989-.357-4.297 6.573-11.38l7.123-7.28v-27.295l-4.017-2.784c-5.965-4.134-10.785-9.92-11.518-13.826-.942-5.02 2.321-11.57 9.476-19.021l6.007-6.256-.593-11.942-.593-11.943-5.768-6C73.464 74.71 72.896 72.101 79 66.587c9.73-8.791 27.649-12.585 42.689-9.04 11.143 2.628 23.23 10.291 23.23 14.729 0 3.036-3.215 7.648-9.433 13.532l-5.567 5.268v23.294l6.034 6.283c12.973 13.51 12.712 21.797-1.002 31.864l-5.032 3.694v27.976l5.55 5.073c6.85 6.26 8.846 9.86 7.99 14.416-.794 4.236-6.361 9.946-10.605 10.878-2.541.559-4.62-.028-10.309-2.912-5.969-3.025-8.157-3.61-13.481-3.606-5.29.004-6.846.417-9.281 2.466-2.574 2.166-8.477 4.52-11.364 4.531-.55.002-2.543-.783-4.428-1.744zm33.697-35.999l-.269-23.75-5.5-.312c-3.025-.172-6.962-.04-8.75.295l-3.25.608v11.297c0 6.214.295 16.769.654 23.455l.654 12.157h16.729l-.268-23.75zm-12.818-32.333c3.656-.784 6.48-.776 10.235.03 4.161.892 5.452.845 6.536-.24 3.307-3.306-3.198-7.71-11.373-7.701-9.769.01-16.42 3.792-13.295 7.558 1.428 1.72 1.504 1.724 7.897.353zm17.82-12.728c1.264-3.793-8.704-7.873-16.195-6.629-6.136 1.019-9.576 3.105-9.576 5.808 0 2.304.064 2.315 12.668 2.22 9.461-.07 12.778-.425 13.103-1.399zm-3.77-29.33c0-14.443.26-17.216 1.978-21 2.363-5.208 2.506-8.02.596-11.714-1.788-3.457-5.414-5.145-11.056-5.145-11.637 0-16.517 7.203-11.519 17 1.765 3.46 2 5.894 2 20.71v16.79h18V102.9zm105.208 111.43c-3.427-.656-9.02-6.768-9.749-10.653-.855-4.555 1.141-8.156 7.99-14.416l5.55-5.073v-27.976l-5.032-3.694c-13.714-10.067-13.974-18.354-1-31.864l6.032-6.283V91.442l-6.925-6.98c-6.967-7.023-9.21-11.375-7.38-14.327 2.058-3.323 10.843-8.99 17.199-11.095 17.02-5.637 38.116-2.068 48.856 8.266 5.233 5.034 4.131 8.571-5.674 18.203l-6.076 5.969v22.892l6.034 6.283c13.137 13.682 12.673 22.613-1.689 32.494l-4.345 2.99v27.696l7.129 7.129c6.907 6.907 7.111 7.253 6.59 11.14-.728 5.426-4.846 10.596-9.566 12.01-3.282.984-4.491.838-8.942-1.077-2.831-1.218-5.667-2.84-6.301-3.604-.79-.951-3.424-1.39-8.338-1.39-6.1 0-7.696.378-10.586 2.51-2.937 2.167-9.457 4.747-10.986 4.347-.275-.071-1.53-.328-2.791-.569zm31.56-37.039l-.269-23.75-5.958-.306c-3.277-.168-6.99-.047-8.25.27l-2.292.574v46.962h17.037l-.268-23.75zm-12.846-32.327c3.681-.79 6.524-.764 10.656.093 6.282 1.305 8.05.537 6.924-3.006-.936-2.95-6.29-5.026-12.72-4.934-9.384.135-14.12 2.994-12.398 7.483.662 1.726 1.091 1.747 7.538.364zm18.077-12.957c0-2.425-2.907-4.622-7.862-5.942-7.759-2.066-18.138.974-18.138 5.312 0 2.263.127 2.285 13 2.285 11.432 0 13-.2 13-1.655zm-4-29.256c0-14.816.236-17.25 2-20.71 4.975-9.75.476-17-10.549-17-11.342 0-16.254 7.078-11.45 16.5 1.768 3.469 2 5.897 2 20.962v17.038h18v-16.79z" fill="#868f85"/><path d="M64.112 445.986c-17.101-2.27-29.99-8.718-42.807-21.416-7.791-7.718-9.785-10.41-13.728-18.53-8.24-16.97-7.754-4.765-7.438-186.5l.28-161 2.618-7.666c5.5-16.11 15.609-29.546 28.746-38.206 8.51-5.61 14.684-8.288 24.636-10.686C64.081.136 69.29.054 179.42.054c109.951 0 115.352.084 123 1.92C312.624 4.423 318.587 7 327.036 12.617c10.136 6.74 19.194 17.085 24.407 27.879 8.034 16.635 7.572 4.762 7.257 186.544l-.28 161.5-2.933 8.401c-7.859 22.514-27.487 40.642-51.28 47.361l-7.788 2.199-113 .16c-62.15.09-115.838-.215-119.307-.675zm235.806-5.446c25.93-5.454 46.681-25.07 52.46-49.588 1.316-5.58 1.514-27.352 1.527-167.952.016-180.05.56-166.179-7.125-181.873-3.174-6.483-5.868-10.154-11.74-16-11.574-11.522-23.953-17.77-39.723-20.05C286 3.73 72.84 3.73 63.522 5.077 47.806 7.348 35.51 13.547 23.85 25.074c-5.922 5.855-8.544 9.42-11.766 16C4.37 56.829 4.918 42.897 4.935 223c.016 179.31-.425 167.423 6.75 182.04 2.753 5.607 5.835 9.674 12.209 16.113 7.152 7.225 10.055 9.361 18.025 13.26 5.225 2.557 12.425 5.274 16 6.038 10.09 2.155 231.787 2.238 241.999.09zM84.368 388.49c-4.056-2.002-6.449-6.293-6.449-11.565 0-4.014.477-4.774 7-11.157l7-6.849v-26.545l-5.587-3.849c-13.605-9.37-13.903-19.638-.943-32.516l5.502-5.468.014-11.94.014-11.94-5.408-5.06c-5.629-5.266-9.581-10.903-9.588-13.673-.01-4.73 12.611-11.91 25.634-14.584 6.45-1.325 9.214-1.42 15.386-.53 9.022 1.302 17.03 4.165 23.337 8.343 7.894 5.228 7.245 9.611-2.906 19.613l-6.455 6.36V290.198l4.677 4.671c13.922 13.906 13.896 24.024-.089 33.655l-5.588 3.849v26.545l7 6.85c6.524 6.382 7 7.142 7 11.156 0 7.45-5.157 13.116-11.937 13.116-3.141 0-12.373-4.074-13.55-5.98-.347-.561-3.699-1.02-7.45-1.02-5.131 0-7.157.41-8.19 1.659-1.946 2.35-8.829 5.297-12.373 5.296-1.65 0-4.373-.678-6.05-1.506zm35.32-34.717l.268-23.768-2.583-.982c-3.312-1.259-10.585-1.262-13.888-.007l-2.566.976v46.922l3.25.424c1.788.234 5.95.375 9.25.314l6-.11.269-23.769zm4.07-34.128c.509-2.647-2.41-5.224-7.545-6.662-7.977-2.233-19.294 1.313-19.294 6.046 0 .924.198 1.876.44 2.118.24.241 6.203.396 13.25.345 11.368-.084 12.848-.292 13.148-1.847zm-9.839-10.083c9.335-.02 9.5-.062 9.5-2.402 0-7.548-21.52-8.22-25.925-.81-1.42 2.39 1.847 5.049 4.873 3.967 1.129-.404 6.327-.744 11.552-.755zm7-31.453c0-15.727.238-18.351 2.03-22.402 1.851-4.184 1.902-4.893.584-8.05-2.738-6.55-10.341-9.137-18.124-6.165-2.471.944-5.167 2.678-5.991 3.855-1.877 2.68-1.877 8.409.002 11.694 1.092 1.91 1.437 6.83 1.464 20.867l.036 18.366 6.25-.634c3.437-.349 7.6-.24 9.25.242 1.65.481 3.337.688 3.75.458.412-.23.75-8.433.75-18.23zm102.419 110.963c-4.155-1.68-7.419-6.844-7.419-11.738 0-4.316.365-4.912 7-11.43l7-6.876v-26.535l-6.013-4.379c-13.23-9.635-13.442-18.098-.79-31.623l5.803-6.205v-23.643l-5.25-4.921c-6.686-6.268-8.735-9.394-8.743-13.342-.012-5.808 10.307-12.095 24.709-15.052 6.397-1.314 9.14-1.403 15.394-.501 13.84 1.997 27.142 8.385 28.47 13.672.9 3.592-2.004 8.619-8.625 14.923l-5.955 5.67V290.54l3.384 2.7c1.861 1.485 5.236 5.474 7.5 8.864 4.57 6.844 5.407 12.54 2.632 17.906-1.494 2.889-8.086 8.764-12.266 10.933-2.164 1.123-2.25 1.68-2.25 14.667v13.499l6.38 5.967c8.275 7.742 9.457 10.485 7.134 16.567-1.964 5.144-6.233 8.393-11.014 8.384-3.212-.006-12.807-4.058-13.936-5.884-.389-.63-3.61-1.103-7.5-1.103-5.132 0-7.158.41-8.191 1.659-3.357 4.057-12.545 6.358-17.454 4.372zm34.35-35.299l.268-23.768-2.583-.982c-3.505-1.332-10.796-1.239-13.906.179l-2.548 1.16v46.552l3.25.424c1.788.234 5.95.375 9.25.314l6-.11.269-23.769zm3.731-34.68c0-1.399-1.132-3.182-2.823-4.444-5.435-4.057-21.426-2.031-23.34 2.957-1.244 3.243 1.228 3.936 13.828 3.88 12.244-.056 12.335-.074 12.335-2.393zm-8.84-9.347c10.362.232 12.18-.957 7.942-5.194-5.546-5.546-23.266-4.018-25.333 2.184-.714 2.142 2.731 4.348 5.554 3.556 1.473-.413 6.8-.659 11.838-.546zm6.34-31.937c0-14.799.278-18.262 1.63-20.324.895-1.367 1.676-4.319 1.735-6.56.089-3.388-.43-4.553-3.085-6.925-3.942-3.523-9.168-4.608-14.498-3.011-8.185 2.452-11.005 8.964-7.082 16.352 1.45 2.732 1.656 5.776 1.402 20.8l-.296 17.6 10.097-.047 10.097-.047v-17.838zM82.695 212.481c-2.908-1.578-4.476-3.909-5.85-8.698-1.271-4.435.907-8.518 7.936-14.88l6.138-5.554-.053-13.405-.054-13.404-5.962-4.252c-13.144-9.373-13.425-18.658-.957-31.642l6.026-6.276V91.773l-6.897-7.262c-8.395-8.838-9.585-12.314-5.63-16.443 12.088-12.616 41.637-14.974 58.653-4.68 10.993 6.65 11.122 10.45.713 21.025l-6.839 6.948V114.36l5.375 5.634c8.992 9.427 11.642 17.245 8.141 24.016-1.494 2.889-8.086 8.764-12.266 10.933-2.165 1.123-2.25 1.679-2.25 14.708v13.54l7 6.781c6.476 6.273 7 7.096 7 10.975 0 13.013-13.026 17.297-24.693 8.12-3.321-2.613-14.322-2.918-16.367-.454-3.974 4.789-13.81 6.774-19.164 3.868zm35.993-34.372c.148-12.887-.111-23.812-.576-24.277-1.543-1.542-10.803-2.075-14.555-.837l-3.638 1.2v23.256c0 12.79.317 23.572.703 23.958.387.387 4.55.574 9.25.417l8.547-.286.27-23.43zm3.731-35.05c0-3.76-5.602-6.534-13-6.437-8.623.115-14.756 3.7-13.212 7.726.38.99 3.624 1.284 13.357 1.212l12.855-.096v-2.406zm-17.549-9.102c3.592-.77 6.483-.775 10.015-.018 5.886 1.263 8.254.605 7.837-2.176-.6-4.004-5.296-6.223-13.174-6.223-9.717 0-15.972 3.972-12.618 8.013 1.474 1.777 1.53 1.78 7.94.404zm9.55-13.917l4.5.683v-17.381c0-15.408.227-17.827 2-21.302 1.1-2.156 2-5.558 2-7.559 0-6.51-8.18-11.637-15.69-9.835-8.412 2.02-12.243 6.957-10.247 13.205.648 2.03 1.574 4.117 2.057 4.64.484.522.88 9.11.88 19.083 0 9.973.228 18.361.507 18.64.278.279 2.528.2 5-.175 2.47-.375 6.517-.374 8.992.001zm106.262 92.492c-3.588-2.022-5.763-6.389-5.763-11.572 0-3.854.547-4.717 7-11.057l7-6.876-.053-13.243-.054-13.244-5.962-4.252c-7.007-4.996-9.922-9.282-9.927-14.597-.005-5.39 2.463-10.007 9.193-17.201l5.803-6.205V91.361l-6.838-6.948c-10.41-10.576-10.28-14.375.713-21.026 17.016-10.293 46.565-7.935 58.652 4.681 3.956 4.13 2.766 7.605-5.629 16.443l-6.898 7.262v22.598l6.027 6.275c12.468 12.984 12.187 22.269-.957 31.642l-5.962 4.252-.054 13.404-.054 13.405 6.139 5.555c8.823 7.984 10.088 12.239 5.942 19.986-3.196 5.972-12.665 6.55-20.883 1.277-6.875-4.412-13.497-4.393-19.965.057-5.516 3.795-13.062 4.792-17.47 2.308zm36.006-34.423c.148-12.887-.111-23.812-.576-24.277-1.543-1.542-10.803-2.075-14.555-.837l-3.638 1.2v23.256c0 12.79.317 23.572.703 23.958.387.387 4.55.574 9.25.417l8.547-.286.27-23.43zm3.731-35.05c0-3.76-5.602-6.534-13-6.437-8.623.115-14.756 3.7-13.212 7.726.38.99 3.624 1.284 13.357 1.212l12.855-.096v-2.406zm-17.549-9.102c3.592-.77 6.483-.775 10.015-.018 5.886 1.263 8.254.605 7.837-2.176-.6-4.004-5.296-6.223-13.174-6.223-9.717 0-15.972 3.972-12.618 8.013 1.474 1.777 1.53 1.78 7.94.404zm9.542-13.918c2.472.375 4.722.454 5 .175.28-.279.507-8.73.507-18.781 0-10.636.403-18.524.963-18.87.53-.327 1.41-2.215 1.957-4.194 2.497-9.043-6.389-16.165-16.702-13.387-8.03 2.162-11.516 9.414-7.718 16.058 1.09 1.907 1.438 6.793 1.465 20.584.02 9.945.264 18.311.543 18.59.278.279 2.528.2 5-.175 2.47-.375 6.514-.375 8.985 0z" fill="#7f7f7f"/><path d="M57.92 444.492c-27.652-6.01-49.474-26.728-55.475-52.67-1.378-5.957-1.525-25.392-1.29-171.5L1.419 55.54l3.129-8.107C12.034 28.03 25.628 13.928 44.36 6.129 59.353-.112 57.865-.05 183.527.3 311.032.655 302.25.153 318.419 8.013c14.541 7.068 26.312 18.668 33.022 32.543 6.849 14.163 6.447 2.83 6.464 182.575.014 158.573-.034 162.78-1.958 170.3-3.164 12.374-8.181 20.825-18.496 31.157-7.358 7.371-10.607 9.815-17.532 13.19-17.044 8.306-6.027 7.674-138 7.915-98.08.178-118.574-.02-124-1.2zm245.3-4.194c23.703-6.691 42.279-24.664 49.36-47.758 1.754-5.721 1.84-13.575 1.84-169v-163l-2.332-7.5c-3.6-11.577-8.512-19.546-17.645-28.62-6.6-6.556-9.988-9.015-17.598-12.771-16.115-7.955-9.206-7.574-137.426-7.574-127.905 0-121.367-.352-137.038 7.381C25.957 19.562 12.977 34.292 7.175 51.41L4.42 59.54l-.28 160c-.314 179.328-.726 168.415 6.965 184.5 3.38 7.07 5.612 10.038 13.262 17.636 12.386 12.3 24.005 18.07 40.942 20.331 3.361.45 56.511.744 118.111.655l112-.162 7.8-2.202zm-218.852-51.81c-4.056-2.001-6.449-6.292-6.449-11.564 0-4.014.477-4.774 7-11.157l7-6.849v-26.545l-5.587-3.849c-13.605-9.37-13.903-19.638-.943-32.516l5.502-5.468.014-11.94.014-11.94-5.408-5.06c-5.629-5.266-9.581-10.903-9.588-13.673-.01-4.73 12.611-11.91 25.634-14.584 6.45-1.325 9.214-1.42 15.386-.53 9.022 1.302 17.03 4.165 23.337 8.343 7.894 5.228 7.245 9.611-2.906 19.613l-6.455 6.36V290.198l4.677 4.671c13.922 13.906 13.896 24.024-.089 33.655l-5.588 3.849v26.545l7 6.85c6.524 6.382 7 7.142 7 11.156 0 7.45-5.157 13.116-11.937 13.116-3.141 0-12.373-4.074-13.55-5.98-.347-.561-3.699-1.02-7.45-1.02-5.131 0-7.157.41-8.19 1.659-1.946 2.35-8.829 5.297-12.373 5.296-1.65 0-4.373-.678-6.05-1.506zm35.32-34.716l.268-23.768-2.583-.982c-3.312-1.259-10.585-1.262-13.888-.007l-2.566.976v46.922l3.25.424c1.788.234 5.95.375 9.25.314l6-.11.269-23.769zm4.07-34.128c.509-2.647-2.41-5.224-7.545-6.662-7.977-2.233-19.294 1.313-19.294 6.046 0 .924.198 1.876.44 2.118.24.241 6.203.396 13.25.345 11.368-.084 12.848-.292 13.148-1.847zm-9.839-10.083c9.335-.02 9.5-.062 9.5-2.402 0-7.548-21.52-8.22-25.925-.81-1.42 2.39 1.847 5.049 4.873 3.967 1.129-.404 6.327-.744 11.552-.755zm7-31.453c0-15.727.238-18.351 2.03-22.402 1.851-4.184 1.902-4.893.584-8.05-2.738-6.55-10.341-9.137-18.124-6.165-2.471.944-5.167 2.678-5.991 3.855-1.877 2.68-1.877 8.409.002 11.694 1.092 1.91 1.437 6.83 1.464 20.867l.036 18.366 6.25-.634c3.437-.349 7.6-.24 9.25.242 1.65.481 3.337.688 3.75.458.412-.23.75-8.433.75-18.23zm102.419 110.963c-4.155-1.68-7.419-6.844-7.419-11.738 0-4.316.365-4.912 7-11.43l7-6.876v-26.535l-6.013-4.379c-13.23-9.635-13.442-18.098-.79-31.623l5.803-6.205v-23.643l-5.25-4.921c-6.686-6.268-8.735-9.394-8.743-13.342-.012-5.808 10.307-12.095 24.709-15.052 6.397-1.314 9.14-1.403 15.394-.501 13.84 1.997 27.142 8.385 28.47 13.672.9 3.592-2.004 8.619-8.625 14.923l-5.955 5.67V290.54l3.384 2.7c1.861 1.485 5.236 5.474 7.5 8.864 4.57 6.844 5.407 12.54 2.632 17.906-1.494 2.889-8.086 8.764-12.266 10.933-2.164 1.123-2.25 1.68-2.25 14.667v13.499l6.38 5.967c8.275 7.742 9.457 10.485 7.134 16.567-1.964 5.144-6.233 8.393-11.014 8.384-3.212-.006-12.807-4.058-13.936-5.884-.389-.63-3.61-1.103-7.5-1.103-5.132 0-7.158.41-8.191 1.659-3.357 4.057-12.545 6.358-17.454 4.372zm34.35-35.299l.268-23.768-2.583-.982c-3.505-1.332-10.796-1.239-13.906.179l-2.548 1.16v46.552l3.25.424c1.788.234 5.95.375 9.25.314l6-.11.269-23.769zm3.731-34.68c0-1.399-1.132-3.182-2.823-4.444-5.435-4.057-21.426-2.031-23.34 2.957-1.244 3.243 1.228 3.936 13.828 3.88 12.244-.056 12.335-.074 12.335-2.393zm-8.84-9.347c10.362.232 12.18-.957 7.942-5.194-5.546-5.546-23.266-4.018-25.333 2.184-.714 2.142 2.731 4.348 5.554 3.556 1.473-.413 6.8-.659 11.838-.546zm6.34-31.937c0-14.799.278-18.262 1.63-20.324.895-1.367 1.676-4.319 1.735-6.56.089-3.388-.43-4.553-3.085-6.925-3.942-3.523-9.168-4.608-14.498-3.011-8.185 2.452-11.005 8.964-7.082 16.352 1.45 2.732 1.656 5.776 1.402 20.8l-.296 17.6 10.097-.047 10.097-.047v-17.838zM82.695 212.481c-2.908-1.578-4.476-3.909-5.85-8.698-1.271-4.435.907-8.518 7.936-14.88l6.138-5.554-.053-13.405-.054-13.404-5.962-4.252c-13.144-9.373-13.425-18.658-.957-31.642l6.026-6.276V91.773l-6.897-7.262c-8.395-8.838-9.585-12.314-5.63-16.443 12.088-12.616 41.637-14.974 58.653-4.68 10.993 6.65 11.122 10.45.713 21.025l-6.839 6.948V114.36l5.375 5.634c8.992 9.427 11.642 17.245 8.141 24.016-1.494 2.889-8.086 8.764-12.266 10.933-2.165 1.123-2.25 1.679-2.25 14.708v13.54l7 6.781c6.476 6.273 7 7.096 7 10.975 0 13.013-13.026 17.297-24.693 8.12-3.321-2.613-14.322-2.918-16.367-.454-3.974 4.789-13.81 6.774-19.164 3.868zm35.993-34.372c.148-12.887-.111-23.812-.576-24.277-1.543-1.542-10.803-2.075-14.555-.837l-3.638 1.2v23.256c0 12.79.317 23.572.703 23.958.387.387 4.55.574 9.25.417l8.547-.286.27-23.43zm3.731-35.05c0-3.76-5.602-6.534-13-6.437-8.623.115-14.756 3.7-13.212 7.726.38.99 3.624 1.284 13.357 1.212l12.855-.096v-2.406zm-17.549-9.102c3.592-.77 6.483-.775 10.015-.018 5.886 1.263 8.254.605 7.837-2.176-.6-4.004-5.296-6.223-13.174-6.223-9.717 0-15.972 3.972-12.618 8.013 1.474 1.777 1.53 1.78 7.94.404zm9.55-13.917l4.5.683v-17.381c0-15.408.227-17.827 2-21.302 1.1-2.156 2-5.558 2-7.559 0-6.51-8.18-11.637-15.69-9.835-8.412 2.02-12.243 6.957-10.247 13.205.648 2.03 1.574 4.117 2.057 4.64.484.522.88 9.11.88 19.083 0 9.973.228 18.361.507 18.64.278.279 2.528.2 5-.175 2.47-.375 6.517-.374 8.992.001zm106.262 92.492c-3.588-2.022-5.763-6.389-5.763-11.572 0-3.854.547-4.717 7-11.057l7-6.876-.053-13.243-.054-13.244-5.962-4.252c-7.007-4.996-9.922-9.282-9.927-14.597-.005-5.39 2.463-10.007 9.193-17.201l5.803-6.205V91.361l-6.838-6.948c-10.41-10.576-10.28-14.375.713-21.026 17.016-10.293 46.565-7.935 58.652 4.681 3.956 4.13 2.766 7.605-5.629 16.443l-6.898 7.262v22.598l6.027 6.275c12.468 12.984 12.187 22.269-.957 31.642l-5.962 4.252-.054 13.404-.054 13.405 6.139 5.555c8.823 7.984 10.088 12.239 5.942 19.986-3.196 5.972-12.665 6.55-20.883 1.277-6.875-4.412-13.497-4.393-19.965.057-5.516 3.795-13.062 4.792-17.47 2.308zm36.006-34.423c.148-12.887-.111-23.812-.576-24.277-1.543-1.542-10.803-2.075-14.555-.837l-3.638 1.2v23.256c0 12.79.317 23.572.703 23.958.387.387 4.55.574 9.25.417l8.547-.286.27-23.43zm3.731-35.05c0-3.76-5.602-6.534-13-6.437-8.623.115-14.756 3.7-13.212 7.726.38.99 3.624 1.284 13.357 1.212l12.855-.096v-2.406zm-17.549-9.102c3.592-.77 6.483-.775 10.015-.018 5.886 1.263 8.254.605 7.837-2.176-.6-4.004-5.296-6.223-13.174-6.223-9.717 0-15.972 3.972-12.618 8.013 1.474 1.777 1.53 1.78 7.94.404zm9.542-13.918c2.472.375 4.722.454 5 .175.28-.279.507-8.73.507-18.781 0-10.636.403-18.524.963-18.87.53-.327 1.41-2.215 1.957-4.194 2.497-9.043-6.389-16.165-16.702-13.387-8.03 2.162-11.516 9.414-7.718 16.058 1.09 1.907 1.438 6.793 1.465 20.584.02 9.945.264 18.311.543 18.59.278.279 2.528.2 5-.175 2.47-.375 6.514-.375 8.985 0z" fill="#485346"/><path d="M58.285 444.547c-14.462-3.145-26.706-9.878-37.385-20.557-8.807-8.807-14.938-19.555-18.012-31.573C.97 384.917.919 380.584.919 223.04.92 66.456.98 61.122 2.854 53.796c7.064-27.62 31.139-48.6 60.449-52.676 10.733-1.493 221.5-1.493 232.233 0 24.654 3.429 45.407 18.373 55.987 40.318 6.843 14.194 6.485 3.467 6.176 185.102l-.28 164-3.188 8.273c-9.153 23.748-28.869 40.423-54.126 45.775-9.58 2.03-232.469 1.993-241.82-.041zm235.497-2.549c27.071-3.394 49.383-21.267 57.898-46.38l2.74-8.078.267-161.229c.297-178.684.643-168.556-6.264-183.1-8.91-18.765-25.133-31.895-45.913-37.165-7.692-1.95-11.094-2.006-123.09-2.006-111.729 0-115.418.06-123.09 1.993-20.655 5.203-36.948 18.487-46.072 37.561-6.678 13.96-6.409 5.885-6.11 183.468L4.42 387.54l3.086 8.618c8.855 24.733 30.743 42.455 56.576 45.806 9.654 1.253 219.736 1.284 229.701.034zM84.218 388.14c-3.93-2.468-6.299-6.829-6.299-11.597 0-3.137.897-4.474 7-10.434l7-6.835v-27.097l-3.25-2.226c-15.83-10.847-16.647-19.266-3.269-33.715l5.52-5.962v-23.795l-6.11-5.97c-7.521-7.346-9.674-11.623-7.512-14.923 2.36-3.603 10.497-8.448 18.108-10.783 13.96-4.283 31.651-2.08 42.845 5.335 9.79 6.484 9.655 9.51-.882 19.953l-6.45 6.392V290.36l5.375 5.635c6.533 6.85 9.625 12.633 9.625 18.003 0 3.25-.72 4.835-3.692 8.125-2.031 2.248-5.631 5.42-8 7.05l-4.308 2.964v27.137l7 6.835c6.242 6.095 7 7.247 6.997 10.634-.008 7.826-7.08 14.256-14.209 12.918-1.889-.354-5.554-1.989-8.146-3.632-3.867-2.452-5.775-2.988-10.647-2.988-5.03 0-6.61.475-10.348 3.11-5.733 4.04-11.888 4.79-16.348 1.99zm35.701-34.482v-24.384l-2.25-.603c-3.472-.93-11.333-.739-14.184.345l-2.566.976v46.916l2.75.417c1.513.229 5.788.484 9.5.566l6.75.15v-24.383zm3.5-34.58c0-4.186-4.648-6.542-12.826-6.501-8.559.043-13.674 2.221-13.674 5.823 0 1.27.198 2.505.44 2.747.24.241 6.203.396 13.25.344 12.706-.093 12.81-.113 12.81-2.414zm-8.25-9.258l8.75.28v-2.544c0-5.888-14.67-8.927-22.997-4.763-6.264 3.132-4.807 8.943 1.886 7.518 1.986-.424 7.549-.644 12.361-.49zm6.018-31.529c.279-14.943.712-19.696 2.13-23.41 1.673-4.379 1.68-4.875.114-8.173-5.077-10.7-25.712-7.716-25.712 3.719 0 1.929.72 4.95 1.6 6.714 1.289 2.583 1.6 6.708 1.6 21.183v17.976l5.75-.603c3.163-.332 7.325-.211 9.25.268 1.925.48 3.82.918 4.209.974.39.056.866-8.335 1.059-18.648zm101.031 109.85c-3.683-2.314-6.299-6.776-6.299-10.746 0-3.503 3.704-8.847 9.475-13.67l4.525-3.783v-27.58l-6.026-4.68c-13.122-10.19-13.239-17.68-.493-31.446l5.52-5.962v-23.5l-7-7.37c-5.891-6.201-7-7.916-7-10.82 0-2.925.7-3.986 4.597-6.962 5.58-4.26 12.517-6.941 22.111-8.544 14.018-2.341 32.192 2.778 40.164 11.313 3.41 3.652 2.293 6.523-5.916 15.196l-6.957 7.35v23.349l5.804 6.205c6.808 7.277 9.196 11.81 9.196 17.448 0 3.318-.702 4.874-3.692 8.184-2.031 2.248-5.631 5.42-8 7.05l-4.308 2.964v27.591l5.057 4.264c2.782 2.346 6.186 5.97 7.566 8.055 2.233 3.375 2.394 4.22 1.46 7.69-2.81 10.432-13.266 13.047-23.115 5.78-2.731-2.015-4.524-2.476-9.633-2.476-5.41 0-6.885.43-10.688 3.11-5.733 4.04-11.888 4.79-16.348 1.99zm35.701-34.483v-24.384l-2.25-.603c-3.472-.93-11.333-.739-14.184.345l-2.566.976v46.922l3.25.404c1.788.222 6.063.475 9.5.563l6.25.16v-24.383zm3.82-34.96c.924-7.852-24.477-8.854-26.438-1.042-.313 1.25-.34 2.645-.057 3.1.282.457 6.287.79 13.344.741l12.831-.089.32-2.71zm-9.365-8.928c9.41.24 11.26-.526 9.446-3.915-2.464-4.603-14.75-6.446-22.206-3.33-6.45 2.694-5.365 9.597 1.217 7.745 1.424-.401 6.618-.626 11.543-.5zm6.8-31.479c.284-15.672.655-19.518 2.26-23.432 1.803-4.395 1.821-4.891.294-8.093-2.849-5.974-11.755-8.445-19.21-5.33-6.348 2.652-8.394 9.235-4.943 15.905 1.388 2.683 1.62 6.09 1.432 21.087l-.225 17.887 5.819-.61c3.2-.337 7.393-.22 9.318.26 1.925.48 3.82.918 4.209.974.39.056.86-8.335 1.047-18.648zM81.607 211.07c-4.17-3.662-6.066-8.902-4.608-12.738.531-1.395 3.88-5.312 7.443-8.704l6.478-6.167V156.48l-5.517-3.97c-13.659-9.827-13.923-18.32-1.002-32.275l5.52-5.962V90.782l-6.065-6.046c-10.64-10.606-11.017-13.792-2.342-19.76 15.137-10.415 38.047-10.803 55.14-.935 10.253 5.919 10.204 9.26-.3 20.14l-6.434 6.665V115.1l3.468 3.045c1.907 1.674 5.282 5.761 7.5 9.083 3.194 4.783 4.032 6.96 4.032 10.468 0 3.89-.565 5.033-4.643 9.393-2.554 2.73-6.154 5.898-8 7.039l-3.357 2.074v27.186l7.128 7.35 7.127 7.35-.529 4.692c-.69 6.124-5.818 11.26-11.244 11.26-3.47 0-12.721-3.961-13.97-5.982-.346-.56-3.515-1.019-7.041-1.019-5.575 0-6.993.41-10.866 3.14-3.046 2.147-6.008 3.289-9.367 3.611-4.43.426-5.271.158-8.551-2.721zm37.313-33.055v-24.024l-2.75-1.07c-2.745-1.068-13.16-.672-15.182.577-.709.438-1.068 8.704-1.068 24.601v23.941h19v-24.025zm3.794-34.564c.43-2.955-2.757-5.299-8.978-6.604-4.74-.994-6.277-.89-11.397.772-3.976 1.29-6.028 2.515-6.253 3.73-.747 4.035.134 4.31 13.48 4.215 12.1-.087 12.872-.211 13.148-2.113zm-10.794-9.562c11.115.78 10.5.911 10.5-2.23 0-2.266-.743-3.28-3.484-4.75-7.389-3.963-23.016-.965-23.016 4.416 0 3.494.918 3.926 6.48 3.044 2.761-.438 7.045-.654 9.52-.48zm7-30.575c0-15.455.206-17.562 1.997-20.5 2.627-4.308 2.621-10.719-.012-14.067-4.374-5.56-15.49-5.908-21.354-.668-2.517 2.249-3.082 3.504-3 6.657.056 2.138.837 5.308 1.736 7.046 1.332 2.576 1.633 6.445 1.633 20.959v17.8h19v-17.227zm99.883 106.844c-3.285-3.285-3.883-4.533-3.883-8.107 0-3.876.578-4.82 7-11.443l7-7.22V156.204l-3.356-2.074c-1.846-1.141-5.446-4.308-8-7.039-4.078-4.36-4.644-5.503-4.644-9.393 0-3.491.832-5.67 3.928-10.293 2.16-3.225 5.535-7.415 7.5-9.31l3.572-3.446V90.846l-6.434-6.665c-10.084-10.446-10.42-13.393-2.167-19.071 15.713-10.81 41.402-10.871 57.008-.134 8.666 5.962 8.314 8.942-2.331 19.709l-6.076 6.145V114.273l5.52 5.962c13.473 14.552 12.586 23.745-3.27 33.89l-3.25 2.078v27.667l4.75 4.167c2.613 2.292 5.941 5.928 7.396 8.08 2.265 3.35 2.525 4.454 1.803 7.668-.517 2.304-2.21 5.011-4.381 7.005-4.856 4.461-9.283 4.396-16.998-.25-4.994-3.008-6.692-3.5-12.068-3.5-4.609 0-6.618.437-7.63 1.659-2.11 2.55-8.94 5.295-13.24 5.32-3.174.017-4.563-.675-7.75-3.861zm38.117-32.143v-24.024l-2.75-1.07c-2.745-1.068-13.16-.672-15.182.577-.709.438-1.068 8.704-1.068 24.601v23.941h19v-24.025zm3.832-34.337c.954-4.953-8.723-8.703-17.635-6.833-3.02.633-6.324 1.906-7.344 2.828-1.734 1.57-2.451 4.435-1.379 5.508.26.26 6.22.43 13.244.378 11.422-.085 12.806-.283 13.114-1.881zm-10.832-9.8c11.102.808 10.5.942 10.5-2.338 0-2.429-.666-3.333-3.5-4.748-9.366-4.68-26.938.797-21.928 6.834.96 1.156 2.268 1.315 5.833.707 2.527-.43 6.62-.635 9.095-.455zm-3.378-13.978c2.725-.061 6.382.202 8.125.584l3.169.697.34-18.82c.28-15.542.663-19.61 2.203-23.347 1.656-4.02 1.707-4.85.453-7.41-2.338-4.777-6.356-7.073-12.238-6.995-11.607.154-17.08 7.944-12.204 17.372 1.209 2.338 1.53 6.767 1.53 21.077 0 17.11.102 18.085 1.833 17.535 1.008-.32 4.063-.632 6.789-.693z" fill="#0e1f0b"/><path d="M58.285 444.547c-14.462-3.145-26.706-9.878-37.385-20.557-8.807-8.807-14.938-19.555-18.012-31.573C.97 384.917.919 380.584.919 223.04.92 66.456.98 61.122 2.854 53.796c7.064-27.62 31.139-48.6 60.449-52.676 10.733-1.493 221.5-1.493 232.233 0 24.654 3.429 45.407 18.373 55.987 40.318 6.843 14.194 6.485 3.467 6.176 185.102l-.28 164-3.188 8.273c-9.153 23.748-28.869 40.423-54.126 45.775-9.58 2.03-232.469 1.993-241.82-.041zm235.497-2.549c27.071-3.394 49.383-21.267 57.898-46.38l2.74-8.078.267-161.229c.297-178.684.643-168.556-6.264-183.1-8.91-18.765-25.133-31.895-45.913-37.165-7.692-1.95-11.094-2.006-123.09-2.006-111.729 0-115.418.06-123.09 1.993-20.655 5.203-36.948 18.487-46.072 37.561-6.678 13.96-6.409 5.885-6.11 183.468L4.42 387.54l3.086 8.618c8.855 24.733 30.743 42.455 56.576 45.806 9.654 1.253 219.736 1.284 229.701.034z"/></svg>