<svg xmlns="http://www.w3.org/2000/svg" height="446.78" width="358.733"><path d="M57.818 445.297c-14.64-3.197-26.557-9.765-37-20.396C8.651 412.516 2.621 399.945.733 383.034c-.597-5.352-.857-68.905-.677-165.682.273-146.642.41-157.396 2.06-163C10.857 24.656 33.802 4.819 63.998.852c5.726-.753 43.549-.994 121.32-.774l113 .32 7.472 2.292c23.885 7.327 42.015 24.361 50.195 47.162l2.332 6.5.281 164c.31 180.692.623 170.794-5.85 184.481-8.91 18.841-24.243 32.061-45.43 39.17l-7 2.349-118 .182c-98.692.153-119.064-.05-124.5-1.237zm244.5-4.727c3.3-.951 10.202-3.791 15.337-6.31 16.717-8.202 29.592-23.88 34.827-42.408 1.748-6.186 1.836-14.354 1.836-169v-162.5l-2.714-8c-7.04-20.745-23.035-36.704-44.286-44.184l-8-2.816h-239l-8 2.724c-10.864 3.7-19.562 9.014-27.456 16.776-7.897 7.764-12.898 15.693-16.72 26.51l-2.824 7.99-.264 161.243c-.296 180.03-.728 168.395 6.832 184.013 3.295 6.809 5.768 10.16 12.28 16.635 12.187 12.121 24.6 18.437 40.276 20.491 3.798.498 57.243.826 119.376.734 103.37-.154 112.987-.308 118.5-1.898zM65.433 377.763c-3.311-2.604-5.615-6.953-5.615-10.599 0-2.143 1.617-4.341 7-9.515l7-6.728v-25.044l-3.943-2.49c-6.18-3.9-10.894-9.15-11.6-12.918-.952-5.072 2.463-11.769 9.525-18.679l6.018-5.888V265.715l-7.566-7.396c-6.73-6.58-7.53-7.754-7.25-10.64.599-6.144 12.368-12.653 26.975-14.92 18.39-2.853 42.841 6 42.841 15.511 0 2.45-1.3 4.288-6.651 9.408-7.405 7.084-8.227 9.213-8.305 21.521l-.044 6.847 5.068 4.556c5.9 5.305 10.91 13.454 10.923 17.768.013 4.25-3.875 9.47-10.403 13.966l-5.588 3.848V350.921l7.145 6.867c7.112 6.836 7.142 6.887 6.562 11.215-.445 3.319-1.452 5.143-4.253 7.71-3.45 3.162-4.017 3.338-9.471 2.944-4.127-.299-6.976-1.197-9.87-3.113-3.365-2.226-5.19-2.692-10.532-2.692-3.555 0-6.745.456-7.09 1.014-.344.558-2.378 1.908-4.519 3-5.293 2.7-12.853 2.653-16.357-.103zm36.58-31.661c.168-11.963-.094-22.04-.583-22.394-1.905-1.383-8.929-1.848-12.674-.84l-3.938 1.06v43.924h16.89l.305-21.75zm4.205-32.072a30.834 30.834 0 0 0-.25-2.064c-.316-1.868-7.15-4.111-12.3-4.038-7.567.107-12.276 1.98-12.644 5.029l-.295 2.44 12.795-.095c9.16-.067 12.766-.429 12.694-1.272zm0-10.932a32.774 32.774 0 0 0-.25-2.164c-.082-.504-2.167-1.687-4.632-2.629-7.64-2.917-19.655-.465-20.316 4.148-.29 2.022.077 2.08 12.5 1.987 9.557-.072 12.773-.412 12.698-1.342zm-3.4-27.536c0-13.816.25-16.28 2-19.71 2.616-5.127 2.526-8.278-.33-11.598-1.885-2.192-3.405-2.799-7.954-3.176-7.146-.593-9.753.084-13.059 3.39-3.178 3.178-3.327 5.646-.657 10.884 1.754 3.44 2 5.897 2 19.961v16.039h18v-15.79zm134.003 99.527c-3.404-3.403-4.003-4.632-4.003-8.217 0-3.863.517-4.709 6.184-10.118 3.401-3.246 6.551-5.902 7-5.902.45 0 .816-5.762.816-12.803v-12.804l-6.062-4.275c-13.28-9.365-13.159-17.968.438-31.076l4.624-4.459V263.864l-7-6.808c-6.144-5.976-7-7.255-7-10.458 0-3.187.557-4.033 4.387-6.668 10.03-6.902 25.386-10.25 38.009-8.287 12.132 1.886 25.487 8.133 27.259 12.751 1.202 3.132-1.05 7.037-7.713 13.379l-6.942 6.606V285.75l3.566 2.72c1.962 1.496 5.337 5.192 7.5 8.214 3.279 4.578 3.934 6.299 3.934 10.328 0 4.162-.51 5.398-3.666 8.892-2.016 2.232-5.616 5.201-8 6.598l-4.334 2.54v24.402l6.919 6.194c7.771 6.958 9.055 9.947 6.698 15.588-3.298 7.894-14.014 9.937-22.535 4.298-5.757-3.81-14.42-3.8-20.194.02-2.917 1.931-5.74 2.814-9.976 3.12-5.781.419-5.992.343-9.91-3.575zm37.767-30.478l-.27-22.241-4.596-.84c-2.92-.532-6.11-.43-8.75.28l-4.154 1.119v43.923h18.039l-.27-22.241zm4.049-32.082c.19-.972-1.014-2.436-3-3.647-7.229-4.407-24.6-1.117-22.535 4.268.328.854 4.043 1.173 12.839 1.102 10.573-.085 12.424-.336 12.696-1.723zm.681-10.57c0-.765-1.27-2.34-2.823-3.5-5.09-3.8-21.416-2.334-23.108 2.075-.316.824-.377 1.819-.135 2.21.243.393 6.207.69 13.254.66 10.255-.042 12.812-.33 12.812-1.444zm-3.5-27.823c0-14.55.218-16.64 2.106-20.263 2.352-4.51 2.02-7.896-1.078-10.994-2.647-2.646-8.771-4.122-13.051-3.145-9.604 2.193-12.28 7.351-7.977 15.379 1.758 3.279 2 5.643 2.001 19.485v15.754h18v-16.223zm-120.666 26.652c-4.504-2.23-7.334-6.7-7.334-11.587 0-2.228 1.525-4.294 7-9.484l7-6.635V248.19l-4.936-3.2c-13.935-9.029-14.223-17.933-.997-30.854l5.92-5.783.007-10.13.007-10.13-7.57-7.521c-6.77-6.726-7.538-7.872-7.25-10.828.613-6.33 12.576-12.637 28.07-14.799 17.294-2.413 40.708 5.914 41.57 14.783.284 2.932-.509 4.125-7.25 10.91l-7.57 7.62v19.9l6.091 5.942c8.928 8.71 11.596 15.589 8.424 21.723-1.493 2.888-8.085 8.764-12.265 10.933-2.152 1.116-2.25 1.714-2.25 13.747v12.58l7 6.635c7.664 7.265 8.397 9.388 5.414 15.675-3.824 8.057-13.466 9.307-22.821 2.958-5.221-3.543-13.796-3.537-18.607.012-3.255 2.401-8.794 4.473-11.986 4.483-.825 0-3.375-.923-5.666-2.057zm34.666-32.83c0-24.579.496-23.117-7.831-23.093-9.892.03-9.169-1.793-9.169 23.103v21.884h17v-21.893zm4.5-31.998c0-.766-1.27-2.34-2.823-3.5-5.676-4.238-22.677-2.127-22.677 2.816 0 2.13.298 2.18 12.75 2.128 10.202-.042 12.75-.33 12.75-1.444zm-12.5-9.515c3.025 0 6.63.298 8.009.662 3.505.924 5.83-.648 4.4-2.977-2.88-4.689-15.563-6.361-22.159-2.922-5.313 2.771-3.981 7.211 1.75 5.837 1.375-.33 4.975-.6 8-.6zm11.246-49.093c.958-1.65 1.73-4.125 1.716-5.5-.08-7.885-13.137-12.052-21.05-6.72-4.961 3.344-5.81 6.691-3.107 12.254 1.982 4.08 2.195 6.08 2.195 20.608v16.088l5.25-.599c2.888-.329 6.825-.249 8.75.178l3.5.777.502-17.043c.405-13.74.84-17.625 2.244-20.043zm-128.63 36.411c-3.304-2.598-5.616-6.95-5.616-10.574 0-2.1 1.677-4.402 7-9.61l7-6.85v-24.852l-3.943-2.49c-6.405-4.043-10.89-9.13-11.658-13.225-.952-5.074 3.141-12.775 10.236-19.259l5.365-4.904v-20.284l-7.5-7.331c-8.595-8.403-9.556-11.544-4.862-15.897 5.933-5.502 21.761-10.662 32.57-10.618 10.523.043 26.446 5.373 32.042 10.726 4.721 4.516 3.863 7.37-4.75 15.789l-7.5 7.331v19.977l6.038 6.037c13.14 13.14 12.801 21.27-1.288 30.954l-4.75 3.265v24.973l7 6.728c5.609 5.39 7 7.322 6.997 9.715-.005 3.65-3.012 8.796-6.46 11.056-3.762 2.464-12.262 1.541-17.455-1.896-3.331-2.204-5.17-2.672-10.501-2.672-3.555 0-6.745.456-7.09 1.014-.344.558-2.378 1.908-4.519 3-5.293 2.7-12.853 2.653-16.357-.103zm36.154-32.09l-.27-22.179-3-.842c-3.11-.873-11.2-.221-13.29 1.07-.902.558-1.036 6.086-.544 22.435l.653 21.695h16.72l-.27-22.179zm4.095-31.237c.784-.485.834-1.279.16-2.54-2.792-5.216-20.819-5.51-24.706-.402-2.532 3.328-.648 3.946 11.57 3.794 6.509-.081 12.348-.464 12.976-.852zm.535-11.372a33.06 33.06 0 0 0-.25-2.13c-.082-.504-2.178-1.692-4.658-2.639-7.79-2.975-20.492-.481-20.492 4.024 0 2.088.348 2.144 12.75 2.052 9.328-.07 12.724-.42 12.65-1.307zm-3.4-27.938c0-14.456.218-16.583 1.997-19.5 1.098-1.8 1.998-4.487 2-5.968.008-5.833-7.943-10.52-15.435-9.1-9.676 1.833-13.028 7.736-8.558 15.068 1.779 2.917 1.996 5.044 1.996 19.5v16.226h18v-16.226zm135.873 102.1c-3.66-2.352-5.873-6.5-5.873-11.007 0-3.393.694-4.473 6.161-9.595 3.388-3.175 6.538-5.772 7-5.772.462 0 .84-5.762.84-12.803v-12.804l-6.063-4.275c-13.107-9.243-13.25-17.61-.517-30.084l5.58-5.466V99.656l-6.142-5.652c-6.98-6.424-9.518-11.051-7.81-14.242 2.947-5.507 17.977-11.604 30.951-12.556 12.53-.919 27.86 3.401 35.75 10.075 5.066 4.284 4.436 6.582-4.25 15.507l-7.5 7.707V121.792l3.097 2.28c1.703 1.254 5.078 4.912 7.5 8.129 3.8 5.047 4.403 6.516 4.403 10.715 0 5.75-2.978 9.788-11.027 14.953l-4.973 3.191v24.492l6.018 5.234c9.27 8.063 10.597 12.404 5.862 19.184-3.958 5.668-13.54 6.358-20.876 1.503-5.72-3.786-14.88-3.749-20.519.083-5.04 3.424-13.619 4.238-17.612 1.67zm35.897-32.624l-.27-22.25-4.5-.864c-2.937-.563-5.975-.463-8.75.289l-4.25 1.152v43.923h18.039l-.27-22.25zm4.017-31.911c.574-2.92-3.618-5.234-10.244-5.656-9.148-.582-16.683 2.403-15.282 6.054.757 1.973 25.136 1.592 25.526-.398zm0-11.34c-.65-4.54-11.453-6.878-19.98-4.323-3.723 1.115-6.459 3.96-5.422 5.637.263.425 6.15.753 13.083.73 12.023-.041 12.593-.136 12.32-2.043zm-2.787-27.122c0-14.238.248-16.682 2.114-20.9 1.968-4.45 2.007-5.002.568-8.02-2.274-4.766-8.906-7.14-15.405-5.511-6.393 1.601-9.277 4.41-9.277 9.037 0 1.999.661 4.508 1.469 5.576 1.154 1.525 1.475 5.579 1.5 18.94l.031 17h19V110.23z" fill="#edc5c7"/><path d="M57.818 445.297c-14.64-3.197-26.557-9.765-37-20.396C8.651 412.516 2.621 399.945.733 383.034c-.597-5.352-.857-68.905-.677-165.682.273-146.642.41-157.396 2.06-163C10.857 24.656 33.802 4.819 63.998.852c5.726-.753 43.549-.994 121.32-.774l113 .32 7.472 2.292c23.885 7.327 42.015 24.361 50.195 47.162l2.332 6.5.281 164c.31 180.692.623 170.794-5.85 184.481-8.91 18.841-24.243 32.061-45.43 39.17l-7 2.349-118 .182c-98.692.153-119.064-.05-124.5-1.237zm244.5-4.727c3.3-.951 10.202-3.791 15.337-6.31 16.717-8.202 29.592-23.88 34.827-42.408 1.748-6.186 1.836-14.354 1.836-169v-162.5l-2.714-8c-7.04-20.745-23.035-36.704-44.286-44.184l-8-2.816h-239l-8 2.724c-10.864 3.7-19.562 9.014-27.456 16.776-7.897 7.764-12.898 15.693-16.72 26.51l-2.824 7.99-.264 161.243c-.296 180.03-.728 168.395 6.832 184.013 3.295 6.809 5.768 10.16 12.28 16.635 12.187 12.121 24.6 18.437 40.276 20.491 3.798.498 57.243.826 119.376.734 103.37-.154 112.987-.308 118.5-1.898zm-236.08-62.545c-3.29-2.07-6.42-7.538-6.42-11.217 0-1.47 2.412-4.555 7-8.956l7-6.715v-12.982c0-12.488-.085-13.022-2.25-14.023-3.867-1.79-11.42-9.07-12.757-12.298-2.096-5.06.058-9.976 8.065-18.406l6.942-7.309v-20.624l-7.5-7.707c-9.119-9.37-9.536-11.43-3.25-16.042 5.978-4.386 11.623-6.645 21.41-8.568 9.123-1.793 16.84-1.2 27.991 2.146 5.41 1.624 14.017 6.91 15.671 9.623 1.789 2.934-.361 7.074-6.913 13.31l-6.498 6.187-.604 10.68-.605 10.681 7.092 7.466c8.128 8.557 10.32 13.48 8.238 18.504-1.398 3.376-8.69 10.508-12.533 12.26-2.478 1.128-2.499 1.245-2.499 14.12v12.982l7 6.715c7.549 7.24 8.366 9.458 5.515 14.97-3.883 7.51-12.198 9.092-21.169 4.03-7.283-4.11-15.52-4.237-21.427-.328-5.384 3.563-13.16 4.23-17.499 1.501zm35.765-31.923c.18-11.963.012-22.152-.373-22.644-.86-1.099-13.863-1.31-15.574-.253-.923.57-1.238 6.346-1.238 22.706v21.94h16.858l.327-21.75zm4.315-32.788c0-4.678-14.236-7.27-22.032-4.013-2.567 1.072-3.468 2.061-3.468 3.807v2.357l12.75-.095c11.97-.089 12.75-.215 12.75-2.056zm.5-10.629c0-3.281-4.792-5.333-12.455-5.333-8.546 0-13.545 1.82-13.545 4.931 0 2.14.293 2.19 13 2.19 11.818 0 13-.163 13-1.788zm-4-27.059c0-13.956.225-16.094 1.997-19 2.932-4.81 2.61-9.322-.92-12.851-2.594-2.595-3.611-2.923-9.05-2.923-12.255 0-16.792 5.658-12.027 15 1.75 3.43 2 5.894 2 19.71v15.79h18v-15.726zm136.299 101.266c-3.684-2.246-6.299-6.7-6.299-10.728 0-2.143 1.617-4.341 7-9.515l7-6.728v-25.614l-3.52-1.897c-5.74-3.09-12.48-10.952-12.48-14.555 0-4.532 3.506-10.639 9.61-16.743l5.39-5.39V263.46l-7.068-6.74c-6.298-6.006-7.033-7.096-6.75-10.012.614-6.311 12.797-12.908 27.906-15.11 12.964-1.89 30.975 2.839 38.856 10.2 4.619 4.316 4.017 6.308-4.444 14.715l-7.5 7.451v21.471l4.625 4.459c13.838 13.34 13.828 21.893-.036 31.441l-5.589 3.85v25.256l5.115 3.9c2.814 2.146 6.232 5.588 7.596 7.65 2.22 3.354 2.36 4.119 1.324 7.255-.636 1.928-2.72 4.878-4.63 6.556-4.688 4.115-9.828 4.13-17.059.05-4.494-2.537-6.39-3-12.271-3-3.826 0-7.239.456-7.583 1.014-1.252 2.025-8.502 4.986-12.202 4.982-2.084 0-5.23-.882-6.991-1.956zm35.47-32.29l-.269-22.25-4.5-.864c-2.937-.563-5.975-.463-8.75.289l-4.25 1.152v43.923h18.039l-.27-22.25zm4.231-32.551c0-1.68-.935-2.692-3.468-3.75-4.086-1.708-13.93-1.904-18.342-.366-2.913 1.016-4.907 3.947-3.85 5.658.258.417 6.137.759 13.065.759 12.478 0 12.595-.021 12.595-2.301zm.4-9.953a30.77 30.77 0 0 0-.25-2.138c-.262-1.56-8.03-4.108-12.52-4.108-7.586 0-14.515 3.25-13.358 6.265.744 1.94 26.284 1.922 26.128-.02zm-3.4-27.384c0-13.45.278-16.255 1.978-20.003 2.573-5.669 2.522-8.168-.228-11.356-4.296-4.98-16.218-5.23-21.31-.447-3.057 2.872-3.237 8.123-.436 12.718 1.772 2.905 1.996 5.045 1.997 19v15.726h18v-15.645zm-119.98 26.421c-3.868-1.982-8.02-7.48-8.02-10.62 0-2.832 3.438-7.437 9.08-12.163l4.776-4 .072-13.182.072-13.182-3.25-2.224c-6.323-4.326-11.723-10.253-12.34-13.546-.827-4.407 3.335-11.89 10.255-18.434l5.335-5.045v-21.75l-6.094-5.3c-9.314-8.102-10.825-12.148-6.156-16.49 12.532-11.65 39.488-13.848 57.555-4.693 12.141 6.153 12.54 9.765 2.195 19.878l-7.5 7.331v20.712l6.282 6.463c7.431 7.643 10.165 12.766 9.294 17.41-.659 3.512-5.75 9.24-11.826 13.307l-3.75 2.51.048 13.118.047 13.117 5.28 4.22c9.14 7.309 10.56 12.64 5.093 19.136-5.047 5.997-11.922 6.176-20.696.54-2.95-1.896-5.077-2.396-10.191-2.396-3.555 0-6.745.456-7.09 1.014-.975 1.578-7.712 4.752-11.537 5.436-2.36.421-4.556.052-6.934-1.167zm33.75-33.533l-.27-22.25-5.958-.306c-3.277-.169-6.99-.047-8.25.269l-2.292.575v43.962h17.039l-.27-22.25zm4.73-32.24c0-4.322-13.217-6.988-21-4.236-3.043 1.076-4.072 2.011-4.3 3.912l-.302 2.498 12.801-.096c12.065-.09 12.801-.21 12.801-2.079zm-17.644-8.573c3.312-.71 6.705-.744 10.235-.103 6.123 1.113 7.91.68 7.91-1.916 0-4.584-13.512-7.042-22.25-4.048-2.846.975-3.75 1.83-3.75 3.54 0 3.904.575 4.089 7.855 2.527zm16.165-48.203c4.445-7.29 1.057-14.52-7.241-15.456-6.456-.727-11.574.426-14.391 3.243-2.935 2.934-3.058 6.742-.389 11.979 1.752 3.436 2 5.897 2 19.849v15.926l5.25-.59c2.888-.325 6.825-.255 8.75.154l3.5.745.275-16.308c.238-14.169.533-16.732 2.246-19.542zM65.117 213.952c-3.666-2.304-6.299-6.773-6.299-10.694 0-2.021 1.745-4.383 7-9.474l7-6.781v-12.915c0-12.418-.086-12.955-2.25-13.956-3.867-1.79-11.42-9.07-12.757-12.298-2.096-5.06.058-9.976 8.065-18.406l6.942-7.309v-20.624l-7.57-7.779c-6.245-6.417-7.515-8.261-7.25-10.53.665-5.702 13.16-12.325 27.445-14.546 12.579-1.956 28.601 1.698 37.658 8.588 6.687 5.088 6.343 7.183-2.712 16.488l-7.57 7.78V122.118l6.882 7.246c7.093 7.467 9.778 12.72 8.698 17.022-.844 3.362-5.829 8.806-11.13 12.156l-4.447 2.809-.002 12.893-.002 12.892 7 6.715c7.57 7.26 8.132 8.812 5.33 14.717-3.619 7.626-12.021 9.341-20.984 4.283-7.337-4.14-16.02-4.266-21.835-.314-5.308 3.607-12.749 4.218-17.212 1.414zm35.701-32.506v-22.407l-4.864-.669c-2.8-.385-6.681-.18-9.15.485l-4.285 1.154.65 12.079c.357 6.643.65 16.507.65 21.92v9.844h17v-22.406zm4.819-31.89c.193-1.001-.988-2.447-3-3.674-5.692-3.47-19.379-2.49-22.5 1.612-2.534 3.33-.654 3.904 12.45 3.807 10.994-.08 12.775-.319 13.05-1.744zm-.024-11.144c-.436-3.052-6.314-5.57-12.795-5.483-7.747.105-12.424 1.956-12.798 5.066l-.298 2.477h13.093c12.65 0 13.083-.07 12.798-2.06zm-3.795-26.814c0-13.843.243-16.206 2-19.485 2.552-4.76 2.536-8.311-.053-11.602-2.845-3.616-8.421-4.965-14.836-3.59-8.554 1.835-11.218 7.528-7.11 15.192 1.757 3.279 2 5.642 2 19.485v15.754h18v-15.754zm136.299 101.294c-3.728-2.273-6.299-6.709-6.299-10.87 0-2.33 1.43-4.277 7-9.531l7-6.604v-25.58l-3.52-1.897c-1.937-1.043-5.537-4.05-8-6.684-7.025-7.51-5.94-13.361 4.458-24.053l6.062-6.235V99.46l-6.836-6.554c-3.76-3.604-7.1-7.59-7.421-8.859-1.376-5.428 9.367-12.566 23.658-15.72 13.365-2.948 28.811-.397 39.629 6.545 9.112 5.847 8.827 9.13-1.628 18.776l-6.402 5.906v21.882l4.625 4.459c13.564 13.077 13.671 21.55.39 30.867l-6.015 4.218v25.461l5.115 3.902c2.814 2.145 6.232 5.587 7.596 7.65 2.22 3.353 2.36 4.118 1.324 7.254-.636 1.928-2.72 4.878-4.63 6.556-4.688 4.115-9.828 4.13-17.059.05-4.494-2.537-6.39-3-12.271-3-3.997 0-7.247.47-7.639 1.104-1.16 1.878-8.753 4.85-12.436 4.87-1.925.01-4.94-.86-6.701-1.934zm35.701-32.468v-22.428l-5.274-.66c-2.901-.362-6.839-.253-8.75.242l-3.476.9-.269 22.187-.269 22.187h18.038v-22.428zm3.812-32.36c.47-3.153-4.389-5.212-12.294-5.212-7.754 0-13.518 2.039-13.518 4.782 0 1.036.188 2.072.417 2.301.23.23 5.967.374 12.75.32 11.72-.09 12.349-.2 12.645-2.191zm.188-10.813c0-5.915-20.384-7.46-25.003-1.895-2.793 3.365-.655 4.067 12.39 4.067 12.28 0 12.613-.057 12.613-2.172zm-3-26.834c0-14.1.24-16.429 2.083-20.236 3.618-7.473.422-13.392-8-14.815-4.707-.795-11.503.906-14.135 3.538-2.328 2.328-2.55 8.27-.448 11.948 1.076 1.881 1.438 6.582 1.465 19l.035 16.5h19v-15.935z" fill="#bebebe"/><path d="M58.318 445.331c-27.829-6.12-48.705-25.977-56.223-53.48-1.668-6.102-1.777-16.39-1.777-168.5v-162l2.304-8.04C6.176 40.9 11.77 31.67 21.735 21.769c6.946-6.9 10.433-9.48 17.799-13.167C56.97-.127 48.799.352 180.318.352c109.553 0 116.39.102 123 1.845 21.706 5.72 39.647 20.278 48.972 39.736 6.996 14.597 6.618 3.553 6.308 184.419l-.28 163-2.755 8.13c-6.485 19.132-23.344 36.732-42.357 44.219-13.265 5.223-11.538 5.158-134.595 5.05-90.648-.08-115.534-.373-120.293-1.42zm244.5-4.805c23.266-6.233 41.559-23.414 49.162-46.174l2.338-7 .274-159.42c.31-180.136.71-169.784-7.175-185.58-7.224-14.473-17.895-24.703-32.752-31.398-14.011-6.313-9.369-6.104-135.044-6.085-128.591.02-121.607-.366-137.78 7.618-18.044 8.907-31.652 26.18-35.56 45.135-1.301 6.318-1.463 28.482-1.23 169l.267 161.73 2.7 7.62c4.838 13.657 11.99 23.784 22.294 31.569 10.465 7.906 21.916 12.667 34.506 14.347 3.025.404 56.35.654 118.5.556 103.907-.163 113.523-.317 119.5-1.918zm-236.58-62.5c-3.29-2.07-6.42-7.54-6.42-11.218 0-1.47 2.412-4.555 7-8.956l7-6.715v-12.982c0-12.488-.085-13.022-2.25-14.023-3.867-1.79-11.42-9.07-12.757-12.298-2.096-5.06.058-9.976 8.065-18.406l6.942-7.309v-20.624l-7.5-7.707c-9.119-9.37-9.536-11.43-3.25-16.042 5.978-4.386 11.623-6.645 21.41-8.568 9.123-1.793 16.84-1.2 27.991 2.146 5.41 1.624 14.017 6.91 15.671 9.623 1.789 2.934-.361 7.074-6.913 13.31l-6.498 6.187-.604 10.68-.605 10.681 7.092 7.466c8.128 8.557 10.32 13.48 8.238 18.504-1.398 3.376-8.69 10.508-12.533 12.26-2.478 1.128-2.499 1.245-2.499 14.12v12.982l7 6.715c7.549 7.24 8.366 9.458 5.515 14.97-3.883 7.51-12.198 9.092-21.169 4.03-7.283-4.11-15.52-4.237-21.427-.328-5.384 3.563-13.16 4.23-17.499 1.501zm35.765-31.924c.18-11.963.012-22.152-.373-22.644-.86-1.099-13.863-1.31-15.574-.253-.923.57-1.238 6.346-1.238 22.706v21.94h16.858l.327-21.75zm4.315-32.788c0-4.678-14.236-7.27-22.032-4.013-2.567 1.072-3.468 2.061-3.468 3.807v2.357l12.75-.095c11.97-.089 12.75-.215 12.75-2.056zm.5-10.629c0-3.281-4.792-5.333-12.455-5.333-8.546 0-13.545 1.82-13.545 4.931 0 2.14.293 2.19 13 2.19 11.818 0 13-.163 13-1.788zm-4-27.059c0-13.956.225-16.094 1.997-19 2.932-4.81 2.61-9.322-.92-12.851-2.594-2.595-3.611-2.923-9.05-2.923-12.255 0-16.792 5.658-12.027 15 1.75 3.43 2 5.894 2 19.71v15.79h18v-15.726zm136.299 101.266c-3.684-2.246-6.299-6.7-6.299-10.728 0-2.143 1.617-4.341 7-9.515l7-6.728v-25.614l-3.52-1.897c-5.74-3.09-12.48-10.952-12.48-14.555 0-4.532 3.506-10.639 9.61-16.743l5.39-5.39V263.46l-7.068-6.74c-6.298-6.006-7.033-7.096-6.75-10.012.614-6.311 12.797-12.908 27.906-15.11 12.964-1.89 30.975 2.839 38.856 10.2 4.619 4.316 4.017 6.308-4.444 14.715l-7.5 7.451v21.471l4.625 4.459c13.838 13.34 13.828 21.893-.036 31.441l-5.589 3.85v25.256l5.115 3.9c2.814 2.146 6.232 5.588 7.596 7.65 2.22 3.354 2.36 4.119 1.324 7.255-.636 1.928-2.72 4.878-4.63 6.556-4.688 4.115-9.828 4.13-17.059.05-4.494-2.537-6.39-3-12.271-3-3.826 0-7.239.456-7.583 1.014-1.252 2.025-8.502 4.986-12.202 4.982-2.084 0-5.23-.882-6.991-1.956zm35.47-32.29l-.269-22.25-4.5-.864c-2.937-.563-5.975-.463-8.75.289l-4.25 1.152v43.923h18.039l-.27-22.25zm4.231-32.551c0-1.68-.935-2.692-3.468-3.75-4.086-1.708-13.93-1.904-18.342-.366-2.913 1.016-4.907 3.947-3.85 5.658.258.417 6.137.759 13.065.759 12.478 0 12.595-.021 12.595-2.301zm.4-9.953a30.77 30.77 0 0 0-.25-2.138c-.262-1.56-8.03-4.108-12.52-4.108-7.586 0-14.515 3.25-13.358 6.265.744 1.94 26.284 1.922 26.128-.02zm-3.4-27.384c0-13.45.278-16.255 1.978-20.003 2.573-5.669 2.522-8.168-.228-11.356-4.296-4.98-16.218-5.23-21.31-.447-3.057 2.872-3.237 8.123-.436 12.718 1.772 2.905 1.996 5.045 1.997 19v15.726h18v-15.645zm-119.98 26.421c-3.868-1.982-8.02-7.48-8.02-10.62 0-2.832 3.438-7.437 9.08-12.163l4.776-4 .072-13.182.072-13.182-3.25-2.224c-6.323-4.326-11.723-10.253-12.34-13.546-.827-4.407 3.335-11.89 10.255-18.434l5.335-5.045v-21.75l-6.094-5.3c-9.314-8.102-10.825-12.148-6.156-16.49 12.532-11.65 39.488-13.848 57.555-4.693 12.141 6.153 12.54 9.765 2.195 19.878l-7.5 7.331v20.712l6.282 6.463c7.431 7.643 10.165 12.766 9.294 17.41-.659 3.512-5.75 9.24-11.826 13.307l-3.75 2.51.048 13.118.047 13.117 5.28 4.22c9.14 7.309 10.56 12.64 5.093 19.136-5.047 5.997-11.922 6.176-20.696.54-2.95-1.896-5.077-2.396-10.191-2.396-3.555 0-6.745.456-7.09 1.014-.975 1.578-7.712 4.752-11.537 5.436-2.36.421-4.556.052-6.934-1.167zm33.75-33.533l-.27-22.25-5.958-.306c-3.277-.169-6.99-.047-8.25.269l-2.292.575v43.962h17.039l-.27-22.25zm4.73-32.24c0-4.322-13.217-6.988-21-4.236-3.043 1.076-4.072 2.011-4.3 3.912l-.302 2.498 12.801-.096c12.065-.09 12.801-.21 12.801-2.079zm-17.644-8.573c3.312-.71 6.705-.744 10.235-.103 6.123 1.113 7.91.68 7.91-1.916 0-4.584-13.512-7.042-22.25-4.048-2.846.975-3.75 1.83-3.75 3.54 0 3.904.575 4.089 7.855 2.527zm16.165-48.203c4.445-7.29 1.057-14.52-7.241-15.456-6.456-.727-11.574.426-14.391 3.243-2.935 2.934-3.058 6.742-.389 11.979 1.752 3.436 2 5.897 2 19.849v15.926l5.25-.59c2.888-.325 6.825-.255 8.75.154l3.5.745.275-16.308c.238-14.169.533-16.732 2.246-19.542zM65.117 213.952c-3.666-2.304-6.299-6.773-6.299-10.694 0-2.021 1.745-4.383 7-9.474l7-6.781v-12.915c0-12.418-.086-12.955-2.25-13.956-3.867-1.79-11.42-9.07-12.757-12.298-2.096-5.06.058-9.976 8.065-18.406l6.942-7.309v-20.624l-7.57-7.779c-6.245-6.417-7.515-8.261-7.25-10.53.665-5.702 13.16-12.325 27.445-14.546 12.579-1.956 28.601 1.698 37.658 8.588 6.687 5.088 6.343 7.183-2.712 16.488l-7.57 7.78V122.118l6.882 7.246c7.093 7.467 9.778 12.72 8.698 17.022-.844 3.362-5.829 8.806-11.13 12.156l-4.447 2.809-.002 12.893-.002 12.892 7 6.715c7.57 7.26 8.132 8.812 5.33 14.717-3.619 7.626-12.021 9.341-20.984 4.283-7.337-4.14-16.02-4.266-21.835-.314-5.308 3.607-12.749 4.218-17.212 1.414zm35.701-32.506v-22.407l-4.864-.669c-2.8-.385-6.681-.18-9.15.485l-4.285 1.154.65 12.079c.357 6.643.65 16.507.65 21.92v9.844h17v-22.406zm4.819-31.89c.193-1.001-.988-2.447-3-3.674-5.692-3.47-19.379-2.49-22.5 1.612-2.534 3.33-.654 3.904 12.45 3.807 10.994-.08 12.775-.319 13.05-1.744zm-.024-11.144c-.436-3.052-6.314-5.57-12.795-5.483-7.747.105-12.424 1.956-12.798 5.066l-.298 2.477h13.093c12.65 0 13.083-.07 12.798-2.06zm-3.795-26.814c0-13.843.243-16.206 2-19.485 2.552-4.76 2.536-8.311-.053-11.602-2.845-3.616-8.421-4.965-14.836-3.59-8.554 1.835-11.218 7.528-7.11 15.192 1.757 3.279 2 5.642 2 19.485v15.754h18v-15.754zm136.299 101.294c-3.728-2.273-6.299-6.709-6.299-10.87 0-2.33 1.43-4.277 7-9.531l7-6.604v-25.58l-3.52-1.897c-1.937-1.043-5.537-4.05-8-6.684-7.025-7.51-5.94-13.361 4.458-24.053l6.062-6.235V99.46l-6.836-6.554c-3.76-3.604-7.1-7.59-7.421-8.859-1.376-5.428 9.367-12.566 23.658-15.72 13.365-2.948 28.811-.397 39.629 6.545 9.112 5.847 8.827 9.13-1.628 18.776l-6.402 5.906v21.882l4.625 4.459c13.564 13.077 13.671 21.55.39 30.867l-6.015 4.218v25.461l5.115 3.902c2.814 2.145 6.232 5.587 7.596 7.65 2.22 3.353 2.36 4.118 1.324 7.254-.636 1.928-2.72 4.878-4.63 6.556-4.688 4.115-9.828 4.13-17.059.05-4.494-2.537-6.39-3-12.271-3-3.997 0-7.247.47-7.639 1.104-1.16 1.878-8.753 4.85-12.436 4.87-1.925.01-4.94-.86-6.701-1.934zm35.701-32.468v-22.428l-5.274-.66c-2.901-.362-6.839-.253-8.75.242l-3.476.9-.269 22.187-.269 22.187h18.038v-22.428zm3.812-32.36c.47-3.153-4.389-5.212-12.294-5.212-7.754 0-13.518 2.039-13.518 4.782 0 1.036.188 2.072.417 2.301.23.23 5.967.374 12.75.32 11.72-.09 12.349-.2 12.645-2.191zm.188-10.813c0-5.915-20.384-7.46-25.003-1.895-2.793 3.365-.655 4.067 12.39 4.067 12.28 0 12.613-.057 12.613-2.172zm-3-26.834c0-14.1.24-16.429 2.083-20.236 3.618-7.473.422-13.392-8-14.815-4.707-.795-11.503.906-14.135 3.538-2.328 2.328-2.55 8.27-.448 11.948 1.076 1.881 1.438 6.582 1.465 19l.035 16.5h19v-15.935z" fill="#dc8c8f"/><path d="M58.318 445.331c-27.829-6.12-48.705-25.977-56.223-53.48-1.668-6.102-1.777-16.39-1.777-168.5v-162l2.304-8.04C6.176 40.9 11.77 31.67 21.735 21.769c6.946-6.9 10.433-9.48 17.799-13.167C56.97-.127 48.799.352 180.318.352c109.553 0 116.39.102 123 1.845 21.706 5.72 39.647 20.278 48.972 39.736 6.996 14.597 6.618 3.553 6.308 184.419l-.28 163-2.755 8.13c-6.485 19.132-23.344 36.732-42.357 44.219-13.265 5.223-11.538 5.158-134.595 5.05-90.648-.08-115.534-.373-120.293-1.42zm244.5-4.805c23.266-6.233 41.559-23.414 49.162-46.174l2.338-7 .274-159.42c.31-180.136.71-169.784-7.175-185.58-7.224-14.473-17.895-24.703-32.752-31.398-14.011-6.313-9.369-6.104-135.044-6.085-128.591.02-121.607-.366-137.78 7.618-18.044 8.907-31.652 26.18-35.56 45.135-1.301 6.318-1.463 28.482-1.23 169l.267 161.73 2.7 7.62c4.838 13.657 11.99 23.784 22.294 31.569 10.465 7.906 21.916 12.667 34.506 14.347 3.025.404 56.35.654 118.5.556 103.907-.163 113.523-.317 119.5-1.918zM67.133 378.388c-5.922-2.576-8.167-11.127-4.333-16.51 1.09-1.53 4.24-4.505 7-6.61l5.018-3.827v-25.38l-4.972-3.192c-2.735-1.754-6.335-4.742-8-6.639-5.817-6.625-3.394-14.98 7.348-25.336l4.624-4.459v-21.137l-6.93-6.877c-10.372-10.292-10.26-13.524.669-19.349 15.497-8.26 37.026-8.26 52.523 0 11.088 5.91 11.219 9.65.687 19.606l-6.949 6.57v21.172l5.58 5.466c6.662 6.527 9.42 11.472 9.42 16.891 0 4.807-3.471 9.244-11.027 14.092l-4.973 3.191.056 12.646.056 12.646 5.53 4.366c6.978 5.51 9.598 9.596 8.744 13.634-2.126 10.054-12.81 13.33-22.614 6.933-5.63-3.673-14.648-3.444-22.272.567-6.212 3.268-10.262 3.677-15.185 1.536zm35.685-32.561v-22.025l-2.565-.975c-1.41-.536-4.531-.975-6.935-.975-2.403 0-5.524.439-6.935.975l-2.565.975v44.05h19v-22.025zm-3.767-30.374c5.74.557 6.826.408 7.371-1.011 1.784-4.65-8.493-8.656-17.407-6.786-11.524 2.417-12.82 10.19-1.338 8.02 2.553-.482 7.671-.583 11.374-.223zm7.584-12.41c.506-3.43-5.019-6.183-12.417-6.188-7.255 0-12.051 1.477-13.49 4.166-1.966 3.674.101 4.336 13.255 4.247 11.81-.08 12.349-.174 12.652-2.224zm-2.801-28.358c.402-13.518.896-18.148 2.243-21.035 5.09-10.905-12.042-18.742-22.23-10.17-2.376 2-3.021 3.338-2.993 6.21.02 2.014.678 4.787 1.464 6.162 1.077 1.883 1.438 6.593 1.465 19.083.02 9.121.223 16.771.451 17 .23.23 4.617.342 9.75.25l9.334-.167.516-17.333zm136.31 102.708c-3.843-1.672-6.212-5.064-7.021-10.054-.586-3.606-.362-3.952 7.045-10.94l7.65-7.216v-24.28l-2.75-1.425c-5.358-2.777-12.162-9.65-13.172-13.306-1.715-6.211 3.2-15.48 11.608-21.894l3.314-2.528v-21.503l-6.948-6.569c-6.63-6.267-8.906-10.158-7.731-13.218.972-2.535 7.6-6.827 14.443-9.353 16.028-5.917 37.382-3.621 50.486 5.427 3.147 2.173 3.75 3.163 3.75 6.152 0 3.094-.917 4.454-7 10.37l-7 6.808v21.875l5.465 5.168c12.68 11.992 12.541 21.634-.427 29.731l-5.947 3.714-.045 13.135c-.044 12.688.034 13.187 2.292 14.667 1.286.842 4.436 3.63 7 6.194 3.97 3.97 4.662 5.246 4.662 8.597 0 3.088-.737 4.74-3.425 7.671-3.161 3.448-3.84 3.732-8.82 3.686-3.995-.037-6.59-.75-10.003-2.75-3.773-2.211-5.829-2.7-11.351-2.7-4.77 0-7.26.467-8.506 1.595-2.205 1.996-8.59 4.315-11.895 4.322-1.375 0-3.928-.617-5.674-1.376zm35.674-32.566v-22.025l-2.565-.975c-1.41-.536-4.531-.975-6.935-.975-2.403 0-5.524.439-6.935.975l-2.565.975v44.05h19v-22.025zm3.5-32.475c0-3.42-7.836-6.742-14.587-6.182-6.627.549-11.913 3.007-11.913 5.54 0 .995.229 2.037.508 2.316.279.279 6.241.466 13.25.417 12.045-.086 12.742-.2 12.742-2.091zm-17.636-8.474a28.098 28.098 0 0 1 10.338.012c4.169.79 5.487.701 6.637-.449 5.679-5.678-11.952-10.624-21.412-6.006-4.076 1.99-5.611 5.05-3.275 6.531 1.696 1.075 1.567 1.077 7.712-.089zm16.382-49.526c7.459-12.845-13.646-21.977-23.078-9.987-2.68 3.409-2.708 5.008-.168 9.748 1.768 3.299 2 5.642 2 20.198v16.466l9.25.287 9.25.288.502-17c.404-13.7.84-17.583 2.244-20zM154.132 299.96c-4.025-2.53-5.314-4.943-5.314-9.95 0-3.634.596-4.524 7-10.453l7-6.48v-25.036l-4.333-2.54c-2.384-1.397-5.984-4.366-8-6.598-3.025-3.348-3.667-4.81-3.667-8.36 0-5.225 3.58-11.272 10.338-17.463l4.662-4.27V186.99l-5.927-5.156c-6.29-5.471-9.58-10.808-8.589-13.931.824-2.597 8.67-7.426 16.516-10.165 5.323-1.858 8.583-2.265 18-2.247 13.085.025 20.505 1.91 29.007 7.365 8.314 5.335 7.647 9.648-2.912 18.832l-6.095 5.301V208.811l4.662 4.27c6.759 6.191 10.338 12.238 10.338 17.464 0 3.548-.641 5.011-3.666 8.36-2.016 2.231-5.616 5.2-8 6.597l-4.334 2.54v25.595l4.918 3.75c6.752 5.149 9.424 9.006 9.26 13.367-.382 10.148-11.133 14.136-21.832 8.098-7.283-4.11-15.52-4.237-21.427-.328-5.444 3.603-13.156 4.232-17.605 1.437zm36.456-31.54c.149-12.06-.094-22.294-.54-22.74-1.515-1.514-9.734-2.04-13.99-.894l-4.24 1.142v21.795c0 11.987.317 22.11.703 22.497.386.387 4.549.574 9.25.417l8.547-.286.27-21.93zM176.805 237.9c2.52-.486 6.81-.487 9.789 0 6.345 1.033 8.435.416 8.027-2.371-.482-3.302-6.004-5.874-12.609-5.874-9.52 0-16.294 3.964-13.183 7.713 1.406 1.694 1.823 1.722 7.976.535zm17.513-12.967c0-5.28-12.754-7.963-21.402-4.503-4.02 1.609-5.43 3.392-4.533 5.73.379.987 3.604 1.283 13.218 1.211 12.645-.094 12.717-.108 12.717-2.438zm-2.5-27.352c0-13.707.295-17.248 1.599-19.238.879-1.341 1.644-4.082 1.701-6.09.273-9.607-16.149-13.642-23.915-5.876-2.743 2.743-3.115 7.573-.885 11.476 1.077 1.883 1.438 6.593 1.465 19.083.02 9.121.225 16.771.457 17 .232.23 4.732.423 10 .43l9.578.014v-16.798zM66.016 214.18c-5.746-2.832-8.172-10.665-4.865-15.712.898-1.371 4.091-4.433 7.095-6.804l5.46-4.311.057-12.646.055-12.646-4.972-3.19c-14.287-9.168-14.75-18.108-1.607-30.984l5.58-5.466V101.4l-6.94-7.024c-8.553-8.658-9.477-11.398-5.193-15.4 9.279-8.667 30.717-12.605 46.488-8.539 7.523 1.94 17.348 7.035 19.295 10.005 2.263 3.454.782 6.536-6.72 13.98l-6.93 6.877v21.122l5.579 5.466c6.648 6.513 9.42 11.472 9.42 16.85 0 4.813-2.63 8.24-10.467 13.638l-5.533 3.81v12.834c0 7.059.378 12.834.84 12.834.461 0 3.611 2.597 7 5.772 5.441 5.098 6.16 6.213 6.16 9.55 0 2.077-.655 5.044-1.456 6.593-1.504 2.91-6.877 6.085-10.296 6.085-2.806 0-8.32-2.009-11.402-4.153-4.429-3.082-14.31-2.548-21.346 1.153-6.4 3.366-10.45 3.718-15.302 1.327zm35.802-32.292c0-20.693-.112-22.025-1.934-23-2.444-1.308-11.123-1.344-14.5-.06l-2.566.975v44.05h19v-21.965zm3.5-32.431c0-2.848-4.416-5.57-10.133-6.247-8.765-1.038-18.434 3.488-15.97 7.476.29.468 6.281.808 13.315.755 11.835-.09 12.788-.237 12.788-1.984zm-17.636-8.578c3.272-.62 6.948-.63 10.127-.028 2.745.52 5.693.676 6.553.346 2.535-.973 1.233-4.582-2.421-6.71-8.347-4.862-26.926.077-22.112 5.878 1.462 1.762 1.319 1.752 7.853.513zm16.456-48.86c2.832-5.192 2.488-8.82-1.185-12.493-2.904-2.904-3.717-3.173-9.58-3.173-7.096 0-10.979 1.986-13.355 6.831-1.126 2.297-1.026 3.273.75 7.287 1.794 4.057 2.05 6.676 2.05 20.97v16.334l8.557-.071c4.706-.04 8.869.242 9.25.625.381.383.918-6.88 1.193-16.14.408-13.733.836-17.45 2.32-20.17zm135.006 121.375c-3.838-1.67-6.211-5.063-7.018-10.032-.577-3.555-.317-3.976 6.546-10.571l7.146-6.869-.002-12.785-.002-12.784-4.446-2.81c-5.356-3.383-10.289-8.801-11.155-12.252-1.106-4.406 2.396-11.266 9.25-18.12l6.355-6.355v-20.568l-6.948-6.569c-6.995-6.612-9.205-10.727-7.374-13.731 1.692-2.775 10.362-8.047 16.198-9.85 4.011-1.238 9.066-1.738 17.624-1.74 13.606 0 19.65 1.418 28.5 6.711 4.964 2.97 5.531 3.663 5.816 7.117.295 3.585-.132 4.256-6.75 10.604l-7.066 6.777v21.872l6.063 6.235c12.209 12.554 11.81 20.874-1.4 29.179l-5.567 3.5-.048 13.02-.048 13.02 4.957 3.926c7.414 5.872 9.383 8.964 8.744 13.728-.625 4.662-2.917 7.539-7.577 9.51-4.443 1.88-9.719.938-15.58-2.779-6.116-3.879-14.072-4.116-18.86-.563-6.079 4.51-11.863 5.569-17.358 3.179zm35.146-32.229c.853-25.129 1.146-24.312-8.728-24.312-10.243 0-9.744-1.233-9.744 24.035v21.965h17.736l.736-21.688zm4.298-32.12c1.271-3.815-8.491-7.913-16.301-6.843-5.851.802-10.469 3.232-10.469 5.51 0 .994.212 2.019.47 2.277s6.183.445 13.166.416c9.532-.04 12.806-.378 13.134-1.36zm-15.77-9.72c1.925-.328 5.688-.106 8.363.495 3.608.81 5.22.794 6.25-.06 5.345-4.436-6.817-10.101-16.999-7.918-2.768.594-5.838 1.809-6.823 2.7-2.07 1.874-2.36 4.91-.54 5.66 1.208.497 2.22.406 9.75-.877zm7.296-12.61l4.704.88v-16.411c0-14.437.24-16.882 2-20.331 2.405-4.714 2.531-7.798.44-10.783-4.738-6.764-16.962-7.073-22.978-.581-2.985 3.22-3.09 5.708-.462 10.864 1.763 3.458 2 5.897 2 20.575v16.652l4.796-.872c2.738-.498 6.813-.494 9.5.01z" fill="#cb5258"/><path d="M58.318 445.331c-27.829-6.12-48.705-25.977-56.223-53.48-1.668-6.102-1.777-16.39-1.777-168.5v-162l2.304-8.04C6.176 40.9 11.77 31.67 21.735 21.769c6.946-6.9 10.433-9.48 17.799-13.167C56.97-.127 48.799.352 180.318.352c109.553 0 116.39.102 123 1.845 21.706 5.72 39.647 20.278 48.972 39.736 6.996 14.597 6.618 3.553 6.308 184.419l-.28 163-2.755 8.13c-6.485 19.132-23.344 36.732-42.357 44.219-13.265 5.223-11.538 5.158-134.595 5.05-90.648-.08-115.534-.373-120.293-1.42zm244.5-4.805c23.266-6.233 41.559-23.414 49.162-46.174l2.338-7 .274-159.42c.31-180.136.71-169.784-7.175-185.58-7.224-14.473-17.895-24.703-32.752-31.398-14.011-6.313-9.369-6.104-135.044-6.085-128.591.02-121.607-.366-137.78 7.618-18.044 8.907-31.652 26.18-35.56 45.135-1.301 6.318-1.463 28.482-1.23 169l.267 161.73 2.7 7.62c4.838 13.657 11.99 23.784 22.294 31.569 10.465 7.906 21.916 12.667 34.506 14.347 3.025.404 56.35.654 118.5.556 103.907-.163 113.523-.317 119.5-1.918zM67.185 377.934c-4.306-2.626-6.367-5.88-6.367-10.054 0-3.069.91-4.39 7-10.163l7-6.635-.048-12.865-.048-12.865-5.58-3.5c-7.41-4.649-10.768-9.653-10.053-14.982.611-4.555 6.169-12.726 11.338-16.669l3.391-2.587v-23.061l-6.43-5.933c-7.79-7.186-9.312-10.555-6.428-14.221 7.083-9.005 30.582-14.078 46.398-10.017 7.954 2.042 15.384 5.737 18.882 9.388 2.632 2.747 2.762 3.225 1.621 5.978-.682 1.646-4.12 5.65-7.641 8.899l-6.402 5.906V287.1l4.41 3.88c2.424 2.135 5.8 5.981 7.5 8.548 5.675 8.57 3.616 15.256-6.753 21.932l-6.045 3.892-.056 12.862-.056 12.863 6.879 6.369c3.783 3.502 7.08 7.164 7.327 8.137 1.382 5.447-4.279 12.92-10.56 13.939-2.876.467-5.036-.08-10.028-2.538-5.31-2.614-7.532-3.132-13.431-3.132-4.078 0-7.357.467-7.751 1.104-1.09 1.762-8.657 4.85-11.936 4.87-1.65.01-4.41-.841-6.133-1.892zm35.633-32.466c0-22.367-.002-22.383-2.25-22.986-3.472-.93-11.333-.74-14.185.345l-2.565.975v44.05h19v-22.384zm-5.25-29.874c9.232.241 9.25.237 9.25-2.225 0-3.801-4.968-5.985-13.5-5.933-8.495.052-13.5 2.227-13.5 5.868 0 2.682 2.093 3.608 6 2.657 1.375-.335 6.663-.5 11.75-.367zm9.053-12.92c.245-2.052-.364-2.86-3.15-4.183-6.72-3.189-21.663-1.38-23.274 2.816-1.407 3.667.002 4.093 13.253 4.001l12.868-.089.303-2.544zm-2.802-26.86c0-14.566.238-17.008 2-20.462 2.41-4.727 2.454-5.72.433-9.629-1.78-3.443-6.695-5.871-11.881-5.871-4.537 0-11.34 2.732-12.582 5.054-1.395 2.608-1.133 8.038.53 10.946 1.08 1.89 1.437 6.65 1.465 19.5l.037 17H103.82l-.001-16.539zm137.418 102.069c-2.727-1.103-7.256-6.535-8.034-9.635-.836-3.332 3.002-8.95 9.5-13.906l5.115-3.901v-25.482l-5.547-3.682c-13.876-9.21-14.022-17.704-.53-30.888l5.077-4.962V263.932l-7.034-6.753c-7.65-7.345-9-10.1-6.68-13.64 2.141-3.268 12.232-8.369 20.317-10.269 19.107-4.49 46.22 3.212 47.214 13.413.28 2.885-.47 3.995-6.75 9.971l-7.067 6.725v22.689l5.481 5.394c12.84 12.637 12.218 21.06-2.229 30.202l-4.248 2.688-.002 12.865-.002 12.865 7 6.635c5.641 5.348 7 7.218 6.996 9.635-.008 6.155-6.516 12.5-12.823 12.5-1.04 0-4.542-1.345-7.782-2.988-8.28-4.198-16.502-4.198-24.782 0-5.96 3.023-9.405 3.55-13.19 2.019zm34.581-33.415c0-25.533.783-23.589-9.5-23.589s-9.5-1.944-9.5 23.59v22.383h19v-22.384zm3.5-32.008c0-1.04-1.27-2.84-2.823-4-2.265-1.692-4.241-2.105-10-2.09-8.661.022-13.043 1.844-13.48 5.603l-.303 2.607 13.303-.114c12.344-.106 13.303-.25 13.303-2.006zm-10.5-8.682c9.52.754 10.436.648 10.813-1.25.96-4.83-8.614-8.42-17.802-6.678-6.775 1.285-9.01 2.617-9.01 5.37 0 3.402.943 3.836 6.478 2.98 2.762-.428 7.046-.618 9.521-.422zm7-28.652c0-14.456.218-16.583 1.997-19.5 2.861-4.694 2.62-9.884-.609-13.114-6.336-6.335-21.07-4.06-23.827 3.68-.717 2.013-.421 3.884 1.25 7.917 1.94 4.681 2.19 7.097 2.19 21.262v15.98h19v-16.225zm-121.127 25.042c-3.515-2.181-5.873-6.385-5.873-10.47 0-2.847 1.039-4.318 7-9.913l7-6.57v-24.97l-6.062-4.275c-12.963-9.142-13.103-16.885-.527-29.181l5.56-5.437.015-11.348.014-11.348-6.092-5.63c-3.35-3.096-6.768-6.938-7.595-8.536-1.375-2.66-1.343-3.12.375-5.421 4.434-5.94 21.551-12.217 33.312-12.217 11.486 0 28.6 6.133 33.11 11.866 2.729 3.47 1.756 5.592-6.199 13.527l-6.91 6.893v21.874l5.855 5.855c12.579 12.58 12.188 20.624-1.443 29.674l-5.413 3.594v25.474l5.629 4.808c9.171 7.836 10.313 11.07 6.452 18.285-3.058 5.713-12.82 6.574-20.077 1.77-3.26-2.156-5.119-2.62-10.497-2.62-5.415 0-7.45.515-11.853 3-6.036 3.407-11.657 3.875-15.78 1.316zm36.127-31.757c0-13.517-.388-22.681-.976-23.045-2.188-1.352-10.95-1.693-14.386-.56l-3.638 1.2v44.846h19V268.41zm-7.5-30.63c10.376.684 10.94.622 11.313-1.254.969-4.872-8.612-8.42-17.955-6.648-5.596 1.061-8.858 3.256-8.858 5.961 0 2.736 1.185 3.176 6.48 2.406 2.76-.401 6.82-.61 9.02-.466zm11.295-12.903c-.411-3.527-5.795-6.038-12.795-5.968-9.09.09-15.245 3.254-13.776 7.082.428 1.116 3.292 1.411 13.704 1.411h13.162l-.295-2.525zm-2.795-26.507c0-13.957.266-16.622 2.1-21.045 1.941-4.685 1.986-5.333.601-8.648-2.967-7.101-15.883-8.91-22.696-3.177-2.465 2.075-3.005 3.286-3.005 6.749 0 2.32.661 5.093 1.469 6.16 1.154 1.526 1.475 5.58 1.5 18.942l.031 17h20v-15.98zM66.185 213.934c-4.35-2.653-6.367-5.888-6.367-10.211 0-3.277.773-4.4 7-10.165l7-6.48-.048-12.864-.048-12.862-5.567-3.5c-13.612-8.558-13.553-18.25.189-30.917l4.474-4.124v-22.282l-6.102-5.589c-6.709-6.143-9.316-10.195-8.406-13.062.793-2.5 8.772-7.52 16.089-10.124 8.326-2.962 22.901-3.657 31.42-1.498 8.413 2.132 15.83 5.765 19.42 9.514 2.66 2.775 2.772 3.203 1.585 6.068-.702 1.696-4.14 5.597-7.641 8.67l-6.365 5.588V123.1l4.41 3.88c9.591 8.444 12.807 16.99 8.722 23.186-1.88 2.852-11.581 10.686-13.232 10.686-.495 0-.9 5.9-.9 13.112v13.113l7 6.481c6.284 5.818 7 6.867 7 10.253 0 4.294-2.671 8.302-7.038 10.56-4.207 2.176-7.083 1.837-13.61-1.603-7.308-3.851-17.443-4.383-22.073-1.157-3.257 2.268-8.698 4.242-11.678 4.237-1.155 0-3.51-.863-5.234-1.914zm35.633-32.466c0-22.367-.002-22.383-2.25-22.986-3.472-.93-11.333-.74-14.185.345l-2.565.975v44.05h19v-22.384zm4-32.338c0-1.885-.988-2.828-4.672-4.458-8.277-3.66-22.328-.784-22.328 4.57 0 2.34.005 2.34 13.5 2.31l13.5-.031v-2.391zm-11-8.388c10.757.753 10.478.805 10.803-2.001.426-3.665-5.166-6.258-13.356-6.192-8.936.072-14.71 3.566-13.05 7.896.51 1.327 1.49 1.459 5.858.788 2.885-.444 7.27-.664 9.745-.491zm-2.706-13.029c3.018-.036 6.437.236 7.597.604 2.087.662 2.11.497 2.11-15.675 0-12.038.353-16.865 1.343-18.318 6.517-9.567 1.748-18.472-9.893-18.472-9.733 0-15.666 5.677-13.387 12.811.648 2.029 1.574 4.116 2.057 4.639.484.522.88 8.765.88 18.317 0 16.617.082 17.341 1.902 16.764 1.047-.333 4.373-.634 7.39-.67zm149.104 86.482c-3.4-.717-8.406-6.622-9.067-10.693-.572-3.527-.301-3.964 6.536-10.522l7.133-6.843V173.03c0-12.58-.09-13.155-2.25-14.275-4.805-2.494-11.058-8.396-12.468-11.77-2.29-5.484-.435-9.913 7.776-18.557l6.942-7.309v-21.026l-7.5-7.452c-9.293-9.233-9.642-11.215-2.841-16.15 8.278-6.008 16.092-8.14 29.841-8.14 13.576 0 21.978 2.167 29.478 7.6 7.16 5.186 6.757 7.962-2.458 16.958l-6.52 6.364v22.795l5.481 5.394c5.69 5.6 9.52 11.795 9.52 15.4 0 4.64-5.395 11.156-12.91 15.595l-3.09 1.826v25.8l7 6.634c5.735 5.437 7 7.196 7 9.737 0 4.367-3.826 9.558-8.3 11.26-4.462 1.7-9.2.645-15.101-3.36-5.48-3.718-13.774-3.537-20.283.442-4.84 2.96-10.014 4.223-13.92 3.399zm33.082-33.403c.404-12.133.46-22.334.126-22.668-.99-.99-11.226-1.566-15.06-.847l-3.546.665v44.91h17.746l.734-22.06zm4.02-32.332c0-1.04-1.272-2.84-2.827-4-2.303-1.718-4.255-2.108-10.544-2.108-8.84 0-13.129 1.923-13.129 5.887v2.34l13.25-.113c12.292-.106 13.25-.251 13.25-2.006zm-17.638-8.663c2.91-.67 6.156-.674 9.754-.01 6.122 1.132 8.384.622 8.384-1.889 0-4.117-9.037-7.71-16.362-6.505-7.125 1.173-10.638 3.068-10.638 5.74 0 4.042 1.25 4.418 8.862 2.663zm6.442-13.48c.658.199 2.659.614 4.446.923l3.25.562V111.35c0-14.68.215-16.803 1.997-19.725 5.151-8.45.064-16.774-10.251-16.774-8.482 0-14.746 4.146-14.746 9.762 0 1.275.9 4.082 2 6.238 1.76 3.448 2 5.894 2 20.31v16.391l5.054-.799c2.779-.44 5.591-.636 6.25-.437z" fill="#7b7b7b"/><path d="M63.946 445.79c-24.114-3.194-45.194-18.113-55.727-39.438C.375 390.469.855 402.323.836 224.06.816 47.75.494 56.872 7.256 42.352c8.646-18.567 24.619-32.119 45.562-38.658l7.5-2.342h240l8 2.816c12.67 4.46 20.152 9.157 29.618 18.593 7.305 7.283 9.308 10.037 13.153 18.09 2.495 5.226 5.142 11.976 5.883 15 1.1 4.496 1.346 35.183 1.346 168 0 154.469-.09 162.822-1.83 169-7.118 25.267-25.127 43.101-51.67 51.168l-7.5 2.28-113.5.167c-62.425.092-116.367-.212-119.872-.676zm243.372-6.163c11.253-3.832 19.84-9.144 27.985-17.309 7.974-7.995 12.471-15.05 16.336-25.632l2.68-7.334v-165.5c0-159.14-.073-165.712-1.874-171-3.928-11.536-8.737-19.21-17.577-28.05-9.642-9.641-17.676-14.407-30.595-18.147l-7.955-2.303h-116.5c-130.62 0-121.154-.512-137.5 7.427C23.906 20.722 11.65 35.637 6.102 55.852c-1.677 6.112-1.784 16.123-1.784 168 0 153.728.089 161.812 1.838 167.983 5.515 19.454 18.371 34.937 36.162 43.55 15.931 7.714 8.802 7.35 140 7.147l117-.18 8-2.725zM67.185 377.934c-4.307-2.626-6.367-5.88-6.367-10.054 0-3.069.91-4.39 7-10.163l7-6.635-.048-12.865-.048-12.865-5.58-3.5c-7.41-4.649-10.768-9.653-10.053-14.982.611-4.555 6.169-12.726 11.338-16.669l3.391-2.587v-23.061l-6.43-5.933c-7.79-7.186-9.312-10.555-6.428-14.221 7.083-9.005 30.582-14.078 46.398-10.017 7.954 2.042 15.384 5.737 18.882 9.388 2.632 2.747 2.762 3.225 1.621 5.978-.682 1.646-4.12 5.65-7.641 8.899l-6.402 5.906V287.1l4.41 3.88c2.424 2.135 5.8 5.981 7.5 8.548 5.675 8.57 3.616 15.256-6.753 21.932l-6.045 3.892-.056 12.862-.056 12.863 6.879 6.369c3.783 3.502 7.08 7.164 7.327 8.137 1.382 5.447-4.279 12.92-10.56 13.939-2.876.467-5.036-.08-10.028-2.538-5.31-2.614-7.532-3.132-13.431-3.132-4.078 0-7.357.467-7.751 1.104-1.09 1.762-8.657 4.85-11.936 4.87-1.65.01-4.41-.841-6.133-1.892zm35.633-32.466c0-22.367-.002-22.383-2.25-22.986-3.472-.93-11.333-.74-14.185.345l-2.565.975v44.05h19v-22.384zm-5.25-29.874c9.232.241 9.25.237 9.25-2.225 0-3.801-4.968-5.985-13.5-5.933-8.495.052-13.5 2.227-13.5 5.868 0 2.682 2.093 3.608 6 2.657 1.375-.335 6.663-.5 11.75-.367zm9.053-12.92c.245-2.052-.364-2.86-3.15-4.183-6.72-3.189-21.663-1.38-23.274 2.816-1.407 3.667.002 4.093 13.253 4.001l12.868-.089.303-2.544zm-2.802-26.86c0-14.566.238-17.008 2-20.462 2.41-4.727 2.454-5.72.433-9.629-1.78-3.443-6.695-5.871-11.881-5.871-4.537 0-11.34 2.732-12.582 5.054-1.395 2.608-1.133 8.038.53 10.946 1.08 1.89 1.437 6.65 1.465 19.5l.037 17H103.82l-.001-16.539zm137.418 102.069c-2.727-1.103-7.256-6.535-8.034-9.635-.836-3.332 3.002-8.95 9.5-13.906l5.115-3.901v-25.482l-5.547-3.682c-13.876-9.21-14.022-17.704-.53-30.888l5.077-4.962V263.932l-7.034-6.753c-7.65-7.345-9-10.1-6.68-13.64 2.141-3.268 12.232-8.369 20.317-10.269 19.107-4.49 46.22 3.212 47.214 13.413.28 2.885-.47 3.995-6.75 9.971l-7.067 6.725v22.689l5.481 5.394c12.84 12.637 12.218 21.06-2.229 30.202l-4.248 2.688-.002 12.865-.002 12.865 7 6.635c5.641 5.348 7 7.218 6.996 9.635-.008 6.155-6.516 12.5-12.823 12.5-1.04 0-4.542-1.345-7.782-2.988-8.28-4.198-16.502-4.198-24.782 0-5.96 3.023-9.405 3.55-13.19 2.019zm34.581-33.415c0-25.533.783-23.589-9.5-23.589s-9.5-1.944-9.5 23.59v22.383h19v-22.384zm3.5-32.008c0-1.04-1.27-2.84-2.823-4-2.265-1.692-4.241-2.105-10-2.09-8.661.022-13.043 1.844-13.48 5.603l-.303 2.607 13.303-.114c12.344-.106 13.303-.25 13.303-2.006zm-10.5-8.682c9.52.754 10.436.648 10.813-1.25.96-4.83-8.614-8.42-17.802-6.678-6.775 1.285-9.01 2.617-9.01 5.37 0 3.402.943 3.836 6.478 2.98 2.762-.428 7.046-.618 9.521-.422zm7-28.652c0-14.456.218-16.583 1.997-19.5 2.861-4.694 2.62-9.884-.609-13.114-6.336-6.335-21.07-4.06-23.827 3.68-.717 2.013-.421 3.884 1.25 7.917 1.94 4.681 2.19 7.097 2.19 21.262v15.98h19v-16.225zm-121.127 25.042c-3.515-2.181-5.873-6.385-5.873-10.47 0-2.847 1.039-4.318 7-9.913l7-6.57v-24.97l-6.062-4.275c-12.963-9.142-13.103-16.885-.527-29.181l5.56-5.437.015-11.348.014-11.348-6.092-5.63c-3.35-3.096-6.768-6.938-7.595-8.536-1.375-2.66-1.343-3.12.375-5.421 4.434-5.94 21.551-12.217 33.312-12.217 11.486 0 28.6 6.133 33.11 11.866 2.729 3.47 1.756 5.592-6.199 13.527l-6.91 6.893v21.874l5.855 5.855c12.579 12.58 12.188 20.624-1.443 29.674l-5.413 3.594v25.474l5.629 4.808c9.171 7.836 10.313 11.07 6.452 18.285-3.058 5.713-12.82 6.574-20.077 1.77-3.26-2.156-5.119-2.62-10.497-2.62-5.415 0-7.45.515-11.853 3-6.036 3.407-11.657 3.875-15.78 1.316zm36.127-31.757c0-13.517-.388-22.681-.976-23.045-2.188-1.352-10.95-1.693-14.386-.56l-3.638 1.2v44.846h19V268.41zm-7.5-30.63c10.376.684 10.94.622 11.313-1.254.969-4.872-8.612-8.42-17.955-6.648-5.596 1.061-8.858 3.256-8.858 5.961 0 2.736 1.185 3.176 6.48 2.406 2.76-.401 6.82-.61 9.02-.466zm11.295-12.903c-.411-3.527-5.795-6.038-12.795-5.968-9.09.09-15.245 3.254-13.776 7.082.428 1.116 3.292 1.411 13.704 1.411h13.162l-.295-2.525zm-2.795-26.507c0-13.957.266-16.622 2.1-21.045 1.941-4.685 1.986-5.333.601-8.648-2.967-7.101-15.883-8.91-22.696-3.177-2.465 2.075-3.005 3.286-3.005 6.749 0 2.32.661 5.093 1.469 6.16 1.154 1.526 1.475 5.58 1.5 18.942l.031 17h20v-15.98zM66.185 213.934c-4.35-2.653-6.367-5.888-6.367-10.211 0-3.277.773-4.4 7-10.165l7-6.48-.048-12.864-.048-12.862-5.567-3.5c-13.612-8.558-13.553-18.25.189-30.917l4.474-4.124v-22.282l-6.102-5.589c-6.709-6.143-9.316-10.195-8.406-13.062.793-2.5 8.772-7.52 16.089-10.124 8.326-2.962 22.901-3.657 31.42-1.498 8.413 2.132 15.83 5.765 19.42 9.514 2.66 2.775 2.772 3.203 1.585 6.068-.702 1.696-4.14 5.597-7.641 8.67l-6.365 5.588V123.1l4.41 3.88c9.591 8.444 12.807 16.99 8.722 23.186-1.88 2.852-11.581 10.686-13.232 10.686-.495 0-.9 5.9-.9 13.112v13.113l7 6.481c6.284 5.818 7 6.867 7 10.253 0 4.294-2.671 8.302-7.038 10.56-4.207 2.176-7.083 1.837-13.61-1.603-7.308-3.851-17.443-4.383-22.073-1.157-3.257 2.268-8.698 4.242-11.678 4.237-1.155 0-3.51-.863-5.234-1.914zm35.633-32.466c0-22.367-.002-22.383-2.25-22.986-3.472-.93-11.333-.74-14.185.345l-2.565.975v44.05h19v-22.384zm4-32.338c0-1.885-.988-2.828-4.672-4.458-8.277-3.66-22.328-.784-22.328 4.57 0 2.34.005 2.34 13.5 2.31l13.5-.031v-2.391zm-11-8.388c10.757.753 10.478.805 10.803-2.001.426-3.665-5.167-6.258-13.356-6.192-8.936.072-14.71 3.566-13.05 7.896.51 1.327 1.49 1.459 5.858.788 2.885-.444 7.27-.664 9.745-.491zm-2.706-13.029c3.018-.036 6.437.236 7.597.604 2.087.662 2.11.497 2.11-15.675 0-12.038.353-16.865 1.343-18.318 6.517-9.567 1.748-18.472-9.893-18.472-9.733 0-15.666 5.677-13.387 12.811.648 2.029 1.574 4.116 2.057 4.639.484.522.88 8.765.88 18.317 0 16.617.082 17.341 1.902 16.764 1.047-.333 4.373-.634 7.39-.67zm149.104 86.482c-3.4-.717-8.406-6.622-9.067-10.693-.572-3.527-.301-3.964 6.536-10.522l7.133-6.843V173.03c0-12.58-.09-13.155-2.25-14.275-4.805-2.494-11.058-8.396-12.468-11.77-2.29-5.484-.435-9.913 7.776-18.557l6.942-7.309v-21.026l-7.5-7.452c-9.293-9.233-9.642-11.215-2.841-16.15 8.278-6.008 16.092-8.14 29.841-8.14 13.576 0 21.978 2.167 29.478 7.6 7.16 5.186 6.757 7.962-2.458 16.958l-6.52 6.364v22.795l5.481 5.394c5.69 5.6 9.52 11.795 9.52 15.4 0 4.64-5.395 11.156-12.91 15.595l-3.09 1.826v25.8l7 6.634c5.735 5.437 7 7.196 7 9.737 0 4.367-3.826 9.558-8.3 11.26-4.462 1.7-9.2.645-15.101-3.36-5.48-3.718-13.774-3.537-20.283.442-4.84 2.96-10.014 4.223-13.92 3.399zm33.082-33.403c.404-12.133.46-22.334.126-22.668-.99-.99-11.226-1.566-15.06-.847l-3.546.665v44.91h17.746l.734-22.06zm4.02-32.332c0-1.04-1.272-2.84-2.827-4-2.303-1.718-4.255-2.108-10.544-2.108-8.84 0-13.129 1.923-13.129 5.887v2.34l13.25-.113c12.292-.106 13.25-.251 13.25-2.006zm-17.638-8.663c2.91-.67 6.156-.674 9.754-.01 6.122 1.132 8.384.622 8.384-1.889 0-4.117-9.037-7.71-16.362-6.505-7.125 1.173-10.638 3.068-10.638 5.74 0 4.042 1.25 4.418 8.862 2.663zm6.442-13.48c.658.199 2.659.614 4.446.923l3.25.562V111.35c0-14.68.215-16.803 1.997-19.725 5.151-8.45.064-16.774-10.251-16.774-8.482 0-14.746 4.146-14.746 9.762 0 1.275.9 4.082 2 6.238 1.76 3.448 2 5.894 2 20.31v16.391l5.054-.799c2.779-.44 5.591-.636 6.25-.437z" fill="#ba1920"/><path d="M63.946 445.79c-24.114-3.194-45.194-18.113-55.727-39.438C.375 390.469.855 402.323.836 224.06.816 47.75.494 56.872 7.256 42.352c8.646-18.567 24.619-32.119 45.562-38.658l7.5-2.342h240l8 2.816c12.67 4.46 20.152 9.157 29.618 18.593 7.305 7.283 9.308 10.037 13.153 18.09 2.495 5.226 5.142 11.976 5.883 15 1.1 4.496 1.346 35.183 1.346 168 0 154.469-.09 162.822-1.83 169-7.118 25.267-25.127 43.101-51.67 51.168l-7.5 2.28-113.5.167c-62.425.092-116.367-.212-119.872-.676zm243.372-6.163c11.253-3.832 19.84-9.144 27.985-17.309 7.974-7.995 12.471-15.05 16.336-25.632l2.68-7.334v-165.5c0-159.14-.073-165.712-1.874-171-3.928-11.536-8.737-19.21-17.577-28.05-9.642-9.641-17.676-14.407-30.595-18.147l-7.955-2.303h-116.5c-130.62 0-121.154-.512-137.5 7.427C23.906 20.722 11.65 35.637 6.102 55.852c-1.677 6.112-1.784 16.123-1.784 168 0 153.728.089 161.812 1.838 167.983 5.515 19.454 18.371 34.937 36.162 43.55 15.931 7.714 8.802 7.35 140 7.147l117-.18 8-2.725z"/></svg>