<svg xmlns="http://www.w3.org/2000/svg" width="358.777" height="446.756"><path d="M63.117 445.838c-27.504-3.65-51.3-22.831-59.938-48.315l-2.755-8.13-.28-163.5C-.17 41.73-.716 55.365 7.633 38.688 16.628 20.719 34.688 6.76 55.264 1.874 63.634-.114 66.218-.15 182.116.119l118.308.273 8.76 3.135c12.167 4.353 18.85 8.57 28.312 17.865 9.449 9.282 15.112 18.696 18.624 30.96l2.304 8.04v162.5c0 182.321.617 167.14-7.46 183.5-9.098 18.432-25.654 31.804-46.754 37.762l-7.786 2.2-113.5.16c-62.425.089-116.339-.216-119.807-.676zm243.307-7.261c24.07-8.47 41.08-27.045 45.988-50.213 2.209-10.426 2.22-320.42.012-330.972-3.851-18.409-18.328-36.856-35.5-45.235-17.087-8.339-6.886-7.765-138-7.765-109.528 0-116.89.11-123 1.817C31.334 13.081 12.73 31.384 6.14 55.187c-1.59 5.748-1.717 18.153-1.717 168.205v162l2.331 7.5c3.557 11.443 8.536 19.542 17.58 28.6 6.649 6.658 9.78 8.925 17.589 12.728 16.298 7.94 8.998 7.556 140 7.353l116.5-.18 8-2.816zm-248.628-50.31c-3.77-2.425-5.872-6.536-5.872-11.49 0-4.015.476-4.775 7-11.158l7-6.849-.047-13.189-.047-13.189-5.053-3.5c-13.98-9.683-14.399-20.044-1.344-33.203l5.49-5.535v-23.32l-6.288-6.22c-10.558-10.444-10.922-14.346-1.91-20.476 8.626-5.868 15.21-7.615 28.699-7.615 13.356 0 19.528 1.612 28.7 7.498 9.114 5.848 8.857 9.794-1.3 19.972l-6.9 6.913v23.073l5.492 5.626c13.05 13.365 12.635 23.603-1.346 33.287l-5.053 3.5-.046 13.19-.047 13.188 7 6.85c6.602 6.46 7 7.102 6.993 11.31-.017 11.663-11.543 16.804-22.332 9.962-4.012-2.544-5.723-3-11.263-3-5.551 0-7.061.405-10.063 2.694-4.502 3.434-13.404 4.291-17.462 1.681zm35.896-35.116l-.268-23.74-4.596-.84c-2.921-.533-6.11-.431-8.75.28l-4.154 1.118v46.923H93.96l-.268-23.74zm4.232-34.464c0-7.435-24.739-7.626-25.8-.199-.29 2.038.064 2.095 12.75 2.06 11.95-.034 13.05-.19 13.05-1.86zm-.188-11.548c.915-6.254-19.05-8.061-24.35-2.204-3.442 3.802-1.525 4.529 11.673 4.429 11.819-.09 12.378-.188 12.677-2.225zm-2.812-29.37c0-15.534.24-18.166 2.03-22.21 1.84-4.162 1.897-4.906.605-7.997-2.053-4.913-5.113-6.67-11.608-6.666-10.242.007-15.376 5.712-12.208 13.563 1.196 2.966 1.67 8.482 1.924 22.433l.337 18.5h18.92V277.77zm57.365 110.204c-2.019-1.23-3.756-3.537-4.88-6.478-2.31-6.05-1.205-8.635 7.107-16.616l6.408-6.153-.054-13.167-.054-13.167-5.962-4.251c-11.281-8.046-12.94-15.514-5.814-26.185 2.264-3.39 5.639-7.379 7.5-8.864l3.384-2.7v-23.45l-5.955-5.67c-5.828-5.548-9.045-10.485-9.045-13.88 0-2.307 5.353-7.138 11.182-10.092 15.77-7.992 40.61-6.605 53.041 2.96 8.42 6.48 8.097 10.201-1.742 20.04l-6.481 6.481v23.357l5.804 6.204c12.723 13.602 12.379 22.67-1.217 32.034l-5.587 3.849v26.46l7.125 7.126 7.125 7.125-.496 5.166c-.418 4.342-1.074 5.695-4.11 8.478-2.986 2.736-4.408 3.312-8.17 3.312-4.35 0-11.61-2.79-12.965-4.985-.345-.558-3.95-1.015-8.01-1.015s-7.663.457-8.008 1.015c-1.318 2.131-8.593 4.985-12.701 4.982-2.458-.002-5.63-.82-7.425-1.916zm36.635-34.534v-23.453l-3.75-1.041c-2.063-.573-4.425-1.041-5.25-1.041-.825 0-3.188.468-5.25 1.041l-3.75 1.041v46.906h18V353.44zm3.5-35.05c0-7.212-24.274-7.085-25.304.131-.297 2.082-.023 2.125 12.5 1.996 12.084-.124 12.804-.244 12.804-2.128zm.3-10.7c.457-2.372-4.372-5.61-9.52-6.382-5.221-.783-15.031 1.773-15.945 4.155-1.358 3.539.149 3.998 12.799 3.897 10.393-.082 12.412-.348 12.666-1.67zm-3.8-29.522c0-15.455.205-17.563 1.996-20.5 5.347-8.77.338-16.775-10.496-16.775-9.157 0-14.704 5.714-12.437 12.812.648 2.028 1.574 4.116 2.057 4.638.484.523.88 9.073.88 19v18.05h18v-17.225zm56.615 109.637c-1.46-1.148-3.321-3.376-4.135-4.95-3.247-6.28-1.138-11.7 7.417-19.069l5.102-4.393v-13.714c0-13-.111-13.775-2.144-14.863-3.427-1.834-10.88-9.071-12.432-12.071-3.187-6.164-.49-13.786 8.047-22.735l5.53-5.797v-23.668l-7.063-7.284c-6.51-6.714-7.039-7.578-6.75-11.042.264-3.171 1.077-4.334 5.206-7.448 16.202-12.219 45.927-11.418 61.464 1.656 5.466 4.599 4.032 9.295-5.781 18.935l-6.076 5.969v22.17l3.58 3.446c9.327 8.978 13.57 17.93 11.489 24.238-1.222 3.7-7.287 9.952-12.836 13.23l-3.233 1.91v25.909l6.963 6.76c3.83 3.717 7.264 7.956 7.631 9.42 1 3.982-1.224 9.99-4.815 13.011-2.803 2.36-3.847 2.63-8.731 2.264-3.779-.283-6.898-1.274-9.778-3.106-6.198-3.94-14.42-3.82-20.931.31-5.975 3.79-13.57 4.18-17.724.912zm36.153-34.617l-.268-23.706-4-.832c-2.494-.52-5.789-.404-8.75.305l-4.75 1.138v46.8h18.036l-.268-23.705zm4.64-33.918c.493-1.284-1.605-3.446-5.093-5.248-2.793-1.443-12.075-1.457-16.187-.023-3.138 1.094-5.684 4.187-4.724 5.74.832 1.346 25.479.902 26.005-.47zm.092-11.949c0-3.257-7.935-6.671-14.138-6.083-6.793.645-11.362 3.038-11.362 5.953 0 2.216.173 2.245 12.75 2.152 11.892-.087 12.75-.223 12.75-2.022zm-3.5-29.068c0-14.942.253-17.7 1.978-21.5 2.82-6.218 2.546-8.536-1.494-12.575-3.434-3.435-3.668-3.506-10.132-3.094-5.933.377-6.912.752-9.484 3.631-3.403 3.809-3.644 7.26-.868 12.44 1.778 3.318 2 5.643 2.001 20.985l.001 17.253H282.924v-17.14zM58.302 213.455c-3.715-1.617-6.061-4.707-7.437-9.796-1.336-4.94.201-7.831 8.001-15.053l6.058-5.608v-13.553c0-7.477-.408-13.553-.91-13.553-.501 0-3.226-1.83-6.056-4.067-12.212-9.653-12.23-18.654-.06-31.327l6.026-6.275V91.625l-6.898-7.262c-8.781-9.244-9.66-12.268-4.971-17.106 9.532-9.835 32.048-14.011 48.369-8.972 6.34 1.958 15.27 7.337 17.732 10.68 2.861 3.887 1.401 7.38-6.394 15.3l-6.838 6.948V114.212l5.375 5.635c9.348 9.8 11.842 17.897 7.637 24.794-1.09 1.786-4.664 5.161-7.943 7.5l-5.961 4.251-.054 13.244-.054 13.244 7 6.876c6.557 6.441 7 7.153 6.996 11.256-.005 5.634-2.715 10.044-7.595 12.36-3.29 1.561-4.453 1.654-8.196.653-2.399-.642-6.006-2.284-8.016-3.65-5.245-3.564-15.102-3.575-19.326-.021-2.788 2.346-8.647 4.566-11.863 4.494-.825-.019-2.905-.645-4.622-1.393zM92.924 177.5c0-20.409-.202-23.47-1.582-24-2.027-.777-11.236-.762-14.168.024l-2.25.603v46.766h18V177.5zm-11.5-33.133c2.2-.343 5.968-.175 8.373.373 2.405.548 5.016.75 5.803.447 2.445-.938.988-4.479-2.676-6.5-4.304-2.375-15.457-2.035-19.469.594-4.28 2.804-2.905 7.062 1.969 6.102 1.1-.217 3.8-.674 6-1.016zm15.5-12.533c0-3.953-8.804-7.475-15.864-6.346-6.532 1.044-11.952 5.256-9.684 7.524.249.25 6.099.453 13 .453 10.934 0 12.548-.21 12.548-1.63zm-4-29.23c0-14.816.235-17.251 2-20.71 2.19-4.293 2.573-9.06.97-12.056-3.79-7.081-19.7-6.237-23.572 1.251-1.24 2.4-1.301 3.59-.335 6.616.648 2.028 1.574 4.116 2.058 4.638.483.523.879 9.074.879 19.004v18.053l9-.004 8.998-.004.001-16.79zm60.415 110.914c-6.511-2.933-9.918-10.817-7.061-16.342.842-1.628 4.256-5.484 7.588-8.569l6.058-5.608v-26.651l-3.521-1.896c-1.937-1.043-5.537-4.051-8-6.685-4.15-4.436-4.48-5.18-4.48-10.135 0-6.259 3.186-12.077 10.505-19.19l4.496-4.37V91.544l-6.938-7.156c-7.539-7.774-9.201-11.421-6.966-15.281 3.577-6.178 21.659-13.235 33.814-13.197 11.668.036 24.52 4.266 31.947 10.516 5.673 4.773 3.957 10.535-5.813 19.517l-5.044 4.638v23.544l5.644 6.096c12.756 13.779 12.33 23.093-1.498 32.671l-5.053 3.5-.046 13.342-.047 13.342 6.432 6.215c3.538 3.418 6.737 7.43 7.11 8.914 1.071 4.268-.366 9.357-3.538 12.53-5.085 5.085-11.915 4.912-19.986-.505-2.724-1.828-4.842-2.338-9.721-2.338-5.295 0-6.886.45-10.518 2.976-5.123 3.563-11.062 4.587-15.364 2.65zm34.585-36.018c0-20.409-.202-23.47-1.582-24-2.027-.777-11.236-.762-14.168.024l-2.25.603v46.766h18V177.5zm-8.5-33.09c2.2-.009 5.37.291 7.047.668 6.492 1.458 7.186-3.51.909-6.504-6.471-3.086-19.486-1.373-21.077 2.774-1.317 3.43.36 4.772 4.873 3.9 2.336-.452 6.048-.829 8.248-.838zm12.297-12.702c.388-2.015-3.08-4.535-8.115-5.896-7.362-1.99-18.98 2.258-17.405 6.363.402 1.047 3.328 1.333 12.864 1.257 10.547-.085 12.389-.336 12.656-1.724zm-3.798-29.54c0-15.455.206-17.563 1.997-20.5 2.227-3.653 2.581-9.46.722-11.82-5.77-7.323-19.611-6.441-23.393 1.489-1.63 3.417-1.61 3.757.49 8.824 1.954 4.713 2.185 7.068 2.185 22.255V119.4l9-.004 8.998-.004.001-17.225zm60.398 112.069c-3.695-.78-8.502-6.703-9.108-11.224-.675-5.03 2.188-9.919 9.145-15.62l4.566-3.74-.048-13.63-.048-13.63-5.545-3.975c-6.719-4.818-9.397-8.387-10.073-13.424-.713-5.317 2.202-11.353 9.058-18.759l5.656-6.109V90.581l-5.045-4.638c-9.764-8.977-11.485-14.744-5.822-19.51 10.927-9.194 28.97-12.676 44.878-8.661 9.22 2.327 18.634 7.435 20.892 11.335 2.215 3.824.626 7.33-6.947 15.332l-6.956 7.349v22.283l4.495 4.37c7.32 7.113 10.505 12.931 10.505 19.19 0 4.954-.33 5.699-4.48 10.135-2.463 2.634-6.063 5.642-8 6.685l-3.52 1.896v26.651l6.057 5.608c3.332 3.085 6.747 6.94 7.589 8.569 3.02 5.84-1.14 14.405-8.114 16.707-4.185 1.38-9.432.145-14.73-3.468-5.494-3.748-13.949-3.574-20.486.423-4.84 2.96-10.013 4.223-13.919 3.399zm32.603-36.737c0-26.468.654-24.607-8.648-24.607-9.83 0-9.352-1.277-9.352 25.036v22.964h18V177.5zm-8.5-33.059c2.2.024 5.8.247 8 .497 3.721.424 4 .281 4-2.045 0-5.225-11.932-7.811-20.403-4.422-4.328 1.732-5.76 3.918-3.976 6.068.838 1.01 2.147 1.183 4.767.626 1.987-.421 5.412-.747 7.612-.724zm12.9-12.336c-.231-2.797-.527-3.224-3.15-4.552-8.744-4.426-24.724-.963-22.596 4.897.576 1.587 25.877 1.248 25.746-.345zm-3.4-29.831c0-15.24.232-17.65 2.106-21.888 1.623-3.669 1.902-5.472 1.218-7.859-1.234-4.3-6.482-7.634-12.022-7.634-10.86 0-16.459 8.311-11.299 16.775 1.791 2.937 1.997 5.045 1.997 20.5l.001 17.225 9 .004 8.999.004v-17.126z" fill="#c2c6c1"/><path d="M63.117 445.838c-27.504-3.65-51.3-22.831-59.938-48.315l-2.755-8.13-.28-163.5C-.17 41.73-.716 55.365 7.633 38.688 16.628 20.719 34.688 6.76 55.264 1.874 63.634-.114 66.218-.15 182.116.119l118.308.273 8.76 3.135c12.167 4.353 18.85 8.57 28.312 17.865 9.449 9.282 15.112 18.696 18.624 30.96l2.304 8.04v162.5c0 182.321.617 167.14-7.46 183.5-9.098 18.432-25.654 31.804-46.754 37.762l-7.786 2.2-113.5.16c-62.425.089-116.339-.216-119.807-.676zm243.307-7.261c24.07-8.47 41.08-27.045 45.988-50.213 2.209-10.426 2.22-320.42.012-330.972-3.851-18.409-18.328-36.856-35.5-45.235-17.087-8.339-6.886-7.765-138-7.765-109.528 0-116.89.11-123 1.817C31.334 13.081 12.73 31.384 6.14 55.187c-1.59 5.748-1.717 18.153-1.717 168.205v162l2.331 7.5c3.557 11.443 8.536 19.542 17.58 28.6 6.649 6.658 9.78 8.925 17.589 12.728 16.298 7.94 8.998 7.556 140 7.353l116.5-.18 8-2.816zM57.539 387.804c-3.533-2.778-5.615-7.01-5.615-11.41 0-3.13.91-4.495 7-10.502l7-6.903-.02-13.298-.02-13.299-5.692-4.5c-13.395-10.59-13.578-17.99-.788-31.805l5.52-5.962V266.33l-6.11-5.969c-3.36-3.283-6.771-7.501-7.579-9.375-1.347-3.123-1.31-3.621.442-6 2.548-3.46 11.451-8.765 18.247-10.873 7.432-2.304 23.568-2.304 31 0 6.795 2.108 15.699 7.413 18.247 10.873 1.752 2.379 1.788 2.877.441 6-.807 1.874-4.218 6.092-7.578 9.375l-6.11 5.969v23.795l5.52 5.962c6.73 7.27 9.48 12.43 9.48 17.788 0 3.35-.702 4.824-4.006 8.408-2.203 2.39-5.803 5.59-8 7.113l-3.994 2.768V358.99l7 6.903c6.23 6.144 7 7.322 6.996 10.702-.004 4.379-2.763 9.444-6.465 11.87-3.636 2.382-11.058 1.502-16.074-1.907-3.288-2.234-5.01-2.665-10.655-2.665-5.763 0-7.414.432-11.463 3-5.906 3.745-12.655 4.113-16.724.912zm36.153-34.653l-.268-23.74-4.596-.84c-2.921-.533-6.11-.431-8.75.28l-4.154 1.118v46.923H93.96l-.268-23.74zm4.232-34.294c0-3.4-3.823-5.39-11.15-5.803-8.538-.483-14.85 1.786-14.85 5.336 0 2.148.272 2.193 13 2.158 11.414-.032 13-.238 13-1.691zm-.208-11.957c-.42-3.58-4.951-5.516-12.792-5.465-7.294.048-13 2.382-13 5.316 0 .995.187 1.996.416 2.225.23.229 6.099.416 13.043.416h12.625l-.292-2.492zm-2.792-28.807c0-14.051.307-17.893 1.633-20.46.899-1.737 1.68-4.907 1.736-7.044.084-3.217-.479-4.405-3.267-6.897-3.18-2.84-3.757-2.988-10.246-2.622-5.789.327-7.29.802-9.486 2.998-3.059 3.058-3.504 9.445-.932 13.37 1.268 1.935 1.562 5.734 1.562 20.17l.001 17.784H94.924v-17.3zM151.472 386.8c-2.146-1.885-3.942-4.656-4.6-7.101-.97-3.605-.826-4.395 1.433-7.808 1.383-2.09 4.787-5.756 7.566-8.149l5.052-4.35v-27.337l-3.356-2.075c-1.846-1.14-5.446-4.308-8-7.039-3.978-4.253-4.643-5.557-4.643-9.106 0-5.685 2.374-10.202 9.196-17.494l5.804-6.204v-23.35l-6.957-7.35c-8.167-8.629-9.323-11.554-5.973-15.12 6.61-7.037 20.932-12.438 32.91-12.41 11.768.026 24.337 4.173 31.877 10.518 2.392 2.012 3.143 3.459 3.143 6.052 0 2.851-1.144 4.613-7 10.778l-7 7.369v23.5l5.644 6.096c13.164 14.219 12.293 22.833-3.394 33.58l-3.25 2.228v27.764l4.525 3.783c5.877 4.912 9.476 10.183 9.471 13.87-.005 3.615-3.026 8.764-6.465 11.018-3.636 2.382-11.338 1.484-16.485-1.922-3.297-2.182-5.148-2.65-10.49-2.65-5.49 0-7.214.462-11.217 3-6.668 4.229-12.907 4.197-17.79-.09zm37.22-33.65l-.268-23.74-4.596-.84c-2.921-.533-6.11-.431-8.75.28l-4.154 1.118v46.923h18.036l-.268-23.74zm4.232-34.428c0-3.204-5.744-5.823-12.782-5.827-8.126-.005-13.218 2.033-13.218 5.29v2.396h13c12.006 0 13-.142 13-1.86zm0-11.637c0-3.505-7.664-6.611-14.558-5.9-6.917.714-11.442 3.093-11.442 6.015 0 2.23.162 2.258 13 2.225 12.899-.033 13-.052 13-2.34zm-4-28.447c0-14.843.228-17.18 2-20.485 1.1-2.053 2-5.611 2-7.908 0-3.47-.541-4.63-3.198-6.866-2.931-2.467-3.774-2.658-10.117-2.3-6.306.356-7.175.677-9.802 3.617-3.383 3.787-3.55 6.128-.861 12.055 1.724 3.8 1.978 6.558 1.978 21.5v17.14h18V278.64zm57.42 109.427c-1.694-1.066-3.832-3.521-4.75-5.457-2.979-6.276-2.326-8.254 5.33-16.149l7-7.219V332.063l-5.032-3.694c-13.757-10.098-14.137-18.409-1.466-32.024l5.498-5.908v-24.601l-5.598-5.21c-9.185-8.549-10.478-12.992-5.21-17.913 15.069-14.077 47.27-14.24 62.68-.317 2.445 2.208 4.128 4.622 4.128 5.918 0 2.732-3.272 7.221-9.888 13.564l-5.112 4.902v23.688l5.078 4.962c5.42 5.297 9.271 11.18 10.346 15.808 1.124 4.835-2.779 11.235-10.08 16.53l-6.344 4.6v26.593l6.38 5.968c3.508 3.282 6.927 7.29 7.596 8.906 2.742 6.62-4.341 16.057-12.05 16.057-3.877 0-11.138-2.915-12.417-4.985-.345-.558-4.006-1.015-8.135-1.015-6.598 0-7.933.325-11.013 2.674-4.692 3.579-12.533 4.273-16.941 1.5zm35.348-34.924l-.268-23.75-4.5-.863c-2.938-.564-5.976-.464-8.75.288l-4.25 1.152v46.923h18.036l-.268-23.75zm4.632-34a45.556 45.556 0 0 0-.25-2.3c-.267-1.868-6.936-3.95-12.65-3.95-8.267 0-14.471 3.028-13.167 6.425.714 1.863 26.216 1.692 26.067-.175zm.1-11.68c0-5.152-11.535-8.048-20.37-5.113-4.503 1.496-5.13 2.038-5.13 4.43v2.727l12.75-.095c11.714-.087 12.75-.245 12.75-1.949zm-3.5-29.108c0-15.064.231-17.493 2-20.962 2.365-4.64 2.515-7.602.575-11.355-1.84-3.559-5.438-5.145-11.672-5.145-11.235 0-16.338 7.854-10.9 16.775 1.791 2.937 1.997 5.045 1.997 20.5v17.225h18v-17.038zm-223.5-64.861c-6.355-2.85-10.375-10.17-8.415-15.324.54-1.423 3.893-5.371 7.45-8.773l6.465-6.186v-26.866l-6.013-4.379c-13.232-9.636-13.365-17.99-.507-31.878l5.52-5.962V90.707l-6.359-6.358c-7.757-7.758-9.561-11.404-7.329-14.811 2.292-3.497 9.981-8.24 17.535-10.816 13.876-4.731 33.379-2.335 44.782 5.502 9.127 6.273 8.925 9.703-1.161 19.7l-6.468 6.41v23.744l5.485 6.062c6.458 7.136 9.515 12.954 9.515 18.111 0 3.055-.838 4.622-4.644 8.691-2.554 2.73-6.154 5.898-8 7.04l-3.356 2.074V183.24l7 7.22c7.814 8.058 8.713 11.11 5.044 17.127-4.527 7.424-11.746 8.654-20.147 3.432-4.362-2.712-5.943-3.128-11.905-3.128-3.78 0-7.156.457-7.501 1.015-.896 1.45-7.46 4.636-10.991 5.336-1.68.333-4.32.003-6-.75zm33.5-35.994c0-26.547.71-24.607-9-24.607s-9-1.94-9 24.607v23.393h18V177.5zm-7.5-32.814c2.75.161 6.35.386 8 .5 2.588.179 3-.135 3-2.293 0-1.857-.9-2.949-3.5-4.248-7.195-3.594-22-1.11-22 3.69 0 3.247.968 3.753 5.467 2.86 2.218-.441 6.283-.67 9.033-.509zm11.5-13.495c0-4.96-11.877-7.602-20.5-4.56-4.058 1.43-5.057 2.246-5.299 4.327l-.298 2.565 13.048-.043c12.846-.043 13.049-.078 13.049-2.29zm-4-28.523c0-14.956.211-17.073 1.996-20 2.807-4.604 2.649-10.913-.362-14.413-2.025-2.355-3.282-2.806-8.75-3.143-5.447-.336-6.893-.048-9.852 1.962-4.888 3.32-5.816 7.259-3.138 13.312 1.874 4.237 2.106 6.648 2.106 21.885v17.122h18v-16.725zm62.247 111.386c-3.596-1.054-8.107-5.96-9.377-10.2-1.071-3.574-.95-4.243 1.422-7.827 1.427-2.155 4.87-5.837 7.65-8.183l5.058-4.264-.047-13.593-.047-13.594-5.053-3.5c-6.99-4.842-10.853-10.27-10.853-15.249 0-5.492 2.436-10.074 9.196-17.301l5.804-6.204V91.073l-6.885-6.926c-8.445-8.496-9.663-12.03-5.605-16.265 6.255-6.529 21.183-11.932 33.08-11.972 6.593-.023 19.615 3.325 24.824 6.382 12.032 7.061 12.464 10.565 2.586 20.964l-7 7.369v24.131l5.517 5.788c8.72 9.148 11.231 16.066 8.06 22.2-1.552 3-9.005 10.237-12.433 12.071-2.033 1.088-2.144 1.862-2.144 14.94v13.793l7 7c6.018 6.018 7 7.494 7 10.524 0 4.59-3.555 9.844-8.205 12.125-4.371 2.144-9.229 1.248-15.202-2.806-5.523-3.748-14.701-3.565-21.277.422-5.265 3.193-9.579 4.263-13.07 3.24zm32.753-36.554c0-26.547.71-24.607-9-24.607s-9-1.94-9 24.607v23.393h18V177.5zm-7.5-32.814c2.75.161 6.35.386 8 .5 2.588.179 3-.135 3-2.293 0-1.857-.9-2.949-3.5-4.248-7.195-3.594-22-1.11-22 3.69 0 3.247.968 3.753 5.467 2.86 2.218-.441 6.283-.67 9.033-.509zm11.5-13.495c0-3.284-5.185-5.63-12.5-5.66-7.77-.03-13.5 2.358-13.5 5.626v2.366l13-.043c12.795-.042 13-.079 13-2.29zm-4-28.551c0-14.843.228-17.18 2-20.485 2.18-4.068 2.59-9.288.97-12.317-2.767-5.17-14.107-6.675-20.06-2.664-4.996 3.368-5.759 6.56-3.1 12.977 1.96 4.725 2.19 7.068 2.19 22.262v16.98h18V102.64zm59.02 110.502c-4.493-2.257-8.02-7.566-8.02-12.069 0-3.03.981-4.506 7-10.524l7-7-.02-13.578-.02-13.578-5.692-4.5c-13.26-10.483-13.407-18.107-.608-31.535l5.34-5.6V90.624l-7-7.37c-9.878-10.398-9.446-13.902 2.586-20.963 5.209-3.057 18.23-6.405 24.824-6.382 11.594.04 24.594 4.535 32.053 11.084 5.653 4.964 4.48 8.656-5.894 18.544l-5.57 5.31v23.29l5.805 6.204c6.73 7.194 9.197 11.812 9.192 17.202-.005 5.287-2.698 9.243-9.826 14.436l-6.057 4.412-.057 13.594-.056 13.593 5.057 4.264c2.781 2.346 6.224 6.028 7.65 8.183 2.374 3.588 2.494 4.25 1.419 7.84-1.45 4.84-6.01 9.553-10.017 10.355-3.532.706-8.225-.725-13.091-3.991-2.81-1.886-4.812-2.338-10.356-2.338-5.844 0-7.312.369-9.799 2.462-2.574 2.166-8.477 4.52-11.363 4.531-.55.002-2.566-.783-4.48-1.744zm33.748-35.999l-.268-23.75-5.5-.312c-3.025-.172-6.963-.04-8.75.295l-3.25.608v46.909h18.036l-.268-23.75zm-6.268-32.473c2.75.144 6.125.365 7.5.492 2.008.186 2.558-.269 2.796-2.311.399-3.422-4.863-5.958-12.362-5.958-8.992 0-14.676 3.321-13.03 7.612.516 1.345 1.405 1.47 5.357.758 2.606-.47 6.989-.737 9.739-.593zm11.305-13.004c.399-2.071-4.525-5.31-9.488-6.24-5.374-1.01-14.081 1.177-15.93 4-.858 1.309-1.313 2.778-1.012 3.265.301.488 6.296.843 13.323.79 11.24-.084 12.816-.302 13.107-1.815zm-3.805-29.311c0-15.064.231-17.493 2-20.962 4.668-9.156.023-16.5-10.437-16.5-11.92 0-16.672 6.986-11.563 17 1.765 3.46 2 5.894 2 20.71v16.79h18v-17.038z" fill="#bebebe"/><path d="M63.584 445.76c-25.047-3.218-46.275-18.517-57.26-41.266C-.525 390.304-.167 401 .144 219.892l.28-163.5 2.333-6.5c4.074-11.354 9.006-19.02 18.077-28.09C30.311 12.324 38.456 7.209 50.757 3.01L58.424.392h240l7.464 2.344c25.542 8.02 43.195 25.994 50.736 51.656 1.644 5.597 1.784 16.453 2.079 161.5.212 104.512-.031 158.739-.741 165.377-1.191 11.126-4.314 21.102-9.218 29.44-4.307 7.325-17.763 20.745-25.173 25.107-8.37 4.927-20.448 8.917-30.46 10.064-10.81 1.24-219.803 1.13-229.527-.12zm241.84-6.716c12.082-4.054 20.407-9.045 28.595-17.14 8.308-8.216 13.387-16.398 17.08-27.512l2.325-7v-329l-2.823-8c-6.44-18.247-17.792-30.936-34.896-39.003-15.776-7.44-6.44-6.929-132.673-7.258C60.28 3.81 60.365 3.807 47.096 9.167c-9.411 3.801-16.62 8.546-23.479 15.455-7.64 7.695-12.913 16.257-16.472 26.75l-2.721 8.02v163c0 155.132.088 163.314 1.836 169.5 6.983 24.717 26.422 42.802 52.164 48.53 4.843 1.078 28.557 1.3 123 1.153l117-.183 7-2.348zm-247.885-51.24c-3.533-2.778-5.615-7.01-5.615-11.41 0-3.13.91-4.495 7-10.502l7-6.903-.02-13.298-.02-13.299-5.692-4.5c-13.395-10.59-13.578-17.99-.788-31.805l5.52-5.962V266.33l-6.11-5.969c-3.36-3.283-6.771-7.501-7.579-9.375-1.347-3.123-1.31-3.621.442-6 2.548-3.46 11.451-8.765 18.247-10.873 7.432-2.304 23.568-2.304 31 0 6.795 2.108 15.699 7.413 18.247 10.873 1.752 2.379 1.788 2.877.441 6-.807 1.874-4.218 6.092-7.578 9.375l-6.11 5.969v23.795l5.52 5.962c6.73 7.27 9.48 12.43 9.48 17.788 0 3.35-.702 4.824-4.006 8.408-2.203 2.39-5.803 5.59-8 7.113l-3.994 2.768V358.99l7 6.903c6.23 6.144 7 7.322 6.996 10.702-.004 4.379-2.763 9.444-6.465 11.87-3.636 2.382-11.058 1.502-16.074-1.907-3.288-2.234-5.01-2.665-10.655-2.665-5.763 0-7.414.432-11.463 3-5.906 3.745-12.655 4.113-16.724.912zm36.153-34.653l-.268-23.74-4.596-.84c-2.921-.533-6.11-.431-8.75.28l-4.154 1.118v46.923H93.96l-.268-23.74zm4.232-34.294c0-3.4-3.823-5.39-11.15-5.803-8.538-.483-14.85 1.786-14.85 5.336 0 2.148.272 2.193 13 2.158 11.414-.032 13-.238 13-1.691zm-.208-11.957c-.42-3.58-4.951-5.516-12.792-5.465-7.294.048-13 2.382-13 5.316 0 .995.187 1.996.416 2.225.23.229 6.099.416 13.043.416h12.625l-.292-2.492zm-2.792-28.807c0-14.051.307-17.893 1.633-20.46.899-1.737 1.68-4.907 1.736-7.044.084-3.217-.479-4.405-3.267-6.897-3.18-2.84-3.757-2.988-10.246-2.622-5.789.327-7.29.802-9.486 2.998-3.059 3.058-3.504 9.445-.932 13.37 1.268 1.935 1.562 5.734 1.562 20.17l.001 17.784H94.924v-17.3zM151.472 386.8c-2.146-1.885-3.942-4.656-4.6-7.101-.97-3.605-.826-4.395 1.433-7.808 1.383-2.09 4.787-5.756 7.566-8.149l5.052-4.35v-27.337l-3.356-2.075c-1.846-1.14-5.446-4.308-8-7.039-3.978-4.253-4.643-5.557-4.643-9.106 0-5.685 2.374-10.202 9.196-17.494l5.804-6.204v-23.35l-6.957-7.35c-8.167-8.629-9.323-11.554-5.973-15.12 6.61-7.037 20.932-12.438 32.91-12.41 11.768.026 24.337 4.173 31.877 10.518 2.392 2.012 3.143 3.459 3.143 6.052 0 2.851-1.144 4.613-7 10.778l-7 7.369v23.5l5.644 6.096c13.164 14.219 12.293 22.833-3.394 33.58l-3.25 2.228v27.764l4.525 3.783c5.877 4.912 9.476 10.183 9.471 13.87-.005 3.615-3.026 8.764-6.465 11.018-3.636 2.382-11.338 1.484-16.485-1.922-3.297-2.182-5.148-2.65-10.49-2.65-5.49 0-7.214.462-11.217 3-6.668 4.229-12.907 4.197-17.79-.09zm37.22-33.65l-.268-23.74-4.596-.84c-2.921-.533-6.11-.431-8.75.28l-4.154 1.118v46.923h18.036l-.268-23.74zm4.232-34.428c0-3.204-5.744-5.823-12.782-5.827-8.126-.005-13.218 2.033-13.218 5.29v2.396h13c12.006 0 13-.142 13-1.86zm0-11.637c0-3.505-7.664-6.611-14.558-5.9-6.917.714-11.442 3.093-11.442 6.015 0 2.23.162 2.258 13 2.225 12.899-.033 13-.052 13-2.34zm-4-28.447c0-14.843.228-17.18 2-20.485 1.1-2.053 2-5.611 2-7.908 0-3.47-.541-4.63-3.198-6.866-2.931-2.467-3.774-2.658-10.117-2.3-6.306.356-7.175.677-9.802 3.617-3.383 3.787-3.55 6.128-.861 12.055 1.724 3.8 1.978 6.558 1.978 21.5v17.14h18V278.64zm57.42 109.427c-1.694-1.066-3.832-3.521-4.75-5.457-2.979-6.276-2.326-8.254 5.33-16.149l7-7.219V332.063l-5.032-3.694c-13.757-10.098-14.137-18.409-1.466-32.024l5.498-5.908v-24.601l-5.598-5.21c-9.185-8.549-10.478-12.992-5.21-17.913 15.069-14.077 47.27-14.24 62.68-.317 2.445 2.208 4.128 4.622 4.128 5.918 0 2.732-3.272 7.221-9.888 13.564l-5.112 4.902v23.688l5.078 4.962c5.42 5.297 9.271 11.18 10.346 15.808 1.124 4.835-2.779 11.235-10.08 16.53l-6.344 4.6v26.593l6.38 5.968c3.508 3.282 6.927 7.29 7.596 8.906 2.742 6.62-4.341 16.057-12.05 16.057-3.877 0-11.138-2.915-12.417-4.985-.345-.558-4.006-1.015-8.135-1.015-6.598 0-7.933.325-11.013 2.674-4.692 3.579-12.533 4.273-16.941 1.5zm35.348-34.924l-.268-23.75-4.5-.863c-2.938-.564-5.976-.464-8.75.288l-4.25 1.152v46.923h18.036l-.268-23.75zm4.632-34a45.556 45.556 0 0 0-.25-2.3c-.267-1.868-6.936-3.95-12.65-3.95-8.267 0-14.471 3.028-13.167 6.425.714 1.863 26.216 1.692 26.067-.175zm.1-11.68c0-5.152-11.535-8.048-20.37-5.113-4.503 1.496-5.13 2.038-5.13 4.43v2.727l12.75-.095c11.714-.087 12.75-.245 12.75-1.949zm-3.5-29.108c0-15.064.231-17.493 2-20.962 2.365-4.64 2.515-7.602.575-11.355-1.84-3.559-5.438-5.145-11.672-5.145-11.235 0-16.338 7.854-10.9 16.775 1.791 2.937 1.997 5.045 1.997 20.5v17.225h18v-17.038zm-223.5-64.861c-6.355-2.85-10.375-10.17-8.415-15.324.54-1.423 3.893-5.371 7.45-8.773l6.465-6.186v-26.866l-6.013-4.379c-13.232-9.636-13.365-17.99-.507-31.878l5.52-5.962V90.707l-6.359-6.358c-7.757-7.758-9.561-11.404-7.329-14.811 2.292-3.497 9.981-8.24 17.535-10.816 13.876-4.731 33.379-2.335 44.782 5.502 9.127 6.273 8.925 9.703-1.161 19.7l-6.468 6.41v23.744l5.485 6.062c6.458 7.136 9.515 12.954 9.515 18.111 0 3.055-.838 4.622-4.644 8.691-2.554 2.73-6.154 5.898-8 7.04l-3.356 2.074V183.24l7 7.22c7.814 8.058 8.713 11.11 5.044 17.127-4.527 7.424-11.746 8.654-20.147 3.432-4.362-2.712-5.943-3.128-11.905-3.128-3.78 0-7.156.457-7.501 1.015-.896 1.45-7.46 4.636-10.991 5.336-1.68.333-4.32.003-6-.75zm33.5-35.994c0-26.547.71-24.607-9-24.607s-9-1.94-9 24.607v23.393h18V177.5zm-7.5-32.814c2.75.161 6.35.386 8 .5 2.588.179 3-.135 3-2.293 0-1.857-.9-2.949-3.5-4.248-7.195-3.594-22-1.11-22 3.69 0 3.247.968 3.753 5.467 2.86 2.218-.441 6.283-.67 9.033-.509zm11.5-13.495c0-4.96-11.877-7.602-20.5-4.56-4.058 1.43-5.057 2.246-5.299 4.327l-.298 2.565 13.048-.043c12.846-.043 13.049-.078 13.049-2.29zm-4-28.523c0-14.956.211-17.073 1.996-20 2.807-4.604 2.649-10.913-.362-14.413-2.025-2.355-3.282-2.806-8.75-3.143-5.447-.336-6.893-.048-9.852 1.962-4.888 3.32-5.816 7.259-3.138 13.312 1.874 4.237 2.106 6.648 2.106 21.885v17.122h18v-16.725zm62.247 111.386c-3.596-1.054-8.107-5.96-9.377-10.2-1.071-3.574-.95-4.243 1.422-7.827 1.427-2.155 4.87-5.837 7.65-8.183l5.058-4.264-.047-13.593-.047-13.594-5.053-3.5c-6.99-4.842-10.853-10.27-10.853-15.249 0-5.492 2.436-10.074 9.196-17.301l5.804-6.204V91.073l-6.885-6.926c-8.445-8.496-9.663-12.03-5.605-16.265 6.255-6.529 21.183-11.932 33.08-11.972 6.593-.023 19.615 3.325 24.824 6.382 12.032 7.061 12.464 10.565 2.586 20.964l-7 7.369v24.131l5.517 5.788c8.72 9.148 11.231 16.066 8.06 22.2-1.552 3-9.005 10.237-12.433 12.071-2.033 1.088-2.144 1.862-2.144 14.94v13.793l7 7c6.018 6.018 7 7.494 7 10.524 0 4.59-3.555 9.844-8.205 12.125-4.371 2.144-9.229 1.248-15.202-2.806-5.523-3.748-14.701-3.565-21.277.422-5.265 3.193-9.579 4.263-13.07 3.24zm32.753-36.554c0-26.547.71-24.607-9-24.607s-9-1.94-9 24.607v23.393h18V177.5zm-7.5-32.814c2.75.161 6.35.386 8 .5 2.588.179 3-.135 3-2.293 0-1.857-.9-2.949-3.5-4.248-7.195-3.594-22-1.11-22 3.69 0 3.247.968 3.753 5.467 2.86 2.218-.441 6.283-.67 9.033-.509zm11.5-13.495c0-3.284-5.185-5.63-12.5-5.66-7.77-.03-13.5 2.358-13.5 5.626v2.366l13-.043c12.795-.042 13-.079 13-2.29zm-4-28.551c0-14.843.228-17.18 2-20.485 2.18-4.068 2.59-9.288.97-12.317-2.767-5.17-14.107-6.675-20.06-2.664-4.996 3.368-5.759 6.56-3.1 12.977 1.96 4.725 2.19 7.068 2.19 22.262v16.98h18V102.64zm59.02 110.502c-4.493-2.257-8.02-7.566-8.02-12.069 0-3.03.981-4.506 7-10.524l7-7-.02-13.578-.02-13.578-5.692-4.5c-13.26-10.483-13.407-18.107-.608-31.535l5.34-5.6V90.624l-7-7.37c-9.878-10.398-9.446-13.902 2.586-20.963 5.209-3.057 18.23-6.405 24.824-6.382 11.594.04 24.594 4.535 32.053 11.084 5.653 4.964 4.48 8.656-5.894 18.544l-5.57 5.31v23.29l5.805 6.204c6.73 7.194 9.197 11.812 9.192 17.202-.005 5.287-2.698 9.243-9.826 14.436l-6.057 4.412-.057 13.594-.056 13.593 5.057 4.264c2.781 2.346 6.224 6.028 7.65 8.183 2.374 3.588 2.494 4.25 1.419 7.84-1.45 4.84-6.01 9.553-10.017 10.355-3.532.706-8.225-.725-13.091-3.991-2.81-1.886-4.812-2.338-10.356-2.338-5.844 0-7.312.369-9.799 2.462-2.574 2.166-8.477 4.52-11.363 4.531-.55.002-2.566-.783-4.48-1.744zm33.748-35.999l-.268-23.75-5.5-.312c-3.025-.172-6.963-.04-8.75.295l-3.25.608v46.909h18.036l-.268-23.75zm-6.268-32.473c2.75.144 6.125.365 7.5.492 2.008.186 2.558-.269 2.796-2.311.399-3.422-4.863-5.958-12.362-5.958-8.992 0-14.676 3.321-13.03 7.612.516 1.345 1.405 1.47 5.357.758 2.606-.47 6.989-.737 9.739-.593zm11.305-13.004c.399-2.071-4.525-5.31-9.488-6.24-5.374-1.01-14.081 1.177-15.93 4-.858 1.309-1.313 2.778-1.012 3.265.301.488 6.296.843 13.323.79 11.24-.084 12.816-.302 13.107-1.815zm-3.805-29.311c0-15.064.231-17.493 2-20.962 4.668-9.156.023-16.5-10.437-16.5-11.92 0-16.672 6.986-11.563 17 1.765 3.46 2 5.894 2 20.71v16.79h18v-17.038z" fill="#868f85"/><path d="M63.584 445.76c-25.047-3.218-46.275-18.517-57.26-41.266C-.525 390.304-.167 401 .144 219.892l.28-163.5 2.333-6.5c4.074-11.354 9.006-19.02 18.077-28.09C30.311 12.324 38.456 7.209 50.757 3.01L58.424.392h240l7.464 2.344c25.542 8.02 43.195 25.994 50.736 51.656 1.644 5.597 1.784 16.453 2.079 161.5.212 104.512-.031 158.739-.741 165.377-1.191 11.126-4.314 21.102-9.218 29.44-4.307 7.325-17.763 20.745-25.173 25.107-8.37 4.927-20.448 8.917-30.46 10.064-10.81 1.24-219.803 1.13-229.527-.12zm241.84-6.716c12.082-4.054 20.407-9.045 28.595-17.14 8.308-8.216 13.387-16.398 17.08-27.512l2.325-7v-329l-2.823-8c-6.44-18.247-17.792-30.936-34.896-39.003-15.776-7.44-6.44-6.929-132.673-7.258C60.28 3.81 60.365 3.807 47.096 9.167c-9.411 3.801-16.62 8.546-23.479 15.455-7.64 7.695-12.913 16.257-16.472 26.75l-2.721 8.02v163c0 155.132.088 163.314 1.836 169.5 6.983 24.717 26.422 42.802 52.164 48.53 4.843 1.078 28.557 1.3 123 1.153l117-.183 7-2.348zm-247.5-51.345c-4.113-2.787-6.69-8.922-5.59-13.306.407-1.622 3.52-5.55 7.155-9.027l6.435-6.156v-27.222l-4.25-2.948c-7.794-5.406-11.75-10.927-11.75-16.397 0-3.777 4.161-10.85 10.148-17.25l5.852-6.255v-21.44l-6.368-6.653c-10.511-10.982-11.16-14.13-4.035-19.571 15.87-12.119 43.935-12.119 59.805 0 7.126 5.44 6.477 8.59-4.035 19.571l-6.367 6.653v21.44l5.852 6.255c5.986 6.4 10.148 13.473 10.148 17.25 0 5.47-3.956 10.99-11.75 16.397l-4.25 2.948v27.222l6.434 6.156c7.295 6.979 8.53 10.02 6.47 15.93-3.104 8.909-12.158 10.846-22.023 4.713-7.082-4.402-14.01-4.394-20.277.023-6.13 4.32-12.761 4.949-17.604 1.667zm36-34.19v-24.383l-2.25-.603c-3.444-.923-10.324-.743-13.185.345l-2.565.975v46.923l3.25.403c1.787.222 5.837.475 9 .563l5.75.16V353.51zm4.082-33.299c1.708-1.708-.107-4.151-4.758-6.403-3.549-1.718-5.615-2.061-9.798-1.63-7.05.728-11.526 3.087-11.526 6.074 0 1.27.187 2.496.416 2.725.88.879 24.732.168 25.666-.766zm-9.582-10.806c9.261-.01 10-.156 10-1.972 0-1.113-1.469-2.95-3.398-4.25-6.764-4.558-22.127-2.149-22.94 3.597-.4 2.836 1.555 4.348 4.338 3.353 1.1-.394 6.5-.72 12-.728zm8.75-53.212c2.2-4.023 2.21-6.71.044-10.38-4.457-7.544-17.333-7.77-23.126-.406-2.696 3.426-2.74 6.446-.168 11.486 1.776 3.482 2 5.894 2 21.559v17.638l5.75-.596c3.162-.328 7.325-.24 9.25.194l3.5.79.5-18.542c.407-15.11.824-19.135 2.25-21.743zm56.048 131.8c-1.76-1.106-3.898-3.359-4.75-5.006-3.327-6.434-1.24-11.862 7.347-19.103l5.105-4.304v-27.55l-3.25-2.227c-15.675-10.74-16.561-19.87-3.28-33.793l5.53-5.797v-23.668l-7.063-7.284c-6.506-6.71-7.038-7.58-6.75-11.033.255-3.06 1.088-4.34 4.53-6.958 9.098-6.92 24.58-10.405 37.223-8.377 9.3 1.492 15.333 3.716 21.395 7.887 8.05 5.538 7.418 9.951-2.886 20.163l-6.45 6.393v21.79l5.662 6.115c7.018 7.58 10.808 15.335 9.89 20.233-.794 4.23-4.884 9.04-11.512 13.536l-4.988 3.383-.026 12.961-.025 12.962 6.972 6.754c7.802 7.56 8.987 10.332 6.933 16.227-3.105 8.909-12.159 10.846-22.024 4.713-3.988-2.479-6.112-3.117-10.381-3.117-4.27 0-6.393.638-10.382 3.117-6.456 4.014-12.459 4.721-16.82 1.982zm35.702-34.483v-24.383l-2.25-.603c-3.566-.956-10.17-.729-13.601.467l-3.15 1.098v46.684l3.75.392c2.063.216 6.338.468 9.5.56l5.75.168V353.51zm3.5-34.565c0-1.394-1.13-3.179-2.799-4.425-5.308-3.963-20.21-2.28-22.809 2.574-1.944 3.633.152 4.303 13.273 4.243 12.244-.055 12.335-.073 12.335-2.392zm-9-9.54c9.139-.01 10-.175 10-1.904 0-5.502-14.998-8.775-22.5-4.91-5.516 2.841-5.073 9.534.5 7.542 1.1-.394 6.5-.72 12-.728zm6.5-31.084c0-15.01.253-17.766 1.978-21.568 2.715-5.984 2.523-8.219-1.055-12.294-5.156-5.872-14.023-6.051-20.445-.413-4.122 3.62-4.547 7.383-1.478 13.109 1.78 3.32 2 5.642 2 21.053v17.322h19v-17.21zm56.365 109.653c-2.019-1.23-3.756-3.537-4.88-6.478-2.322-6.082-1.14-8.825 7.135-16.566l6.38-5.968v-26.698l-5.715-3.935c-11.578-7.973-13.362-15.6-6.17-26.372 2.265-3.39 5.64-7.379 7.5-8.864l3.385-2.7v-23.411l-6.455-6.36c-10.129-9.98-10.789-14.401-2.955-19.79 8.52-5.862 23.5-9.624 33.747-8.474 12.196 1.368 25.445 7.22 29.152 12.878 1.463 2.233 1.471 2.815.093 6.114-.837 2.005-4.236 6.251-7.553 9.436l-6.03 5.792v23.56l5.805 6.205c6.687 7.149 9.196 11.81 9.196 17.083 0 5.146-2.916 9.39-9.987 14.54l-6.013 4.379v26.536l7 6.876c6.675 6.557 7 7.091 7 11.52 0 3.895-.553 5.25-3.423 8.381-3.158 3.445-3.85 3.735-8.919 3.735-4.587 0-6.257-.537-10.106-3.25-4.03-2.84-5.41-3.25-10.96-3.25-4.693 0-6.705.433-7.72 1.659-2.041 2.467-8.89 5.295-12.872 5.316-1.925.01-4.911-.842-6.635-1.894zm36.403-34.348l.268-23.768-2.583-.982c-3.312-1.26-10.585-1.263-13.888-.007l-2.565.975v46.923l3.25.424c1.787.233 5.95.374 9.25.313l6-.11.268-23.768zm3.551-32.663c.451-.038.676-1.082.5-2.32-.502-3.535-8.084-6.975-14.32-6.497-7.918.607-13.652 4.3-12.27 7.905.442 1.15 2.968 1.385 12.91 1.206 6.798-.123 12.73-.255 13.18-.294zm-9.32-11.549c8.763-.019 9.5-.173 9.5-1.98 0-3.301-6.006-6.54-12.127-6.54-6.55 0-13.066 2.459-13.957 5.267-.849 2.674 2.129 5.046 5.032 4.008 1.13-.404 6.328-.743 11.553-.755zm8.02-51.784c5.827-9.556-1.618-19.074-13.524-17.288-5.133.77-8.753 3.345-10.445 7.43-1.045 2.522-.92 3.628.864 7.661 1.862 4.209 2.086 6.643 2.086 22.686v17.97l5.75-.595c3.162-.328 7.325-.241 9.25.193l3.5.79.272-17.805c.24-15.67.51-18.193 2.247-21.042zm-228.29-45.727c-8.566-6.762-7.28-15.11 3.745-24.326l4.526-3.783V156.344l-5.825-4.242c-6.243-4.546-10.175-10.258-10.175-14.78 0-4.258 3.44-10.47 9.514-17.182l5.486-6.062V90.55l-4.75-4.52c-6.9-6.566-9.25-10.077-9.25-13.822 0-2.774.753-3.852 4.75-6.8 2.612-1.928 8.35-4.677 12.75-6.111 14.799-4.823 30.817-3.148 44.291 4.629 9.609 5.546 9.441 9.655-.835 20.513l-6.956 7.349v21.927l5.642 5.78c6.938 7.105 10.843 15 9.901 20.016-.74 3.945-5.54 9.72-11.526 13.87l-4.017 2.783V183.241l7 7.22c7.522 7.757 8.193 9.64 5.62 15.796-1.967 4.71-6.1 7.635-10.788 7.635-3.757 0-13.013-3.866-14.32-5.98-.347-.561-3.29-1.02-6.542-1.02-5.024 0-6.586.475-10.401 3.165-6.04 4.257-13.771 5.056-17.84 1.845zm36.27-34.034v-24.025l-2.75-1.069c-3.261-1.268-12.784-.512-14.818 1.176-1.593 1.321-1.974 20.098-.775 38.192l.645 9.75H92.924v-24.024zm4.201-33.776c1.981-1.981-2.75-5.955-8.664-7.279-9.055-2.026-21.253 3.101-17.664 7.425 1.367 1.647 24.665 1.518 26.328-.146zm-18.132-10.213c3.612-.685 7.122-.683 10.846.005 4.557.843 5.767.756 7.028-.505 1.97-1.97.658-4.159-3.978-6.645-7.15-3.835-21.964-.838-21.964 4.443 0 4.038.37 4.162 8.068 2.702zm10.049-13.965c2.105.385 4.065.462 4.355.172.29-.29.528-8.345.528-17.9 0-15.4.227-17.819 2-21.294 2.657-5.208 2.521-8.226-.533-11.856-5.268-6.26-15.26-6.551-21.193-.618-3.865 3.865-4.197 7.242-1.274 12.974 1.775 3.483 2 5.898 2 21.533v17.609l5.144-.66c2.83-.363 6.868-.345 8.973.04zm62.638 92.283c-3.172-2.036-5.755-6.9-5.755-10.838 0-3.81 3.236-8.641 9.05-13.508l4.95-4.145v-27.481l-5.588-3.849c-13.458-9.269-13.76-18.434-1.056-32.155l5.644-6.096V90.513l-5.142-4.751c-10.11-9.343-11.487-14.64-5.108-19.64 6.478-5.079 13.312-7.678 24.269-9.232 12.402-1.76 30.646 3.163 38.23 10.314 4.817 4.54 3.377 8.775-6.173 18.157l-6.076 5.969v22.74l4.495 4.37c7.299 7.093 10.505 12.937 10.505 19.145 0 4.676-.422 5.769-3.578 9.262-1.968 2.178-5.567 5.217-7.998 6.753l-4.42 2.792-.003 13.285-.002 13.284 6.38 5.968c7.737 7.237 9.362 10.543 7.78 15.825-1.856 6.193-5.297 8.638-12.159 8.638-4.974 0-6.52-.48-10.448-3.25-3.836-2.703-5.526-3.25-10.052-3.25-4.497 0-6.221.55-9.931 3.165-5.607 3.952-13.51 4.901-17.814 2.14zm36.245-34.33v-24.024l-2.75-1.063c-3.439-1.33-12.607-.666-14.69 1.062-1.33 1.104-1.56 4.647-1.56 24.006 0 12.491.3 23.011.666 23.378.367.366 4.642.666 9.5.666h8.834v-24.024zm3.816-34.733c.383-2.655-4.24-5.8-9.946-6.763-4.882-.825-14.454 1.876-15.843 4.47-2.214 4.138-.73 4.67 12.755 4.574 12.29-.088 12.728-.165 13.034-2.281zm-17.946-9.307c3.53-.757 6.656-.753 10.8.014 5.025.93 5.993.857 7.011-.532 1.708-2.33.599-4.233-3.765-6.46-8.924-4.552-25.15 0-21.867 6.136 1.191 2.226 1.31 2.238 7.82.842zm9.894-13.884c2.345.323 4.483.369 4.75.102.267-.267.486-8.229.486-17.692 0-15.27.235-17.737 2.086-21.922 1.368-3.094 1.859-5.632 1.426-7.377-2.237-9.016-15.302-11.797-23.13-4.925-4.044 3.551-4.534 8.362-1.379 13.538 1.798 2.948 1.997 5.045 1.997 21.07v17.797l4.75-.589c2.612-.324 6.669-.325 9.014-.002zm61.134 91.67c-4.426-2.97-6.7-9.373-4.884-13.755.675-1.629 4.098-5.647 7.606-8.93l6.38-5.967-.002-13.284-.002-13.285-4.42-2.792c-2.432-1.536-6.03-4.575-7.999-6.753-3.155-3.493-3.577-4.586-3.577-9.262 0-6.235 3.198-12.041 10.47-19.01l4.53-4.34V91.33l-6.076-5.969c-9.55-9.382-10.99-13.616-6.174-18.157 7.584-7.151 25.829-12.073 38.23-10.314 10.957 1.554 17.791 4.153 24.27 9.231 6.37 4.994 4.922 10.511-5.206 19.822l-5.044 4.638v23.544l5.52 5.962c12.927 13.964 12.669 22.922-.933 32.29l-5.587 3.848v26.9l7 6.836c6.137 5.993 7 7.284 7 10.482 0 12.298-10.67 17.03-22.43 9.95-4.852-2.922-6.764-3.5-11.569-3.5-4.016 0-6.151.475-7.062 1.572-2.226 2.683-8.675 5.427-12.752 5.427-2.39 0-5.202-.879-7.29-2.28zm36.87-33.652c.148-12.887-.111-23.811-.576-24.276-1.543-1.543-10.803-2.076-14.555-.838l-3.637 1.2v47.92l9.25-.287 9.25-.288.269-23.43zm4.031-34.266c.44-2.28-3.512-5.648-8.06-6.873-7.27-1.957-18.74 1.647-18.74 5.889 0 1.016.214 2.061.474 2.322.261.26 6.22.43 13.244.378 10.932-.08 12.815-.328 13.082-1.716zm-17.849-9.885c3.656-.784 6.48-.776 10.235.029 4.371.937 5.428.869 6.733-.436 2.024-2.025.618-4.405-3.993-6.76-8.964-4.575-25.782.898-20.885 6.797 1.442 1.739 1.512 1.742 7.91.37zm14.05-30.457c0-15.567.225-17.981 2-21.46 2.935-5.755 2.626-10.22-.958-13.804-1.627-1.627-4.545-3.256-6.485-3.62-4.6-.863-11.18.956-14.132 3.907-3.505 3.506-3.9 6.654-1.511 12.055 1.853 4.19 2.086 6.65 2.086 22.063v17.347l8.037-.104c4.42-.057 8.32.18 8.666.526 1.906 1.905 2.297-.974 2.297-16.91z" fill="#7f7f7f"/><path d="M57.289 444.411C27.274 437.825 5.134 414.61.957 385.343c-.82-5.745-1.043-52.203-.803-167.45C.527 38.564-.2 54.777 8.204 38.392c3.075-5.994 6.251-10.147 12.662-16.558C30.555 12.146 40.022 6.589 53.48 2.692l7.944-2.3h117.5c109.139 0 117.954.126 123.879 1.763 26.163 7.228 43.71 23.2 51.896 47.237l2.725 8 .267 162.73c.301 183.035.813 170.111-7.401 186.749-8.42 17.052-23.188 29.23-43.866 36.172l-7 2.35-118 .182c-95.718.148-119.159-.072-124.135-1.164zm235.497-2.56c23.064-2.893 43.672-16.93 53.965-36.762 8.24-15.873 7.549-.66 7.93-174.697.225-102.368-.011-158.283-.695-164.668-1.822-17.002-7.77-29.519-19.63-41.307-8.274-8.225-16.812-13.513-27.932-17.3l-8-2.725-116.952-.27C67.832 3.86 64.3 3.908 56.71 5.827 46.416 8.43 37.362 12.845 29.68 19.007 18.903 27.65 12.444 36.622 7.177 50.263l-2.753 7.13v331l2.679 7.334c3.942 10.79 8.406 17.72 16.87 26.185 10.951 10.95 25.301 17.959 40.95 20 9.046 1.18 218.41 1.124 227.863-.062zM57.924 387.698c-4.113-2.787-6.69-8.922-5.59-13.306.407-1.622 3.52-5.55 7.155-9.027l6.435-6.156v-27.222l-4.25-2.948c-7.794-5.406-11.75-10.927-11.75-16.397 0-3.777 4.161-10.85 10.148-17.25l5.852-6.255v-21.44l-6.368-6.653c-10.511-10.982-11.16-14.13-4.035-19.571 15.87-12.119 43.935-12.119 59.805 0 7.126 5.44 6.477 8.59-4.035 19.571l-6.367 6.653v21.44l5.852 6.255c5.986 6.4 10.148 13.473 10.148 17.25 0 5.47-3.956 10.99-11.75 16.397l-4.25 2.948v27.222l6.434 6.156c7.295 6.979 8.53 10.02 6.47 15.93-3.104 8.909-12.158 10.846-22.023 4.713-7.082-4.402-14.01-4.394-20.277.023-6.13 4.32-12.761 4.949-17.604 1.667zm36-34.19v-24.383l-2.25-.603c-3.444-.923-10.324-.743-13.185.345l-2.565.975v46.923l3.25.403c1.787.222 5.837.475 9 .563l5.75.16V353.51zm4.082-33.299c1.708-1.708-.107-4.151-4.758-6.403-3.549-1.718-5.615-2.061-9.798-1.63-7.05.728-11.526 3.087-11.526 6.074 0 1.27.187 2.496.416 2.725.88.879 24.732.168 25.666-.766zm-9.582-10.806c9.261-.01 10-.156 10-1.972 0-1.113-1.469-2.95-3.398-4.25-6.764-4.558-22.127-2.149-22.94 3.597-.4 2.836 1.555 4.348 4.338 3.353 1.1-.394 6.5-.72 12-.728zm8.75-53.212c2.2-4.023 2.21-6.71.044-10.38-4.457-7.544-17.333-7.77-23.126-.406-2.696 3.426-2.74 6.446-.168 11.486 1.776 3.482 2 5.894 2 21.559v17.638l5.75-.596c3.162-.328 7.325-.24 9.25.194l3.5.79.5-18.542c.407-15.11.824-19.135 2.25-21.743zm56.048 131.8c-1.76-1.106-3.898-3.359-4.75-5.006-3.327-6.434-1.24-11.862 7.347-19.103l5.105-4.304v-27.55l-3.25-2.227c-15.675-10.74-16.561-19.87-3.28-33.793l5.53-5.797v-23.668l-7.063-7.284c-6.506-6.71-7.038-7.58-6.75-11.033.255-3.06 1.088-4.34 4.53-6.958 9.098-6.92 24.58-10.405 37.223-8.377 9.3 1.492 15.333 3.716 21.395 7.887 8.05 5.538 7.418 9.951-2.886 20.163l-6.45 6.393v21.79l5.662 6.115c7.018 7.58 10.808 15.335 9.89 20.233-.794 4.23-4.884 9.04-11.512 13.536l-4.988 3.383-.026 12.961-.025 12.962 6.972 6.754c7.802 7.56 8.987 10.332 6.933 16.227-3.105 8.909-12.159 10.846-22.024 4.713-3.988-2.479-6.112-3.117-10.381-3.117-4.27 0-6.393.638-10.382 3.117-6.456 4.014-12.459 4.721-16.82 1.982zm35.702-34.483v-24.383l-2.25-.603c-3.566-.956-10.17-.729-13.601.467l-3.15 1.098v46.684l3.75.392c2.063.216 6.338.468 9.5.56l5.75.168V353.51zm3.5-34.565c0-1.394-1.13-3.179-2.799-4.425-5.308-3.963-20.21-2.28-22.809 2.574-1.944 3.633.152 4.303 13.273 4.243 12.244-.055 12.335-.073 12.335-2.392zm-9-9.54c9.139-.01 10-.175 10-1.904 0-5.502-14.998-8.775-22.5-4.91-5.516 2.841-5.073 9.534.5 7.542 1.1-.394 6.5-.72 12-.728zm6.5-31.084c0-15.01.253-17.766 1.978-21.568 2.715-5.984 2.523-8.219-1.055-12.294-5.156-5.872-14.023-6.051-20.445-.413-4.122 3.62-4.547 7.383-1.478 13.109 1.78 3.32 2 5.642 2 21.053v17.322h19v-17.21zm56.365 109.653c-2.019-1.23-3.756-3.537-4.88-6.478-2.322-6.082-1.14-8.825 7.135-16.566l6.38-5.968v-26.698l-5.715-3.935c-11.578-7.973-13.362-15.6-6.17-26.372 2.265-3.39 5.64-7.379 7.5-8.864l3.385-2.7v-23.411l-6.455-6.36c-10.129-9.98-10.789-14.401-2.955-19.79 8.52-5.862 23.5-9.624 33.747-8.474 12.196 1.368 25.445 7.22 29.152 12.878 1.463 2.233 1.471 2.815.093 6.114-.837 2.005-4.236 6.251-7.553 9.436l-6.03 5.792v23.56l5.805 6.205c6.687 7.149 9.196 11.809 9.196 17.083 0 5.146-2.916 9.39-9.987 14.54l-6.013 4.379v26.536l7 6.876c6.675 6.557 7 7.091 7 11.52 0 3.895-.553 5.25-3.423 8.381-3.158 3.445-3.85 3.735-8.919 3.735-4.587 0-6.257-.537-10.106-3.25-4.03-2.84-5.41-3.25-10.96-3.25-4.693 0-6.705.433-7.72 1.659-2.041 2.467-8.89 5.295-12.872 5.316-1.925.01-4.911-.842-6.635-1.894zm36.403-34.348l.268-23.768-2.583-.982c-3.312-1.26-10.585-1.263-13.888-.007l-2.565.975v46.923l3.25.424c1.787.233 5.95.374 9.25.313l6-.11.268-23.768zm3.551-32.663c.451-.038.676-1.082.5-2.32-.502-3.535-8.084-6.975-14.32-6.497-7.918.607-13.652 4.3-12.27 7.905.442 1.15 2.968 1.385 12.91 1.206 6.798-.123 12.73-.255 13.18-.294zm-9.32-11.549c8.763-.019 9.5-.173 9.5-1.98 0-3.301-6.006-6.54-12.127-6.54-6.55 0-13.066 2.459-13.957 5.267-.849 2.674 2.129 5.046 5.032 4.008 1.13-.404 6.328-.743 11.553-.755zm8.02-51.784c5.827-9.556-1.618-19.074-13.524-17.288-5.133.77-8.753 3.345-10.445 7.43-1.045 2.522-.92 3.628.864 7.661 1.862 4.209 2.086 6.643 2.086 22.686v17.97l5.75-.595c3.162-.328 7.325-.241 9.25.193l3.5.79.272-17.805c.24-15.67.51-18.193 2.247-21.042zm-228.29-45.727c-8.566-6.762-7.28-15.11 3.745-24.326l4.526-3.783V156.344l-5.825-4.242c-6.243-4.546-10.175-10.258-10.175-14.78 0-4.258 3.44-10.47 9.514-17.182l5.486-6.062V90.55l-4.75-4.52c-6.9-6.566-9.25-10.077-9.25-13.822 0-2.774.753-3.852 4.75-6.8 2.612-1.928 8.35-4.677 12.75-6.111 14.799-4.823 30.817-3.148 44.291 4.629 9.609 5.546 9.441 9.655-.835 20.513l-6.956 7.349v21.927l5.642 5.78c6.938 7.105 10.843 15 9.901 20.016-.74 3.945-5.54 9.72-11.526 13.87l-4.017 2.783V183.241l7 7.22c7.522 7.757 8.193 9.64 5.62 15.796-1.967 4.71-6.1 7.635-10.788 7.635-3.757 0-13.013-3.866-14.32-5.98-.347-.561-3.29-1.02-6.542-1.02-5.024 0-6.586.475-10.401 3.165-6.04 4.257-13.771 5.056-17.84 1.845zm36.27-34.034v-24.025l-2.75-1.069c-3.261-1.268-12.784-.512-14.818 1.176-1.593 1.321-1.974 20.098-.775 38.192l.645 9.75H92.924v-24.024zm4.201-33.776c1.981-1.981-2.75-5.955-8.664-7.279-9.055-2.026-21.253 3.101-17.664 7.425 1.367 1.647 24.665 1.518 26.328-.146zm-18.132-10.213c3.612-.685 7.122-.683 10.846.005 4.557.843 5.767.756 7.028-.505 1.97-1.97.658-4.159-3.978-6.645-7.15-3.835-21.964-.838-21.964 4.443 0 4.038.37 4.162 8.068 2.702zm10.049-13.965c2.105.385 4.065.462 4.355.172.29-.29.528-8.345.528-17.9 0-15.4.227-17.819 2-21.294 2.657-5.208 2.521-8.226-.533-11.856-5.268-6.26-15.26-6.551-21.193-.618-3.865 3.865-4.197 7.242-1.274 12.974 1.775 3.483 2 5.898 2 21.533v17.609l5.144-.66c2.83-.363 6.868-.345 8.973.04zm62.638 92.283c-3.172-2.036-5.755-6.9-5.755-10.838 0-3.81 3.236-8.641 9.05-13.508l4.95-4.145v-27.481l-5.588-3.849c-13.458-9.269-13.76-18.434-1.056-32.155l5.644-6.096V90.513l-5.142-4.751c-10.11-9.343-11.487-14.64-5.108-19.64 6.478-5.079 13.312-7.678 24.269-9.232 12.402-1.76 30.646 3.163 38.23 10.314 4.817 4.54 3.377 8.775-6.173 18.157l-6.076 5.969v22.74l4.495 4.37c7.299 7.093 10.505 12.937 10.505 19.145 0 4.676-.422 5.769-3.578 9.262-1.968 2.178-5.567 5.217-7.998 6.753l-4.42 2.792-.003 13.285-.002 13.284 6.38 5.968c7.737 7.237 9.362 10.543 7.78 15.825-1.856 6.193-5.297 8.638-12.159 8.638-4.974 0-6.52-.48-10.448-3.25-3.836-2.703-5.526-3.25-10.052-3.25-4.497 0-6.222.55-9.931 3.165-5.607 3.952-13.51 4.901-17.814 2.14zm36.245-34.33v-24.024l-2.75-1.063c-3.439-1.33-12.607-.666-14.69 1.062-1.33 1.104-1.56 4.647-1.56 24.006 0 12.491.3 23.011.666 23.378.367.366 4.642.666 9.5.666h8.834v-24.024zm3.816-34.733c.383-2.655-4.24-5.8-9.946-6.763-4.882-.825-14.454 1.876-15.843 4.47-2.214 4.138-.73 4.67 12.755 4.574 12.29-.088 12.728-.165 13.034-2.281zm-17.946-9.307c3.53-.757 6.656-.753 10.8.014 5.025.93 5.993.857 7.011-.532 1.708-2.33.599-4.233-3.765-6.46-8.924-4.552-25.15 0-21.867 6.136 1.191 2.226 1.31 2.238 7.82.842zm9.894-13.884c2.345.323 4.483.369 4.75.102.267-.267.486-8.229.486-17.692 0-15.27.235-17.737 2.086-21.922 1.368-3.094 1.859-5.632 1.426-7.377-2.237-9.016-15.302-11.797-23.13-4.925-4.044 3.551-4.534 8.362-1.379 13.538 1.798 2.948 1.997 5.045 1.997 21.07v17.797l4.75-.589c2.612-.324 6.669-.325 9.014-.002zm61.134 91.67c-4.426-2.97-6.7-9.373-4.884-13.755.675-1.629 4.098-5.647 7.606-8.93l6.38-5.967-.002-13.284-.002-13.285-4.42-2.792c-2.432-1.536-6.03-4.575-7.999-6.753-3.155-3.493-3.577-4.586-3.577-9.262 0-6.235 3.198-12.041 10.47-19.01l4.53-4.34V91.33l-6.076-5.969c-9.55-9.382-10.99-13.616-6.174-18.157 7.584-7.151 25.829-12.073 38.23-10.314 10.957 1.554 17.791 4.153 24.27 9.231 6.37 4.994 4.922 10.511-5.206 19.822l-5.044 4.638v23.544l5.52 5.962c12.927 13.964 12.669 22.922-.933 32.29l-5.587 3.848v26.9l7 6.836c6.137 5.993 7 7.284 7 10.482 0 12.298-10.67 17.03-22.43 9.95-4.852-2.922-6.764-3.5-11.569-3.5-4.016 0-6.151.475-7.062 1.572-2.226 2.683-8.675 5.427-12.752 5.427-2.39 0-5.202-.879-7.29-2.28zm36.87-33.652c.148-12.887-.111-23.811-.576-24.276-1.543-1.543-10.803-2.076-14.555-.838l-3.637 1.2v47.92l9.25-.287 9.25-.288.269-23.43zm4.031-34.266c.44-2.28-3.512-5.648-8.06-6.873-7.27-1.957-18.74 1.647-18.74 5.889 0 1.016.214 2.061.474 2.322.261.26 6.22.43 13.244.378 10.932-.08 12.815-.328 13.082-1.716zm-17.849-9.885c3.656-.784 6.48-.776 10.235.029 4.371.937 5.428.869 6.733-.436 2.024-2.025.618-4.405-3.993-6.76-8.964-4.575-25.782.898-20.885 6.797 1.442 1.739 1.512 1.742 7.91.37zm14.05-30.457c0-15.567.225-17.981 2-21.46 2.935-5.755 2.626-10.22-.958-13.804-1.627-1.627-4.545-3.256-6.485-3.62-4.6-.863-11.18.956-14.132 3.907-3.505 3.506-3.9 6.654-1.511 12.055 1.853 4.19 2.086 6.65 2.086 22.063v17.347l8.037-.104c4.42-.057 8.32.18 8.666.526 1.906 1.905 2.297-.974 2.297-16.91z" fill="#485447"/><path d="M57.59 444.276c-26.354-5.7-46.715-24.412-54.824-50.384l-2.342-7.5v-163c0-152.469.113-163.42 1.76-169.5C7.63 33.78 21.529 17.051 40.424 7.862 56.74-.072 48.1.392 179.424.392h117l7.943 2.3c13.328 3.86 22.909 9.485 32.64 19.166 7.126 7.089 9.38 10.153 13.273 18.037 8.225 16.658 7.712 3.77 7.411 186.268l-.267 162.23-2.335 7c-7.813 23.422-26.168 40.88-50.665 48.186-5.6 1.67-13.819 1.802-123 1.982-99.991.165-117.994-.022-123.834-1.285zm245.634-4.125c24.599-6.945 42.176-24.296 49.393-48.759 1.654-5.607 1.79-16.195 2.068-161.976.182-95.129-.076-159.33-.66-164.573-2.644-23.674-16.096-42.936-37.293-53.401-16.215-8.005-9.024-7.632-141.109-7.324l-117.2.274-7.19 2.63c-18.1 6.622-32.286 18.528-39.97 33.545-7.917 15.474-7.435 2.906-7.12 185.825l.28 163 2.206 5.776c4.366 11.438 8.63 18.132 16.758 26.312 11.678 11.753 24.542 18.241 40.26 20.306 3.727.49 57.402.817 119.277.728l112.5-.161 7.8-2.202zM59.33 388.32c-3.545-1.75-7.406-7.941-7.406-11.877 0-1.965 1.859-4.577 7-9.83l7-7.155-.026-14.033-.026-14.034-5.067-3.438c-5.99-4.064-9.624-8.526-10.496-12.884-.897-4.486 3.266-12.468 10.091-19.348l5.524-5.568v-23.392l-5.644-5.38c-12.807-12.207-12.37-16.747 2.28-23.672 9.516-4.497 20.257-6.348 28.976-4.993 8.756 1.362 16.606 4.222 22.748 8.291 8.03 5.318 7.544 9.059-2.482 19.145l-6.878 6.92v23.037l5.46 5.46c6.756 6.756 11.053 15.007 10.154 19.5-.872 4.358-4.506 8.82-10.496 12.884l-5.067 3.438-.026 14.034-.025 14.033 7 7.154c7.616 7.785 8.288 9.762 5.393 15.862-1.86 3.92-6.95 7.417-10.795 7.417-2.779 0-11.993-4.21-13.087-5.98-.346-.561-3.923-1.02-7.948-1.02-5.598 0-7.641.39-8.69 1.659-1.829 2.209-8.753 5.298-11.873 5.297-1.375 0-3.892-.688-5.594-1.527zm34.594-34.812v-24.383l-2.25-.603c-1.238-.332-4.275-.603-6.75-.603-2.475 0-5.513.271-6.75.603l-2.25.603v47.64l3.25.403c1.787.222 5.837.475 9 .563l5.75.16V353.51zm4.616-33.984c1.54-4.852-8.966-8.811-18.227-6.869-6.737 1.413-8.39 2.623-8.39 6.142v2.661l13.013-.033c11.81-.03 13.066-.206 13.604-1.901zm-8.947-9.847c8.483.296 9.934-.31 8.858-3.698-1.489-4.692-14.463-6.698-22.507-3.479-3.357 1.343-4.02 2.072-4.02 4.417 0 3.348 1.316 4.038 6 3.143 1.925-.368 7.176-.54 11.669-.383zm5.33-30.574c0-15.814.223-18.224 2-21.712 3.715-7.285 1.981-13.356-4.598-16.105-4.534-1.895-9.09-1.72-14.07.542-6.658 3.023-8.094 8.184-4.331 15.563 1.773 3.478 2 5.898 2 21.31v17.387l5.75-.624c3.162-.344 7.1-.202 8.75.315 1.65.517 3.337.98 3.75 1.026.412.048.75-7.918.75-17.702zm58.42 108.903c-1.693-1.033-3.83-3.462-4.75-5.398-2.978-6.276-2.325-8.254 5.33-16.149l7-7.219-.054-13.924-.054-13.925-4.696-3.08c-6.153-4.038-11.195-10.65-11.195-14.682 0-4.604 3.318-10.64 9.502-17.285l5.498-5.908v-24.601l-5.598-5.21c-9.814-9.134-10.867-13.913-4.152-18.84 5.897-4.327 11.426-6.565 21.02-8.509 9.415-1.907 18.116-1.083 28.137 2.667 5.704 2.134 13.062 7.095 14.895 10.044 1.804 2.9-.236 6.742-7.312 13.776l-6.99 6.95V290.467l5.078 4.962c5.42 5.297 9.271 11.18 10.346 15.808 1.11 4.778-2.672 10.976-10.017 16.412l-6.407 4.742v26.765l6.363 5.832c7.606 6.969 9.312 10.327 7.71 15.18-3.122 9.46-12.773 12.14-21.521 5.973-4.116-2.901-5.345-3.25-11.46-3.25-5.159 0-7.186.41-8.22 1.659-1.935 2.339-8.814 5.294-12.372 5.316-1.65.01-4.386-.827-6.08-1.86zm35.58-34.498v-24.383l-2.25-.603c-3.471-.93-11.332-.74-14.184.345l-2.565.975v46.923l3.25.403c1.787.222 6.062.475 9.5.563l6.25.16V353.51zm4.12-33.336c2.935-2.935-5.31-8.28-12.774-8.28-8.158 0-15.15 3.887-13.927 7.742.548 1.726 1.66 1.874 13.116 1.745 7.338-.082 12.96-.582 13.585-1.207zm-8.62-10.764c8.267-.015 9-.176 9-1.977 0-1.113-1.468-2.95-3.397-4.25-4.157-2.801-12.995-3.117-19.082-.681-3.357 1.343-4.02 2.072-4.02 4.417 0 3.293 1.376 4.087 5.5 3.173 1.65-.365 7.05-.672 12-.682zm5.5-30.305c0-15.814.223-18.224 2-21.712 2.512-4.926 2.524-8.13.045-12.195-2.455-4.026-7.941-5.847-14.607-4.847-9.404 1.41-12.929 8.739-8.437 17.542 1.77 3.47 2 5.894 2 21.076v17.155l5.25-.599c2.887-.33 6.825-.202 8.75.282 1.925.485 3.837.928 4.25.984.412.056.75-7.902.75-17.686zm58.5 109.676c-4.075-2.366-6.55-5.362-7.576-9.174-.94-3.491-.783-4.328 1.454-7.707 1.38-2.085 4.784-5.71 7.566-8.056l5.057-4.264v-27.591l-4.308-2.963c-2.368-1.63-5.968-4.803-8-7.05-6.458-7.15-4.87-14.543 5.504-25.633l5.804-6.204v-23.35l-6.957-7.35c-8.412-8.887-9.373-11.548-5.595-15.491 9.688-10.113 31.642-14.33 48.181-9.257 7.797 2.392 16.222 7.598 18.005 11.127 1.76 3.483.583 5.841-6.794 13.607l-6.84 7.2V290.126l5.52 5.962c13.377 14.45 12.56 22.868-3.27 33.715l-3.25 2.227v27.764l4.525 3.783c9.15 7.649 11.39 13.662 7.478 20.08-4.262 6.99-11.585 7.79-20.361 2.224-6.74-4.273-14.495-4.24-21.464.093-5.49 3.413-11.617 4.585-14.678 2.807zm34.5-35.271v-24.383l-2.25-.603c-3.471-.93-11.332-.74-14.184.345l-2.565.975v46.923l3.25.403c1.787.222 6.062.475 9.5.563l6.25.16V353.51zm3.5-34.54c0-4.227-4.607-6.58-12.823-6.55-8.556.031-13.676 2.215-13.676 5.832 0 1.27.194 2.502.431 2.74.237.237 6.2.41 13.25.385 12.792-.046 12.819-.05 12.819-2.407zm-8.18-9.294l8.82.283-.32-2.783c-.938-8.172-25.506-8.537-26.657-.396-.442 3.128 1.518 4.252 5.838 3.347 1.925-.404 7.469-.606 12.32-.45zm6.925-52.283c.959-1.65 1.746-4.828 1.75-7.063.005-3.232-.62-4.663-3.06-7-2.735-2.62-3.752-2.937-9.427-2.937-6.975 0-10.695 1.883-13.505 6.833-1.357 2.393-1.315 3.083.452 7.403 1.633 3.99 2.005 7.75 2.291 23.139l.342 18.374 5.706-.598c3.139-.33 7.282-.253 9.207.168l3.5.767.5-18.043c.407-14.709.822-18.597 2.244-21.043zM57.114 211.867c-1.821-1.11-3.959-3.57-4.75-5.464-2.65-6.34-2.01-8.148 5.56-15.718l7-7v-27.622l-4.955-3.638c-13.782-10.116-14.161-18.221-1.474-31.522l5.658-5.931-.16-12.29-.16-12.29-5.842-6c-9.31-9.562-10.082-12.523-4.54-17.39 15.595-13.692 46.35-13.692 61.945 0 1.94 1.704 3.528 4.01 3.528 5.126 0 3.036-3.216 7.649-9.433 13.532l-5.567 5.268v23.54l5.078 4.962c10.66 10.418 13.074 18.999 7.336 26.089-1.698 2.097-5.16 5.177-7.696 6.843l-4.61 3.03-.041 14.5-.042 14.5 5.5 4.824c9.27 8.13 10.607 14.111 4.595 20.547-4.968 5.318-11.528 5.36-19.255.124-3.738-2.533-5.317-2.96-10.993-2.976-4.825-.014-6.983.41-7.933 1.554-2.1 2.532-8.589 5.428-12.15 5.424-1.809-.002-4.779-.912-6.6-2.022zm35.81-34.35v-24.375l-3.125-.625c-4.646-.929-9.189-.76-12.726.473l-3.15 1.098.006 14.152c.003 7.784.295 18.54.65 23.902l.646 9.75h17.698v-24.375zm4.477-33.425c1.552-4.045-4.908-7.717-13.492-7.669-8.728.05-15.005 3.649-13.446 7.711.761 1.984 26.175 1.944 26.938-.042zm-17.575-10.263c3.09-.712 6.033-.677 9.869.12 4.703.976 5.692.91 7.08-.48 2.084-2.083.758-4.41-3.926-6.89-2.637-1.395-4.971-1.714-10.144-1.385-7.692.489-11.781 2.59-11.781 6.055 0 3.967 1.278 4.337 8.902 2.58zm4.598-14.08c3.01 0 6.38.288 7.487.64 1.966.623 2.013.22 2.013-17.218 0-15.881.22-18.29 2-21.779 2.28-4.472 2.5-7.31.846-10.939-4.729-10.377-25.846-7.007-25.846 4.125 0 1.867.9 5.158 2 7.314 1.776 3.481 2 5.894 2 21.528 0 17.19.047 17.592 2.012 16.968 1.107-.351 4.477-.638 7.488-.638zm67.798 92.184c-3.815-2.326-6.298-6.728-6.298-11.163 0-2.656 1.23-4.452 7-10.222l7-7v-27.52l-3.25-2.226c-15.707-10.762-16.548-19.326-3.268-33.258l5.518-5.788V90.625l-7-7.37c-5.52-5.811-7-8.012-7-10.413 0-8.875 23.598-18.22 40.171-15.91 6.453.9 14.2 3.1 18.329 5.205 4.74 2.417 10.5 7.973 10.5 10.128 0 2.78-3.239 7.238-9.888 13.613l-5.112 4.902v23.358l5.804 6.204c12.723 13.602 12.379 22.67-1.217 32.034l-5.587 3.849V183.178l6.927 6.645c8.15 7.817 9.1 10.317 6.196 16.315-4.086 8.44-11.168 9.906-20.553 4.254-4.995-3.007-6.693-3.5-12.069-3.5-4.47 0-6.63.45-7.562 1.573-2.1 2.532-8.589 5.428-12.15 5.424-1.809-.002-4.73-.883-6.49-1.956zm35.702-34.416v-24.375l-3.125-.625c-4.646-.929-9.189-.76-12.726.473l-3.15 1.098v47.804h19v-24.375zm4-34.633c0-1.82-.94-3.127-3.25-4.52-6.212-3.745-21.565-1.724-23.409 3.08-1.366 3.56.123 4 13.541 4h13.118v-2.56zm-17.098-9.055c3.09-.712 6.033-.677 9.869.12 4.703.976 5.692.91 7.08-.48 2.092-2.092.74-4.443-3.926-6.825-9.18-4.686-26.858.804-21.885 6.796 1.41 1.7 2.891 1.765 8.862.389zm2.292-14.066c2.957-.068 6.823.194 8.591.582l3.215.706v-17.868c0-15.893.22-18.301 2-21.79 2.445-4.798 2.524-7.805.301-11.567-1.644-2.784-7.537-5.94-11.072-5.928-3.692.012-9.593 2.267-11.857 4.531-2.982 2.983-3.123 8.071-.372 13.463 1.775 3.481 2 5.894 2 21.52 0 10.3.377 17.365.908 17.037.5-.31 3.329-.618 6.286-.686zm68.524 92.412c-3.717-2.383-7.132-9.498-6.248-13.02.37-1.478 3.792-5.677 7.602-9.332l6.928-6.645V156.225l-5.588-3.849c-13.596-9.363-13.94-18.432-1.216-32.034l5.804-6.204v-23.12l-6.916-7.04c-7.63-7.767-9.447-11.923-6.593-15.076 5.207-5.754 15.653-10.34 27.234-11.955 16.794-2.343 40.275 6.988 40.275 16.004 0 2.551-1.339 4.535-7 10.374l-7 7.219v12.56c0 12.104.085 12.614 2.367 14.11 3.705 2.427 11.493 13.415 12.207 17.224.355 1.892.365 4.56.021 5.93-.822 3.274-5.84 8.908-11.25 12.631l-4.345 2.99V183.547l7 7c6.018 6.018 7 7.494 7 10.524 0 4.07-3.399 9.677-7.03 11.597-3.854 2.038-10.57.89-15.617-2.667-3.74-2.636-5.318-3.11-10.353-3.11-5.048 0-6.612.473-10.396 3.14-5.574 3.929-12.69 4.832-16.886 2.143zm36.282-34.307v-24.025l-2.565-.975c-1.411-.537-4.532-.976-6.935-.976-2.404 0-5.524.44-6.935.976l-2.565.975v48.049h19v-24.024zm3.816-34.709c.23-1.613-.577-2.759-2.968-4.212-5.11-3.108-10.958-3.58-17.607-1.42-5.2 1.69-5.77 2.156-6.042 4.946l-.3 3.08 13.3-.089c12.939-.087 13.31-.15 13.617-2.305zm-10.816-9.418c10.957.77 10.475.861 10.811-2.047.265-2.292-.326-3.023-3.917-4.856-7.106-3.625-21.789-1.447-22.717 3.37-.784 4.073.494 4.924 6.077 4.044 2.885-.455 7.27-.684 9.746-.51zm7-30.602c0-15.343.221-17.667 2-20.985 2.94-5.487 2.642-10.773-.802-14.217-5.408-5.408-16.65-4.862-21.625 1.051-3.074 3.652-3.182 5.966-.551 11.764 1.73 3.815 1.978 6.56 1.978 22v17.64h19V103.14z" fill="#0e1f0b"/><path d="M57.59 444.276c-26.354-5.7-46.715-24.412-54.824-50.384l-2.342-7.5v-163c0-152.469.113-163.42 1.76-169.5C7.63 33.78 21.529 17.051 40.424 7.862 56.74-.072 48.1.392 179.424.392h117l7.943 2.3c13.328 3.86 22.909 9.485 32.64 19.166 7.126 7.089 9.38 10.153 13.273 18.037 8.225 16.658 7.712 3.77 7.411 186.268l-.267 162.23-2.335 7c-7.813 23.422-26.168 40.88-50.665 48.186-5.6 1.67-13.819 1.802-123 1.982-99.991.165-117.994-.022-123.834-1.285zm245.634-4.125c24.599-6.945 42.176-24.296 49.393-48.759 1.654-5.607 1.79-16.195 2.068-161.976.182-95.129-.076-159.33-.66-164.573-2.644-23.674-16.096-42.936-37.293-53.401-16.215-8.005-9.024-7.632-141.109-7.324l-117.2.274-7.19 2.63c-18.1 6.622-32.286 18.528-39.97 33.545-7.917 15.474-7.435 2.906-7.12 185.825l.28 163 2.206 5.776c4.366 11.438 8.63 18.132 16.758 26.312 11.678 11.753 24.542 18.241 40.26 20.306 3.727.49 57.402.817 119.277.728l112.5-.161 7.8-2.202z"/></svg>