<svg xmlns="http://www.w3.org/2000/svg" width="358.758" height="446.903"><path d="M63.501 445.908c-16.191-2.08-31.646-9.717-43.14-21.315-8.179-8.253-13.482-16.855-17.296-28.053l-2.724-8-.28-160.5C-.129 119.068.121 65.338.837 60.68 5.057 33.26 23.314 12.372 51.341 2.904l7-2.364 117.7-.274c127.492-.297 124.082-.423 137.757 5.1 19.846 8.017 34.938 24.01 41.89 44.396l2.653 7.778.278 162c.25 144.891.11 162.835-1.313 169.91-6.078 30.212-31.493 52.936-63.277 56.578-10.812 1.238-220.803 1.13-230.528-.12zm242.84-7.093c17.941-6.11 32.929-18.685 40.36-33.862 7.684-15.692 7.14-1.828 7.14-181.894 0-160.329-.016-161.617-2.071-169.032-5.223-18.85-18.07-33.873-36.43-42.605-15.384-7.316-6.809-6.882-136-6.882-130.106 0-120.861-.504-137 7.455-13.864 6.837-25.056 18.044-31.496 31.537-6.38 13.368-6.06 3.236-5.768 182.227l.265 162.78 2.217 6.516c7.795 22.901 27.333 40.074 51.783 45.515 4.842 1.077 28.472 1.3 122.5 1.152l116.5-.182 8-2.725zM63.855 392.85c-4.356-2.961-5.98-6.105-6-11.608-.013-4.01.453-4.755 6.986-11.133l7-6.836v-26.136l-4.308-2.964c-2.368-1.63-5.968-4.803-8-7.05-6.574-7.278-4.82-15.43 5.788-26.888l5.52-5.962v-22.795l-6.11-5.969c-6.476-6.325-9.374-11.368-8.365-14.55.88-2.774 8.801-8.525 14.822-10.762 2.834-1.053 8.479-2.47 12.545-3.15 12.537-2.095 28.974 1.76 38.004 8.912l3.824 3.028 1.858-4.12c3.102-6.878 10.23-9.75 15.33-6.178 2.231 1.563 2.321 2.048 1.718 9.277l-.636 7.628 5.779 5.718c5.601 5.543 5.885 5.688 9.248 4.724 4.78-1.371 10.257-1.246 12.346.281 2.405 1.759 3.723 8.146 3.038 14.724-.549 5.263-.428 5.64 2.814 8.753l3.386 3.253 3.349-3.455c3.283-3.387 3.344-3.611 3.136-11.485-.196-7.392-.012-8.232 2.305-10.549 2.787-2.786 5.463-3.086 12.263-1.374l4.54 1.143 5.81-5.893 5.812-5.893-.86-6c-1.099-7.665-.464-10.047 3.065-11.51 5.253-2.175 10.64.463 13.92 6.816l1.19 2.307 3.184-2.116c5.413-3.596 11.391-5.877 19.939-7.61 7.027-1.423 9.352-1.488 16.148-.447 9.61 1.47 17.016 4.131 22.44 8.06 8.257 5.981 7.95 9.153-1.886 19.546l-6.956 7.35v22.349l5.804 6.204c6.968 7.45 9.196 11.808 9.196 17.995 0 4.143-.5 5.174-4.644 9.606-2.554 2.73-6.154 5.897-8 7.038l-3.356 2.075v26.392l5.852 5.151c7.424 6.535 9.618 10.834 8.205 16.08-2.81 10.44-14.053 13.094-24.09 5.69-2.659-1.962-4.556-2.476-9.132-2.476-4.851 0-6.484.498-10.188 3.11-8.164 5.754-17.331 4.736-21.688-2.409-4.108-6.738-2.079-12.443 7.393-20.78l4.648-4.091v-26.694l-3.25-2.227c-15.848-10.858-16.683-19.802-3.236-34.662 5.46-6.034 5.486-6.092 5.486-12.546 0-6.197-.12-6.514-2.677-7.156-2.324-.584-3.463.114-8.643 5.294l-5.967 5.967 1.144 4.54c1.499 5.953 1.448 10.853-.134 13.017-1.722 2.356-8.168 3.724-14.023 2.978-4.793-.611-4.805-.605-9.706 4.773l-4.906 5.386.58 7.523c.475 6.15.291 7.765-1.009 8.844-2.454 2.037-8.8.486-15.384-3.759l-5.775-3.724-4 2.768c-4.213 2.914-11.589 5.848-14.703 5.848-2.684 0-3.673-3.683-3.055-11.375l.543-6.767-4.855-4.93-4.855-4.928h-7.677c-10.33 0-12.474-1.61-12.216-9.171.1-2.938.608-6.464 1.129-7.836.839-2.208.293-3.223-4.766-8.86-5.68-6.328-5.737-6.361-9.879-5.662l-4.166.704V294.272l5.52 5.962c6.897 7.45 9.48 12.425 9.48 18.263 0 3.825-.58 5.178-3.693 8.624-2.031 2.248-5.631 5.421-8 7.051l-4.307 2.964v26.136l7 6.836c6.57 6.416 7 7.105 7 11.235 0 4.977-3.035 10.36-7.03 12.473-3.738 1.976-10.405.874-16.09-2.66-7.081-4.402-14.01-4.394-20.276.023-6.128 4.32-12.765 4.95-17.59 1.67zm35.986-34.693v-23.883l-2.25-.603c-3.444-.923-10.324-.743-13.185.345l-2.565.975v22.858c0 12.572.3 23.158.666 23.525.367.367 4.417.667 9 .667h8.334v-23.884zm176 0v-23.883l-2.25-.603c-3.444-.923-10.324-.743-13.185.345l-2.565.975v22.858c0 12.572.3 23.158.666 23.525.367.367 4.417.667 9 .667h8.334v-23.884zm-172.5-34.574c0-1.005-1.27-2.775-2.824-3.935-5.689-4.247-22.676-1.812-22.676 3.252 0 .994.202 2.01.448 2.256.247.247 5.985.405 12.75.351 11.21-.089 12.302-.26 12.302-1.924zm176.312-.296c.382-2.612-3.752-5.002-10.177-5.883-7.903-1.083-17.613 3.627-15.275 7.41.268.435 6.035.749 12.814.697 11.78-.09 12.34-.188 12.638-2.224zm-89.744-.284c.522-.804 1.241-2.587 1.597-3.962.357-1.375 4.386-6.584 8.953-11.575l8.305-9.074-2.338-3.44c-1.286-1.893-3.538-4.083-5.004-4.868-2.634-1.41-2.771-1.316-11.374 7.774-4.789 5.06-9.457 9.196-10.374 9.191-.917-.005-5.525-4.143-10.24-9.197l-8.575-9.189-4.51 4.707c-2.48 2.588-4.508 5.058-4.508 5.49 0 .43 3.825 4.883 8.5 9.893 4.675 5.01 8.5 9.578 8.5 10.151 0 .573.517 2.178 1.15 3.566 1.118 2.455 1.39 2.516 10.06 2.26 6.494-.193 9.166-.66 9.858-1.727zM89.091 313.44c2.337-.31 6.117-.134 8.4.39 4.724 1.085 6.704.315 6.195-2.41-1.156-6.185-21.484-7.164-25.191-1.213-1.508 2.42.99 5.14 4.022 4.379 1.279-.321 4.237-.837 6.574-1.146zm176 0c2.337-.31 6.117-.134 8.4.39 4.724 1.085 6.704.315 6.195-2.41-.502-2.684-6.545-5.376-12.075-5.378-5.462-.002-12.345 2.449-13.21 4.703-.902 2.35 1.421 4.517 4.116 3.84 1.279-.32 4.237-.836 6.574-1.145zm-168.85-13.623l4.22.9-.44-16.934c-.42-16.097-.33-17.13 1.79-20.904 3.34-5.942 3.105-10.225-.774-14.103-2.884-2.885-3.79-3.202-9.148-3.202-6.576 0-10.534 2.08-12.818 6.734-1.067 2.174-.994 3.28.453 6.91 1.36 3.41 1.795 8.247 2.061 22.929l.337 18.606 5.05-.918c3.018-.549 6.747-.556 9.27-.018zm176.19.04l4.41.941v-17.61c0-15.666.234-18.173 2.12-22.724 2.035-4.91 2.052-5.259.422-8.692-5.023-10.586-24.542-7.668-24.542 3.669 0 1.722.84 4.696 1.865 6.61 1.682 3.134 1.816 5.223 1.36 21.123l-.506 17.645 5.23-.951c3.282-.596 6.875-.6 9.641-.01zm-123.233-6.845c.964-1.63 3.527-4.392 5.697-6.136 4.444-3.57 5.075-5.835 1.626-5.835-2.974 0-10.032 6.019-11.656 9.941-2.511 6.062.984 7.7 4.333 2.03zm67.246 1.619c1.221-3.181-5.45-11.46-10.889-13.516-5.063-1.912-4.104 1.235 2.498 8.197 6.65 7.014 7.527 7.57 8.391 5.319zm-68.63-14.59l3.016-2.5-10.968-11.062-10.969-11.06-4.693 4.764-4.693 4.765 10.815 11.595 10.814 11.596 1.83-2.8c1.008-1.539 3.189-3.923 4.848-5.298zm92.786-14.923c.143-.349-1.905-2.766-4.551-5.372l-4.81-4.738-10.64 11.372-10.64 11.372 2.872 2.123c1.58 1.168 3.669 3.473 4.643 5.122l1.77 2.998 10.549-11.121c5.801-6.117 10.664-11.407 10.807-11.756zM65.26 209.125c-1.146-.493-3.283-2.323-4.75-4.068-2.094-2.487-2.67-4.223-2.67-8.047 0-4.713.233-5.104 7-11.765l7-6.89v-26.152l-3.356-2.075c-1.846-1.14-5.446-4.308-8-7.038-4.127-4.413-4.643-5.475-4.643-9.547 0-5.888 2.563-10.837 9.48-18.309l5.52-5.962V86.935l-6.957-7.35C53.901 69.039 53.677 66 62.438 59.974c9.396-6.465 24.36-9.778 35.865-7.94 9.026 1.442 16.348 4.092 21.94 7.94 8.761 6.027 8.537 9.065-1.446 19.613l-6.956 7.35v22.336l5.52 5.962c6.908 7.462 9.48 12.423 9.48 18.288 0 3.934-.552 5.16-4.006 8.908-2.203 2.39-5.803 5.59-8 7.113-3.99 2.765-3.994 2.777-3.994 9.5v6.733l4.25.628c4.197.62 4.32.55 10.013-5.612 3.73-4.037 5.546-6.771 5.148-7.746-1.428-3.493-1.573-13.524-.222-15.311 1.773-2.346 8.145-3.748 13.62-2.998 4.187.574 4.514.415 9.709-4.715l5.376-5.31-.582-6.23c-.776-8.313.06-11.442 3.057-11.442 3.358 0 8.428 1.92 13.86 5.248l4.73 2.899 6.102-3.766c4.69-2.895 7.181-3.78 10.77-3.824l4.669-.057v17.468l4.744 4.747 4.745 4.747 7.9.019c6.478.015 8.3.379 10.118 2.019 1.993 1.797 2.16 2.66 1.648 8.5-.314 3.575-.702 7.227-.863 8.117-.16.89 2.246 4.292 5.349 7.562 5.19 5.469 5.93 5.91 9.25 5.523l3.609-.421v-6.823c0-6.574-.119-6.903-3.25-9.05-15.835-10.848-16.698-20.322-3.158-34.64l5.408-5.719v-23l-6.508-6.557c-9.811-9.887-10.263-14.302-2.042-19.958 5.514-3.794 13.69-6.728 22.603-8.11 14.621-2.27 35.901 4.664 40.875 13.316 2.076 3.613.14 7.507-7.57 15.216l-6.358 6.358V109.36l5.375 5.635c13.175 13.813 12.924 23.6-.858 33.515l-5.517 3.97v25.878l6.465 6.186c3.556 3.402 6.937 7.424 7.513 8.938 1.568 4.124-.336 9.787-4.527 13.467-4.98 4.373-10.136 4.255-17.881-.408-4.852-2.922-6.764-3.5-11.57-3.5-4.142 0-6.14.464-7.128 1.658-1.998 2.415-8.857 5.294-12.672 5.32-4.41.029-8.886-2.413-11.102-6.058l-1.814-2.982-2.631 3.45c-3.393 4.448-8.515 6.27-12.375 4.404-2.695-1.304-2.778-1.584-2.778-9.365v-8.02l-5.401-6.018-5.401-6.018-5.1 1.35c-11.207 2.97-15.356-1.048-14.289-13.842.547-6.55.515-6.657-2.96-10l-3.51-3.38-3.245 3.84c-2.967 3.511-3.206 4.297-2.8 9.203.644 7.754-.434 12.175-3.448 14.15-2.232 1.463-3.41 1.53-9.203.533l-6.643-1.144-5.648 5.576-5.647 5.577.532 7.771c.518 7.55.458 7.82-2.098 9.495-5.001 3.277-11.137.432-14.873-6.897l-1.476-2.897-.608 2.425c-1.094 4.356-6.066 8.106-11.386 8.585-4.151.374-5.586-.048-10.667-3.142-8.008-4.875-14.534-5.01-21.025-.435-4.73 3.334-12.15 4.684-16.186 2.946zm34.58-35.61V149.99l-2.564-.975c-3.29-1.251-9.58-1.251-12.87 0l-2.565.975v47.05h18v-23.525zm176-.414v-23.939l-4.578-.687c-2.519-.377-6.456-.29-8.75.193l-4.171.88-.268 23.746-.269 23.746h18.037V173.1zm-126.202-4.568c.364-1.498-4.244-7.127-7.074-8.641-1.85-.99-3.154.06-12.744 10.261l-10.683 11.364 4.562 5.175 4.562 5.174 10.54-11.053c5.797-6.08 10.674-11.605 10.837-12.28zm86.147 18.063l4.362-4.444-6.072-6.806c-3.34-3.744-8.337-9.018-11.106-11.722l-5.033-4.915-4.048 4.048c-2.226 2.226-4.047 4.803-4.047 5.727 0 1.55 19.507 22.556 20.946 22.556.35 0 2.6-2 4.998-4.444zm-77.944-22.606c0-6.37-11.535-16.94-14.048-12.873-.535.866 1.151 3.168 5.125 6.997 3.257 3.138 5.923 6.206 5.923 6.816 0 .61.675 1.11 1.5 1.11.845 0 1.5-.895 1.5-2.05zm48.064-.571c.772-1.441 3.323-4.31 5.67-6.376 4.846-4.267 5.367-6.003 1.8-6.003-4.603 0-13.522 9.985-12.138 13.59.858 2.236 3.14 1.643 4.668-1.211zm-.24-13.98l2.325-1.617-8.575-8.763c-4.716-4.819-8.574-9.62-8.574-10.668 0-1.049-.737-2.958-1.636-4.242-1.404-2.004-2.221-2.255-5.75-1.767-2.263.312-5.621.032-7.463-.623-3.12-1.111-3.511-1.003-5.75 1.6-1.32 1.536-2.401 3.495-2.401 4.355 0 .86-3.672 5.585-8.16 10.501l-8.161 8.939 2.937 2.693c1.615 1.48 3.73 3.818 4.702 5.193l1.767 2.5 8.051-8.75c4.428-4.813 8.848-8.75 9.823-8.75.974 0 5.727 4.035 10.563 8.966l8.793 8.967 2.592-3.458c1.426-1.901 3.639-4.185 4.917-5.075zm-102.024-10.602c.449-2.33-4.338-5.606-9.274-6.346-5.071-.76-15.313 1.829-16.18 4.09-1.37 3.57.116 4.026 12.788 3.925 10.393-.082 12.412-.348 12.666-1.669zm176 0c.431-2.24-4.168-5.515-8.859-6.307-7.646-1.292-18.135 2.957-16.677 6.755.384 1.002 3.481 1.296 12.87 1.221 10.393-.082 12.412-.348 12.666-1.669zm-188.3-10.25c2.2.024 5.8.247 8 .498 3.721.423 4 .28 4-2.045 0-5.476-12.74-7.89-21.25-4.027-4.323 1.962-5.212 3.665-3.044 5.833.802.802 2.396.954 4.75.453 1.95-.415 5.344-.735 7.544-.712zm176 0c2.2.024 5.8.247 8 .498 3.721.423 4 .28 4-2.045 0-5.226-11.932-7.812-20.403-4.423-4.328 1.732-5.76 3.918-3.976 6.069.838 1.01 2.147 1.182 4.767.626 1.986-.422 5.412-.748 7.612-.725zm-173.5-14.124c.825.215 2.653.645 4.063.956l2.564.565-.444-17.068c-.423-16.239-.336-17.26 1.787-21.038 3.02-5.373 3.049-10.125.08-13.285-5.085-5.413-14.637-5.682-20.354-.573-3.561 3.181-4.007 7.584-1.3 12.82 1.296 2.506 1.604 6.533 1.604 21v17.9l5.25-.833c2.887-.46 5.925-.659 6.75-.444zm178.587.494l4.413.824V98.038c0-15.655.239-18.284 2.029-22.331 2.448-5.535 1.878-8.726-2.168-12.13-4.102-3.452-8.964-4.152-14.406-2.073-7.432 2.838-9.428 8.39-5.59 15.546 1.681 3.134 1.816 5.223 1.36 21.107l-.505 17.628 5.227-.826c2.875-.455 7.213-.455 9.64-.002z" fill="#c2c6c1"/><path d="M63.501 445.908c-16.191-2.08-31.646-9.717-43.14-21.315-8.179-8.253-13.482-16.855-17.296-28.053l-2.724-8-.28-160.5C-.129 119.068.121 65.338.837 60.68 5.057 33.26 23.314 12.372 51.341 2.904l7-2.364 117.7-.274c127.492-.297 124.082-.423 137.757 5.1 19.846 8.017 34.938 24.01 41.89 44.396l2.653 7.778.278 162c.25 144.891.11 162.835-1.313 169.91-6.078 30.212-31.493 52.936-63.277 56.578-10.812 1.238-220.803 1.13-230.528-.12zm242.84-7.093c17.941-6.11 32.929-18.685 40.36-33.862 7.684-15.692 7.14-1.828 7.14-181.894 0-160.329-.016-161.617-2.071-169.032-5.223-18.85-18.07-33.873-36.43-42.605-15.384-7.316-6.809-6.882-136-6.882-130.106 0-120.861-.504-137 7.455-13.864 6.837-25.056 18.044-31.496 31.537-6.38 13.368-6.06 3.236-5.768 182.227l.265 162.78 2.217 6.516c7.795 22.901 27.333 40.074 51.783 45.515 4.842 1.077 28.472 1.3 122.5 1.152l116.5-.182 8-2.725zM64.482 393.142c-4.149-2.735-6.627-7.04-6.635-11.525-.006-3.526.7-4.629 6.994-10.922l7-7-.054-13.578-.054-13.577-5.962-4.252c-13.034-9.295-13.299-17.79-.957-30.643l6.027-6.275v-24.28l-5.955-5.67c-7.407-7.053-9.81-11.584-7.966-15.029 4.07-7.605 26.249-15.5 38.807-13.814 10.895 1.463 22.03 5.852 27.316 10.767l2.703 2.512 1.108-3.358c1.445-4.378 7.246-9.458 10.799-9.458 1.508 0 3.795.737 5.082 1.638 2.22 1.554 2.305 2.033 1.673 9.284l-.667 7.644 5.35 5.886 5.348 5.886 4.644-1.17c7.173-1.805 10.115-1.482 12.833 1.412 2.198 2.34 2.41 3.36 2.27 10.897-.153 8.236-.121 8.347 3.268 11.632l3.422 3.317 3.207-3.207c3.108-3.109 3.198-3.437 2.9-10.602-.534-12.768 3.1-16.314 13.847-13.514l5.52 1.438 5.684-6.086 5.684-6.085-.836-5.935c-.984-6.982.201-10.445 4.034-11.793 3.645-1.282 8.976 1.492 11.967 6.226l2.411 3.816 3.879-2.81c8.71-6.31 23.735-9.7 35.008-7.9 12.275 1.961 25.548 8.491 27.943 13.748 1.51 3.314-.887 7.542-8.395 14.804l-5.888 5.695v23.726l4.514 4.515c9.98 9.98 12.783 18.258 8.537 25.22-1.927 3.161-11.398 11.318-13.141 11.318-.503 0-.91 6.22-.91 13.916v13.917l6.407 6.153c8.422 8.087 9.386 10.431 6.746 16.4-2.234 5.051-6.954 8.604-11.437 8.61-2.868.004-12.087-4.17-13.205-5.977-.346-.56-3.665-1.02-7.376-1.02-5.609 0-7.313.418-10.102 2.476-7.992 5.896-14.81 5.727-20.442-.507-2.892-3.2-3.591-4.773-3.591-8.075 0-3.743.61-4.71 7-11.1l7-7-.026-13.647-.026-13.646-5.141-3.49c-6.56-4.452-10.807-10.23-10.807-14.7 0-4.747 3.337-10.764 9.625-17.356l5.375-5.635v-14.16l-3.072-.675c-1.69-.371-3.152-.509-3.25-.306-.098.202-2.554 2.86-5.458 5.906l-5.279 5.538 1.215 7.082c1.073 6.257 1.019 7.379-.462 9.639-2.102 3.209-7.386 4.717-13.845 3.952-4.908-.581-5.056-.517-9.97 4.307l-4.987 4.898.659 7.119c.748 8.077-.368 11.386-3.836 11.37-2.665-.011-11.873-4.181-15.455-7-2.342-1.841-2.764-1.887-4.668-.508-3.694 2.678-11 6.252-14.183 6.94-4.74 1.024-5.933-1.16-5.627-10.308.254-7.612.253-7.614-3.842-12.363l-4.096-4.75h-7.787c-12.22 0-15.19-3.433-12.571-14.524l1.411-5.976-5.819-5.86c-5.684-5.725-5.914-5.844-9.948-5.162l-4.13.697V295.37l6.026 6.275c12.342 12.854 12.077 21.348-.957 30.643l-5.961 4.252-.054 13.577-.054 13.578 7 7c6.213 6.213 7 7.427 7 10.804 0 4.717-3.194 10.072-7.26 12.175-4.233 2.189-10.075 1.22-15.44-2.562-3.84-2.706-5.175-3.072-11.207-3.072-5.16 0-7.187.408-8.22 1.658-1.938 2.34-8.817 5.295-12.373 5.313-1.65.008-4.287-.833-5.859-1.87zm35.359-34.986v-23.883l-2.25-.603c-3.444-.923-10.324-.743-13.185.345l-2.565.975v47.05h18v-23.884zm176 0v-23.883l-2.25-.603c-3.444-.923-10.324-.743-13.185.345l-2.565.975v47.05h18v-23.884zm-172-34.923c0-3.505-7.664-6.611-14.558-5.9-6.917.714-11.442 3.093-11.442 6.016 0 2.23.162 2.257 13 2.224 12.899-.033 13-.051 13-2.34zm79.93 1.524c4.805.645 6.68-.598 7.6-5.037.448-2.16 3.385-5.943 9.16-11.796l8.5-8.615-1.575-3.047c-1.666-3.22-6.111-7.222-8.024-7.222-.626 0-4.728 3.63-9.115 8.069-4.387 4.438-8.784 8.515-9.772 9.06-1.501.827-3.22-.501-10.5-8.112l-8.704-9.102-3.004 1.878c-1.653 1.033-3.879 3.502-4.947 5.486l-1.943 3.608 8.53 8.849c5.842 6.06 8.734 9.868 9.177 12.081.747 3.735 3.75 5.312 7.867 4.13 1.485-.425 4.522-.529 6.75-.23zm95.862-1.71c-.42-3.58-4.951-5.516-12.792-5.465-7.294.048-13 2.382-13 5.317 0 .994.187 1.995.416 2.224.23.23 6.099.417 13.043.417h12.625l-.292-2.493zm-188.292-9.475c2.2.014 5.8.238 8 .497 3.686.434 4.023.271 4.296-2.072.24-2.061-.381-2.866-3.284-4.25-7.32-3.49-21.453-1.169-22.358 3.673-.491 2.629 1.732 3.715 5.846 2.856 1.925-.402 5.3-.72 7.5-.704zm173-.037c2.2-.33 6.25-.156 9 .386 5.463 1.077 8.115-.114 6.959-3.127-2.51-6.539-25.066-6.002-26.305.626-.428 2.291 1.64 3.803 4.346 3.177 1.1-.254 3.8-.732 6-1.062zm-170-13.941c1.65.327 3.721.796 4.603 1.041 1.438.4 1.553-1.28 1.117-16.368-.424-14.7-.264-17.242 1.272-20.213 3.077-5.95 3.555-8.966 2.008-12.669-3.526-8.439-20.558-8.237-24.12.285-1.218 2.918-1.18 3.84.32 7.595 1.34 3.357 1.78 8.27 2.044 22.888l.337 18.613 4.71-.884c2.59-.486 6.059-.616 7.709-.288zm176 0c1.65.327 3.787.817 4.75 1.088 1.62.456 1.75-.849 1.75-17.61 0-13.972.325-18.608 1.426-20.318 2.165-3.363 2.79-8.87 1.33-11.714-1.59-3.095-7.171-5.997-11.538-5.999-4.035-.002-10.058 2.42-11.834 4.76-1.906 2.51-1.673 9.25.441 12.739 1.626 2.682 1.771 4.868 1.373 20.643l-.445 17.644 4.873-.914c2.68-.503 6.224-.647 7.874-.32zm-120.565-6.804c1.682-2.338 4.409-5.15 6.059-6.25 3.536-2.358 4.036-5.5.874-5.5-3.481 0-8.79 3.926-10.9 8.06-4.147 8.13-1.202 10.87 3.967 3.69zm67.065 1.71c0-6.794-12.722-17.956-14.672-12.874-.472 1.231.375 2.556 2.962 4.632 1.993 1.599 4.58 4.454 5.748 6.344 2.18 3.528 5.962 4.731 5.962 1.898zm-71.031-11.622l4.975-5.163-10.574-11.337c-5.816-6.236-10.866-11.338-11.222-11.338-.357 0-2.586 2.25-4.955 5-3.899 4.528-4.175 5.188-2.922 6.976 1.214 1.734 18.832 20.661 19.475 20.923.136.055 2.486-2.222 5.223-5.061zm95.03-18.352c0-.589-2.05-3.076-4.555-5.528l-4.556-4.458-11.032 11.255-11.033 11.255 4.838 5.48 4.839 5.48 10.75-11.208c5.912-6.164 10.75-11.688 10.75-12.276zM64.14 208.08c-3.96-2.414-6.3-6.76-6.3-11.703 0-3.338.788-4.532 7-10.61l7-6.85V164.98c0-7.71-.406-13.94-.91-13.94-.5 0-3.225-1.83-6.055-4.067-12.099-9.563-12.115-17.773-.06-30.327l6.026-6.275V86.53l-6.843-7.048c-8.647-8.908-9.448-11.515-4.963-16.146 7.903-8.162 25.735-13.253 39.15-11.179 12.435 1.923 23.184 7.18 27.195 13.302 1.483 2.263 1.482 2.733-.005 5.868-.89 1.874-4.298 6-7.575 9.17l-5.96 5.764v24.109l6.027 6.275c12.054 12.554 12.038 20.764-.06 30.327-2.83 2.237-5.556 4.068-6.056 4.068s-.91 3.317-.91 7.372v7.372l4.196.671c4.103.656 4.33.538 10.09-5.22l5.891-5.893-1.083-3.901c-1.898-6.837-1.405-11.761 1.448-14.44 2.271-2.135 3.371-2.371 10.338-2.223l7.796.167 4.412-4.5 4.412-4.499v-8.583c0-6.59.353-8.809 1.52-9.554 2.237-1.427 8.944.669 14.841 4.637l5.005 3.369 3.622-2.462c5.224-3.549 11.59-6.266 14.743-6.291 3.424-.028 4.263 2.705 3.481 11.333l-.557 6.145 4.906 5.301 4.905 5.302 5.799-.656c7.377-.835 12.85 1.172 13.828 5.07.693 2.761.04 10.713-1.126 13.725-.492 1.269.914 3.373 5.179 7.75 5.576 5.725 6.031 5.98 9.604 5.378l3.75-.632-.026-7.12-.026-7.118-5.141-3.49c-6.56-4.452-10.807-10.23-10.807-14.7 0-4.747 3.337-10.764 9.625-17.356l5.375-5.635v-24.57l-5.041-4.572c-9.846-8.932-11.226-13.98-5.255-19.223 8.436-7.406 24.676-11.744 37.279-9.957 8.388 1.19 16.198 4.025 22.396 8.13 8.818 5.841 8.58 9.034-1.441 19.369l-6.938 7.155v23.506l4.676 4.672c13.97 13.953 13.908 22.624-.238 33.305l-5.438 4.106v26.593l6.407 6.153c8.422 8.087 9.386 10.431 6.746 16.4-4.02 9.086-12.885 11.007-21.8 4.723-3.759-2.65-5.306-3.11-10.452-3.11-5.135 0-6.725.471-10.601 3.138-8.216 5.653-17.47 4.521-21.282-2.603-.746-1.394-1.618-2.529-1.937-2.522-.32.007-1.589 1.568-2.82 3.468-2.721 4.202-7.351 5.79-11.761 4.037l-3-1.192v-17.232l-5.35-5.43-5.351-5.43-5.15 1.372c-7.007 1.865-8.105 1.767-11.344-1.019-2.657-2.286-2.807-2.86-2.833-10.864-.026-8.015-.188-8.634-3.14-11.997l-3.114-3.546-3.35 3.456c-3.254 3.358-3.35 3.691-3.359 11.827-.009 7.475-.269 8.647-2.434 10.954-2.717 2.896-4.624 3.114-12.113 1.386l-5.19-1.198-5.275 5.944-5.274 5.945.52 7.604c.49 7.143.38 7.703-1.833 9.253-1.296.907-3.268 1.648-4.383 1.646-3.436-.006-8.183-3.62-10.143-7.723l-1.868-3.91-1.7 3.798c-3.714 8.296-12.898 9.986-21.463 3.948-3.898-2.747-5.21-3.11-11.26-3.11-5.009 0-7.2.423-8.154 1.574-2.1 2.53-8.589 5.427-12.15 5.423-1.809-.002-4.73-.882-6.49-1.956zm35.7-34.924v-23.883l-2.25-.603c-3.443-.923-10.323-.743-13.184.345l-2.565.975v47.05h18v-23.884zm176 0v-23.883l-2.25-.603c-3.443-.923-10.323-.743-13.184.345l-2.565.975v47.05h18v-23.884zm-126-5.255c0-2.026-6.405-8.861-8.304-8.861-1.098 0-14.23 12.879-20.668 20.27l-2.413 2.77 4.943 5.066 4.943 5.067 10.75-11.259c5.912-6.192 10.75-12.066 10.75-13.053zm86.485 19.155l4.909-4.984-8.895-9.266c-4.893-5.097-9.914-10.364-11.159-11.706-2.103-2.266-2.454-2.337-4.953-1-1.479.792-3.794 3.11-5.145 5.151l-2.456 3.712 10.83 11.538c5.956 6.346 11.084 11.539 11.395 11.539.31 0 2.774-2.243 5.474-4.984zm-78.49-23.766c-.013-4.872-5.742-11.396-11.214-12.77-4.567-1.146-4.386 1.482.406 5.9 2.456 2.266 5.27 5.357 6.255 6.87.984 1.512 2.412 2.75 3.174 2.75.845 0 1.382-1.071 1.378-2.75zm48.94-.644c1.153-1.866 3.665-4.589 5.581-6.05 1.917-1.462 3.485-3.31 3.485-4.107 0-1.978-4.436-1.865-7.577.192-2.792 1.83-7.423 9.126-7.423 11.696 0 2.933 3.722 1.847 5.934-1.73zm-3.972-9.762l4.97-5.155-6.949-7.708c-3.821-4.239-7.631-8.274-8.466-8.967-.834-.693-1.517-2.297-1.517-3.565 0-3.682-2.727-5.643-7.4-5.324-2.255.155-5.536-.065-7.292-.489-4.257-1.027-6.987.58-7.822 4.605-.467 2.25-3.282 5.9-9.1 11.798l-8.425 8.539 5.134 5.326 5.133 5.326 8.817-8.775c8.714-8.674 8.845-8.757 11.265-7.172 1.346.882 5.503 5.004 9.237 9.16 3.735 4.156 6.938 7.557 7.118 7.557.18 0 2.564-2.32 5.297-5.156zm-98.962-14.543c0-3.442-5.198-5.734-13-5.734-7.803 0-13 2.292-13 5.734 0 2.218.185 2.25 13 2.25s13-.032 13-2.25zm176-.108c0-3.611-7.672-6.625-14.749-5.793-6.607.776-11.251 3.03-11.251 5.459 0 .994.206 2.014.46 2.267.252.252 6.102.44 13 .416 12.416-.042 12.54-.065 12.54-2.349zm-186.5-9.378c2.75.156 6.125.374 7.5.484 2.053.165 2.5-.246 2.5-2.3 0-3.396-5.323-5.996-12.282-5.998-8.784-.003-14.445 3.36-12.814 7.61.515 1.343 1.41 1.471 5.357.767 2.606-.465 6.989-.718 9.739-.563zm169.45.102c3.656-.784 6.48-.776 10.235.029 4.161.892 5.452.845 6.537-.24 5.087-5.087-10.541-9.936-20.626-6.4-3.879 1.36-5.703 3.67-4.787 6.058.74 1.926 1.894 2 8.641.553zM93.144 114.505c.658.199 2.596.601 4.305.895l3.11.533-.502-16.517c-.48-15.835-.404-16.71 1.84-21.197 4.309-8.619 2.319-15.193-5.213-17.222-7.49-2.016-15.89.867-17.707 6.08-.856 2.455-.732 3.966.595 7.28 1.303 3.253 1.75 8.317 2.013 22.777l.337 18.594 5.013-.792c2.757-.436 5.55-.63 6.209-.431zm174.197.249c2.763 0 6.012.313 7.219.696l2.194.697.342-18.304c.285-15.322.658-19.08 2.291-23.071 1.94-4.74 1.94-4.789-.048-8.466-3.708-6.862-14.838-8.217-21.494-2.617-2.455 2.066-3.004 3.29-3 6.69.001 2.288.821 5.51 1.821 7.16 1.628 2.686 1.771 4.872 1.368 20.859l-.45 17.858 2.366-.751c1.301-.413 4.627-.751 7.39-.751z" fill="#bebebe"/><path d="M64.034 445.985C46.9 443.712 34.016 437.26 21.27 424.57c-6.964-6.933-10.02-10.888-13.164-17.03-8.447-16.508-7.766-.287-7.766-185v-164l2.724-8C11.44 25.95 30.977 8.052 55.994 2.055 64.09.114 67.78.053 179.025.047 303.207.037 300.2-.082 313.838 5.46c15.724 6.39 30.086 19.784 37.517 34.99 8.04 16.454 7.581 4.669 7.266 186.59l-.28 161.5-2.824 8c-3.453 9.784-7.138 16.345-13.077 23.287-10.101 11.806-23.293 20.233-38.313 24.474l-7.786 2.2-113 .16c-62.15.089-115.839-.215-119.307-.676zm243.197-7.235c18.53-6.553 32.232-18.256 40.045-34.206 7.017-14.324 6.566-1.859 6.55-181.149-.017-180.738.494-167.846-7.236-182.741-4.92-9.481-15.943-21.176-24.915-26.435-7.298-4.278-17.722-7.883-26.436-9.143-9.318-1.347-222.479-1.347-231.796 0C47.722 7.35 35.39 13.566 23.846 25.04 15.09 33.74 9.814 42.914 6.813 54.649 4.89 62.166 4.84 66.395 4.84 223.489c0 140.372.194 161.898 1.509 167.09 4.909 19.385 17.655 35.053 35.683 43.866 16.06 7.85 8.871 7.478 140.308 7.275l117-.18 7.89-2.79zM64.482 393.142c-4.149-2.735-6.627-7.04-6.635-11.525-.006-3.526.7-4.629 6.994-10.922l7-7-.054-13.578-.054-13.577-5.962-4.252c-13.034-9.295-13.299-17.79-.957-30.643l6.027-6.275v-24.28l-5.955-5.67c-7.407-7.053-9.81-11.584-7.966-15.029 4.07-7.605 26.249-15.5 38.807-13.814 10.895 1.463 22.03 5.852 27.316 10.767l2.703 2.512 1.108-3.358c1.445-4.378 7.246-9.458 10.799-9.458 1.508 0 3.795.737 5.082 1.638 2.22 1.554 2.305 2.033 1.673 9.284l-.667 7.644 5.35 5.886 5.348 5.886 4.644-1.17c7.173-1.805 10.115-1.482 12.833 1.412 2.198 2.34 2.41 3.36 2.27 10.897-.153 8.236-.121 8.347 3.268 11.632l3.422 3.317 3.207-3.207c3.108-3.109 3.198-3.437 2.9-10.602-.534-12.768 3.1-16.314 13.847-13.514l5.52 1.438 5.684-6.086 5.684-6.085-.836-5.935c-.984-6.982.201-10.445 4.034-11.793 3.645-1.282 8.976 1.492 11.967 6.226l2.411 3.816 3.879-2.81c8.71-6.31 23.735-9.7 35.008-7.9 12.275 1.961 25.548 8.491 27.943 13.748 1.51 3.314-.887 7.542-8.395 14.804l-5.888 5.695v23.726l4.514 4.515c9.98 9.98 12.783 18.258 8.537 25.22-1.927 3.161-11.398 11.318-13.141 11.318-.503 0-.91 6.22-.91 13.916v13.917l6.407 6.153c8.422 8.087 9.386 10.431 6.746 16.4-2.234 5.051-6.954 8.604-11.437 8.61-2.868.004-12.087-4.17-13.205-5.977-.346-.56-3.665-1.02-7.376-1.02-5.609 0-7.313.418-10.102 2.476-7.992 5.896-14.81 5.727-20.442-.507-2.892-3.2-3.591-4.773-3.591-8.075 0-3.743.61-4.71 7-11.1l7-7-.026-13.647-.026-13.646-5.141-3.49c-6.56-4.452-10.807-10.23-10.807-14.7 0-4.747 3.337-10.764 9.625-17.356l5.375-5.635v-14.16l-3.072-.675c-1.69-.371-3.152-.509-3.25-.306-.098.202-2.554 2.86-5.458 5.906l-5.279 5.538 1.215 7.082c1.073 6.257 1.019 7.379-.462 9.639-2.102 3.209-7.386 4.717-13.845 3.952-4.908-.581-5.056-.517-9.97 4.307l-4.987 4.898.659 7.119c.748 8.077-.368 11.386-3.836 11.37-2.665-.011-11.873-4.181-15.455-7-2.342-1.841-2.764-1.887-4.668-.508-3.694 2.678-11 6.252-14.183 6.94-4.74 1.024-5.933-1.16-5.627-10.308.254-7.612.253-7.614-3.842-12.363l-4.096-4.75h-7.787c-12.22 0-15.19-3.433-12.571-14.524l1.411-5.976-5.819-5.86c-5.684-5.725-5.914-5.844-9.948-5.162l-4.13.697V295.37l6.026 6.275c12.342 12.854 12.077 21.348-.957 30.643l-5.961 4.252-.054 13.577-.054 13.578 7 7c6.213 6.213 7 7.427 7 10.804 0 4.717-3.194 10.072-7.26 12.175-4.233 2.189-10.075 1.22-15.44-2.562-3.84-2.706-5.175-3.072-11.207-3.072-5.16 0-7.187.408-8.22 1.658-1.938 2.34-8.817 5.295-12.373 5.313-1.65.008-4.287-.833-5.859-1.87zm35.359-34.986v-23.883l-2.25-.603c-3.444-.923-10.324-.743-13.185.345l-2.565.975v47.05h18v-23.884zm176 0v-23.883l-2.25-.603c-3.444-.923-10.324-.743-13.185.345l-2.565.975v47.05h18v-23.884zm-172-34.923c0-3.505-7.664-6.611-14.558-5.9-6.917.714-11.442 3.093-11.442 6.016 0 2.23.162 2.257 13 2.224 12.899-.033 13-.051 13-2.34zm79.93 1.524c4.805.645 6.68-.598 7.6-5.037.448-2.16 3.385-5.943 9.16-11.796l8.5-8.615-1.575-3.047c-1.666-3.22-6.111-7.222-8.024-7.222-.626 0-4.728 3.63-9.115 8.069-4.387 4.438-8.784 8.515-9.772 9.06-1.501.827-3.22-.501-10.5-8.112l-8.704-9.102-3.004 1.878c-1.653 1.033-3.879 3.502-4.947 5.486l-1.943 3.608 8.53 8.849c5.842 6.06 8.734 9.868 9.177 12.081.747 3.735 3.75 5.312 7.867 4.13 1.485-.425 4.522-.529 6.75-.23zm95.862-1.71c-.42-3.58-4.951-5.516-12.792-5.465-7.294.048-13 2.382-13 5.317 0 .994.187 1.995.416 2.224.23.23 6.099.417 13.043.417h12.625l-.292-2.493zm-188.292-9.475c2.2.014 5.8.238 8 .497 3.686.434 4.023.271 4.296-2.072.24-2.061-.381-2.866-3.284-4.25-7.32-3.49-21.453-1.169-22.358 3.673-.491 2.629 1.732 3.715 5.846 2.856 1.925-.402 5.3-.72 7.5-.704zm173-.037c2.2-.33 6.25-.156 9 .386 5.463 1.077 8.115-.114 6.959-3.127-2.51-6.539-25.066-6.002-26.305.626-.428 2.29 1.64 3.803 4.346 3.177 1.1-.254 3.8-.732 6-1.062zm-170-13.941c1.65.327 3.721.796 4.603 1.041 1.438.4 1.553-1.28 1.117-16.368-.424-14.7-.264-17.242 1.272-20.213 3.077-5.95 3.555-8.966 2.008-12.669-3.526-8.439-20.558-8.237-24.12.285-1.218 2.918-1.18 3.84.32 7.595 1.34 3.357 1.78 8.27 2.044 22.888l.337 18.613 4.71-.884c2.59-.486 6.059-.616 7.709-.288zm176 0c1.65.327 3.787.817 4.75 1.088 1.62.456 1.75-.849 1.75-17.61 0-13.972.325-18.608 1.426-20.318 2.165-3.363 2.79-8.87 1.33-11.714-1.59-3.095-7.171-5.997-11.538-5.999-4.035-.002-10.058 2.42-11.834 4.76-1.906 2.51-1.673 9.25.441 12.739 1.626 2.682 1.771 4.868 1.373 20.643l-.445 17.644 4.873-.914c2.68-.503 6.224-.647 7.874-.32zm-120.565-6.804c1.682-2.338 4.409-5.15 6.059-6.25 3.536-2.358 4.036-5.5.874-5.5-3.481 0-8.79 3.926-10.9 8.06-4.147 8.13-1.202 10.87 3.967 3.69zm67.065 1.71c0-6.794-12.722-17.956-14.672-12.874-.472 1.231.375 2.556 2.962 4.632 1.993 1.599 4.58 4.454 5.748 6.344 2.18 3.528 5.962 4.731 5.962 1.898zm-71.031-11.622l4.975-5.163-10.574-11.337c-5.816-6.236-10.866-11.338-11.222-11.338-.357 0-2.586 2.25-4.955 5-3.899 4.528-4.175 5.188-2.922 6.976 1.214 1.734 18.832 20.661 19.475 20.923.136.055 2.486-2.222 5.223-5.061zm95.03-18.352c0-.589-2.05-3.076-4.555-5.528l-4.556-4.458-11.032 11.255-11.033 11.255 4.838 5.48 4.839 5.48 10.75-11.208c5.912-6.164 10.75-11.688 10.75-12.276zM64.14 208.08c-3.96-2.414-6.3-6.76-6.3-11.703 0-3.338.788-4.532 7-10.61l7-6.85V164.98c0-7.71-.406-13.94-.91-13.94-.5 0-3.225-1.83-6.055-4.067-12.099-9.563-12.115-17.773-.06-30.327l6.026-6.275V86.53l-6.843-7.048c-8.647-8.908-9.448-11.515-4.963-16.146 7.903-8.162 25.735-13.253 39.15-11.179 12.435 1.923 23.184 7.18 27.195 13.302 1.483 2.263 1.482 2.733-.005 5.868-.89 1.874-4.298 6-7.575 9.17l-5.96 5.764v24.109l6.027 6.275c12.054 12.554 12.038 20.764-.06 30.327-2.83 2.237-5.556 4.068-6.056 4.068s-.91 3.317-.91 7.372v7.372l4.196.671c4.103.656 4.33.538 10.09-5.22l5.891-5.893-1.083-3.901c-1.898-6.837-1.405-11.761 1.448-14.44 2.271-2.135 3.371-2.371 10.338-2.223l7.796.167 4.412-4.5 4.412-4.499v-8.583c0-6.59.353-8.809 1.52-9.554 2.237-1.427 8.944.669 14.841 4.637l5.005 3.369 3.622-2.462c5.224-3.549 11.59-6.266 14.743-6.291 3.424-.028 4.263 2.705 3.481 11.333l-.557 6.145 4.906 5.301 4.905 5.302 5.799-.656c7.377-.835 12.85 1.172 13.828 5.07.693 2.761.04 10.713-1.126 13.725-.492 1.269.914 3.373 5.179 7.75 5.576 5.725 6.031 5.98 9.604 5.378l3.75-.632-.026-7.12-.026-7.118-5.141-3.49c-6.56-4.452-10.807-10.23-10.807-14.7 0-4.747 3.337-10.764 9.625-17.356l5.375-5.635v-24.57l-5.041-4.572c-9.846-8.932-11.226-13.98-5.255-19.223 8.436-7.406 24.676-11.744 37.279-9.957 8.388 1.19 16.198 4.025 22.396 8.13 8.818 5.841 8.58 9.034-1.441 19.369l-6.938 7.155v23.506l4.676 4.672c13.97 13.953 13.908 22.624-.238 33.305l-5.438 4.106v26.593l6.407 6.153c8.422 8.087 9.386 10.431 6.746 16.4-4.02 9.086-12.885 11.007-21.8 4.723-3.759-2.65-5.306-3.11-10.452-3.11-5.135 0-6.725.471-10.601 3.138-8.216 5.653-17.47 4.521-21.282-2.603-.746-1.394-1.618-2.529-1.937-2.522-.32.007-1.589 1.568-2.82 3.468-2.721 4.202-7.351 5.79-11.761 4.037l-3-1.192v-17.232l-5.35-5.43-5.351-5.43-5.15 1.372c-7.007 1.865-8.105 1.767-11.344-1.019-2.657-2.286-2.807-2.86-2.833-10.864-.026-8.015-.188-8.634-3.14-11.997l-3.114-3.546-3.35 3.456c-3.254 3.358-3.35 3.691-3.359 11.827-.009 7.475-.269 8.647-2.434 10.954-2.717 2.896-4.624 3.114-12.113 1.386l-5.19-1.198-5.275 5.944-5.274 5.945.52 7.604c.49 7.143.38 7.703-1.833 9.253-1.296.907-3.268 1.648-4.383 1.646-3.436-.006-8.183-3.62-10.143-7.723l-1.868-3.91-1.7 3.798c-3.714 8.296-12.898 9.986-21.463 3.948-3.898-2.747-5.21-3.11-11.26-3.11-5.009 0-7.2.423-8.154 1.574-2.1 2.53-8.589 5.427-12.15 5.423-1.809-.002-4.73-.882-6.49-1.956zm35.7-34.924v-23.883l-2.25-.603c-3.443-.923-10.323-.743-13.184.345l-2.565.975v47.05h18v-23.884zm176 0v-23.883l-2.25-.603c-3.443-.923-10.323-.743-13.184.345l-2.565.975v47.05h18v-23.884zm-126-5.255c0-2.026-6.405-8.861-8.304-8.861-1.098 0-14.23 12.879-20.668 20.27l-2.413 2.77 4.943 5.066 4.943 5.067 10.75-11.259c5.912-6.192 10.75-12.066 10.75-13.053zm86.485 19.155l4.909-4.984-8.895-9.266c-4.893-5.097-9.914-10.364-11.159-11.706-2.103-2.266-2.454-2.337-4.953-1-1.479.792-3.794 3.11-5.145 5.151l-2.456 3.712 10.83 11.538c5.956 6.346 11.084 11.539 11.395 11.539.31 0 2.774-2.243 5.474-4.984zm-78.49-23.766c-.013-4.872-5.742-11.396-11.214-12.77-4.567-1.146-4.386 1.482.406 5.9 2.456 2.266 5.27 5.357 6.255 6.87.984 1.512 2.412 2.75 3.174 2.75.845 0 1.382-1.071 1.378-2.75zm48.94-.644c1.153-1.866 3.665-4.589 5.581-6.05 1.917-1.462 3.485-3.31 3.485-4.107 0-1.978-4.436-1.865-7.577.192-2.792 1.83-7.423 9.126-7.423 11.696 0 2.933 3.722 1.847 5.934-1.73zm-3.972-9.762l4.97-5.155-6.949-7.708c-3.821-4.239-7.631-8.274-8.466-8.967-.834-.693-1.517-2.297-1.517-3.565 0-3.682-2.727-5.643-7.4-5.324-2.255.155-5.536-.065-7.292-.489-4.257-1.027-6.987.58-7.822 4.605-.467 2.25-3.282 5.9-9.1 11.798l-8.425 8.539 5.134 5.326 5.133 5.326 8.817-8.775c8.714-8.674 8.845-8.757 11.265-7.172 1.346.882 5.503 5.004 9.237 9.16 3.735 4.156 6.938 7.557 7.118 7.557.18 0 2.564-2.32 5.297-5.156zm-98.962-14.543c0-3.442-5.198-5.734-13-5.734-7.803 0-13 2.292-13 5.734 0 2.218.185 2.25 13 2.25s13-.032 13-2.25zm176-.108c0-3.611-7.672-6.625-14.749-5.793-6.607.776-11.251 3.03-11.251 5.459 0 .994.206 2.014.46 2.267.252.252 6.102.44 13 .416 12.416-.042 12.54-.065 12.54-2.349zm-186.5-9.378c2.75.156 6.125.374 7.5.484 2.053.165 2.5-.246 2.5-2.3 0-3.396-5.323-5.996-12.282-5.998-8.784-.003-14.445 3.36-12.814 7.61.515 1.343 1.41 1.471 5.357.767 2.606-.465 6.989-.718 9.739-.563zm169.45.102c3.656-.784 6.48-.776 10.235.029 4.161.892 5.452.845 6.537-.24 5.087-5.087-10.541-9.936-20.626-6.4-3.879 1.36-5.703 3.67-4.787 6.058.74 1.926 1.894 2 8.641.553zM93.144 114.505c.658.199 2.596.601 4.305.895l3.11.533-.502-16.517c-.48-15.835-.404-16.71 1.84-21.197 4.309-8.619 2.319-15.193-5.213-17.222-7.49-2.016-15.89.867-17.707 6.08-.856 2.455-.732 3.966.595 7.28 1.303 3.253 1.75 8.317 2.013 22.777l.337 18.594 5.013-.792c2.757-.436 5.55-.63 6.209-.431zm174.197.249c2.763 0 6.012.313 7.219.696l2.194.697.342-18.304c.285-15.322.658-19.08 2.291-23.071 1.94-4.74 1.94-4.789-.048-8.466-3.708-6.862-14.838-8.217-21.494-2.617-2.455 2.066-3.004 3.29-3 6.69.001 2.288.821 5.51 1.821 7.16 1.628 2.686 1.771 4.872 1.368 20.859l-.45 17.858 2.366-.751c1.301-.413 4.627-.751 7.39-.751z" fill="#868f85"/><path d="M64.034 445.985C46.9 443.712 34.016 437.26 21.27 424.57c-6.964-6.933-10.02-10.888-13.164-17.03-8.447-16.508-7.766-.287-7.766-185v-164l2.724-8C11.44 25.95 30.977 8.052 55.994 2.055 64.09.114 67.78.053 179.025.047 303.207.037 300.2-.082 313.838 5.46c15.724 6.39 30.086 19.784 37.517 34.99 8.04 16.454 7.581 4.669 7.266 186.59l-.28 161.5-2.824 8c-3.453 9.784-7.138 16.345-13.077 23.287-10.101 11.806-23.293 20.233-38.313 24.474l-7.786 2.2-113 .16c-62.15.089-115.839-.215-119.307-.676zm243.197-7.235c18.53-6.553 32.232-18.256 40.045-34.206 7.017-14.324 6.566-1.859 6.55-181.149-.017-180.738.494-167.846-7.236-182.741-4.92-9.481-15.943-21.176-24.915-26.435-7.298-4.278-17.722-7.883-26.436-9.143-9.318-1.347-222.479-1.347-231.796 0C47.722 7.35 35.39 13.566 23.846 25.04 15.09 33.74 9.814 42.914 6.813 54.649 4.89 62.166 4.84 66.395 4.84 223.489c0 140.372.194 161.898 1.509 167.09 4.909 19.385 17.655 35.053 35.683 43.866 16.06 7.85 8.871 7.478 140.308 7.275l117-.18 7.89-2.79zM63.722 392.593c-3.145-1.777-5.881-7.155-5.881-11.558 0-2.631 1.248-4.45 7-10.202l7-7-.026-13.647-.026-13.646-5.067-3.438c-13.776-9.348-14.042-18.779-.915-32.45l6.034-6.282v-22.15l-6.959-7c-10.027-10.087-10.527-14.37-2.322-19.906 14.415-9.726 36.206-10.875 52.78-2.782 2.75 1.343 6.193 3.558 7.65 4.922l2.651 2.481 1.276-3.08c.702-1.695 2.362-4.371 3.689-5.948 1.95-2.318 3.21-2.865 6.574-2.852 6.465.024 6.893.645 6.524 9.478l-.323 7.76 5.684 6.238 5.685 6.239 5.263-1.365c7.23-1.876 8.54-1.743 11.436 1.152 2.32 2.32 2.501 3.154 2.305 10.583-.213 8.051-.207 8.073 3.418 11.697l3.63 3.631 3.584-3.464c3.492-3.376 3.567-3.608 2.94-9.06-.74-6.406.783-13.41 3.107-14.302 2.369-.908 8.497-.724 12.314.37 3.305.949 3.546.81 9.177-5.25l5.784-6.222-.578-7.224c-.674-8.418.282-10.276 5.286-10.276 4.937 0 7.915 1.748 10.346 6.074l2.175 3.869 4.142-3c6.97-5.05 16.533-7.456 29.262-7.363 12.257.09 18.89 1.894 27.677 7.534 8.242 5.289 7.814 10.135-1.748 19.792l-6.43 6.493v23.467l5.036 5.17c5.86 6.016 9.966 13.51 9.96 18.18-.004 4.76-3.142 9.194-9.926 14.032l-5.962 4.252-.053 13.577-.054 13.578 7 7c5.663 5.663 7 7.593 7 10.107 0 12.017-11.339 17.214-22.34 10.238-3.962-2.513-5.739-2.997-10.945-2.982-5.23.015-6.913.49-10.616 3-8.898 6.029-19.481 3.115-22.25-6.127-1.616-5.394.26-9.11 8.074-15.988l6.077-5.348v-26.509l-2.75-1.744c-10.102-6.405-15.029-13.426-13.712-19.539 1.133-5.264 3.395-8.867 9.663-15.394l5.895-6.14-.298-6.858c-.294-6.748-.347-6.867-3.298-7.402-2.682-.486-3.65.148-9.113 5.979-5.642 6.02-6.046 6.754-5.25 9.53 1.482 5.167 1.054 13.118-.789 14.65-1.047.87-4.587 1.439-9.672 1.556l-8.021.184-5.027 5.027-5.027 5.027.268 8.539.267 8.539h-3.899c-3.652 0-9.461-2.367-15.237-6.209-2.42-1.609-2.69-1.545-8.319 1.964-4.45 2.775-6.918 3.641-10.5 3.686l-4.681.059v-16.358l-4.604-5.321-4.604-5.321h-8.038c-11.976 0-14.074-2.894-11.185-15.428l1.02-4.428-6.146-6.202c-3.596-3.628-6.831-6.07-7.795-5.882-7.69 1.49-7.148.874-7.148 8.124v6.646l6.033 6.283c13.127 13.67 12.861 23.1-.915 32.449l-5.067 3.438-.026 13.646-.025 13.647 7 7c7.386 7.386 8.278 9.714 6.01 15.68-1.855 4.879-5.794 7.527-11.196 7.527-4.687 0-11.893-2.7-13.306-4.986-.344-.558-3.78-1.014-7.634-1.014-6.068 0-7.481.36-10.539 2.693-4.305 3.284-13.249 4.237-17.454 1.86zm36.119-34.534v-23.981l-2.75-.742c-3.972-1.071-11.63-.698-14.23.692-1.815.972-2.12 1.763-1.627 4.229.334 1.668.607 12.201.607 23.408v20.375h18v-23.981zm176.473 7.73c.377-8.937.537-19.624.356-23.748l-.33-7.5-4-1.33c-3.165-1.054-5.095-1.092-9.25-.18l-5.25 1.152v47.857h17.788l.686-16.25zM94.319 325.73c9.463.2 11.208-.54 9.371-3.97-2.438-4.556-15.2-6.29-21.85-2.968-5.863 2.93-5.035 9.16.992 7.457 1.38-.39 6.549-.623 11.487-.519zm176.022-.177c9.139-.011 10-.175 10-1.905 0-5.502-14.998-8.775-22.5-4.91-5.516 2.841-5.073 9.534.5 7.542 1.1-.393 6.5-.72 12-.727zm-92.065-.488c1.555-.59 3.49-.623 4.913-.082 3.567 1.356 6.867-.825 8.682-5.74 1.022-2.767 4.337-7.04 9.46-12.194 7.7-7.745 7.855-7.995 6.485-10.555-.772-1.442-2.945-3.976-4.829-5.63l-3.425-3.007-9.13 9.092c-5.02 5-9.89 9.092-10.818 9.092-.93 0-5.48-3.92-10.111-8.71l-8.422-8.711-3.37 2.594c-1.854 1.427-4.136 3.916-5.072 5.532l-1.701 2.938 7.947 7.9c4.909 4.88 8.38 9.25 9.078 11.429 2.108 6.578 4.79 8.152 10.313 6.052zm-74.389-11.671c1.524-1.524.279-3.727-3.328-5.887-7.88-4.719-24.84-.436-22.492 5.68.431 1.125 3.059 1.399 12.673 1.322 6.765-.053 12.579-.547 13.147-1.115zm176.454-1.328c0-1.7-1.034-3.02-3.5-4.464-8.266-4.844-25.15-.607-22.729 5.703.358.933 3.867 1.253 13.357 1.22l12.872-.046v-2.413zM100.84 283c0-15.564.225-17.98 2-21.461 2.403-4.714 2.542-8.281.439-11.284-4.88-6.967-19.14-6.9-23.735.112-2.23 3.404-2.152 6.37.296 11.172 1.775 3.48 2 5.897 2 21.461v17.539h19V283zm176 .249c0-15.317.228-17.738 2-21.21 2.808-5.505 2.565-9.336-.832-13.138-6.929-7.755-24.168-3.027-24.168 6.628 0 .874.9 3.353 2 5.51 1.778 3.485 2 5.893 2 21.71v17.79h19v-17.29zm-123.986 6.635c5.517-5.661 6.736-7.441 5.838-8.523-3.272-3.943-14.852 6.228-14.852 13.046 0 1.447.46 2.632 1.02 2.632.562 0 4.16-3.22 7.994-7.155zm63.816 4.246c.674-4.6-8.085-14.077-13.021-14.088-3.6-.008-3.078 2.411 1.384 6.423 2.49 2.24 5.538 5.558 6.77 7.373 2.474 3.639 4.36 3.752 4.867.292zm-70.867-11.247l4.97-5.156-8.854-9.594c-4.869-5.277-9.839-10.483-11.044-11.57l-2.191-1.975-4.384 4.975c-2.41 2.737-4.4 5.334-4.422 5.773-.031.647 19.87 22.4 20.708 22.634.136.037 2.484-2.252 5.217-5.087zm95.037-18.358c0-.589-2.043-3.074-4.539-5.524l-4.538-4.454-11.087 11.21-11.087 11.21 4.875 5.521 4.876 5.52 10.75-11.207c5.912-6.164 10.75-11.688 10.75-12.276zM67.382 209.307c-5.434-1.372-9.541-7.085-9.541-13.272 0-2.631 1.248-4.45 7-10.202l7-7-.026-13.647-.026-13.646-5.067-3.438c-13.776-9.348-14.042-18.779-.915-32.45l6.034-6.282V86.959l-6.084-5.71c-9.97-9.358-11.267-13.938-5.403-19.087 1.933-1.697 4.884-3.794 6.558-4.66 5.017-2.594 17.837-5.463 24.339-5.448 11.367.028 24.382 4.23 30.943 9.99 6.035 5.3 4.776 9.575-5.784 19.642l-5.57 5.309v22.375l6.034 6.283c13.127 13.67 12.861 23.1-.915 32.449l-5.067 3.438-.026 7.133c-.023 6.563.155 7.182 2.225 7.736 4.71 1.262 6.42.52 12.141-5.26l5.83-5.89-1.261-7.056c-1.119-6.259-1.074-7.342.402-9.593 2.06-3.146 5.01-3.929 12.703-3.372l5.993.433 5.093-5.385 5.093-5.385-.664-6.74c-.851-8.64-.269-10.121 3.98-10.121 3.927 0 7.373 1.366 13.105 5.196l4.165 2.783 4.926-3.315c6.531-4.396 13.609-6.436 15.855-4.572 1.35 1.12 1.513 2.583.961 8.667l-.663 7.319 4.924 5.523 4.923 5.524 8.704.187c10.79.232 12.018 1.3 11.134 9.688-.318 3.025-.858 6.505-1.2 7.733-.494 1.783.577 3.47 5.311 8.369 5.848 6.05 5.987 6.125 10.112 5.428l4.183-.706v-13.348l-6.567-4.762c-13.434-9.743-13.288-19.714.489-33.177l5.078-4.962V87.109l-6.963-6.963c-9.996-9.996-10.446-13.324-2.605-19.25 7.64-5.775 16.916-8.372 29.568-8.28 12.161.09 20.31 2.291 28.17 7.612 8.197 5.55 7.816 9.913-1.73 19.8l-6.44 6.672.011 11.92.012 11.92 5.081 5c8.685 8.546 11.745 17.023 8.447 23.4-1.615 3.123-6.758 7.927-11.46 10.705l-3.091 1.826V178.918l7 6.849c6.394 6.257 7 7.2 7 10.913 0 8.569-7.76 14.578-15.971 12.367-2.065-.556-5.412-2.135-7.437-3.509-5.284-3.586-14.745-3.575-19.622.023-8.545 6.305-18.448 5.084-21.938-2.703l-1.65-3.682-1.89 3.509c-4.429 8.222-16.613 8.617-16.433.533.033-1.473.408-4.79.833-7.373l.774-4.694-6.106-6.051c-5.941-5.889-6.198-6.025-9.576-5.056-1.91.548-5.361.996-7.671.996-5.956 0-7.313-2.294-7.313-12.352 0-7.587-.138-8.058-3.401-11.67l-3.402-3.765-3.598 3.685c-3.524 3.609-3.6 3.853-3.6 11.671 0 10.459-1.267 12.43-7.991 12.43-2.683 0-6.145-.487-7.693-1.082-2.675-1.03-3.103-.768-8.589 5.25l-5.773 6.333.625 7.077c.732 8.304-.531 10.423-6.216 10.423-5.108 0-7.25-1.559-9.847-7.165l-2.32-5.005-.677 3.088c-.865 3.935-5.537 8.635-9.341 9.396-3.802.76-8.995-.701-13.603-3.829-3.018-2.047-4.867-2.485-10.496-2.485-4.982 0-7.186.424-8.133 1.566-2.755 3.319-10.96 5.823-15.404 4.701zm32.459-36.2c0-23.615-.029-23.942-2.152-24.615-3.265-1.037-10.994-.779-14.22.474-2.537.987-2.798 1.475-2.25 4.22.342 1.707.622 12.272.622 23.479v20.375h18v-23.933zm176.346 11.776c1.043-19.394.82-34.623-.52-35.45-2.449-1.514-9.064-2.1-13.36-1.184l-4.466.953v47.838h17.692l.654-12.157zm-132.307-8.927l6.872-7.583-2.332-3.431c-1.282-1.888-3.528-4.072-4.991-4.855-2.598-1.39-2.82-1.264-9.7 5.515-3.871 3.815-8.872 9.105-11.112 11.753l-4.072 4.815 4.86 4.935 4.86 4.934 4.371-4.25c2.404-2.337 7.464-7.662 11.244-11.833zm92.39 11.156l4.853-4.927-10.891-11.567c-5.99-6.362-11.393-11.57-12.006-11.573-1.863-.01-6.333 3.992-7.947 7.114l-1.522 2.943 10.764 11.469c5.92 6.308 11.019 11.469 11.33 11.469.31 0 2.749-2.218 5.418-4.928zm-77.841-24.383c-.816-4.079-4.602-8.843-8.84-11.126-6.36-3.425-9.364.373-3.498 4.423 1.787 1.234 4.715 4.201 6.506 6.595 3.842 5.133 6.848 5.19 5.832.108zm48.058.56c1.512-2.062 4.572-5.398 6.801-7.414 3.133-2.833 3.786-3.939 2.876-4.876-4.098-4.222-17.256 8.563-14.963 14.538.915 2.384 2.334 1.781 5.286-2.247zm-3.667-10.422l4.986-5.173-7.83-8.577c-4.579-5.017-8.348-10.162-9.081-12.394-1.538-4.683-4.859-6.55-8.611-4.84-1.763.804-3.14.854-4.435.161-4.7-2.515-10.008.32-10.008 5.347 0 1.048-3.856 5.846-8.568 10.662l-8.568 8.756 5.206 5.206 5.206 5.206 8.133-8.09c5.125-5.1 8.929-8.091 10.286-8.091 1.43 0 4.757 2.86 9.891 8.5 4.256 4.675 7.889 8.5 8.073 8.5.184 0 2.578-2.328 5.32-5.173zM88.34 140.535c2.2-.33 6.133-.186 8.74.321 6.045 1.175 8.664-.26 6.807-3.73-3.83-7.155-24.851-6.504-25.884.8-.39 2.763 1.466 4.335 4.338 3.671 1.1-.254 3.8-.732 6-1.062zm176 0c2.2-.33 6.133-.186 8.74.321 8.74 1.7 10.513-2.998 2.686-7.12-4.055-2.136-13.673-1.946-18.425.364-5.095 2.476-4.263 8.713 1 7.497 1.1-.254 3.8-.732 6-1.062zm-159.982-12.4c.81-2.113-3.382-5.982-7.756-7.16-7.29-1.963-18.761 1.634-18.761 5.883 0 1.017.187 2.036.416 2.265.23.23 6.075.417 12.99.417 9.876 0 12.687-.302 13.11-1.406zm176.288-.322c.822-4.27-8.46-8.398-16.256-7.229-5.448.817-10.55 3.851-10.55 6.274 0 1.017.214 2.061.474 2.322.26.26 6.22.43 13.244.379 11.027-.082 12.813-.32 13.088-1.746zM101.098 97.54c.28-14.921.667-18.801 2.258-22.681 2.38-5.806 1.436-9.262-3.426-12.538-5.84-3.935-14.794-2.86-19.628 2.354-2.984 3.22-3.117 6.655-.461 11.865 1.774 3.48 2 5.898 2 21.461l.001 17.539h18.917l.339-18zm175.743.71c0-15.317.228-17.738 2-21.21 5.13-10.058-1.064-17.921-13.2-16.755-4.353.418-5.703 1.072-8.488 4.111-3.826 4.175-4.097 6.682-1.312 12.144 1.775 3.48 2 5.897 2 21.461v17.539h19V98.25z" fill="#7f7f7f"/><path d="M57.84 444.492c-22.002-4.783-40.53-18.797-49.869-37.72C.375 391.38.871 404.187.855 223.45.841 65.08.886 61.18 2.823 53.608 8.024 33.273 21.12 17.356 40.341 8.009 56.653.077 48.079.54 178.84.54 311.052.54 302.875.06 320.22 8.865c7.17 3.64 10.832 6.351 17.12 12.672 8.912 8.957 13.344 15.781 17.321 26.669l2.68 7.335.279 164.5c.312 183.848.754 171.726-6.801 186.786-6.775 13.507-17.788 24.405-31.478 31.15-16.375 8.07-5.788 7.475-137.5 7.715-98.08.178-118.575-.02-124-1.2zm245.301-4.194c20.092-5.672 35.687-18.478 44.763-36.758 7.304-14.709 6.9-4.218 6.92-179.793.019-176.698.448-165.935-7.248-181.707-3.307-6.779-5.879-10.24-12.694-17.084-7.091-7.122-10.164-9.382-18.044-13.272-16.197-7.996-9.22-7.61-137.497-7.61-127.906 0-121.367-.352-137.038 7.382-16.656 8.22-29.33 22.746-35.035 40.153l-2.927 8.93v162c0 179.1-.476 166.3 6.738 181.5 3.305 6.964 5.592 10.054 12.648 17.091 12.33 12.297 24.924 18.713 40.837 20.803 3.727.49 57.177.817 118.777.728l112-.161 7.8-2.202zM63.722 392.593c-3.145-1.777-5.881-7.155-5.881-11.558 0-2.631 1.248-4.45 7-10.202l7-7-.026-13.647-.026-13.646-5.067-3.438c-13.776-9.348-14.042-18.779-.915-32.45l6.034-6.282v-22.15l-6.959-7c-10.027-10.087-10.527-14.37-2.322-19.906 14.415-9.726 36.206-10.875 52.78-2.782 2.75 1.343 6.193 3.558 7.65 4.922l2.651 2.481 1.276-3.08c.702-1.695 2.362-4.371 3.689-5.948 1.95-2.318 3.21-2.865 6.574-2.852 6.465.024 6.893.645 6.524 9.478l-.323 7.76 5.684 6.238 5.685 6.239 5.263-1.365c7.23-1.876 8.54-1.743 11.436 1.152 2.32 2.32 2.501 3.154 2.305 10.583-.213 8.051-.207 8.073 3.418 11.697l3.63 3.631 3.584-3.464c3.492-3.376 3.567-3.608 2.94-9.06-.74-6.406.783-13.41 3.107-14.302 2.369-.908 8.497-.724 12.314.37 3.305.949 3.546.81 9.177-5.25l5.784-6.222-.578-7.224c-.674-8.418.282-10.276 5.286-10.276 4.937 0 7.915 1.748 10.346 6.074l2.175 3.869 4.142-3c6.97-5.05 16.533-7.456 29.262-7.363 12.257.09 18.89 1.894 27.677 7.534 8.242 5.289 7.814 10.135-1.748 19.792l-6.43 6.493v23.467l5.036 5.17c5.86 6.016 9.966 13.51 9.96 18.18-.004 4.76-3.142 9.194-9.926 14.032l-5.962 4.252-.053 13.577-.054 13.578 7 7c5.663 5.663 7 7.593 7 10.107 0 12.017-11.339 17.214-22.34 10.238-3.962-2.513-5.739-2.997-10.945-2.982-5.23.015-6.913.49-10.616 3-8.898 6.029-19.481 3.115-22.25-6.127-1.616-5.394.26-9.11 8.074-15.988l6.077-5.348v-26.509l-2.75-1.744c-10.102-6.405-15.029-13.426-13.712-19.539 1.133-5.264 3.395-8.867 9.663-15.394l5.895-6.14-.298-6.858c-.294-6.748-.347-6.867-3.298-7.402-2.682-.486-3.65.148-9.113 5.979-5.642 6.02-6.046 6.754-5.25 9.53 1.482 5.167 1.054 13.118-.789 14.65-1.047.87-4.587 1.439-9.672 1.556l-8.021.184-5.027 5.027-5.027 5.027.268 8.539.267 8.539h-3.899c-3.652 0-9.461-2.367-15.237-6.209-2.42-1.609-2.69-1.545-8.319 1.964-4.45 2.775-6.918 3.641-10.5 3.686l-4.681.059v-16.358l-4.604-5.321-4.604-5.321h-8.038c-11.976 0-14.074-2.894-11.185-15.428l1.02-4.428-6.146-6.202c-3.596-3.628-6.831-6.07-7.795-5.882-7.69 1.49-7.148.874-7.148 8.124v6.646l6.033 6.283c13.127 13.67 12.861 23.1-.915 32.449l-5.067 3.438-.026 13.646-.025 13.647 7 7c7.386 7.386 8.278 9.714 6.01 15.68-1.855 4.879-5.794 7.527-11.196 7.527-4.687 0-11.893-2.7-13.306-4.986-.344-.558-3.78-1.014-7.634-1.014-6.068 0-7.481.36-10.539 2.693-4.305 3.284-13.249 4.237-17.454 1.86zm36.119-34.534v-23.981l-2.75-.742c-3.972-1.071-11.63-.698-14.23.692-1.815.972-2.12 1.763-1.627 4.229.334 1.668.607 12.201.607 23.408v20.375h18v-23.981zm176.473 7.73c.377-8.937.537-19.624.356-23.748l-.33-7.5-4-1.33c-3.165-1.054-5.095-1.092-9.25-.18l-5.25 1.152v47.857h17.788l.686-16.25zM94.319 325.73c9.463.2 11.208-.54 9.371-3.97-2.438-4.556-15.2-6.29-21.85-2.968-5.863 2.93-5.035 9.16.992 7.457 1.38-.39 6.549-.623 11.487-.519zm176.022-.177c9.139-.011 10-.175 10-1.905 0-5.502-14.998-8.775-22.5-4.91-5.516 2.841-5.073 9.534.5 7.542 1.1-.393 6.5-.72 12-.727zm-92.065-.488c1.555-.59 3.49-.623 4.913-.082 3.567 1.356 6.867-.825 8.682-5.74 1.022-2.767 4.337-7.04 9.46-12.194 7.7-7.745 7.855-7.995 6.485-10.555-.772-1.442-2.945-3.976-4.829-5.63l-3.425-3.007-9.13 9.092c-5.02 5-9.89 9.092-10.818 9.092-.93 0-5.48-3.92-10.111-8.71l-8.422-8.711-3.37 2.594c-1.854 1.427-4.136 3.916-5.072 5.532l-1.701 2.938 7.947 7.9c4.909 4.88 8.38 9.25 9.078 11.429 2.108 6.578 4.79 8.152 10.313 6.052zm-74.389-11.671c1.524-1.524.279-3.727-3.328-5.887-7.88-4.719-24.84-.436-22.492 5.68.431 1.125 3.059 1.399 12.673 1.322 6.765-.053 12.579-.547 13.147-1.115zm176.454-1.328c0-1.7-1.034-3.02-3.5-4.464-8.266-4.844-25.15-.607-22.729 5.703.358.933 3.867 1.253 13.357 1.22l12.872-.046v-2.413zM100.84 283c0-15.564.225-17.98 2-21.461 2.403-4.714 2.542-8.281.439-11.284-4.88-6.967-19.14-6.9-23.735.112-2.23 3.404-2.152 6.37.296 11.172 1.775 3.48 2 5.897 2 21.461v17.539h19V283zm176 .249c0-15.317.228-17.738 2-21.21 2.808-5.505 2.565-9.336-.832-13.138-6.929-7.755-24.168-3.027-24.168 6.628 0 .874.9 3.353 2 5.51 1.778 3.485 2 5.893 2 21.71v17.79h19v-17.29zm-123.986 6.635c5.517-5.661 6.736-7.441 5.838-8.523-3.272-3.943-14.852 6.228-14.852 13.046 0 1.447.46 2.632 1.02 2.632.562 0 4.16-3.22 7.994-7.155zm63.816 4.246c.674-4.6-8.085-14.077-13.021-14.088-3.6-.008-3.078 2.411 1.384 6.423 2.49 2.24 5.538 5.558 6.77 7.373 2.474 3.639 4.36 3.752 4.867.292zm-70.867-11.247l4.97-5.156-8.854-9.594c-4.869-5.277-9.839-10.483-11.044-11.57l-2.191-1.975-4.384 4.975c-2.41 2.737-4.4 5.334-4.422 5.773-.031.647 19.87 22.4 20.708 22.634.136.037 2.484-2.252 5.217-5.087zm95.037-18.358c0-.589-2.043-3.074-4.539-5.524l-4.538-4.454-11.087 11.21-11.087 11.21 4.875 5.521 4.876 5.52 10.75-11.207c5.912-6.164 10.75-11.688 10.75-12.276zM67.382 209.307c-5.434-1.372-9.541-7.085-9.541-13.272 0-2.631 1.248-4.45 7-10.202l7-7-.026-13.647-.026-13.646-5.067-3.438c-13.776-9.348-14.042-18.779-.915-32.45l6.034-6.282V86.959l-6.084-5.71c-9.97-9.358-11.267-13.938-5.403-19.087 1.933-1.697 4.884-3.794 6.558-4.66 5.017-2.594 17.837-5.463 24.339-5.448 11.367.028 24.382 4.23 30.943 9.99 6.035 5.3 4.776 9.575-5.784 19.642l-5.57 5.309v22.375l6.034 6.283c13.127 13.67 12.861 23.1-.915 32.449l-5.067 3.438-.026 7.133c-.023 6.563.155 7.182 2.225 7.736 4.71 1.262 6.42.52 12.141-5.26l5.83-5.89-1.261-7.056c-1.119-6.259-1.074-7.342.402-9.593 2.06-3.146 5.01-3.929 12.703-3.372l5.993.433 5.093-5.385 5.093-5.385-.664-6.74c-.851-8.64-.269-10.121 3.98-10.121 3.927 0 7.373 1.366 13.105 5.196l4.165 2.783 4.926-3.315c6.531-4.396 13.609-6.436 15.855-4.572 1.35 1.12 1.513 2.583.961 8.667l-.663 7.319 4.924 5.523 4.923 5.524 8.704.187c10.79.232 12.018 1.3 11.134 9.688-.318 3.025-.858 6.505-1.2 7.733-.494 1.783.577 3.47 5.311 8.369 5.848 6.05 5.987 6.125 10.112 5.428l4.183-.706v-13.348l-6.567-4.762c-13.434-9.743-13.288-19.714.489-33.177l5.078-4.962V87.109l-6.963-6.963c-9.996-9.996-10.446-13.324-2.605-19.25 7.64-5.775 16.916-8.372 29.568-8.28 12.161.09 20.31 2.291 28.17 7.612 8.197 5.55 7.816 9.913-1.73 19.8l-6.44 6.672.011 11.92.012 11.92 5.081 5c8.685 8.546 11.745 17.023 8.447 23.4-1.615 3.123-6.758 7.927-11.46 10.705l-3.091 1.826V178.918l7 6.849c6.394 6.257 7 7.2 7 10.913 0 8.569-7.76 14.578-15.971 12.367-2.065-.556-5.412-2.135-7.437-3.509-5.284-3.586-14.745-3.575-19.622.023-8.545 6.305-18.448 5.084-21.938-2.703l-1.65-3.682-1.89 3.509c-4.429 8.222-16.613 8.617-16.433.533.033-1.473.408-4.79.833-7.373l.774-4.694-6.106-6.051c-5.941-5.889-6.198-6.025-9.576-5.056-1.91.548-5.361.996-7.671.996-5.956 0-7.313-2.294-7.313-12.352 0-7.587-.138-8.058-3.401-11.67l-3.402-3.765-3.598 3.685c-3.524 3.609-3.6 3.853-3.6 11.671 0 10.459-1.267 12.43-7.991 12.43-2.683 0-6.145-.487-7.693-1.082-2.675-1.03-3.103-.768-8.589 5.25l-5.773 6.333.625 7.077c.732 8.304-.531 10.423-6.216 10.423-5.108 0-7.25-1.559-9.847-7.165l-2.32-5.005-.677 3.088c-.865 3.935-5.537 8.635-9.341 9.396-3.802.76-8.995-.701-13.603-3.829-3.018-2.047-4.867-2.485-10.496-2.485-4.982 0-7.186.424-8.133 1.566-2.755 3.319-10.96 5.823-15.404 4.701zm32.459-36.2c0-23.615-.029-23.942-2.152-24.615-3.265-1.037-10.994-.779-14.22.474-2.537.987-2.798 1.475-2.25 4.22.342 1.707.622 12.272.622 23.479v20.375h18v-23.933zm176.346 11.776c1.043-19.394.82-34.623-.52-35.45-2.449-1.514-9.064-2.1-13.36-1.184l-4.466.953v47.838h17.692l.654-12.157zm-132.307-8.927l6.872-7.583-2.332-3.431c-1.282-1.888-3.528-4.072-4.991-4.855-2.598-1.39-2.82-1.264-9.7 5.515-3.871 3.815-8.872 9.105-11.112 11.753l-4.072 4.815 4.86 4.935 4.86 4.934 4.371-4.25c2.404-2.337 7.464-7.662 11.244-11.833zm92.39 11.156l4.853-4.927-10.891-11.567c-5.99-6.362-11.393-11.57-12.006-11.573-1.863-.01-6.333 3.992-7.947 7.114l-1.522 2.943 10.764 11.469c5.92 6.308 11.019 11.469 11.33 11.469.31 0 2.749-2.218 5.418-4.928zm-77.841-24.383c-.816-4.079-4.602-8.843-8.84-11.126-6.36-3.425-9.364.373-3.498 4.423 1.787 1.234 4.715 4.201 6.506 6.595 3.842 5.133 6.848 5.19 5.832.108zm48.058.56c1.512-2.062 4.572-5.398 6.801-7.414 3.133-2.833 3.786-3.939 2.876-4.876-4.098-4.222-17.256 8.563-14.963 14.538.915 2.384 2.334 1.781 5.286-2.247zm-3.667-10.422l4.986-5.173-7.83-8.577c-4.579-5.017-8.348-10.162-9.081-12.394-1.538-4.683-4.859-6.55-8.611-4.84-1.763.804-3.14.854-4.435.161-4.7-2.515-10.008.32-10.008 5.347 0 1.048-3.856 5.846-8.568 10.662l-8.568 8.756 5.206 5.206 5.206 5.206 8.133-8.09c5.125-5.1 8.929-8.091 10.286-8.091 1.43 0 4.757 2.86 9.891 8.5 4.256 4.675 7.889 8.5 8.073 8.5.184 0 2.578-2.328 5.32-5.173zM88.34 140.535c2.2-.33 6.133-.186 8.74.321 6.045 1.175 8.664-.26 6.807-3.73-3.83-7.155-24.851-6.504-25.884.8-.39 2.763 1.466 4.335 4.338 3.671 1.1-.254 3.8-.732 6-1.062zm176 0c2.2-.33 6.133-.186 8.74.321 8.74 1.7 10.513-2.998 2.686-7.12-4.055-2.136-13.673-1.946-18.425.364-5.095 2.476-4.263 8.713 1 7.497 1.1-.254 3.8-.732 6-1.062zm-159.982-12.4c.81-2.113-3.382-5.982-7.756-7.16-7.29-1.963-18.761 1.634-18.761 5.883 0 1.017.187 2.036.416 2.265.23.23 6.075.417 12.99.417 9.876 0 12.687-.302 13.11-1.406zm176.288-.322c.822-4.27-8.46-8.398-16.256-7.229-5.448.817-10.55 3.851-10.55 6.274 0 1.017.214 2.061.474 2.322.26.26 6.22.43 13.244.379 11.027-.082 12.813-.32 13.088-1.746zM101.098 97.54c.28-14.921.667-18.801 2.258-22.681 2.38-5.806 1.436-9.262-3.426-12.538-5.84-3.935-14.794-2.86-19.628 2.354-2.984 3.22-3.117 6.655-.461 11.865 1.774 3.48 2 5.898 2 21.461l.001 17.539h18.917l.339-18zm175.743.71c0-15.317.228-17.738 2-21.21 5.13-10.058-1.064-17.921-13.2-16.755-4.353.418-5.703 1.072-8.488 4.111-3.826 4.175-4.097 6.682-1.312 12.144 1.775 3.48 2 5.897 2 21.461v17.539h19V98.25z" fill="#495547"/><path d="M58.206 444.558c-14.51-3.184-26.715-9.9-37.385-20.569-8.807-8.807-14.938-19.555-18.012-31.573C.891 384.916.841 380.583.841 223.04.84 65.398.89 61.167 2.813 53.649 9.82 26.25 34.056 5.176 63.223 1.119 73.92-.368 284.722-.374 295.412 1.11c24.837 3.455 45.578 18.415 56.047 40.427 6.864 14.432 6.44 1.737 6.147 184.081l-.264 164.919-2.318 6.5c-7.813 21.911-24.993 38.198-48.682 46.15l-7 2.35-117.5.183c-95.301.148-118.66-.072-123.635-1.164zm235.497-2.56c27.071-3.395 49.383-21.268 57.898-46.38l2.74-8.078.267-161.23c.299-179.74.7-168.688-6.67-183.77-9.25-18.928-24.415-31.083-45.507-36.478-7.715-1.973-10.75-2.022-123.09-2.022-111.339 0-115.437.066-122.886 1.97-20.679 5.29-36.542 17.986-45.638 36.53-7.443 15.173-7.07 4.99-6.757 184.5l.28 160.5 2.824 7.99c3.94 11.15 8.836 18.844 17.237 27.09 10.546 10.35 25.107 17.463 39.6 19.344 9.655 1.252 219.737 1.283 229.702.034zM62.32 390.718c-6.773-6.772-5.381-13.388 4.57-21.72l4.95-4.145v-14.371c0-13.671-.104-14.428-2.144-15.52-3.427-1.834-10.88-9.071-12.432-12.07-.783-1.515-1.423-3.758-1.423-4.987 0-3.886 4.096-10.896 10.148-17.365l5.852-6.255v-22.29l-7.5-8.02c-8.763-9.37-9.485-12.088-4.358-16.402 16.313-13.726 46.384-13.741 62.678-.031l3.105 2.612 1.482-3.547c2.374-5.682 5.885-8.567 10.425-8.567 5.622 0 6.542 1.603 5.887 10.263l-.548 7.237 5.986 6.1 5.987 6.099 5.854-1.353c10.538-2.434 13.525.694 12.75 13.35-.44 7.187-.436 7.203 3.203 10.756l3.645 3.56 3.452-3.564c3.375-3.483 3.452-3.749 3.452-11.9 0-6.794.352-8.726 1.905-10.442 2.177-2.407 8.188-2.841 13.536-.977 3.15 1.098 3.402.968 9.19-4.75l5.952-5.88-.655-7.565c-.767-8.87.417-10.934 6.275-10.934 2.787 0 4.292.775 6.929 3.57 1.852 1.965 3.368 4.215 3.368 5 0 1.93 1.258 1.798 4.115-.433 15.921-12.435 45.102-11.764 60.742 1.396 5.162 4.343 4.432 7.35-3.857 15.899l-7 7.219v24.581l5.644 6.097c8.548 9.233 10.937 15.713 7.932 21.522-1.55 3-9.004 10.237-12.432 12.071-2.036 1.09-2.144 1.856-2.144 15.205v14.056l6.432 6.215c9.003 8.698 9.757 13.612 3.109 20.26-4.471 4.471-9.694 4.575-17.195.342-4.495-2.537-6.391-3-12.272-3-3.826 0-7.238.456-7.583 1.014-1.34 2.169-8.614 4.986-12.875 4.986-5.417 0-9.903-3.308-11.645-8.586-1.74-5.274-.637-7.645 7.026-15.11l6.988-6.804.007-13.59c.007-13.125-.07-13.625-2.243-14.618-4.661-2.13-12.703-10.404-13.857-14.258-1.011-3.373-.851-4.445 1.396-9.354 1.396-3.05 5.07-8.158 8.164-11.352l5.625-5.808-.289-6.972c-.288-6.948-.3-6.975-3.459-7.618-2.899-.59-3.702-.109-9.38 5.62-6.06 6.115-6.182 6.344-5.08 9.507.622 1.782 1.13 5.392 1.13 8.02 0 7.532-3.373 9.62-13.988 8.657l-5.81-.526-4.765 5.519-4.765 5.52-.086 8.126-.086 8.127-3.176.307c-3.18.309-9.095-2.145-14.703-6.098-2.532-1.785-3.134-1.863-5-.644-5.312 3.47-13.151 6.935-15.694 6.935-3.603 0-4.306-2.204-3.456-10.832l.657-6.668-5.1-5-5.1-4.998h-8.05c-7.378-.002-8.219-.21-10.077-2.502-2.017-2.487-2.092-6.142-.306-15 .404-2.002-.64-3.745-5.245-8.75l-5.75-6.251-4.5.775-4.5.775-.297 6.797-.297 6.798 5.9 6.306c7.45 7.965 10.656 14.277 9.738 19.173-.742 3.952-6.777 11.122-12.165 14.452l-3.378 2.088V364.906l4.378 3.587c2.408 1.974 5.61 5.366 7.117 7.54 3.542 5.112 2.874 9.838-2.096 14.807-3.22 3.22-3.784 3.415-8.7 3.008-3.524-.293-6.562-1.322-9.21-3.122-3.323-2.258-5.028-2.686-10.687-2.686-5.763 0-7.414.432-11.463 3-6.88 4.363-13.291 4.248-17.86-.322zm37.288-32.928l-.267-24.25-5-.829c-3.492-.578-6.207-.426-9 .505-3.402 1.133-3.991 1.743-3.938 4.078.035 1.51.147 12.196.25 23.746l.188 21h18.035l-.268-24.25zm176.579 12.093c.36-6.687.654-17.456.654-23.933 0-12.973.458-12.104-7.091-13.439-1.975-.349-5.463-.13-7.75.486l-4.16 1.12v47.923H275.534l.654-12.157zM94.341 325.559c9.259-.018 10-.165 10-1.98 0-1.113-1.469-2.95-3.398-4.25-4.157-2.8-12.995-3.116-19.082-.68-3.357 1.342-4.02 2.07-4.02 4.416 0 3.104 1.462 4.13 4.5 3.155 1.1-.353 6.5-.65 12-.661zm177.187.237c8.468.265 9.9-.33 8.84-3.669-1.489-4.692-14.463-6.697-22.507-3.479-3.357 1.343-4.02 2.072-4.02 4.417 0 3.349 1.316 4.038 6 3.143 1.925-.367 7.184-.553 11.687-.412zm-92.803-.664c.76-.482 2.56-.553 4-.158 4.624 1.27 7.49-.139 8.886-4.367.756-2.291 4.586-7.48 9.462-12.822l8.192-8.973-2.096-3.636c-1.153-2-3.562-4.503-5.354-5.561l-3.258-1.925-8.608 9.21c-4.735 5.067-9.365 9.196-10.29 9.176-.924-.02-5.199-3.858-9.5-8.529-4.3-4.67-8.346-8.495-8.992-8.5-1.785-.012-7.222 4.89-8.793 7.928-1.365 2.64-1.217 2.89 6.88 11.63 4.83 5.216 8.779 10.469 9.487 12.62.666 2.027 1.75 3.904 2.406 4.171 1.99.81 6.109.667 7.578-.264zM104.34 311.99c0-3.89-7.352-7.232-14.588-6.633-7.737.642-11.912 2.935-11.912 6.544v2.81l13.25-.136 13.25-.134v-2.45zm176.33.687c1.248-6.476-14.783-9.816-24.067-5.015-2.497 1.291-3.802 5.006-2.29 6.518.26.26 6.22.43 13.244.379 11.422-.085 12.806-.284 13.114-1.882zm-179.83-29.427c0-15.317.228-17.738 2-21.21 3.002-5.886 2.622-9.578-1.4-13.6-3.065-3.065-3.958-3.4-9.05-3.4-12.258 0-17.56 7.181-12.55 17 1.771 3.472 2 5.894 2 21.21l.001 17.29H100.841v-17.29zm176 .251c0-15.064.231-17.493 2-20.961 3.43-6.73 1.914-13.851-3.472-16.306-4.481-2.041-12.78-1.499-16.617 1.087-4.862 3.276-5.807 6.732-3.427 12.538 1.591 3.88 1.978 7.76 2.259 22.68l.338 18h18.919v-17.038zm-129 12.429c0-.61 2.703-3.715 6.007-6.898 4.127-3.976 5.816-6.29 5.393-7.39-2.137-5.572-15.4 5.233-15.4 12.545 0 2.186.467 2.853 2 2.853 1.1 0 2-.5 2-1.11zm68.639-.393c1.08-2.812-.77-6.891-5.077-11.199-4.42-4.42-9.067-5.753-10.156-2.914-.498 1.297 12.087 15.401 13.875 15.55.43.036 1.04-.61 1.358-1.437zm-71.18-11.854c2.222-2.395 4.716-4.59 5.54-4.875 1.063-.367-1.708-3.869-9.5-12.004-6.05-6.318-11.466-11.549-12.037-11.625-.57-.077-3.228 2.085-5.906 4.803l-4.868 4.942 10.78 11.558c5.928 6.357 11.042 11.558 11.365 11.558.322 0 2.404-1.96 4.626-4.357zm86.06-7.448l10.804-11.305-5.412-5.492-5.411-5.491-11.02 11.69-11.018 11.691 5.019 5.285c2.76 2.906 5.292 5.204 5.625 5.105.334-.098 5.47-5.266 11.412-11.483zM65.86 208.3c-4.098-2.075-8.02-7.505-8.02-11.106 0-3.319 3.812-8.738 9.475-13.472l4.526-3.783v-14.415c0-13.715-.104-14.47-2.145-15.563-3.427-1.834-10.88-9.071-12.432-12.07-.783-1.515-1.423-3.758-1.423-4.987 0-3.834 3.843-10.405 10.04-17.169l5.96-6.503v-22.32l-7.5-7.873c-9.138-9.593-9.67-12.114-3.58-16.937 7.45-5.9 20.1-10.063 30.58-10.063 10.48 0 23.13 4.162 30.58 10.063 6.09 4.823 5.557 7.344-3.58 16.937l-7.5 7.873v22.752l3.135 2.937c1.724 1.616 5.058 5.52 7.41 8.675 4.993 6.703 6.347 12.136 4.104 16.474-1.611 3.115-9.01 10.341-12.505 12.211-1.898 1.016-2.144 2.004-2.144 8.594 0 8.183-.645 7.388 7.254 8.951 1.14.226 3.798-1.918 7.588-6.117l5.835-6.465-1.375-5.193c-1.557-5.875-1.023-10.849 1.377-12.842 1.032-.857 4.523-1.393 9.554-1.468l7.929-.117 5.012-4.883 5.012-4.882-.571-6.5c-.314-3.575-.29-7.564.053-8.864.564-2.137 1.046-2.316 5.016-1.869 2.616.295 6.76 1.957 10.244 4.107l5.851 3.612 5.84-3.517c3.213-1.934 7.626-3.997 9.807-4.584 5.74-1.546 6.857.326 6.035 10.115l-.63 7.5 5.026 4.905 5.027 4.905 7.538-.22c6.964-.203 7.74-.018 10.183 2.424 2.79 2.79 2.771 2.488.872 14.486-.508 3.21-.081 3.984 5.153 9.338 5.612 5.74 5.781 5.827 10.039 5.188l4.33-.649v-7.278c0-6.823-.158-7.35-2.538-8.435-4.597-2.095-12.407-10.251-13.587-14.19-.985-3.288-.82-4.411 1.339-9.112 1.354-2.95 5.01-8.051 8.124-11.338l5.663-5.975V86.935l-6.957-7.35c-9.808-10.362-10.153-13.425-2.14-18.98 13.942-9.66 36.408-11.015 51.963-3.133 14.176 7.183 14.532 11.67 1.884 23.705l-4.75 4.52v24.536l5.953 6.496c6.77 7.39 9.608 13.505 8.646 18.635-.704 3.75-5.562 9.299-11.695 13.358l-3.904 2.583v28.548l4.95 4.145c5.69 4.765 9.05 9.687 9.05 13.262 0 3.649-3.99 9.016-8.258 11.11-3.218 1.577-4.247 1.66-7.486.6-2.066-.675-5.323-2.286-7.238-3.58-5.055-3.412-15.78-3.385-20.335.051-8.519 6.428-18.571 4.695-22.203-3.827l-1.247-2.926-1.597 3.088c-3.526 6.818-10.603 9.297-14.739 5.161-1.804-1.805-2.01-2.831-1.445-7.25l.853-6.687c.107-.846-2.348-4.36-5.455-7.81l-5.65-6.27-5.9 1.218c-11.155 2.304-13.3.213-13.3-12.967 0-7.573-.077-7.813-3.588-11.185l-3.587-3.446-3.413 3.916c-3.28 3.766-3.412 4.23-3.412 12.028 0 10.28-1.326 12.556-7.314 12.556-2.31 0-5.768-.45-7.684-1-3.408-.977-3.62-.861-9.637 5.25l-6.152 6.25 1.057 6.74c.944 6.015.862 6.956-.761 8.75-4.124 4.556-12.991.85-15.667-6.55l-1.25-3.459-2.047 4.199c-4.298 8.822-11.6 10.571-20.648 4.947-4.362-2.712-5.943-3.127-11.905-3.127-3.78 0-7.156.456-7.501 1.014-.881 1.425-7.412 4.62-10.991 5.375-1.969.416-4.197.028-6.48-1.128zm33.748-35.484l-.267-24.223-4.395-.75c-4.4-.75-11.774.308-13 1.866-.358.456-.492 11.292-.296 24.08l.354 23.25h17.872l-.268-24.223zm176.579 12.066c.36-6.687.654-17.478.654-23.981v-11.824l-2.701-.678c-3.667-.92-10.205-.947-13.55-.056l-2.75.734v47.962H275.534l.654-12.157zm-135.902-4.619c10.58-10.979 10.83-11.343 9.497-13.834-1.44-2.692-7.435-8.39-8.825-8.39-.937 0-22.116 22.478-22.116 23.472 0 1.338 8.537 10.552 9.538 10.295.572-.147 5.93-5.341 11.906-11.543zm96 6.832l4.87-4.944-7.074-7.806c-3.89-4.294-9.119-9.796-11.618-12.227l-4.545-4.42-4.539 4.539c-2.496 2.496-4.538 5.271-4.538 6.167 0 1.529 20.5 23.635 21.918 23.635.361 0 2.848-2.225 5.526-4.944zm-77.805-21.559c1.822-4.749-6.956-15.497-12.657-15.497-4.353 0-3.813 2.401 1.768 7.856 2.612 2.554 5.533 5.656 6.49 6.894 2.02 2.61 3.582 2.876 4.399.747zm51.472-5.61c6.718-6.812 8.077-9.887 4.37-9.887-4.35 0-11.848 6.63-13.09 11.574-.604 2.41.021 5.426 1.126 5.426.318 0 3.736-3.201 7.594-7.114zm-3.773-9.976l2.838-2.195-8.494-8.608c-5.768-5.847-8.704-9.629-9.152-11.79-.984-4.748-2.783-5.651-11.836-5.941-8.71-.279-11.694.94-11.694 4.78 0 1.015-3.899 6.162-8.663 11.438l-8.663 9.591 3.437 3.157c1.89 1.736 4.236 4.282 5.212 5.657l1.775 2.5 8.2-8.783c4.511-4.83 8.932-8.767 9.826-8.75.893.018 5.574 4.07 10.403 9.005l8.78 8.972 2.596-3.419c1.428-1.88 3.874-4.406 5.435-5.614zm-120.255-9.023c3.81-.817 6.659-.815 10.756.008 4.592.922 5.825.868 7.004-.31 1.931-1.932.89-4.168-3.06-6.577-4.094-2.496-13.048-2.687-18.763-.4-3.317 1.326-4.02 2.085-4.02 4.332 0 4.443.41 4.593 8.083 2.947zm176 0c3.81-.817 6.659-.815 10.756.008 4.592.922 5.825.868 7.004-.31 1.931-1.932.89-4.168-3.06-6.577-4.094-2.496-13.048-2.687-18.763-.4-3.317 1.326-4.02 2.085-4.02 4.333 0 4.442.41 4.592 8.083 2.946zm-157.267-13.622c.23-1.613-.577-2.759-2.968-4.212-5.11-3.108-10.958-3.58-17.608-1.42-5.198 1.69-5.769 2.156-6.041 4.946l-.3 3.08 13.3-.089c12.939-.087 13.31-.15 13.617-2.305zm176 0c.23-1.613-.577-2.759-2.968-4.212-5.11-3.108-10.958-3.58-17.608-1.42-5.198 1.69-5.769 2.156-6.041 4.946l-.3 3.08 13.3-.089c12.939-.087 13.31-.15 13.617-2.305zM100.84 98.25c0-15.317.228-17.738 2-21.21 3.002-5.886 2.622-9.578-1.4-13.6-3.065-3.065-3.958-3.4-9.05-3.4-12.258 0-17.56 7.181-12.55 17 1.771 3.472 2 5.893 2 21.21v17.29h19V98.25zm176 .251c0-15.064.231-17.493 2-20.961 3.047-5.978 2.642-10.058-1.4-14.1-3.105-3.105-3.917-3.4-9.352-3.4-4.541 0-6.755.54-9.337 2.28-4.862 3.277-5.807 6.733-3.427 12.539 1.591 3.88 1.978 7.76 2.259 22.68l.338 18h18.919V98.502z" fill="#0e1f0b"/><path d="M58.206 444.558c-14.51-3.184-26.715-9.9-37.385-20.569-8.807-8.807-14.938-19.555-18.012-31.573C.891 384.916.841 380.583.841 223.04.84 65.398.89 61.167 2.813 53.649 9.82 26.25 34.056 5.176 63.223 1.119 73.92-.368 284.722-.374 295.412 1.11c24.837 3.455 45.578 18.415 56.047 40.427 6.864 14.432 6.44 1.737 6.147 184.081l-.264 164.919-2.318 6.5c-7.813 21.911-24.993 38.198-48.682 46.15l-7 2.35-117.5.183c-95.301.148-118.66-.072-123.635-1.164zm235.497-2.56c27.071-3.395 49.383-21.268 57.898-46.38l2.74-8.078.267-161.23c.299-179.74.7-168.688-6.67-183.77-9.25-18.928-24.415-31.083-45.507-36.478-7.715-1.973-10.75-2.022-123.09-2.022-111.339 0-115.437.066-122.886 1.97-20.679 5.29-36.542 17.986-45.638 36.53-7.443 15.173-7.07 4.99-6.757 184.5l.28 160.5 2.824 7.99c3.94 11.15 8.836 18.844 17.237 27.09 10.546 10.35 25.107 17.463 39.6 19.344 9.655 1.252 219.737 1.283 229.702.034z"/></svg>