<svg xmlns="http://www.w3.org/2000/svg" width="358.408" height="446.548"><path d="M63.628 445.884c-27.756-3.305-51.052-22-60.408-48.478l-2.824-7.99-.267-163.23C-.17 44.138-.573 55.319 6.835 40.416c7.732-15.553 17.568-25.218 33.561-32.978 16.502-8.008 9.086-7.626 142-7.306l118 .284 8.761 3.135c12.441 4.45 19.013 8.646 28.84 18.41 6.893 6.85 9.422 10.224 12.744 17 8.307 16.946 7.655 1.227 7.655 184.455 0 155.213-.088 163.31-1.839 169.5-7.112 25.142-26.301 43.88-52.543 51.305-7.582 2.146-8.155 2.157-120.618 2.312-62.15.086-116.045-.206-119.768-.65zm242.768-7.276c21.498-7.545 36.61-22.18 44.293-42.894l2.707-7.298.281-162c.315-181.502.786-169.073-7.007-184.787-3.209-6.471-5.897-10.02-12.673-16.732-9.518-9.426-17.621-14.307-30.117-18.14l-7.484-2.295-112.868-.306C60.296 3.822 60.175 3.827 46.647 9.521 27.203 17.705 12.35 34.218 6.267 54.416c-1.704 5.656-1.827 15-2.132 163-.226 109.764.006 159.518.772 165.368 2.957 22.597 16.791 41.68 37.445 51.655 15.994 7.725 8.888 7.36 139.544 7.158l116.5-.181 8-2.808zM67.261 387.997c-2.018-1.231-3.756-3.538-4.879-6.478-2.31-6.05-1.205-8.635 7.107-16.616l6.407-6.153-.054-13.167-.054-13.167-5.961-4.252c-7.203-5.136-9.922-9.255-9.927-15.038-.005-5.618 2.63-10.584 9.44-17.784l5.556-5.876v-22.514l-5.567-5.268c-10.072-9.531-11.543-13.995-6.241-18.947 14.848-13.87 47.78-14.32 63.109-.862 6.268 5.503 4.99 10.148-5.55 20.178l-4.75 4.52v23.662l5.374 5.635c13.03 13.66 12.791 22.696-.857 32.516l-5.518 3.97v26.353l7.125 7.125 7.125 7.125-.496 5.167c-.417 4.342-1.073 5.694-4.11 8.478-2.985 2.735-4.407 3.312-8.169 3.312-4.35 0-11.61-2.791-12.966-4.986-.345-.558-3.949-1.014-8.009-1.014-4.06 0-7.664.456-8.009 1.014-1.317 2.132-8.593 4.986-12.701 4.982-2.458-.002-5.629-.82-7.425-1.915zm36.635-34.534V330.01l-3.75-1.041c-2.062-.573-4.425-1.042-5.25-1.042-.825 0-3.187.469-5.25 1.042l-3.75 1.041v46.906h18v-23.453zm3.5-35.051c0-7.212-24.274-7.085-25.303.132-.297 2.081-.024 2.125 12.5 1.996 12.083-.125 12.803-.245 12.803-2.128zm.3-10.699c.458-2.373-4.371-5.61-9.519-6.382-5.222-.783-15.032 1.773-15.946 4.154-1.358 3.54.149 3.998 12.8 3.898 10.392-.083 12.411-.349 12.666-1.67zm-3.8-29.523c0-15.455.205-17.562 1.996-20.5 2.173-3.563 2.603-8.787.974-11.83-3.938-7.36-21.04-6.15-24.025 1.7-1.009 2.654.204 8.675 2.176 10.806.483.522.88 9.072.88 19v18.05h18V278.19zm129.582 108.24c-3.61-3.608-5.292-8.703-4.107-12.435.366-1.152 3.78-5.129 7.588-8.837l6.922-6.742.006-13 .006-13-4.42-2.793c-6.235-3.939-11.173-9.745-11.99-14.099-.964-5.142 2.588-12.522 9.753-20.26l5.66-6.115v-21.581l-6.938-7.156c-10.46-10.787-10.466-15.009-.029-21.283 8.583-5.16 14.932-6.71 27.467-6.712 13.05-.001 21.064 2.289 29 8.287 4.234 3.2 5.048 4.355 5.313 7.537.288 3.465-.24 4.328-6.75 11.042l-7.063 7.284v23.668l5.53 5.797c8.536 8.95 11.234 16.572 8.047 22.735-1.551 3-9.005 10.237-12.433 12.072-2.029 1.086-2.144 1.869-2.144 14.606v13.458l7 6.876c6.153 6.044 7 7.322 7 10.556 0 12-11.019 17.147-22.654 10.58-4.385-2.474-6.446-3-11.772-3-3.55 0-6.738.457-7.083 1.015-1.43 2.314-8.62 4.986-13.418 4.986-4.384 0-5.44-.433-8.491-3.485zm38.186-33.212l.269-23.198-3.769-1.046c-4.692-1.304-5.842-1.304-10.518-.005l-3.75 1.041v46.984l8.75-.29 8.75-.288.268-23.198zm3.632-34.056a30.367 30.367 0 0 0-.25-2.132c-.082-.487-1.68-1.612-3.551-2.5-7.214-3.423-21.599-.868-21.599 3.836 0 2.2.195 2.232 12.75 2.138 9.52-.072 12.725-.412 12.65-1.342zm.1-11.694c0-1.01-1.27-2.785-2.823-3.944-5.69-4.248-22.677-1.812-22.677 3.251 0 .994.188 1.995.417 2.224.229.23 5.966.392 12.75.36 11.28-.05 12.333-.212 12.333-1.891zm-3.5-29.09c0-15.065.232-17.494 2-20.962 4.83-9.472.235-16.5-10.786-16.5-5.8 0-11.17 3.088-12.64 7.27-.734 2.089-.452 3.911 1.237 7.987 1.959 4.726 2.19 7.068 2.19 22.262v16.98h18v-17.038zm-118.98-65.214c-4.363-2.192-8.02-7.553-8.02-11.758 0-3.57 2.976-7.813 9.75-13.902l4.25-3.82v-13.85c0-13.135-.11-13.907-2.144-14.995-3.514-1.88-10.898-9.103-12.526-12.253-2.371-4.584-.978-10.57 4.049-17.398 2.346-3.188 5.696-6.999 7.444-8.47l3.177-2.673V91.79l-7.5-7.873c-6.388-6.706-7.5-8.39-7.5-11.353 0-5.684 8.225-11.252 21.718-14.703 9.619-2.46 16.946-2.46 26.564 0 8.588 2.197 12.558 4.025 17.968 8.277 3.05 2.397 3.75 3.596 3.75 6.426 0 2.964-1.112 4.647-7.5 11.353l-7.5 7.873v22.256l3.178 2.674c1.747 1.47 5.097 5.281 7.443 8.469 5.027 6.828 6.42 12.814 4.05 17.398-1.629 3.15-9.013 10.372-12.527 12.253-2.033 1.088-2.144 1.86-2.144 14.996v13.848l4.25 3.82c10.045 9.03 11.848 13.976 7.48 20.515-4.932 7.383-12.047 8.344-21.046 2.843-6.425-3.928-15.15-4.182-20-.583-3.29 2.44-8.783 4.64-11.583 4.636-.88 0-3.167-.788-5.08-1.75zm33.98-35.641c0-26.468.654-24.607-8.647-24.607-9.393 0-8.893-1.452-8.567 24.9l.286 23.1h16.928v-23.393zm-11-33.113c1.925-.316 5.75-.137 8.5.399 3.924.764 5.304.676 6.414-.41 1.219-1.192 1.219-1.618 0-3.088-3.605-4.347-13.646-5.687-20.894-2.786-3.007 1.203-4.02 2.169-4.02 3.833 0 2.994.921 3.723 3.952 3.127 1.401-.275 4.123-.76 6.048-1.075zm15.5-12.976c0-1.122-1.439-2.746-3.498-3.949-6.862-4.008-22.002-1.47-22.002 3.687v2.358l12.75-.095c11.84-.088 12.75-.231 12.75-2.001zm-3.5-29.053c0-15.068.232-17.497 2-20.965 2.752-5.398 2.536-8.868-.782-12.583-6.613-7.4-23.218-3.283-23.218 5.758 0 1.322.9 4.169 2 6.325 1.772 3.473 2 5.894 2 21.21l.001 17.29 9 .004 9 .004v-17.042z" fill="#c2c6c1"/><path d="M63.628 445.884c-27.756-3.305-51.052-22-60.408-48.478l-2.824-7.99-.267-163.23C-.17 44.138-.573 55.319 6.835 40.416c7.732-15.553 17.568-25.218 33.561-32.978 16.502-8.008 9.086-7.626 142-7.306l118 .284 8.761 3.135c12.441 4.45 19.013 8.646 28.84 18.41 6.893 6.85 9.422 10.224 12.744 17 8.307 16.946 7.655 1.227 7.655 184.455 0 155.213-.088 163.31-1.839 169.5-7.112 25.142-26.301 43.88-52.543 51.305-7.582 2.146-8.155 2.157-120.618 2.312-62.15.086-116.045-.206-119.768-.65zm242.768-7.276c21.498-7.545 36.61-22.18 44.293-42.894l2.707-7.298.281-162c.315-181.502.786-169.073-7.007-184.787-3.209-6.471-5.897-10.02-12.673-16.732-9.518-9.426-17.621-14.307-30.117-18.14l-7.484-2.295-112.868-.306C60.296 3.822 60.175 3.827 46.647 9.521 27.203 17.705 12.35 34.218 6.267 54.416c-1.704 5.656-1.827 15-2.132 163-.226 109.764.006 159.518.772 165.368 2.957 22.597 16.791 41.68 37.445 51.655 15.994 7.725 8.888 7.36 139.544 7.158l116.5-.181 8-2.808zM66.445 386.825c-2.147-1.885-3.942-4.657-4.6-7.102-.971-3.604-.826-4.394 1.433-7.808 1.382-2.089 4.787-5.756 7.565-8.148l5.052-4.351v-13.668l.001-13.669-3.356-2.074c-1.846-1.141-5.446-4.309-8-7.04-3.979-4.252-4.644-5.557-4.644-9.105 0-5.685 2.375-10.202 9.196-17.494l5.804-6.205v-23.349l-6.956-7.35c-3.826-4.042-7.272-8.607-7.658-10.144-.611-2.436-.135-3.301 3.706-6.741 15.632-13.998 46.208-14.06 62.766-.128 2.391 2.013 3.142 3.46 3.142 6.053 0 2.85-1.144 4.612-7 10.777l-7 7.37V290.1l5.486 6.062c8.784 9.708 11.243 16.553 8.1 22.553-1.573 3.002-6.384 7.717-11.336 11.11l-3.25 2.226v27.764l4.526 3.783c5.876 4.912 9.475 10.183 9.47 13.87-.005 3.616-3.026 8.765-6.464 11.018-3.636 2.383-11.338 1.485-16.486-1.922-3.297-2.182-5.147-2.649-10.49-2.649-5.49 0-7.214.461-11.217 3-6.668 4.229-12.906 4.197-17.79-.091zm37.22-33.65l-.269-23.74-4.596-.84c-2.92-.533-6.11-.431-8.75.28l-4.154 1.118v46.923h18.036l-.268-23.74zm4.231-34.429c0-3.204-5.744-5.822-12.782-5.826-8.125-.005-13.218 2.033-13.218 5.29v2.396h13c12.006 0 13-.143 13-1.86zm0-11.636c0-3.506-7.664-6.612-14.558-5.9-6.917.714-11.442 3.093-11.442 6.015 0 2.23.162 2.257 13 2.224 12.9-.033 13-.051 13-2.34zm-4-28.448c0-14.843.228-17.179 2-20.485 3.02-5.633 2.652-10.763-1.034-14.449-2.91-2.91-3.325-3.017-10.117-2.634-6.486.367-7.326.672-9.966 3.627-3.383 3.786-3.55 6.128-.86 12.054 1.723 3.8 1.977 6.559 1.977 21.5v17.141h18v-16.754zm130.596 108.204c-4.476-3.93-6.246-8.966-4.572-13.007.67-1.617 4.088-5.625 7.597-8.907l6.38-5.968v-26.568l-6.408-4.742c-13.34-9.874-13.248-18.953.33-32.22l5.077-4.963v-23.973l-5.21-4.892c-6.629-6.223-9.79-10.514-9.79-13.288 0-2.735 6.766-8.989 12.44-11.499 18.184-8.043 39.53-5.943 53.81 5.294 6.087 4.79 4.92 9.452-4.663 18.637l-5.587 5.354v23.971l5.514 6.16c12.632 14.114 12.521 21.2-.487 31.302l-6.027 4.68v27.028l7 7.219c7.631 7.87 8.305 9.88 5.377 16.05-3.748 7.898-12.314 9.71-20.716 4.382-4.15-2.632-5.632-3-12.073-3-5.613 0-7.666.39-8.715 1.655-2.009 2.421-7.235 4.345-11.806 4.345-3.03 0-4.838-.738-7.471-3.05zm36.904-33.918v-23.469l-4.25-.84c-2.337-.463-6.162-.463-8.5 0l-4.25.84-.268 23.757-.268 23.758 8.768-.289 8.768-.289v-23.468zm4.5-34.202c0-3.204-5.744-5.822-12.782-5.826-8.125-.005-13.218 2.033-13.218 5.29v2.396h13c12.006 0 13-.143 13-1.86zm0-11.636c0-3.524-7.663-6.612-14.624-5.893-7.171.74-10.805 2.607-11.171 5.74l-.296 2.526 13.046-.033c12.946-.034 13.045-.051 13.045-2.34zm-4-28.484c0-14.816.235-17.25 2-20.71 2.946-5.775 2.635-10.519-.923-14.077-2.544-2.544-3.659-2.923-8.599-2.923-7.123 0-11.9 2.191-13.572 6.226-1.1 2.657-1.015 3.725.61 7.68 1.554 3.781 1.948 7.78 2.227 22.594l.339 18h17.919v-16.79zm-118.782-65.373c-6.418-3.163-9.637-10.692-6.865-16.053.851-1.646 4.045-5.275 7.097-8.065l5.55-5.072v-27.96l-4.884-3.509c-13.805-9.917-14.115-18.563-1.15-32.065l6.034-6.283V91.138l-6.087-5.861c-9.771-9.41-10.91-13.048-5.663-18.096 6.592-6.341 20.422-11.235 31.75-11.235 11.329 0 25.159 4.894 31.75 11.235 5.233 5.035 4.13 8.572-5.674 18.204l-6.076 5.968v22.893l6.033 6.283c12.966 13.502 12.656 22.148-1.148 32.065l-4.885 3.51v27.96l5.55 5.071c6.683 6.108 8.869 9.938 8.04 14.086-.934 4.665-5.158 9.485-9.437 10.767-3.282.984-4.491.838-8.943-1.077-2.83-1.218-5.666-2.84-6.3-3.605-.79-.95-3.425-1.39-8.338-1.39-6.1 0-7.696.379-10.586 2.51-3.06 2.258-8.85 4.507-11.486 4.462-.55-.01-2.477-.745-4.282-1.635zm33.55-36.087l-.268-23.75h-8.169c-4.492 0-8.317.225-8.5.5-.182.275-.202 10.962-.045 23.75l.286 23.25h16.964l-.268-23.75zm-7.768-32.715c1.925-.008 5.075.311 7 .709 4.305.89 6.444-.271 5.57-3.023-1.462-4.607-13.473-6.727-21.57-3.806-3.494 1.26-4.69 3.342-3.582 6.23.47 1.228 1.425 1.37 4.834.717 2.337-.447 5.823-.82 7.748-.827zm13-12.57c0-2.424-2.908-4.621-7.862-5.94-7.759-2.067-18.138.972-18.138 5.311 0 2.262.127 2.285 13 2.285 11.431 0 13-.2 13-1.656zm-4-29.255c0-14.816.235-17.25 2-20.71 4.888-9.58.29-17-10.533-17-11.359 0-16.274 7.072-11.467 16.5 1.768 3.468 2 5.897 2 20.961v17.039h18v-16.79z" fill="#bebebe"/><path d="M63.557 445.804c-19.098-2.51-38.077-13.355-49.151-28.087-5.663-7.533-8.604-13.163-11.694-22.387l-2.316-6.914v-330l2.902-8.855c3.654-11.148 10.188-21.209 19.254-29.645C31.149 11.915 38.25 7.624 49.635 3.55L58.396.416l117.5-.284c131.323-.318 124.805-.63 140.5 6.735 20.183 9.472 34.302 26.003 40.184 47.049 1.72 6.16 1.816 15.02 1.816 169 0 182.645.64 167.238-7.64 183.782-9.012 18.008-26.35 31.702-47.86 37.801-6.124 1.737-13.038 1.854-119.5 2.024-62.322.1-116.067-.223-119.84-.719zm236.131-5.448c4.41-.893 11.745-3.508 17.14-6.111 17.743-8.56 31.35-25.622 35.523-44.542 1.446-6.558 1.579-23.541 1.326-169.787l-.28-162.5-2.68-7.335c-6.935-18.985-20.469-33.118-38.905-40.627-13.86-5.646-13.471-5.63-137.046-5.298l-113.37.305-7.484 2.296c-12.619 3.87-20.606 8.691-30.039 18.13-6.369 6.374-9.463 10.424-12.246 16.029-7.807 15.725-7.23 1.232-7.23 182 0 175.529-.311 165.642 5.613 178.846 8.947 19.938 26.306 33.813 48.386 38.674 4.765 1.049 29.433 1.337 119.792 1.4 99.356.07 114.77-.118 121.5-1.48zM66.445 386.825c-2.147-1.885-3.942-4.657-4.6-7.102-.971-3.604-.826-4.394 1.433-7.808 1.382-2.089 4.787-5.756 7.565-8.148l5.052-4.351v-13.668l.001-13.669-3.356-2.074c-1.846-1.141-5.446-4.309-8-7.04-3.979-4.252-4.644-5.557-4.644-9.105 0-5.685 2.375-10.202 9.196-17.494l5.804-6.205v-23.349l-6.956-7.35c-3.826-4.042-7.272-8.607-7.658-10.144-.611-2.436-.135-3.301 3.706-6.741 15.632-13.998 46.208-14.06 62.766-.128 2.391 2.013 3.142 3.46 3.142 6.053 0 2.85-1.144 4.612-7 10.777l-7 7.37V290.1l5.486 6.062c8.784 9.708 11.243 16.553 8.1 22.553-1.573 3.002-6.384 7.717-11.336 11.11l-3.25 2.226v27.764l4.526 3.783c5.876 4.912 9.475 10.183 9.47 13.87-.005 3.616-3.026 8.765-6.464 11.018-3.636 2.383-11.338 1.485-16.486-1.922-3.297-2.182-5.147-2.65-10.49-2.65-5.49 0-7.214.462-11.217 3-6.668 4.23-12.906 4.198-17.79-.09zm37.22-33.65l-.269-23.74-4.596-.84c-2.92-.533-6.11-.431-8.75.28l-4.154 1.118v46.923h18.036l-.268-23.74zm4.231-34.429c0-3.204-5.744-5.822-12.782-5.826-8.125-.005-13.218 2.033-13.218 5.29v2.396h13c12.006 0 13-.143 13-1.86zm0-11.636c0-3.506-7.664-6.612-14.558-5.9-6.917.714-11.442 3.093-11.442 6.015 0 2.23.162 2.257 13 2.224 12.9-.033 13-.051 13-2.34zm-4-28.448c0-14.843.228-17.179 2-20.485 3.02-5.633 2.652-10.763-1.034-14.449-2.91-2.91-3.325-3.017-10.117-2.634-6.486.367-7.326.672-9.966 3.627-3.383 3.786-3.55 6.128-.86 12.054 1.723 3.8 1.977 6.559 1.977 21.5v17.141h18v-16.754zm130.596 108.204c-4.476-3.93-6.246-8.966-4.572-13.007.67-1.617 4.088-5.625 7.597-8.907l6.38-5.968v-26.568l-6.408-4.742c-13.34-9.874-13.248-18.953.33-32.22l5.077-4.963v-23.973l-5.21-4.892c-6.629-6.223-9.79-10.514-9.79-13.288 0-2.735 6.766-8.989 12.44-11.499 18.184-8.043 39.53-5.943 53.81 5.294 6.087 4.79 4.92 9.452-4.663 18.637l-5.587 5.354v23.971l5.514 6.16c12.632 14.114 12.521 21.2-.487 31.302l-6.027 4.68v27.028l7 7.219c7.631 7.87 8.305 9.88 5.377 16.05-3.748 7.898-12.314 9.71-20.716 4.382-4.15-2.632-5.632-3-12.073-3-5.613 0-7.666.39-8.715 1.655-2.009 2.421-7.235 4.345-11.806 4.345-3.03 0-4.838-.738-7.471-3.05zm36.904-33.918v-23.469l-4.25-.84c-2.337-.463-6.162-.463-8.5 0l-4.25.84-.268 23.757-.268 23.758 8.768-.289 8.768-.289v-23.468zm4.5-34.202c0-3.204-5.744-5.822-12.782-5.826-8.125-.005-13.218 2.033-13.218 5.29v2.396h13c12.006 0 13-.143 13-1.86zm0-11.636c0-3.524-7.663-6.612-14.624-5.893-7.171.74-10.805 2.607-11.171 5.74l-.296 2.526 13.046-.033c12.946-.034 13.045-.051 13.045-2.34zm-4-28.484c0-14.816.235-17.25 2-20.71 2.946-5.775 2.635-10.519-.923-14.077-2.544-2.544-3.659-2.923-8.599-2.923-7.123 0-11.9 2.191-13.572 6.226-1.1 2.657-1.015 3.725.61 7.68 1.554 3.781 1.948 7.78 2.227 22.594l.339 18h17.919v-16.79zm-118.782-65.373c-6.418-3.163-9.637-10.692-6.865-16.053.851-1.646 4.045-5.275 7.097-8.065l5.55-5.072v-27.96l-4.884-3.509c-13.805-9.917-14.115-18.563-1.15-32.065l6.034-6.283V91.138l-6.087-5.861c-9.771-9.41-10.91-13.048-5.663-18.096 6.592-6.341 20.422-11.235 31.75-11.235 11.329 0 25.159 4.894 31.75 11.235 5.233 5.035 4.13 8.572-5.674 18.204l-6.076 5.968v22.893l6.033 6.283c12.966 13.502 12.656 22.148-1.148 32.065l-4.885 3.51v27.96l5.55 5.071c6.683 6.108 8.869 9.938 8.04 14.086-.934 4.665-5.158 9.485-9.437 10.767-3.282.984-4.491.838-8.943-1.077-2.83-1.218-5.666-2.84-6.3-3.605-.79-.95-3.425-1.39-8.338-1.39-6.1 0-7.696.379-10.586 2.51-3.06 2.258-8.85 4.507-11.486 4.462-.55-.01-2.477-.745-4.282-1.635zm33.55-36.087l-.268-23.75h-8.169c-4.492 0-8.317.225-8.5.5-.182.275-.202 10.962-.045 23.75l.286 23.25h16.964l-.268-23.75zm-7.768-32.715c1.925-.008 5.075.311 7 .709 4.305.89 6.444-.271 5.57-3.023-1.462-4.607-13.473-6.727-21.57-3.806-3.494 1.26-4.69 3.342-3.582 6.23.47 1.228 1.425 1.37 4.834.717 2.337-.447 5.823-.82 7.748-.827zm13-12.57c0-2.424-2.908-4.621-7.862-5.94-7.759-2.067-18.138.972-18.138 5.311 0 2.262.127 2.285 13 2.285 11.431 0 13-.2 13-1.656zm-4-29.255c0-14.816.235-17.25 2-20.71 4.888-9.58.29-17-10.533-17-11.359 0-16.274 7.072-11.467 16.5 1.768 3.468 2 5.897 2 20.961v17.039h18v-16.79z" fill="#868f85"/><path d="M63.557 445.804c-19.098-2.51-38.077-13.355-49.151-28.087-5.663-7.533-8.604-13.163-11.694-22.387l-2.316-6.914v-330l2.902-8.855c3.654-11.148 10.188-21.209 19.254-29.645C31.149 11.915 38.25 7.624 49.635 3.55L58.396.416l117.5-.284c131.323-.318 124.805-.63 140.5 6.735 20.183 9.472 34.302 26.003 40.184 47.049 1.72 6.16 1.816 15.02 1.816 169 0 182.645.64 167.238-7.64 183.782-9.012 18.008-26.35 31.702-47.86 37.801-6.124 1.737-13.038 1.854-119.5 2.024-62.322.1-116.067-.223-119.84-.719zm236.131-5.448c4.41-.893 11.745-3.508 17.14-6.111 17.743-8.56 31.35-25.622 35.523-44.542 1.446-6.558 1.579-23.541 1.326-169.787l-.28-162.5-2.68-7.335c-6.935-18.985-20.469-33.118-38.905-40.627-13.86-5.646-13.471-5.63-137.046-5.298l-113.37.305-7.484 2.296c-12.619 3.87-20.606 8.691-30.039 18.13-6.369 6.374-9.463 10.424-12.246 16.029-7.807 15.725-7.23 1.232-7.23 182 0 175.529-.311 165.642 5.613 178.846 8.947 19.938 26.306 33.813 48.386 38.674 4.765 1.049 29.433 1.337 119.792 1.4 99.356.07 114.77-.118 121.5-1.48zM68.926 388.693c-3.836-2.028-7.03-7.512-7.03-12.068 0-3.634.633-4.609 7-10.777l7-6.781-.02-13.326-.02-13.325-5.691-4.5c-6.861-5.424-10.276-10.223-10.247-14.398.035-4.881 3.444-11.19 9.449-17.486l5.53-5.797v-23.668l-7-7.219c-5.973-6.159-7-7.736-7-10.737 0-2.738.72-4.126 3.25-6.266 4.69-3.968 12.538-7.31 21.464-9.141 12.798-2.626 28.258.469 38.89 7.784 7.757 5.337 7.04 9.873-3.155 19.978l-6.45 6.392v21.791l5.509 5.95c12.056 13.022 13.121 21.567 3.72 29.85-2.6 2.293-5.966 4.81-7.479 5.593l-2.75 1.425v26.694l4.75 4.348c10.3 9.426 11.795 12.848 8.58 19.624-3.735 7.872-12.117 9.2-21.449 3.4-3.988-2.48-6.112-3.117-10.38-3.117-4.27 0-6.394.638-10.382 3.117-5.684 3.533-12.352 4.636-16.089 2.66zm34.97-35.16v-24.384l-2.25-.603c-3.566-.955-10.17-.728-13.6.468l-3.15 1.098v46.683l3.75.392c2.063.216 6.338.468 9.5.56l5.75.169v-24.383zm3.5-34.565c0-1.394-1.129-3.179-2.798-4.426-5.308-3.962-20.211-2.28-22.81 2.575-1.943 3.632.153 4.303 13.273 4.243 12.244-.056 12.335-.073 12.335-2.392zm-9.021-9.363c9.463.2 11.207-.539 9.37-3.97-2.437-4.555-15.2-6.289-21.849-2.968-5.864 2.93-5.035 9.16.992 7.457 1.38-.39 6.548-.623 11.487-.519zm6.778-32.12c.283-15.087.66-18.855 2.288-22.833 1.78-4.351 1.818-5 .427-7.478-4.69-8.354-15.832-9.557-23.222-2.507-3.34 3.187-3.583 7.224-.75 12.51 1.78 3.32 2 5.642 2 21.054v17.321h18.917l.34-18.068zm132.243 111.477c-4.05-1.675-6.77-5.796-7.271-11.018l-.484-5.038 7.127-7.001 7.128-7.002v-26.548l-5.517-3.97c-13.65-9.82-13.887-18.855-.858-32.515l5.375-5.635v-23.662l-4.75-4.52c-10.283-9.785-11.809-14.795-6-19.708 4.69-3.967 12.538-7.31 21.465-9.143 6.398-1.313 9.141-1.403 15.395-.5 9.616 1.387 17.454 4.13 23.3 8.152 8.014 5.514 7.19 10.306-3.526 20.51l-5.884 5.602v23.45l3.384 2.7c1.861 1.485 5.236 5.474 7.5 8.864 4.57 6.843 5.407 12.539 2.632 17.906-1.494 2.889-8.086 8.764-12.266 10.933-2.163 1.122-2.25 1.684-2.25 14.549v13.382l6.408 6.153c8.311 7.98 9.417 10.565 7.106 16.616-1.965 5.144-6.233 8.393-11.014 8.383-3.212-.006-12.808-4.057-13.936-5.883-.38-.615-3.47-1.103-6.988-1.103-4.82 0-6.914.478-8.883 2.027-5.522 4.344-12.477 5.97-17.193 4.019zm34.27-35.046c.242-21.207.101-23.621-1.442-24.75-2.111-1.543-9.946-1.628-14.179-.152l-3.149 1.098v46.683l3.75.414c2.063.227 6.225.367 9.25.31l5.5-.103.27-23.5zm3.73-34.948c0-1.399-1.133-3.182-2.823-4.444-5.435-4.058-21.426-2.032-23.34 2.957-1.245 3.243 1.227 3.936 13.828 3.879 12.244-.056 12.335-.073 12.335-2.392zm-8.84-9.347c10.362.232 12.18-.957 7.942-5.194-5.546-5.546-23.266-4.018-25.333 2.184-.714 2.141 2.73 4.347 5.553 3.556 1.473-.413 6.8-.659 11.838-.546zm6.34-31.586c0-15.675.216-17.934 2.083-21.79 2.589-5.348 1.91-9.317-2.186-12.762-8.242-6.936-22.903-2.242-22.893 7.329.002 1.982.945 5.148 2.095 7.035 1.95 3.197 2.069 4.603 1.747 20.599l-.346 17.167 9.75-.045 9.75-.046v-17.487zM151.66 212.408c-3.589-2.022-5.763-6.389-5.763-11.573 0-3.853.547-4.716 7-11.056l7-6.876-.054-13.243-.054-13.244-5.961-4.252c-7.007-4.997-9.922-9.283-9.927-14.597-.005-5.39 2.462-10.007 9.192-17.201l5.804-6.205V91.236l-6.838-6.947c-7.795-7.92-9.255-11.414-6.394-15.3 4.907-6.663 20.234-12.367 33.232-12.367 12.999 0 28.325 5.704 33.232 12.367 2.853 3.875 1.418 7.327-6.39 15.37l-6.842 7.048v22.754l5.804 6.205c6.73 7.194 9.198 11.812 9.192 17.201-.005 5.314-2.92 9.6-9.926 14.597l-5.962 4.252-.054 13.244-.054 13.243 7 6.876c6.454 6.34 7 7.203 7 11.056 0 13.001-13.032 17.28-24.693 8.108-4.236-3.332-12.3-2.816-18.074 1.157-5.516 3.795-13.063 4.792-17.47 2.308zm36.006-34.423c.148-12.887-.112-23.812-.577-24.277-1.542-1.543-10.802-2.076-14.554-.837l-3.638 1.2v23.256c0 12.79.316 23.572.703 23.958.386.387 4.549.574 9.25.417l8.547-.286.269-23.431zm3.731-35.051c0-3.76-5.603-6.534-13-6.436-8.623.114-14.757 3.7-13.212 7.726.38.99 3.623 1.284 13.357 1.212l12.855-.096v-2.406zm-17.55-9.1c3.593-.771 6.483-.776 10.015-.019 5.886 1.262 8.254.605 7.838-2.176-.6-4.004-5.297-6.223-13.174-6.223-9.717 0-15.972 3.972-12.618 8.013 1.474 1.776 1.529 1.78 7.94.404zm9.637-13.905c3.572.542 4.712.372 5.15-.77.31-.805.303-8.786-.015-17.735-.436-12.305-.267-16.726.694-18.14 6.435-9.46 1.555-18.802-9.817-18.792-6.072.005-10.916 2.53-12.962 6.755-1.44 2.974-1.062 6.138 1.253 10.464.695 1.297 1.11 8.772 1.11 19.973 0 9.844.228 18.127.507 18.406.28.279 2.53.2 5-.175 2.471-.375 6.557-.369 9.08.014z" fill="#7f7f7f"/><path d="M57.896 444.4c-27.3-5.578-48.124-24.84-55.661-51.484-1.751-6.19-1.839-14.287-1.839-169.5 0-183.265-.656-167.5 7.676-184.5 3.34-6.816 5.866-10.191 12.745-17.037 9.727-9.678 19.307-15.304 32.636-19.163l7.943-2.3h117.5c132.103 0 122.924-.5 139.583 7.61 14.934 7.27 26.296 18.86 33.424 34.09 6.333 13.534 6.055 4.648 5.76 184.07l-.267 163.23-2.823 7.99c-8.658 24.498-28.494 41.673-54.283 47-6.286 1.299-23.314 1.497-121.602 1.416-90.795-.075-115.628-.367-120.792-1.422zm235.026-2.542c16.054-2.004 28.272-7.713 40.054-18.719 11.976-11.186 18.82-24.396 20.91-40.355.765-5.85.997-55.604.771-165.368-.304-147.678-.43-157.352-2.12-162.93-7.523-24.828-27.61-43.524-52.64-48.998-6.757-1.478-19.057-1.612-124-1.356l-116.5.284-8 2.816C34.08 13.327 18.755 26.453 11.1 41.747 3.335 57.263 3.8 44.95 4.115 226.416l.281 162 2.723 7.345c9.45 25.491 31.612 43.053 58.277 46.178 10.1 1.184 217.987 1.11 227.526-.08zM68.926 388.693c-3.836-2.028-7.03-7.512-7.03-12.068 0-3.634.633-4.609 7-10.777l7-6.781-.02-13.326-.02-13.325-5.691-4.5c-6.861-5.424-10.276-10.223-10.247-14.398.035-4.881 3.444-11.19 9.449-17.486l5.53-5.797v-23.668l-7-7.219c-5.973-6.159-7-7.736-7-10.737 0-2.738.72-4.126 3.25-6.266 4.69-3.968 12.538-7.31 21.464-9.141 12.798-2.626 28.258.469 38.89 7.784 7.757 5.337 7.04 9.873-3.155 19.978l-6.45 6.392v21.791l5.509 5.95c12.056 13.022 13.121 21.567 3.72 29.85-2.6 2.293-5.966 4.81-7.479 5.593l-2.75 1.425v26.694l4.75 4.348c10.3 9.426 11.795 12.848 8.58 19.624-3.735 7.872-12.117 9.2-21.449 3.4-3.988-2.48-6.112-3.117-10.38-3.117-4.27 0-6.394.638-10.382 3.117-5.684 3.533-12.352 4.636-16.089 2.66zm34.97-35.16v-24.384l-2.25-.603c-3.566-.955-10.17-.728-13.6.468l-3.15 1.098v46.683l3.75.392c2.063.216 6.338.468 9.5.56l5.75.169v-24.383zm3.5-34.565c0-1.394-1.129-3.179-2.798-4.426-5.308-3.962-20.211-2.28-22.81 2.575-1.943 3.632.153 4.303 13.273 4.243 12.244-.056 12.335-.073 12.335-2.392zm-9.021-9.363c9.463.2 11.207-.539 9.37-3.97-2.437-4.555-15.2-6.289-21.849-2.967-5.864 2.929-5.035 9.158.992 7.456 1.38-.39 6.548-.623 11.487-.519zm6.778-32.12c.283-15.087.66-18.855 2.288-22.833 1.78-4.351 1.818-5 .427-7.478-4.69-8.354-15.832-9.557-23.222-2.507-3.34 3.187-3.583 7.224-.75 12.51 1.78 3.32 2 5.642 2 21.054v17.321h18.917l.34-18.068zm132.243 111.477c-4.05-1.675-6.77-5.796-7.271-11.018l-.484-5.038 7.127-7.001 7.128-7.002v-26.548l-5.517-3.97c-13.65-9.82-13.887-18.855-.858-32.515l5.375-5.635v-23.662l-4.75-4.52c-10.283-9.785-11.809-14.795-6-19.708 4.69-3.967 12.538-7.31 21.465-9.143 6.398-1.313 9.141-1.403 15.395-.5 9.616 1.387 17.454 4.13 23.3 8.152 8.014 5.514 7.19 10.306-3.526 20.51l-5.884 5.602v23.45l3.384 2.7c1.861 1.485 5.236 5.474 7.5 8.864 4.57 6.843 5.407 12.539 2.632 17.906-1.494 2.889-8.086 8.764-12.266 10.933-2.163 1.122-2.25 1.684-2.25 14.549v13.382l6.408 6.153c8.311 7.98 9.417 10.565 7.106 16.616-1.965 5.144-6.233 8.393-11.014 8.383-3.212-.006-12.808-4.057-13.936-5.883-.38-.615-3.47-1.103-6.988-1.103-4.82 0-6.914.478-8.883 2.027-5.522 4.344-12.477 5.97-17.193 4.019zm34.27-35.046c.242-21.207.101-23.621-1.442-24.75-2.111-1.543-9.946-1.628-14.179-.152l-3.149 1.098v46.683l3.75.414c2.063.227 6.225.367 9.25.31l5.5-.103.27-23.5zm3.73-34.948c0-1.399-1.133-3.182-2.823-4.444-5.435-4.058-21.426-2.032-23.34 2.957-1.245 3.243 1.227 3.936 13.828 3.879 12.244-.056 12.335-.073 12.335-2.392zm-8.84-9.347c10.362.232 12.18-.957 7.942-5.194-5.546-5.546-23.266-4.018-25.333 2.184-.714 2.141 2.73 4.347 5.553 3.556 1.473-.413 6.8-.659 11.838-.546zm6.34-31.586c0-15.675.216-17.934 2.083-21.79 2.589-5.348 1.91-9.316-2.186-12.762-8.242-6.936-22.903-2.242-22.893 7.329.002 1.982.945 5.148 2.095 7.035 1.95 3.197 2.069 4.603 1.747 20.599l-.346 17.167 9.75-.045 9.75-.046v-17.487zM151.66 212.408c-3.589-2.022-5.763-6.389-5.763-11.573 0-3.853.547-4.716 7-11.056l7-6.876-.054-13.243-.054-13.244-5.961-4.252c-7.007-4.997-9.922-9.283-9.927-14.597-.005-5.39 2.462-10.007 9.192-17.201l5.804-6.205V91.236l-6.838-6.947c-7.795-7.92-9.255-11.414-6.394-15.3 4.907-6.663 20.234-12.367 33.232-12.367 12.999 0 28.325 5.704 33.232 12.367 2.853 3.875 1.418 7.327-6.39 15.37l-6.842 7.048v22.754l5.804 6.205c6.73 7.194 9.198 11.812 9.192 17.201-.005 5.314-2.92 9.6-9.926 14.597l-5.962 4.252-.054 13.244-.054 13.243 7 6.876c6.454 6.34 7 7.203 7 11.056 0 13.001-13.032 17.28-24.693 8.108-4.236-3.332-12.3-2.816-18.074 1.157-5.516 3.795-13.063 4.792-17.47 2.308zm36.006-34.423c.148-12.887-.112-23.812-.577-24.277-1.542-1.543-10.802-2.076-14.554-.837l-3.638 1.2v23.256c0 12.79.316 23.572.703 23.958.386.387 4.549.574 9.25.417l8.547-.286.269-23.431zm3.731-35.051c0-3.76-5.603-6.534-13-6.436-8.623.114-14.757 3.7-13.212 7.726.38.99 3.623 1.284 13.357 1.212l12.855-.096v-2.406zm-17.55-9.1c3.593-.771 6.483-.776 10.015-.019 5.886 1.262 8.254.605 7.838-2.176-.6-4.004-5.297-6.223-13.174-6.223-9.717 0-15.972 3.972-12.618 8.013 1.474 1.776 1.529 1.78 7.94.404zm9.637-13.905c3.572.542 4.712.372 5.15-.77.31-.805.303-8.786-.015-17.735-.436-12.305-.267-16.726.694-18.14 6.435-9.46 1.555-18.802-9.817-18.792-6.072.005-10.916 2.53-12.962 6.755-1.44 2.974-1.062 6.138 1.253 10.464.695 1.297 1.11 8.772 1.11 19.973 0 9.844.228 18.127.507 18.406.28.279 2.53.2 5-.175 2.471-.375 6.557-.369 9.08.014z" fill="#485246"/><path d="M57.924 444.366c-21.74-4.753-40.508-18.924-49.889-37.668C-.245 390.154.396 405.56.396 222.916c0-153.98.095-162.84 1.817-169C9.328 28.458 29.146 9.212 55.396 2.268 62.02.516 68.703.416 179.396.416h117l7.944 2.3c24.075 6.971 42.825 24.484 50.154 46.845l2.902 8.855v330l-2.316 6.914c-6.56 19.584-18.795 33.799-36.684 42.62-16.2 7.99-5.951 7.419-137 7.637-97.698.162-118.068-.04-123.472-1.22zm245.8-4.256c23.872-7.31 40.218-22.885 47.958-45.694l2.714-8v-162.5c0-151.758-.116-162.93-1.754-169-5.883-21.805-23.013-39.858-45.246-47.684l-8-2.816-117-.284c-130.95-.318-124.594-.628-140 6.815-14.716 7.11-25.166 17.42-32.085 31.654-6.718 13.822-6.378 4.219-6.398 180.905-.016 156.09.032 160.283 1.955 167.8 3.046 11.908 8.261 20.875 17.513 30.11 12.018 11.996 24.49 18.33 40.139 20.384 3.812.5 57.225.825 119.876.728l113-.174 7.329-2.244zM68.739 388.448c-3.563-2.01-6.842-7.525-6.842-11.507 0-2.655 1.26-4.538 7-10.457l7-7.22V345.09c0-7.85-.406-14.174-.91-14.174-1.743 0-11.214-8.156-13.142-11.317-3.886-6.374-1.606-13.388 7.554-23.23l5.498-5.908v-24.323l-5.93-5.737c-9.745-9.426-10.402-13.83-2.869-19.232 5.717-4.098 13.44-6.913 23.085-8.412 5.999-.933 8.608-.847 15.227.503 9.26 1.888 18.783 6.268 22.846 10.509 4.174 4.357 3.064 7.636-5.447 16.097l-6.912 6.87V290.492l5.078 4.963c5.42 5.297 9.271 11.18 10.347 15.807 1.11 4.779-2.673 10.976-10.018 16.413l-6.407 4.742v26.765l6.364 5.831c7.605 6.97 9.311 10.328 7.71 15.18-3.122 9.46-12.774 12.14-21.522 5.974-4.047-2.853-5.397-3.25-11.052-3.25-5.595 0-7.021.409-10.853 3.11-5.231 3.687-11.785 4.692-15.805 2.422zm35.158-34.915v-24.384l-2.25-.603c-3.472-.93-11.333-.74-14.185.345l-2.565.975v46.923l3.25.404c1.788.221 6.063.475 9.5.563l6.25.16v-24.383zm4.12-33.336c2.934-2.935-5.311-8.281-12.774-8.281-8.158 0-15.151 3.887-13.928 7.743.548 1.726 1.661 1.874 13.117 1.745 7.338-.083 12.96-.582 13.584-1.207zm-9.62-10.733c9.25-.044 10-.195 10-2.008 0-1.113-1.468-2.95-3.398-4.25-4.157-2.802-12.994-3.117-19.082-.681-3.357 1.343-4.02 2.071-4.02 4.416 0 3.095 1.448 4.12 4.5 3.184 1.1-.337 6.5-.634 12-.66zm6.5-30.588c0-16.066.219-18.469 2-21.96 2.506-4.913 2.517-7.64.044-11.696-2.455-4.026-7.941-5.846-14.607-4.847-9.404 1.41-12.928 8.74-8.437 17.543 1.77 3.47 2 5.894 2 21.075v17.155l5.25-.598c2.888-.33 6.825-.203 8.75.282 1.925.485 3.838.927 4.25.984.413.056.75-8.016.75-17.938zm131.299 109.139c-3.683-2.313-6.299-6.775-6.299-10.746 0-3.502 3.704-8.846 9.475-13.67l4.525-3.783v-27.58l-6.027-4.68c-13.001-10.096-13.108-17.415-.458-31.393l5.485-6.062V266.648l-7-7.369c-5.92-6.232-7-7.907-7-10.856 0-3.009.653-3.963 4.75-6.946 6.174-4.495 13.223-7.147 22.952-8.637 6.667-1.02 9.061-.956 15.827.423 9.266 1.89 18.771 6.27 22.855 10.532 3.963 4.136 3.082 6.676-5.428 15.667l-6.956 7.35v23.349l5.804 6.205c6.815 7.285 9.196 11.809 9.196 17.473 0 3.42-.682 4.862-4.005 8.467-2.203 2.39-5.803 5.591-8 7.114l-3.995 2.768v27.415l5.057 4.264c2.782 2.345 6.186 5.97 7.566 8.055 2.233 3.375 2.393 4.22 1.459 7.69-2.81 10.432-13.265 13.046-23.115 5.78-2.73-2.015-4.524-2.476-9.632-2.476-5.41 0-6.885.429-10.688 3.11-5.733 4.04-11.889 4.79-16.348 1.989zm35.701-34.482v-24.384l-2.25-.603c-3.472-.93-11.333-.74-14.185.345l-2.565.975v46.923l3.25.404c1.788.221 6.063.475 9.5.563l6.25.16v-24.383zm3.819-34.96c.924-7.852-24.476-8.855-26.437-1.042-.314 1.249-.34 2.644-.058 3.1.282.457 6.287.79 13.345.74l12.831-.088.32-2.71zm-9.365-8.929c9.41.24 11.26-.526 9.447-3.914-3.576-6.681-24.356-6.258-26.513.54-.868 2.734 2.123 4.831 5.524 3.874 1.423-.4 6.618-.625 11.542-.5zm6.801-31.478c.283-15.672.654-19.519 2.26-23.432 1.838-4.48 1.846-4.838.193-8.305-2.824-5.922-11.576-8.266-19.11-5.119-6.67 2.788-8.38 9.194-4.487 16.824 1.957 3.834 2.083 5.383 1.724 21.064l-.388 16.926 5.526-.578c3.04-.318 7.102-.185 9.027.294 1.925.48 3.819.917 4.208.974.39.056.86-8.336 1.047-18.648zM149.905 210.16c-6.852-6.852-5.416-12.852 5.343-22.323l4.648-4.091v-27.667l-3.356-2.074c-1.846-1.141-5.446-4.309-8-7.04-3.956-4.228-4.644-5.568-4.644-9.046 0-5.33 2.543-10.103 9.407-17.66l5.593-6.158V90.812l-6.874-7.263c-3.78-3.994-7.18-8.228-7.555-9.41-2.42-7.626 16.93-17.412 34.43-17.412 13.46 0 30.493 6.637 34.04 13.264 1.653 3.09.276 5.695-7.167 13.558l-6.874 7.263V114.1l5.593 6.158c6.864 7.557 9.407 12.33 9.407 17.66 0 3.478-.688 4.818-4.643 9.047-2.554 2.73-6.154 5.898-8 7.039l-3.357 2.074v27.667l4.648 4.091c10.688 9.408 12.185 15.482 5.47 22.197-5.183 5.182-9.423 5.275-17.548.382-4.88-2.939-6.75-3.5-11.662-3.5-4.945 0-6.538.486-10.304 3.14-3.097 2.183-5.997 3.287-9.52 3.626-4.844.465-5.242.31-9.075-3.522zm37.991-32.269v-24.025l-2.75-1.07c-2.745-1.068-13.16-.672-15.182.578-.71.438-1.068 8.704-1.068 24.601v23.941h19v-24.025zm3.831-34.337c.954-4.953-8.722-8.703-17.634-6.834-3.02.634-6.325 1.907-7.344 2.829-1.734 1.57-2.452 4.435-1.38 5.507.261.26 6.221.431 13.244.379 11.423-.085 12.807-.283 13.114-1.881zm-10.83-9.8c11.101.808 10.5.942 10.5-2.338 0-2.429-.667-3.333-3.5-4.748-7.3-3.646-21.352-1.184-22.645 3.968-.852 3.394 1.124 4.445 6.644 3.533 2.475-.409 6.525-.596 9-.416zm-3.38-13.978c2.726-.062 6.468.22 8.316.626l3.36.738-.533-17.75c-.497-16.535-.395-17.985 1.481-21.165 6.283-10.65-1.883-20.275-14.757-17.394-9.182 2.055-12.358 8.635-8.122 16.826 1.336 2.582 1.634 6.47 1.634 21.277 0 17.11.102 18.084 1.833 17.535 1.008-.32 4.062-.632 6.788-.693z" fill="#0e1f0b"/><path d="M57.924 444.366c-21.74-4.753-40.508-18.924-49.889-37.668C-.245 390.154.396 405.56.396 222.916c0-153.98.095-162.84 1.817-169C9.328 28.458 29.146 9.212 55.396 2.268 62.02.516 68.703.416 179.396.416h117l7.944 2.3c24.075 6.971 42.825 24.484 50.154 46.845l2.902 8.855v330l-2.316 6.914c-6.56 19.584-18.795 33.799-36.684 42.62-16.2 7.99-5.951 7.419-137 7.637-97.698.162-118.068-.04-123.472-1.22zm245.8-4.256c23.872-7.31 40.218-22.885 47.958-45.694l2.714-8v-162.5c0-151.758-.116-162.93-1.754-169-5.883-21.805-23.013-39.858-45.246-47.684l-8-2.816-117-.284c-130.95-.318-124.594-.628-140 6.815-14.716 7.11-25.166 17.42-32.085 31.654-6.718 13.822-6.378 4.219-6.398 180.905-.016 156.09.032 160.283 1.955 167.8 3.046 11.908 8.261 20.875 17.513 30.11 12.018 11.996 24.49 18.33 40.139 20.384 3.812.5 57.225.825 119.876.728l113-.174 7.329-2.244z"/></svg>