<svg xmlns="http://www.w3.org/2000/svg" width="358.882" height="446.679"><path d="M63.877 446.017c-16.295-2.007-32.04-9.76-43.5-21.42C12.182 416.262 6.89 407.667 3.1 396.54l-2.724-8v-164.5C.377 69.938.488 59.136 2.14 53.153 8.827 28.95 26.903 10.68 51.877 2.882l7.5-2.342h240l7.5 2.342c24.733 7.723 42.17 25.157 49.664 49.658 1.75 5.717 1.836 13.778 1.836 171v165l-2.725 8c-3.886 11.414-9.165 19.875-17.776 28.493-8.898 8.906-18.72 14.735-31.5 18.692l-9 2.788-113.5.152c-62.424.084-116.424-.208-120-.648zm242.5-7.201c17.922-6.104 32.926-18.68 40.334-33.81 7.714-15.753 7.168-1.879 7.151-181.426-.016-178.102.385-166.916-6.49-181.025-6.661-13.672-17.54-24.258-31.995-31.132-15.384-7.317-6.81-6.883-136-6.883-108.037 0-116.446.122-122.5 1.777-20.283 5.544-37.173 18.99-45.52 36.238C4.51 56.708 4.909 45.544 4.893 223.58c-.017 179.065-.526 165.747 6.92 180.96 8.775 17.925 26.483 31.339 47.565 36.03 4.843 1.078 28.472 1.3 122.5 1.153l116.5-.183 8-2.724zM75.652 398.529c-3.32-1.86-4.775-4.397-4.775-8.33 0-2.302 1.13-3.989 5-7.469l5-4.495-.022-9.348-.022-9.347-4.447-2.985c-2.446-1.642-5.197-4.377-6.113-6.077-2.341-4.348-.557-9.182 5.696-15.435l4.908-4.908v-14.663l-5.5-5.432c-7.175-7.085-7.38-9.814-1.014-13.545 6.492-3.804 13.835-5.55 23.514-5.588 13.914-.056 28 5.666 28 11.373 0 1.178-2.36 4.386-5.5 7.476l-5.5 5.413v15.465l4.082 3.953c8.29 8.027 9.22 14.14 3.006 19.754-2.151 1.944-4.851 4.037-6 4.652-1.875 1.003-2.088 2.017-2.088 9.926v8.808l4.995 4.212c5.617 4.736 6.821 7.717 4.946 12.244-2.468 5.959-9.646 7.04-18.151 2.735-4.793-2.426-10.869-2.389-15.738.096-5.466 2.788-10.964 3.372-14.277 1.515zm28.225-24.382c0-17.503.15-17.107-6.5-17.107s-6.5-.396-6.5 17.107v15.893h13v-15.893zm2.78-24.013c-.402-2.084-4.552-4.061-8.562-4.08-4.258-.018-10.218 2.488-10.218 4.298 0 1.124 1.962 1.406 9.538 1.37 8.045-.038 9.492-.286 9.241-1.588zm.72-7.594c0-.55-1.575-1.812-3.5-2.804-5.294-2.729-16-.875-16 2.77 0 1.11 1.988 1.359 9.75 1.215 5.713-.106 9.75-.595 9.75-1.18zm-2.5-20.136c0-8.82.408-12.918 1.494-15 2.039-3.91 1.901-5.06-.949-7.91-1.963-1.963-3.473-2.454-7.545-2.454s-5.582.491-7.546 2.455c-2.8 2.8-3.104 5.304-.986 8.104 1.104 1.46 1.477 5.04 1.503 14.441l.034 12.5h13.996v-12.136zm51.775 76.125c-3.31-1.855-4.775-4.396-4.775-8.286 0-2.225 1.203-4.054 5-7.606l5-4.677-.027-9.21-.027-9.21-4.115-2.5c-4.438-2.697-7.821-7.258-7.827-10.554-.005-2.868 5.23-10.82 8.919-13.547 2.967-2.194 3.077-2.546 3.077-9.892v-7.617l-5.5-5.213c-7.27-6.89-7.493-9.924-1.014-13.722 13.485-7.902 37.014-7.412 48.045 1 4.875 3.72 4.494 6.001-2.031 12.172l-5.5 5.201v15.766l4.082 3.953c9.538 9.235 9.36 15.613-.627 22.484l-4.455 3.065v17.368l5.5 5.078c6.338 5.852 6.942 8.591 2.94 13.347-3.73 4.432-7.997 4.919-15.002 1.711-6.788-3.107-12.145-3.3-17.386-.626-5.466 2.788-10.964 3.372-14.277 1.515zm28.225-24.382c0-17.503.15-17.107-6.5-17.107s-6.5-.396-6.5 17.107v15.893h13v-15.893zm3-23.84c0-.753-1.674-2.069-3.72-2.924-5.89-2.46-15.28-.529-15.28 3.143 0 .904 2.58 1.229 9.5 1.196 7.355-.034 9.5-.354 9.5-1.414zm0-7.948c0-2.266-6.816-4.604-11.323-3.883-4.908.785-7.677 2.228-7.677 4.002 0 1.063 2.116 1.36 9.5 1.335 7.529-.026 9.5-.327 9.5-1.454zm-2-20.119c0-8.966.406-13.084 1.497-15.193 2.954-5.713-.82-10.007-8.797-10.007-7.922 0-11.639 4.985-8.2 11 1.013 1.773 1.44 5.99 1.467 14.5l.038 12h13.996v-12.3zm53.337 76.244c-3.627-1.845-5.847-6.276-4.945-9.87.34-1.355 2.866-4.359 5.613-6.675l4.995-4.212v-17.524l-3.458-2.137c-10.712-6.62-11.234-14.174-1.625-23.479l4.083-3.953V315.17l-5.5-5.413c-3.203-3.153-5.5-6.29-5.5-7.514 0-1.221 1.451-3.207 3.47-4.746 11.03-8.413 34.559-8.903 48.044-1 6.365 3.73 6.16 6.459-1.014 13.544l-5.5 5.432v14.663l4.908 4.908c6.253 6.253 8.037 11.087 5.696 15.435-.916 1.7-3.667 4.435-6.113 6.077l-4.447 2.985-.022 9.347-.022 9.348 5 4.495c4.166 3.746 5 5.071 5 7.948 0 3.926-3.275 7.891-7.366 8.918-2.617.657-12.155-1.971-13.181-3.632-1.063-1.72-10.245-1-14.316 1.122-5.483 2.858-10.025 3.318-13.8 1.398zm28.038-11.569c.344-1.719.625-8.87.625-15.893 0-14.001.003-13.996-6.332-13.968-7.969.034-7.668-.636-7.668 17.103v15.883h6.375c6.34 0 6.378-.017 7-3.125zm2.628-36.125a422.21 422.21 0 0 1-.003-1.652c0-1.21-5.596-3.098-9.181-3.098-3.96 0-9.819 2.587-9.819 4.336 0 1.16 1.841 1.412 9.504 1.301 5.226-.075 9.501-.474 9.5-.887zm.997-7.704c0-1.676-3.811-3.991-7.526-4.57-4.799-.75-11.817 1.348-12.263 3.665-.276 1.434.955 1.642 9.736 1.642 5.53 0 10.053-.332 10.053-.737zm-2.965-20.546c.025-8.514.45-12.726 1.465-14.5.786-1.375 1.445-3.48 1.464-4.677.052-3.15-4.492-6.323-9.052-6.323-8.018 0-11.785 4.018-9.303 9.922.93 2.21 1.39 7.332 1.39 15.443v12.135h14l.036-12zM73.8 274.117c-4.62-4.62-4.065-8.403 2.077-14.17l5-4.693V237.136l-4.499-3.095c-9.25-6.365-9.409-12.727-.534-21.468l5.033-4.958v-15.133l-5.5-5.177c-6.928-6.522-7.197-9.023-1.42-13.208 5.686-4.119 16.804-6.477 27.312-5.793 12.488.813 24.608 6.173 24.608 10.883 0 1.1-2.475 4.596-5.5 7.768l-5.5 5.766v7.457c0 7.412.024 7.48 4.082 11.41 8.192 7.931 9.156 13.907 3.168 19.631-2.063 1.972-4.763 4.104-6 4.738-2.09 1.071-2.248 1.809-2.226 10.368l.023 9.215 3.998 2.958c5.537 4.097 7.274 7.027 6.527 11.01-1.357 7.232-8.783 9.383-17.75 5.141-6.89-3.26-10.975-3.284-17.242-.105-6.82 3.46-11.908 3.322-15.657-.427zm30.077-22.497V235.2l-3.078-.677c-1.693-.372-4.618-.387-6.5-.034l-3.422.642v32.909h13v-16.42zm2.811-24.33c-.96-5.01-18.811-4.739-18.811.285 0 1.185 1.832 1.465 9.573 1.465 8.579 0 9.539-.182 9.238-1.75zm.387-7.048c.688-.688.174-1.567-1.593-2.725-1.994-1.306-4.14-1.612-9.104-1.296-6.626.422-9.163 1.65-8.262 4.002.615 1.603 17.358 1.62 18.959.02zm-2.198-20.33c0-8.221.452-12.71 1.544-15.323 1.905-4.56 1.18-7.123-2.565-9.06-3.69-1.907-8.29-1.896-12.014.03-3.674 1.9-4.611 5.331-2.547 9.324 1.18 2.281 1.582 6.055 1.582 14.857v11.8h14v-11.628zm49.923 74.205c-2.124-2.124-2.923-3.886-2.923-6.444 0-2.985.762-4.178 5-7.827l4.999-4.306v-18.219l-5.18-3.89c-8.789-6.6-8.852-11.36-.268-20.36l5.449-5.712V192.576l-5.5-5.078c-6.562-6.058-7.105-8.93-2.434-12.86 5.017-4.222 12.95-6.106 25.434-6.041 11.675.06 19.163 2.03 24.917 6.557 3.835 3.016 3.212 5.513-2.917 11.692l-5.5 5.544v7.931c0 7.356.189 8.08 2.608 9.982 4.714 3.709 8.392 9.744 8.392 13.77 0 3.074-.692 4.36-3.912 7.268-2.151 1.944-4.851 4.037-6 4.652-1.892 1.012-2.088 2.007-2.088 10.582 0 5.206.352 9.465.782 9.465 1.598 0 10.218 9.368 10.218 11.104 0 3.194-2.317 7.009-5.145 8.471-3.997 2.067-7.857 1.76-13.436-1.07-6.231-3.162-10.944-3.163-17.232-.005-6.835 3.433-11.538 3.303-15.264-.423zm30.077-22.497V235.2l-3.078-.677c-1.693-.372-4.618-.387-6.5-.034l-3.422.642v32.909h13v-16.42zm2.811-24.33c-.96-5.01-18.811-4.739-18.811.285 0 1.185 1.832 1.465 9.573 1.465 8.579 0 9.539-.182 9.238-1.75zm.012-7.619c.474-2.389-4.36-3.872-11.088-3.403-5.968.416-8.367 1.682-7.496 3.955.37.966 2.872 1.285 9.383 1.195 7.334-.1 8.934-.404 9.2-1.747zm-1.823-20.227c0-8.833.41-12.92 1.524-15.151 3.7-7.416-5.933-13.195-14.56-8.735-3.673 1.9-4.61 5.332-2.546 9.325 1.18 2.281 1.582 6.055 1.582 14.857v11.8h14v-12.096zm53.11 76.2c-2.822-1.563-5.025-5.198-5.075-8.37-.033-2.14 8.178-11.234 10.144-11.234.451 0 .82-4.259.82-9.465 0-8.807-.156-9.545-2.25-10.618-1.237-.634-3.937-2.766-6-4.738-5.987-5.724-5.023-11.7 3.168-19.632 4.059-3.93 4.083-3.997 4.083-11.41v-7.456l-5.5-5.766c-3.025-3.172-5.5-6.667-5.5-7.768 0-4.71 12.12-10.07 24.607-10.883 10.508-.684 21.627 1.674 27.312 5.793 5.864 4.247 5.579 6.94-1.42 13.401l-5.5 5.078v15.04l5.034 4.957c8.875 8.74 8.716 15.103-.534 21.468l-4.5 3.095.001 9.202v9.202l5 4.306c4.238 3.65 5 4.842 5 7.827 0 2.558-.8 4.32-2.923 6.444-3.685 3.684-7.663 3.795-14.926.413-6.758-3.145-11.35-3.142-17.57.014-5.434 2.757-9.834 3.116-13.471 1.1zm28.248-11.354c.34-2.062.625-9.437.63-16.389l.012-12.638-3.5-.657c-1.925-.361-5.075-.361-7 0l-3.5.657V268.04h12.739l.619-3.75zm3.642-36.227c0-1.376-3.947-3.713-7.5-4.442-4.053-.83-11.898 1.533-12.318 3.712-.292 1.518.784 1.707 9.745 1.707 5.89 0 10.073-.406 10.073-.977zm-.232-7.827c1.305-3.915-13.477-5.871-17.816-2.358-1.249 1.011-2.017 2.249-1.707 2.75.77 1.246 19.1.878 19.523-.392zm-2.768-20.412c0-8.887.404-12.563 1.672-15.223 1.351-2.834 1.45-3.997.513-6.054-2.412-5.295-12.716-5.916-16.927-1.02-2.122 2.467-2.163 2.804-.751 6.183 1.045 2.504 1.493 7.208 1.493 15.702v12.128h14v-11.716zm-111.723-45.757c-6.11-3.725-5.63-9.858 1.209-15.462l4.514-3.699-.061-9.683-.061-9.683-4.1-3c-9.557-6.993-9.797-11.125-1.19-20.421l5.412-5.846V71.472l-5.5-5.432c-7.656-7.56-7.308-10.1 2.024-14.789 13.357-6.71 37.797-4.748 45.874 3.683 2.664 2.78 2.709 2.999 1.214 5.889-.853 1.65-3.365 4.438-5.582 6.193l-4.03 3.192V87.347l4.953 5.238c8.142 8.608 7.969 13.351-.724 19.835l-5.23 3.901V134l5.5 5.327c6.515 6.31 6.868 8.547 2.1 13.314-4.14 4.141-7.076 4.322-14.448.89-6.843-3.185-12.273-3.18-18.57.014-5.926 3.006-9.032 3.129-13.304.523zm28.723-23.42c0-18.056.166-17.607-6.5-17.607-6.645 0-6.5-.378-6.5 16.94 0 8.65.3 16.027.667 16.393.366.367 3.291.667 6.5.667h5.833v-16.393zm3-24.236c0-2.428-6.73-4.639-11.804-3.878-6.144.922-7.196 1.442-7.196 3.556 0 1.652.945 1.832 9.5 1.815 7.692-.016 9.5-.3 9.5-1.493zm-.5-8.074c0-1.188-1.286-2.21-3.827-3.042-6.325-2.072-15.77.444-14.462 3.853.412 1.073 2.59 1.348 9.412 1.187 7.781-.184 8.877-.431 8.877-1.998zm-1.5-19.425c0-8.073.458-12.725 1.5-15.218 1.987-4.755 1.92-5.324-.955-8.2-1.94-1.939-3.484-2.454-7.365-2.454-8.409 0-12.924 5.99-8.712 11.559 1.097 1.45 1.476 4.977 1.5 13.941l.032 12h14V78.912z" fill="#dc8c8f"/><path d="M64.07 445.986c-15.853-2.104-29.46-8.59-41.213-19.647C10.509 414.723 3.272 401.434.91 386.04c-.841-5.489-1.06-50.402-.816-167.5C.467 39.543-.231 55.72 7.82 39.44 14.582 25.765 28.687 12.54 43.377 6.1c2.75-1.205 8.6-3.059 13-4.12C64.037.137 69.256.055 179.06.048 303.243.04 300.235-.08 313.874 5.461c15.769 6.407 30.223 19.904 37.52 35.035 7.951 16.485 7.483 5.071 7.483 182.414 0 168.988.103 165.238-4.897 177.884-7.931 20.06-27.593 37.232-49.816 43.508l-7.787 2.199-113 .16c-62.15.09-115.838-.215-119.307-.675zm235.805-5.446c25.517-5.367 46.793-25.449 52.445-49.5 1.336-5.687 1.53-26.7 1.542-168.04.017-180.05.56-166.179-7.124-181.873-3.175-6.483-5.868-10.154-11.74-16-11.574-11.522-23.953-17.77-39.723-20.05-9.318-1.347-222.478-1.347-231.796 0-15.77 2.28-28.15 8.528-39.723 20.05-5.872 5.846-8.565 9.517-11.74 16C4.332 56.82 4.876 42.95 4.892 223c.013 141.34.205 162.353 1.542 168.04 5.563 23.676 26.793 43.973 51.703 49.432 9.75 2.136 231.609 2.2 241.738.068zm-222.61-41.442c-3.058-1.29-6.388-5.92-6.388-8.882 0-1.783 1.51-3.951 5-7.176l5-4.62v-18.884l-4.742-3.51c-5.465-4.045-7.607-7.749-6.66-11.52.363-1.447 3.077-5.241 6.031-8.432l5.37-5.801v-15.92l-4.994-4.211c-8.084-6.817-7.677-10.662 1.608-15.157 10.963-5.307 28.067-5.451 39.36-.332 10.826 4.907 11.39 7.265 3.527 14.76l-5.5 5.242v8.299c0 7.752.172 8.433 2.608 10.35 4.577 3.6 8.392 9.755 8.392 13.54 0 2.825-.802 4.244-4.142 7.328-2.279 2.103-4.979 4.089-6 4.413-1.637.52-1.858 1.708-1.858 9.966v9.376l5.5 5.202c6.384 6.038 6.847 8.372 2.602 13.123-3.572 3.998-8.363 4.316-15.168 1.008-5.673-2.758-12.01-2.846-17.392-.24-5.146 2.491-9.437 3.225-12.154 2.078zm26.387-25.308l-.275-16.25-3.905-.32c-2.147-.175-4.96-.054-6.25.27-2.338.586-2.345.638-2.345 16.57v15.98h13.049l-.274-16.25zm3.225-23.833c0-1.885-4.63-3.92-8.9-3.911-4.995.01-10.1 1.984-10.1 3.904 0 1.631.97 1.812 9.5 1.772 8.302-.039 9.5-.261 9.5-1.765zm1-6.92c0-1.838-3.152-3.847-7.074-4.51-5.459-.922-12.926 1.126-12.926 3.544 0 1.576 1.106 1.774 10 1.795 5.5.013 10-.36 10-.83zm-2.965-20.497c.025-8.514.45-12.726 1.465-14.5 2.065-3.613 1.825-5.766-.955-8.545-1.94-1.94-3.484-2.455-7.365-2.455-8.418 0-12.217 4.814-8.68 11 1.014 1.774 1.44 5.986 1.464 14.5l.036 12h14l.035-12zm53.965 76.834c-.825-.321-2.738-1.736-4.25-3.146-4.364-4.066-3.759-7.64 2.25-13.28l5-4.694v-9.581c0-9.524-.017-9.59-2.852-11.056-3.525-1.823-9.148-8.099-9.148-10.21 0-2.966 3.069-8.018 7.528-12.395l4.472-4.388v-15.455l-5.58-5.491c-6.658-6.553-6.815-8.744-.92-12.821 8.045-5.565 24.735-7.607 36.264-4.438 6.305 1.734 13.754 5.924 14.641 8.236.814 2.119-1.656 5.961-6.564 10.213l-3.841 3.328v8.887c0 7.815.237 9.014 1.968 9.94 1.082.58 3.557 3.135 5.5 5.679 4.936 6.464 4.806 10.104-.544 15.296-2.242 2.176-4.942 4.23-6 4.566-1.72.546-1.924 1.614-1.924 10.087v9.476l5.69 5.297c5.508 5.126 5.66 5.405 4.718 8.688-.601 2.097-2.296 4.285-4.44 5.732-3.902 2.634-6.722 2.462-13.51-.824-5.262-2.547-12.306-2.548-17.19-.002-4.28 2.23-9.033 3.224-11.268 2.356zm25.775-25.584l-.275-16.25-3.905-.32c-2.147-.175-4.96-.054-6.25.27-2.338.586-2.345.638-2.345 16.57v15.98h13.049l-.274-16.25zm3.225-23.788c0-2.032-4.628-3.962-9.5-3.962s-9.5 1.93-9.5 3.962c0 1.563 1.087 1.765 9.5 1.765s9.5-.202 9.5-1.765zm0-8.006c0-1.871-4.993-3.945-9.5-3.945s-9.5 2.074-9.5 3.945c0 1.686.901 1.862 9.5 1.862s9.5-.176 9.5-1.862zm-2-19.084c0-8.073.458-12.725 1.5-15.218 1.987-4.755 1.92-5.324-.955-8.2-1.896-1.896-3.503-2.454-7.065-2.454-9.243 0-12.65 4.315-8.974 11.364 1.075 2.062 1.494 6.124 1.494 14.5v11.636h14v-11.628zm54.388 76.18c-2.916-1.222-6.388-5.866-6.388-8.542 0-1.393 2.047-4.156 5.5-7.421l5.5-5.202v-9.376c0-8.258-.222-9.446-1.858-9.966-1.022-.324-3.722-2.31-6-4.413-3.34-3.084-4.142-4.503-4.142-7.328 0-3.785 3.815-9.94 8.392-13.54 2.447-1.925 2.608-2.58 2.608-10.59v-8.54l-4.392-3.599c-5.295-4.339-7.499-8.757-5.543-11.114 1.937-2.333 9.691-5.972 15.79-7.409 11.506-2.711 26.88-.581 34.645 4.8 5.894 4.084 5.737 6.273-.92 12.826l-5.58 5.49v15.105l5.37 5.801c2.955 3.19 5.669 6.985 6.032 8.432.946 3.771-1.195 7.475-6.66 11.52l-4.742 3.51V378.42l5 4.621c6.007 5.552 6.61 9.095 2.25 13.242-4.251 4.043-7.296 4.341-13.821 1.354-6.935-3.174-13.892-3.425-18.622-.67-4.057 2.364-9.593 3.312-12.419 2.127zm26.987-12.177c.344-1.719.625-8.87.625-15.893 0-14.18.099-13.982-7-13.982-7.223 0-7-.545-7 17.107v15.893h6.375c6.34 0 6.378-.017 7-3.125zm3.625-36.578c0-2.38-6.907-4.586-12.34-3.943-5.047.598-7.66 2.002-7.66 4.116 0 .886 2.774 1.226 10 1.226 7.9 0 10-.294 10-1.4zm0-7.947c0-.798-1.674-2.151-3.72-3.007-5.73-2.394-16.28-.374-16.28 3.117 0 1.096 2.119 1.385 10 1.366 8.065-.019 10-.304 10-1.476zm-2.968-19.85c.023-8.964.403-12.491 1.5-13.941 2.07-2.738 1.822-7.205-.532-9.559-3.098-3.097-12.261-2.83-15.546.455-2.85 2.85-2.987 4-.948 7.91 1.086 2.081 1.494 6.18 1.494 15v12.135h14l.032-12zM76.377 275.88c-3.103-1.707-5.453-5.087-5.478-7.877-.015-1.74 1.551-4.088 4.978-7.463l5-4.925v-9.787c0-5.383-.387-9.788-.86-9.788-1.842 0-9.952-8.115-10.57-10.577-.814-3.241 2.817-9.8 7.892-14.255 3.487-3.062 3.538-3.22 3.538-10.963v-7.855l-5.577-5.621c-6.815-6.87-6.883-8.955-.423-12.907 12.515-7.658 34.997-7.517 46.488.29 6.117 4.156 5.512 7.58-2.472 13.995l-4.016 3.228v8.776c0 7.937.212 8.925 2.224 10.334 1.224.857 3.699 3.42 5.5 5.697 5.504 6.955 4.174 12.192-4.649 18.306l-4.075 2.824V255l5.5 5.327c6.514 6.31 6.867 8.547 2.1 13.314-4.141 4.141-7.077 4.322-14.45.89-2.942-1.37-7.06-2.49-9.15-2.49-2.09 0-6.209 1.12-9.15 2.49-5.793 2.697-9.22 3.071-12.35 1.35zm27.5-24.233c0-14.026-.229-16.48-1.582-17-2.003-.769-6.253-.758-9.168.023-2.217.595-2.25.842-2.25 16.987v16.383h13v-16.393zm3-24.229c0-.814-1.654-2.171-3.676-3.016-6.015-2.513-16.513.087-15.116 3.744.796 2.086 18.792 1.39 18.792-.728zm.748-7.123c.744-2.233-4.142-4.255-10.28-4.255-6.395 0-10.188 1.682-9.258 4.106.664 1.73 18.964 1.87 19.538.149zm-2.748-20.498c0-8.854.4-12.63 1.581-14.914 3.36-6.497-1.107-11.431-9.608-10.614-8.124.78-10.792 4.76-7.467 11.135 1.075 2.062 1.494 6.124 1.494 14.5v11.636l7 .056 7 .056v-11.855zm51.775 75.684c-6.503-3.529-6.423-8.914.225-15.255l5-4.769-.061-9.458-.061-9.459-4.1-3c-9.598-7.023-9.848-11.373-1.17-20.333l5.392-5.566v-15.169l-5.5-5.432c-6.185-6.108-6.845-8.797-2.917-11.886 7.819-6.15 24.812-8.703 37.402-5.617 7.522 1.843 15.22 6.614 15.836 9.814.201 1.045-1.85 3.81-5.245 7.074l-5.576 5.357V208.347l4.953 5.238c8.142 8.608 7.969 13.351-.724 19.835l-5.23 3.901v17.891l5.5 5.201c6.532 6.177 6.891 8.437 2.1 13.227-4.14 4.141-7.076 4.322-14.448.89-6.843-3.185-12.273-3.18-18.57.014-5.58 2.83-8.873 3.072-12.806.937zm28.225-23.834c0-14.026-.229-16.48-1.582-17-2.003-.769-6.253-.758-9.168.023-2.217.595-2.25.842-2.25 16.987v16.383h13v-16.393zm2.796-24.43c-.18-.928-2.102-2.27-4.31-3.007-5.253-1.753-14.486-.01-14.486 2.735 0 .97.185 1.95.412 2.178.227.23 4.528.272 9.56.095 7.923-.28 9.103-.547 8.824-2zm.203-7.392c.001-2.528-3.153-3.785-9.5-3.785-6.345 0-9.5 1.257-9.5 3.785 0 1.5 1.194 1.715 9.5 1.715 8.306 0 9.5-.215 9.5-1.715zm-2-19.857c0-8.271.452-12.763 1.545-15.38 1.823-4.363 1.21-7.008-2.136-9.2-3.142-2.059-11.614-1.376-14.418 1.161-2.346 2.123-2.588 6.318-.522 9.05 1.097 1.45 1.476 4.978 1.5 13.941l.032 12 7 .056 7 .056v-11.684zm51.529 73.8c-4.905-4.905-4.584-7.092 1.972-13.442l5.5-5.327v-17.863l-4.456-3.065c-5.574-3.835-7.544-6.607-7.544-10.613 0-3.28 4.559-10.02 8.776-12.973 2.013-1.41 2.224-2.395 2.224-10.381v-8.823l-4.501-3.688c-7.672-6.287-8.115-9.278-1.987-13.44 11.49-7.807 33.967-7.949 46.488-.293 6.571 4.018 6.488 6.422-.454 13.048l-5.546 5.293v7.95c0 7.85.044 7.99 3.538 11.057 5.074 4.455 8.705 11.014 7.892 14.255-.618 2.462-8.728 10.577-10.57 10.577-.473 0-.86 4.405-.86 9.788v9.787l5 4.925c5.439 5.358 6.25 8.403 3.228 12.133-4.027 4.971-8.626 5.515-15.809 1.871-6.074-3.081-11.982-3.221-17.373-.41-2.209 1.15-5.81 2.333-8.003 2.627-3.565.478-4.36.162-7.515-2.993zm29.847-8.853c.344-1.719.625-9.123.625-16.455v-13.33l-3.5-.656c-1.925-.361-5.075-.361-7 0l-3.5.657v32.909h6.375c6.34 0 6.378-.017 7-3.125zm3.422-37.697c-.954-4.976-19.797-4.715-19.797.274 0 1.954.85 2.087 11.036 1.726 7.862-.28 9.04-.548 8.761-2zm.026-7.513c.479-2.463-4.331-3.899-11.57-3.454-6.394.393-8.908 1.639-8.013 3.972.371.97 2.982 1.294 9.882 1.229 7.894-.075 9.429-.351 9.7-1.747zm-2.788-19.665c.025-8.08.46-12.243 1.465-14 2.26-3.952 1.844-7.584-1.135-9.927-4.72-3.714-15.326-1.923-16.838 2.843-.339 1.065.08 3.6.929 5.633 1.093 2.616 1.544 7.108 1.544 15.38v11.683l7-.056 7-.056.035-11.5zm-113.01-46.974c-4.752-4.752-3.529-9.913 3.625-15.298l4.288-3.228.03-9.227c.031-9-.036-9.269-2.718-10.93-1.513-.937-4.213-3.06-6-4.72-5.488-5.092-4.175-11.845 3.685-18.945l4.065-3.673V71.17l-5.5-5.413c-3.32-3.267-5.5-6.275-5.5-7.586 0-3.415 7.572-7.575 17.625-9.685 7.438-1.56 9.74-1.653 16.539-.662 8.042 1.172 15.83 3.998 19.05 6.91 3.253 2.944 2.216 6.205-3.722 11.705l-5.508 5.102.008 7.538.008 7.537 5.033 4.958c8.87 8.736 8.722 15.296-.474 21.124l-4.486 2.843-.036 9.5-.036 9.5 5 4.306c4.221 3.635 4.999 4.848 4.999 7.795 0 7.657-8.754 10.858-17.5 6.4-2.32-1.183-5.897-2-8.752-2-2.854 0-6.43.817-8.748 2-5.194 2.649-12.339 2.66-14.975.025zm30.975-22.419c0-18.34.312-17.607-7.5-17.607-7.79 0-7.5-.655-7.5 16.94 0 8.65.3 16.027.667 16.393.366.367 3.741.667 7.5.667h6.833v-16.393zm2.736-23.315c.718-2.154-4.858-5.292-9.403-5.292-7.127 0-13.438 3.562-10.867 6.133.991.991 19.92.207 20.27-.84zm-.037-7.89c.645-1.935-3.578-4.634-8.04-5.137-7.05-.794-14.154 2.507-12.2 5.669.727 1.176 19.838.675 20.24-.531zm-.668-37.177c1.76-4.043.772-6.007-4.291-8.53-3.018-1.502-4.291-1.624-7.628-.725-2.203.593-4.916 2.237-6.03 3.653-1.88 2.389-1.92 2.831-.554 6.098 1.026 2.456 1.472 7.26 1.472 15.857v12.335l7.25.293 7.25.294.552-13c.335-7.88 1.114-14.29 1.979-16.275z" fill="#8c948b"/><path d="M64.07 445.986c-15.853-2.104-29.46-8.59-41.213-19.647C10.509 414.723 3.272 401.434.91 386.04c-.841-5.489-1.06-50.402-.816-167.5C.467 39.543-.231 55.72 7.82 39.44 14.582 25.765 28.687 12.54 43.377 6.1c2.75-1.205 8.6-3.059 13-4.12C64.037.137 69.256.055 179.06.048 303.243.04 300.235-.08 313.874 5.461c15.769 6.407 30.223 19.904 37.52 35.035 7.951 16.485 7.483 5.071 7.483 182.414 0 168.988.103 165.238-4.897 177.884-7.931 20.06-27.593 37.232-49.816 43.508l-7.787 2.199-113 .16c-62.15.09-115.838-.215-119.307-.675zm235.805-5.446c25.517-5.367 46.793-25.449 52.445-49.5 1.336-5.687 1.53-26.7 1.542-168.04.017-180.05.56-166.179-7.124-181.873-3.175-6.483-5.868-10.154-11.74-16-11.574-11.522-23.953-17.77-39.723-20.05-9.318-1.347-222.478-1.347-231.796 0-15.77 2.28-28.15 8.528-39.723 20.05-5.872 5.846-8.565 9.517-11.74 16C4.332 56.82 4.876 42.95 4.892 223c.013 141.34.205 162.353 1.542 168.04 5.563 23.676 26.793 43.973 51.703 49.432 9.75 2.136 231.609 2.2 241.738.068zM73.8 396.117c-4.45-4.45-3.911-7.265 2.577-13.45l5.5-5.242v-17.289l-4.456-3.065c-9.986-6.871-10.164-13.249-.627-22.484l4.083-3.953V314.54l-5.05-4.5c-6.494-5.785-7.052-9.255-2.039-12.684 11.265-7.706 34.304-8.068 46.817-.735 6.247 3.66 5.966 6.778-1.228 13.596l-5.5 5.213v7.617c0 7.346.11 7.698 3.077 9.892 3.57 2.64 8.923 10.645 8.923 13.347 0 3.456-2.919 7.519-7.466 10.392l-4.53 2.862-.003 9.347-.002 9.348 5 4.495c4.167 3.746 5 5.071 5 7.948 0 7.602-7.698 10.497-16.859 6.34-5.66-2.569-13.08-2.56-18.14.022-5.892 3.006-11.49 2.663-15.077-.923zm30.577-22.036v-16.459l-3.5-.739c-1.925-.406-5.188-.294-7.25.248l-3.75.986v15.795c0 8.687.318 16.113.707 16.502.39.39 3.652.577 7.25.417l6.543-.29v-16.46zm2.75-21.987c1.98-.142.398-3.185-2.41-4.637-6.341-3.279-20.372-.173-17.09 3.783.904 1.089 10.38 1.504 19.5.854zm.558-9.296c.983-5.106-16.92-6.431-19.98-1.479-1.484 2.4 1.22 3.231 10.337 3.177 7.827-.046 9.377-.319 9.643-1.698zm-2.776-20.155c.023-9.054.401-12.592 1.5-14.044 2.246-2.97 1.791-6.906-1.113-9.635-5.613-5.273-17.42-1.844-17.42 5.06 0 1.448.662 3.507 1.47 4.575 1.097 1.452 1.475 4.99 1.5 14.044l.03 12.103h14l.033-12.103zm49.891 73.474c-4.527-4.527-3.961-7.499 2.577-13.535l5.5-5.078v-17.368l-4.456-3.065c-9.986-6.871-10.164-13.249-.627-22.484l4.083-3.953v-15.933l-5.587-5.2c-6.533-6.08-6.843-8.595-1.502-12.186 11.409-7.67 34.334-8.01 46.817-.694 6.2 3.633 5.928 6.616-1.228 13.508l-5.5 5.298v7.738c0 7.523.087 7.8 3.119 9.96 3.572 2.543 8.88 10.41 8.88 13.16 0 3.352-2.783 7.207-7.406 10.255l-4.55 3-.021 9.347-.022 9.348 5 4.495c4.166 3.746 5 5.071 5 7.948 0 7.602-7.698 10.497-16.86 6.34-2.397-1.088-6.51-1.978-9.14-1.978-2.63 0-6.743.89-9.14 1.978-6.503 2.95-11.38 2.657-14.937-.9zm30.577-22.036v-16.459l-3.5-.739c-1.925-.406-5.188-.294-7.25.248l-3.75.986v15.795c0 8.687.318 16.113.707 16.502.39.39 3.652.577 7.25.417l6.543-.29v-16.46zm2.371-22.461c1.562-.966.34-3.163-2.473-4.444-3.066-1.397-10.372-1.477-13.859-.15-2.85 1.083-4.43 3.846-2.781 4.865 1.33.823 17.719.59 19.113-.271zm.94-8.84c.719-3.73-9.759-6.049-16.582-3.67-2.932 1.022-4.732 3.307-3.797 4.82.24.39 4.855.656 10.252.592 8.203-.099 9.866-.385 10.127-1.742zm-2.776-20.153c.026-8.59.45-12.81 1.465-14.587 2.079-3.636 1.816-6.354-.857-8.865-3.252-3.055-8.54-3.752-12.873-1.696-4.661 2.212-5.967 5.188-4.16 9.483.932 2.218 1.39 7.352 1.39 15.578v12.271l7.5-.048 7.5-.049.035-12.087zm51.42 73.959c-1.659-1.659-2.455-3.575-2.455-5.908 0-2.877.833-4.202 5-7.948l5-4.495-.002-9.348-.002-9.347-4.53-2.862c-4.548-2.873-7.466-6.936-7.466-10.392 0-2.75 5.31-10.618 8.881-13.161 3.032-2.159 3.119-2.437 3.119-9.958v-7.737l-5.5-5.213c-7.194-6.818-7.475-9.935-1.228-13.596 12.483-7.316 35.408-6.976 46.816.694 5.341 3.591 5.031 6.107-1.501 12.186l-5.587 5.2v15.933l4.082 3.953c9.538 9.235 9.36 15.613-.627 22.484l-4.455 3.065v17.289l5.5 5.243c6.488 6.184 7.027 8.999 2.577 13.45-3.558 3.557-8.434 3.85-14.936.9-5.595-2.538-12.623-2.53-17.905.022-5.843 2.823-11.684 2.644-14.782-.454zm30.045-22.482v-16.437l-3.25-.842c-1.788-.463-4.713-.463-6.5 0l-3.25.84-.275 16.734-.274 16.734 6.774-.297 6.775-.296v-16.436zm3.305-23.307c.78-4.009-10.976-6.459-17.258-3.596-2.22 1.011-3.375 3.678-2.13 4.922.228.23 4.616.377 9.75.329 7.629-.072 9.389-.375 9.638-1.655zm-.305-8.277c0-2.96-4.233-4.61-10.78-4.206-5.961.37-9.448 2.386-8.482 4.904.378.986 2.956 1.32 9.887 1.278 8.56-.05 9.375-.222 9.375-1.976zm-1.991-19.344c-.587-10.469-.452-12.02 1.355-15.472 2.501-4.778 1.694-7.48-3.004-10.063-4.096-2.252-9.229-1.672-13.259 1.498-2.894 2.276-3.249 5.145-1.101 8.901 1.015 1.777 1.44 5.998 1.464 14.587l.036 12.087 7.58.05 7.582.048-.653-11.636zm-193.28-47.805c-1.64-.66-4.23-5.667-4.23-8.18 0-1.088 2.434-4.174 5.5-6.977l5.5-5.027v-18.122l-3.875-2.446c-8.614-5.438-10.262-11.328-5.144-18.393 1.64-2.262 4.114-4.857 5.5-5.765 2.359-1.545 2.52-2.182 2.52-9.972v-8.32l-5.5-5.413c-3.025-2.977-5.5-6.178-5.5-7.112 0-2.842 4.964-6.513 11.566-8.552 13.607-4.202 25.61-3.54 37.184 2.053 5.69 2.75 6.25 3.3 6.25 6.148 0 2.509-1.088 4.132-5.5 8.205l-5.5 5.078v7.66c0 7.48.079 7.724 3.384 10.481 4.649 3.878 8.616 10.041 8.616 13.386 0 3.392-3.603 7.87-8.42 10.464l-3.58 1.928v19.045l5 4.306c4.354 3.75 5 4.792 5 8.075 0 7.624-8.63 10.641-17.5 6.12-2.23-1.138-5.897-2-8.5-2-2.603 0-6.27.862-8.5 2-3.68 1.875-11.179 2.574-14.271 1.33zm29.77-23.724c0-14.026-.228-16.48-1.58-17-2.751-1.055-10.97-.656-12.22.593-.831.832-1.2 6.045-1.2 17v15.8h15v-16.393zm2.698-23.199c.647-1.94-3.57-4.64-8.038-5.143-6.989-.788-14.156 2.504-12.232 5.618.712 1.152 19.878.703 20.27-.475zm.002-8.005c.192-.577-.608-1.916-1.78-2.976-4.31-3.9-20-1.405-18.34 2.918.64 1.667 19.566 1.721 20.12.058zm-1.096-34.92c3.688-5.628-.885-11.77-8.682-11.662-7.82.108-12.167 6.102-8.494 11.709 1.21 1.845 1.573 5.17 1.573 14.39v11.989l6.75.295 6.75.296.28-12.332c.206-9.049.691-12.958 1.823-14.685zm48.422 88.543c-2.686-2.687-3.544-6.688-2.037-9.504.684-1.278 3.217-3.802 5.628-5.609l4.384-3.285v-9.279c0-8.386-.201-9.386-2.089-10.396-1.148-.615-3.848-2.708-6-4.652-3.219-2.908-3.911-4.194-3.911-7.267 0-4.027 3.678-10.062 8.392-13.77 2.41-1.896 2.608-2.64 2.608-9.817v-7.766l-5.5-5.766c-3.025-3.172-5.5-6.693-5.5-7.826 0-2.7 5.78-6.436 13.5-8.727 16.067-4.768 40.341.519 41.324 9 .267 2.304-.662 3.71-5.258 7.968l-5.582 5.17.008 7.538.008 7.537 5.033 4.958c8.87 8.736 8.722 15.296-.474 21.124l-4.486 2.843-.036 9.5-.036 9.5 5 4.306c4.124 3.552 4.999 4.884 4.999 7.615 0 1.834-.924 4.484-2.073 5.944-1.717 2.184-2.874 2.631-6.75 2.613-2.572-.012-6.639-.912-9.036-2-5.567-2.526-11.66-2.518-16.641.022-5.244 2.674-12.814 2.686-15.475.026zm30.975-22.419c0-18.34.312-17.607-7.5-17.607s-7.5-.733-7.5 17.607v16.393h15v-16.393zm2.697-23.199c.677-2.031-3.705-4.702-8.466-5.16-7.13-.685-14.604 3.046-11.772 5.878.978.978 19.897.307 20.238-.718zm.002-8.005c.192-.577-.61-1.916-1.782-2.976-3.179-2.873-14.07-2.719-17.03.241-1.171 1.172-1.867 2.555-1.546 3.075.807 1.306 19.916.987 20.358-.34zm-1.044-35.002c1.033-1.956 1.393-4.073.975-5.737-1.62-6.455-12.354-8.093-17.739-2.709-2.909 2.909-2.931 3.013-1.423 6.622 1.095 2.622 1.532 7.185 1.532 16.001v12.335l7.25.293 7.25.294.259-12c.189-8.788.696-12.83 1.896-15.1zm49.52 88.285c-1.409-1.5-2.175-3.594-2.175-5.945 0-3.115.709-4.24 5-7.935l4.999-4.306v-19.045l-3.579-1.928c-10.764-5.797-10.949-13.172-.576-23.001l4.156-3.938v-15.052l-5.578-5.15c-4.626-4.27-5.522-5.633-5.25-7.985 1.028-8.895 25.534-13.892 42.407-8.648 7.333 2.28 12.42 5.905 12.42 8.85 0 .935-2.474 4.136-5.5 7.113l-5.5 5.413v8.041c0 7.476.185 8.187 2.609 10.093 4.431 3.487 8.392 9.768 8.392 13.31 0 3.775-3.32 8.225-8.542 11.453l-3.458 2.137v17.984l5.5 5.027c3.066 2.803 5.5 5.89 5.5 6.976 0 2.746-2.62 7.49-4.545 8.229-3.218 1.235-9.617.58-13.455-1.379-2.231-1.138-5.894-2-8.5-2s-6.27.862-8.5 2c-5.594 2.854-12.988 2.707-15.826-.314zm30.6-22.436l-.275-16.75-4.42-.316c-2.43-.173-5.468-.052-6.75.27-2.322.582-2.33.64-2.33 17.065v16.481h14.048l-.274-16.75zm3.035-23.502c.194-1.009-.918-2.27-2.912-3.3-6.144-3.178-18.253-.42-16.638 3.788.409 1.064 2.734 1.363 9.885 1.268 7.792-.103 9.403-.395 9.665-1.756zm.006-8.032c.401-2.082-5.081-4.716-9.816-4.716-6.031 0-11.859 3.808-9.475 6.192.289.289 4.671.47 9.739.402 7.93-.106 9.261-.368 9.552-1.878zm-2.337-19.21c-.58-9.272-.437-11.928.737-13.75 2.816-4.367 2.802-6.704-.06-9.908-2.285-2.556-3.42-3.015-7.474-3.015-8.411 0-12.465 4.818-9.264 11.01 1.186 2.292 1.582 6.077 1.582 15.107v12.05h15.197l-.718-11.493zm-113.454-47.48c-4.752-4.752-3.529-9.913 3.625-15.298l4.288-3.228.03-9.227c.031-9-.036-9.269-2.718-10.93-1.513-.937-4.213-3.06-6-4.72-5.488-5.092-4.175-11.845 3.685-18.945l4.065-3.673V71.17l-5.5-5.413c-3.32-3.267-5.5-6.275-5.5-7.586 0-3.415 7.572-7.575 17.625-9.685 7.438-1.56 9.74-1.653 16.539-.662 8.042 1.172 15.83 3.998 19.05 6.91 3.253 2.944 2.216 6.205-3.722 11.705l-5.508 5.102.008 7.538.008 7.537 5.033 4.958c8.87 8.736 8.722 15.296-.474 21.124l-4.486 2.843-.036 9.5-.036 9.5 5 4.306c4.221 3.635 4.999 4.848 4.999 7.795 0 7.657-8.754 10.858-17.5 6.4-2.32-1.183-5.897-2-8.751-2-2.855 0-6.431.817-8.75 2-5.193 2.649-12.338 2.66-14.974.025zm30.975-22.419c0-18.34.312-17.607-7.5-17.607-7.79 0-7.5-.655-7.5 16.94 0 8.65.3 16.027.667 16.393.366.367 3.741.667 7.5.667h6.833v-16.393zm2.736-23.315c.718-2.154-4.858-5.292-9.403-5.292-7.127 0-13.438 3.562-10.867 6.133.991.991 19.92.207 20.27-.84zm-.037-7.89c.645-1.935-3.578-4.634-8.04-5.137-7.05-.794-14.154 2.507-12.2 5.669.727 1.176 19.838.675 20.24-.531zm-.668-37.177c1.76-4.043.772-6.007-4.291-8.53-3.018-1.502-4.291-1.624-7.628-.725-2.203.593-4.916 2.237-6.03 3.653-1.88 2.389-1.92 2.831-.554 6.098 1.026 2.456 1.472 7.26 1.472 15.857v12.335l7.25.293 7.25.294.552-13c.335-7.88 1.114-14.29 1.979-16.275z" fill="#7f7f7f"/><path d="M57.877 444.48c-15.69-3.38-28.314-10.558-39.112-22.234-7.824-8.462-13.2-18.194-15.916-28.815C.926 385.912.877 381.678.877 223.194.877 42.857.434 55.02 7.525 40.426 14.329 26.42 25.807 15.095 40.377 8.01 56.693.076 48.054.54 179.377.54s122.684-.464 139 7.47c14.543 7.072 26.312 18.67 33.021 32.545 6.849 14.163 6.448 2.83 6.464 182.575.014 158.573-.034 162.78-1.957 170.3-5.197 20.32-21.639 38.903-41.592 47.011-14.078 5.72-11.27 5.606-135.644 5.52-94.007-.066-115.446-.328-120.792-1.48zm244-3.778c20.257-5.437 37.103-19.022 46.084-37.162 7.334-14.815 6.983-5.15 6.684-184.006l-.268-159.994-2.756-8.13c-7.59-22.393-28.524-41.134-51.244-45.875-10.447-2.18-231.553-2.18-242 0-22.72 4.741-43.655 23.482-51.244 45.875l-2.756 8.13-.279 160c-.312 179.359-.725 168.438 6.973 184.5 3.358 7.007 5.675 10.102 13.19 17.616 7.53 7.53 10.595 9.822 17.616 13.177 9.337 4.461 14.173 5.944 23.388 7.174 3.361.449 56.512.731 118.112.628 103.02-.174 112.521-.329 118.5-1.933zM73.8 396.117c-4.45-4.45-3.911-7.265 2.577-13.45l5.5-5.242v-17.289l-4.456-3.065c-9.986-6.871-10.164-13.249-.627-22.484l4.083-3.953V314.54l-5.05-4.5c-6.494-5.785-7.052-9.255-2.039-12.684 11.265-7.706 34.304-8.068 46.817-.735 6.247 3.66 5.966 6.778-1.228 13.596l-5.5 5.213v7.617c0 7.346.11 7.698 3.077 9.892 3.57 2.64 8.923 10.645 8.923 13.347 0 3.456-2.919 7.519-7.466 10.392l-4.53 2.862-.003 9.347-.002 9.348 5 4.495c4.167 3.746 5 5.071 5 7.948 0 7.602-7.698 10.497-16.859 6.34-5.66-2.569-13.08-2.56-18.14.022-5.892 3.006-11.49 2.663-15.077-.923zm30.577-22.036v-16.459l-3.5-.739c-1.925-.406-5.188-.294-7.25.248l-3.75.986v15.795c0 8.687.318 16.113.707 16.502.39.39 3.652.577 7.25.417l6.543-.29v-16.46zm2.75-21.987c1.98-.142.398-3.185-2.41-4.637-6.341-3.279-20.372-.173-17.09 3.783.904 1.089 10.38 1.504 19.5.854zm.558-9.296c.983-5.106-16.92-6.431-19.98-1.479-1.484 2.4 1.22 3.231 10.337 3.177 7.827-.046 9.377-.319 9.643-1.698zm-2.776-20.155c.023-9.054.401-12.592 1.5-14.044 2.246-2.97 1.791-6.906-1.113-9.635-5.613-5.273-17.42-1.844-17.42 5.06 0 1.448.662 3.507 1.47 4.575 1.097 1.452 1.475 4.99 1.5 14.044l.03 12.103h14l.033-12.103zm49.891 73.474c-4.527-4.527-3.961-7.499 2.577-13.535l5.5-5.078v-17.368l-4.456-3.065c-9.986-6.871-10.164-13.249-.627-22.484l4.083-3.953v-15.933l-5.587-5.2c-6.533-6.08-6.843-8.595-1.502-12.186 11.409-7.67 34.334-8.01 46.817-.694 6.2 3.633 5.928 6.616-1.228 13.508l-5.5 5.298v7.738c0 7.523.087 7.8 3.119 9.96 3.572 2.543 8.88 10.41 8.88 13.16 0 3.352-2.783 7.207-7.406 10.255l-4.55 3-.021 9.347-.022 9.348 5 4.495c4.166 3.746 5 5.071 5 7.948 0 7.602-7.698 10.497-16.86 6.34-2.397-1.088-6.51-1.978-9.14-1.978-2.63 0-6.743.89-9.14 1.978-6.503 2.95-11.38 2.657-14.937-.9zm30.577-22.036v-16.459l-3.5-.739c-1.925-.406-5.188-.294-7.25.248l-3.75.986v15.795c0 8.687.318 16.113.707 16.502.39.39 3.652.577 7.25.417l6.543-.29v-16.46zm2.371-22.461c1.562-.966.34-3.163-2.473-4.444-3.066-1.397-10.372-1.477-13.859-.15-2.85 1.083-4.43 3.846-2.781 4.865 1.33.823 17.719.59 19.113-.271zm.94-8.84c.719-3.73-9.759-6.049-16.582-3.67-2.932 1.022-4.732 3.307-3.797 4.82.24.39 4.855.656 10.252.592 8.203-.099 9.866-.385 10.127-1.742zm-2.776-20.153c.026-8.59.45-12.81 1.465-14.587 2.079-3.636 1.816-6.354-.857-8.865-3.252-3.055-8.54-3.752-12.873-1.696-4.661 2.212-5.967 5.188-4.16 9.483.932 2.218 1.39 7.352 1.39 15.578v12.271l7.5-.048 7.5-.049.035-12.087zm51.42 73.959c-1.659-1.659-2.455-3.575-2.455-5.908 0-2.877.833-4.202 5-7.948l5-4.495-.002-9.348-.002-9.347-4.53-2.862c-4.548-2.873-7.466-6.936-7.466-10.392 0-2.75 5.31-10.618 8.881-13.161 3.032-2.159 3.119-2.437 3.119-9.958v-7.737l-5.5-5.213c-7.194-6.818-7.475-9.935-1.228-13.596 12.483-7.316 35.408-6.976 46.816.694 5.341 3.591 5.031 6.107-1.501 12.186l-5.587 5.2v15.933l4.082 3.953c9.538 9.235 9.36 15.613-.627 22.484l-4.455 3.065v17.289l5.5 5.243c6.488 6.184 7.027 8.999 2.577 13.45-3.558 3.557-8.434 3.85-14.936.9-5.595-2.538-12.623-2.53-17.905.022-5.843 2.823-11.684 2.644-14.782-.454zm30.045-22.482v-16.437l-3.25-.842c-1.788-.463-4.713-.463-6.5 0l-3.25.84-.275 16.734-.274 16.734 6.774-.297 6.775-.296v-16.436zm3.305-23.307c.78-4.009-10.976-6.459-17.258-3.596-2.22 1.011-3.375 3.678-2.13 4.922.228.23 4.616.377 9.75.329 7.629-.072 9.389-.375 9.638-1.655zm-.305-8.277c0-2.96-4.233-4.61-10.78-4.206-5.961.37-9.448 2.386-8.482 4.904.378.986 2.956 1.32 9.887 1.278 8.56-.05 9.375-.222 9.375-1.976zm-1.991-19.344c-.587-10.469-.452-12.02 1.355-15.472 2.501-4.778 1.694-7.48-3.004-10.063-4.096-2.252-9.229-1.672-13.259 1.498-2.894 2.276-3.249 5.145-1.101 8.901 1.015 1.777 1.44 5.998 1.464 14.587l.036 12.087 7.58.05 7.582.048-.653-11.636zm-193.28-47.805c-1.64-.66-4.23-5.667-4.23-8.18 0-1.088 2.434-4.174 5.5-6.977l5.5-5.027v-18.122l-3.875-2.446c-8.614-5.438-10.262-11.328-5.144-18.393 1.64-2.262 4.114-4.857 5.5-5.765 2.359-1.545 2.52-2.182 2.52-9.972v-8.32l-5.5-5.413c-3.025-2.977-5.5-6.178-5.5-7.112 0-2.842 4.964-6.513 11.566-8.552 13.607-4.202 25.61-3.54 37.184 2.053 5.69 2.75 6.25 3.3 6.25 6.148 0 2.509-1.088 4.132-5.5 8.205l-5.5 5.078v7.66c0 7.48.079 7.724 3.384 10.481 4.649 3.878 8.616 10.041 8.616 13.386 0 3.392-3.603 7.87-8.42 10.464l-3.58 1.928v19.045l5 4.306c4.354 3.75 5 4.792 5 8.075 0 7.624-8.63 10.641-17.5 6.12-2.23-1.138-5.897-2-8.5-2-2.603 0-6.27.862-8.5 2-3.68 1.875-11.179 2.574-14.271 1.33zm29.77-23.724c0-14.026-.228-16.48-1.58-17-2.751-1.055-10.97-.656-12.22.593-.831.832-1.2 6.045-1.2 17v15.8h15v-16.393zm2.698-23.199c.647-1.94-3.57-4.64-8.038-5.143-6.989-.788-14.156 2.504-12.232 5.618.712 1.152 19.878.703 20.27-.475zm.002-8.005c.192-.577-.608-1.916-1.78-2.976-4.31-3.9-20-1.405-18.34 2.918.64 1.667 19.566 1.721 20.12.058zm-1.096-34.92c3.688-5.628-.885-11.77-8.682-11.662-7.82.108-12.167 6.102-8.494 11.709 1.21 1.845 1.573 5.17 1.573 14.39v11.989l6.75.295 6.75.296.28-12.332c.206-9.049.691-12.958 1.823-14.685zm48.422 88.543c-2.686-2.687-3.544-6.688-2.037-9.504.684-1.278 3.217-3.802 5.628-5.609l4.384-3.285v-9.279c0-8.386-.201-9.386-2.089-10.396-1.148-.615-3.848-2.708-6-4.652-3.219-2.908-3.911-4.194-3.911-7.267 0-4.027 3.678-10.062 8.392-13.77 2.41-1.896 2.608-2.64 2.608-9.817v-7.766l-5.5-5.766c-3.025-3.172-5.5-6.693-5.5-7.826 0-2.7 5.78-6.436 13.5-8.727 16.067-4.768 40.341.519 41.324 9 .267 2.304-.662 3.71-5.258 7.968l-5.582 5.17.008 7.538.008 7.537 5.033 4.958c8.87 8.736 8.722 15.296-.474 21.124l-4.486 2.843-.036 9.5-.036 9.5 5 4.306c4.124 3.552 4.999 4.884 4.999 7.615 0 1.834-.924 4.484-2.073 5.944-1.717 2.184-2.874 2.631-6.75 2.613-2.572-.012-6.639-.912-9.036-2-5.567-2.526-11.66-2.518-16.641.022-5.244 2.674-12.814 2.686-15.475.026zm30.975-22.419c0-18.34.312-17.607-7.5-17.607s-7.5-.733-7.5 17.607v16.393h15v-16.393zm2.697-23.199c.677-2.031-3.705-4.702-8.466-5.16-7.13-.685-14.604 3.046-11.772 5.878.978.978 19.897.307 20.238-.718zm.002-8.005c.192-.577-.61-1.916-1.782-2.976-3.179-2.873-14.07-2.719-17.03.241-1.171 1.172-1.867 2.555-1.546 3.075.807 1.306 19.916.987 20.358-.34zm-1.044-35.002c1.033-1.956 1.393-4.073.975-5.737-1.62-6.455-12.354-8.093-17.739-2.709-2.909 2.909-2.931 3.013-1.423 6.622 1.095 2.622 1.532 7.185 1.532 16.001v12.335l7.25.293 7.25.294.259-12c.189-8.788.696-12.83 1.896-15.1zm49.52 88.285c-1.409-1.5-2.175-3.594-2.175-5.945 0-3.115.709-4.24 5-7.935l4.999-4.306v-19.045l-3.579-1.928c-10.764-5.797-10.949-13.172-.576-23.001l4.156-3.938v-15.052l-5.578-5.15c-4.626-4.27-5.522-5.633-5.25-7.985 1.028-8.895 25.534-13.892 42.407-8.648 7.333 2.28 12.42 5.905 12.42 8.85 0 .935-2.474 4.136-5.5 7.113l-5.5 5.413v8.041c0 7.476.185 8.187 2.609 10.093 4.431 3.487 8.392 9.768 8.392 13.31 0 3.775-3.32 8.225-8.542 11.453l-3.458 2.137v17.984l5.5 5.027c3.066 2.803 5.5 5.89 5.5 6.976 0 2.746-2.62 7.49-4.545 8.229-3.218 1.235-9.617.58-13.455-1.379-2.231-1.138-5.894-2-8.5-2s-6.27.862-8.5 2c-5.594 2.854-12.988 2.707-15.826-.314zm30.6-22.436l-.275-16.75-4.42-.316c-2.43-.173-5.468-.052-6.75.27-2.322.582-2.33.64-2.33 17.065v16.481h14.048l-.274-16.75zm3.035-23.502c.194-1.009-.918-2.27-2.912-3.3-6.144-3.178-18.253-.42-16.638 3.788.409 1.064 2.734 1.363 9.885 1.268 7.792-.103 9.403-.395 9.665-1.756zm.006-8.032c.401-2.082-5.081-4.716-9.816-4.716-6.031 0-11.859 3.808-9.475 6.192.289.289 4.671.47 9.739.402 7.93-.106 9.261-.368 9.552-1.878zm-2.337-19.21c-.58-9.272-.437-11.928.737-13.75 2.816-4.367 2.802-6.704-.06-9.908-2.285-2.556-3.42-3.015-7.474-3.015-8.411 0-12.465 4.818-9.264 11.01 1.186 2.292 1.582 6.077 1.582 15.107v12.05h15.197l-.718-11.493zm-113.454-47.48c-4.752-4.752-3.529-9.913 3.625-15.298l4.288-3.228.03-9.227c.031-9-.036-9.269-2.718-10.93-1.513-.937-4.213-3.06-6-4.72-5.488-5.092-4.175-11.845 3.685-18.945l4.065-3.673V71.17l-5.5-5.413c-3.32-3.267-5.5-6.275-5.5-7.586 0-3.415 7.572-7.575 17.625-9.685 7.438-1.56 9.74-1.653 16.539-.662 8.042 1.172 15.83 3.998 19.05 6.91 3.253 2.944 2.216 6.205-3.722 11.705l-5.508 5.102.008 7.538.008 7.537 5.033 4.958c8.87 8.736 8.722 15.296-.474 21.124l-4.486 2.843-.036 9.5-.036 9.5 5 4.306c4.221 3.635 4.999 4.848 4.999 7.795 0 7.657-8.754 10.858-17.5 6.4-2.32-1.183-5.897-2-8.751-2-2.855 0-6.431.817-8.75 2-5.193 2.649-12.338 2.66-14.974.025zm30.975-22.419c0-18.34.312-17.607-7.5-17.607-7.79 0-7.5-.655-7.5 16.94 0 8.65.3 16.027.667 16.393.366.367 3.741.667 7.5.667h6.833v-16.393zm2.736-23.315c.718-2.154-4.858-5.292-9.403-5.292-7.127 0-13.438 3.562-10.867 6.133.991.991 19.92.207 20.27-.84zm-.037-7.89c.645-1.935-3.578-4.634-8.04-5.137-7.05-.794-14.154 2.507-12.2 5.669.727 1.176 19.838.675 20.24-.531zm-.668-37.177c1.76-4.043.772-6.007-4.291-8.53-3.018-1.502-4.291-1.624-7.628-.725-2.203.593-4.916 2.237-6.03 3.653-1.88 2.389-1.92 2.831-.554 6.098 1.026 2.456 1.472 7.26 1.472 15.857v12.335l7.25.293 7.25.294.552-13c.335-7.88 1.114-14.29 1.979-16.275z" fill="#ba1a21"/><path d="M57.877 444.48c-15.69-3.38-28.314-10.558-39.112-22.234-7.824-8.462-13.2-18.194-15.916-28.815C.926 385.912.877 381.678.877 223.194.877 42.857.434 55.02 7.525 40.426 14.329 26.42 25.807 15.095 40.377 8.01 56.693.076 48.054.54 179.377.54s122.684-.464 139 7.47c14.543 7.072 26.312 18.67 33.021 32.545 6.849 14.163 6.448 2.83 6.464 182.575.014 158.573-.034 162.78-1.957 170.3-5.197 20.32-21.639 38.903-41.592 47.011-14.078 5.72-11.27 5.606-135.644 5.52-94.007-.066-115.446-.328-120.792-1.48zm244-3.778c20.257-5.437 37.103-19.022 46.084-37.162 7.334-14.815 6.983-5.15 6.684-184.006l-.268-159.994-2.756-8.13c-7.59-22.393-28.524-41.134-51.244-45.875-10.447-2.18-231.553-2.18-242 0-22.72 4.741-43.655 23.482-51.244 45.875l-2.756 8.13-.279 160c-.312 179.359-.725 168.438 6.973 184.5 3.358 7.007 5.675 10.102 13.19 17.616 7.53 7.53 10.595 9.822 17.616 13.177 9.337 4.461 14.173 5.944 23.388 7.174 3.361.449 56.512.731 118.112.628 103.02-.174 112.521-.329 118.5-1.933zM73.8 396.117c-4.45-4.45-3.911-7.265 2.577-13.45l5.5-5.242v-17.289l-4.456-3.065c-9.986-6.871-10.164-13.249-.627-22.484l4.083-3.953V314.54l-5.05-4.5c-6.494-5.785-7.052-9.255-2.039-12.684 11.265-7.706 34.304-8.068 46.817-.735 6.247 3.66 5.966 6.778-1.228 13.596l-5.5 5.213v7.617c0 7.346.11 7.698 3.077 9.892 3.57 2.64 8.923 10.645 8.923 13.347 0 3.456-2.919 7.519-7.466 10.392l-4.53 2.862-.003 9.347-.002 9.348 5 4.495c4.167 3.746 5 5.071 5 7.948 0 7.602-7.698 10.497-16.859 6.34-5.66-2.569-13.08-2.56-18.14.022-5.892 3.006-11.49 2.663-15.077-.923zm30.577-22.036v-16.459l-3.5-.739c-1.925-.406-5.188-.294-7.25.248l-3.75.986v15.795c0 8.687.318 16.113.707 16.502.39.39 3.652.577 7.25.417l6.543-.29v-16.46zm2.75-21.987c1.98-.142.398-3.185-2.41-4.637-6.341-3.279-20.372-.173-17.09 3.783.904 1.089 10.38 1.504 19.5.854zm.558-9.296c.983-5.106-16.92-6.431-19.98-1.479-1.484 2.4 1.22 3.231 10.337 3.177 7.827-.046 9.377-.319 9.643-1.698zm-2.776-20.155c.023-9.054.401-12.592 1.5-14.044 2.246-2.97 1.791-6.906-1.113-9.635-5.613-5.273-17.42-1.844-17.42 5.06 0 1.448.662 3.507 1.47 4.575 1.097 1.452 1.475 4.99 1.5 14.044l.03 12.103h14l.033-12.103zm49.891 73.474c-4.527-4.527-3.961-7.499 2.577-13.535l5.5-5.078v-17.368l-4.456-3.065c-9.986-6.871-10.164-13.249-.627-22.484l4.083-3.953v-15.933l-5.587-5.2c-6.533-6.08-6.843-8.595-1.502-12.186 11.409-7.67 34.334-8.01 46.817-.694 6.2 3.633 5.928 6.616-1.228 13.508l-5.5 5.298v7.738c0 7.523.087 7.8 3.119 9.96 3.572 2.543 8.88 10.41 8.88 13.16 0 3.352-2.783 7.207-7.406 10.255l-4.55 3-.021 9.347-.022 9.348 5 4.495c4.166 3.746 5 5.071 5 7.948 0 7.602-7.698 10.497-16.86 6.34-2.397-1.088-6.51-1.978-9.14-1.978-2.63 0-6.743.89-9.14 1.978-6.503 2.95-11.38 2.657-14.937-.9zm30.577-22.036v-16.459l-3.5-.739c-1.925-.406-5.188-.294-7.25.248l-3.75.986v15.795c0 8.687.318 16.113.707 16.502.39.39 3.652.577 7.25.417l6.543-.29v-16.46zm2.371-22.461c1.562-.966.34-3.163-2.473-4.444-3.066-1.397-10.372-1.477-13.859-.15-2.85 1.083-4.43 3.846-2.781 4.865 1.33.823 17.719.59 19.113-.271zm.94-8.84c.719-3.73-9.759-6.049-16.582-3.67-2.932 1.022-4.732 3.307-3.797 4.82.24.39 4.855.656 10.252.592 8.203-.099 9.866-.385 10.127-1.742zm-2.776-20.153c.026-8.59.45-12.81 1.465-14.587 2.079-3.636 1.816-6.354-.857-8.865-3.252-3.055-8.54-3.752-12.873-1.696-4.661 2.212-5.967 5.188-4.16 9.483.932 2.218 1.39 7.352 1.39 15.578v12.271l7.5-.048 7.5-.049.035-12.087zm51.42 73.959c-1.659-1.659-2.455-3.575-2.455-5.908 0-2.877.833-4.202 5-7.948l5-4.495-.002-9.348-.002-9.347-4.53-2.862c-4.548-2.873-7.466-6.936-7.466-10.392 0-2.75 5.31-10.618 8.881-13.161 3.032-2.159 3.119-2.437 3.119-9.958v-7.737l-5.5-5.213c-7.194-6.818-7.475-9.935-1.228-13.596 12.483-7.316 35.408-6.976 46.816.694 5.341 3.591 5.031 6.107-1.501 12.186l-5.587 5.2v15.933l4.082 3.953c9.538 9.235 9.36 15.613-.627 22.484l-4.455 3.065v17.289l5.5 5.243c6.488 6.184 7.027 8.999 2.577 13.45-3.558 3.557-8.434 3.85-14.936.9-5.595-2.538-12.623-2.53-17.905.022-5.843 2.823-11.684 2.644-14.782-.454zm30.045-22.482v-16.437l-3.25-.842c-1.788-.463-4.713-.463-6.5 0l-3.25.84-.275 16.734-.274 16.734 6.774-.297 6.775-.296v-16.436zm3.305-23.307c.78-4.009-10.976-6.459-17.258-3.596-2.22 1.011-3.375 3.678-2.13 4.922.228.23 4.616.377 9.75.329 7.629-.072 9.389-.375 9.638-1.655zm-.305-8.277c0-2.96-4.233-4.61-10.78-4.206-5.961.37-9.448 2.386-8.482 4.904.378.986 2.956 1.32 9.887 1.278 8.56-.05 9.375-.222 9.375-1.976zm-1.991-19.344c-.587-10.469-.452-12.02 1.355-15.472 2.501-4.778 1.694-7.48-3.004-10.063-4.096-2.252-9.229-1.672-13.259 1.498-2.894 2.276-3.249 5.145-1.101 8.901 1.015 1.777 1.44 5.998 1.464 14.587l.036 12.087 7.58.05 7.582.048-.653-11.636zm-193.28-47.805c-1.64-.66-4.23-5.667-4.23-8.18 0-1.088 2.434-4.174 5.5-6.977l5.5-5.027v-18.122l-3.875-2.446c-8.614-5.438-10.262-11.328-5.144-18.393 1.64-2.262 4.114-4.857 5.5-5.765 2.359-1.545 2.52-2.182 2.52-9.972v-8.32l-5.5-5.413c-3.025-2.977-5.5-6.178-5.5-7.112 0-2.842 4.964-6.513 11.566-8.552 13.607-4.202 25.61-3.54 37.184 2.053 5.69 2.75 6.25 3.3 6.25 6.148 0 2.509-1.088 4.132-5.5 8.205l-5.5 5.078v7.66c0 7.48.079 7.724 3.384 10.481 4.649 3.878 8.616 10.041 8.616 13.386 0 3.392-3.603 7.87-8.42 10.464l-3.58 1.928v19.045l5 4.306c4.354 3.75 5 4.792 5 8.075 0 7.624-8.63 10.641-17.5 6.12-2.23-1.138-5.897-2-8.5-2-2.603 0-6.27.862-8.5 2-3.68 1.875-11.179 2.574-14.271 1.33zm29.77-23.724c0-14.026-.228-16.48-1.58-17-2.751-1.055-10.97-.656-12.22.593-.831.832-1.2 6.045-1.2 17v15.8h15v-16.393zm2.698-23.199c.647-1.94-3.57-4.64-8.038-5.143-6.989-.788-14.156 2.504-12.232 5.618.712 1.152 19.878.703 20.27-.475zm.002-8.005c.192-.577-.608-1.916-1.78-2.976-4.31-3.9-20-1.405-18.34 2.918.64 1.667 19.566 1.721 20.12.058zm-1.096-34.92c3.688-5.628-.885-11.77-8.682-11.662-7.82.108-12.167 6.102-8.494 11.709 1.21 1.845 1.573 5.17 1.573 14.39v11.989l6.75.295 6.75.296.28-12.332c.206-9.049.691-12.958 1.823-14.685zm48.422 88.543c-2.686-2.687-3.544-6.688-2.037-9.504.684-1.278 3.217-3.802 5.628-5.609l4.384-3.285v-9.279c0-8.386-.201-9.386-2.089-10.396-1.148-.615-3.848-2.708-6-4.652-3.219-2.908-3.911-4.194-3.911-7.267 0-4.027 3.678-10.062 8.392-13.77 2.41-1.896 2.608-2.64 2.608-9.817v-7.766l-5.5-5.766c-3.025-3.172-5.5-6.693-5.5-7.826 0-2.7 5.78-6.436 13.5-8.727 16.067-4.768 40.341.519 41.324 9 .267 2.304-.662 3.71-5.258 7.968l-5.582 5.17.008 7.538.008 7.537 5.033 4.958c8.87 8.736 8.722 15.296-.474 21.124l-4.486 2.843-.036 9.5-.036 9.5 5 4.306c4.124 3.552 4.999 4.884 4.999 7.615 0 1.834-.924 4.484-2.073 5.944-1.717 2.184-2.874 2.631-6.75 2.613-2.572-.012-6.639-.912-9.036-2-5.567-2.526-11.66-2.518-16.641.022-5.244 2.674-12.814 2.686-15.475.026zm30.975-22.419c0-18.34.312-17.607-7.5-17.607s-7.5-.733-7.5 17.607v16.393h15v-16.393zm2.697-23.199c.677-2.031-3.705-4.702-8.466-5.16-7.13-.685-14.604 3.046-11.772 5.878.978.978 19.897.307 20.238-.718zm.002-8.005c.192-.577-.61-1.916-1.782-2.976-3.179-2.873-14.07-2.719-17.03.241-1.171 1.172-1.867 2.555-1.546 3.075.807 1.306 19.916.987 20.358-.34zm-1.044-35.002c1.033-1.956 1.393-4.073.975-5.737-1.62-6.455-12.354-8.093-17.739-2.709-2.909 2.909-2.931 3.013-1.423 6.622 1.095 2.622 1.532 7.185 1.532 16.001v12.335l7.25.293 7.25.294.259-12c.189-8.788.696-12.83 1.896-15.1zm49.52 88.285c-1.409-1.5-2.175-3.594-2.175-5.945 0-3.115.709-4.24 5-7.935l4.999-4.306v-19.045l-3.579-1.928c-10.764-5.797-10.949-13.172-.576-23.001l4.156-3.938v-15.052l-5.578-5.15c-4.626-4.27-5.522-5.633-5.25-7.985 1.028-8.895 25.534-13.892 42.407-8.648 7.333 2.28 12.42 5.905 12.42 8.85 0 .935-2.474 4.136-5.5 7.113l-5.5 5.413v8.041c0 7.476.185 8.187 2.609 10.093 4.431 3.487 8.392 9.768 8.392 13.31 0 3.775-3.32 8.225-8.542 11.453l-3.458 2.137v17.984l5.5 5.027c3.066 2.803 5.5 5.89 5.5 6.976 0 2.746-2.62 7.49-4.545 8.229-3.218 1.235-9.617.58-13.455-1.379-2.231-1.138-5.894-2-8.5-2s-6.27.862-8.5 2c-5.594 2.854-12.988 2.707-15.826-.314zm30.6-22.436l-.275-16.75-4.42-.316c-2.43-.173-5.468-.052-6.75.27-2.322.582-2.33.64-2.33 17.065v16.481h14.048l-.274-16.75zm3.035-23.502c.194-1.009-.918-2.27-2.912-3.3-6.144-3.178-18.253-.42-16.638 3.788.409 1.064 2.734 1.363 9.885 1.268 7.792-.103 9.403-.395 9.665-1.756zm.006-8.032c.401-2.082-5.081-4.716-9.816-4.716-6.031 0-11.859 3.808-9.475 6.192.289.289 4.671.47 9.739.402 7.93-.106 9.261-.368 9.552-1.878zm-2.337-19.21c-.58-9.272-.437-11.928.737-13.75 2.816-4.367 2.802-6.704-.06-9.908-2.285-2.556-3.42-3.015-7.474-3.015-8.411 0-12.465 4.818-9.264 11.01 1.186 2.292 1.582 6.077 1.582 15.107v12.05h15.197l-.718-11.493z" fill="#485346"/><path d="M58.242 444.547c-14.156-3.079-26.57-9.815-36.897-20.024-7.838-7.748-12.872-15.576-17.147-26.666l-2.821-7.317-.28-164C.85 81.344.998 61.733 2.37 55.497 8.545 27.465 33.394 5.274 63.26 1.12c10.734-1.493 221.5-1.493 232.234 0 29.91 4.16 54.706 26.304 60.89 54.377 1.374 6.236 1.52 25.847 1.272 171.043l-.28 164-3.188 8.273c-9.153 23.748-28.869 40.423-54.125 45.775-9.58 2.03-232.47 1.993-241.82-.041zm235.497-2.549c27.071-3.394 48.895-20.826 57.722-46.106l2.916-8.352.278-160c.19-109.75-.057-162.181-.79-166.946-3.719-24.202-21.841-44.92-46.71-53.401l-7.778-2.653h-240l-7.778 2.653c-24.81 8.461-42.996 29.251-46.712 53.4-.734 4.772-.981 57.05-.79 166.947l.28 160 3.085 8.618c8.855 24.733 30.744 42.455 56.576 45.806 9.654 1.253 219.736 1.284 229.701.034zM75.627 397.96c-2.478-1.443-4.965-6.668-4.249-8.925.333-1.048 2.831-3.907 5.552-6.353l4.947-4.447v-9.598c0-5.278-.401-9.597-.892-9.597-.49 0-3.19-2.067-6-4.593-3.627-3.26-5.108-5.337-5.108-7.162 0-3.47 4.324-10.628 8.004-13.248 2.93-2.086 2.996-2.322 2.996-10.725v-8.591l-5.5-5.766c-3.025-3.172-5.5-6.232-5.5-6.8 0-2.197 5.758-6.207 11.987-8.35 12.839-4.414 31.895-2.365 40.43 4.349 3.997 3.144 3.306 5.919-2.917 11.71l-5.5 5.12v15.375l5.449 5.713c8.626 9.044 8.476 13.136-.733 19.966l-4.716 3.498v19.004l5 4.306c6.03 5.192 6.727 9.194 2.364 13.558-3.245 3.245-7.764 3.456-13.6.636-2.627-1.27-6.186-2-9.74-2-3.627 0-6.984.705-9.524 2-4.222 2.153-9.927 2.564-12.75.92zm29.024-23.607l-.274-16.688-3.393-.878c-1.9-.492-4.979-.503-7-.026l-3.607.852-.274 16.714-.274 16.713h15.096l-.274-16.687zm3.034-23.557c.173-.896-.84-2.385-2.249-3.31-3.329-2.18-14.768-1.666-17.208.775-3.312 3.312-1.18 4.282 9.269 4.222 8.303-.048 9.924-.317 10.188-1.687zm-.308-8.294c0-3-4.243-4.585-11.263-4.205-6.49.352-10.007 2.296-8.982 4.966.404 1.052 2.853 1.35 10.387 1.26 8.981-.108 9.858-.288 9.858-2.021zm-2.26-19.859c.21-7.269.892-13.33 1.707-15.176 1.882-4.26.704-8.039-3.124-10.019-3.663-1.894-9.601-1.438-13.361 1.025-2.856 1.871-3.278 6.515-.962 10.567 1.006 1.76 1.44 5.933 1.464 14.103l.036 11.603h13.89l.35-12.103zm50.315 74.147c-1.407-1.237-2.822-3.63-3.145-5.318-.527-2.754-.014-3.593 5.001-8.177l5.589-5.108v-9.358c0-9.302-.018-9.368-2.95-11.1-5.525-3.264-9.05-7.596-9.05-11.122 0-3.516 5.402-11.642 9.032-13.584 1.73-.926 1.968-2.125 1.968-9.94v-8.887l-3.841-3.328c-4.908-4.252-7.378-8.094-6.565-10.213 1.011-2.635 8.324-6.39 15.928-8.18 11.427-2.688 26.51-.576 34.566 4.84 5.285 3.553 4.986 5.986-1.509 12.277l-5.58 5.404V330.273l5.413 5.846c8.567 9.253 8.356 13.601-.98 20.182l-4.432 3.124v18.994l5 4.621c6.192 5.722 6.716 9.378 1.923 13.411-3.725 3.135-7.759 3.3-13.782.567-5.715-2.593-13.53-2.584-18.641.022-5.29 2.697-10.707 2.6-13.945-.25zm30.22-22.437l-.275-16.688-3.393-.878c-1.9-.492-4.979-.503-7-.026l-3.607.852-.274 16.714-.274 16.713h15.096l-.274-16.687zm3.027-23.525c.876-4.547-14.01-6.87-18.858-2.944-4.315 3.494-2.112 4.661 8.676 4.599 8.221-.048 9.926-.325 10.182-1.655zm-.302-8.278c0-3.047-4.206-4.635-11.263-4.253-6.484.352-10.007 2.295-8.985 4.958.399 1.039 2.915 1.356 10.387 1.309 9.09-.058 9.86-.215 9.86-2.014zm-2.468-19.923c.023-9.04.402-12.576 1.5-14.028 3.312-4.38.698-10.71-5.013-12.143-3.473-.872-8.922.28-11.605 2.452-2.392 1.937-2.964 7.482-.977 9.47.639.638 1.063 6.123 1.063 13.748v12.685l7.5-.048 7.5-.049.032-12.087zm51.604 73.777c-4.37-4.371-3.668-8.375 2.364-13.46l5-4.217V359.536l-4.716-3.498c-9.209-6.83-9.36-10.922-.733-19.966l5.449-5.713v-15.19l-5.58-5.491c-6.49-6.388-6.787-8.814-1.509-12.363 7.448-5.007 21.81-7.374 32.289-5.32 7.649 1.499 16.437 5.499 17.84 8.12 1.321 2.468.355 4.216-5.463 9.883l-4.577 4.459v8.768c0 8.247.149 8.866 2.496 10.405 4.083 2.675 8.504 9.45 8.504 13.03 0 3.47-3.564 7.828-9.05 11.069-2.933 1.732-2.95 1.796-2.95 11.124v9.382l4.947 4.447c5.875 5.282 6.677 7.251 4.594 11.279-2.831 5.475-8.603 6.619-15.541 3.08-5.153-2.63-13.375-2.64-19.14-.023-6.244 2.833-10.981 2.629-14.224-.614zm30.364-22.233v-16.87l-3.5-.567c-1.925-.313-5.075-.313-7 0l-3.5.568V391.04h14v-16.87zm2.796-23.815c.393-2.597-3.5-4.316-9.778-4.316-6.771 0-10.018 1.39-10.018 4.286 0 2.299.15 2.332 9.75 2.159 8.832-.16 9.778-.36 10.046-2.13zm.204-7.901c0-2.747-3.777-4.415-10-4.415-6.28 0-10 1.664-10 4.472 0 2.06.416 2.148 10 2.094 9.465-.054 10-.17 10-2.151zm-2.442-18.776c-.603-10.057-.468-11.524 1.387-15.1 2.55-4.917 2.552-5.638.012-8.867-2.524-3.208-7.815-4.33-13.037-2.766-5.675 1.7-7.79 7.239-4.452 11.653 1.099 1.453 1.476 4.994 1.5 14.08l.032 12.139h15.226l-.668-11.139zM74.47 273.79c-1.385-1.237-2.819-3.528-3.186-5.09-.594-2.52-.034-3.43 4.962-8.08l5.63-5.24v-9.603c0-8.479-.216-9.671-1.857-10.192-1.022-.324-3.722-2.31-6-4.413-6.205-5.729-5.479-10.592 2.775-18.585l4.083-3.953v-17.5l-4.103-3.297c-2.257-1.813-4.768-4.58-5.579-6.149-1.367-2.643-1.316-3.022.702-5.17 5.367-5.713 21.496-9.464 32.473-7.552 12.274 2.137 20.507 6.323 20.507 10.426 0 1.361-2.122 4.312-5.5 7.648l-5.5 5.432v15.169l5.391 5.566c8.679 8.96 8.429 13.31-1.17 20.333l-4.099 3-.061 9.497-.061 9.498 5 4.597c4.001 3.678 5 5.236 5 7.798 0 7.32-8.581 10.405-17 6.11-2.397-1.223-5.894-2-9-2s-6.603.777-9 2c-5.331 2.72-11.197 2.618-14.407-.25zm30.181-22.5l-.274-16.75-4.934-.312c-10.036-.635-9.566-1.487-9.566 17.331v16.481h15.048l-.274-16.75zm3.03-23.467c.784-4.075-11.825-6.375-17.854-3.257-2.696 1.394-3.729 3.362-2.44 4.65.28.28 4.888.457 10.24.392 8.23-.1 9.782-.375 10.053-1.785zm.196-7.91c0-3.972-9.867-6.21-16.77-3.803-2.97 1.035-4.731 3.31-3.768 4.868.257.417 4.984.758 10.503.758 9.042 0 10.035-.18 10.035-1.822zm-1.25-34.557c2.913-5.091.817-9.947-4.845-11.224-7.872-1.776-13.931 1.367-13.873 7.197.017 1.766.692 4.085 1.5 5.152 1.097 1.452 1.468 4.91 1.468 13.705v11.763l6.75.295 6.75.296.5-12.5c.29-7.243 1.026-13.418 1.75-14.684zm47.839 87.607c-3.814-4.532-3.321-6.656 2.91-12.55l5.5-5.2v-18.718l-3.579-1.928c-5.167-2.783-8.42-7.05-8.42-11.047 0-2.693 1.099-4.553 5.5-9.307l5.5-5.94V191.28l-4.263-3.493c-2.345-1.921-4.896-4.677-5.67-6.124-1.287-2.402-1.212-2.841.86-5.047 5.458-5.81 21.5-9.578 32.566-7.651 12.274 2.137 20.507 6.323 20.507 10.426 0 1.361-2.122 4.312-5.5 7.648l-5.5 5.432v15.573l4.072 3.68c4.06 3.667 7.928 9.884 7.928 12.74 0 1.976-5.452 8.138-9.112 10.3-2.886 1.705-2.888 1.713-2.888 11.99 0 5.657.36 10.285.798 10.285.44 0 2.69 1.817 5 4.037 5.026 4.83 5.566 8.69 1.747 12.509-3.098 3.097-9.002 3.282-14.545.454-2.397-1.223-5.894-2-9-2s-6.603.777-9 2c-2.182 1.113-5.894 2-8.371 2-3.743 0-4.863-.49-7.04-3.077zm31.185-21.673l-.274-16.75-4.934-.312c-10.036-.635-9.566-1.487-9.566 17.331v16.481h15.048l-.274-16.75zm3.03-23.467c.548-2.848-5.258-5.063-11.995-4.575-6.114.442-9.532 2.467-8.537 5.059.425 1.107 2.72 1.395 10.378 1.302 8.323-.1 9.881-.375 10.153-1.786zm.01-8.052c.42-2.186-5.127-4.73-10.314-4.73-6.514 0-12.453 3.713-9.947 6.219.304.304 4.91.492 10.236.417 8.404-.119 9.729-.37 10.024-1.906zm-1.064-34.415c3.467-6.059-.59-11.547-8.538-11.547-8.86 0-12.536 4.128-9.706 10.901 1.04 2.487 1.494 7.175 1.494 15.408v11.835l7.25.293 7.25.294.5-12.5c.29-7.243 1.026-13.418 1.75-14.684zm49.704 88.23c-4.103-4.103-3.36-8.024 2.546-13.454l5-4.597-.061-9.498-.061-9.497-4.1-3c-9.598-7.023-9.848-11.373-1.17-20.333l5.392-5.566v-15.169l-5.5-5.432c-3.378-3.336-5.5-6.287-5.5-7.648 0-4.103 8.233-8.289 20.506-10.426 10.978-1.912 27.106 1.84 32.474 7.553 2.017 2.147 2.069 2.526.702 5.17-.812 1.568-3.322 4.335-5.579 6.148l-4.103 3.297v17.5l4.082 3.953c8.254 7.993 8.98 12.856 2.776 18.585-2.279 2.103-4.979 4.089-6 4.413-1.64.52-1.858 1.713-1.858 10.192v9.603l5.63 5.24c4.997 4.65 5.556 5.56 4.963 8.08-1.63 6.923-8.98 9.163-17.452 5.318-5.613-2.547-12.62-2.538-17.641.022-5.586 2.848-11.935 2.656-15.046-.454zm30.32-22.296l-.274-16.75h-13l-.274 16.75-.274 16.75h14.096l-.274-16.75zm3.02-23.67c-.588-4.06-9.586-5.943-16.645-3.482-2.249.784-3.15 1.728-3.15 3.304 0 2.13.354 2.207 10.045 2.207 9.522 0 10.028-.106 9.75-2.03zm0-8.002c-.462-3.188-4.532-4.737-11.081-4.219-6.18.49-8.713 1.83-8.713 4.613 0 1.524 1.178 1.721 10.044 1.68 9.506-.044 10.028-.155 9.75-2.074zm-2.232-18.109c-.652-10.58-.533-11.897 1.436-15.964 1.895-3.916 1.99-4.758.81-7.219-3.572-7.453-19.88-5.293-19.773 2.62.02 1.426.679 3.72 1.465 5.094 1.008 1.764 1.44 5.947 1.464 14.204l.036 11.705 6.75.35c3.712.192 7.149.438 7.636.545.506.112.582-4.742.176-11.335z" fill="#0e1f0b"/><path d="M58.242 444.547c-14.156-3.079-26.57-9.815-36.897-20.024-7.838-7.748-12.872-15.576-17.147-26.666l-2.821-7.317-.28-164C.85 81.344.998 61.733 2.37 55.497 8.545 27.465 33.394 5.274 63.26 1.12c10.734-1.493 221.5-1.493 232.234 0 29.91 4.16 54.706 26.304 60.89 54.377 1.374 6.236 1.52 25.847 1.272 171.043l-.28 164-3.188 8.273c-9.153 23.748-28.869 40.423-54.125 45.775-9.58 2.03-232.47 1.993-241.82-.041zm235.497-2.549c27.071-3.394 48.895-20.826 57.722-46.106l2.916-8.352.278-160c.19-109.75-.057-162.181-.79-166.946-3.719-24.202-21.841-44.92-46.71-53.401l-7.778-2.653h-240l-7.778 2.653c-24.81 8.461-42.996 29.251-46.712 53.4-.734 4.772-.981 57.05-.79 166.947l.28 160 3.085 8.618c8.855 24.733 30.744 42.455 56.576 45.806 9.654 1.253 219.736 1.284 229.701.034z"/></svg>