<svg xmlns="http://www.w3.org/2000/svg" width="358.506" height="446.549"><path d="M63.173 445.804c-29.48-3.874-53.312-24.426-61.33-52.888-1.74-6.18-1.83-14.547-1.83-169.5 0-183.224-.655-167.461 7.654-184.5 3.328-6.824 5.842-10.195 12.745-17.09C29.9 12.348 38.053 7.23 50.345 3.032L58.012.416l118-.284c131.87-.318 125.292-.632 141 6.73 15.838 7.423 27.223 18.507 34.468 33.554 7.483 15.543 7.034 3.843 7.015 182.697-.02 179.388.463 167.416-7.384 183.303-9.201 18.631-25.78 31.896-47.599 38.083-6.125 1.737-13.048 1.854-120 2.024-62.608.099-116.567-.223-120.34-.719zm236.131-5.448c11.467-2.321 24.327-8.924 32.972-16.928 12.301-11.39 19.292-25.12 21.323-41.882.621-5.126.868-65.958.667-164.63-.35-172.705.172-159.014-6.625-173.538-9.723-20.779-29.569-34.978-53.724-38.44-5.627-.807-40.184-1.039-119.905-.806-125.602.367-115.73-.225-132.5 7.944-6.856 3.34-10.154 5.804-17.05 12.74-9.79 9.847-14.856 18.502-17.978 30.71-1.922 7.517-1.971 11.708-1.955 167.3.02 176.116-.318 166.574 6.392 180.404 9.055 18.662 27.111 32.657 48 37.202 4.844 1.053 29.29 1.341 119.383 1.404 98.903.07 114.271-.118 121-1.48zM75.435 393.993c-2.124-2.124-2.923-3.886-2.923-6.445 0-2.985.762-4.177 5-7.827l5-4.305-.022-9-.022-9-4.55-3c-4.633-3.056-7.406-6.904-7.406-10.28 0-2.625 5.277-10.31 8.94-13.018 2.932-2.167 3.06-2.571 3.06-9.628v-7.366l-5.5-5.297c-6.554-6.313-7.203-9.563-2.566-12.864 10.831-7.713 30.982-8.58 44.812-1.93 9.346 4.495 9.53 8.245.755 15.435l-4.5 3.689v7.676c0 7.67.003 7.68 4.082 11.63 8.289 8.026 9.22 14.14 3.006 19.754-2.152 1.944-4.852 4.037-6 4.651-1.88 1.006-2.089 2.015-2.089 10.083 0 4.93.37 8.965.821 8.965.452 0 2.927 2.017 5.5 4.483 5.4 5.174 6.077 8.796 2.43 12.995-3.418 3.932-8.37 4.301-15.279 1.138-7.125-3.263-10.828-3.289-17.623-.126-7.263 3.381-11.241 3.271-14.926-.413zm30.077-21.97c0-17.652.223-17.107-7-17.107s-7-.545-7 17.107v15.893h14v-15.893zm2.25-23.372c-.137-.404-.25-1.15-.25-1.658 0-1.706-7.033-3.3-11.563-2.62-4.338.65-7.92 2.953-6.974 4.483.61.987 19.124.786 18.787-.205zm.75-7.712c0-.537-1.176-1.748-2.613-2.69-4.75-3.112-16.387-1.549-16.387 2.202 0 1.184 1.824 1.465 9.5 1.465 5.517 0 9.5-.41 9.5-.977zm-2.968-20.523c.024-8.964.403-12.491 1.5-13.941 3.655-4.833-.228-10.56-7.16-10.56-8.74 0-12.156 4.036-9.007 10.64 1.212 2.542 1.635 6.328 1.635 14.645v11.216h13l.032-12zm54.968 75.27c-1.375-.714-3.264-2.822-4.198-4.685-2.127-4.243-.925-7.045 5.095-11.882l4.103-3.297v-9.238c0-9.123-.035-9.258-2.888-10.943-4.04-2.386-9.112-8.404-9.112-10.81 0-3.055 2.392-6.986 6.918-11.368l4.082-3.953v-16.808l-5-4.694c-6.87-6.45-6.82-9.011.25-13.052 9.97-5.697 24.715-6.94 36.906-3.11 6.463 2.032 12.844 6.553 12.844 9.102 0 .676-2.475 3.724-5.5 6.773l-5.5 5.544v8.303c0 7.723.172 8.414 2.468 9.919 3.502 2.294 8.532 10.267 8.532 13.523 0 2.963-3.94 7.576-9.05 10.594-2.917 1.724-2.95 1.842-2.95 10.697v8.954l5.5 5.119c6.536 6.082 6.897 8.345 2.1 13.142-4.141 4.141-7.077 4.322-14.45.89-6.498-3.025-11.796-3.164-17.013-.445-5.158 2.69-10.046 3.331-13.137 1.726zm27-24.27v-16.5h-4.918c-8.463 0-8.082-.807-8.082 17.107v15.893h13v-16.5zm3.003-22.75a422.21 422.21 0 0 1-.003-1.652c0-1.21-5.596-3.098-9.18-3.098-3.96 0-9.82 2.587-9.82 4.336 0 1.16 1.841 1.411 9.504 1.3 5.227-.075 9.502-.474 9.5-.886zm.997-8.215c0-2.315-4.017-3.868-10-3.868s-10 1.553-10 3.868c0 1.189 1.885 1.465 10 1.465 8.116 0 10-.276 10-1.465zm-2.964-19.535c.024-8.08.46-12.244 1.464-14 3.65-6.385.387-11-7.777-11-3.25 0-6.168.623-7.594 1.622-2.02 1.415-2.228 2.15-1.63 5.75.377 2.27.893 9.753 1.146 16.628l.46 12.5h13.895l.036-11.5zm48.016 73.25c-1.64-1.513-3.278-4.02-3.642-5.571-.583-2.484.01-3.473 4.964-8.27l5.626-5.45-.054-8.73-.055-8.73-4.695-3.083c-9.153-6.01-9.483-12.012-1.139-20.67l4.943-5.128V313.341l-4.918-4.844c-6.357-6.261-6.813-8.096-2.916-11.736 10.501-9.81 41.988-9.18 51.216 1.023 1.636 1.809 1.72 2.472.642 5.074-.682 1.647-3.216 4.614-5.632 6.593l-4.392 3.599v8.039c0 7.472.184 8.184 2.608 10.09 4.432 3.486 8.392 9.767 8.392 13.31 0 3.898-3.307 8.2-8.42 10.954l-3.58 1.928v17.74l5.006 4.5c5.746 5.166 6.785 7.875 4.623 12.056-2.924 5.653-9.903 6.53-17.893 2.247-4.992-2.675-10.207-2.512-16.155.506-6.536 3.316-10.74 3.242-14.53-.254zm28.723-22.5l-.275-16.25-3.905-.32c-2.147-.176-4.96-.054-6.25.27-2.338.586-2.345.638-2.345 16.569v15.98h13.05l-.275-16.25zm3.225-23.309c0-3.63-9.43-5.542-15.28-3.098-2.046.855-3.72 2.191-3.72 2.97 0 1.122 1.957 1.404 9.5 1.369 6.681-.031 9.5-.4 9.5-1.241zm.473-7.397c1.137-1.84-4.558-4.425-9.585-4.349-4.744.072-9.888 2.323-9.888 4.328 0 1.273 18.686 1.293 19.473.02zm-2.437-20.544c.025-8.514.45-12.726 1.464-14.5 2.005-3.508 1.85-4.742-.954-7.546-1.897-1.896-3.504-2.454-7.066-2.454-8.197 0-11.44 3.611-8.866 9.872.909 2.211 1.386 7.376 1.386 15v11.628h14l.036-12zm-190.96-47.089c-2.376-2-3.076-3.4-3.076-6.156 0-3 .794-4.297 5-8.164l5-4.596-.036-8.998-.037-8.997-4.486-2.843c-9.196-5.828-9.344-12.388-.474-21.124l5.033-4.958v-14.143l-5.5-5.432c-7.179-7.09-7.38-9.814-1-13.553 7.194-4.216 14.657-5.734 25.5-5.187 13.922.703 25 5.606 25 11.066 0 1.087-2.475 4.412-5.5 7.39l-5.5 5.412v7.439c0 7.429.005 7.443 4.065 11.11 4.936 4.46 6.935 8.108 6.935 12.657 0 2.723-.808 4.164-3.911 6.967-2.152 1.944-4.852 4.037-6 4.651-1.868 1-2.089 2.021-2.089 9.657v8.538l5.5 5.027c6.603 6.034 7.204 9.276 2.577 13.903-3.557 3.557-8.434 3.851-14.936.9-5.613-2.546-12.62-2.537-17.64.023-5.518 2.813-10.63 2.604-14.424-.589zm29.924-22.366v-15.955l-3.5-.656c-1.925-.361-5.075-.361-7 0l-3.5.656v31.91h14V250.96zm2.744-23.386c-.76-2.427-7.107-4.773-11.244-4.155-4.439.662-8.856 3.11-8.029 4.449.855 1.382 19.707 1.095 19.273-.294zm.026-7.469c.808-2.424-4.64-4.44-10.792-3.995-6.195.448-8.617 1.696-7.738 3.988.633 1.65 17.98 1.658 18.53.007zm-2.734-20.128c.024-8.134.459-12.303 1.464-14.062 3.396-5.94-.284-11-8-11s-11.396 5.06-8 11c1.006 1.759 1.44 5.928 1.465 14.062l.035 11.563h13l.036-11.563zm53.058 73.188c-5.179-4.848-4.995-6.653 1.318-12.967l5.588-5.588v-9.132c0-9.007-.04-9.155-2.888-10.838-4.235-2.502-9.112-8.448-9.112-11.11 0-2.484 4.076-8.594 8.365-12.54 2.438-2.243 2.635-3.04 2.635-10.681v-8.257l-5-4.734c-2.996-2.837-5-5.6-5-6.895 0-5.42 10.802-10.462 24.119-11.256 9.914-.592 17.08.76 24.201 4.566 8.208 4.386 8.243 6.36.257 14.14l-4.577 4.458V208.51l4.083 3.953c8.254 7.992 8.98 12.856 2.775 18.584-2.279 2.104-4.979 4.09-6 4.414-1.632.518-1.858 1.7-1.858 9.715v9.125l5.5 5.242c3.359 3.202 5.5 6.086 5.5 7.408 0 1.19-1.53 3.695-3.4 5.565-4.022 4.022-7.715 4.402-13.6 1.4-5.153-2.629-13.375-2.638-19.14-.022-6.193 2.81-10.214 2.597-13.766-.728zm28.68-22.5l-.274-16.25-3.905-.32c-2.147-.176-4.96-.054-6.25.27-2.338.586-2.345.638-2.345 16.569v15.98h13.05l-.275-16.25zm4.226-22.744c0-1.9-3.25-3.92-7.262-4.513-5.118-.756-12.073 1.292-12.535 3.692-.287 1.49.841 1.684 9.736 1.684 5.534 0 10.061-.388 10.061-.863zm-.247-7.766c1.318-3.953-13.43-5.942-17.801-2.402-1.249 1.01-2.012 2.256-1.696 2.767.802 1.297 19.057.955 19.497-.365zm-2.717-20.137c.025-8.17.458-12.343 1.464-14.103 2.024-3.54 1.832-6.018-.674-8.686-1.722-1.833-3.236-2.314-7.278-2.314-3.088 0-6.017.64-7.419 1.622-2.02 1.415-2.228 2.15-1.63 5.75.377 2.27.894 9.8 1.147 16.73l.461 12.604h13.893l.036-11.603zm48.24 74.125c-1.222-.95-2.731-3.198-3.353-4.995-1.367-3.952-.037-6.44 6.06-11.34l4.017-3.228V237.012l-4.455-3.066c-5.362-3.688-7.545-6.598-7.545-10.057 0-3.23 5.029-11.29 8.437-13.524 2.41-1.58 2.563-2.174 2.563-9.997v-8.318l-4.422-3.624c-2.432-1.992-4.9-4.998-5.486-6.678-.962-2.758-.781-3.32 1.86-5.787 4.775-4.461 12.91-6.545 25.548-6.545 12.42 0 18.896 1.68 24.496 6.355 3.26 2.722 3.333 2.937 2.05 6.033-.73 1.765-3.29 4.817-5.688 6.781l-4.358 3.572v8.344c0 7.276.252 8.48 1.968 9.398 3.63 1.942 9.032 10.067 9.032 13.584 0 3.78-3.316 8.229-8.542 11.459l-3.458 2.137v8.668l.001 8.669 4.993 4.3c5.761 4.961 6.814 7.736 4.577 12.062-2.876 5.562-8.634 6.654-16.43 3.116-5.661-2.569-13.08-2.56-18.14.022-4.795 2.446-10.743 2.545-13.724.228zm28.724-23.121c0-13.57-.231-15.982-1.582-16.5-2.003-.769-6.253-.758-9.168.023-2.213.593-2.25.86-2.25 16.486v15.884h13v-15.893zm2.79-23.987c-.17-.899-2.168-2.21-4.487-2.946-3.486-1.105-4.976-1.1-8.983.032-2.886.815-4.93 2.004-5.117 2.978-.27 1.406.963 1.617 9.29 1.589 8.302-.028 9.562-.252 9.297-1.653zm.98-6.558c.336-.335-.166-1.387-1.115-2.336-2.41-2.41-14.847-2.462-17.238-.072-.91.91-1.418 2.035-1.131 2.5.585.947 18.53.863 19.485-.092zm-2.77-20.656c0-8.414.418-12.478 1.494-14.542 2.04-3.91 1.901-5.06-.948-7.91-1.788-1.787-3.542-2.454-6.453-2.454-8.2 0-11.989 3.964-9.484 9.922.921 2.19 1.391 7.274 1.391 15.049v11.74l7-.064 7-.064v-11.677zM75.148 155.279c-4.111-4.111-3.614-8.35 1.566-13.326 2.31-2.22 4.56-4.037 5-4.037.439 0 .798-4.233.798-9.406v-9.407l-5.033-3.616c-8.786-6.312-8.879-11.312-.38-20.493l5.413-5.845V75.358l-5.5-5.177c-6.46-6.08-7.01-8.817-2.53-12.586 5.14-4.325 12.35-6.18 24.03-6.18 7.535 0 12.053.52 16 1.84 6.773 2.266 12 6.093 12 8.786 0 1.113-2.475 4.618-5.5 7.79l-5.5 5.766v7.265c0 6.64.225 7.443 2.608 9.317 4.736 3.726 8.392 9.742 8.392 13.81 0 4.117-3.57 8.62-9.106 11.482-2.858 1.478-2.894 1.604-2.881 10.22l.012 8.725 5.488 4.812c6.608 5.796 7.224 9.105 2.564 13.765-3.557 3.557-8.434 3.851-14.936.9-5.579-2.53-12.153-2.522-17.14.023-5.74 2.928-12.062 2.666-15.365-.636zm30.364-22.318v-15.955l-3.57-.67c-1.964-.368-5.001-.26-6.75.242l-3.18.91-.275 15.714-.276 15.714h14.051V132.96zm3-22.734c.275-.266-.562-1.345-1.86-2.397-4.58-3.713-20.51-1.476-17.273 2.426.932 1.123 17.968 1.097 19.133-.03zm-.5-8.386c0-3.372-10.592-5.207-15.953-2.765-1.4.639-2.547 1.883-2.547 2.766 0 1.367 1.375 1.588 9.25 1.486 7.095-.092 9.25-.438 9.25-1.487zm-2.464-19.675c.025-8.297.455-12.485 1.464-14.25 2.18-3.812 1.79-6.627-1.25-9.026-2.205-1.741-3.693-2.081-7.51-1.718-2.623.249-5.654 1.26-6.75 2.253-2.346 2.123-2.588 6.318-.522 9.05 1.093 1.444 1.477 4.947 1.5 13.69l.032 11.75h13l.036-11.75zm131.714 74.67c-2.588-1.508-5-6.788-4.326-9.473.323-1.285 2.834-4.232 5.581-6.549l4.995-4.211v-17.524l-3.458-2.137c-10.58-6.54-11.072-13.331-1.624-22.48l4.082-3.952V74.084l-4.03-3.192c-4.54-3.596-7.257-8.065-6.346-10.44.937-2.441 8.215-6.28 15.4-8.122 15.663-4.016 39.976 2.22 39.976 10.253 0 .967-2.475 4.1-5.5 6.96l-5.5 5.2v8.019c0 7.765.095 8.085 2.996 10.151 3.687 2.625 8.004 9.78 8.004 13.264 0 3.078-3.75 7.803-8.542 10.765l-3.458 2.137v17.176l5.641 5.25c5.215 4.854 5.593 5.502 5.001 8.58-1.404 7.31-9.5 9.985-17.642 5.83-2.318-1.182-5.894-2-8.749-2-2.854 0-6.432.819-8.75 2-4.198 2.14-10.888 2.588-13.75.92zm28.25-23.84v-15.921l-2.916-.64c-1.604-.353-4.529-.339-6.5.031l-3.584.672v31.778h13v-15.92zm3-23.618c0-2.15-3.371-3.462-8.887-3.462-5.521 0-10.113 1.624-10.113 3.577 0 1.808.991 1.96 10.477 1.6 6.459-.246 8.523-.661 8.523-1.715zm.001-6.76v-1.58c0-1.778-6.101-3.367-11.087-2.888-4.9.47-8.704 2.679-7.624 4.426.627 1.015 18.713 1.056 18.711.042zm-2-20.549c0-8.913.4-12.65 1.618-15.091 2.909-5.83-.986-10.062-9.26-10.062-2.558 0-4.316.803-6.468 2.955-2.909 2.909-2.931 3.013-1.423 6.622 1.084 2.595 1.532 7.138 1.532 15.545v11.878h14V82.069zm-107.266 72.853c-3.368-2.65-4.857-6.975-3.363-9.767.627-1.171 3.05-3.764 5.384-5.762l4.244-3.633v-9.206c0-9.09-.037-9.229-2.888-10.913-4.04-2.386-9.112-8.404-9.112-10.81 0-3.055 2.392-6.986 6.918-11.368l4.082-3.953V72.702l-5-4.694c-6.605-6.201-6.735-8.991-.584-12.596 5.219-3.058 8.925-4.227 17.211-5.425 11.25-1.626 28.39 2.972 32.083 8.608 1.787 2.728 1 4.306-5.133 10.28l-4.577 4.457V89.51l4.083 3.953c8.182 7.923 8.894 12.536 2.841 18.41-2.242 2.176-4.942 4.231-6 4.567-1.713.544-1.924 1.609-1.924 9.713v9.102l5.5 5.119c6.536 6.082 6.897 8.345 2.1 13.142-4.141 4.141-7.077 4.322-14.45.89-6.756-3.146-11.349-3.142-17.57.014-5.94 3.014-10.444 3.177-13.845.502zm28.04-23.256l-.275-16.25-3.905-.32c-2.147-.176-4.96-.054-6.25.27-2.338.586-2.345.638-2.345 16.569v15.98h13.05l-.275-16.25zm3.23-23c-.003-.413-.005-1.156-.005-1.652 0-1.21-5.596-3.098-9.18-3.098-4 0-9.82 2.594-9.82 4.376 0 1.212 1.707 1.446 9.505 1.3 5.227-.097 9.502-.514 9.5-.926zm.888-7.329c.936-.89-2.399-3.467-5.644-4.363-6.454-1.782-17.677 2.205-13.49 4.793 1.059.654 18.403.264 19.134-.43zm-2.857-20.377c.024-8.119.46-12.286 1.464-14.044 3.65-6.385.387-11-7.777-11-3.25 0-6.168.623-7.594 1.622-2.02 1.415-2.228 2.15-1.63 5.75.377 2.27.893 9.773 1.146 16.672l.46 12.544h13.895l.036-11.544z" fill="#dc8c8f"/><path d="M64.01 445.855c-16.522-1.975-31.048-9.266-43.598-21.884-6.827-6.863-9.455-10.39-12.745-17.1C-.64 389.926.012 405.58.012 222.915c0-154.19.093-162.833 1.823-169C7.733 32.884 21.07 17.056 41.012 7.419 57.54-.567 50.192-.188 182.512.132l117.5.284 8.761 3.135c11.585 4.145 18.572 8.411 27.448 16.761 8.622 8.11 15.063 17.99 18.975 29.104l2.816 8 .281 162.5c.314 181.656.748 169.847-6.81 185.5-9.05 18.746-26.243 32.692-47.835 38.8-7.603 2.151-8.118 2.161-120.136 2.319-61.875.087-115.651-.219-119.503-.68zm243.002-7.247c26.35-9.248 43.01-29.262 46.495-55.852.762-5.817.999-55.84.784-165.34-.346-175.592.3-160.478-7.539-176.5-2.781-5.686-5.733-9.563-12.204-16.029-9.642-9.633-17.76-14.456-30.581-18.168l-7.955-2.303h-117c-110.636 0-117.353.1-123.5 1.842-20.215 5.729-35.9 18.477-44.503 36.173-6.865 14.121-6.466 2.992-6.482 180.575-.015 156.582.034 160.782 1.957 168.3 3.05 11.924 8.246 20.87 17.571 30.249 6.703 6.742 9.711 8.92 17.525 12.695 16.442 7.944 8.908 7.55 140.432 7.346l117-.18 8-2.808zM77.287 395.357c-6.458-3.505-6.38-8.666.225-14.844l5-4.677v-18.424l-4.742-3.51c-5.465-4.045-7.606-7.75-6.66-11.52.363-1.447 3.077-5.242 6.031-8.432l5.371-5.801v-15.047l-5.005-4.19c-5.827-4.879-7.096-8.121-4.363-11.143 6.701-7.41 26.427-10.373 40.149-6.031 6.865 2.172 13.22 6.403 13.22 8.803 0 .838-2.476 4.118-5.5 7.29l-5.5 5.766v8.044c0 7.495.171 8.158 2.519 9.696 4.219 2.764 8.48 9.489 8.48 13.382 0 2.826-.802 4.244-4.142 7.328-2.279 2.104-4.979 4.09-6 4.414-1.63.517-1.858 1.698-1.858 9.608v9.019l5.5 5.201c6.532 6.176 6.89 8.437 2.1 13.227-4.157 4.157-7.365 4.362-14.18.904-2.81-1.425-6.636-2.496-8.92-2.496s-6.11 1.07-8.92 2.496c-5.578 2.83-8.872 3.071-12.805.937zm28-23.691l-.275-16.25-4.42-.316c-9.43-.674-9.08-1.324-9.08 16.835v15.98h14.05l-.275-16.25zm3.225-23.438c0-1.763-5.91-4.312-10-4.312-3.498 0-10 2.459-10 3.782 0 1.674 1 1.855 10.485 1.9 7.556.035 9.515-.247 9.515-1.37zm-.19-8.062c-.572-2.97-7.4-4.61-13.56-3.259-4.12.904-5.25 1.567-5.25 3.08 0 1.77.785 1.929 9.573 1.929 8.58 0 9.539-.182 9.237-1.75zm-2.774-19.25c.024-8.08.46-12.244 1.464-14 3.65-6.385.387-11-7.777-11-6.737 0-9.723 1.955-9.723 6.365 0 1.79.66 4.126 1.468 5.194 1.089 1.439 1.477 4.917 1.5 13.44l.032 11.5h13l.036-11.5zm132.208 74.505c-1.24-.894-2.971-3.01-3.846-4.702-2.006-3.88-.851-6.371 5.288-11.402l4.314-3.535v-9.217c0-9.102-.036-9.24-2.888-10.924-4.04-2.386-9.112-8.404-9.112-10.81 0-3.055 2.392-6.986 6.918-11.368l4.082-3.953v-17.171l-4.573-3.822c-7.851-6.563-7.736-9.482.553-13.994 10.42-5.671 24.92-6.458 38.134-2.07 4.93 1.638 10.886 6.286 10.886 8.495 0 .676-2.475 3.724-5.5 6.773l-5.5 5.544V329.51l4.083 3.953c8.577 8.305 8.972 12.42 1.809 18.86-2.81 2.526-5.51 4.593-6 4.593-.49 0-.892 4.126-.892 9.17v9.17l5.631 5.24c4.995 4.648 5.556 5.561 4.964 8.08-.903 3.848-5.954 8.342-9.36 8.33-1.504-.005-5.142-1.13-8.084-2.5-6.53-3.04-11.8-3.162-17.105-.397-5.544 2.89-10.981 3.446-13.802 1.412zm27.756-24.005v-16.5h-4.918c-8.463 0-8.082-.807-8.082 17.107v15.893h13v-16.5zm3-23.604c0-3.702-13.67-5.075-17.649-1.772-3.34 2.77-1.434 3.603 8.15 3.558 8.345-.04 9.5-.256 9.5-1.786zm.985-6.646c-.119-5.809-19.985-6.52-19.985-.715 0 1.189 1.885 1.465 10 1.465 5.5 0 9.993-.338 9.985-.75zm-2.95-20.25c.025-8.08.461-12.244 1.465-14 3.606-6.308.38-11-7.566-11-8.778 0-12.071 3.342-9.457 9.6 1.068 2.554 1.523 7.12 1.523 15.272v11.628h14l.036-11.5zm-108.58 72.545c-4.608-4.607-2.29-10.675 6.201-16.24 2.165-1.418 2.344-2.208 2.344-10.352v-8.817l-3.25-2.229c-7.127-4.888-8.75-7.028-8.75-11.537 0-3.772.626-4.932 5.5-10.197l5.5-5.94v-15.047l-4.948-4.143c-7.552-6.323-7.876-10.088-1.191-13.845 12.404-6.971 33.732-6.557 45.78.889 5.177 3.2 4.634 6.431-2.14 12.737l-5.5 5.12.004 7.278.005 7.278 4.914 4.741c6.276 6.055 8.034 10.824 5.634 15.28-.94 1.747-3.701 4.434-6.135 5.972l-4.423 2.797v18.089l5 4.62c5.689 5.258 6.476 8.854 2.928 13.366-1.687 2.144-2.905 2.635-6.54 2.635-2.494 0-6.2-.884-8.388-2-2.23-1.138-5.894-2-8.5-2s-6.269.862-8.5 2c-5.64 2.877-12.412 2.679-15.545-.455zm30.32-21.759l-.275-16.213-3.25-.931c-2.006-.575-4.494-.575-6.5 0l-3.25.93-.275 16.214-.274 16.214h14.099l-.275-16.214zm2.929-22.157c.299-.298.274-1.244-.055-2.101-1.44-3.751-13.71-4.918-17.705-1.684-4.267 3.455-2.098 4.672 8.009 4.492 5.064-.09 9.452-.408 9.75-.707zm.106-8.881c.414-2.15-4.67-4.748-9.292-4.748-6.423 0-12.478 3.707-10.039 6.146.264.263 4.65.424 9.748.357 7.716-.102 9.321-.396 9.583-1.755zm-2.81-19.557c0-8.835.37-12.298 1.468-13.75 1.704-2.253 1.946-5.8.57-8.37-2.462-4.6-12.2-5.147-16.681-.936-2.738 2.572-2.914 4.273-.85 8.23 1.08 2.071 1.493 6.15 1.493 14.75v11.885h14v-11.809zM75.435 272.993c-4.529-4.53-4.002-7.921 2.077-13.387l5-4.496v-9.381c0-9.283-.03-9.4-2.888-11.088-3.865-2.283-9.112-8.366-9.112-10.564 0-2.514 5.09-10.218 8.832-13.366 3.045-2.562 3.168-2.961 3.168-10.253v-7.587l-5.58-5.404c-6.662-6.453-6.821-8.652-.92-12.735 10.284-7.113 30.887-7.753 43.5-1.351 8.685 4.408 8.944 6.811 1.5 13.907l-5.5 5.243v8.12c0 7.526.188 8.267 2.567 10.139 4.701 3.698 8.433 9.247 8.433 12.54 0 4.01-1.97 6.78-7.544 10.616l-4.456 3.066v17.591l4.934 4.16c5.665 4.777 6.73 7.134 5.056 11.178-2.476 5.976-8.228 7.411-15.85 3.953-2.58-1.17-6.514-1.978-9.64-1.978-3.126 0-7.06.807-9.64 1.978-6.359 2.885-10.413 2.623-13.937-.901zm30.077-21.97c0-17.45.122-17.121-6.332-17.094-7.968.035-7.668-.635-7.668 17.103v15.884h14v-15.893zm2.797-23.922c-1.028-5.341-19.797-4.562-19.797.821 0 .475 4.527.863 10.06.863 8.896 0 10.024-.195 9.737-1.684zm-.008-7.36c.413-2.098-4.058-3.825-9.902-3.825-5.784 0-8.887 1.327-8.887 3.8 0 1.525 1.101 1.717 9.25 1.613 7.27-.093 9.312-.433 9.54-1.588zm-2.757-19.763c.024-8.579.41-12.063 1.5-13.503 2.07-2.738 1.822-7.205-.532-9.56-2.344-2.343-9.985-2.732-14-.712-3.077 1.549-3.87 6.735-1.569 10.248 1.193 1.82 1.57 5.119 1.57 13.742v11.348h13l.03-11.563zm55.325 74.979c-2.925-1.225-5.357-4.931-5.357-8.163 0-1.97 1.455-4.007 5.5-7.704l5.5-5.027v-8.538c0-7.636-.22-8.657-2.088-9.657-1.149-.614-3.849-2.707-6-4.651-6.214-5.614-5.284-11.728 3.006-19.754 4.036-3.908 4.082-4.035 4.082-11.186v-7.233l-5.58-5.49c-6.497-6.396-6.787-8.814-1.483-12.38 11.452-7.7 34.082-7.725 46.813-.053 4.999 3.012 4.44 6.187-2.25 12.795l-5.5 5.432v14.143l5.033 4.958c8.87 8.736 8.722 15.296-.474 21.124l-4.486 2.843-.036 9.75c-.02 5.362.338 9.75.797 9.75.458 0 2.708 1.73 5 3.846 4.985 4.603 5.694 9.379 1.916 12.905-3.73 3.482-6.861 3.668-13.96.828-7.698-3.08-12.413-3.253-17.51-.643-4.695 2.404-10.104 3.285-12.923 2.105zm27.418-24.291l-.275-16.25h-13l-.275 16.25-.274 16.25h14.099l-.275-16.25zm3.033-22.992c.197-1.02-.904-2.274-2.91-3.31-6.09-3.15-18.255-.427-16.66 3.73.379.986 2.956 1.32 9.883 1.278 7.868-.046 9.422-.319 9.687-1.698zm-.022-7.887c.353-1.83-5.24-4.874-8.937-4.866-3.333.008-9.661 1.882-10.401 3.08-1.752 2.834.46 3.633 9.706 3.51 7.685-.103 9.379-.406 9.632-1.724zm-2.754-19.371c.024-8.964.403-12.491 1.5-13.941 5.404-7.146-3.668-15.036-12.868-11.192-5.002 2.09-6.665 5.824-4.372 9.819 1.354 2.36 1.708 5.497 1.708 15.145v12.169h14l.032-12zm48.062 72.75c-5.179-4.848-4.995-6.653 1.318-12.967l5.588-5.588v-9.347c0-5.142-.368-9.348-.818-9.348-1.84 0-9.166-6.548-10.247-9.158-1.687-4.073-.563-6.994 5.063-13.15l5.002-5.473v-16.082l-5-4.734c-5.847-5.537-6.297-8.134-2.03-11.724 5.237-4.407 12.317-6.182 24.53-6.15 9.027.023 12.01.431 16.635 2.278 5.718 2.284 10.865 6.177 10.865 8.22 0 .616-2.475 3.716-5.5 6.887l-5.5 5.767v15.913l4.083 3.953c8.182 7.923 8.894 12.536 2.841 18.41-2.242 2.176-4.942 4.231-6 4.567-1.713.544-1.924 1.609-1.924 9.736v9.125l5.5 5.242c3.359 3.202 5.5 6.086 5.5 7.408 0 1.19-1.53 3.695-3.4 5.565-4.022 4.022-7.715 4.402-13.6 1.4-5.153-2.629-13.375-2.638-19.14-.022-6.193 2.81-10.214 2.597-13.766-.728zm28.68-22.5l-.274-16.25-3.905-.32c-2.147-.176-4.96-.054-6.25.27-2.338.586-2.345.638-2.345 16.569v15.98h13.05l-.275-16.25zm3.226-23.206c0-5.238-17.793-5.572-18.798-.352-.288 1.494.787 1.689 9.236 1.672 7.168-.015 9.562-.345 9.562-1.32zm.763-7.334c.835-2.505-4.61-4.453-11.262-4.03-6.641.424-9.163 1.652-8.254 4.02.648 1.688 18.954 1.698 19.516.01zm-2.727-20.107c.024-8.17.458-12.343 1.464-14.103 3.537-6.187-.262-11-8.68-11-6.277 0-10.252 3.334-9.215 7.729.36 1.524 1.045 3.198 1.524 3.72.48.523.871 6.42.871 13.104v12.153h14l.036-11.603zM75.435 154.993c-4.529-4.53-4.002-7.921 2.077-13.387l5-4.496v-9.53c0-8.498-.206-9.595-1.908-10.135-2.712-.86-10.092-9.132-10.092-11.311 0-2.678 5.368-10.691 8.923-13.32 2.976-2.2 3.077-2.53 3.077-10.022v-7.748l-5.5-5.412c-7.574-7.455-7.24-9.872 2-14.476 12.25-6.105 31.083-5.404 42.5 1.582 6.549 4.006 6.476 6.228-.413 12.64l-5.587 5.198V90.15l5.5 5.94c4.674 5.048 5.5 6.516 5.5 9.767 0 3.182-.66 4.423-3.911 7.36-2.152 1.945-4.852 4.038-6 4.652-1.873 1.002-2.089 2.019-2.089 9.815v8.697l5.5 5.078c6.538 6.036 7.104 9.008 2.577 13.535-3.558 3.558-8.302 3.869-14.077.923-2.468-1.26-5.894-2-9.249-2-3.354 0-6.782.74-9.25 2-5.84 2.977-11.005 2.65-14.578-.923zm30.077-22.032v-15.955l-3.5-.656c-1.925-.361-5.075-.361-7 0l-3.5.656v31.91h14V132.96zm-4.25-22.032c5.385-.01 7.25-.358 7.25-1.353 0-1.995-4.479-3.662-9.797-3.647-6.055.018-8.923.814-9.637 2.676-.861 2.244.398 3.555 2.797 2.912 1.175-.316 5.4-.58 9.387-.588zm7.25-8.684c0-2.255-4.387-4.33-9.157-4.33-6.03 0-9.843 1.453-9.843 3.749 0 1.604 1.024 1.797 9.5 1.797 6.792 0 9.5-.346 9.5-1.216zm-2.968-20.08c.024-8.743.407-12.246 1.5-13.69 1.558-2.06 1.926-6.328.703-8.16-1.294-1.937-5.002-3.4-8.622-3.4-7.741 0-11.268 4.295-8.562 10.427.8 1.815 1.501 7.885 1.711 14.824l.356 11.75H105.512l.032-11.75zm130.768 73c-4.808-5.134-4.607-6.746 1.612-12.966l5.588-5.588v-17.6l-4.348-2.99c-5.03-3.462-7.652-7.031-7.652-10.42 0-2.545 4.033-8.625 8.365-12.61 2.431-2.236 2.635-3.052 2.635-10.537V74.34l-5-4.925c-6.257-6.163-6.426-8.454-.92-12.444 11.519-8.343 37.924-7.578 47.701 1.382l3.613 3.311-1.855 2.876c-1.021 1.581-3.585 4.372-5.698 6.203l-3.84 3.328v16.151l4.953 5.237c8.141 8.609 7.968 13.352-.724 19.836l-5.23 3.9V136.748l5.648 5.427c4.959 4.766 5.564 5.762 4.96 8.17-1.773 7.06-9.045 9.371-17.467 5.55-5.661-2.569-13.08-2.56-18.14.022-5.74 2.928-11.019 2.649-14.201-.75zm29.2-22.142c0-13.57-.231-15.982-1.582-16.5-2.003-.769-6.253-.758-9.168.023-2.213.593-2.25.86-2.25 16.486v15.884h13v-15.893zm-3.75-22.094c5.255-.01 6.75-.338 6.75-1.478 0-2.527-3.953-3.771-10.633-3.346-6.79.433-9.026 1.652-7.988 4.357.45 1.17 1.325 1.499 2.883 1.081 1.231-.33 5.276-.606 8.988-.614zm7.25-9.033c0-2.49-4.644-4.086-10.78-3.706-5.582.346-9.627 2.45-8.43 4.386.29.468 4.73.826 9.868.796 7.38-.044 9.342-.354 9.342-1.476zm-2.5-19.53c0-8.574.407-12.337 1.581-14.608 3.372-6.52-1.105-11.43-9.672-10.607-2.782.267-5.769 1.196-6.637 2.065-1.765 1.764-1.973 7.399-.335 9.037.636.635 1.063 6.01 1.063 13.363v12.3h14v-11.55zm-108.545 71.095c-4.608-4.607-2.29-10.675 6.201-16.24 2.167-1.419 2.344-2.205 2.344-10.397 0-8.588-.085-8.915-2.75-10.565-1.512-.937-4.212-3.06-6-4.72-5.472-5.077-4.255-11.405 3.668-19.076 4.044-3.917 4.082-4.02 4.082-11.272v-7.32l-5.5-5.327c-3.166-3.066-5.5-6.202-5.5-7.389 0-2.894 5.157-6.903 11.298-8.782 12.494-3.825 28.84-2.496 38.43 3.123 6.158 3.61 5.894 6.471-1.228 13.33l-5.5 5.298V88.49l4.99 4.914c8.868 8.735 8.85 14.66-.062 20.704l-4.876 3.307-.026 8.94-.026 8.939 5 4.62c5.689 5.258 6.476 8.854 2.927 13.366-1.715 2.181-2.884 2.635-6.788 2.635-2.742 0-6.358-.837-8.639-2-2.158-1.1-5.87-2-8.251-2-2.38 0-6.093.9-8.249 2-5.64 2.877-12.412 2.679-15.545-.455zm30.32-21.733l-.275-16.187-3.25-.841c-1.787-.463-4.712-.463-6.5 0l-3.25.841-.275 16.187-.274 16.188h14.099l-.275-16.188zm3.037-23.093c.19-.977-.948-2.255-2.913-3.272-6.086-3.147-18.256-.427-16.663 3.725.376.982 2.95 1.305 9.887 1.24 7.763-.074 9.43-.365 9.69-1.693zm.013-8.048c.392-2.035-5.151-4.671-9.825-4.671-5.966 0-11.86 3.805-9.52 6.146.263.263 4.65.424 9.747.357 7.889-.104 9.318-.377 9.598-1.832zm-2.825-19.23c0-9.055.366-12.542 1.468-14 3.075-4.065 1.468-9.397-3.446-11.432-8.62-3.57-18.448 4.079-13.554 10.55 1.105 1.46 1.476 5.037 1.5 14.44l.032 12.5h14V81.358z" fill="#8d958c"/><path d="M64.01 445.855c-16.522-1.975-31.048-9.266-43.598-21.884-6.827-6.863-9.455-10.39-12.745-17.1C-.64 389.926.012 405.58.012 222.915c0-154.19.093-162.833 1.823-169C7.733 32.884 21.07 17.056 41.012 7.419 57.54-.567 50.192-.188 182.512.132l117.5.284 8.761 3.135c11.585 4.145 18.572 8.411 27.448 16.761 8.622 8.11 15.063 17.99 18.975 29.104l2.816 8 .281 162.5c.314 181.656.748 169.847-6.81 185.5-9.05 18.746-26.243 32.692-47.835 38.8-7.603 2.151-8.118 2.161-120.136 2.319-61.875.087-115.651-.219-119.503-.68zm243.002-7.247c26.35-9.248 43.01-29.262 46.495-55.852.762-5.817.999-55.84.784-165.34-.346-175.592.3-160.478-7.539-176.5-2.781-5.686-5.733-9.563-12.204-16.029-9.642-9.633-17.76-14.456-30.581-18.168l-7.955-2.303h-117c-110.636 0-117.353.1-123.5 1.842-20.215 5.729-35.9 18.477-44.503 36.173-6.865 14.121-6.466 2.992-6.482 180.575-.015 156.582.034 160.782 1.957 168.3 3.05 11.924 8.246 20.87 17.571 30.249 6.703 6.742 9.711 8.92 17.525 12.695 16.442 7.944 8.908 7.55 140.432 7.346l117-.18 8-2.808zm-230.27-43.361c-1.642-.66-4.23-5.667-4.23-8.181 0-1.087 2.434-4.174 5.5-6.976l5.5-5.027V358.012l-4.455-3.066c-5.461-3.757-7.545-6.602-7.545-10.302 0-3.956 2.193-7.766 6.935-12.05l4.065-3.673v-15.906l-4.448-3.718c-2.447-2.045-5.007-5.065-5.689-6.711-1.165-2.813-1.045-3.155 1.998-5.695 9.882-8.25 33.109-9.09 46.573-1.686 3.161 1.738 4.131 2.9 4.359 5.223.24 2.452-.612 3.878-4.75 7.95l-5.043 4.963v8.172c0 7.667.159 8.277 2.563 9.852 3.295 2.159 8.437 10.254 8.437 13.282 0 3.417-2.594 6.829-7.592 9.986l-4.404 2.783-.002 8.836-.002 8.836 5.63 5.325c5.02 4.745 5.555 5.633 4.926 8.164-.387 1.561-1.65 3.851-2.805 5.089-2.714 2.908-9.322 3.02-14.751.25-2.231-1.138-5.894-2-8.5-2-2.607 0-6.27.862-8.5 2-3.658 1.866-10.74 2.55-13.771 1.33zm28.77-23.77v-16.439l-4.25-.634c-2.337-.35-5.487-.163-7 .414l-2.75 1.048v32.05h14v-16.439zm2.811-22.836c.582-2.99-4.248-5.006-10.848-4.529-6.185.448-9.696 2.45-8.727 4.976.376.982 2.95 1.305 9.887 1.24 7.75-.074 9.431-.366 9.688-1.687zm0-7.977c.413-2.15-4.671-4.748-9.293-4.748-6.423 0-12.478 3.707-10.039 6.146.264.263 4.65.424 9.748.357 7.716-.102 9.321-.396 9.583-1.755zm-1.81-19.626c0-8.058.46-12.983 1.434-15.313 1.15-2.75 1.195-3.918.23-5.853-3.165-6.35-14.221-6.615-18.268-.439-1.596 2.436-1.6 2.835-.053 6.079 1.256 2.632 1.656 6.366 1.656 15.438v11.966h15v-11.878zm51.454 72.423c-4.608-4.607-2.29-10.675 6.201-16.24 2.165-1.418 2.344-2.208 2.344-10.352v-8.817l-3.25-2.229c-7.127-4.888-8.75-7.028-8.75-11.537 0-3.772.626-4.932 5.5-10.197l5.5-5.94v-15.047l-4.948-4.143c-7.552-6.323-7.876-10.088-1.191-13.845 12.404-6.971 33.732-6.557 45.78.889 5.177 3.2 4.634 6.431-2.14 12.737l-5.5 5.12.004 7.278.005 7.278 4.914 4.741c6.276 6.055 8.034 10.824 5.634 15.28-.94 1.747-3.701 4.434-6.135 5.972l-4.423 2.797v18.089l5 4.62c5.689 5.258 6.476 8.854 2.928 13.366-1.687 2.144-2.905 2.635-6.54 2.635-2.494 0-6.2-.884-8.388-2-2.23-1.138-5.894-2-8.5-2s-6.269.862-8.5 2c-5.64 2.877-12.412 2.679-15.545-.455zm30.32-21.759l-.275-16.213-3.25-.931c-2.006-.575-4.494-.575-6.5 0l-3.25.93-.275 16.214-.274 16.214h14.099l-.275-16.214zm2.929-22.157c.299-.298.274-1.244-.055-2.101-1.44-3.751-13.71-4.918-17.705-1.684-4.267 3.455-2.098 4.672 8.009 4.492 5.064-.09 9.452-.408 9.75-.707zm.106-8.881c.414-2.15-4.67-4.748-9.292-4.748-6.423 0-12.478 3.707-10.039 6.146.264.263 4.65.424 9.748.357 7.716-.102 9.321-.396 9.583-1.755zm-2.81-19.557c0-8.835.37-12.298 1.468-13.75 1.704-2.253 1.946-5.8.57-8.37-2.462-4.6-12.2-5.147-16.681-.936-2.738 2.572-2.914 4.273-.85 8.23 1.08 2.071 1.493 6.15 1.493 14.75v11.885h14v-11.809zm47.455 72.354c-4.103-4.103-3.362-8.024 2.545-13.454l5-4.596v-9.133c0-8.873-.078-9.182-2.75-10.877-6.26-3.971-8.25-6.651-8.25-11.115 0-3.772.626-4.932 5.5-10.197l5.5-5.94V313.87l-5.5-5.327c-7.051-6.83-7.303-9.487-1.236-13.042 5.246-3.075 15.4-5.557 22.736-5.557 7.335 0 17.49 2.482 22.737 5.557 6.066 3.555 5.814 6.213-1.237 13.042l-5.5 5.327V328.5l4.614 4.459c4.435 4.285 7.386 9.235 7.386 12.39 0 2.057-5.673 8.348-9.148 10.145-2.821 1.458-2.852 1.573-2.852 10.638v9.164l5 4.62c4.017 3.714 5 5.257 5 7.857 0 7.355-8.56 10.45-17 6.144-2.23-1.138-5.894-2-8.5-2s-6.269.862-8.5 2c-5.64 2.877-12.412 2.679-15.545-.455zm30.32-21.759l-.275-16.213-3.25-.931c-2.006-.575-4.494-.575-6.5 0l-3.25.93-.275 16.214-.274 16.214h14.099l-.275-16.214zm2.929-22.157c.299-.298.274-1.244-.055-2.101-1.44-3.751-13.71-4.918-17.705-1.684-4.267 3.455-2.098 4.672 8.009 4.492 5.064-.09 9.452-.408 9.75-.707zm.106-8.881c.414-2.15-4.67-4.748-9.292-4.748-6.423 0-12.478 3.707-10.039 6.146.264.263 4.65.424 9.748.357 7.716-.102 9.321-.396 9.583-1.755zm-.922-34.924c3.067-6.009-2.3-11.569-10.149-10.516-7.06.947-10.748 6.654-7.27 11.25 1.1 1.455 1.475 5.002 1.5 14.146l.031 12.204 6.75.296 6.75.296.511-12.5c.312-7.62 1.044-13.545 1.877-15.176zM76.858 274.036c-3.93-2.46-5.229-7.124-2.95-10.6.864-1.32 3.378-3.852 5.588-5.627l4.016-3.228v-17.64l-3.875-2.447c-8.615-5.438-10.262-11.327-5.145-18.392 1.64-2.263 4.114-4.857 5.5-5.765 2.355-1.543 2.52-2.189 2.52-9.88v-8.228l-4.995-4.212c-5.683-4.792-7.1-8.233-4.552-11.049 2.666-2.946 10.923-6.036 19.448-7.279 9.577-1.396 21.607.576 28.633 4.694 6.328 3.708 6.2 6.871-.534 13.227l-5 4.72v8.22c0 7.78.148 8.336 2.75 10.372 3.997 3.127 8.25 9.864 8.25 13.068 0 3.382-3.608 7.861-8.42 10.453l-3.58 1.928v18.232l4.934 4.16c5.851 4.934 6.637 6.85 4.707 11.47-2.076 4.969-6.856 6.436-13.633 4.185-2.742-.91-5.241-2.07-5.555-2.579-1.035-1.673-9.707-.979-14.055 1.126-6.36 3.08-10.359 3.384-14.052 1.071zm28.429-23.37l-.275-16.25h-13l-.275 16.25-.274 16.25h14.099l-.275-16.25zm3.033-22.992c.434-2.254-4.727-4.758-9.808-4.758-6.177 0-11.978 3.688-9.578 6.089.233.232 4.618.397 9.746.367 7.825-.046 9.375-.32 9.64-1.698zm-.308-8.232c0-1.321-1.187-2.395-3.708-3.354-6.348-2.416-16.959.345-15.54 4.043.462 1.204 2.444 1.48 9.913 1.38 8.535-.115 9.335-.292 9.335-2.069zm-1.5-19.463c0-8.007.463-12.927 1.435-15.254 1.902-4.551.342-7.74-4.729-9.67-4.809-1.83-10.937-.242-13.366 3.464-1.535 2.344-1.535 2.765.004 5.993 1.255 2.63 1.656 6.363 1.656 15.392v11.92l6.75.296c3.713.163 7.088.157 7.5-.013.413-.17.75-5.628.75-12.128zm54.357 74.978c-2.925-1.225-5.357-4.931-5.357-8.163 0-1.97 1.455-4.007 5.5-7.704l5.5-5.027v-8.538c0-7.636-.22-8.657-2.088-9.657-1.149-.614-3.849-2.707-6-4.651-6.214-5.614-5.284-11.728 3.006-19.754 4.036-3.908 4.082-4.035 4.082-11.186v-7.233l-5.58-5.49c-6.497-6.396-6.787-8.814-1.483-12.38 11.452-7.7 34.082-7.725 46.813-.053 4.999 3.012 4.44 6.187-2.25 12.795l-5.5 5.432v14.143l5.033 4.958c8.87 8.736 8.722 15.296-.474 21.124l-4.486 2.843-.036 9.75c-.02 5.362.338 9.75.797 9.75.458 0 2.708 1.73 5 3.846 4.985 4.603 5.694 9.379 1.916 12.905-3.73 3.482-6.861 3.668-13.96.828-7.698-3.08-12.413-3.253-17.51-.643-4.695 2.404-10.104 3.285-12.923 2.105zm27.418-24.291l-.275-16.25h-13l-.275 16.25-.274 16.25h14.099l-.275-16.25zm3.033-22.992c.197-1.02-.904-2.274-2.91-3.31-6.09-3.15-18.255-.427-16.66 3.73.379.986 2.956 1.32 9.883 1.278 7.868-.046 9.422-.319 9.687-1.698zm-.022-7.887c.353-1.83-5.24-4.874-8.937-4.866-3.333.008-9.661 1.882-10.401 3.08-1.752 2.834.46 3.633 9.706 3.51 7.685-.103 9.379-.406 9.632-1.724zm-2.754-19.371c.024-8.964.403-12.491 1.5-13.941 5.404-7.146-3.668-15.036-12.868-11.192-5.002 2.09-6.665 5.824-4.372 9.819 1.354 2.36 1.708 5.497 1.708 15.145v12.169h14l.032-12zm50.325 74.54c-2.913-1.219-5.357-4.926-5.357-8.126 0-1.878 1.443-3.99 5-7.317l5-4.677v-9.245c0-9.068-.053-9.276-2.805-10.9-10.567-6.243-10.984-13.83-1.277-23.228 4.036-3.908 4.082-4.035 4.082-11.186v-7.233l-5.5-5.412c-3.203-3.153-5.5-6.29-5.5-7.514 0-5.727 17.492-11.962 30.474-10.863 7.655.648 17.051 3.493 20.977 6.351 4.061 2.956 3.298 6.138-2.95 12.31l-5.5 5.432v13.8l5.411 5.846c2.977 3.216 5.706 7.18 6.064 8.811.918 4.183-1.532 8.331-6.942 11.749l-4.53 2.862-.002 9.75c-.001 5.362.357 9.75.796 9.75.44 0 2.69 1.817 5 4.037 4.966 4.772 5.475 8.372 1.788 12.657-1.99 2.314-3.175 2.79-6.75 2.71-2.385-.052-6.23-1.064-8.546-2.25-5.21-2.666-11.194-2.754-16.126-.238-4.723 2.41-10.026 3.29-12.807 2.125zm27.418-24.274l-.275-16.234-3.5-.547c-1.925-.3-4.85-.304-6.5-.007l-3 .54-.275 16.24-.274 16.242h14.099l-.275-16.234zm3.033-23.008c.197-1.02-.904-2.274-2.91-3.31-6.09-3.15-18.255-.427-16.66 3.73.379.986 2.956 1.32 9.883 1.278 7.868-.046 9.422-.319 9.687-1.698zm-.22-7.013c1.168-1.168-2.52-4.571-5.713-5.273-6.182-1.357-14.81 1.647-13.623 4.743.46 1.198 2.412 1.48 9.59 1.384 4.957-.066 9.343-.45 9.746-.854zm-2.556-20.245c.024-8.964.403-12.491 1.5-13.941 4.01-5.303-.494-12.06-8.04-12.06-4.949 0-9.807 2.963-10.303 6.283-.17 1.146.392 3.44 1.25 5.1 1.156 2.235 1.561 6.082 1.561 14.818v11.8h14l.032-12zM77.869 156.924c-1.179-.475-2.866-1.897-3.75-3.159-2.897-4.136-2.038-6.872 3.893-12.391l5.5-5.119v-8.634c0-7.733-.218-8.751-2.088-9.753-1.149-.614-3.849-2.707-6-4.651-3.203-2.893-3.912-4.202-3.912-7.22 0-4.059 4.146-10.636 8.504-13.492 2.313-1.516 2.496-2.214 2.496-9.548v-7.913l-5.5-5.412c-3.174-3.125-5.5-6.294-5.5-7.497 0-4.247 11.3-9.381 23.64-10.74 7.055-.778 18.79 1.453 25.36 4.82 3.778 1.936 4.551 2.833 4.82 5.595.278 2.852-.352 3.907-4.75 7.95l-5.07 4.661v15.802l4.954 5.237c8.141 8.609 7.968 13.352-.724 19.836l-5.23 3.9.021 9.11.022 9.11 3.99 2.824c5.397 3.818 7.262 7.53 5.838 11.616-1.158 3.32-5.274 6.066-9.071 6.05-1.265-.005-4.707-1.13-7.65-2.5-6.757-3.146-11.349-3.142-17.57.014-5.08 2.577-8.516 3-12.223 1.504zm27.417-23.758l-.274-16.75-4.42-.316c-2.43-.174-5.468-.053-6.75.27-2.322.582-2.33.64-2.33 17.065v16.48h14.048l-.274-16.75zm3.041-23.53c.402-2.086-5.074-4.72-9.815-4.72-5.958 0-11.861 3.805-9.526 6.14.26.261 4.643.444 9.738.407 8.014-.059 9.31-.305 9.603-1.826zm.185-7.616c0-5.106-15.015-6.405-18.97-1.64-2.156 2.598-.23 3.263 9.445 3.263 8.121 0 9.525-.24 9.525-1.623zm-1.97-20.674c.292-7.112 1.025-14.055 1.63-15.43 3.87-8.802-13.74-13.478-18.533-4.922-1.277 2.28-1.252 2.964.214 5.904 1.26 2.527 1.66 6.129 1.66 15.005 0 6.424.188 11.867.418 12.096.23.23 3.493.385 7.25.347l6.831-.07.53-12.93zm130.022 73.776c-4.666-4.667-4.186-8.001 1.948-13.516l5-4.496v-9.53c0-8.325-.23-9.602-1.813-10.105-.998-.317-3.473-2.095-5.5-3.952-6.05-5.54-4.904-12.564 3.248-19.93 4.033-3.643 4.065-3.728 4.065-10.834v-7.162l-5.57-5.84c-6.454-6.767-6.727-9.064-1.493-12.583 11.192-7.525 34.926-7.526 46.126-.002 5.35 3.593 5.032 6.242-1.523 12.71l-5.54 5.466v13.8l5.412 5.847c2.977 3.215 5.706 7.18 6.064 8.81.916 4.174-1.547 8.365-6.917 11.768l-4.486 2.843-.036 9.21-.037 9.21 5 4.677c5.256 4.916 6.451 8.93 3.718 12.49-3.431 4.47-8.08 4.889-15.567 1.403-6.462-3.008-11.881-3.172-16.418-.495-1.86 1.097-5.462 2.28-8.005 2.629-4.226.579-4.887.371-7.676-2.418zm29.724-21.63c.308-17.743.384-17.536-6.444-17.56-7.617-.029-7.332-.714-7.332 17.637v16.438l6.75-.295 6.75-.296.276-15.925zm2.81-22.828c1.268-1.269-2.708-4.68-6.223-5.34-6.415-1.203-14.319 1.659-13.13 4.755.433 1.129 2.57 1.438 9.587 1.387 4.966-.037 9.36-.397 9.765-.802zm-.086-8.748c0-.825-1.764-2.361-3.92-3.413-3.614-1.765-4.352-1.804-9.5-.5-4.433 1.122-5.644 1.861-5.89 3.594-.303 2.125-.057 2.177 9.5 2 7.973-.147 9.81-.462 9.81-1.681zm-2.468-19.5c.024-8.964.403-12.491 1.5-13.941 4.02-5.316-.373-11.892-7.945-11.892-8.146 0-12.318 5.085-9.168 11.175 1.18 2.282 1.581 6.056 1.581 14.858v11.8h14l.032-12zM157.967 153.46c-4.608-4.607-2.29-10.675 6.201-16.24 2.167-1.419 2.344-2.205 2.344-10.397 0-8.588-.085-8.915-2.75-10.565-1.512-.937-4.212-3.06-6-4.72-5.472-5.077-4.255-11.405 3.668-19.076 4.044-3.917 4.082-4.02 4.082-11.272v-7.32l-5.5-5.327c-3.166-3.066-5.5-6.202-5.5-7.389 0-2.894 5.157-6.903 11.298-8.782 12.494-3.825 28.84-2.496 38.43 3.123 6.158 3.61 5.894 6.471-1.228 13.33l-5.5 5.298V88.49l4.99 4.914c8.868 8.735 8.85 14.66-.062 20.704l-4.876 3.307-.026 8.94-.026 8.939 5 4.62c5.689 5.258 6.476 8.854 2.927 13.366-1.715 2.181-2.884 2.635-6.788 2.635-2.742 0-6.358-.837-8.639-2-2.158-1.1-5.87-2-8.251-2-2.38 0-6.093.9-8.249 2-5.64 2.877-12.412 2.679-15.545-.455zm30.32-21.733l-.275-16.187-3.25-.841c-1.787-.463-4.712-.463-6.5 0l-3.25.841-.275 16.187-.274 16.188h14.099l-.275-16.188zm3.037-23.093c.19-.977-.948-2.255-2.913-3.272-6.086-3.147-18.256-.427-16.663 3.725.376.982 2.95 1.305 9.887 1.24 7.763-.074 9.43-.365 9.69-1.693zm.013-8.048c.392-2.035-5.151-4.671-9.825-4.671-5.966 0-11.86 3.805-9.52 6.146.263.263 4.65.424 9.747.357 7.889-.104 9.318-.377 9.598-1.832zm-2.825-19.23c0-9.055.366-12.542 1.468-14 3.075-4.065 1.468-9.397-3.446-11.432-8.62-3.57-18.448 4.079-13.554 10.55 1.105 1.46 1.476 5.037 1.5 14.44l.032 12.5h14V81.358z" fill="#cb5258"/><path d="M64.01 445.855c-16.522-1.975-31.048-9.266-43.598-21.884-6.827-6.863-9.455-10.39-12.745-17.1C-.64 389.926.012 405.58.012 222.915c0-154.19.093-162.833 1.823-169C7.733 32.884 21.07 17.056 41.012 7.419 57.54-.567 50.192-.188 182.512.132l117.5.284 8.761 3.135c11.585 4.145 18.572 8.411 27.448 16.761 8.622 8.11 15.063 17.99 18.975 29.104l2.816 8 .281 162.5c.314 181.656.748 169.847-6.81 185.5-9.05 18.746-26.243 32.692-47.835 38.8-7.603 2.151-8.118 2.161-120.136 2.319-61.875.087-115.651-.219-119.503-.68zm243.002-7.247c26.35-9.248 43.01-29.262 46.495-55.852.762-5.817.999-55.84.784-165.34-.346-175.592.3-160.478-7.539-176.5-2.781-5.686-5.733-9.563-12.204-16.029-9.642-9.633-17.76-14.456-30.581-18.168l-7.955-2.303h-117c-110.636 0-117.353.1-123.5 1.842-20.215 5.729-35.9 18.477-44.503 36.173-6.865 14.121-6.466 2.992-6.482 180.575-.015 156.582.034 160.782 1.957 168.3 3.05 11.924 8.246 20.87 17.571 30.249 6.703 6.742 9.711 8.92 17.525 12.695 16.442 7.944 8.908 7.55 140.432 7.346l117-.18 8-2.808zm-230.27-43.361c-1.642-.66-4.23-5.667-4.23-8.181 0-1.087 2.434-4.174 5.5-6.976l5.5-5.027V358.012l-4.455-3.066c-5.461-3.757-7.545-6.602-7.545-10.302 0-3.956 2.193-7.766 6.935-12.05l4.065-3.673v-15.906l-4.448-3.718c-2.447-2.045-5.007-5.065-5.689-6.711-1.165-2.813-1.045-3.155 1.998-5.695 9.882-8.25 33.109-9.09 46.573-1.686 3.161 1.738 4.131 2.9 4.359 5.223.24 2.452-.612 3.878-4.75 7.95l-5.043 4.963v8.172c0 7.667.159 8.277 2.563 9.852 3.295 2.159 8.437 10.254 8.437 13.282 0 3.417-2.594 6.829-7.592 9.986l-4.404 2.783-.002 8.836-.002 8.836 5.63 5.325c5.02 4.745 5.555 5.633 4.926 8.164-.387 1.561-1.65 3.851-2.805 5.089-2.714 2.908-9.322 3.02-14.751.25-2.231-1.138-5.894-2-8.5-2-2.607 0-6.27.862-8.5 2-3.658 1.866-10.74 2.55-13.771 1.33zm28.77-23.77v-16.439l-4.25-.634c-2.337-.35-5.487-.163-7 .414l-2.75 1.048v32.05h14v-16.439zm2.811-22.836c.582-2.99-4.248-5.006-10.848-4.529-6.185.448-9.696 2.45-8.727 4.976.376.982 2.95 1.305 9.887 1.24 7.75-.074 9.431-.366 9.688-1.687zm0-7.977c.413-2.15-4.671-4.748-9.293-4.748-6.423 0-12.478 3.707-10.039 6.146.264.263 4.65.424 9.748.357 7.716-.102 9.321-.396 9.583-1.755zm-1.81-19.626c0-8.058.46-12.983 1.434-15.313 1.15-2.75 1.195-3.918.23-5.853-3.165-6.35-14.221-6.615-18.268-.439-1.596 2.436-1.6 2.835-.053 6.079 1.256 2.632 1.656 6.366 1.656 15.438v11.966h15v-11.878zm51.588 71.801c-3.95-4.693-3.4-7.087 2.898-12.61l5.488-4.813.01-9 .011-9-4.511-2.85c-5.545-3.503-7.485-6.153-7.485-10.223 0-3.504 4.491-10.392 8.48-13.006 2.348-1.538 2.52-2.201 2.52-9.696v-8.044l-5.5-5.767c-3.025-3.17-5.5-6.441-5.5-7.267 0-2.14 4.258-5.207 10.833-7.803 4.6-1.817 7.643-2.237 16.167-2.234 11.473.005 17.907 1.642 23.75 6.044 4.614 3.475 4.17 5.791-2.258 11.744l-5.508 5.102.008 7.55.008 7.55 5.346 5.52c8.455 8.73 8.318 13.262-.604 19.866l-4.742 3.51v18.424l5 4.677c5.837 5.46 6.527 8.967 2.545 12.948-3.064 3.064-8.261 3.22-14.404.433-5.613-2.547-12.62-2.538-17.641.022-2.158 1.1-5.813 2-8.123 2-3.462 0-4.654-.54-6.788-3.077zm30.411-21.312v-16.389l-3.5-.656c-1.925-.361-5.075-.361-7 0l-3.5.656V387.916h14v-16.389zm2.805-22.869c.767-3.903-10.441-6.352-17.24-3.767-2.247.855-3.468 3.788-2.132 5.125.239.238 4.626.38 9.75.314 7.56-.097 9.375-.413 9.622-1.672zm-.011-8.163c-.588-4.06-9.586-5.942-16.645-3.481-2.249.784-3.149 1.728-3.149 3.304 0 2.129.353 2.207 10.044 2.207 9.522 0 10.029-.106 9.75-2.03zm-1.262-32.928c4.07-5.81-.104-12.651-7.716-12.651-8.53 0-12.607 5.02-9.45 11.64 1.217 2.553 1.634 6.343 1.634 14.848v11.42l6.75.296 6.75.296.282-11.877c.2-8.445.706-12.481 1.75-13.972zm45.923 85.894c-4.103-4.103-3.362-8.024 2.545-13.454l5-4.596v-9.133c0-8.873-.078-9.182-2.75-10.877-6.26-3.971-8.25-6.651-8.25-11.115 0-3.772.626-4.932 5.5-10.197l5.5-5.94V313.87l-5.5-5.327c-7.051-6.83-7.303-9.487-1.236-13.042 5.246-3.075 15.4-5.557 22.736-5.557 7.335 0 17.49 2.482 22.737 5.557 6.066 3.555 5.814 6.213-1.237 13.042l-5.5 5.327V328.5l4.614 4.459c4.435 4.285 7.386 9.235 7.386 12.39 0 2.057-5.673 8.348-9.148 10.145-2.821 1.458-2.852 1.573-2.852 10.638v9.164l5 4.62c4.017 3.714 5 5.257 5 7.857 0 7.355-8.56 10.45-17 6.144-2.23-1.138-5.894-2-8.5-2s-6.269.862-8.5 2c-5.64 2.877-12.412 2.679-15.545-.455zm30.32-21.759l-.275-16.213-3.25-.931c-2.006-.575-4.494-.575-6.5 0l-3.25.93-.275 16.214-.274 16.214h14.099l-.275-16.214zm2.929-22.157c.299-.298.274-1.244-.055-2.101-1.44-3.751-13.71-4.918-17.705-1.684-4.267 3.455-2.098 4.672 8.009 4.492 5.064-.09 9.452-.408 9.75-.707zm.106-8.881c.414-2.15-4.67-4.748-9.292-4.748-6.423 0-12.478 3.707-10.039 6.146.264.263 4.65.424 9.748.357 7.716-.102 9.321-.396 9.583-1.755zm-.922-34.924c3.067-6.009-2.3-11.569-10.149-10.516-7.06.947-10.748 6.654-7.27 11.25 1.1 1.455 1.475 5.002 1.5 14.146l.031 12.204 6.75.296 6.75.296.511-12.5c.312-7.62 1.044-13.545 1.877-15.176zM76.858 274.036c-3.93-2.46-5.229-7.124-2.95-10.6.864-1.32 3.378-3.852 5.588-5.627l4.016-3.228v-17.64l-3.875-2.447c-8.615-5.438-10.262-11.327-5.145-18.392 1.64-2.263 4.114-4.857 5.5-5.765 2.355-1.543 2.52-2.189 2.52-9.88v-8.228l-4.995-4.212c-5.683-4.792-7.1-8.233-4.552-11.049 2.666-2.946 10.923-6.036 19.448-7.279 9.577-1.396 21.607.576 28.633 4.694 6.328 3.708 6.2 6.871-.534 13.227l-5 4.72v8.22c0 7.78.148 8.336 2.75 10.372 3.997 3.127 8.25 9.864 8.25 13.068 0 3.382-3.608 7.861-8.42 10.453l-3.58 1.928v18.232l4.934 4.16c5.851 4.934 6.637 6.85 4.707 11.47-2.076 4.969-6.856 6.436-13.633 4.185-2.742-.91-5.241-2.07-5.555-2.579-1.035-1.673-9.707-.979-14.055 1.126-6.36 3.08-10.359 3.384-14.052 1.071zm28.429-23.37l-.275-16.25h-13l-.275 16.25-.274 16.25h14.099l-.275-16.25zm3.033-22.992c.434-2.254-4.727-4.758-9.808-4.758-6.177 0-11.978 3.688-9.578 6.089.233.232 4.618.397 9.746.367 7.825-.046 9.375-.32 9.64-1.698zm-.308-8.232c0-1.321-1.187-2.395-3.708-3.354-6.348-2.416-16.959.345-15.54 4.043.462 1.204 2.444 1.48 9.913 1.38 8.535-.115 9.335-.292 9.335-2.069zm-1.5-19.463c0-8.007.463-12.927 1.435-15.254 1.902-4.551.342-7.74-4.729-9.67-4.809-1.83-10.937-.242-13.366 3.464-1.535 2.344-1.535 2.765.004 5.993 1.255 2.63 1.656 6.363 1.656 15.392v11.92l6.75.296c3.713.163 7.088.157 7.5-.013.413-.17.75-5.628.75-12.128zm54.5 74.563c-3.702-1.63-5.971-5.612-5.122-8.994.348-1.387 2.88-4.417 5.627-6.734l4.995-4.211V236.37l-3.58-1.928c-5.095-2.744-8.42-7.058-8.42-10.926 0-3.513 3.607-9.03 8.25-12.62 2.604-2.013 2.75-2.562 2.75-10.333v-8.206l-5.567-5.24c-6.803-6.405-6.865-8.435-.375-12.44 7.018-4.33 18.531-6.35 28.223-4.951 11.906 1.718 20.72 6.182 20.72 10.494 0 1.107-2.451 4.37-5.5 7.323l-5.5 5.327v7.835c0 7.588.095 7.905 3.076 10.109 3.52 2.603 8.923 10.632 8.923 13.262 0 2.283-5.474 8.516-9.148 10.416-2.834 1.465-2.852 1.533-2.852 11.046v9.571l5 4.496c6.724 6.045 6.717 11.337-.02 14.82-3.285 1.699-6.321 1.287-12.19-1.652-4.756-2.382-11.851-2.374-16.58.02-5.36 2.714-9.287 3.253-12.71 1.748zm27.275-23.836l-.275-16.21-3.25-.664c-1.787-.365-4.712-.365-6.5 0l-3.25.664-.275 16.21-.274 16.21h14.099l-.275-16.21zm2.725-23.334c0-3.878-9.35-5.799-16.35-3.358-2.276.793-3.15 1.723-3.15 3.35 0 2.193.252 2.247 9.75 2.078 8.846-.157 9.75-.35 9.75-2.07zm.5-7.66c0-2.228-5.354-4.796-10-4.796s-10 2.568-10 4.797c0 1.738.844 1.898 10 1.898s10-.16 10-1.898zm-2.964-18.796c.024-8.08.46-12.244 1.464-14 2.047-3.58 1.853-8.37-.422-10.43-2.894-2.619-9.133-3.112-13.45-1.064-4.483 2.127-5.53 5.379-3.263 10.133 1.225 2.57 1.635 6.366 1.635 15.145v11.716h14l.036-11.5zm50.321 74.04c-2.913-1.219-5.357-4.926-5.357-8.126 0-1.878 1.443-3.99 5-7.317l5-4.677v-9.245c0-9.068-.053-9.276-2.805-10.9-10.567-6.243-10.984-13.83-1.277-23.228 4.036-3.908 4.082-4.035 4.082-11.186v-7.233l-5.5-5.412c-3.203-3.153-5.5-6.29-5.5-7.514 0-5.727 17.492-11.962 30.474-10.863 7.655.648 17.051 3.493 20.977 6.351 4.061 2.956 3.298 6.138-2.95 12.31l-5.5 5.432v13.8l5.411 5.846c2.977 3.216 5.706 7.18 6.064 8.811.918 4.183-1.532 8.331-6.942 11.749l-4.53 2.862-.002 9.75c-.001 5.362.357 9.75.796 9.75.44 0 2.69 1.817 5 4.037 4.966 4.772 5.475 8.372 1.788 12.657-1.99 2.314-3.175 2.79-6.75 2.71-2.385-.052-6.23-1.064-8.546-2.25-5.21-2.666-11.194-2.754-16.126-.238-4.723 2.41-10.026 3.29-12.807 2.125zm27.418-24.274l-.275-16.234-3.5-.547c-1.925-.3-4.85-.304-6.5-.007l-3 .54-.275 16.24-.274 16.242h14.099l-.275-16.234zm3.033-23.008c.197-1.02-.904-2.274-2.91-3.31-6.09-3.15-18.255-.427-16.66 3.73.379.986 2.956 1.32 9.883 1.278 7.868-.046 9.422-.319 9.687-1.698zm-.22-7.013c1.168-1.168-2.52-4.571-5.713-5.273-6.182-1.357-14.81 1.647-13.623 4.743.46 1.198 2.412 1.48 9.59 1.384 4.957-.066 9.343-.45 9.746-.854zm-2.556-20.245c.024-8.964.403-12.491 1.5-13.941 4.01-5.303-.494-12.06-8.04-12.06-4.949 0-9.807 2.963-10.303 6.283-.17 1.146.392 3.44 1.25 5.1 1.156 2.235 1.561 6.082 1.561 14.818v11.8h14l.032-12zM77.869 156.924c-1.179-.475-2.866-1.897-3.75-3.159-2.897-4.136-2.038-6.872 3.893-12.391l5.5-5.119v-8.634c0-7.733-.218-8.751-2.088-9.753-1.149-.614-3.849-2.707-6-4.651-3.203-2.893-3.912-4.202-3.912-7.22 0-4.059 4.146-10.636 8.504-13.492 2.313-1.516 2.496-2.214 2.496-9.548v-7.913l-5.5-5.412c-3.174-3.125-5.5-6.294-5.5-7.497 0-4.247 11.3-9.381 23.64-10.74 7.055-.778 18.79 1.453 25.36 4.82 3.778 1.936 4.551 2.833 4.82 5.595.278 2.852-.352 3.907-4.75 7.95l-5.07 4.661v15.802l4.954 5.237c8.141 8.609 7.968 13.352-.724 19.836l-5.23 3.9.021 9.11.022 9.11 3.99 2.824c5.397 3.818 7.262 7.53 5.838 11.616-1.158 3.32-5.274 6.066-9.071 6.05-1.265-.005-4.707-1.13-7.65-2.5-6.757-3.146-11.349-3.142-17.57.014-5.08 2.577-8.516 3-12.223 1.504zm27.417-23.758l-.274-16.75-4.42-.316c-2.43-.174-5.468-.053-6.75.27-2.322.582-2.33.64-2.33 17.065v16.48h14.048l-.274-16.75zm3.041-23.53c.402-2.086-5.074-4.72-9.815-4.72-5.958 0-11.861 3.805-9.526 6.14.26.261 4.643.444 9.738.407 8.014-.059 9.31-.305 9.603-1.826zm.185-7.616c0-5.106-15.015-6.405-18.97-1.64-2.156 2.598-.23 3.263 9.445 3.263 8.121 0 9.525-.24 9.525-1.623zm-1.97-20.674c.292-7.112 1.025-14.055 1.63-15.43 3.87-8.802-13.74-13.478-18.533-4.922-1.277 2.28-1.252 2.964.214 5.904 1.26 2.527 1.66 6.129 1.66 15.005 0 6.424.188 11.867.418 12.096.23.23 3.493.385 7.25.347l6.831-.07.53-12.93zm130.022 73.776c-4.666-4.667-4.186-8.001 1.948-13.516l5-4.496v-9.53c0-8.325-.23-9.602-1.813-10.105-.998-.317-3.473-2.095-5.5-3.952-6.05-5.54-4.904-12.564 3.248-19.93 4.033-3.643 4.065-3.728 4.065-10.834v-7.162l-5.57-5.84c-6.454-6.767-6.727-9.064-1.493-12.583 11.192-7.525 34.926-7.526 46.126-.002 5.35 3.593 5.032 6.242-1.523 12.71l-5.54 5.466v13.8l5.412 5.847c2.977 3.215 5.706 7.18 6.064 8.81.916 4.174-1.547 8.365-6.917 11.768l-4.486 2.843-.036 9.21-.037 9.21 5 4.677c5.256 4.916 6.451 8.93 3.718 12.49-3.431 4.47-8.08 4.889-15.567 1.403-6.462-3.008-11.881-3.172-16.418-.495-1.86 1.097-5.462 2.28-8.005 2.629-4.226.579-4.887.371-7.676-2.418zm29.724-21.63c.308-17.743.384-17.536-6.444-17.56-7.617-.029-7.332-.714-7.332 17.637v16.438l6.75-.295 6.75-.296.276-15.925zm2.81-22.828c1.268-1.269-2.708-4.68-6.223-5.34-6.415-1.203-14.319 1.659-13.13 4.755.433 1.129 2.57 1.438 9.587 1.387 4.966-.037 9.36-.397 9.765-.802zm-.086-8.748c0-.825-1.764-2.361-3.92-3.413-3.614-1.765-4.352-1.804-9.5-.5-4.433 1.122-5.644 1.861-5.89 3.594-.303 2.125-.057 2.177 9.5 2 7.973-.147 9.81-.462 9.81-1.681zm-2.468-19.5c.024-8.964.403-12.491 1.5-13.941 4.02-5.316-.373-11.892-7.945-11.892-8.146 0-12.318 5.085-9.168 11.175 1.18 2.282 1.581 6.056 1.581 14.858v11.8h14l.032-12zm-107.119 72.218c-2.11-1.62-3.913-5.116-3.913-7.59 0-1.176 2.266-3.99 5.488-6.816l5.487-4.812.01-9 .011-9-4.511-2.85c-5.545-3.503-7.485-6.153-7.485-10.223 0-3.504 4.491-10.392 8.48-13.006 2.353-1.542 2.52-2.193 2.52-9.82v-8.17l-5.536-5.465c-6.366-6.285-6.626-8.28-1.527-11.708 11.75-7.9 35.956-7.684 46.813.418 4.646 3.467 4.194 5.832-2.25 11.782l-5.5 5.078v15.064l5.347 5.52c8.455 8.73 8.317 13.262-.605 19.866l-4.742 3.51v18.698l5 4.496c5.855 5.264 6.563 8.838 2.546 12.855-3.098 3.098-9.003 3.283-14.546.455-2.318-1.183-5.894-2-8.749-2-2.854 0-6.432.818-8.75 2-4.368 2.226-11.156 2.585-13.588.718zm29.087-23.107v-16.389l-3.5-.656c-1.925-.361-5.075-.361-7 0l-3.5.656V147.916h14v-16.389zm2.801-22.816c.779-4.044-10.937-6.513-17.254-3.635-2.225 1.014-3.374 3.68-2.125 4.929.233.232 4.618.397 9.746.367 7.736-.046 9.376-.329 9.633-1.66zm-.007-8.216c-.395-2.726-4.32-4.55-9.794-4.55s-9.399 1.824-9.794 4.55c-.279 1.925.228 2.03 9.794 2.03s10.073-.105 9.794-2.03zm-2.762-19.08c.024-8.963.403-12.49 1.5-13.94 2.08-2.751 1.846-7.907-.454-9.989-2.759-2.496-8.943-3.071-13.328-1.239-4.582 1.914-5.726 5.399-3.385 10.308 1.225 2.57 1.635 6.366 1.635 15.145v11.716h14l.032-12z" fill="#6d716d"/><path d="M57.064 444.276c-24.967-5.395-44.779-22.833-53.236-46.86l-2.816-8-.265-163.244C.457 46.762.18 55.636 6.505 42.116c7.118-15.209 18.691-27.033 33.507-34.233C56.337-.05 47.632.416 179.512.416h117.5l7.944 2.3c13.328 3.86 22.909 9.485 32.635 19.163 6.88 6.846 9.404 10.22 12.745 17.037 8.331 16.998 7.676 1.297 7.676 184 0 152.589-.108 162.896-1.777 169-5.658 20.699-18.848 37.016-37.223 46.048-16.23 7.977-5.91 7.405-137.5 7.62-101.236.166-118.462-.015-124.448-1.308zm246.277-4.167c25.482-7.802 42.986-25.51 49.188-49.761 1.937-7.571 1.983-11.46 1.966-166.842-.015-135.805-.232-160.115-1.482-166.09-5.314-25.396-28.592-47.607-54.935-52.417-4.034-.736-42.224-1.083-119.302-1.083-100.918 0-114.16.178-120.566 1.621-25.215 5.68-45.392 24.708-52.362 49.379-1.747 6.185-1.836 14.324-1.836 168 0 180.893-.594 166 7.265 182 4.35 8.856 17.265 22.466 26.4 27.82 7.42 4.35 17.904 7.94 26.459 9.064 3.812.5 57.013.825 119.376.728l112.5-.175 7.329-2.244zM75.435 392.993c-4.287-4.287-3.796-6.688 2.577-12.62l5.5-5.118v-9.144c0-9.074-.022-9.155-2.894-10.64-5.212-2.696-9.106-7.396-9.106-10.991 0-3.432 4.457-10.095 8.776-13.12 1.994-1.396 2.224-2.413 2.224-9.826v-8.269l-5.5-5.544c-3.025-3.049-5.5-6.287-5.5-7.196 0-4.293 16.564-10.629 27.698-10.594 6.73.02 16.995 2.615 22.039 5.57 5.99 3.51 5.82 6.355-.737 12.415l-5 4.62V329.224l4.954 5.237c8.087 8.552 7.821 12.735-1.238 19.454l-4.716 3.498.024 9.502.023 9.502 4.072 3c5.657 4.168 7.077 7.128 5.369 11.19-2.375 5.648-8.452 6.87-16.347 3.288-5.613-2.547-12.62-2.538-17.641.022-5.84 2.977-11.004 2.65-14.577-.923zm30.077-21.466v-16.389l-3.5-.656c-1.925-.361-5.075-.361-7 0l-3.5.656V387.916h14v-16.389zm2.796-23.279c.393-2.617-3.485-4.332-9.796-4.332-5.818 0-10 1.67-10 3.994 0 .92.195 1.867.433 2.106.239.238 4.626.381 9.75.317 8.456-.105 9.344-.298 9.613-2.085zm-.006-7.784c-.448-3.091-4.556-4.677-11.07-4.274-5.975.37-9.448 2.386-8.475 4.921.385 1.005 2.99 1.35 10.176 1.35 9.085 0 9.641-.118 9.369-1.997zm-1.79-18.926c0-8.823.437-13.425 1.523-16.023 1.75-4.187.948-6.59-3.078-9.227-3.42-2.241-10.768-1.357-14.007 1.686-2.819 2.648-3.007 4.327-.932 8.306 1.08 2.07 1.494 6.147 1.494 14.704v11.84l6.75.35c3.713.193 7.088.438 7.5.546.413.108.75-5.374.75-12.182zm51.589 71.301c-3.95-4.693-3.4-7.087 2.898-12.61l5.488-4.813.01-9 .011-9-4.511-2.85c-5.545-3.503-7.485-6.153-7.485-10.223 0-3.504 4.491-10.392 8.48-13.006 2.348-1.538 2.52-2.201 2.52-9.696v-8.044l-5.5-5.767c-3.025-3.17-5.5-6.441-5.5-7.267 0-2.14 4.258-5.207 10.833-7.803 4.6-1.817 7.643-2.237 16.167-2.234 11.473.005 17.907 1.642 23.75 6.044 4.614 3.475 4.17 5.791-2.258 11.744l-5.508 5.102.008 7.55.008 7.55 5.346 5.52c8.455 8.73 8.318 13.262-.604 19.866l-4.742 3.51v18.424l5 4.677c5.837 5.46 6.527 8.967 2.545 12.948-3.064 3.064-8.261 3.22-14.404.433-5.613-2.547-12.62-2.538-17.641.022-2.158 1.1-5.813 2-8.123 2-3.462 0-4.654-.54-6.788-3.077zm30.411-21.312v-16.389l-3.5-.656c-1.925-.361-5.075-.361-7 0l-3.5.656V387.916h14v-16.389zm2.805-22.869c.767-3.903-10.441-6.352-17.24-3.767-2.247.855-3.468 3.788-2.132 5.125.239.238 4.626.38 9.75.314 7.56-.097 9.375-.413 9.622-1.672zm-.011-8.163c-.588-4.06-9.586-5.942-16.645-3.481-2.249.784-3.149 1.728-3.149 3.304 0 2.129.353 2.207 10.044 2.207 9.522 0 10.029-.106 9.75-2.03zm-1.262-32.928c4.07-5.81-.104-12.651-7.716-12.651-8.53 0-12.607 5.02-9.45 11.64 1.217 2.553 1.634 6.343 1.634 14.848v11.42l6.75.296 6.75.296.282-11.877c.2-8.445.706-12.481 1.75-13.972zm47.381 87.067c-2.102-1.614-3.913-5.113-3.913-7.56 0-1.101 2.208-3.958 5-6.468l5-4.496v-19.099l-4.485-3.085c-5.102-3.51-6.515-5.635-6.515-9.794 0-3.286 4.63-10.273 8.48-12.795 2.353-1.542 2.52-2.193 2.52-9.82v-8.17l-5.5-5.431c-3.025-2.988-5.5-6.202-5.5-7.143 0-2.338 4.053-5.336 10.833-8.013 7.473-2.951 24.026-3.178 31.667-.434 6.417 2.304 11.5 6.143 11.5 8.685 0 1.12-2.405 4.256-5.5 7.17l-5.5 5.177V328.92l4.16 3.747c5.265 4.743 8.244 11.056 6.893 14.608-.53 1.394-3.233 4.229-6.008 6.3l-5.045 3.767V375.836l5 4.677c5.837 5.46 6.527 8.967 2.546 12.948-3.064 3.064-8.262 3.22-14.405.433-5.67-2.573-13.055-2.564-17.88.022-4.15 2.225-10.912 2.588-13.348.718zm29.087-23.107v-16.389l-3.5-.656c-1.925-.361-5.075-.361-7 0l-3.5.656V387.916h14v-16.389zm2.805-22.869c.767-3.903-10.441-6.352-17.24-3.767-2.247.855-3.468 3.788-2.132 5.125.239.238 4.626.38 9.75.314 7.56-.097 9.375-.413 9.622-1.672zm-.305-8.238c0-3.923-9.306-5.862-16.35-3.406-2.272.791-3.15 1.723-3.15 3.343 0 2.181.277 2.242 9.75 2.127 8.951-.11 9.75-.278 9.75-2.064zm-.968-32.853c4.07-5.81-.104-12.651-7.716-12.651-8.53 0-12.607 5.02-9.45 11.64 1.217 2.553 1.634 6.343 1.634 14.848v11.42l6.75.296 6.75.296.282-11.877c.2-8.445.706-12.481 1.75-13.972zM78.609 274.664c-1.322-.686-3.294-2.446-4.38-3.911-2.836-3.82-1.63-7.112 4.245-11.587l4.924-3.75.057-9.683c.05-8.585-.153-9.75-1.8-10.272-1.022-.324-3.722-2.31-6-4.414-6.206-5.728-5.48-10.592 2.775-18.584l4.082-3.953v-15.913l-5.5-5.767c-3.025-3.17-5.5-6.27-5.5-6.888 0-2.277 5.367-5.986 11.84-8.184 12.243-4.155 29.211-2.64 38.223 3.414 5.339 3.586 5.092 6.52-1.01 12.006l-5.053 4.543v16.414l4.919 5.382c8.058 8.818 7.7 13.023-1.697 19.899l-4.1 3-.06 9.23-.062 9.229 5.42 5.27c4.533 4.408 5.335 5.708 4.899 7.942-1.35 6.912-8.918 9.115-17.056 4.963-5.212-2.66-12.1-2.763-17.053-.256-5.32 2.693-9.335 3.313-12.113 1.87zm26.903-24.139v-16.39l-3.732-.436c-2.052-.24-5.09-.158-6.75.18l-3.018.617-.275 16.21-.274 16.21h14.049v-16.39zm2.787-23.08c-.582-4.013-9.622-5.877-16.638-3.431-2.253.785-3.149 1.727-3.149 3.31 0 2.142.327 2.212 10.037 2.157 9.417-.053 10.02-.18 9.75-2.036zm.213-7.728c0-2.233-5.349-4.801-10-4.801-4.692 0-10 2.567-10 4.836 0 1.79.76 1.936 10 1.903 9.151-.032 10-.197 10-1.938zm-2-19.398c0-9.264.388-12.874 1.659-15.421 1.464-2.936 1.49-3.626.22-5.89-2.107-3.753-5.643-5.265-10.822-4.626-7.66.945-10.837 5.796-7.557 11.534 1.014 1.773 1.44 5.988 1.466 14.5l.037 12H106.513v-12.097zm54.5 74.223c-3.702-1.63-5.971-5.612-5.122-8.994.348-1.387 2.88-4.417 5.627-6.734l4.995-4.211V236.37l-3.58-1.928c-5.095-2.744-8.42-7.058-8.42-10.926 0-3.513 3.607-9.03 8.25-12.62 2.604-2.013 2.75-2.562 2.75-10.333v-8.206l-5.567-5.24c-6.803-6.405-6.865-8.435-.375-12.44 7.018-4.33 18.531-6.35 28.223-4.951 11.906 1.718 20.72 6.182 20.72 10.494 0 1.107-2.451 4.37-5.5 7.323l-5.5 5.327v7.834c0 7.59.096 7.906 3.076 10.11 3.521 2.603 8.923 10.632 8.923 13.262 0 2.283-5.474 8.516-9.148 10.416-2.834 1.465-2.852 1.533-2.852 11.046v9.571l5 4.496c6.724 6.045 6.717 11.337-.02 14.82-3.285 1.699-6.321 1.287-12.19-1.652-4.756-2.382-11.851-2.374-16.58.02-5.36 2.714-9.287 3.253-12.71 1.748zm27.275-23.836l-.275-16.21-3.25-.664c-1.787-.365-4.712-.365-6.5 0l-3.25.664-.275 16.21-.274 16.21h14.099l-.275-16.21zm2.725-23.334c0-3.878-9.35-5.799-16.35-3.358-2.276.793-3.15 1.723-3.15 3.35 0 2.193.252 2.247 9.75 2.078 8.846-.157 9.75-.35 9.75-2.07zm.5-7.66c0-2.228-5.354-4.796-10-4.796s-10 2.568-10 4.797c0 1.738.844 1.898 10 1.898s10-.16 10-1.898zm-2.964-18.796c.024-8.08.46-12.244 1.464-14 2.047-3.58 1.853-8.37-.422-10.43-2.894-2.619-9.133-3.112-13.45-1.064-4.483 2.127-5.53 5.379-3.263 10.133 1.225 2.57 1.635 6.366 1.635 15.145v11.716h14l.036-11.5zm50.293 73.554c-1.744-.765-3.657-2.298-4.25-3.407-2.089-3.902-1.21-6.423 3.921-11.24l5-4.694v-9.491c0-9.265-.066-9.534-2.75-11.237-9.082-5.76-10.574-10.93-5.246-18.176 1.652-2.246 4.127-4.82 5.5-5.72 2.324-1.523 2.496-2.197 2.496-9.805v-8.169l-5.57-5.309c-6.81-6.492-6.871-8.533-.372-12.544 6.995-4.317 18.535-6.35 28.158-4.96 8.412 1.213 16.672 4.311 19.331 7.25 2.545 2.812 1.147 6.18-4.541 10.943l-5.006 4.191v16.122l3.912 3.349c2.152 1.841 4.884 5.356 6.072 7.81 1.906 3.936 2.003 4.787.83 7.235-.73 1.525-3.463 4.353-6.072 6.284l-4.742 3.51v18.698l5 4.496c3.642 3.274 5 5.224 5 7.18 0 3.766-2.408 6.78-6.498 8.13-3.07 1.012-4.17.84-9.117-1.424-6.861-3.142-13.848-3.395-18.578-.673-4.717 2.714-8.818 3.257-12.478 1.651zm27.446-23.764l-.275-16.21-3.25-.664c-1.787-.365-4.712-.365-6.5 0l-3.25.664-.275 16.21-.274 16.21h14.099l-.275-16.21zm2.725-23.334c0-3.878-9.35-5.799-16.35-3.358-2.276.793-3.15 1.723-3.15 3.35 0 2.193.252 2.247 9.75 2.078 8.846-.157 9.75-.35 9.75-2.07zm.5-7.66c0-2.228-5.354-4.796-10-4.796s-10 2.568-10 4.797c0 1.738.844 1.898 10 1.898s10-.16 10-1.898zm-2.968-19.296c.024-8.964.403-12.491 1.5-13.941 2-2.646 1.85-7.905-.282-9.826-5.721-5.156-18.262-2.051-18.244 4.517.003 1.237.679 3.539 1.5 5.114 1.076 2.062 1.494 6.124 1.494 14.5v11.636h14l.032-12zM77.4 156.466c-1.436-.808-3.188-2.86-3.892-4.56-1.642-3.965-.436-6.374 5.532-11.048l4.396-3.442.038-9.523.038-9.522-3.58-1.928c-10.456-5.632-10.949-12.833-1.502-21.98l4.082-3.953V74.015l-4.396-3.675c-4.748-3.968-6.89-7.517-5.975-9.9.945-2.463 12.375-7.395 19.805-8.547 8.158-1.264 18.436-.013 25.474 3.1 9.69 4.287 10.334 7.29 3.092 14.423l-5 4.925V90.534l4.896 5.08c8.01 8.31 7.603 14.276-1.362 19.94l-4.53 2.862-.002 9.23-.002 9.229 5.598 5.422c6.335 6.136 6.523 7.987 1.308 12.869-3.617 3.385-5.907 3.428-12.756.24-6.563-3.055-12.713-3.207-18.013-.445-5.29 2.758-10.058 3.3-13.25 1.505zm27.886-23.3l-.274-16.75h-13l-.274 16.75-.274 16.75h14.096l-.274-16.75zm3.02-23.672c-.462-3.188-4.532-4.737-11.081-4.22-6.179.49-8.713 1.831-8.713 4.614 0 1.524 1.178 1.721 10.044 1.68 9.507-.044 10.028-.155 9.75-2.074zm.206-7.728c0-2.838-6.273-5.222-11.761-4.47-5.606.769-8.239 2.232-8.239 4.58 0 1.729.853 1.888 10 1.866 9.244-.022 10-.171 10-1.976zm-2-18.978c0-8.184.454-12.714 1.533-15.296 2.033-4.866.404-8.452-4.724-10.4-4.918-1.869-11.547.063-13.747 4.006-1.346 2.414-1.324 3.045.22 6.284 1.321 2.77 1.718 6.31 1.718 15.318v11.716h15V82.788zm131.34 73.193c-6.065-3.698-5.64-9.047 1.163-14.621l4.497-3.685v-9.844c0-9.2-.147-9.92-2.25-11-1.237-.635-3.712-2.54-5.5-4.231-2.579-2.442-3.25-3.877-3.25-6.955 0-3.335.77-4.685 5.5-9.644l5.5-5.766V74.576l-5.5-5.118c-6.673-6.21-7.012-8.529-1.75-11.957 12.052-7.85 34.448-7.85 46.5 0 5.2 3.387 4.874 5.628-1.75 12.043l-5.5 5.327V90.26l4.573 4.382c5.476 5.246 7.813 10.13 6.501 13.58-.898 2.363-8.653 9.695-10.254 9.695-.45 0-.82 4.323-.82 9.607v9.606l5 4.695c5.75 5.398 6.362 8.397 2.606 12.763-3.025 3.517-8.17 3.71-14.672.548-5.948-2.891-11.47-2.809-18.085.271-6.446 3-8.385 3.09-12.51.575zm28.434-22.815l-.274-16.75h-13l-.274 16.75-.274 16.75h14.096l-.274-16.75zm3.03-23.468c.432-2.244-4.665-4.782-9.605-4.782-6.078 0-10.199 1.794-10.199 4.44 0 2.182.277 2.243 9.741 2.128 8.24-.1 9.79-.376 10.062-1.786zm.196-7.856c0-5.85-18.973-6.122-19.805-.284-.295 2.066.046 2.14 9.75 2.14 9.129 0 10.055-.17 10.055-1.856zm-2.759-19.426c.209-7.184.893-13.234 1.706-15.074 2.014-4.557.71-8.253-3.535-10.027-9.297-3.885-19.28 4.105-13.944 11.16 1.097 1.45 1.477 4.977 1.5 13.94l.032 12h13.893l.348-12zm-107.328 72.218c-2.11-1.62-3.913-5.116-3.913-7.59 0-1.176 2.265-3.99 5.487-6.816l5.488-4.812.01-9 .011-9-4.511-2.85c-5.545-3.503-7.485-6.153-7.485-10.223 0-3.504 4.491-10.392 8.48-13.006 2.353-1.542 2.52-2.193 2.52-9.82v-8.17l-5.536-5.465c-6.366-6.285-6.626-8.28-1.527-11.708 11.75-7.9 35.956-7.684 46.813.418 4.646 3.467 4.194 5.832-2.25 11.782l-5.5 5.078v15.064l5.347 5.52c8.455 8.73 8.317 13.262-.605 19.866l-4.742 3.51v18.698l5 4.496c5.855 5.264 6.563 8.838 2.546 12.855-3.098 3.098-9.003 3.283-14.546.455-2.318-1.183-5.894-2-8.749-2-2.854 0-6.432.818-8.75 2-4.368 2.226-11.156 2.585-13.588.718zm29.087-23.107v-16.389l-3.5-.656c-1.925-.361-5.075-.361-7 0l-3.5.656V147.916h14v-16.389zm2.8-22.816c.78-4.044-10.936-6.513-17.253-3.635-2.225 1.014-3.374 3.68-2.125 4.929.233.232 4.618.397 9.746.367 7.736-.046 9.376-.329 9.633-1.66zm-.006-8.216c-.395-2.726-4.32-4.55-9.794-4.55s-9.399 1.824-9.794 4.55c-.279 1.925.228 2.03 9.794 2.03s10.073-.105 9.794-2.03zm-2.762-19.08c.024-8.963.403-12.49 1.5-13.94 2.08-2.751 1.846-7.907-.454-9.989-2.759-2.496-8.943-3.071-13.328-1.239-4.582 1.914-5.726 5.399-3.385 10.308 1.225 2.57 1.635 6.366 1.635 15.145v11.716h14l.032-12z" fill="#ba1920"/><path d="M57.064 444.276c-24.967-5.395-44.779-22.833-53.236-46.86l-2.816-8-.265-163.244C.457 46.762.18 55.636 6.505 42.116c7.118-15.209 18.691-27.033 33.507-34.233C56.337-.05 47.632.416 179.512.416h117.5l7.944 2.3c13.328 3.86 22.909 9.485 32.635 19.163 6.88 6.846 9.404 10.22 12.745 17.037 8.331 16.998 7.676 1.297 7.676 184 0 152.589-.108 162.896-1.777 169-5.658 20.699-18.848 37.016-37.223 46.048-16.23 7.977-5.91 7.405-137.5 7.62-101.236.166-118.462-.015-124.448-1.308zm246.277-4.167c25.482-7.802 42.986-25.51 49.188-49.761 1.937-7.571 1.983-11.46 1.966-166.842-.015-135.805-.232-160.115-1.482-166.09-5.314-25.396-28.592-47.607-54.935-52.417-4.034-.736-42.224-1.083-119.302-1.083-100.918 0-114.16.178-120.566 1.621-25.215 5.68-45.392 24.708-52.362 49.379-1.747 6.185-1.836 14.324-1.836 168 0 180.893-.594 166 7.265 182 4.35 8.856 17.265 22.466 26.4 27.82 7.42 4.35 17.904 7.94 26.459 9.064 3.812.5 57.013.825 119.376.728l112.5-.175 7.329-2.244zM75.435 392.993c-4.287-4.287-3.796-6.688 2.577-12.62l5.5-5.118v-9.144c0-9.074-.022-9.155-2.894-10.64-5.212-2.696-9.106-7.396-9.106-10.991 0-3.432 4.457-10.095 8.776-13.12 1.994-1.396 2.224-2.413 2.224-9.826v-8.269l-5.5-5.544c-3.025-3.049-5.5-6.287-5.5-7.196 0-4.293 16.564-10.629 27.698-10.594 6.73.02 16.995 2.615 22.039 5.57 5.99 3.51 5.82 6.355-.737 12.415l-5 4.62V329.224l4.954 5.237c8.087 8.552 7.821 12.735-1.238 19.454l-4.716 3.498.024 9.502.023 9.502 4.072 3c5.657 4.168 7.077 7.128 5.369 11.19-2.375 5.648-8.452 6.87-16.347 3.288-5.613-2.547-12.62-2.538-17.641.022-5.84 2.977-11.004 2.65-14.577-.923zm30.077-21.466v-16.389l-3.5-.656c-1.925-.361-5.075-.361-7 0l-3.5.656V387.916h14v-16.389zm2.796-23.279c.393-2.617-3.485-4.332-9.796-4.332-5.818 0-10 1.67-10 3.994 0 .92.195 1.867.433 2.106.239.238 4.626.381 9.75.317 8.456-.105 9.344-.298 9.613-2.085zm-.006-7.784c-.448-3.091-4.556-4.677-11.07-4.274-5.975.37-9.448 2.386-8.475 4.921.385 1.005 2.99 1.35 10.176 1.35 9.085 0 9.641-.118 9.369-1.997zm-1.79-18.926c0-8.823.437-13.425 1.523-16.023 1.75-4.187.948-6.59-3.078-9.227-3.42-2.241-10.768-1.357-14.007 1.686-2.819 2.648-3.007 4.327-.932 8.306 1.08 2.07 1.494 6.147 1.494 14.704v11.84l6.75.35c3.713.193 7.088.438 7.5.546.413.108.75-5.374.75-12.182zm130.913 73.096c-2.102-1.614-3.913-5.113-3.913-7.56 0-1.101 2.208-3.958 5-6.468l5-4.496v-19.099l-4.485-3.085c-5.102-3.51-6.515-5.635-6.515-9.794 0-3.286 4.63-10.273 8.48-12.795 2.353-1.542 2.52-2.193 2.52-9.82v-8.17l-5.5-5.431c-3.025-2.988-5.5-6.202-5.5-7.143 0-2.338 4.053-5.336 10.833-8.013 7.473-2.951 24.026-3.178 31.667-.434 6.417 2.304 11.5 6.143 11.5 8.685 0 1.12-2.405 4.256-5.5 7.17l-5.5 5.177V328.92l4.16 3.747c5.265 4.743 8.244 11.056 6.893 14.608-.53 1.394-3.233 4.229-6.008 6.3l-5.045 3.767V375.836l5 4.677c5.837 5.46 6.527 8.967 2.546 12.948-3.064 3.064-8.262 3.22-14.405.433-5.67-2.573-13.055-2.564-17.88.022-4.15 2.225-10.912 2.588-13.348.718zm29.087-23.107v-16.389l-3.5-.656c-1.925-.361-5.075-.361-7 0l-3.5.656V387.916h14v-16.389zm2.805-22.869c.767-3.903-10.441-6.352-17.24-3.767-2.247.855-3.468 3.788-2.132 5.125.239.238 4.626.38 9.75.314 7.56-.097 9.375-.413 9.622-1.672zm-.305-8.238c0-3.923-9.306-5.862-16.35-3.406-2.272.791-3.15 1.723-3.15 3.343 0 2.181.277 2.242 9.75 2.127 8.951-.11 9.75-.278 9.75-2.064zm-.968-32.853c4.07-5.81-.104-12.651-7.716-12.651-8.53 0-12.607 5.02-9.45 11.64 1.217 2.553 1.634 6.343 1.634 14.848v11.42l6.75.296 6.75.296.282-11.877c.2-8.445.706-12.481 1.75-13.972zM78.609 274.664c-1.322-.686-3.294-2.446-4.38-3.911-2.836-3.82-1.63-7.112 4.245-11.587l4.924-3.75.057-9.683c.05-8.585-.153-9.75-1.8-10.272-1.022-.324-3.722-2.31-6-4.414-6.206-5.728-5.48-10.592 2.775-18.584l4.082-3.953v-15.913l-5.5-5.767c-3.025-3.17-5.5-6.27-5.5-6.888 0-2.277 5.367-5.986 11.84-8.184 12.243-4.155 29.211-2.64 38.223 3.414 5.339 3.586 5.092 6.52-1.01 12.006l-5.053 4.543v16.414l4.919 5.382c8.058 8.818 7.7 13.023-1.697 19.899l-4.1 3-.06 9.23-.062 9.229 5.42 5.27c4.533 4.408 5.335 5.708 4.899 7.942-1.35 6.912-8.918 9.115-17.056 4.963-5.212-2.66-12.1-2.763-17.053-.256-5.32 2.693-9.335 3.313-12.113 1.87zm26.903-24.139v-16.39l-3.732-.436c-2.052-.24-5.09-.158-6.75.18l-3.018.617-.275 16.21-.274 16.21h14.049v-16.39zm2.787-23.08c-.582-4.013-9.622-5.877-16.638-3.431-2.253.785-3.149 1.727-3.149 3.31 0 2.142.327 2.212 10.037 2.157 9.417-.053 10.02-.18 9.75-2.036zm.213-7.728c0-2.233-5.349-4.801-10-4.801-4.692 0-10 2.567-10 4.836 0 1.79.76 1.936 10 1.903 9.151-.032 10-.197 10-1.938zm-2-19.398c0-9.264.388-12.874 1.659-15.421 1.464-2.936 1.49-3.626.22-5.89-2.107-3.753-5.643-5.265-10.822-4.626-7.66.945-10.837 5.796-7.557 11.534 1.014 1.773 1.44 5.988 1.466 14.5l.037 12H106.513v-12.097zm132.329 74.151c-1.744-.765-3.657-2.298-4.25-3.407-2.089-3.902-1.21-6.423 3.921-11.24l5-4.694v-9.491c0-9.265-.066-9.534-2.75-11.237-9.082-5.76-10.574-10.93-5.246-18.176 1.652-2.246 4.127-4.82 5.5-5.72 2.324-1.523 2.496-2.197 2.496-9.805v-8.169l-5.57-5.309c-6.81-6.492-6.871-8.533-.372-12.544 6.995-4.317 18.535-6.35 28.158-4.96 8.412 1.213 16.672 4.311 19.331 7.25 2.545 2.812 1.147 6.18-4.541 10.943l-5.006 4.191v16.122l3.912 3.349c2.152 1.841 4.884 5.356 6.072 7.81 1.906 3.936 2.003 4.787.83 7.235-.73 1.525-3.463 4.353-6.072 6.284l-4.742 3.51v18.698l5 4.496c3.642 3.274 5 5.224 5 7.18 0 3.766-2.408 6.78-6.498 8.13-3.07 1.012-4.17.84-9.117-1.424-6.861-3.142-13.848-3.395-18.578-.673-4.717 2.714-8.818 3.257-12.478 1.651zm27.446-23.764l-.275-16.21-3.25-.664c-1.787-.365-4.712-.365-6.5 0l-3.25.664-.275 16.21-.274 16.21h14.099l-.275-16.21zm2.725-23.334c0-3.878-9.35-5.799-16.35-3.358-2.276.793-3.15 1.723-3.15 3.35 0 2.193.252 2.247 9.75 2.078 8.846-.157 9.75-.35 9.75-2.07zm.5-7.66c0-2.228-5.354-4.796-10-4.796s-10 2.568-10 4.797c0 1.738.844 1.898 10 1.898s10-.16 10-1.898zm-2.968-19.296c.024-8.964.403-12.491 1.5-13.941 2-2.646 1.85-7.905-.282-9.826-5.721-5.156-18.262-2.051-18.244 4.517.003 1.237.679 3.539 1.5 5.114 1.076 2.062 1.494 6.124 1.494 14.5v11.636h14l.032-12zM77.4 156.466c-1.436-.808-3.188-2.86-3.892-4.56-1.642-3.965-.436-6.374 5.532-11.048l4.396-3.442.038-9.523.038-9.522-3.58-1.928c-10.456-5.632-10.949-12.833-1.502-21.98l4.082-3.953V74.015l-4.396-3.675c-4.748-3.968-6.89-7.517-5.975-9.9.945-2.463 12.375-7.395 19.805-8.547 8.158-1.264 18.436-.013 25.474 3.1 9.69 4.287 10.334 7.29 3.092 14.423l-5 4.925V90.534l4.896 5.08c8.01 8.31 7.603 14.276-1.362 19.94l-4.53 2.862-.002 9.23-.002 9.229 5.598 5.422c6.335 6.136 6.523 7.987 1.308 12.869-3.617 3.385-5.907 3.428-12.756.24-6.563-3.055-12.713-3.207-18.013-.445-5.29 2.758-10.058 3.3-13.25 1.505zm27.886-23.3l-.274-16.75h-13l-.274 16.75-.274 16.75h14.096l-.274-16.75zm3.02-23.672c-.462-3.188-4.532-4.737-11.081-4.22-6.179.49-8.713 1.831-8.713 4.614 0 1.524 1.178 1.721 10.044 1.68 9.507-.044 10.028-.155 9.75-2.074zm.206-7.728c0-2.838-6.273-5.222-11.761-4.47-5.606.769-8.239 2.232-8.239 4.58 0 1.729.853 1.888 10 1.866 9.244-.022 10-.171 10-1.976zm-2-18.978c0-8.184.454-12.714 1.533-15.296 2.033-4.866.404-8.452-4.724-10.4-4.918-1.869-11.547.063-13.747 4.006-1.346 2.414-1.324 3.045.22 6.284 1.321 2.77 1.718 6.31 1.718 15.318v11.716h15V82.788zm131.34 73.193c-6.065-3.698-5.64-9.047 1.163-14.621l4.497-3.685v-9.844c0-9.2-.147-9.92-2.25-11-1.237-.635-3.712-2.54-5.5-4.231-2.579-2.442-3.25-3.877-3.25-6.955 0-3.335.77-4.685 5.5-9.644l5.5-5.766V74.576l-5.5-5.118c-6.673-6.21-7.012-8.529-1.75-11.957 12.052-7.85 34.448-7.85 46.5 0 5.2 3.387 4.874 5.628-1.75 12.043l-5.5 5.327V90.26l4.573 4.382c5.476 5.246 7.813 10.13 6.501 13.58-.898 2.363-8.653 9.695-10.254 9.695-.45 0-.82 4.323-.82 9.607v9.606l5 4.695c5.75 5.398 6.362 8.397 2.606 12.763-3.025 3.517-8.17 3.71-14.672.548-5.948-2.891-11.47-2.809-18.085.271-6.446 3-8.385 3.09-12.51.575zm28.434-22.815l-.274-16.75h-13l-.274 16.75-.274 16.75h14.096l-.274-16.75zm3.03-23.468c.432-2.244-4.665-4.782-9.605-4.782-6.078 0-10.199 1.794-10.199 4.44 0 2.182.277 2.243 9.741 2.128 8.24-.1 9.79-.376 10.062-1.786zm.196-7.856c0-5.85-18.973-6.122-19.805-.284-.295 2.066.046 2.14 9.75 2.14 9.129 0 10.055-.17 10.055-1.856zm-2.759-19.426c.209-7.184.893-13.234 1.706-15.074 2.014-4.557.71-8.253-3.535-10.027-9.297-3.885-19.28 4.105-13.944 11.16 1.097 1.45 1.477 4.977 1.5 13.94l.032 12h13.893l.348-12z" fill="#0e1f0b"/><path d="M58.512 444.417c-23.004-4.64-41.625-19.071-51.65-40.03C.22 390.497.55 399.96.53 222.826.512 65.712.555 62.065 2.505 54.326c3.337-13.244 8.201-21.655 18.481-31.95C30.988 12.359 40.066 6.887 53.539 2.754L61.012.462l112.5-.32c75.94-.216 115.146.028 120.642.75 16.896 2.22 31.862 9.459 43.393 20.99 11.246 11.246 17.66 24.263 19.884 40.356 1.362 9.853 1.458 310.833.102 321.178-2.184 16.672-8.214 28.703-20.637 41.173-6.934 6.96-9.682 8.919-18.513 13.195-17.704 8.572-10.276 8.145-139.579 8.038-89.58-.074-115.175-.373-120.292-1.405zm234.77-2.532c17.297-2.168 29.292-8.056 41.84-20.534 6.353-6.318 9.01-9.893 12.268-16.5 7.523-15.26 7.085-4.068 7.105-181.738.019-176.594.393-166.252-6.534-180.697-6.695-13.962-17.267-24.375-31.949-31.469-15.406-7.443-9.05-7.133-140-6.815l-117 .284-8 2.823c-12.064 4.258-18.15 8.15-27.508 17.593-9.31 9.394-13.415 16.115-17.151 28.084l-2.34 7.5v162c0 177.173-.364 166.25 5.978 180 9.968 21.613 30.315 36.362 54.521 39.52 8.97 1.17 219.404 1.124 228.77-.05z"/></svg>