<svg xmlns="http://www.w3.org/2000/svg" width="358.8" height="446.547"><path d="M63.214 445.826c-26.912-3.196-50.855-22.423-59.787-48.011l-2.932-8.401-.28-163.5c-.311-182.35-.744-170.32 6.68-185.67 7.138-14.76 18.807-26.069 34.371-33.307C57.294-.516 50.493-.188 182.495.13l118 .284 8.761 3.134c12.264 4.389 18.981 8.623 28.337 17.866 9.407 9.293 15.114 18.793 18.599 30.959l2.303 8.04v162.5c0 181.206.54 166.895-6.883 182.5-8.934 18.782-25.964 32.729-47.33 38.763l-7.787 2.199-113 .158c-62.15.086-116.277-.231-120.281-.707zm243.28-7.22c21.725-7.625 36.83-22.487 44.31-43.596l2.69-7.596.266-161.243c.23-139.944.067-162.202-1.231-168.5-4.765-23.117-23.618-43.029-48.022-50.72l-8.012-2.526-112.869-.288c-122.72-.314-123.1-.3-136.692 5.223-19.431 7.896-34.852 25.197-40.603 45.554-1.747 6.185-1.836 14.338-1.836 168.5v162l2.331 7.5c3.6 11.577 8.513 19.546 17.645 28.62 6.646 6.602 9.935 8.98 17.599 12.727 16.19 7.916 8.949 7.536 139.925 7.333l116.5-.18 8-2.808zm-156.143-52.004c-3.042-2.788-3.693-4.134-4.113-8.505l-.499-5.193 7.128-7.002 7.128-7.001v-26.548l-5.49-3.97c-6.984-5.049-9.669-8.697-10.26-13.941-.613-5.44 2.242-11.096 9.375-18.574l5.375-5.635V266.65l-4.737-4.619c-10.66-10.394-11.836-14.653-5.564-20.159 9.756-8.566 28.411-12.143 44.07-8.452 11.648 2.747 22.23 9.765 22.23 14.744 0 2.894-3.968 8.516-10.381 14.707l-4.618 4.458V289.463l5.556 5.876c7.021 7.425 9.444 12.133 9.444 18.355 0 4.108-.541 5.492-3.499 8.947-1.924 2.248-5.523 5.366-7.998 6.93l-4.5 2.843-.002 13.156-.002 13.156 6.945 6.705c4.025 3.886 7.199 7.86 7.549 9.452.838 3.815-2.093 10.61-5.678 13.162-4.091 2.913-12.126 2.252-17.734-1.459-3.312-2.191-5.168-2.669-10.31-2.654-5.292.015-6.959.484-10.672 3-3.53 2.392-5.462 2.982-9.765 2.982-4.678 0-5.826-.424-8.978-3.312zm37.644-33.22c0-26.465.534-24.792-7.943-24.875-2.507-.025-5.795.29-7.307.7l-2.75.745v46.962h18v-23.532zm4-34.662c0-1.01-1.463-2.727-3.25-3.817-7.23-4.409-24.516-1.034-22.439 4.38.36.938 3.807 1.274 13.089 1.274 11.558 0 12.6-.152 12.6-1.837zm.466-10.579c.738-1.924-2.847-4.962-7.503-6.357-7.684-2.302-20.087 2.039-18.398 6.439.677 1.764 25.222 1.687 25.9-.082zm-3.466-29.85c0-15.14.24-17.665 2.068-21.8 2.557-5.78 1.912-9.575-2.218-13.05-2.31-1.944-4.125-2.527-7.862-2.527-12.04 0-16.953 6.762-11.988 16.5 1.768 3.468 2 5.898 2.001 20.961l.001 17.039H188.995V278.29zm-34-63.997c-6.64-2.329-10-6.825-10-13.379 0-3.955.503-4.757 7-11.138l7-6.876-.026-13.244-.026-13.243-5.141-3.49c-13.91-9.44-14.264-19.34-1.182-33.056l5.375-5.635V90.95l-5.624-5.268c-5.927-5.553-9.477-11.666-8.638-14.874 1.294-4.951 14.305-12.046 25.576-13.947 13.085-2.207 27.99.678 37.885 7.334 9.094 6.117 8.866 9.77-1.261 20.215l-6.938 7.155v22.932l4.624 4.459c7.493 7.224 10.376 12.435 10.376 18.758 0 5.284-.136 5.54-5.936 11.216-3.265 3.195-6.865 6.103-8 6.463-1.951.62-2.064 1.394-2.064 14.122v13.467l6.38 5.968c8.24 7.709 9.453 10.494 7.17 16.471-3.227 8.45-9.848 11.14-18.384 7.47-2.807-1.208-5.623-2.822-6.257-3.587-.762-.918-3.296-1.39-7.465-1.39-5.23 0-7.137.505-11.128 2.944-4.83 2.953-10.512 4.42-13.316 3.436zm32-36.773c0-20.41-.202-23.47-1.582-24-2.027-.778-11.236-.763-14.168.023l-2.25.603V200.914h18V177.52zm-8.5-33.06c2.2.024 5.8.248 8 .498 3.721.423 4 .28 4-2.045 0-5.476-12.74-7.89-21.25-4.027-2.904 1.318-4.25 2.551-4.25 3.895 0 2.514 1.622 3.136 6 2.303 1.925-.366 5.3-.647 7.5-.623zm12.5-13.082c0-6.775-21.478-7.974-25.525-1.424-1.823 2.949.374 3.545 12.914 3.502 12.001-.041 12.61-.142 12.61-2.078zm-3-28.946c0-15.107.237-17.554 2.152-22.174 1.908-4.604 2.003-5.557.83-8.388-1.74-4.2-6.404-6.949-11.798-6.954-10.539-.009-16.017 7.618-11.603 16.155 1.282 2.478 1.56 6.402 1.465 20.7l-.116 17.642h19.07v-16.98z" fill="#c2c6c1"/><path d="M63.214 445.826c-26.912-3.196-50.855-22.423-59.787-48.011l-2.932-8.401-.28-163.5c-.311-182.35-.744-170.32 6.68-185.67 7.138-14.76 18.807-26.069 34.371-33.307C57.294-.516 50.493-.188 182.495.13l118 .284 8.761 3.134c12.264 4.389 18.981 8.623 28.337 17.866 9.407 9.293 15.114 18.793 18.599 30.959l2.303 8.04v162.5c0 181.206.54 166.895-6.883 182.5-8.934 18.782-25.964 32.729-47.33 38.763l-7.787 2.199-113 .158c-62.15.086-116.277-.231-120.281-.707zm243.28-7.22c21.725-7.625 36.83-22.487 44.31-43.596l2.69-7.596.266-161.243c.23-139.944.067-162.202-1.231-168.5-4.765-23.117-23.618-43.029-48.022-50.72l-8.012-2.526-112.869-.288c-122.72-.314-123.1-.3-136.692 5.223-19.431 7.896-34.852 25.197-40.603 45.554-1.747 6.185-1.836 14.338-1.836 168.5v162l2.331 7.5c3.6 11.577 8.513 19.546 17.645 28.62 6.646 6.602 9.935 8.98 17.599 12.727 16.19 7.916 8.949 7.536 139.925 7.333l116.5-.18 8-2.808zm-154.777-50.828c-3.433-2.56-5.722-6.833-5.722-10.677 0-3.237 3.221-7.73 9.75-13.6l4.25-3.82V332.05l-3.25-2.227c-4.952-3.393-9.763-8.108-11.336-11.11-3.143-6-.685-12.845 8.1-22.552l5.486-6.062V266.646l-7-7.37c-5.86-6.168-7-7.924-7-10.781 0-2.753.725-3.984 3.75-6.364 17.318-13.628 46.871-13.492 62.122.286 6.04 5.457 5.516 7.468-4.683 17.958l-6.19 6.367V290.497l4.56 4.459c14.68 14.353 14.004 24.605-2.31 35.042l-3.25 2.079.001 13.668v13.669l5.053 4.35c2.778 2.393 6.22 6.118 7.65 8.277 2.37 3.583 2.496 4.264 1.435 7.806-1.67 5.575-7.12 10.067-12.213 10.067-3.876 0-11.137-2.916-12.416-4.986-.345-.558-4.174-1.014-8.51-1.014-4.334 0-8.163.456-8.508 1.014-.345.558-2.378 1.908-4.52 3-5.102 2.603-11.645 2.539-15.25-.15zm36.046-34.614l-.268-23.75-4.5-.864c-2.938-.563-5.976-.463-8.75.289l-4.25 1.152v46.923h18.036l-.268-23.75zm4.232-34.992c0-7.183-24.772-6.86-25.8.338-.29 2.037.064 2.094 12.75 2.06 13.037-.037 13.05-.04 13.05-2.398zm.5-10.688c0-1.02-1.268-2.801-2.818-3.958-5.37-4.01-21.707-2.26-23.214 2.486-.328 1.036-.37 2.251-.093 2.7.278.449 6.27.773 13.315.721 11.773-.088 12.81-.245 12.81-1.95zm-3.243-30.07c.279-14.816.673-18.813 2.227-22.594 1.65-4.017 1.721-4.996.56-7.797-1.703-4.113-5.638-6.11-12.044-6.11-11.48 0-16.061 7.08-11 17 1.765 3.46 2 5.896 2.001 20.71l.001 16.79h17.917l.338-18zm-36.237-64.252c-4.46-2.24-8.02-7.568-8.02-12.003 0-2.928 1.074-4.566 7-10.678l7-7.219v-13.639c0-12.921-.113-13.7-2.145-14.786-3.427-1.835-10.88-9.072-12.432-12.072-3.159-6.108-.525-13.39 8.17-22.583l5.407-5.719V90.565l-7.063-7.284c-6.513-6.717-7.039-7.577-6.75-11.046.273-3.29 1.002-4.243 5.792-7.583 15.486-10.797 39.974-11.13 56.315-.766 2.518 1.596 5.335 4.058 6.26 5.471 2.401 3.664.547 7.545-7.273 15.225l-6.281 6.168v23.396l5.52 5.962c12.979 14.02 12.598 23.128-1.374 32.806l-5.053 3.5-.046 13.409-.047 13.409 6.465 6.185c3.556 3.402 6.909 7.35 7.45 8.774 2.042 5.37-2.823 13.547-9.341 15.698-3.778 1.247-8.36.094-13.721-3.454-5.356-3.544-15.5-3.625-20.17-.16-3.04 2.256-8.74 4.64-11.082 4.637-.606 0-2.667-.788-4.581-1.75zm33.748-35.998l-.268-23.75-6.47-.304c-3.557-.167-7.495-.045-8.75.27l-2.28.572v46.962h18.036l-.268-23.75zm-6.268-32.45c2.75.164 6.125.39 7.5.5 2.053.164 2.5-.247 2.5-2.3 0-3.397-5.323-5.997-12.282-5.999-8.737-.003-14.445 3.36-12.833 7.561.492 1.28 1.46 1.416 5.357.75 2.617-.447 7.008-.677 9.758-.513zm10.952-12.537c.768-2.001-2.87-5.03-7.559-6.292-4.188-1.128-8.477-.793-14.595 1.14-3.004.95-5.04 3.88-3.936 5.666.27.437 6.138.794 13.04.794 9.415 0 12.674-.327 13.05-1.308zm-3.452-29.886c0-15.139.24-17.665 2.068-21.8 2.557-5.78 1.912-9.575-2.218-13.05-2.328-1.959-4.118-2.527-7.96-2.527-11.957 0-16.69 6.362-12.39 16.654 1.135 2.717 1.5 7.755 1.5 20.718v17.128h19V102.29z" fill="#bebebe"/><path d="M63.655 445.802c-24.712-3.248-45.8-18.258-56.741-40.388C-.376 390.669.03 401.423.012 223.11-.008 43.683-.494 55.935 7.29 39.914c3.347-6.888 5.844-10.227 13.167-17.603C30.401 12.294 38.205 7.34 50.828 3.03L58.495.414h240l7.465 2.344c20.638 6.48 36.75 19.838 45.45 37.682 7.535 15.452 6.976 1.975 7.326 176.474.193 96.608-.058 159.822-.656 165.182-3.36 30.098-24.127 53.623-55.085 62.401-6.124 1.737-13.039 1.854-119.5 2.024-62.322.099-116.068-.223-119.84-.719zm236.132-5.448c4.409-.893 11.745-3.508 17.14-6.112 7.803-3.764 10.85-5.967 17.628-12.746 6.54-6.54 9.033-9.926 12.347-16.773 7.59-15.68 7.153-3.923 6.858-184.566l-.265-161.743-2.33-7c-5.732-17.217-17.805-31.288-33.43-38.96-17.589-8.638-7.274-8.04-138.74-8.04-130.896 0-121.252-.533-137.878 7.617-6.024 2.952-10.523 6.155-16.008 11.396C16.353 31.792 11.106 40 7.219 51.414l-2.724 8v163c0 155.131.088 163.314 1.836 169.5 5.712 20.218 21.651 37.945 40.518 45.064 12.866 4.855 10.616 4.772 131.438 4.856 99.355.07 114.77-.118 121.5-1.48zm-148.07-52.576c-3.433-2.56-5.722-6.833-5.722-10.677 0-3.237 3.221-7.73 9.75-13.6l4.25-3.82V332.05l-3.25-2.227c-4.952-3.393-9.763-8.108-11.336-11.11-3.143-6-.685-12.845 8.1-22.552l5.486-6.062V266.646l-7-7.37c-5.86-6.168-7-7.924-7-10.781 0-2.753.725-3.984 3.75-6.364 17.318-13.628 46.871-13.492 62.122.286 6.04 5.457 5.516 7.468-4.683 17.958l-6.19 6.367V290.497l4.56 4.459c14.68 14.353 14.004 24.605-2.31 35.042l-3.25 2.079.001 13.668v13.669l5.053 4.35c2.778 2.393 6.22 6.118 7.65 8.277 2.37 3.583 2.496 4.264 1.435 7.806-1.67 5.575-7.12 10.067-12.213 10.067-3.876 0-11.137-2.916-12.416-4.986-.345-.558-4.174-1.014-8.51-1.014-4.334 0-8.163.456-8.508 1.014-.345.558-2.378 1.908-4.52 3-5.102 2.603-11.645 2.539-15.25-.15zm36.046-34.614l-.268-23.75-4.5-.864c-2.938-.563-5.976-.463-8.75.289l-4.25 1.152v46.923h18.036l-.268-23.75zm4.232-34.992c0-7.183-24.772-6.86-25.8.338-.29 2.037.064 2.094 12.75 2.06 13.037-.037 13.05-.04 13.05-2.398zm.5-10.688c0-1.02-1.268-2.801-2.818-3.958-5.37-4.01-21.707-2.26-23.214 2.486-.328 1.036-.37 2.251-.093 2.7.278.449 6.27.773 13.315.721 11.773-.088 12.81-.245 12.81-1.95zm-3.243-30.07c.279-14.816.673-18.813 2.227-22.594 1.65-4.017 1.721-4.996.56-7.797-1.703-4.113-5.638-6.11-12.044-6.11-11.48 0-16.061 7.08-11 17 1.764 3.46 2 5.896 2.001 20.71l.001 16.79h17.916l.339-18zm-36.237-64.252c-4.46-2.24-8.02-7.568-8.02-12.003 0-2.928 1.074-4.566 7-10.678l7-7.219v-13.639c0-12.921-.113-13.7-2.145-14.786-3.427-1.835-10.88-9.072-12.432-12.072-3.159-6.108-.525-13.39 8.17-22.583l5.407-5.719V90.565l-7.063-7.284c-6.513-6.717-7.039-7.577-6.75-11.046.273-3.29 1.002-4.243 5.792-7.583 15.486-10.797 39.974-11.13 56.315-.766 2.518 1.596 5.335 4.058 6.26 5.471 2.401 3.664.547 7.545-7.273 15.225l-6.281 6.168v23.396l5.52 5.962c12.979 14.02 12.598 23.128-1.374 32.806l-5.053 3.5-.046 13.409-.047 13.409 6.465 6.185c3.556 3.402 6.909 7.35 7.45 8.774 2.042 5.37-2.823 13.547-9.341 15.698-3.778 1.247-8.36.094-13.721-3.454-5.356-3.544-15.5-3.625-20.17-.16-3.04 2.256-8.74 4.64-11.082 4.637-.606 0-2.667-.788-4.581-1.75zm33.748-35.998l-.268-23.75-6.47-.304c-3.557-.167-7.495-.045-8.75.27l-2.28.572v46.962h18.036l-.268-23.75zm-6.268-32.45c2.75.164 6.125.39 7.5.5 2.053.164 2.5-.247 2.5-2.3 0-3.397-5.323-5.997-12.282-5.999-8.737-.003-14.445 3.36-12.833 7.561.492 1.28 1.46 1.416 5.357.75 2.617-.447 7.008-.677 9.758-.513zm10.952-12.537c.768-2.001-2.87-5.03-7.559-6.292-4.188-1.128-8.477-.793-14.595 1.14-3.004.95-5.04 3.88-3.936 5.666.27.437 6.138.794 13.04.794 9.415 0 12.674-.327 13.05-1.308zm-3.452-29.886c0-15.139.24-17.665 2.068-21.8 2.557-5.78 1.912-9.575-2.218-13.05-2.328-1.959-4.118-2.527-7.96-2.527-11.957 0-16.69 6.362-12.39 16.654 1.135 2.717 1.5 7.755 1.5 20.718v17.128h19V102.29z" fill="#868f85"/><path d="M63.655 445.802c-24.712-3.248-45.8-18.258-56.741-40.388C-.376 390.669.03 401.423.012 223.11-.008 43.683-.494 55.935 7.29 39.914c3.347-6.888 5.844-10.227 13.167-17.603C30.401 12.294 38.205 7.34 50.828 3.03L58.495.414h240l7.465 2.344c20.638 6.48 36.75 19.838 45.45 37.682 7.535 15.452 6.976 1.975 7.326 176.474.193 96.608-.058 159.822-.656 165.182-3.36 30.098-24.127 53.623-55.085 62.401-6.124 1.737-13.039 1.854-119.5 2.024-62.322.099-116.068-.223-119.84-.719zm236.132-5.448c4.409-.893 11.745-3.508 17.14-6.112 7.803-3.764 10.85-5.967 17.628-12.746 6.54-6.54 9.033-9.926 12.347-16.773 7.59-15.68 7.153-3.923 6.858-184.566l-.265-161.743-2.33-7c-5.732-17.217-17.805-31.288-33.43-38.96-17.589-8.638-7.274-8.04-138.74-8.04-130.896 0-121.252-.533-137.878 7.617-6.024 2.952-10.523 6.155-16.008 11.396C16.353 31.792 11.106 40 7.219 51.414l-2.724 8v163c0 155.131.088 163.314 1.836 169.5 5.712 20.218 21.651 37.945 40.518 45.064 12.866 4.855 10.616 4.772 131.438 4.856 99.355.07 114.77-.118 121.5-1.48zm-146.899-51.88c-3.498-1.978-5.71-5.559-6.505-10.533-.651-4.074-.586-4.184 6.977-11.747l7.635-7.635V332.25l-4.97-3.221c-7.746-5.019-11.03-9.6-11.03-15.384 0-6.215 2.688-11.42 9.566-18.521l5.434-5.61v-22.159l-6.45-6.392c-10.195-10.105-10.912-14.641-3.156-19.978 6.258-4.305 13.266-6.823 22.8-8.19 7.022-1.007 9.509-.945 16.09.406 8.927 1.831 16.775 5.173 21.466 9.14 2.512 2.125 3.25 3.536 3.25 6.213 0 2.917-1.105 4.63-7 10.859l-7 7.395v23.424l5.375 5.635c11.123 11.661 12.408 19.6 4.487 27.705-2.4 2.454-5.825 5.372-7.612 6.483l-3.25 2.02V358.902l7 6.876c6.344 6.232 7 7.25 7 10.859 0 4.543-3.2 10.03-7.03 12.055-3.749 1.982-10.259.888-15.773-2.65-3.982-2.556-5.901-3.127-10.506-3.127-4.702 0-6.369.519-10.087 3.14-5.267 3.712-12.56 4.768-16.711 2.42zm35.875-34.828l.268-23.768-2.583-.982c-3.312-1.26-10.585-1.263-13.888-.007l-2.565.975v46.923l3.25.424c1.787.233 5.95.374 9.25.313l6-.11.268-23.768zm3.422-33.523c3.284-3.284-6.336-8.74-14.09-7.99-6.605.638-12.1 3.466-12.1 6.228 0 1.22.206 2.426.459 2.678.968.969 24.691.124 25.731-.916zm-10.19-10.682c9.753-.025 10.5-.167 10.5-1.987 0-3.387-6.005-6.543-12.398-6.518-6.988.027-14.102 2.993-14.102 5.88 0 2.198 2.865 4.305 4.478 3.292.562-.352 5.747-.653 11.522-.667zm9.019-51.79c2.56-4.198 2.545-9.75-.035-13.03-4.653-5.915-15.864-6.028-21.674-.218-3.838 3.838-4.126 6.487-1.31 12.01 1.779 3.49 2 5.898 2 21.81v17.887l5.75-.596c3.162-.328 7.325-.24 9.25.194l3.5.79.272-17.805c.24-15.671.51-18.193 2.247-21.042zm-38.923-45.002c-3.586-1.843-6.173-5.887-6.811-10.649-.564-4.203-.503-4.305 7.073-11.735l7.642-7.494V157.084l-4.92-3.61c-6.786-4.983-10.862-9.881-11.631-13.98-.934-4.975 2.996-12.898 9.908-19.978l5.643-5.78V91.72l-6.368-6.652c-9.603-10.033-10.684-13.314-5.882-17.842 7.46-7.033 25.838-12.07 37.84-10.37 9.208 1.304 18.15 4.552 23.66 8.594 7.568 5.552 6.585 10.055-4.5 20.602l-4.75 4.52V114.146l5.37 5.802c6.91 7.463 10.048 13.808 9.362 18.927-.662 4.933-3.43 8.583-10.242 13.509l-5.49 3.97v27.44l5.031 4.244c8.537 7.198 10.697 12.632 7.489 18.837-4.093 7.915-11.582 9.18-20.95 3.539-4.852-2.922-6.764-3.5-11.569-3.5-4.016 0-6.151.475-7.062 1.573-3.818 4.6-13.73 6.79-18.843 4.162zm35.249-24.393c.36-7.512.655-18.268.655-23.903V154.11l-3.15-1.097c-4.01-1.399-8.69-1.399-12.701 0l-3.15 1.097v47.805H186.686l.655-13.658zm3.919-44.223c1.945-1.972-4.103-6.823-9.522-7.635-4.915-.737-12.314.874-14.992 3.264-1.63 1.455-2.33 4.339-1.302 5.367.247.247 5.878.406 12.514.353 8.231-.065 12.458-.494 13.302-1.349zm-17.403-10.174c2.952-.68 6.17-.67 9.96.03 4.653.86 5.855.777 7.121-.49 2-1.999.573-4.39-4.017-6.734-7.345-3.749-21.925-.679-21.925 4.617 0 3.618 1.923 4.177 8.861 2.577zm6.639-14.394c.55.152 2.462.528 4.25.837l3.25.562V103.1c0-15.79.222-18.2 2-21.686 2.68-5.256 2.519-8.73-.574-12.405-5.185-6.163-15.47-6.206-21.584-.091-3.34 3.339-3.517 5.912-.82 11.855 1.732 3.817 1.978 6.56 1.978 22.07v17.712l5.25-.683c2.887-.375 5.7-.558 6.25-.407z" fill="#7f7f7f"/><path d="M59.758 444.88c-22.223-3.741-42.51-18.685-52.19-38.443C-.08 390.824.496 405.729.496 222.914v-163.5l2.342-7.5c4.019-12.872 8.698-20.638 18.108-30.058C30.43 12.363 39.71 6.836 53.022 2.752L60.495.459l113-.32C249.783-.075 289.14.169 294.637.89c25.784 3.387 46.574 18.194 56.896 40.524 6.838 14.793 6.464 4.226 6.444 181.697-.02 179.867.5 167.337-7.617 183.781-3.812 7.723-6.192 10.991-12.848 17.647-6.947 6.948-9.727 8.924-18.593 13.217-17.777 8.608-10.216 8.174-140.132 8.04-62.86-.065-116.424-.476-119.029-.915zm233.237-3c28.686-3.717 51.277-22.84 59.619-50.466 1.708-5.66 1.83-14.829 2.15-161.5.23-105.235-.004-158.48-.721-164.721-1.91-16.606-7.871-29.023-19.564-40.746-8.144-8.165-16.731-13.477-27.984-17.309l-8-2.724h-239l-8 2.823c-12.008 4.238-18.12 8.146-27.54 17.603C15.299 33.533 11.157 39.965 6.7 51.638l-2.205 5.776-.268 162.768c-.296 180.325-.686 168.875 6.238 183.204 9.92 20.53 31.08 35.488 54.53 38.548 8.563 1.117 219.345 1.068 228-.054zm-140.107-53.406c-3.498-1.978-5.71-5.559-6.505-10.533-.651-4.074-.586-4.184 6.977-11.747l7.635-7.635V332.25l-4.97-3.221c-7.746-5.019-11.03-9.6-11.03-15.384 0-6.215 2.688-11.42 9.566-18.521l5.434-5.61v-22.159l-6.45-6.392c-10.195-10.105-10.912-14.641-3.156-19.978 6.258-4.305 13.266-6.823 22.8-8.19 7.022-1.007 9.509-.945 16.09.406 8.927 1.831 16.775 5.173 21.466 9.14 2.512 2.125 3.25 3.536 3.25 6.213 0 2.917-1.105 4.63-7 10.859l-7 7.395v23.424l5.375 5.635c11.123 11.661 12.408 19.6 4.487 27.705-2.4 2.454-5.825 5.372-7.612 6.483l-3.25 2.02V358.902l7 6.876c6.344 6.232 7 7.25 7 10.859 0 4.543-3.2 10.03-7.03 12.055-3.749 1.982-10.259.888-15.773-2.65-3.982-2.556-5.901-3.127-10.506-3.127-4.702 0-6.369.519-10.087 3.14-5.267 3.712-12.56 4.768-16.711 2.42zm35.875-34.828l.268-23.768-2.583-.982c-3.312-1.26-10.585-1.263-13.888-.007l-2.565.975v46.923l3.25.424c1.787.233 5.95.374 9.25.313l6-.11.268-23.768zm3.422-33.523c3.284-3.284-6.336-8.74-14.09-7.99-6.605.638-12.1 3.466-12.1 6.228 0 1.22.206 2.426.459 2.678.968.969 24.691.124 25.731-.916zm-10.19-10.682c9.753-.025 10.5-.167 10.5-1.987 0-3.387-6.005-6.543-12.398-6.518-6.988.027-14.102 2.993-14.102 5.88 0 2.198 2.865 4.305 4.478 3.292.562-.352 5.747-.653 11.522-.667zm9.019-51.79c2.56-4.198 2.545-9.75-.035-13.03-4.653-5.915-15.864-6.028-21.674-.218-3.838 3.838-4.126 6.487-1.31 12.01 1.779 3.49 2 5.898 2 21.81v17.887l5.75-.596c3.162-.328 7.325-.24 9.25.194l3.5.79.272-17.805c.24-15.671.51-18.193 2.247-21.042zm-38.923-45.002c-3.586-1.843-6.173-5.887-6.811-10.649-.564-4.203-.503-4.305 7.073-11.735l7.642-7.494V157.084l-4.92-3.61c-6.786-4.983-10.862-9.881-11.631-13.98-.934-4.975 2.996-12.898 9.908-19.978l5.643-5.78V91.72l-6.368-6.652c-9.603-10.033-10.684-13.314-5.882-17.842 7.46-7.033 25.838-12.07 37.84-10.37 9.208 1.304 18.15 4.552 23.66 8.594 7.568 5.552 6.585 10.055-4.5 20.602l-4.75 4.52V114.146l5.37 5.802c6.91 7.463 10.048 13.808 9.362 18.927-.662 4.933-3.43 8.583-10.242 13.509l-5.49 3.97v27.44l5.031 4.244c8.537 7.198 10.697 12.632 7.489 18.837-4.093 7.915-11.582 9.18-20.95 3.539-4.852-2.922-6.764-3.5-11.569-3.5-4.016 0-6.151.475-7.062 1.573-3.818 4.6-13.73 6.79-18.843 4.162zm35.249-24.393c.36-7.512.655-18.268.655-23.903V154.11l-3.15-1.097c-4.01-1.399-8.69-1.399-12.701 0l-3.15 1.097v47.805H186.686l.655-13.658zm3.919-44.223c1.945-1.972-4.103-6.823-9.522-7.635-4.915-.737-12.314.874-14.992 3.264-1.63 1.455-2.33 4.339-1.302 5.367.247.247 5.878.406 12.514.353 8.231-.065 12.458-.494 13.302-1.349zm-17.403-10.174c2.952-.68 6.17-.67 9.96.03 4.653.86 5.855.777 7.121-.49 2-1.999.573-4.39-4.017-6.734-7.345-3.749-21.925-.679-21.925 4.617 0 3.618 1.923 4.177 8.861 2.577zm6.639-14.394c.55.152 2.462.528 4.25.837l3.25.562V103.1c0-15.79.222-18.2 2-21.686 2.68-5.256 2.519-8.73-.574-12.405-5.185-6.163-15.47-6.206-21.584-.091-3.34 3.339-3.517 5.912-.82 11.855 1.732 3.817 1.978 6.56 1.978 22.07v17.712l5.25-.683c2.887-.375 5.7-.558 6.25-.407z" fill="#475145"/><path d="M57.547 444.262c-26.662-5.714-48.214-26.117-55.297-52.348-1.64-6.073-1.755-17.194-1.755-169C.495 70.012.6 60.032 2.28 53.945 7.913 33.537 21.555 17.094 40.495 7.884c16.316-7.935 7.676-7.47 139-7.47h117l7.943 2.3c23.896 6.919 42.24 23.97 50.24 46.7l2.817 8v331l-2.725 8c-6.893 20.243-21.94 36.144-41.786 44.16-13.372 5.401-11.963 5.346-134.827 5.258-96.663-.07-114.701-.304-120.61-1.57zm246.431-4.198c24.876-7.602 42.098-24.971 48.733-49.15 1.677-6.113 1.784-16.123 1.784-168 0-180.988.608-165.803-7.291-182-5.599-11.48-17.696-23.247-30.21-29.385-16.236-7.963-9.252-7.578-137.802-7.598C51.55 3.912 57.755 3.593 42.495 10.952 27.853 18.014 17.33 28.362 10.492 42.43 3.626 56.55 4.026 45.421 4.01 223.004c-.015 156.582.034 160.782 1.957 168.3 3.065 11.984 8.22 20.89 17.48 30.198 11.695 11.754 24.555 18.238 40.27 20.307 3.728.49 57.628.813 119.778.717l113-.174 7.483-2.288zm-149.565-51.068c-2.982-1.28-7.14-6.536-7.897-9.985-.906-4.126 1.293-7.856 8.445-14.329l6.034-5.46v-27.145l-3.25-2.08c-16.264-10.405-16.98-20.961-2.375-35.041l4.625-4.459v-23.791l-6.947-7.016c-8.473-8.557-9.52-11.636-5.412-15.923 4.062-4.24 13.585-8.621 22.846-10.51 6.62-1.349 9.228-1.435 15.227-.502 9.653 1.5 17.372 4.315 23.084 8.418 7.496 5.384 7.041 8.994-2.357 18.729l-6.441 6.672v23.525l5.485 6.062c9.205 10.171 11.438 17.087 7.567 23.436-1.928 3.16-11.399 11.317-13.142 11.317-.504 0-.91 6.323-.91 14.174v14.174l7 7.22c7.834 8.079 8.715 11.106 5.003 17.195-4.262 6.99-11.585 7.79-20.361 2.225-6.74-4.274-14.495-4.24-21.464.092-5.238 3.256-11.297 4.488-14.76 3.002zm34.582-35.047c0-22.67-.105-24.02-1.935-25-2.444-1.308-11.123-1.344-14.5-.06l-2.565.975v46.917l2.75.416c1.512.23 5.787.485 9.5.567l6.75.15v-23.965zm3.5-34.958c0-4.228-4.608-6.581-12.824-6.55-8.556.03-13.676 2.214-13.676 5.832 0 1.269.194 2.502.431 2.739.237.237 6.2.41 13.25.385 12.793-.045 12.819-.05 12.819-2.406zm-8.18-9.294l8.819.282-.32-2.782c-.938-8.173-25.506-8.537-26.657-.396-.442 3.128 1.518 4.251 5.838 3.346 1.925-.403 7.469-.606 12.32-.45zm6.93-52.484c6.41-11.721-5.762-21.587-18.829-15.261-5.976 2.893-7.433 6.716-4.905 12.868 1.56 3.795 1.947 7.788 2.23 22.968l.34 18.374 5.707-.598c3.139-.329 7.282-.253 9.207.169l3.5.766.5-18.042c.405-14.63.83-18.649 2.25-21.244zm-39.782-45.096c-3.858-2.429-6.969-9.072-6.02-12.855.384-1.527 3.814-5.796 7.624-9.487l6.928-6.71v-27.1l-2.914-1.507c-4.898-2.533-12.689-10.807-13.367-14.196-1.24-6.2 3.041-14.226 12.154-22.785l3.127-2.937V90.869l-5.57-5.31c-10.369-9.883-11.546-13.58-5.902-18.536 15.72-13.803 47.655-13.549 62.806.5 4.624 4.288 3.202 8.576-5.757 17.357l-5.577 5.465v24.888l5.375 5.635c5.926 6.213 9.625 12.575 9.625 16.556 0 4.933-4.542 10.775-12.75 16.4l-3.25 2.226v27.657l7 7c7.823 7.823 8.728 10.86 5.04 16.908-4.307 7.065-12.717 8.026-20.74 2.371-3.706-2.612-5.266-3.072-10.416-3.072-5.197 0-6.68.446-10.434 3.143-5.607 4.026-12.525 4.865-16.982 2.06zm35.873-22.953c.358-7.013.652-17.824.655-24.025.004-11.184-.017-11.283-2.561-12.25-1.411-.536-4.532-.975-6.935-.975-2.404 0-5.524.439-6.935.975l-2.565.975v48.05H186.686l.65-12.75zm4.475-45.983c.23-1.613-.577-2.76-2.967-4.213-5.11-3.108-10.96-3.58-17.608-1.42-5.2 1.69-5.77 2.157-6.042 4.946l-.3 3.081 13.3-.09c12.939-.086 13.31-.149 13.617-2.304zm-13.316-9.684c1.65-.009 4.8.311 7 .711 5.024.913 6.982-.237 6.137-3.603-.885-3.525-7.822-6.092-14.861-5.5-8.938.753-13.116 3.874-11.35 8.479.488 1.27 1.464 1.405 5.335.741 2.606-.447 6.089-.82 7.739-.828zm9.5-30.373c0-15.316.228-17.737 2-21.21 2.906-5.698 2.63-10.525-.802-13.956-5.408-5.408-16.65-4.862-21.625 1.051-3.092 3.675-3.253 7.15-.573 12.405 1.775 3.481 2 5.897 2 21.461v17.539h19v-17.29z" fill="#0e1f0b"/><path d="M57.547 444.262c-26.662-5.714-48.214-26.117-55.297-52.348-1.64-6.073-1.755-17.194-1.755-169C.495 70.012.6 60.032 2.28 53.945 7.913 33.537 21.555 17.094 40.495 7.884c16.316-7.935 7.676-7.47 139-7.47h117l7.943 2.3c23.896 6.919 42.24 23.97 50.24 46.7l2.817 8v331l-2.725 8c-6.893 20.243-21.94 36.144-41.786 44.16-13.372 5.401-11.963 5.346-134.827 5.258-96.663-.07-114.701-.304-120.61-1.57zm246.431-4.198c24.876-7.602 42.098-24.971 48.733-49.15 1.677-6.113 1.784-16.123 1.784-168 0-180.988.608-165.803-7.291-182-5.599-11.48-17.696-23.247-30.21-29.385-16.236-7.963-9.252-7.578-137.802-7.598C51.55 3.912 57.755 3.593 42.495 10.952 27.853 18.014 17.33 28.362 10.492 42.43 3.626 56.55 4.026 45.421 4.01 223.004c-.015 156.582.034 160.782 1.957 168.3 3.065 11.984 8.22 20.89 17.48 30.198 11.695 11.754 24.555 18.238 40.27 20.307 3.728.49 57.628.813 119.778.717l113-.174 7.483-2.288z"/></svg>