<svg xmlns="http://www.w3.org/2000/svg" width="357.926" height="445.783"><path d="M54.118 443.819c-25.728-6.78-45.952-26.382-52.127-50.523-1.94-7.59-1.985-11.43-1.985-170.394 0-179.567-.436-167.183 6.387-181.55C16.97 19.08 37.867 4.178 63.186.852c5.726-.753 43.549-.994 121.32-.774l113 .32 7.472 2.292c20.808 6.383 37.116 19.63 46.01 37.375 7.553 15.072 7.112 2.996 6.798 186.287l-.28 164-2.875 7.853c-5.409 14.773-17.473 29.367-31.01 37.512-3.076 1.85-9.536 4.776-14.354 6.5l-8.761 3.135-119.5.207c-115.575.2-119.743.143-126.888-1.74zm248.388-4.236c23.172-6.702 41.167-23.799 48.661-46.231l2.339-7 .28-159.5c.313-178.397.684-168.331-6.757-183.5-8.694-17.724-23.524-30.047-43.523-36.165-5.678-1.737-12.403-1.835-125-1.835h-119l-8 2.724c-18.117 6.17-32.097 18.057-39.952 33.971C3.54 58.283 4.04 46.217 4.04 223.352c0 176.223-.436 165.121 7.088 180.5 7.033 14.376 22.325 27.884 38.048 33.609 11.526 4.196 13.193 4.247 132.83 4.048 105.363-.175 114.978-.33 120.5-1.926zm-91.5-42.396c-15.139-2.723-32.959-7.997-44.19-13.079l-7.689-3.479-3.17 2.257c-1.97 1.403-4.843 2.327-7.594 2.441-5.43.226-9.314 2.935-10.87 7.58-1.038 3.096-1.572 3.476-5.275 3.75-3.5.26-4.67-.198-7.766-3.035-3.043-2.79-4.033-4.797-6.005-12.182-1.299-4.863-2.493-8.973-2.653-9.133-.16-.16-2.751.347-5.758 1.127-3.006.78-8.366 1.418-11.91 1.418-11.052 0-18.12-6.052-18.12-15.515 0-3.657.048-3.702 3.25-3.05 1.787.363 9.26.918 16.605 1.232 12.71.543 13.329.48 12.814-1.298-3.398-11.736-6.282-36.064-4.49-37.874 1.295-1.31 6.897.692 8.413 3.006.84 1.28 2.862 8.778 4.495 16.663s3.2 15.083 3.48 15.997c.462 1.5 1.543 1.387 11.222-1.182 17.83-4.732 18.668-5.133 18.979-9.074.148-1.873-.077-5.27-.5-7.55l-.768-4.145-5.162 1.932c-5.092 1.905-5.17 1.999-5.853 6.966-.403 2.927-1.293 5.264-2.126 5.584-5.87 2.253-13.32-22.582-13.346-44.488-.013-10.793.1-11.409 2.546-13.854 2.255-2.256 3.09-2.48 7.027-1.89 6.683 1.003 13.5-.796 40.294-10.633 13.41-4.923 27.18-9.685 30.6-10.582 5.844-1.533 6.502-1.524 10.881.149 8.565 3.27 8.605 7.917.13 15.158-4.436 3.79-5.8 5.706-6.995 9.828-1.6 5.516-3.455 24.767-3.481 36.12l-.017 7 13.404-.346c15.066-.389 23.172 1.113 36.933 6.841 19.657 8.184 24.538 18.81 13.877 30.21-13.559 14.494-47.593 29.579-61.212 27.13zm-56-33.13c0-3.675-.268-4.256-1.75-3.792-19.13 5.99-24.25 7.845-24.25 8.784 0 .62 1.138 3.07 2.53 5.444l2.53 4.317 10.47-5.207 10.47-5.207v-4.34zm54.876 9.95c18.282-6.199 29.928-14.434 31.677-22.4 1.283-5.84-4.32-6.986-22.651-4.635l-8.733 1.12.536 5.196c.819 7.929-4.258 16.271-11.321 18.602-3.957 1.306-6.295.3-9.383-4.036-1.357-1.906-3.013-3.002-4.532-3.002-3.74 0-12.391 3.772-17.861 7.787-4.801 3.524-4.89 3.68-2.543 4.383 1.34.4 9.86.602 18.935.447 15.522-.265 17.055-.47 25.876-3.461zM173.6 361.49c9.544-3.246 15.406-6.38 15.406-8.238 0-1.727.03-1.73-15.25 1.765l-8.75 2.001v3.417c0 1.88.37 3.417.824 3.417.454 0 3.95-1.063 7.77-2.362zm4.656-21.279l10.75-2.85-.014-3.504c-.008-1.928-.294-4.552-.636-5.83-.682-2.546-1.673-2.546-17.1-.001l-6.25 1.031v7.48c0 5.574.318 7.36 1.25 7.003.687-.263 6.087-1.761 12-3.329zm-29-14.412l3.75-1.041V309.887l-4.75 1.76-4.75 1.76-.296 6.722c-.326 7.404-.297 7.431 6.046 5.67zm23.41-7.447c3.168-.825 8.102-1.5 10.964-1.5h5.205l.335-6.62.336-6.621-9.344.687c-5.139.379-9.935.915-10.66 1.193-1.453.558-4.38 14.36-3.045 14.36.248 0 3.043-.674 6.21-1.5zm-23.41-14.061c2.606-.622 2.75-.957 2.75-6.425v-5.769l-4.75.51c-2.613.281-4.91.648-5.106.816-.195.169-.037 3.05.353 6.402.581 5.013 1 6.01 2.355 5.61.906-.269 2.885-.783 4.398-1.144zm33.75-8.318l7.5-.621.507-5.038.508-5.038-12.508 2.377c-6.879 1.308-12.597 2.465-12.706 2.57-.11.107.27 2.043.844 4.304l1.044 4.111 3.655-1.021c2.01-.562 7.03-1.302 11.156-1.644zm-76.5-14.18c-12.746-1.909-18.488-6.117-18.497-13.555-.003-2.948.245-3.148 4.636-3.75 2.552-.35 15.04-.689 27.75-.753 12.71-.064 26.036-.402 29.61-.75l6.5-.633-.293-3c-.197-2.003-1.597-4.163-4.214-6.5l-3.92-3.5 8.806-9.32c4.844-5.126 10.34-11.983 12.214-15.24 1.874-3.255 3.726-5.923 4.115-5.93.39-.005 1.852 1.942 3.25 4.328 4.408 7.52 3.034 16.17-3.871 24.377-2.043 2.428-2.399 3.666-1.913 6.658.648 3.993.076 3.911 8.327 1.184 6.823-2.255 12.685-18.759 10.604-29.855-.348-1.85-2.16-5.905-4.03-9.008l-3.397-5.643 3.517-3.088c1.935-1.699 6.625-5.155 10.424-7.68 7.8-5.187 8.554-5.144 15.407.874 10.728 9.419 8.23 21.165-8.992 42.29-2.901 3.56-3.472 4.728-2.033 4.163 24.414-9.59 49.377-17.61 54.808-17.61 8.29 0 16.692 4.764 16.692 9.464 0 7.909-9.062 10.646-44.5 13.443-14.162 1.117-22.841 3.757-47 14.297-8.8 3.838-20.725 8.836-26.5 11.106l-10.5 4.126-15.5.202c-8.525.111-18.2-.203-21.5-.697zM257.03 179.39c-10.631-5.204-21.779-10.01-24.772-10.68-4.47-1-8.775-.913-24.097.49-10.26.94-22.255 2.352-26.655 3.14-11.773 2.108-25.704 6.365-28.065 8.578-1.135 1.064-2.993 1.935-4.127 1.935-1.135 0-2.624.675-3.308 1.5-4.015 4.837-18.077-2.898-22.196-12.21-2.27-5.13-1.764-7.767 2.982-15.552 2.994-4.911 6.807-15.478 5.909-16.376-.156-.156-3.639 2.47-7.74 5.837-16.124 13.239-33.236 22.645-48.524 26.674-8.156 2.15-16.431 2.81-16.431 1.31 0-.448 3.89-2.788 8.644-5.199 22.512-11.414 48.3-33.047 54.884-46.04 4.767-9.407 5.804-15.92 5.116-32.114l-.624-14.67 3.24-2.735c3.991-3.369 14.46-8.423 17.447-8.424 2.372-.001 6.546 6.021 7.853 11.33.383 1.556 1.366 3.087 2.183 3.4 2.13.818 21.429-3.162 32.947-6.794 5.395-1.7 17.333-6.708 26.529-11.128 13.931-6.695 17.766-8.119 23-8.538 13.447-1.079 29.605 3.657 34.218 10.028 3.843 5.308 1.775 15.542-3.589 17.764-2.44 1.01-5.163.911-15.03-.55-14.774-2.185-30.232-1.663-43.508 1.47l-9.19 2.168-7.656 8.014c-7.222 7.559-10.356 12.615-11.886 19.175l-.662 2.841 6.176-3.34c3.396-1.838 9.665-6.604 13.931-10.591 6.927-6.476 8.18-7.25 11.718-7.25 2.47 0 5.242.86 7.36 2.286 3.361 2.26 3.402 2.379 3.722 10.75.297 7.75-1.22 29.7-2.492 36.059-.523 2.611-.43 2.66 6.319 3.356 10.207 1.05 14.69 2.315 27.35 7.712 13.974 5.957 21.605 11.075 25.236 16.927 3.151 5.077 4.414 12.176 2.875 16.16-.933 2.415-1.59 2.75-5.41 2.75-3.462 0-8.285-1.928-23.677-9.463zm-96.048-36.841l3.946-9.196-9.211-.58c-5.066-.32-10.218-.91-11.45-1.314-2.023-.663-2.188-.465-1.728 2.08.859 4.742 4.462 30.726 4.464 32.192.005 2.63 10.054-14.035 13.979-23.182zm18.931 12.847c7.374-2.996 16.673-6.217 20.665-7.158l7.257-1.71.695-10.198c.705-10.342-.105-14.477-2.838-14.477-.684 0-5.765 1.99-11.291 4.422-5.527 2.432-11.612 4.715-13.523 5.074-3.403.638-3.587.932-8.923 14.216a5631.88 5631.88 0 0 0-5.783 14.426c-.47 1.217-1.003 1.395 13.741-4.595zm-13.993-34.948c4.338-1.076 4.455-1.215 6.785-8.095 1.305-3.85 3.071-9.757 3.926-13.125 1.42-5.59 1.414-6.399-.06-9.25-1.474-2.848-2.046-3.125-6.466-3.125-2.667 0-6.256-.282-7.974-.625l-3.125-.625-.012 6.375c-.016 8.23-1.94 15.302-6.346 23.316-3.061 5.57-3.308 6.489-1.839 6.852 2.156.532 9.403-.282 15.11-1.698z" fill="#e0c5c6"/><path d="M54.118 443.819c-25.728-6.78-45.952-26.382-52.127-50.523-1.94-7.59-1.985-11.43-1.985-170.394 0-179.567-.436-167.183 6.387-181.55C16.97 19.08 37.867 4.178 63.186.852c5.726-.753 43.549-.994 121.32-.774l113 .32 7.472 2.292c20.808 6.383 37.116 19.63 46.01 37.375 7.553 15.072 7.112 2.996 6.798 186.287l-.28 164-2.875 7.853c-5.409 14.773-17.473 29.367-31.01 37.512-3.076 1.85-9.536 4.776-14.354 6.5l-8.761 3.135-119.5.207c-115.575.2-119.743.143-126.888-1.74zm248.388-4.236c23.172-6.702 41.167-23.799 48.661-46.231l2.339-7 .28-159.5c.313-178.397.684-168.331-6.757-183.5-8.694-17.724-23.524-30.047-43.523-36.165-5.678-1.737-12.403-1.835-125-1.835h-119l-8 2.724c-18.117 6.17-32.097 18.057-39.952 33.971C3.54 58.283 4.04 46.217 4.04 223.352c0 176.223-.436 165.121 7.088 180.5 7.033 14.376 22.325 27.884 38.048 33.609 11.526 4.196 13.193 4.247 132.83 4.048 105.363-.175 114.978-.33 120.5-1.926zm-98.473-43.832c-12.061-2.568-32.12-9.079-39.612-12.859l-5.789-2.92-3.318 2.914c-2.591 2.275-3.95 2.787-6.198 2.338-4.518-.904-9.35 1.955-11.64 6.887-1.605 3.454-2.527 4.291-4.97 4.513-3.907.354-8.953-2.815-11.112-6.978-.94-1.812-2.502-6.372-3.472-10.134-.97-3.762-1.913-6.99-2.096-7.173-.183-.183-3.255.348-6.826 1.18-9.554 2.224-17.835 1.455-22.48-2.089-4.13-3.15-6.79-8.38-6.32-12.431.25-2.166.76-2.597 2.806-2.374 5.866.643 30 1.44 30 .992 0-.27-1.15-6.065-2.555-12.878-2.57-12.46-3.605-25.058-2.176-26.49 1.394-1.394 6.13 1.07 8.33 4.337 1.345 1.995 2.961 7.468 4.278 14.486 1.164 6.204 2.575 12.918 3.136 14.92l1.02 3.64 4.233-.916c2.329-.503 9.13-2.329 15.115-4.058l10.882-3.142-.562-7.43c-.309-4.085-.759-7.625-1-7.866-.24-.241-2.635.424-5.32 1.478-4.659 1.829-4.934 2.153-6.04 7.11-1.34 5.999-1.685 6.51-3.848 5.68-2.267-.87-6.041-9.649-8.658-20.139-1.766-7.08-2.254-11.946-2.29-22.833-.044-13.459.02-13.889 2.378-15.8 1.98-1.605 3.351-1.854 7.5-1.36 6.696.797 14.972-1.409 39.577-10.547 25.68-9.539 34.552-12.132 38.787-11.337 4.062.762 9.213 4.878 9.213 7.363 0 1.968-3.618 6.124-8.796 10.105-2.456 1.888-3.66 3.932-4.728 8.018-1.654 6.333-3.455 24.982-3.468 35.894l-.009 7.5 15.75.033c14.566.03 16.389.245 24.25 2.86 11.596 3.857 19.78 8.03 24.235 12.355 9.245 8.98 6.82 17.03-8.569 28.44-8.503 6.304-24.173 14.401-34.166 17.654-9.465 3.082-14.906 3.307-25.473 1.057zm-58.902-22.063l9.875-5.164v-4.404c0-4.095-.158-4.357-2.25-3.742-1.238.363-7.292 2.253-13.454 4.199l-11.203 3.538 2.074 4.118c2.203 4.373 3.757 6.619 4.58 6.619.277 0 4.947-2.324 10.378-5.164zm60.326 1.65c18.055-5.232 29.213-11.311 33.674-18.345 3.075-4.848 3.607-8.009 1.675-9.941-1.509-1.509-10.524-1.539-21.946-.074l-8.782 1.126.583 4.249c.793 5.784-1.014 10.622-5.726 15.334-6.32 6.32-10.917 6.38-14.574.189-2.367-4.007-3.426-4.236-9.662-2.09-6.975 2.4-10.701 4.36-14.736 7.755l-3.282 2.762 2.412.675c1.327.37 9 .72 17.05.774 12.852.088 15.698-.207 23.314-2.414zm-18.701-19.071c2.374-1.542 3.07-4.415 1.07-4.415-.649 0-6.049 1.164-12 2.587l-10.82 2.587v7.74l9.75-3.52c5.362-1.935 10.762-4.176 12-4.98zm-8.5-15.986l10.75-2.87-.016-4.53c-.027-7.949.234-7.877-17.734-4.87l-6.25 1.046v7.504c0 5.581.32 7.387 1.25 7.047.687-.251 6.087-1.749 12-3.327zm-26.25-14.968c1.202-.346 1.434-1.934 1.169-8.003-.232-5.29-.684-7.423-1.5-7.08-.643.27-2.857 1.042-4.92 1.715l-3.75 1.223v13.906l3.75-.664c2.063-.366 4.426-.86 5.25-1.097zm21-6.961c3.025-.812 7.824-1.482 10.664-1.488l5.165-.012.335-6.502c.387-7.497 1.398-7.027-12.597-5.845-6.616.56-7.846.957-8.508 2.75-1.22 3.3-2.213 12.598-1.344 12.585.432-.007 3.26-.676 6.285-1.488zm-24.866-13.659l3.866-1.158V291.89l-4.75.622c-2.613.342-4.91.755-5.106.92-.548.459.98 12.42 1.588 12.42.294 0 2.275-.521 4.402-1.159zm28.365-7.865c2.75-.603 7.025-.97 9.5-.817l4.5.28.59-5.47c.325-3.008.55-5.53.5-5.605-.049-.075-5.976.994-13.17 2.375l-13.082 2.511 1.57 4.366c1.093 3.038 2.03 4.228 3.082 3.912.83-.25 3.76-.948 6.51-1.552zm-71.062-15.396c-10.059-1.889-10.964-2.277-14.376-6.163-3.21-3.656-4.105-8.642-1.811-10.086.687-.433 15.774-1.057 33.526-1.386 18.258-.338 32.69-1.013 33.23-1.552 1.817-1.817-.79-7.759-4.51-10.281l-3.523-2.388 8.932-9.233c4.913-5.079 10.361-11.766 12.109-14.862 1.747-3.096 3.553-5.63 4.013-5.63 2.178 0 5.392 6.653 5.776 11.953.38 5.27.145 5.969-4.216 12.472-3.943 5.88-4.528 7.378-3.992 10.232.345 1.84.915 3.343 1.266 3.343s2.862-.845 5.58-1.878c5.85-2.222 7.746-4.333 10.502-11.7 3.637-9.72 2.379-21.947-3.041-29.559l-2.14-3.005 2.869-3.037c1.578-1.67 6.133-5.253 10.122-7.962 6.377-4.329 7.526-4.784 9.5-3.766 7.99 4.122 12.747 10.75 12.747 17.765 0 5.189-5.36 15.487-13.043 25.061-3.274 4.08-5.793 7.58-5.597 7.775.195.196 8.241-2.567 17.88-6.139 21.509-7.972 33.685-11.561 39.121-11.532 8.12.043 16.684 6.11 15.204 10.77-2.064 6.506-12.301 9.792-34.992 11.234-23.304 1.48-28.572 2.962-62.073 17.453-30.033 12.992-29.631 12.879-47 13.173-9.33.157-17.67-.248-22.063-1.072zM257.03 179.389c-10.631-5.204-21.779-10.01-24.772-10.68-4.47-1-8.775-.913-24.097.49-10.26.94-22.255 2.352-26.655 3.14-11.773 2.108-25.704 6.365-28.065 8.578-1.135 1.064-2.993 1.935-4.127 1.935-1.135 0-2.624.675-3.308 1.5-4.015 4.837-18.077-2.898-22.196-12.21-2.27-5.13-1.764-7.767 2.982-15.552 2.994-4.911 6.807-15.478 5.909-16.376-.156-.156-3.639 2.47-7.74 5.837-16.124 13.239-33.236 22.645-48.524 26.674-8.156 2.15-16.431 2.81-16.431 1.31 0-.448 3.89-2.788 8.644-5.199 22.512-11.414 48.3-33.047 54.884-46.04 4.767-9.407 5.804-15.92 5.116-32.114l-.624-14.67 3.24-2.735c3.991-3.369 14.46-8.423 17.447-8.424 2.372-.001 6.546 6.021 7.853 11.33.383 1.556 1.366 3.087 2.183 3.4 2.13.818 21.429-3.162 32.947-6.794 5.395-1.7 17.333-6.708 26.529-11.128 13.931-6.695 17.766-8.119 23-8.538 13.447-1.079 29.605 3.657 34.218 10.028 3.843 5.308 1.775 15.542-3.589 17.764-2.44 1.01-5.163.911-15.03-.55-14.774-2.185-30.232-1.663-43.508 1.47l-9.19 2.168-7.656 8.014c-7.222 7.559-10.356 12.615-11.886 19.175l-.662 2.841 6.176-3.34c3.396-1.838 9.665-6.604 13.931-10.591 6.927-6.476 8.18-7.25 11.718-7.25 2.47 0 5.242.86 7.36 2.286 3.361 2.26 3.402 2.379 3.722 10.75.297 7.75-1.22 29.7-2.492 36.059-.523 2.611-.43 2.66 6.319 3.356 10.207 1.05 14.69 2.315 27.35 7.712 13.974 5.957 21.605 11.075 25.236 16.927 3.151 5.077 4.414 12.176 2.875 16.16-.933 2.415-1.59 2.75-5.41 2.75-3.462 0-8.285-1.928-23.677-9.463zm-96.048-36.841l3.946-9.196-9.211-.58c-5.066-.32-10.218-.91-11.45-1.314-2.023-.663-2.188-.465-1.728 2.08.859 4.742 4.462 30.726 4.464 32.192.005 2.63 10.054-14.035 13.979-23.182zm18.931 12.847c7.374-2.996 16.673-6.217 20.665-7.158l7.257-1.71.695-10.198c.705-10.342-.105-14.477-2.838-14.477-.684 0-5.765 1.99-11.291 4.422-5.527 2.432-11.612 4.715-13.523 5.074-3.403.638-3.587.932-8.923 14.216a5631.88 5631.88 0 0 0-5.783 14.426c-.47 1.217-1.003 1.395 13.741-4.595zm-13.993-34.948c4.338-1.076 4.455-1.215 6.785-8.095 1.305-3.85 3.071-9.757 3.926-13.125 1.42-5.59 1.414-6.399-.06-9.25-1.474-2.848-2.046-3.125-6.466-3.125-2.667 0-6.256-.282-7.974-.625l-3.125-.625-.012 6.375c-.016 8.23-1.94 15.302-6.346 23.316-3.061 5.57-3.308 6.489-1.839 6.852 2.156.532 9.403-.282 15.11-1.698z" fill="#bebebe"/><path d="M60.506 445.204c-22.597-4.697-40.81-17.124-51.313-35.012-1.666-2.838-4.302-8.463-5.858-12.5l-2.83-7.34v-334l2.68-7.335c8.51-23.3 27.87-40.576 52.59-46.934C61.97.49 71.8.352 179.006.352c107.206 0 117.037.138 123.23 1.73 24.908 6.407 44.125 23.73 52.447 47.28l2.824 7.99.279 163c.31 180.528.666 169.912-6.176 184.101-7.308 15.158-18.587 26.361-34.103 33.873-16.387 7.933-9.002 7.54-139.198 7.41-63.691-.064-116.702-.303-117.802-.532zm242.347-5.57c20.895-6.456 36.193-19.131 44.694-37.032 6.817-14.354 6.53-5.91 6.23-183.272l-.271-159.978-2.958-8.476c-5.998-17.192-18.06-30.843-34.042-38.528-16.4-7.885-9.278-7.498-137.698-7.479-128.59.02-121.607-.366-137.78 7.618-13.052 6.442-23.959 17.197-29.84 29.42-7.685 15.975-7.273 5.041-6.961 184.945l.279 160.5 2.823 7.99c3.79 10.726 8.784 18.755 16.27 26.16 10.058 9.945 23.612 16.878 37.644 19.253 2.912.493 56.846.81 120.763.71 104.24-.162 116.02-.34 120.847-1.832zm-98.82-43.883c-12.061-2.568-32.12-9.079-39.612-12.859l-5.789-2.92-3.318 2.914c-2.591 2.275-3.95 2.787-6.198 2.338-4.518-.904-9.35 1.955-11.64 6.887-1.605 3.454-2.527 4.291-4.97 4.513-3.907.354-8.953-2.815-11.112-6.978-.94-1.812-2.502-6.372-3.472-10.134-.97-3.762-1.913-6.99-2.096-7.173-.183-.183-3.255.348-6.826 1.18-9.554 2.224-17.835 1.455-22.48-2.089-4.13-3.15-6.79-8.38-6.32-12.431.25-2.166.76-2.597 2.806-2.374 5.866.643 30 1.44 30 .992 0-.27-1.15-6.065-2.555-12.878-2.57-12.46-3.605-25.058-2.176-26.49 1.394-1.394 6.13 1.07 8.33 4.337 1.345 1.995 2.961 7.468 4.278 14.486 1.164 6.204 2.575 12.918 3.136 14.92l1.02 3.64 4.233-.916c2.329-.503 9.13-2.329 15.115-4.058l10.882-3.142-.562-7.43c-.309-4.085-.759-7.625-1-7.866-.24-.241-2.635.424-5.32 1.478-4.659 1.829-4.934 2.153-6.04 7.11-1.34 5.999-1.685 6.51-3.848 5.68-2.267-.87-6.041-9.649-8.658-20.139-1.766-7.08-2.254-11.946-2.29-22.833-.044-13.459.02-13.889 2.378-15.8 1.98-1.605 3.351-1.854 7.5-1.36 6.696.797 14.972-1.409 39.577-10.547 25.68-9.539 34.552-12.132 38.787-11.337 4.062.762 9.213 4.878 9.213 7.363 0 1.968-3.618 6.124-8.796 10.105-2.456 1.888-3.66 3.932-4.728 8.018-1.654 6.333-3.455 24.982-3.468 35.894l-.009 7.5 15.75.033c14.566.03 16.389.245 24.25 2.86 11.596 3.857 19.78 8.03 24.235 12.355 9.245 8.98 6.82 17.03-8.569 28.44-8.503 6.304-24.173 14.401-34.166 17.654-9.465 3.082-14.906 3.307-25.473 1.057zm-58.902-22.063l9.875-5.164v-4.404c0-4.095-.158-4.357-2.25-3.742-1.238.363-7.292 2.253-13.454 4.199l-11.203 3.538 2.074 4.118c2.203 4.373 3.757 6.619 4.58 6.619.277 0 4.947-2.324 10.378-5.164zm60.326 1.65c18.055-5.232 29.213-11.311 33.674-18.345 3.075-4.848 3.607-8.009 1.675-9.941-1.509-1.509-10.524-1.539-21.946-.074l-8.782 1.126.583 4.249c.793 5.784-1.014 10.622-5.726 15.334-6.32 6.32-10.917 6.38-14.574.189-2.367-4.007-3.426-4.236-9.662-2.09-6.975 2.4-10.701 4.36-14.736 7.755l-3.282 2.762 2.412.675c1.327.37 9 .72 17.05.774 12.852.088 15.698-.207 23.314-2.414zm-18.701-19.071c2.374-1.542 3.07-4.415 1.07-4.415-.649 0-6.049 1.164-12 2.587l-10.82 2.587v7.74l9.75-3.52c5.362-1.935 10.762-4.176 12-4.98zm-8.5-15.986l10.75-2.87-.016-4.53c-.027-7.949.234-7.877-17.734-4.87l-6.25 1.046v7.504c0 5.581.32 7.387 1.25 7.047.687-.251 6.087-1.749 12-3.327zm-26.25-14.968c1.202-.346 1.434-1.934 1.169-8.003-.232-5.29-.684-7.423-1.5-7.08-.643.27-2.857 1.042-4.92 1.715l-3.75 1.223v13.906l3.75-.664c2.063-.366 4.426-.86 5.25-1.097zm21-6.961c3.025-.812 7.824-1.482 10.664-1.488l5.165-.012.335-6.502c.387-7.497 1.398-7.027-12.597-5.845-6.616.56-7.846.957-8.508 2.75-1.22 3.3-2.213 12.598-1.344 12.585.432-.007 3.26-.676 6.285-1.488zm-24.866-13.659l3.866-1.158V291.89l-4.75.622c-2.613.342-4.91.755-5.106.92-.548.459.98 12.42 1.588 12.42.294 0 2.275-.521 4.402-1.159zm28.365-7.865c2.75-.603 7.025-.97 9.5-.817l4.5.28.59-5.47c.325-3.008.55-5.53.5-5.605-.049-.075-5.976.994-13.17 2.375l-13.082 2.511 1.57 4.366c1.093 3.038 2.03 4.228 3.082 3.912.83-.25 3.76-.948 6.51-1.552zm-71.062-15.396c-10.059-1.889-10.964-2.277-14.376-6.163-3.21-3.656-4.105-8.642-1.811-10.086.687-.433 15.774-1.057 33.526-1.386 18.258-.338 32.69-1.013 33.23-1.552 1.817-1.817-.79-7.759-4.51-10.281l-3.523-2.388 8.932-9.233c4.913-5.079 10.361-11.766 12.109-14.862 1.747-3.096 3.553-5.63 4.013-5.63 2.178 0 5.392 6.653 5.776 11.953.38 5.27.145 5.969-4.216 12.472-3.943 5.88-4.528 7.378-3.992 10.232.345 1.84.915 3.343 1.266 3.343s2.862-.845 5.58-1.878c5.85-2.222 7.746-4.333 10.502-11.7 3.637-9.72 2.379-21.947-3.041-29.559l-2.14-3.005 2.869-3.037c1.578-1.67 6.133-5.253 10.122-7.962 6.377-4.329 7.526-4.784 9.5-3.766 7.99 4.122 12.747 10.75 12.747 17.765 0 5.189-5.36 15.487-13.043 25.061-3.274 4.08-5.793 7.58-5.597 7.775.195.196 8.241-2.567 17.88-6.139 21.509-7.972 33.685-11.561 39.121-11.532 8.12.043 16.684 6.11 15.204 10.77-2.064 6.506-12.301 9.792-34.992 11.234-23.304 1.48-28.572 2.962-62.073 17.453-30.033 12.992-29.631 12.879-47 13.173-9.33.157-17.67-.248-22.063-1.072zm168.563-94.015c-1.925-.71-10.25-4.68-18.5-8.82-22.202-11.14-23.203-11.375-42.261-9.898-29.099 2.255-52.243 6.804-59.222 11.64-1.994 1.382-4.18 2.513-4.856 2.513-.678 0-2.346.73-3.708 1.622-3.268 2.141-7.388 1.267-12.988-2.755-5.736-4.118-9.865-10.133-9.865-14.366 0-2.054 1.367-5.535 3.595-9.158 3.264-5.304 6.805-14.686 6.805-18.032 0-.729-3.263 1.428-7.25 4.794-14.665 12.375-29.46 21.173-43.514 25.874-9.284 3.105-22.247 5.098-22.224 3.415.007-.492 5.107-3.504 11.334-6.693 14.016-7.18 27.194-16.92 39.858-29.462 15.38-15.232 18.57-23.946 17.491-47.794l-.603-13.356 4.557-4.011c5.242-4.615 15.028-8.747 17.35-7.327 1.965 1.202 6.947 10.22 6.977 12.628.022 1.71.588 1.818 6.274 1.2 16.252-1.767 40.491-9.618 56.975-18.454 5.101-2.735 11.957-5.74 15.235-6.68 15.39-4.413 41.235 3.452 41.646 12.673.362 8.148-1.372 12.261-5.909 14.013-1.973.761-5.516.614-13.197-.55-14.956-2.268-28.25-2.029-41.648.75-10.048 2.083-11.638 2.721-16.11 6.466-6.996 5.857-13 14.023-14.822 20.159-.856 2.882-1.321 5.476-1.034 5.764 1.335 1.334 18.042-10.313 24.56-17.12 4.673-4.882 10.912-4.742 16.014.36 1.775 1.775 2.039 3.303 2.031 11.79-.007 8.728-.892 19.931-2.519 31.894l-.563 4.144 7.295.724c10.033.997 18.207 3.645 32.38 10.49 9.784 4.725 12.968 6.819 16.726 10.998 6.37 7.084 8.439 15.058 5.133 19.777-1.791 2.557-5.892 2.84-11.443.788zm-113.301-43.819c2.365-5.364 4.3-9.977 4.3-10.25 0-.273-3.037-.507-6.75-.52-3.712-.014-8.721-.48-11.131-1.035-2.41-.556-4.5-.883-4.643-.726-.143.157.81 7.71 2.117 16.785 1.308 9.075 2.385 17.17 2.393 17.99.027 2.757 9.375-12.404 13.714-22.244zm38.942 5.053l8.14-2.067.7-9.32c.853-11.387.154-15.412-2.679-15.412-1.12 0-6.046 1.804-10.945 4.01-4.898 2.206-10.88 4.538-13.29 5.183l-4.386 1.173-5.936 14.672-5.936 14.672 13.095-5.422c7.203-2.982 16.76-6.352 21.237-7.489zm-33.141-28.22c3.964-1.107 4.028-1.202 7.167-10.706 6.434-19.477 5.625-22.246-6.778-23.224l-7.61-.6-.53 8.225c-.57 8.836-2.998 16.481-7.303 22.986-2.109 3.186-2.372 4.17-1.296 4.842 1.539.961 10.41.135 16.35-1.523z" fill="#c38c8f"/><path d="M60.506 445.204c-22.597-4.697-40.81-17.124-51.313-35.012-1.666-2.838-4.302-8.463-5.858-12.5l-2.83-7.34v-334l2.68-7.335c8.51-23.3 27.87-40.576 52.59-46.934C61.97.49 71.8.352 179.006.352c107.206 0 117.037.138 123.23 1.73 24.908 6.407 44.125 23.73 52.447 47.28l2.824 7.99.279 163c.31 180.528.666 169.912-6.176 184.101-7.308 15.158-18.587 26.361-34.103 33.873-16.387 7.933-9.002 7.54-139.198 7.41-63.691-.064-116.702-.303-117.802-.532zm242.347-5.57c20.895-6.456 36.193-19.131 44.694-37.032 6.817-14.354 6.53-5.91 6.23-183.272l-.271-159.978-2.958-8.476c-5.998-17.192-18.06-30.843-34.042-38.528-16.4-7.885-9.278-7.498-137.698-7.479-128.59.02-121.607-.366-137.78 7.618-13.052 6.442-23.959 17.197-29.84 29.42-7.685 15.975-7.273 5.041-6.961 184.945l.279 160.5 2.823 7.99c3.79 10.726 8.784 18.755 16.27 26.16 10.058 9.945 23.612 16.878 37.644 19.253 2.912.493 56.846.81 120.763.71 104.24-.162 116.02-.34 120.847-1.832zm-175.578-44.265c-4.304-1.871-6.567-5.874-8.768-15.51-1.006-4.404-2.317-7.991-2.915-7.972-.598.02-4.011.678-7.586 1.465-8.733 1.92-13.712 1.818-18.5-.381-5.958-2.736-7.769-5.307-8.306-11.794-.431-5.193-.32-5.587 1.399-4.928 7.121 2.733 30.411 2.942 30.403.273-.002-.644-1.117-6.795-2.477-13.67-2.534-12.811-3.231-23.442-1.603-24.448 1.515-.937 5.88 1.203 7.45 3.653.81 1.262 2.902 9.27 4.65 17.795 1.747 8.525 3.358 15.687 3.58 15.915.505.523 23.512-5.517 27.754-7.286l3.15-1.313-.33-7.658c-.214-4.998-.735-7.658-1.5-7.657-.643 0-3.42.853-6.17 1.895-4.84 1.834-5.018 2.042-5.546 6.495-1.54 12.985-7.448 5.354-12.03-15.539-3.587-16.353-3.732-32.902-.32-36.315 1.026-1.025 3.566-1.478 8.191-1.46 8.5.03 14.318-1.541 37.205-10.055 34.61-12.874 39.375-13.92 45.75-10.033 2.527 1.54 3.25 2.662 3.25 5.042 0 3.095-.983 4.357-8.228 10.562-5.463 4.68-7.686 15.724-7.742 38.472l-.03 12.566 15.25-.016c14.616-.015 15.665.122 25.25 3.303 22.74 7.549 30.173 14.35 28.049 25.67-2.075 11.063-37.96 32.32-57.635 34.142-9.812.909-36.52-5.83-52.783-13.317l-7.368-3.392-2.958 2.49c-2.066 1.738-4.157 2.489-6.932 2.489-5.855 0-9.473 2.305-11.771 7.502-2.207 4.988-4.018 5.543-9.833 3.015zm18.23-21.805l10-5.212.308-4.25c.258-3.562.015-4.241-1.5-4.194-3.056.094-25.67 7.53-26.01 8.553-.39 1.17 5.347 10.406 6.43 10.353.425-.021 5.273-2.384 10.773-5.25zm61.7 1.665c16.482-5.207 27.161-11.132 31.93-17.715 3.658-5.049 3.756-9.036.277-11.315-2.368-1.552-3.646-1.586-14.75-.394-6.686.718-12.719 1.52-13.406 1.783-.807.308-1.25 2.588-1.25 6.42 0 3.269-.652 7.204-1.45 8.745-2.276 4.402-8.22 9.099-11.514 9.099-2.916 0-3.625-.493-7.858-5.458-2.565-3.008-3.292-2.98-12.47.48-2.864 1.082-7.44 3.88-10.168 6.222l-4.96 4.256 8.96.627c15.307 1.072 27.441.162 36.659-2.75zm-34.568-12.895c11.304-4.144 16.178-6.645 16.678-8.557.26-.995.276-2.007.034-2.248-.414-.415-13.445 2.243-21.593 4.405-3.535.938-3.75 1.222-3.75 4.956 0 2.18.396 3.962.88 3.962.485 0 3.973-1.133 7.75-2.518zm5.552-21.631l11.683-3.181-.518-5.085c-.284-2.797-.666-5.584-.847-6.193-.237-.798-3.06-.73-10.12.248-14.336 1.984-13.381 1.276-13.381 9.927 0 4.088.337 7.44.75 7.448.412.01 6.007-1.415 12.433-3.164zm-24.999-22.877c-.173-4.09-.483-7.606-.689-7.812-.206-.206-2.426.41-4.935 1.368l-4.56 1.741v14.514l5.25-1.186 5.25-1.186-.316-7.439zm32.066-.662c3.325.441 3.75.253 3.758-1.657.005-1.186.287-4.469.627-7.297l.617-5.141-4.376.37c-20.382 1.727-18.434.642-19.48 10.857l-.659 6.419 7.882-2.025c4.504-1.157 9.487-1.81 11.63-1.526zm-35.937-12.382l3.814-1.06-.689-5.685c-.379-3.127-.829-5.844-1-6.038-.17-.194-2.563-.043-5.317.336l-5.007.689.527 5.164c.874 8.556.809 8.5 7.672 6.594zm32.338-7.626l9.15-.566.682-5.454c.375-2.999.458-5.676.186-5.949-.402-.401-13.11 1.792-24.365 4.205-1.99.427-2.1.775-1.162 3.715a974.25 974.25 0 0 1 1.458 4.608c.282.907 1.173 1.136 2.662.685 1.23-.373 6.356-.933 11.389-1.244zm-70.601-15.388c-10.655-1.194-15.117-2.394-18.347-4.935-3.167-2.491-5.366-8.478-3.805-10.359.82-.987 8.497-1.466 31.84-1.988 16.92-.378 32.038-.96 33.598-1.294 2.646-.566 2.791-.848 2.164-4.192-.445-2.371-1.914-4.66-4.337-6.756l-3.663-3.17 9-9.39c4.95-5.165 10.35-11.73 12-14.591 1.65-2.861 3.344-5.21 3.764-5.221 1.261-.033 4.685 6.24 5.362 9.826.842 4.454-.89 9.86-5.138 16.034-3.325 4.833-4.175 8.168-2.917 11.444.49 1.278 1.43 1.183 6.645-.668 5.979-2.122 6.129-2.268 9.455-9.227 1.86-3.889 3.647-9.326 3.974-12.083.714-6.031-1.45-14.305-5.179-19.8l-2.578-3.799 2.306-2.495c3.746-4.053 15.945-12.252 18.23-12.252 3.117 0 9.043 4.401 11.688 8.681 5.594 9.052 1.595 19.918-14.758 40.1l-2.658 3.28 8.402-3.13c19.744-7.355 33.763-12.14 41.263-14.085 6.967-1.806 8.71-1.925 13.269-.905 7.064 1.581 10.37 4.283 10.37 8.476 0 7.684-9.066 10.649-38.347 12.54-18.985 1.227-25.637 3.19-57.602 16.997-28.334 12.239-31.337 13.153-44.551 13.565-6.05.19-14.803-.082-19.45-.603zm162.95-94.35c-1.925-.712-10.25-4.681-18.5-8.82-22.202-11.141-23.203-11.376-42.261-9.899-29.099 2.255-52.243 6.804-59.222 11.64-1.994 1.382-4.18 2.513-4.856 2.513-.678 0-2.346.73-3.708 1.622-3.268 2.141-7.388 1.267-12.988-2.755-5.736-4.118-9.865-10.133-9.865-14.366 0-2.054 1.367-5.535 3.595-9.158 3.264-5.304 6.805-14.686 6.805-18.032 0-.729-3.263 1.428-7.25 4.794-14.665 12.375-29.46 21.173-43.514 25.874-9.284 3.105-22.247 5.098-22.224 3.415.007-.492 5.107-3.504 11.334-6.693 14.016-7.18 27.194-16.92 39.858-29.462 15.38-15.232 18.57-23.946 17.491-47.794l-.603-13.356 4.557-4.011c5.242-4.615 15.028-8.747 17.35-7.327 1.965 1.202 6.947 10.22 6.977 12.628.022 1.71.588 1.818 6.274 1.2 16.252-1.767 40.491-9.618 56.975-18.454 5.101-2.735 11.957-5.74 15.235-6.68 15.39-4.413 41.235 3.452 41.646 12.673.362 8.148-1.372 12.261-5.909 14.013-1.973.761-5.516.614-13.197-.55-14.956-2.268-28.25-2.029-41.648.75-10.048 2.083-11.638 2.721-16.11 6.466-6.996 5.857-13 14.023-14.822 20.159-.856 2.882-1.321 5.476-1.034 5.764 1.335 1.334 18.042-10.313 24.56-17.12 4.673-4.882 10.912-4.742 16.014.36 1.775 1.775 2.039 3.303 2.031 11.79-.007 8.728-.892 19.931-2.519 31.894l-.563 4.144 7.295.724c10.033.997 18.207 3.645 32.38 10.49 9.784 4.725 12.968 6.819 16.726 10.998 6.37 7.084 8.439 15.058 5.133 19.777-1.791 2.557-5.892 2.84-11.443.788zm-113.301-43.82c2.365-5.364 4.3-9.977 4.3-10.25 0-.273-3.037-.507-6.75-.52-3.712-.014-8.721-.48-11.131-1.035-2.41-.556-4.5-.883-4.643-.726-.143.157.81 7.71 2.117 16.785 1.308 9.075 2.385 17.17 2.393 17.99.027 2.757 9.375-12.404 13.714-22.244zm38.942 5.053l8.14-2.067.7-9.32c.853-11.387.154-15.412-2.679-15.412-1.12 0-6.046 1.804-10.945 4.01-4.898 2.206-10.88 4.538-13.29 5.183l-4.386 1.173-5.936 14.672-5.936 14.672 13.095-5.422c7.203-2.982 16.76-6.352 21.237-7.489zm-33.141-28.22c3.964-1.107 4.028-1.202 7.167-10.706 6.433-19.477 5.625-22.246-6.778-23.224l-7.61-.6-.53 8.225c-.57 8.836-2.998 16.481-7.303 22.986-2.109 3.186-2.372 4.17-1.296 4.842 1.539.961 10.41.135 16.35-1.523z" fill="#7a7a7a"/><path d="M62.506 445.151c-27.857-3.982-50.365-22.508-59.286-48.8l-2.714-8-.268-161.494C-.064 45.017-.5 56.341 7.418 40.314c5.338-10.808 13.703-20.391 23.46-26.877 8.46-5.625 14.42-8.202 24.628-10.652C63.153.95 68.566.865 178.298.86 308.892.85 301.382.415 318.955 9.015c8.71 4.263 11.705 6.382 18 12.733 8.677 8.755 13.946 17.21 17.826 28.604l2.725 8v164c0 153.625-.112 164.404-1.765 170.387-6.836 24.747-25.915 43.456-51.735 50.734-6.118 1.724-13.317 1.84-122.5 1.97-63.8.075-117.35-.056-119-.292zm243.5-6.14c19.588-7.057 34.45-20.069 42.162-36.917 6.116-13.36 5.807-3.862 5.823-178.832.014-156.085-.035-160.283-1.957-167.8-5.175-20.234-20.97-38.038-40.945-46.155-13.34-5.42-14.24-5.457-131.964-5.435-66.81.012-111.275.403-115.517 1.016-14.702 2.125-27.32 8.181-38.359 18.41-7.132 6.608-10.926 11.694-15.299 20.507-6.224 12.544-5.913 3.148-5.93 179.587-.016 178.022-.45 165.92 6.462 179.96 6.978 14.17 17.326 24.328 32.192 31.598 14.536 7.108 7.77 6.787 138.832 6.584l118-.182 6.5-2.342zm-178.73-43.642c-4.305-1.871-6.568-5.874-8.769-15.51-1.006-4.404-2.317-7.991-2.915-7.972-.598.02-4.011.678-7.586 1.465-8.733 1.92-13.712 1.818-18.5-.381-5.958-2.736-7.769-5.307-8.306-11.794-.431-5.193-.32-5.587 1.399-4.928 7.121 2.733 30.411 2.942 30.403.273-.002-.644-1.117-6.795-2.477-13.67-2.534-12.811-3.231-23.442-1.603-24.448 1.515-.937 5.88 1.203 7.45 3.653.81 1.262 2.902 9.27 4.65 17.795 1.747 8.525 3.358 15.687 3.58 15.915.505.523 23.512-5.517 27.754-7.286l3.15-1.313-.33-7.658c-.214-4.998-.735-7.658-1.5-7.657-.643 0-3.42.853-6.17 1.895-4.84 1.834-5.018 2.042-5.546 6.495-1.54 12.985-7.448 5.354-12.03-15.539-3.587-16.353-3.732-32.902-.32-36.315 1.026-1.025 3.566-1.478 8.191-1.46 8.5.03 14.318-1.541 37.205-10.055 34.61-12.874 39.375-13.92 45.75-10.033 2.527 1.54 3.25 2.662 3.25 5.042 0 3.095-.983 4.357-8.228 10.562-5.463 4.68-7.686 15.724-7.742 38.472l-.03 12.566 15.25-.016c14.616-.015 15.665.122 25.25 3.303 22.74 7.549 30.173 14.35 28.049 25.67-2.075 11.063-37.96 32.32-57.635 34.142-9.812.909-36.52-5.83-52.783-13.317l-7.368-3.392-2.958 2.49c-2.066 1.738-4.157 2.489-6.932 2.489-5.855 0-9.473 2.305-11.771 7.502-2.207 4.988-4.018 5.543-9.833 3.015zm18.23-21.805l10-5.212.307-4.25c.258-3.562.015-4.241-1.5-4.194-3.056.094-25.67 7.53-26.01 8.553-.39 1.17 5.347 10.406 6.43 10.353.425-.021 5.273-2.384 10.773-5.25zm61.699 1.665c16.482-5.207 27.161-11.132 31.93-17.715 3.658-5.049 3.756-9.036.277-11.315-2.368-1.552-3.646-1.586-14.75-.394-6.686.718-12.719 1.52-13.406 1.783-.807.308-1.25 2.588-1.25 6.42 0 3.269-.652 7.204-1.45 8.745-2.276 4.402-8.22 9.099-11.514 9.099-2.916 0-3.625-.493-7.858-5.458-2.565-3.008-3.292-2.98-12.47.48-2.864 1.082-7.44 3.88-10.168 6.222l-4.96 4.256 8.96.627c15.307 1.072 27.441.162 36.659-2.75zm-34.568-12.895c11.304-4.144 16.178-6.645 16.678-8.557.26-.995.276-2.007.034-2.248-.414-.415-13.445 2.243-21.593 4.405-3.535.938-3.75 1.222-3.75 4.956 0 2.18.396 3.962.88 3.962.485 0 3.973-1.133 7.75-2.518zm5.552-21.631l11.683-3.181-.518-5.085c-.284-2.797-.666-5.584-.847-6.193-.237-.798-3.06-.73-10.12.248-14.336 1.984-13.381 1.276-13.381 9.927 0 4.088.337 7.44.75 7.448.412.01 6.007-1.415 12.433-3.164zm-24.999-22.877c-.173-4.09-.483-7.606-.689-7.812-.206-.206-2.426.41-4.935 1.368l-4.56 1.741v14.514l5.25-1.186 5.25-1.186-.316-7.439zm32.066-.662c3.325.441 3.75.253 3.758-1.657.005-1.186.287-4.469.627-7.297l.617-5.141-4.376.37c-20.382 1.727-18.434.642-19.48 10.857l-.659 6.419 7.882-2.025c4.504-1.157 9.487-1.81 11.63-1.526zm-35.937-12.382l3.814-1.06-.689-5.685c-.379-3.127-.829-5.844-1-6.038-.17-.194-2.563-.043-5.317.336l-5.007.689.527 5.164c.874 8.556.809 8.5 7.672 6.594zm32.338-7.626l9.15-.566.682-5.454c.375-2.999.458-5.676.186-5.949-.402-.401-13.11 1.792-24.365 4.205-1.99.427-2.1.775-1.162 3.715a974.25 974.25 0 0 1 1.458 4.608c.282.907 1.173 1.136 2.662.685 1.23-.373 6.356-.933 11.389-1.244zm-70.601-15.388c-10.655-1.194-15.117-2.394-18.347-4.935-3.167-2.491-5.366-8.478-3.805-10.359.82-.987 8.497-1.466 31.84-1.988 16.92-.378 32.038-.96 33.598-1.294 2.646-.566 2.791-.848 2.164-4.192-.445-2.371-1.914-4.66-4.337-6.756l-3.663-3.17 9-9.39c4.95-5.165 10.35-11.73 12-14.591 1.65-2.861 3.344-5.21 3.764-5.221 1.261-.033 4.685 6.24 5.362 9.826.842 4.454-.89 9.86-5.138 16.034-3.325 4.833-4.175 8.168-2.917 11.444.49 1.278 1.43 1.183 6.645-.668 5.979-2.122 6.129-2.268 9.455-9.227 1.86-3.889 3.647-9.326 3.974-12.083.714-6.031-1.45-14.305-5.179-19.8l-2.578-3.799 2.306-2.495c3.746-4.053 15.945-12.252 18.23-12.252 3.117 0 9.043 4.401 11.688 8.681 5.594 9.052 1.595 19.918-14.758 40.1l-2.658 3.28 8.402-3.13c19.744-7.355 33.763-12.14 41.263-14.085 6.967-1.806 8.71-1.925 13.269-.905 7.064 1.581 10.37 4.283 10.37 8.476 0 7.684-9.066 10.649-38.347 12.54-18.985 1.227-25.637 3.19-57.602 16.997-28.334 12.239-31.337 13.153-44.551 13.565-6.05.19-14.803-.082-19.45-.603zm165.95-93.575c-.825-.275-9.825-4.5-20-9.389-24.992-12.006-26.05-12.244-46.318-10.426-30.655 2.749-50.485 6.933-57.227 12.076-1.73 1.319-4.114 2.398-5.3 2.398-1.185 0-2.155.45-2.155 1s-1.948 1-4.329 1c-9.146 0-19.51-10.706-18.398-19.004.288-2.147 1.546-5.338 2.795-7.092 3.069-4.31 6.879-13.774 6.908-17.161.023-2.697-.134-2.624-7.226 3.342-9.81 8.254-21.511 15.934-31.752 20.84-11.824 5.666-34.072 11.118-33.971 8.325.015-.413 3.586-2.434 7.935-4.493 13.264-6.277 28.517-17.222 41.301-29.636 9.638-9.36 12.424-12.74 15.27-18.535 4.784-9.74 6.223-20.276 4.627-33.878l-1.182-10.076 2.76-2.942c3.332-3.55 13.696-8.688 17.526-8.69 3.08 0 5.898 3.65 7.91 10.25 1.078 3.54 1.37 3.749 5.234 3.732 12.054-.05 36.263-7.538 55.972-17.31l16.12-7.992 9.566-.45c10.765-.504 18.012.688 25.619 4.214 7.568 3.509 10.007 9.403 7.21 17.428-1.975 5.663-5.503 6.205-22.97 3.532-12.4-1.898-23.144-1.406-37.893 1.734l-10.236 2.18-7.246 7.09c-7.941 7.773-12.016 13.986-13.117 20.003-.652 3.559-.546 3.847 1.175 3.202 4.525-1.699 12.875-7.492 19.89-13.802 4.165-3.746 8.448-6.811 9.517-6.811 4.234 0 9.79 3.117 11.072 6.21 1.215 2.935.658 15.816-1.768 40.89l-.542 5.599 7.861.54c9.19.631 20.068 4.044 32.934 10.331 15.597 7.622 21.428 14.34 21.428 24.69 0 2.937-.54 5.88-1.2 6.54-1.208 1.207-5.015 1.471-7.8.541zm-123.883-29.841c4.15-6.445 11.883-22.442 11.883-24.585 0-.503-2.138-.919-4.75-.923-2.613-.004-7.619-.473-11.125-1.042-3.506-.569-6.567-.842-6.802-.607-.434.434 3.315 29.213 4.36 33.48.662 2.7.555 2.805 6.434-6.323zm29.383-3.65c3.85-1.64 11.05-4.033 16-5.315 10.446-2.708 10.185-2.287 10.381-16.714.09-6.585-.251-9.048-1.415-10.212-1.654-1.654-2.079-1.559-10.966 2.459-2.75 1.243-8.299 3.424-12.33 4.846l-7.33 2.586-5.901 14.5c-3.246 7.975-5.91 14.606-5.92 14.735-.025.3 8.462-3.042 17.48-6.885zm-15.285-33.885c3.623-1.014 3.79-1.277 6.786-10.628 4.105-12.814 4.64-17.196 2.586-21.169l-1.639-3.168h-16.898l.58 2.906c1.374 6.867-5.367 28.959-9.642 31.6-4.165 2.575 9.446 2.918 18.227.46z" fill="#a55357"/><path d="M62.506 445.151c-27.857-3.982-50.365-22.508-59.286-48.8l-2.714-8-.268-161.494C-.064 45.017-.5 56.341 7.418 40.314c5.338-10.808 13.703-20.391 23.46-26.877 8.46-5.625 14.42-8.202 24.628-10.652C63.153.95 68.566.865 178.298.86 308.892.85 301.382.415 318.955 9.015c8.71 4.263 11.705 6.382 18 12.733 8.677 8.755 13.946 17.21 17.826 28.604l2.725 8v164c0 153.625-.112 164.404-1.765 170.387-6.836 24.747-25.915 43.456-51.735 50.734-6.118 1.724-13.317 1.84-122.5 1.97-63.8.075-117.35-.056-119-.292zm243.5-6.14c19.588-7.057 34.45-20.069 42.162-36.917 6.116-13.36 5.807-3.862 5.823-178.832.014-156.085-.035-160.283-1.957-167.8-5.175-20.234-20.97-38.038-40.945-46.155-13.34-5.42-14.24-5.457-131.964-5.435-66.81.012-111.275.403-115.517 1.016-14.702 2.125-27.32 8.181-38.359 18.41-7.132 6.608-10.926 11.694-15.299 20.507-6.224 12.544-5.913 3.148-5.93 179.587-.016 178.022-.45 165.92 6.462 179.96 6.978 14.17 17.326 24.328 32.192 31.598 14.536 7.108 7.77 6.787 138.832 6.584l118-.182 6.5-2.342zm-178.5-44.02c-5.04-3.113-6.458-5.494-8.81-14.8l-2.263-8.951-4.964 1.356c-2.73.745-8.113 1.446-11.963 1.556-11.724.335-18.488-4.765-18.497-13.944l-.004-4.144 4.25 1.038c4.86 1.187 26.223 1.61 27.292.54.39-.39-.472-6.822-1.916-14.295-2.475-12.806-3.351-23.436-2.04-24.747 1.255-1.255 6.551 1.616 7.943 4.306.807 1.561 2.852 9.496 4.544 17.633 1.692 8.138 3.27 14.989 3.506 15.225.614.614 9.324-1.476 20.936-5.025l10.015-3.06-.374-7.664c-.205-4.215-.57-7.872-.812-8.127-.24-.255-3.002.42-6.136 1.5-5.654 1.949-5.703 2-6.362 6.663-.863 6.094-1.585 7.262-3.508 5.666-5.37-4.456-10.647-25.306-10.759-42.508-.1-15.377.467-16.27 10.276-16.196 8.649.065 15.294-1.743 39.039-10.621 32.9-12.302 38.138-13.37 44.644-9.107 4.401 2.883 3.361 6.648-3.48 12.598-5.59 4.862-6.042 5.594-7.617 12.319-1.048 4.479-1.866 13.536-2.19 24.244l-.515 17.095 14.382-.064c15.344-.068 20.716.9 33.882 6.106 17.551 6.94 24.404 15.787 19.53 25.212-6.295 12.173-43.568 32.085-59.99 32.048-9.185-.02-37.277-7.9-50.265-14.099l-6.274-2.994-3.345 2.55c-2.252 1.718-4.62 2.557-7.25 2.566-5.335.02-8.588 1.861-10.602 6-3.22 6.614-5.073 7.356-10.304 4.125zm18.639-21.361l9.86-5.222v-4.845c0-4.157-.248-4.768-1.75-4.298-19.957 6.25-24.89 7.903-25.61 8.59-1.191 1.133 4.333 10.997 6.159 10.997.814 0 5.917-2.35 11.34-5.222zm50.86 4.153c20.237-3.278 40.537-14.224 44.386-23.931 3.157-7.963-1.118-9.918-17.617-8.057-14.625 1.65-13.768 1.122-13.768 8.474 0 5.322-.437 6.885-2.854 10.222-6.124 8.454-11.291 9.491-16.229 3.257-2.92-3.688-3.592-4.048-6.619-3.557-6.81 1.105-22.298 9.988-22.298 12.788 0 .718 5.056 1.092 22.5 1.662 3.3.107 8.925-.278 12.5-.858zm-22.33-16.042c11.468-4.04 14.047-5.42 14.851-7.954.364-1.147.494-2.254.289-2.46-.381-.38-14.306 2.504-21.71 4.498-3.924 1.056-4.1 1.274-4.1 5.065 0 2.18.415 3.962.92 3.962.507 0 4.895-1.4 9.75-3.11zm14.907-26.347c-.302-1.123-.555-3.9-.563-6.17l-.013-4.127-4.75.511c-2.613.281-7.9 1.026-11.75 1.655l-7 1.145-.289 8.092-.288 8.092 12.6-3.578c11.441-3.248 12.55-3.766 12.053-5.62zm-37.7-9.714c2.3-.847 2.354-1.11 1.666-8.102-.391-3.974-.888-7.404-1.105-7.62-.216-.218-2.428.382-4.915 1.332l-4.522 1.727v14.785l3.25-.624c1.787-.343 4.32-1.017 5.626-1.498zm24.124-7.436c3.575-.86 7.908-1.336 9.629-1.06l3.128.503.692-7.014c.38-3.858.547-7.141.37-7.297-.695-.613-21.159 1.418-21.87 2.171-.419.443-1.176 4.1-1.683 8.126-.9 7.14-.87 7.307 1.156 6.728 1.142-.327 5.003-1.297 8.578-2.157zm-23.377-14.683c.235-.234.129-2.965-.236-6.068-.722-6.147-1.188-6.431-8.227-5.023-3.02.604-3.078.721-2.56 5.25 1.094 9.582.806 9.215 6.005 7.65 2.525-.76 4.784-1.574 5.018-1.809zm29.526-6.362l8.65-.582.683-5.467c.375-3.007.485-5.665.243-5.907s-6.242.632-13.333 1.941c-14.04 2.593-13.094 1.864-11.694 9.013.505 2.582.844 2.786 3.679 2.214 1.717-.346 7.015-.892 11.772-1.212zm-70.35-15.429c-14.66-1.552-21.07-4.447-22.64-10.227-1.754-6.461-2.5-6.298 32.039-7.03 17.216-.365 32.362-.953 33.659-1.307 3.604-.984 2.346-6.894-2.31-10.854l-3.527-3 7.653-8c4.21-4.4 9.672-11.108 12.14-14.906 4.222-6.502 4.57-6.795 5.943-5 2.32 3.035 4.245 8.106 4.222 11.124-.028 3.54-2.905 9.877-6.324 13.926-1.891 2.24-2.654 4.277-2.654 7.083 0 2.167.259 4.198.575 4.515.317.317 3.282-.338 6.589-1.455 4.492-1.517 6.5-2.822 7.941-5.159 2.686-4.359 5.895-15.08 5.895-19.699 0-4.71-2.384-11.992-5.586-17.065l-2.385-3.778 5.627-4.584c3.096-2.522 7.6-5.74 10.012-7.154 3.891-2.28 4.717-2.431 7.347-1.342 4.176 1.73 9.686 8.173 10.925 12.774 1.953 7.253-4.163 20.103-15.935 33.476-2.296 2.609-3.726 4.744-3.176 4.744.55 0 5.2-1.611 10.335-3.58 15.203-5.83 37.04-13.113 43.077-14.367 6.774-1.406 12.177-.255 16.713 3.562 5.94 4.998 2.744 10.725-7.698 13.794-3.166.93-11.831 2.131-19.256 2.668-27.198 1.968-33.45 3.54-59.67 15.005-21.296 9.31-32.991 13.86-39.7 15.442-6.596 1.556-17.5 1.7-29.832.394zm165.2-93.577c-.824-.275-9.824-4.5-20-9.389-24.99-12.006-26.048-12.244-46.316-10.426-30.656 2.749-50.486 6.933-57.228 12.076-1.73 1.319-4.114 2.398-5.3 2.398-1.185 0-2.155.45-2.155 1s-1.948 1-4.329 1c-9.146 0-19.51-10.706-18.398-19.004.288-2.147 1.546-5.338 2.795-7.092 3.07-4.31 6.879-13.774 6.908-17.161.023-2.697-.134-2.624-7.226 3.342-9.81 8.254-21.511 15.934-31.752 20.84-11.824 5.666-34.072 11.118-33.971 8.325.015-.413 3.586-2.434 7.935-4.493 13.265-6.277 28.517-17.222 41.301-29.636 9.638-9.36 12.424-12.74 15.27-18.535 4.784-9.74 6.223-20.276 4.627-33.878l-1.182-10.076 2.76-2.942c3.332-3.55 13.696-8.688 17.526-8.69 3.08 0 5.898 3.65 7.91 10.25 1.078 3.54 1.37 3.749 5.234 3.732 12.054-.05 36.263-7.538 55.972-17.31l16.12-7.992 9.566-.45c10.765-.504 18.012.688 25.619 4.214 7.568 3.509 10.007 9.403 7.21 17.428-1.975 5.663-5.503 6.205-22.97 3.532-12.4-1.898-23.144-1.406-37.893 1.734l-10.236 2.18-7.246 7.09c-7.941 7.773-12.016 13.986-13.117 20.003-.652 3.559-.546 3.847 1.175 3.202 4.525-1.699 12.875-7.492 19.89-13.802 4.165-3.746 8.448-6.811 9.517-6.811 4.234 0 9.79 3.117 11.072 6.21 1.215 2.935.658 15.816-1.768 40.89l-.542 5.599 7.861.54c9.19.631 20.068 4.044 32.934 10.331 15.597 7.622 21.428 14.34 21.428 24.69 0 2.937-.54 5.88-1.2 6.54-1.208 1.207-5.015 1.471-7.8.541zm-123.882-29.841c4.15-6.445 11.883-22.442 11.883-24.585 0-.503-2.138-.919-4.75-.923-2.613-.004-7.619-.473-11.125-1.042-3.506-.569-6.567-.842-6.802-.607-.434.434 3.315 29.213 4.36 33.48.662 2.7.555 2.805 6.434-6.323zm29.383-3.65c3.85-1.64 11.05-4.033 16-5.315 10.446-2.708 10.185-2.287 10.381-16.714.09-6.585-.251-9.048-1.415-10.212-1.654-1.654-2.079-1.559-10.966 2.459-2.75 1.243-8.299 3.424-12.33 4.846l-7.33 2.586-5.901 14.5c-3.246 7.975-5.91 14.606-5.92 14.735-.025.3 8.462-3.042 17.48-6.885zm-15.285-33.885c3.623-1.014 3.79-1.277 6.786-10.628 4.105-12.814 4.64-17.196 2.586-21.169l-1.639-3.168h-16.898l.58 2.906c1.374 6.867-5.367 28.959-9.641 31.6-4.166 2.575 9.445 2.918 18.226.46z" fill="#871a1f"/><path d="M59.506 444.368c-14.23-2.706-26.517-8.92-37.006-18.714-11.634-10.866-19.25-24.825-21.487-39.385-.727-4.727-.975-57.74-.785-167.417l.278-160.5 2.724-8C10.155 30.016 25.09 14.24 45.049 6.178 58.72.656 55.358.781 182.306 1.078l117.2.274 7.666 2.617c27.453 9.372 45.662 30.39 49.837 57.524.717 4.661.958 57.96.75 166.359-.34 178.78.388 162.25-7.893 179-3.348 6.772-5.946 10.235-12.781 17.036-9.523 9.476-18.925 15.078-32.107 19.13l-7.472 2.298-115.5.192c-92.615.154-116.887-.072-122.5-1.14zm242.876-4.485c19.075-4.878 36.343-18.493 44.447-35.044 7.727-15.778 7.178-1.879 7.162-181.447-.017-178.203.386-167.036-6.525-181.045-6.583-13.343-17.056-23.672-30.96-30.536-16.134-7.964-6.826-7.46-137.5-7.46-129.75 0-121.113-.435-136.5 6.883-14.42 6.858-25.23 17.365-32.016 31.118-6.922 14.026-6.484 1.834-6.484 180.815 0 179.631-.473 166.827 6.693 181.45 6.074 12.396 20.197 25.796 33.05 31.358 2.616 1.133 7.907 2.893 11.757 3.913 6.618 1.752 13.335 1.857 123.09 1.909 112.294.053 116.341-.01 123.786-1.914zm-27.376-252.468c-1.925-.712-10.774-4.95-19.663-9.42-22.383-11.25-23.536-11.495-45.099-9.606-29.54 2.587-49.632 6.835-57.43 12.141-2.03 1.382-4.116 2.25-4.636 1.928-.52-.321-1.502.086-2.182.905-2.746 3.309-10.523 1.057-16.826-4.873-7.142-6.72-7.777-11.456-2.67-19.924 3.98-6.602 6.827-14.521 6.338-17.637-.296-1.885-1.169-1.421-7.87 4.183-14.213 11.886-29.596 21.04-42.294 25.165-8.5 2.762-19.839 5.018-21.85 4.348-.691-.23 3.68-2.992 9.712-6.136 15.123-7.88 27.933-17.25 40.526-29.637 11.912-11.718 14.923-16.697 17.55-29.024 1.564-7.331 1.472-20.497-.2-28.738-.58-2.86-.215-3.683 2.955-6.672 4.241-4 13.386-8.566 17.157-8.566 2.302 0 3.05.9 5.812 6.995l3.17 6.994 4.5-.016c12.152-.044 36.592-7.684 56.937-17.799l15.437-7.674h11.563c14.547 0 21.779 1.98 27.268 7.47 4.124 4.124 4.829 7.765 2.69 13.902-1.975 5.663-5.503 6.205-22.97 3.532-12.283-1.88-23.14-1.406-38.183 1.668l-10.242 2.093-6.334 6.167c-3.484 3.392-7.584 7.968-9.112 10.168-2.61 3.759-6.462 14.426-5.54 15.347 1.018 1.019 15.093-8.52 21.944-14.873 4.137-3.836 8.089-6.972 8.782-6.969 3.522.016 8.899 2.356 10.714 4.664 1.466 1.863 2.046 4.076 2.046 7.805 0 5.915-2.775 36.189-3.541 38.633-.426 1.361.766 1.69 7.768 2.139 9.41.604 17.155 2.964 30.724 9.362 17.4 8.203 24.049 15.29 24.049 25.636 0 7.34-3.23 9.195-11 6.32zm-122.568-27.567c2.632-3.852 6.686-11.39 9.01-16.75l4.224-9.746-8.465-.74c-4.656-.407-9.981-1.158-11.834-1.67-2.952-.814-3.367-.699-3.367.936 0 3.974 4.789 34.974 5.403 34.974.134 0 2.397-3.152 5.029-7.004zm25.442-3.025c6.684-2.766 16.073-6.07 20.865-7.342 10.225-2.715 10.012-2.363 10.16-16.757.114-10.89-.639-12.381-5.536-10.977-1.639.47-4.529 1.671-6.422 2.67-1.893.997-7.229 3.19-11.858 4.874l-8.417 3.06-5.325 13c-5.92 14.455-6.67 16.5-6.047 16.5.236 0 5.897-2.262 12.58-5.028zm-10.663-35.972c3.655-1.056 3.766-1.24 7.25-12.017 3.841-11.881 4.165-14.607 2.338-19.661l-1.201-3.321h-17.098l-.116 6.87a45.282 45.282 0 0 1-6.959 23.391c-2.363 3.749-2.953 5.439-2.104 6.03 1.436 1.001 12.787.181 17.89-1.292z"/></svg>