<svg xmlns="http://www.w3.org/2000/svg" width="358.496" height="445.808"><path d="M56.484 444.384c-21.05-4.591-39.51-18.79-48.953-37.653-8.164-16.309-7.643-3.024-7.327-186.88l.28-163.5 2.333-6.5c4.117-11.476 8.976-19.014 18.067-28.026C30.439 12.352 39.917 6.707 53.012 2.69L60.484.397l113-.319c77.771-.22 115.594.021 121.32.774 30.492 4.006 54.51 24.866 61.96 53.815 1.593 6.188 1.72 18.713 1.72 168.685 0 182.133.654 166.497-7.672 183.5-5.854 11.952-18.648 24.734-30.828 30.796-17.505 8.713-8.847 8.214-140.91 8.124-92.097-.063-117.85-.354-122.59-1.388zm246-4.805c3.3-.96 9.825-3.61 14.5-5.887 11.999-5.845 23.962-17.796 29.87-29.84 7.622-15.541 7.191-4.07 6.895-183.758l-.265-160.742-2.33-7c-6.954-20.89-23.156-36.95-44.67-44.276l-8-2.724h-239l-8 2.816C30.234 15.648 14.238 31.607 7.2 52.352l-2.715 8-.3 157.5c-.218 113.62.015 159.715.833 165.45 4.172 29.222 27.215 52.405 57.088 57.435 3.035.51 55.281.837 119.88.748 105.745-.146 114.958-.292 120.5-1.906zm-97.592-43.651c-13.468-2.888-26.148-6.778-36.33-11.145l-9.363-4.016-3.73 2.53c-2.427 1.648-4.51 2.336-5.965 1.97-1.23-.308-3.882.127-5.894.968-2.791 1.166-4.12 2.606-5.607 6.073-1.747 4.076-2.286 4.543-5.233 4.54-4.172-.005-9.262-3.082-11.156-6.746-.808-1.562-2.199-5.744-3.091-9.295-.893-3.55-1.795-6.965-2.005-7.589-.277-.823-2.115-.73-6.708.339-8.5 1.978-18.898 1.377-22.482-1.298-3.876-2.894-6.152-6.37-6.813-10.407-.907-5.538.196-6.337 7.01-5.077 6.622 1.224 25.46 1.465 25.46.325 0-.413-1.126-6.286-2.5-13.05-1.376-6.766-2.5-15.427-2.5-19.25 0-6.564.125-6.948 2.277-6.948 3.103 0 6.22 2.352 7.564 5.71.615 1.534 2.478 9.278 4.14 17.209 1.663 7.93 3.135 14.526 3.27 14.657.38.364 17.55-4.241 23.748-6.37l5.5-1.89.298-6.161c.426-8.802-.125-9.39-6.548-6.983-4.654 1.744-5.25 2.293-5.25 4.833 0 1.575-.45 4.052-1.002 5.502-2.467 6.487-7.534-.542-11.68-16.2-2.178-8.221-2.616-12.126-2.708-24.142-.107-14.057-.062-14.374 2.334-16.317 1.978-1.605 3.323-1.862 7.055-1.348 6.614.91 14.486-1.195 40.835-10.917 33.632-12.41 38.428-13.312 44.675-8.398 4.312 3.392 3.388 6.853-3.468 12.985-5.208 4.658-6.157 6.085-7.53 11.33-.865 3.3-1.793 11.175-2.063 17.5-.27 6.325-.67 14.425-.89 18l-.4 6.5 16.172.03c15.05.03 16.759.228 24.67 2.868 23.752 7.926 33.223 17.68 27.579 28.401-4.83 9.177-25.897 23.062-44.079 29.054-12.241 4.034-17.258 4.438-27.592 2.223zm-49.575-31.518c.296-2.21.408-4.151.248-4.311-.375-.375-25.49 7.33-26.197 8.035-.636.637 2.238 6.51 4.383 8.958 1.432 1.633 2.122 1.421 11.276-3.46 9.516-5.076 9.764-5.298 10.29-9.222zm47.933 11.502c10.128-2.59 21.596-7.452 28.583-12.118 7.953-5.311 12.284-13.41 8.951-16.742-1.498-1.499-10.504-1.541-21.732-.103l-8.568 1.098.35 4.94c.467 6.618-.295 9.164-4.012 13.397-3.883 4.422-8.34 6.81-11.316 6.062-1.245-.312-3.47-2.149-4.944-4.081-1.73-2.268-3.516-3.513-5.04-3.513-4.09 0-13.12 4.038-17.944 8.024l-4.645 3.838 2.776.419c1.526.23 8.891.487 16.365.569 10.555.116 15.285-.284 21.176-1.79zm-15.657-20.15c2.28-1.892 1.73-4.205-.859-3.61-1.237.284-6.637 1.495-12 2.69l-9.75 2.174v7.602l10.61-3.851c5.834-2.118 11.234-4.37 12-5.006zm-9.362-15.512l10.746-2.898.004-5.865.004-5.866-5.75.667c-3.162.367-8.337 1.152-11.5 1.745-5.739 1.077-5.75 1.086-5.76 4.699-.007 1.99-.303 5.383-.659 7.537-.516 3.127-.362 3.813.761 3.399.775-.286 6.244-1.824 12.155-3.418zm-28.593-14.541c4.335-1.092 4.512-1.277 3.943-4.125-.328-1.64-.597-4.93-.597-7.31v-4.326l-4.5 1.667-4.5 1.668v6.784c0 3.732.251 6.785.558 6.785.306 0 2.6-.515 5.096-1.143zm23.346-7.357c3.025-.812 7.863-1.482 10.75-1.488l5.25-.012.014-4.25c.008-2.338.303-5.33.656-6.649l.641-2.398-9.748.715c-5.362.394-10.345.945-11.072 1.224-.728.28-1.619 2.836-1.98 5.683-.36 2.846-.878 5.962-1.15 6.925-.597 2.111-.332 2.121 6.64.25zm-24.866-13.659l3.866-1.158v-11.438l-4.75.51c-2.612.281-4.863.602-5.001.713-.458.367 1.026 12.532 1.528 12.532.27 0 2.231-.521 4.357-1.159zm28.68-7.884c3.308-.651 7.853-1.008 10.1-.794 4.08.39 4.086.385 4.1-3.137.008-1.94.267-4.47.577-5.624l.563-2.097-12.827 2.462c-7.055 1.354-12.905 2.527-13.002 2.606-.096.08.337 2.064.963 4.41.683 2.56 1.614 4.085 2.324 3.812.652-.25 3.893-.987 7.201-1.638zm-70.814-15.123c-8.79-1.242-14.414-4.08-16.407-8.28-1.913-4.032-2.043-7.149-.343-8.234.688-.438 15.78-1.067 33.54-1.397 17.758-.33 32.672-1.01 33.142-1.512 1.932-2.061-.092-6.914-4.077-9.774l-3.989-2.863 7.933-8.137c4.363-4.476 10.04-11.4 12.615-15.387 2.576-3.988 4.88-7.25 5.12-7.25 1.02 0 5.337 7.757 5.936 10.666.93 4.512-.973 10.53-4.997 15.802-2.659 3.483-3.473 5.51-3.473 8.647 0 3.097.342 3.968 1.396 3.563.768-.295 3.274-1.098 5.568-1.786 2.295-.687 5.023-2.331 6.064-3.654 2.327-2.959 5.495-11.303 6.435-16.951.845-5.078-1.467-14.04-5.034-19.516-1.336-2.05-2.429-4.122-2.429-4.602 0-1.685 18.517-15.17 20.83-15.17 2.163 0 9.718 6.162 11.827 9.647 5.475 9.043 1.697 20.35-12.395 37.104-2.429 2.887-4.205 5.25-3.947 5.25s6.293-2.203 13.41-4.896c20.472-7.745 35.276-12.287 41.853-12.84 15.227-1.28 23.415 10.064 11.863 16.436-4.653 2.567-18.961 5.296-27.822 5.307-18.411.023-31.298 3.553-62.559 17.136-29.87 12.98-33.155 13.884-49.861 13.733-7.534-.068-16.624-.537-20.199-1.042zm-7.631-117.26c-18.133-4.14-22.078-14.104-8.369-21.135 3.651-1.873 5.415-1.947 31.5-1.323 17.088.41 30.48-2.741 57.933-13.63 22.765-9.028 33.096-11.596 49.067-12.199 14.471-.546 22.883.83 31.26 5.112 14.448 7.385 21.246 20.677 13.975 27.324-7.254 6.632-15.414 6.932-34.987 1.289-7.564-2.181-17.24-4.255-21.5-4.608-10.292-.853-25.953 1.499-48.248 7.247-9.625 2.481-24.475 6.3-33 8.485-17.775 4.557-28.455 5.533-37.631 3.438zm28.631-54.326c-2.923-1.46-3.55-2.356-3.806-5.438-.435-5.229 2.21-6.62 15.977-8.404 15.716-2.036 39.237-6.945 49.765-10.385 4.853-1.586 13.82-5.39 19.927-8.452 12.156-6.097 15.754-6.71 20.912-3.565 10.166 6.198 3.955 14.93-16.304 22.925-29.69 11.715-75.543 18.778-86.47 13.32z" fill="#e0c5c6"/><path d="M56.484 444.384c-21.05-4.591-39.51-18.79-48.953-37.653-8.164-16.309-7.643-3.024-7.327-186.88l.28-163.5 2.333-6.5c4.117-11.476 8.976-19.014 18.067-28.026C30.439 12.352 39.917 6.707 53.012 2.69L60.484.397l113-.319c77.771-.22 115.594.021 121.32.774 30.492 4.006 54.51 24.866 61.96 53.815 1.593 6.188 1.72 18.713 1.72 168.685 0 182.133.654 166.497-7.672 183.5-5.854 11.952-18.648 24.734-30.828 30.796-17.505 8.713-8.847 8.214-140.91 8.124-92.097-.063-117.85-.354-122.59-1.388zm246-4.805c3.3-.96 9.825-3.61 14.5-5.887 11.999-5.845 23.962-17.796 29.87-29.84 7.622-15.541 7.191-4.07 6.895-183.758l-.265-160.742-2.33-7c-6.954-20.89-23.156-36.95-44.67-44.276l-8-2.724h-239l-8 2.816C30.234 15.648 14.238 31.607 7.2 52.352l-2.715 8-.3 157.5c-.218 113.62.015 159.715.833 165.45 4.172 29.222 27.215 52.405 57.088 57.435 3.035.51 55.281.837 119.88.748 105.745-.146 114.958-.292 120.5-1.906zm-99.51-44.163c-12.627-2.79-29.804-8.424-37.854-12.418l-5.864-2.91-3.282 2.569c-2.331 1.825-4.326 2.511-6.886 2.37-4.768-.261-9.383 2.683-11.728 7.483-2.299 4.709-5.803 5.477-10.826 2.373-3.908-2.416-6.817-7.914-8.635-16.327-.69-3.187-1.55-5.98-1.914-6.204-.364-.225-3.1.24-6.081 1.034-15.45 4.112-27.436-.612-29.355-11.568-.933-5.327.137-6.16 6.387-4.975 6.495 1.231 26.048 1.341 26.048.146 0-.474-1.125-6.386-2.5-13.137-2.876-14.124-3.354-26-1.047-26 3.052 0 6.511 2.404 8.013 5.569.86 1.81 2.65 8.637 3.982 15.172 3.824 18.777 3.032 17.157 7.88 16.11 2.295-.496 9.01-2.299 14.922-4.006l10.75-3.104v-6.289c0-9.43-.155-9.617-6.285-7.534-5.094 1.732-5.146 1.792-6.176 7.164-.832 4.34-1.425 5.418-2.98 5.418-4.488 0-11.22-21.482-12.251-39.089-1.013-17.299 1.208-22.076 9.718-20.907 6.505.894 16.59-1.663 37.497-9.505 36.914-13.846 41.138-14.68 47.448-9.37 4.428 3.726 3.888 5.947-2.999 12.32-7.383 6.833-8.781 11.027-9.513 28.55-.275 6.6-.682 14.941-.903 18.535l-.403 6.535 12.986-.405c9.966-.31 14.656-.003 20.173 1.322 15.795 3.794 28.481 10.166 33.866 17.012 3.536 4.496 3.226 11.185-.749 16.159-9.541 11.939-39.685 27.941-55.929 29.69-3.328.36-8.513-.237-15.51-1.783zm-58.027-21.594c9.59-4.926 9.805-5.114 10.448-9.133.36-2.257.437-4.323.169-4.591-.872-.872-26.58 7.781-26.58 8.946 0 1.354 4.851 9.808 5.628 9.808.299 0 4.95-2.264 10.335-5.03zm58.895 2.066c16.338-4.171 30.224-11.405 35.272-18.374 3.594-4.962 3.918-10.195.694-11.218-2.95-.936-9.551-.738-20.324.61l-9 1.126.343 5.414c.28 4.415-.136 6.23-2.254 9.844-2.67 4.557-6.362 7.763-10.372 9.009-1.857.576-3.133-.154-6.836-3.91-3.586-3.637-5.012-4.476-6.717-3.95-7.497 2.313-13.075 4.947-17.284 8.16-4.682 3.575-4.747 3.697-2.348 4.365 1.358.379 8.918.733 16.802.788 11.216.078 16.006-.327 22.024-1.864zm-17.692-19.044c2.916-1.353 4.564-4.992 2.26-4.992-.764 0-6.346 1.162-12.407 2.584l-11.019 2.583V364.816l9.25-3.368c5.088-1.853 10.45-3.925 11.916-4.604zm-8.166-16.292l11.5-3.2-.3-5.75c-.241-4.631-.63-5.749-2-5.743-2.414.01-20.287 2.737-20.643 3.15-.762.882-1.58 14.837-.867 14.793.446-.027 5.985-1.49 12.31-3.25zm-27.64-14.783c3.619-1.005 3.822-1.262 3.25-4.12-.335-1.676-.61-4.989-.61-7.362v-4.314l-4.5 1.533-4.5 1.534v6.906c0 7.57.016 7.584 6.36 5.823zm31.264-8.623l7.123-.564.554-6.105c.304-3.358.374-6.284.154-6.504-.219-.219-5.006.001-10.637.49l-10.24.889-.67 3.5c-.37 1.925-.952 5.393-1.294 7.707l-.624 4.208 4.255-1.53c2.34-.84 7.461-1.782 11.379-2.091zm-33.374-12.347l3.75-1.041v-11.66l-4.75.51c-2.612.28-4.863.6-5.001.712-.525.421 1.065 12.531 1.644 12.526.334-.003 2.295-.474 4.357-1.047zm28.563-7.99c3.309-.651 7.854-1.008 10.102-.794 3.851.367 4.085.238 4.085-2.262 0-1.458.268-3.991.596-5.629l.595-2.977-12.845 2.442c-7.065 1.343-12.924 2.518-13.021 2.611-.096.093.337 2.09.963 4.436.683 2.558 1.614 4.084 2.324 3.811.652-.25 3.893-.987 7.201-1.638zm-69.772-15.076c-8.837-1.331-14.56-4.044-17.01-8.063-2.296-3.767-2.624-7.328-.78-8.485.687-.431 15.992-1.063 34.01-1.403 18.02-.34 33.011-.868 33.315-1.173.304-.304.25-2.171-.121-4.15-.487-2.594-1.746-4.384-4.518-6.422l-3.842-2.826 7.989-7.93c4.394-4.36 9.862-10.854 12.151-14.43 2.29-3.574 4.336-6.724 4.549-7 .852-1.101 5.217 5.289 6.261 9.166 1.345 4.995-.433 10.57-5.476 17.178-2.625 3.438-3.138 4.901-2.784 7.936.239 2.046.818 3.72 1.287 3.72.47 0 3.255-.898 6.19-1.996 4.637-1.735 5.643-2.62 7.672-6.75 2.668-5.432 5.037-13.55 5.055-17.322.018-4.092-2.756-12.31-5.544-16.417l-2.564-3.78 2.81-2.95c1.545-1.623 6.103-5.158 10.128-7.857 7.297-4.892 7.33-4.902 10.5-3.303 11.227 5.661 14.562 15.62 9.021 26.934-1.463 2.988-5.736 9.485-9.496 14.437-3.76 4.953-6.656 9.005-6.435 9.005.22 0 8.9-3.1 19.288-6.89 21.983-8.018 32.46-11.11 37.65-11.11 7.12 0 15.653 5.171 15.653 9.487 0 1.176-1.243 3.33-2.764 4.787-5.16 4.944-11.52 6.254-41.979 8.648-14.524 1.142-23.434 3.912-50.257 15.625-31.806 13.889-31.325 13.75-48.5 14.047-8.25.144-17.906-.177-21.459-.713zm-8.672-117.307c-18.133-4.14-22.078-14.104-8.369-21.135 3.651-1.873 5.415-1.947 31.5-1.323 17.088.41 30.48-2.741 57.933-13.63 22.765-9.028 33.096-11.596 49.067-12.199 14.471-.546 22.883.83 31.26 5.112 14.448 7.385 21.246 20.677 13.975 27.324-7.254 6.632-15.414 6.932-34.987 1.289-7.564-2.181-17.24-4.255-21.5-4.608-10.292-.853-25.953 1.499-48.248 7.247-9.625 2.481-24.475 6.3-33 8.485-17.775 4.557-28.455 5.533-37.631 3.438zm28.631-54.326c-2.923-1.46-3.55-2.356-3.806-5.438-.435-5.229 2.21-6.62 15.977-8.404 15.716-2.036 39.237-6.945 49.765-10.385 4.853-1.586 13.82-5.39 19.927-8.452 12.156-6.097 15.754-6.71 20.912-3.565 10.166 6.198 3.955 14.93-16.304 22.925-29.69 11.715-75.543 18.778-86.47 13.32z" fill="#bebebe"/><path d="M54.984 443.817c-21.277-5.528-38.799-19.592-48.082-38.594-7.298-14.938-6.88-3.9-6.9-182.461C-.015 67.36.047 61.928 1.914 54.626 7.151 34.151 21.125 17.22 40.484 7.895c16.68-8.035 7.691-7.543 138-7.543 131.525 0 123.331-.48 140.813 8.255 7.558 3.777 10.798 6.2 18.27 13.668 7.375 7.37 9.864 10.674 13.245 17.577 8.326 17.003 7.672 1.366 7.672 183.5 0 153.497-.095 162.34-1.816 168.5-6.86 24.547-24.94 42.967-50.684 51.638-5.217 1.757-11.622 1.863-124.5 2.064-115.092.205-119.246.148-126.5-1.737zm241-3.03c15.486-2.501 27.662-8.664 38.467-19.469 7.986-7.986 12.483-15.033 16.354-25.631l2.68-7.335.267-161.73c.233-140.518.071-162.682-1.23-169-3.928-19.049-17.476-36.26-35.538-45.142-16.22-7.978-9.228-7.591-137.802-7.61-125.675-.02-121.033-.23-135.044 6.084C29.281 17.65 18.61 27.88 11.385 42.352 3.506 58.138 3.904 47.83 4.24 227.415c.327 175.238-.182 161.513 6.515 175.705 9.203 19.502 28.751 33.954 50.994 37.699 7.393 1.245 226.516 1.215 234.236-.032zm-93.01-45.37c-12.627-2.79-29.804-8.425-37.854-12.42l-5.864-2.909-3.282 2.569c-2.331 1.825-4.326 2.511-6.886 2.37-4.768-.261-9.383 2.683-11.728 7.483-2.299 4.709-5.803 5.477-10.826 2.373-3.908-2.416-6.817-7.914-8.635-16.327-.69-3.187-1.55-5.98-1.914-6.204-.364-.225-3.1.24-6.081 1.034-15.45 4.112-27.436-.612-29.355-11.568-.933-5.327.137-6.16 6.387-4.975 6.495 1.231 26.048 1.341 26.048.146 0-.474-1.125-6.386-2.5-13.137-2.876-14.124-3.354-26-1.047-26 3.052 0 6.511 2.404 8.013 5.569.86 1.81 2.65 8.637 3.982 15.172 3.824 18.777 3.032 17.157 7.88 16.11 2.295-.496 9.01-2.299 14.922-4.006l10.75-3.104v-6.289c0-9.43-.155-9.617-6.285-7.534-5.094 1.732-5.146 1.792-6.176 7.164-.832 4.34-1.425 5.418-2.98 5.418-4.488 0-11.22-21.482-12.251-39.089-1.013-17.299 1.208-22.076 9.718-20.907 6.505.894 16.59-1.663 37.497-9.505 36.914-13.846 41.138-14.68 47.448-9.37 4.428 3.726 3.888 5.947-2.999 12.32-7.383 6.833-8.781 11.027-9.513 28.55-.275 6.6-.682 14.941-.903 18.535l-.403 6.535 12.986-.405c9.966-.31 14.656-.003 20.173 1.322 15.795 3.794 28.481 10.166 33.866 17.012 3.536 4.496 3.226 11.185-.749 16.159-9.541 11.939-39.685 27.941-55.929 29.69-3.328.36-8.513-.237-15.51-1.783zm-58.027-21.595c9.59-4.926 9.805-5.114 10.448-9.133.36-2.257.437-4.323.169-4.591-.872-.872-26.58 7.781-26.58 8.946 0 1.354 4.851 9.808 5.628 9.808.299 0 4.95-2.264 10.335-5.03zm58.895 2.066c16.338-4.171 30.224-11.405 35.272-18.374 3.594-4.962 3.918-10.195.694-11.218-2.95-.936-9.551-.738-20.324.61l-9 1.126.343 5.414c.28 4.415-.136 6.23-2.254 9.844-2.67 4.557-6.362 7.763-10.372 9.009-1.857.576-3.133-.154-6.836-3.91-3.586-3.637-5.012-4.476-6.717-3.95-7.497 2.313-13.075 4.947-17.284 8.16-4.682 3.575-4.747 3.697-2.348 4.365 1.358.379 8.918.733 16.802.788 11.216.078 16.006-.327 22.024-1.864zm-17.692-19.044c2.916-1.353 4.564-4.992 2.26-4.992-.764 0-6.346 1.162-12.407 2.584l-11.019 2.583V364.816l9.25-3.368c5.088-1.853 10.45-3.925 11.916-4.604zm-8.166-16.292l11.5-3.2-.3-5.75c-.241-4.631-.63-5.749-2-5.743-2.414.01-20.287 2.737-20.643 3.15-.762.882-1.58 14.837-.867 14.793.446-.027 5.985-1.49 12.31-3.25zm-27.64-14.783c3.619-1.005 3.822-1.262 3.25-4.12-.335-1.676-.61-4.989-.61-7.362v-4.314l-4.5 1.533-4.5 1.534v6.906c0 7.57.016 7.584 6.36 5.823zm31.264-8.623l7.123-.564.554-6.105c.304-3.358.374-6.284.154-6.504-.219-.219-5.006.001-10.637.49l-10.24.889-.67 3.5c-.37 1.925-.952 5.393-1.294 7.707l-.624 4.208 4.255-1.53c2.34-.84 7.461-1.782 11.379-2.091zm-33.374-12.347l3.75-1.041v-11.66l-4.75.51c-2.612.28-4.863.6-5.001.712-.525.421 1.065 12.531 1.644 12.526.334-.003 2.295-.474 4.357-1.047zm28.563-7.99c3.309-.651 7.854-1.008 10.102-.794 3.851.367 4.085.238 4.085-2.262 0-1.458.268-3.991.596-5.629l.595-2.977-12.845 2.442c-7.065 1.343-12.924 2.518-13.021 2.611-.096.093.337 2.09.963 4.436.683 2.558 1.614 4.084 2.324 3.811.652-.25 3.893-.987 7.201-1.638zm-69.772-15.076c-8.837-1.331-14.56-4.044-17.01-8.063-2.296-3.767-2.624-7.328-.78-8.485.687-.431 15.992-1.063 34.01-1.403 18.02-.34 33.011-.868 33.315-1.173.304-.304.25-2.171-.121-4.15-.487-2.594-1.746-4.384-4.518-6.422l-3.842-2.826 7.989-7.93c4.394-4.36 9.862-10.854 12.151-14.43 2.29-3.574 4.336-6.724 4.549-7 .852-1.101 5.217 5.289 6.261 9.166 1.345 4.995-.433 10.57-5.476 17.178-2.625 3.438-3.138 4.901-2.784 7.936.239 2.046.818 3.72 1.287 3.72.47 0 3.255-.898 6.19-1.996 4.637-1.735 5.643-2.62 7.672-6.75 2.668-5.432 5.037-13.55 5.055-17.322.018-4.092-2.756-12.31-5.544-16.417l-2.564-3.78 2.81-2.95c1.545-1.623 6.103-5.158 10.128-7.857 7.297-4.892 7.33-4.902 10.5-3.303 11.227 5.661 14.562 15.62 9.021 26.934-1.463 2.988-5.736 9.485-9.496 14.437-3.76 4.953-6.656 9.005-6.435 9.005.22 0 8.9-3.1 19.288-6.89 21.983-8.018 32.46-11.11 37.65-11.11 7.12 0 15.653 5.171 15.653 9.487 0 1.176-1.243 3.33-2.764 4.787-5.16 4.944-11.52 6.254-41.979 8.648-14.524 1.142-23.434 3.912-50.257 15.625-31.806 13.889-31.325 13.75-48.5 14.047-8.25.144-17.906-.177-21.459-.713zm-6.77-116.935c-5.558-1.097-13.176-4.51-16.008-7.17-5.353-5.028-.787-12.405 9.537-15.406 4.392-1.277 7.082-1.436 12.64-.746 10.74 1.332 26.096.896 35.56-1.01 8.589-1.73 28.557-8.297 46-15.128 15.47-6.06 26.9-8.627 41-9.213 13.83-.574 21.218.7 30.678 5.29 6.148 2.984 15.855 13.03 16.815 17.403 1.018 4.637-2.073 9.956-7.4 12.735-6.37 3.323-13.366 3.036-27.751-1.135-6.513-1.889-14.962-3.975-18.775-4.635-13.916-2.41-31.675.368-71.449 11.174-31.964 8.684-40.165 9.95-50.848 7.84zm28.105-53.966c-4.054-1.262-5.597-3.212-5.198-6.57.543-4.565 4.287-6.356 16.685-7.98C168.74 92.5 194.44 85.45 210.878 76.797c5.167-2.72 10.499-4.944 11.85-4.944 6.44 0 12.925 6.09 11.24 10.554-1.07 2.84-7.13 7.98-12.77 10.834-10.206 5.164-31.231 11.593-51.214 15.66-11.723 2.386-36.476 3.535-41.624 1.932z" fill="#c38c8f"/><path d="M54.984 443.817c-21.277-5.528-38.799-19.592-48.082-38.594-7.298-14.938-6.88-3.9-6.9-182.461C-.015 67.36.047 61.928 1.914 54.626 7.151 34.151 21.125 17.22 40.484 7.895c16.68-8.035 7.691-7.543 138-7.543 131.525 0 123.331-.48 140.813 8.255 7.558 3.777 10.798 6.2 18.27 13.668 7.375 7.37 9.864 10.674 13.245 17.577 8.326 17.003 7.672 1.366 7.672 183.5 0 153.497-.095 162.34-1.816 168.5-6.86 24.547-24.94 42.967-50.684 51.638-5.217 1.757-11.622 1.863-124.5 2.064-115.092.205-119.246.148-126.5-1.737zm241-3.03c15.486-2.501 27.662-8.664 38.467-19.469 7.986-7.986 12.483-15.033 16.354-25.631l2.68-7.335.267-161.73c.233-140.518.071-162.682-1.23-169-3.928-19.049-17.476-36.26-35.538-45.142-16.22-7.978-9.228-7.591-137.802-7.61-125.675-.02-121.033-.23-135.044 6.084C29.281 17.65 18.61 27.88 11.385 42.352 3.506 58.138 3.904 47.83 4.24 227.415c.327 175.238-.182 161.513 6.515 175.705 9.203 19.502 28.751 33.954 50.994 37.699 7.393 1.245 226.516 1.215 234.236-.032zM127.283 395.25c-4.358-2.18-5.838-4.762-8.333-14.538-1.174-4.599-2.27-8.498-2.437-8.665-.166-.167-4.013.449-8.549 1.368-16.818 3.408-26.98-1.723-26.98-13.622 0-3.53.261-4.056 1.73-3.492 3.79 1.454 18.144 2.652 24.37 2.033l6.598-.656-2.376-11.664c-2.734-13.417-3.836-25.085-2.546-26.952 1.247-1.805 5.66-.003 7.73 3.157.885 1.35 3.06 9.358 4.831 17.794l3.222 15.338 3.47-.27c3.826-.297 19.542-4.606 24.774-6.792l3.323-1.389-.693-7.275c-.381-4-.82-7.422-.975-7.603-.155-.18-2.791.462-5.858 1.429-5.18 1.633-5.617 2.012-6.145 5.329-1.055 6.612-1.489 8.07-2.402 8.07-5.317 0-12.219-24.967-12.36-44.707-.1-14.3.55-15.268 10.202-15.177 8.48.08 14.865-1.61 35.701-9.45 28.831-10.846 35.945-12.964 41.7-12.41 3.944.378 5.613 1.1 7.432 3.214 3.186 3.704 2.349 5.866-4.853 12.53-5.567 5.153-6.036 5.944-7.419 12.5-.812 3.85-1.764 14.465-2.116 23.588l-.64 16.586 14.9-.078c16.72-.088 24.133 1.449 38.069 7.887 12.401 5.73 16.316 9.932 16.321 17.518.004 5.85-2.441 9.75-9.694 15.468-15.65 12.335-38.799 22.532-51.155 22.532-9.77 0-40.338-8.52-52.277-14.57l-4.743-2.403-2.955 2.486c-2.183 1.837-4.122 2.487-7.425 2.487-5.332 0-9.03 2.518-11.534 7.855-1.997 4.255-4.964 5.017-9.908 2.544zm18.775-21.65l9.896-5.25.015-4.718c.011-3.34-.35-4.594-1.235-4.293-.687.234-6.986 2.269-13.998 4.521l-12.749 4.095 1.647 3.198c2.62 5.085 4.504 7.698 5.555 7.698.536 0 5.427-2.363 10.87-5.25zm50.583 4.236c12.989-2.108 31.76-9.9 38.854-16.129 4.28-3.758 7.822-10.232 7.006-12.806-1.16-3.654-5.782-4.495-17.377-3.16-16.095 1.851-15.037 1.249-14.837 8.452.198 7.138-2.449 12.556-7.698 15.757-5.021 3.062-7.95 2.488-11.966-2.345l-3.526-4.246-6.963 2.37c-4.275 1.456-9.218 4.156-12.806 6.996l-5.844 4.626 9 .56c15.499.967 19.817.954 26.157-.075zm-20.546-16.67c5.643-2.027 11.077-4.502 12.075-5.5 2.06-2.06 2.458-5.272.564-4.557-.687.26-5.975 1.482-11.75 2.717s-10.782 2.534-11.128 2.885c-1.15 1.17-2 8.14-.992 8.14.534 0 5.588-1.659 11.23-3.685zm13.281-29.79c-.361-3.314-.71-6.09-.774-6.168-.224-.271-20.036 2.64-21.822 3.208-1.524.483-1.796 1.742-1.796 8.312v7.742l12.525-3.534 12.524-3.535-.657-6.025zm-35.954-13.333c-.035-3.933-.3-7.388-.588-7.676-.624-.624-6.816 1.357-8.6 2.751-1.238.968-1.832 12.817-.7 13.95.303.302 2.666.005 5.25-.662l4.7-1.213-.062-7.15zm22.562.154c3.575-.834 7.91-1.29 9.633-1.013 2.954.474 3.167.294 3.739-3.165.334-2.018.611-5.3.617-7.295l.011-3.628-4.25.357c-17.834 1.495-17.542 1.435-18.125 3.76-.307 1.221-.869 4.865-1.249 8.097-.647 5.507-.57 5.83 1.217 5.14 1.05-.405 4.832-1.419 8.407-2.253zm-27.25-13.283l4.25-1.14v-5.962c0-6.606-.094-6.668-8.057-5.35l-3.558.588.735 5.15c.404 2.833.767 5.965.807 6.96.04.995.411 1.603.823 1.351.413-.252 2.663-.97 5-1.597zm33.399-7.74l8.648-.558.602-3.008c.33-1.654.601-4.35.601-5.99 0-2.586-.3-2.913-2.25-2.452-1.237.293-6.3 1.25-11.25 2.126-14.807 2.622-13.472 1.81-11.72 7.133 1.391 4.225 1.73 4.55 4.118 3.955 1.431-.356 6.494-.899 11.25-1.206zm-70.515-15.42c-16.634-1.754-23.056-5.433-22.432-12.85l.298-3.553 29.5-.678c16.225-.373 31.413-.963 33.75-1.311 3.935-.587 4.25-.86 4.25-3.688 0-2.316-1.024-3.991-4.238-6.929l-4.24-3.875 8.645-8.76c4.754-4.817 10.294-11.375 12.31-14.573 3.189-5.056 3.872-5.642 5.25-4.5 2.275 1.888 4.273 7.177 4.273 11.314 0 4.515-2.112 9.592-6.073 14.592-2.7 3.408-3.015 4.426-2.436 7.854l.666 3.938 6.172-2.192c6.05-2.149 6.238-2.329 9.549-9.096 5.822-11.9 5.334-22.36-1.518-32.551l-2.323-3.455 2.144-2.283c3.467-3.69 16.478-12.307 18.583-12.307 3.49 0 10.287 5.86 12.438 10.723 3.767 8.516.529 17.583-11.889 33.287-3.703 4.683-5.746 7.97-4.688 7.544 12.178-4.908 41.029-14.95 47.902-16.675 7.692-1.929 9.377-2.053 13.387-.986 12.426 3.307 14.328 11.48 3.752 16.123-5.732 2.517-13.583 3.75-31.166 4.897-19.21 1.253-25.508 3.088-57.23 16.678-13.623 5.837-28.104 11.467-32.18 12.51-7.902 2.025-18.411 2.285-32.456.803zm-11.364-116.957c-5.557-1.097-13.175-4.51-16.007-7.17-5.353-5.028-.787-12.405 9.537-15.406 4.392-1.277 7.082-1.436 12.64-.746 10.74 1.332 26.096.896 35.56-1.01 8.589-1.73 28.557-8.297 46-15.128 15.47-6.06 26.9-8.627 41-9.213 13.83-.574 21.218.7 30.678 5.29 6.148 2.984 15.855 13.03 16.815 17.403 1.018 4.637-2.073 9.956-7.4 12.735-6.37 3.323-13.366 3.036-27.751-1.135-6.513-1.889-14.962-3.975-18.775-4.635-13.916-2.41-31.675.368-71.449 11.174-31.964 8.684-40.165 9.95-50.848 7.84zm28.106-53.966c-4.054-1.262-5.597-3.212-5.198-6.57.543-4.565 4.287-6.356 16.685-7.98C168.74 92.5 194.44 85.45 210.878 76.797c5.167-2.72 10.499-4.944 11.85-4.944 6.44 0 12.925 6.09 11.24 10.554-1.07 2.84-7.13 7.98-12.77 10.834-10.206 5.164-31.231 11.593-51.214 15.66-11.723 2.386-36.476 3.535-41.624 1.932z" fill="#7b7b7b"/><path d="M59.484 444.403c-27.876-5.162-49.55-24.715-57.162-51.568-1.75-6.172-1.838-14.3-1.838-169.483 0-181.934-.54-167.766 6.972-183 7.13-14.46 17.347-24.356 33.028-31.996C56.566.523 50.475.852 179.377.852c97.239 0 115.536.223 121.513 1.48 25.438 5.35 45.128 22.573 53.77 47.03l2.824 7.99.268 162.73c.298 181.492.701 170.369-6.707 185.27-7.567 15.221-17.593 25.224-32.56 32.483-16.512 8.009-6.06 7.42-136 7.655-91.47.165-117.48-.065-123-1.087zm242.877-4.52c23.963-6.128 43.566-25.242 50.287-49.031 1.747-6.185 1.836-14.31 1.836-167.5 0-180.305.593-165.473-7.251-181.5-5.414-11.062-18.671-24.095-30.249-29.737-16.931-8.251-6.86-7.64-132-8.019-77.17-.234-114.075 0-119.865.762C37.633 8.47 14.7 27.116 6.702 52.352l-2.218 7v328l2.318 7c7.466 22.553 25.562 39.24 49.294 45.455 7.094 1.857 11.996 1.937 122.978 1.99 111.798.053 115.843-.01 123.287-1.914zm-175.078-44.632c-4.358-2.18-5.838-4.762-8.333-14.538-1.174-4.599-2.27-8.498-2.437-8.665-.166-.167-4.013.449-8.549 1.368-16.818 3.408-26.98-1.723-26.98-13.622 0-3.53.261-4.056 1.73-3.492 3.79 1.454 18.144 2.652 24.37 2.033l6.598-.656-2.376-11.664c-2.734-13.417-3.836-25.085-2.546-26.952 1.247-1.805 5.66-.003 7.73 3.157.885 1.35 3.06 9.358 4.831 17.794l3.222 15.338 3.47-.27c3.826-.297 19.542-4.606 24.774-6.792l3.323-1.389-.693-7.275c-.381-4-.82-7.422-.975-7.603-.155-.18-2.791.462-5.858 1.429-5.18 1.633-5.617 2.012-6.145 5.329-1.055 6.612-1.489 8.07-2.402 8.07-5.317 0-12.219-24.967-12.36-44.707-.1-14.3.55-15.268 10.202-15.177 8.48.08 14.865-1.61 35.701-9.45 28.831-10.846 35.945-12.964 41.7-12.41 3.944.378 5.613 1.1 7.432 3.214 3.186 3.704 2.349 5.866-4.853 12.53-5.567 5.153-6.036 5.944-7.419 12.5-.812 3.85-1.764 14.465-2.116 23.588l-.64 16.586 14.9-.078c16.72-.088 24.133 1.449 38.069 7.887 12.401 5.73 16.316 9.932 16.321 17.518.004 5.85-2.441 9.75-9.694 15.468-15.65 12.335-38.799 22.532-51.155 22.532-9.77 0-40.338-8.52-52.277-14.57l-4.743-2.403-2.955 2.486c-2.183 1.837-4.122 2.487-7.425 2.487-5.332 0-9.03 2.518-11.534 7.855-1.997 4.255-4.964 5.017-9.908 2.544zm18.775-21.65l9.896-5.25.015-4.718c.011-3.34-.35-4.594-1.235-4.293-.687.234-6.986 2.269-13.998 4.521l-12.749 4.095 1.647 3.198c2.62 5.085 4.504 7.698 5.555 7.698.536 0 5.427-2.363 10.87-5.25zm50.583 4.236c12.989-2.108 31.76-9.9 38.854-16.129 4.28-3.758 7.822-10.232 7.006-12.806-1.16-3.654-5.782-4.495-17.377-3.16-16.095 1.851-15.037 1.249-14.837 8.452.198 7.138-2.449 12.556-7.698 15.757-5.021 3.062-7.95 2.488-11.966-2.345l-3.526-4.246-6.963 2.37c-4.275 1.456-9.218 4.156-12.806 6.996l-5.844 4.626 9 .56c15.499.967 19.817.954 26.157-.075zm-20.546-16.67c5.643-2.027 11.077-4.502 12.075-5.5 2.06-2.06 2.458-5.272.564-4.557-.687.26-5.975 1.482-11.75 2.717s-10.782 2.534-11.128 2.885c-1.15 1.17-2 8.14-.992 8.14.534 0 5.588-1.659 11.23-3.685zm13.281-29.79c-.361-3.314-.71-6.09-.774-6.168-.224-.271-20.036 2.64-21.822 3.208-1.524.483-1.796 1.742-1.796 8.312v7.742l12.525-3.534 12.524-3.535-.657-6.025zm-35.954-13.333c-.035-3.933-.3-7.388-.588-7.676-.624-.624-6.816 1.357-8.6 2.751-1.238.968-1.832 12.817-.7 13.95.303.302 2.666.005 5.25-.662l4.7-1.213-.062-7.15zm22.562.154c3.575-.834 7.91-1.29 9.633-1.013 2.954.474 3.167.294 3.739-3.165.334-2.018.611-5.3.617-7.295l.011-3.628-4.25.357c-17.834 1.495-17.542 1.435-18.125 3.76-.307 1.221-.869 4.865-1.249 8.097-.647 5.507-.57 5.83 1.217 5.14 1.05-.405 4.832-1.419 8.407-2.253zm-27.25-13.283l4.25-1.14v-5.962c0-6.606-.094-6.668-8.057-5.35l-3.558.588.735 5.15c.404 2.833.767 5.965.807 6.96.04.995.411 1.603.823 1.351.413-.252 2.663-.97 5-1.597zm33.399-7.74l8.648-.558.602-3.008c.33-1.654.601-4.35.601-5.99 0-2.586-.3-2.913-2.25-2.452-1.237.293-6.3 1.25-11.25 2.126-14.807 2.622-13.472 1.81-11.72 7.133 1.391 4.225 1.73 4.55 4.118 3.955 1.431-.356 6.494-.899 11.25-1.206zm-70.515-15.42c-16.634-1.754-23.056-5.433-22.432-12.85l.298-3.553 29.5-.678c16.225-.373 31.413-.963 33.75-1.311 3.935-.587 4.25-.86 4.25-3.688 0-2.316-1.024-3.991-4.238-6.929l-4.24-3.875 8.645-8.76c4.754-4.817 10.294-11.375 12.31-14.573 3.189-5.056 3.872-5.642 5.25-4.5 2.275 1.888 4.273 7.177 4.273 11.314 0 4.515-2.112 9.592-6.073 14.592-2.7 3.408-3.015 4.426-2.436 7.854l.666 3.938 6.172-2.192c6.05-2.149 6.238-2.329 9.549-9.096 5.822-11.9 5.334-22.36-1.518-32.551l-2.323-3.455 2.144-2.283c3.467-3.69 16.478-12.307 18.583-12.307 3.49 0 10.287 5.86 12.438 10.723 3.767 8.516.529 17.583-11.889 33.287-3.703 4.683-5.746 7.97-4.688 7.544 12.178-4.908 41.029-14.95 47.902-16.675 7.692-1.929 9.377-2.053 13.387-.986 12.426 3.307 14.328 11.48 3.752 16.123-5.732 2.517-13.583 3.75-31.166 4.897-19.21 1.253-25.508 3.088-57.23 16.678-13.623 5.837-28.104 11.467-32.18 12.51-7.902 2.025-18.411 2.285-32.456.803zM93.52 162.496c-14.027-4.914-15.593-13.361-3.444-18.587 4.932-2.122 5.988-2.194 22.293-1.532 13.684.556 18.978.371 26.405-.921 10.083-1.755 26.762-6.851 38.386-11.729 22.644-9.502 38.34-13.274 55.324-13.295 17-.02 26.966 3.2 36.177 11.69 5.249 4.838 7.323 8.445 7.323 12.73 0 7.955-6.662 12.559-17.975 12.421-4.509-.054-10.387-1.251-19.025-3.873-10.2-3.096-14.545-3.886-23.615-4.292-16.178-.723-25.816 1.12-74.885 14.32-14.157 3.81-18.923 4.652-28.5 5.04-10.327.42-12.21.218-18.464-1.972zm37.464-51.507c-7.472-1.636-9.54-4.39-6.939-9.25 1.447-2.702 4.931-3.863 14.94-4.974 11.539-1.28 37.71-6.564 47.5-9.59 4.4-1.36 14.108-5.402 21.574-8.983 12.944-6.208 13.76-6.461 17.543-5.442 9.038 2.433 10.97 8.532 4.544 14.338-8.64 7.806-35.902 17.12-65.168 22.266-9.929 1.745-29.246 2.675-33.994 1.635z" fill="#a55357"/><path d="M59.484 444.403c-27.876-5.162-49.55-24.715-57.162-51.568-1.75-6.172-1.838-14.3-1.838-169.483 0-181.934-.54-167.766 6.972-183 7.13-14.46 17.347-24.356 33.028-31.996C56.566.523 50.475.852 179.377.852c97.239 0 115.536.223 121.513 1.48 25.438 5.35 45.128 22.573 53.77 47.03l2.824 7.99.268 162.73c.298 181.492.701 170.369-6.707 185.27-7.567 15.221-17.593 25.224-32.56 32.483-16.512 8.009-6.06 7.42-136 7.655-91.47.165-117.48-.065-123-1.087zm242.877-4.52c23.963-6.128 43.566-25.242 50.287-49.031 1.747-6.185 1.836-14.31 1.836-167.5 0-180.305.593-165.473-7.251-181.5-5.414-11.062-18.671-24.095-30.249-29.737-16.931-8.251-6.86-7.64-132-8.019-77.17-.234-114.075 0-119.865.762C37.633 8.47 14.7 27.116 6.702 52.352l-2.218 7v328l2.318 7c7.466 22.553 25.562 39.24 49.294 45.455 7.094 1.857 11.996 1.937 122.978 1.99 111.798.053 115.843-.01 123.287-1.914zM128.056 395.1c-4.887-2.491-6.754-5.581-9.257-15.314l-2.203-8.567-7.556 1.809c-9.505 2.275-13.514 2.26-18.556-.066-6.057-2.796-8.709-6.23-9.263-11.998l-.476-4.953 4.37 1.069c4.398 1.076 27.285 1.703 28.185.772.266-.275-.577-5.675-1.872-12-2.928-14.29-3.875-22.146-3.06-25.39.579-2.308.865-2.42 3.675-1.44 1.676.584 3.68 2.029 4.454 3.21.774 1.18 2.805 8.89 4.515 17.133 1.709 8.243 3.498 15.385 3.975 15.872 1.013 1.034 6.303-.133 20.815-4.592l10.318-3.17-.69-7.562c-.379-4.159-.873-7.762-1.097-8.008-.225-.246-2.863.387-5.863 1.407-5.018 1.706-5.5 2.14-6.033 5.447-.32 1.976-1.042 4.716-1.607 6.088l-1.026 2.496-2.374-2.76c-7.112-8.268-12.981-47.686-8.19-55 1.571-2.396 2.256-2.595 8.973-2.608 9.298-.017 13.834-1.275 41.51-11.509 31.317-11.58 34.223-12.237 40.281-9.104 6.6 3.413 5.942 7.079-2.543 14.171-3.49 2.917-4.904 4.996-6 8.818-2.003 6.984-3.459 21.082-3.468 33.598l-.008 10.598 15.25-.072c15.108-.072 15.351-.038 26.192 3.689 19.897 6.84 27.557 12.948 27.557 21.975 0 4.451-.41 5.266-5.195 10.325-12.148 12.845-41.72 27.405-55.606 27.379-9.97-.02-37.406-7.659-50.588-14.086l-6.505-3.172-3.13 2.633c-2.23 1.878-4.27 2.634-7.102 2.634-5.567 0-9.585 2.373-11.409 6.739-2.377 5.688-3.96 6.28-9.393 3.51zm27.928-31.268v-4.872l-5.25 1.546c-2.887.851-9.075 2.77-13.75 4.265-9.6 3.07-9.788 3.458-5.206 10.755l2.62 4.174 10.793-5.498 10.793-5.498v-4.872zm51.5 11.523c17.912-5.192 29.96-12.63 33.897-20.927 2.173-4.58 1.803-6.607-1.55-8.49-2.297-1.288-4.244-1.308-14.993-.154-6.795.73-12.966 1.56-13.715 1.847-.96.367-1.208 1.669-.84 4.406.788 5.881-1.05 10.83-5.782 15.561-5.732 5.732-9.127 5.796-13.517.254-3.775-4.767-5.27-4.9-13.793-1.218-5.915 2.554-15.085 8.858-15.169 10.427-.05.948 14.064 1.593 26.462 1.21 7.065-.217 12.642-1.074 19-2.916zm-31.769-13.89c11.014-4.007 14.27-5.982 14.27-8.655 0-1.551-.503-1.885-2.25-1.499-15.756 3.484-21.353 4.865-21.88 5.401-.345.352-.928 2.327-1.295 4.39-.83 4.667-.688 4.672 11.155.363zm13.994-24.004c.22-.22.095-3.085-.277-6.368l-.675-5.97-4.636.498c-2.55.274-7.787 1.013-11.637 1.642l-7 1.145-.287 8.064-.288 8.065 12.2-3.339c6.71-1.836 12.38-3.518 12.6-3.737zm-39.372-11.186l3.853-.684-.369-7.303c-.203-4.016-.689-7.622-1.08-8.013-.392-.392-2.747.065-5.234 1.015l-4.523 1.727v7.485c0 6.657.194 7.428 1.75 6.97.963-.282 3.484-.821 5.603-1.197zm25.647-8.077c3.575-.834 7.914-1.29 9.642-1.012 2.853.459 3.196.226 3.75-2.54.334-1.674.608-4.938.608-7.252v-4.207l-5.75.363c-3.162.2-8.07.602-10.906.893-5.777.593-5.756.56-6.968 10.868-.647 5.507-.57 5.83 1.217 5.14 1.05-.405 4.832-1.419 8.407-2.253zm-23.25-14.335c.138-.006.25-2.711.25-6.011 0-5.942-.027-6-2.875-6-6.145 0-8.83 1.055-8.51 3.343.166 1.186.569 4.266.895 6.843l.594 4.687 4.698-1.426c2.584-.784 4.811-1.43 4.948-1.436zm29.399-6.688l8.648-.558.602-3.008c.831-4.157.753-8.758-.149-8.754-.82.003-20.415 3.686-23.938 4.499-2.147.495-2.159.59-.624 5.094 1.436 4.216 1.777 4.536 4.188 3.937 1.443-.358 6.516-.903 11.273-1.21zm-70.35-15.34c-11.4-1.303-15.783-2.768-19.554-6.539-2.702-2.701-3.313-4.032-3.06-6.66l.315-3.284 30-.675c34.525-.777 38.821-1.188 38.094-3.643a98.594 98.594 0 0 1-1.095-4.197c-.329-1.383-2.147-3.576-4.042-4.875l-3.446-2.36 8.381-8.807c4.61-4.844 10.043-11.542 12.073-14.886 2.031-3.343 4.114-5.818 4.628-5.5 1.908 1.18 4.907 8.478 4.907 11.943 0 3.888-2.89 10.346-6.636 14.826-2.366 2.83-2.836 5.31-1.764 9.305l.572 2.132 6.35-2.065 6.351-2.065 3.163-6.86c5.458-11.844 5.095-22.446-1.105-32.222l-2.801-4.416 4.185-3.4c6.2-5.035 14.968-10.735 16.512-10.735 2.108 0 8.718 5.121 11.104 8.604 5.829 8.506 2.607 18.442-11.77 36.311-2.84 3.529-5.013 6.566-4.83 6.75.184.183 6.903-2.11 14.932-5.094 36.04-13.397 44.215-15.065 52.536-10.723 6.867 3.582 7.443 8.643 1.45 12.736-4.394 3-16.445 5.233-34.422 6.377-19.085 1.215-25.693 3.126-56.327 16.294-30.348 13.046-32.96 13.856-46 14.263-6.05.19-14.465-.052-18.701-.535zM93.52 162.495c-14.027-4.914-15.593-13.361-3.444-18.587 4.932-2.122 5.988-2.194 22.293-1.532 13.684.556 18.978.371 26.405-.921 10.083-1.755 26.762-6.851 38.386-11.729 22.644-9.502 38.34-13.274 55.324-13.295 17-.02 26.966 3.2 36.177 11.69 5.249 4.838 7.323 8.445 7.323 12.73 0 7.955-6.662 12.559-17.975 12.421-4.509-.054-10.387-1.251-19.025-3.873-10.2-3.096-14.545-3.886-23.615-4.292-16.178-.723-25.816 1.12-74.885 14.32-14.157 3.81-18.923 4.652-28.5 5.04-10.327.42-12.21.218-18.464-1.972zm37.464-51.507c-7.472-1.636-9.54-4.39-6.939-9.25 1.447-2.702 4.931-3.863 14.94-4.974 11.539-1.28 37.71-6.564 47.5-9.59 4.4-1.36 14.108-5.402 21.574-8.983 12.944-6.208 13.76-6.461 17.543-5.442 9.038 2.433 10.97 8.532 4.544 14.338-8.64 7.806-35.902 17.12-65.168 22.266-9.929 1.745-29.246 2.675-33.994 1.635z" fill="#871a1f"/><path d="M61.815 444.829c-29.072-4.906-52.098-25.383-59.57-52.977-1.647-6.08-1.76-16.986-1.76-168.5 0-132.398.245-163.005 1.346-167.5.74-3.025 3.388-9.775 5.883-15 3.845-8.054 5.848-10.808 13.153-18.09 9.466-9.437 16.947-14.134 29.617-18.594l8-2.816h240l7.5 2.342c20.954 6.542 36.963 20.13 45.546 38.658 6.907 14.91 6.547 4.293 6.235 184l-.28 162-2.824 8c-3.942 11.17-7.934 17.712-15.962 26.163-7.775 8.186-15.882 13.696-26.192 17.803-13.857 5.52-12.64 5.47-134.023 5.381-61.6-.045-114.1-.437-116.669-.87zm240.701-4.985c13.514-3.457 21.78-8.224 31.995-18.453 6.87-6.88 9.913-10.83 12.74-16.54 7.791-15.726 7.167-1.09 7.512-176 .215-109.141-.022-159.023-.784-164.84-3.003-22.912-16.26-41.8-36.222-51.603-17.626-8.657-7.286-8.056-138.773-8.056h-116.5L54.53 6.655c-12.86 3.723-20.95 8.51-30.665 18.147-8.718 8.648-12.458 14.506-17.269 27.045l-2.112 5.505-.28 162.5c-.315 182.142-.79 169.627 7.04 185.287 8.088 16.17 25.4 29.832 43.97 34.698 6.942 1.819 12.51 1.907 123.36 1.96 113.07.053 116.295.003 123.942-1.953zM97.72 163.824c-8.079-2.033-15.735-7.397-15.735-11.026 0-2.38 3.626-6.685 7.339-8.714 2.729-1.492 6.309-1.734 26.161-1.771 22.46-.042 23.27-.116 34.5-3.12 6.325-1.693 19.6-6.253 29.5-10.134 28.207-11.057 46.325-14.675 62.227-12.426 18.569 2.626 32.763 12.513 34.024 23.698.458 4.064.195 4.776-2.92 7.89-3.511 3.511-8.92 5.615-14.46 5.625-1.723.003-9.373-1.842-17-4.101-11.666-3.455-15.728-4.189-25.557-4.621-17.328-.762-23.99.512-78.314 14.98-15.99 4.26-31.758 5.734-39.765 3.72zm33.31-53.065c-5.7-1.117-8.535-3.818-7.661-7.298.905-3.608 4.94-5.351 15.23-6.58 11.631-1.39 28.464-4.543 40.686-7.621 11.848-2.984 22.277-7.025 33.905-13.138l8.705-4.577 4.547 1.737c4.673 1.785 7.543 4.72 7.543 7.716 0 7.87-25.417 19.247-58.539 26.203-20.053 4.21-34.984 5.407-44.416 3.558z"/></svg>