<svg xmlns="http://www.w3.org/2000/svg" width="358.754" height="445.795"><path d="M54.86 443.82c-20.737-5.388-37.31-18.443-46.928-36.965-8.154-15.706-7.47-.137-7.832-178-.228-111.74.003-160.992.782-166.947C5.09 29.762 30.53 5.277 64.361.813c5.334-.703 45.49-.95 120.5-.74 112.463.313 112.502.314 120.287 2.516 23.737 6.715 42.393 24.027 50.397 46.766l2.816 8 .267 162.73c.297 180.238.64 170.063-6.224 184.516-8.736 18.396-24.396 31.769-45.543 38.892-5.218 1.758-11.633 1.864-125 2.064-115.587.205-119.746.148-127-1.737zm241-3.03c8.575-1.385 18.839-5.01 25.81-9.114 9.006-5.304 20.067-17.003 24.883-26.321 8.487-16.42 7.808-.593 7.808-182 0-180.331.593-165.501-7.265-181.5-5.647-11.497-17.753-23.262-30.235-29.385-16.233-7.961-9.31-7.578-137.303-7.598-127.086-.02-120.941-.336-136.197 7.022-14.647 7.063-25.164 17.41-32.01 31.489-6.945 14.287-6.554 2.875-6.258 182.704l.268 162.268 3.16 8.195c9.095 23.586 29.263 40.09 54.103 44.272 7.393 1.245 225.517 1.215 233.237-.032zm-93-45.385c-13.62-3.064-25.59-6.901-35.246-11.298l-7.748-3.528-3.752 2.542c-2.621 1.775-4.658 2.408-6.753 2.098-4.06-.601-8.78 2.493-11.124 7.295-2.246 4.599-6.026 5.52-11.209 2.73-4.002-2.153-6.295-6.44-8.634-16.139-.962-3.988-1.813-7.245-1.89-7.238-.08.007-2.618.676-5.643 1.488-17.125 4.596-29.986-1.134-29.996-13.367-.004-4.26.063-4.35 2.746-3.698 1.512.368 8.889.926 16.392 1.241l13.641.573-2.317-11.405c-4.07-20.036-4.374-28.844-.994-28.844 3.032 0 6.446 2.388 7.693 5.38.715 1.716 2.663 9.645 4.329 17.62 2.968 14.216 3.077 14.493 5.517 14.15 3.942-.555 26.403-7.164 27.26-8.022.427-.426.48-3.956.119-7.845l-.658-7.07-5.105 1.735c-5.314 1.806-5.347 1.855-7.096 10.302-.396 1.913-1.189 2.75-2.606 2.75-5.82 0-14.039-34.053-12.28-50.88.874-8.362 2.423-9.594 12.21-9.712 8.919-.107 13.24-1.306 37.576-10.428 35.19-13.19 39.728-13.975 45.789-7.914 3.882 3.883 3.172 6.01-4.318 12.934-5.57 5.15-6.044 5.946-7.436 12.5-.818 3.85-1.774 14.425-2.124 23.5l-.637 16.5 13.277-.354c10.069-.268 14.997.06 20.397 1.357 15.929 3.825 29.494 10.724 33.736 17.158 2.249 3.411 2.467 10.312.45 14.214-4.258 8.234-26.672 22.517-44.79 28.542-10.987 3.653-16.592 3.874-28.775 1.133zm-47-31.278c0-2.35-.337-4.246-.75-4.215-.412.031-6.485 1.944-13.495 4.25l-12.745 4.193 3.008 5.237 3.009 5.238 10.487-5.215 10.487-5.216v-4.272zm48.133 11.761c17.662-4.626 32.182-12.787 36.587-20.564 2.68-4.733 2.779-5.828.71-7.898-1.902-1.9-9.044-2.052-21.494-.455l-8.701 1.116.128 6.134c.144 6.853-2.251 11.995-7.244 15.55-5.484 3.905-7.792 3.753-12.12-.797-2.399-2.522-4.806-4.11-6.208-4.095-3.613.037-13.241 4.373-17.894 8.058-4.157 3.293-4.195 3.377-1.821 4.04 1.334.374 8.753.723 16.486.778 11.014.078 15.69-.326 21.571-1.867zm-17.937-19.055c2.567-1.19 4.385-3.731 3.384-4.732-.257-.257-5.668.742-12.023 2.22-10.687 2.485-11.556 2.863-11.556 5.029 0 1.288-.277 3.064-.616 3.947-.487 1.268 1.354.889 8.75-1.804 5.151-1.876 10.579-3.973 12.06-4.66zm-6.826-16.672c5.572-1.466 10.28-2.771 10.463-2.901.183-.13.014-2.784-.374-5.898l-.708-5.66-5.125.648c-2.819.356-7.938 1.112-11.375 1.68l-6.25 1.03v7.505c0 6.505.215 7.421 1.62 6.883.89-.342 6.177-1.821 11.75-3.287zm-29.12-14.359l3.75-1.041-.014-5.703c-.021-7.953-.797-8.926-5.648-7.084l-3.837 1.457-.296 6.712c-.325 7.392-.295 7.42 6.046 5.66zm23.412-7.447c3.168-.825 7.862-1.5 10.432-1.5 5.26 0 5.868-.904 5.893-8.75.016-4.864.595-4.696-12.419-3.596-6.607.558-7.849.959-8.526 2.75-1.062 2.81-2.37 12.596-1.684 12.596.3 0 3.137-.675 6.304-1.5zm-23.411-14.06c2.621-.626 2.75-.937 2.75-6.655 0-5.06-.248-5.904-1.582-5.392-.87.334-3.303.607-5.406.607-3.111 0-3.759.327-3.47 1.75.194.962.633 3.908.974 6.546.501 3.875.943 4.7 2.302 4.297.925-.274 2.92-.793 4.432-1.154zm35.383-8.424c4.472-.014 5.211-.306 5.737-2.266.966-3.607.722-7.75-.457-7.75-.597 0-6.364.965-12.815 2.145l-11.728 2.145 1.385 4.208L169 298.56l5.68-1.337c3.124-.735 7.99-1.344 10.813-1.352zm-78.133-14.066c-12.842-1.94-18.5-5.9-18.5-12.949 0-3.678.063-3.738 4.64-4.365 2.551-.35 14.139-.639 25.75-.642 11.61-.003 24.822-.295 29.36-.648l8.25-.642v-2.968c0-2.213-1.077-3.951-4.239-6.842l-4.239-3.874 8.653-8.76c4.76-4.818 10.411-11.574 12.56-15.014l3.908-6.254 2.112 2.254c6.253 6.675 5.55 16.531-1.847 25.87-2.627 3.316-3.017 4.489-2.469 7.412.358 1.91.84 3.472 1.069 3.472.23 0 2.96-.952 6.07-2.115 5.426-2.03 5.77-2.378 8.653-8.734 5.273-11.63 4.817-22.096-1.365-31.28l-2.942-4.371 4.959-4.5c2.727-2.475 7.504-6.039 10.616-7.92l5.657-3.419 3.172 1.814c4.813 2.752 7.66 5.62 9.886 9.964 3.952 7.709.925 16.769-10.686 31.987l-6.456 8.462 9.714-3.576c38.69-14.24 47.227-16.17 55.457-12.529 9.308 4.118 9.84 11.062 1.17 15.259-5.326 2.578-17.617 4.873-26.413 4.931-19.586.13-31.9 3.424-62 16.588-31.793 13.903-31.23 13.742-49 14.037-8.525.142-18.2-.15-21.5-.648zm122-97.03c-14.777-1.898-38.277-12.858-48.073-22.42-12.227-11.935-14.392-19.789-14.412-52.297l-.015-23.296-2.469 1.796c-2.242 1.632-2.471 2.49-2.5 9.337-.088 21.085-9.745 36.672-31.83 51.374-13.786 9.178-36.23 19.586-42.236 19.586-4.046 0-1.73-2.953 5.285-6.74 12.11-6.536 24.496-15.166 30.767-21.437 6.559-6.56 13.488-19.171 14.6-26.573.599-3.987.491-4.25-1.74-4.254-3.065-.005-8.323-3.221-10.369-6.343-.88-1.343-1.863-4.064-2.185-6.047-.546-3.365-.412-3.606 2.008-3.606 3.125 0 13.669-3.815 13.669-4.946 0-2.375-3.447-10.012-5.898-13.069-3.737-4.66-4.432-7.192-3.662-13.352.968-7.75.84-7.687 11.06-5.482 15.054 3.248 16.734 4.657 18.035 15.118l.593 4.768 2.936-1.734c1.614-.954 2.936-2.552 2.936-3.55 0-2.998 2.792-8.736 4.585-9.424.922-.354 3.152.152 4.956 1.123 3.264 1.758 3.302 1.752 7.62-1.184 8.866-6.03 18.767-11.268 21.296-11.268 6.534 0 19.543 10.171 19.543 15.28 0 7.897-11.988 12.72-31.612 12.72h-9.245l-2.233 5.75c-3.041 7.829-3.764 23.32-1.507 32.31 4.993 19.887 19.485 35.94 32.446 35.94 4.178 0 11.531-3.055 17.514-7.277 2.54-1.793 2.81-2.482 2.382-6.122-.264-2.255-2.562-8.95-5.105-14.878-4.893-11.401-7.14-18.748-6.397-20.913.247-.72 2.153 2.065 4.235 6.19 8.718 17.273 12.085 20.737 27.316 28.096 8.534 4.123 13.657 7.303 16.75 10.396 4.013 4.013 4.456 4.923 4.456 9.166 0 17.007-20.979 30.155-43.5 27.262z" fill="#e0c5c6"/><path d="M54.86 443.82c-20.737-5.388-37.31-18.443-46.928-36.965-8.154-15.706-7.47-.137-7.832-178-.228-111.74.003-160.992.782-166.947C5.09 29.762 30.53 5.277 64.361.813c5.334-.703 45.49-.95 120.5-.74 112.463.313 112.502.314 120.287 2.516 23.737 6.715 42.393 24.027 50.397 46.766l2.816 8 .267 162.73c.297 180.238.64 170.063-6.224 184.516-8.736 18.396-24.396 31.769-45.543 38.892-5.218 1.758-11.633 1.864-125 2.064-115.587.205-119.746.148-127-1.737zm241-3.03c8.575-1.385 18.839-5.01 25.81-9.114 9.006-5.304 20.067-17.003 24.883-26.321 8.487-16.42 7.808-.593 7.808-182 0-180.331.593-165.501-7.265-181.5-5.647-11.497-17.753-23.262-30.235-29.385-16.233-7.961-9.31-7.578-137.303-7.598-127.086-.02-120.941-.336-136.197 7.022-14.647 7.063-25.164 17.41-32.01 31.489-6.945 14.287-6.554 2.875-6.258 182.704l.268 162.268 3.16 8.195c9.095 23.586 29.263 40.09 54.103 44.272 7.393 1.245 225.517 1.215 233.237-.032zm-90-44.876c-16.652-3.528-32.532-8.72-42.99-14.054-3.395-1.733-3.952-1.779-5.079-.42-2.023 2.436-4.776 3.552-9.412 3.814-5.372.303-9.057 2.626-9.976 6.288-.387 1.541-1.172 3.367-1.745 4.057-2.471 2.978-10.95.021-14.184-4.946-.823-1.264-2.474-5.898-3.668-10.298s-2.237-8.079-2.317-8.175c-.08-.096-2.84.46-6.136 1.234-16.984 3.995-28.139-.828-29.275-12.656l-.5-5.19 2.892.695c1.59.382 9.127.956 16.75 1.275 13.24.554 13.834.496 13.3-1.301-.308-1.035-1.708-7.847-3.11-15.139-3.787-19.694-3.345-24.624 2.04-22.707 4.652 1.657 6.267 5.22 9.466 20.893 1.676 8.21 3.25 15.257 3.5 15.659.533.863 7.24-.643 20.779-4.666l9.834-2.922-.684-7.5c-.377-4.125-.794-7.617-.928-7.76-.134-.144-2.227.43-4.65 1.276-5.058 1.764-6.906 3.767-6.906 7.484 0 1.44-.626 3.474-1.392 4.521-1.237 1.692-1.588 1.741-3.162.441-6.002-4.956-12.514-36.064-10.547-50.386 1.064-7.75 3.41-9.866 9.983-9.005 6.628.868 14.659-1.287 40.951-10.988 28.779-10.619 33.893-12.003 39.134-10.592 3.703.997 8.033 4.969 8.033 7.367 0 .599-2.75 3.705-6.109 6.902-4.465 4.248-6.475 7.029-7.468 10.33-1.796 5.967-3.423 22.256-3.423 34.266v9.644l15.75.033c14.548.03 16.398.248 24.25 2.851 11.553 3.831 21.273 9.07 25.491 13.738 2.998 3.318 3.509 4.592 3.509 8.743 0 3.798-.601 5.615-2.75 8.313-7.805 9.801-24.716 20.436-42.25 26.568-11.553 4.041-16.742 4.486-27 2.313zm-59.877-22.309l9.867-5.25v-4.317c0-3.635-.271-4.24-1.744-3.823-.963.272-7.023 2.113-13.467 4.09l-11.716 3.598.991 2.606c1.11 2.917 4.776 8.346 5.637 8.346.307 0 5-2.363 10.426-5.25zm64.59.481c19.038-6.546 29.05-13.366 31.467-21.436.973-3.246.91-4.134-.382-5.426-1.817-1.818-10.497-1.99-21.297-.424-3.85.558-7.622 1.024-8.382 1.035-1.035.015-1.246 1.032-.84 4.055.731 5.455-.765 10.31-4.481 14.543-3.033 3.454-7.579 6.422-9.837 6.422-.626 0-3.082-2-5.458-4.445-4.169-4.289-4.448-4.409-7.986-3.432-6.535 1.804-12.14 4.608-16.013 8.008-3.768 3.309-3.777 3.333-1.397 4.048 1.317.396 9.819.607 18.894.47 15.586-.237 17.01-.426 25.711-3.418zm-33.712-13.408c4.675-1.648 9.512-3.643 10.75-4.433 2.41-1.538 3.065-4.404 1-4.369-1.773.03-21.73 4.616-22.143 5.088-.188.215-.658 2.139-1.045 4.275-.632 3.49-.519 3.81 1.117 3.16 1.002-.4 5.646-2.074 10.32-3.721zm2-20.348c5.775-1.566 10.65-2.95 10.832-3.077.183-.126.013-2.787-.377-5.913l-.71-5.684-5.623.651c-3.092.358-8.21 1.137-11.372 1.73l-5.75 1.078v7.477c0 5.553.321 7.362 1.25 7.03.687-.245 5.975-1.727 11.75-3.292zm-28.75-14.528c3.722-1.033 3.75-1.08 3.736-6.244-.01-2.862-.275-6.178-.595-7.37-.57-2.13-.657-2.139-4.986-.534l-4.405 1.632v6.785c0 7.419.04 7.456 6.25 5.731zm23.75-7.447c3.025-.812 7.585-1.482 10.133-1.488 5.213-.014 5.828-.934 5.853-8.762.013-4.132-.076-4.25-3.236-4.243-8.727.02-16.87 1.35-17.693 2.892-1.262 2.365-2.429 13.103-1.422 13.09.475-.007 3.34-.677 6.365-1.489zm-24.866-13.658l3.866-1.159v-5.958c0-5.691-.101-5.931-2.25-5.355-1.238.331-3.67.609-5.407.616-2.47.011-3.079.394-2.802 1.764.195.962.63 3.887.968 6.5.337 2.612.871 4.75 1.186 4.75.315 0 2.313-.521 4.439-1.158zm28.699-7.889c3.319-.653 7.636-1 9.593-.772 3.317.387 3.599.202 4.148-2.725.324-1.727.44-4.23.257-5.56l-.331-2.42-12.646 2.388-12.647 2.389 1.512 4.436c.96 2.82 1.98 4.257 2.795 3.944.706-.27 4-1.027 7.319-1.68zm-69.333-14.955c-9.468-1.424-13.228-2.924-16.409-6.547-3.238-3.687-4.145-8.673-1.841-10.116.687-.43 15.785-1.064 33.55-1.408 17.764-.345 32.664-1.032 33.11-1.527 1.55-1.718-.943-7.323-4.443-9.993l-3.495-2.665 8.034-8.369c4.42-4.603 9.853-11.182 12.076-14.62 2.222-3.44 4.561-6.253 5.197-6.253 1.934 0 5.687 7.757 5.704 11.79.018 4.069-2.798 10.466-6.62 15.037-2.356 2.818-3.046 7.049-1.537 9.426.625.985 1.964.867 6.235-.545 5.213-1.725 5.584-2.087 8.939-8.736 3.192-6.327 3.498-7.686 3.478-15.455-.022-8.567-1.844-14.249-6.14-19.145-1.275-1.454-.753-2.162 4.867-6.606 3.462-2.738 8.212-6.177 10.556-7.642 4.04-2.525 4.416-2.584 7.234-1.126 4.782 2.472 9.823 8.162 11.146 12.579 2.203 7.353-1.819 16.762-13.152 30.768-2.823 3.489-4.944 6.534-4.712 6.766.232.231 6.264-1.79 13.405-4.49 33.782-12.781 44.442-15.011 52.314-10.944 7.653 3.954 8.433 9.188 2.021 13.563-5.564 3.796-12.11 4.96-40.017 7.112-14.06 1.084-23.472 4.066-53.5 16.948-29.208 12.531-31.758 13.228-47.856 13.075-7.23-.068-15.394-.463-18.144-.877zm121-97.078c-14.777-1.898-38.277-12.858-48.073-22.42-12.227-11.935-14.392-19.789-14.412-52.297l-.015-23.296-2.469 1.796c-2.242 1.632-2.471 2.49-2.5 9.337-.088 21.085-9.745 36.672-31.83 51.374-13.786 9.178-36.23 19.586-42.236 19.586-4.046 0-1.73-2.953 5.285-6.74 12.11-6.536 24.496-15.166 30.767-21.437 6.559-6.56 13.488-19.171 14.6-26.573.599-3.987.491-4.25-1.74-4.254-3.065-.005-8.323-3.221-10.369-6.343-.88-1.343-1.863-4.064-2.185-6.047-.546-3.365-.412-3.606 2.008-3.606 3.125 0 13.669-3.815 13.669-4.946 0-2.375-3.447-10.012-5.898-13.069-3.737-4.66-4.432-7.192-3.662-13.352.968-7.75.84-7.687 11.06-5.482 15.054 3.248 16.734 4.657 18.035 15.118l.593 4.768 2.936-1.734c1.614-.954 2.936-2.552 2.936-3.55 0-2.998 2.792-8.736 4.585-9.424.922-.354 3.152.152 4.956 1.123 3.264 1.758 3.302 1.752 7.62-1.184 8.866-6.03 18.767-11.268 21.296-11.268 6.534 0 19.543 10.171 19.543 15.28 0 7.897-11.988 12.72-31.612 12.72h-9.245l-2.233 5.75c-3.041 7.829-3.764 23.32-1.507 32.31 4.993 19.887 19.485 35.94 32.446 35.94 4.178 0 11.531-3.055 17.514-7.277 2.54-1.793 2.81-2.482 2.382-6.122-.264-2.255-2.562-8.95-5.105-14.878-4.893-11.401-7.14-18.748-6.397-20.913.247-.72 2.153 2.065 4.235 6.19 8.718 17.273 12.085 20.737 27.316 28.096 8.534 4.123 13.657 7.303 16.75 10.396 4.013 4.013 4.456 4.923 4.456 9.166 0 17.007-20.979 30.155-43.5 27.262z" fill="#bebebe"/><path d="M57.36 444.387C27.583 437.892 4.75 413.364.869 383.695c-.76-5.806-1.003-56.346-.8-166.34l.293-158 2.349-7c4.41-13.146 8.861-20.336 18.59-30.03C31.345 12.313 40.51 6.793 53.887 2.697L61.361.41l112.5-.325c76.104-.22 115.134.02 120.642.745 26.066 3.43 47.303 18.74 58.082 41.869 6.664 14.299 6.339 4.425 6.043 183.427l-.267 162.23-2.339 7c-3.95 11.823-8.698 19.25-18.558 29.023-10.425 10.334-20.47 16.09-34.013 19.49-7.675 1.928-11.358 1.985-124 1.907-91.685-.062-117.352-.354-122.09-1.388zm246-4.804c3.3-.962 9.826-3.611 14.5-5.888 11.558-5.63 24.006-17.867 29.337-28.84 7.736-15.924 7.164-1.426 7.164-181.5 0-131.56-.246-162.006-1.347-166.5-.74-3.025-3.333-9.653-5.762-14.73-7.605-15.894-21.557-27.802-39.891-34.046l-8-2.724h-240l-8 2.816C28.99 16.045 12.41 33.654 6.833 55.464 4.91 62.981 4.86 67.206 4.86 223.355s.05 160.374 1.972 167.89c3.001 11.735 8.278 20.908 17.033 29.61 11.046 10.978 23.354 17.4 38.116 19.885 3.035.51 55.487.837 120.379.748 106.225-.146 115.458-.291 121-1.905zm-97.5-43.67c-16.652-3.527-32.532-8.718-42.99-14.053-3.395-1.733-3.952-1.779-5.079-.42-2.023 2.436-4.776 3.552-9.412 3.814-5.372.303-9.057 2.626-9.976 6.288-.387 1.541-1.172 3.367-1.745 4.057-2.471 2.978-10.95.021-14.184-4.946-.823-1.264-2.474-5.898-3.668-10.298s-2.237-8.079-2.317-8.175c-.08-.096-2.84.46-6.136 1.234-16.984 3.995-28.139-.828-29.275-12.656l-.5-5.19 2.892.695c1.59.383 9.127.956 16.75 1.275 13.24.554 13.834.496 13.3-1.301-.308-1.035-1.708-7.847-3.11-15.139-3.787-19.694-3.345-24.624 2.04-22.707 4.652 1.657 6.267 5.22 9.466 20.893 1.676 8.21 3.25 15.257 3.5 15.659.533.863 7.24-.643 20.779-4.666l9.834-2.922-.684-7.5c-.377-4.125-.794-7.617-.928-7.76-.134-.144-2.227.43-4.65 1.276-5.058 1.764-6.906 3.767-6.906 7.484 0 1.44-.626 3.474-1.392 4.521-1.237 1.692-1.588 1.741-3.162.441-6.002-4.956-12.514-36.064-10.547-50.386 1.064-7.75 3.41-9.866 9.983-9.005 6.628.868 14.659-1.287 40.951-10.988 28.779-10.619 33.893-12.003 39.134-10.592 3.703.997 8.033 4.969 8.033 7.367 0 .599-2.75 3.705-6.109 6.902-4.465 4.248-6.475 7.029-7.468 10.33-1.796 5.967-3.423 22.256-3.423 34.266v9.644l15.75.033c14.548.03 16.398.248 24.25 2.851 11.553 3.831 21.273 9.07 25.491 13.738 2.998 3.318 3.509 4.592 3.509 8.743 0 3.798-.601 5.615-2.75 8.313-7.805 9.801-24.716 20.436-42.25 26.568-11.553 4.041-16.742 4.486-27 2.313zm-59.877-22.308l9.867-5.25v-4.317c0-3.635-.271-4.24-1.744-3.823-.963.272-7.023 2.113-13.467 4.09l-11.716 3.598.991 2.606c1.11 2.917 4.776 8.346 5.637 8.346.307 0 5-2.363 10.426-5.25zm64.59.481c19.038-6.546 29.05-13.366 31.467-21.436.973-3.246.91-4.134-.382-5.426-1.817-1.818-10.497-1.99-21.297-.424-3.85.558-7.622 1.024-8.382 1.035-1.035.015-1.246 1.032-.84 4.055.731 5.455-.765 10.31-4.481 14.543-3.033 3.454-7.579 6.422-9.837 6.422-.626 0-3.082-2-5.458-4.445-4.169-4.289-4.448-4.409-7.986-3.432-6.535 1.804-12.14 4.608-16.013 8.008-3.768 3.309-3.777 3.333-1.397 4.048 1.317.396 9.819.607 18.894.47 15.586-.237 17.01-.426 25.711-3.418zm-33.712-13.408c4.675-1.648 9.512-3.643 10.75-4.433 2.41-1.538 3.065-4.404 1-4.369-1.773.03-21.73 4.616-22.143 5.088-.188.215-.658 2.139-1.045 4.275-.632 3.49-.519 3.81 1.117 3.16 1.002-.4 5.646-2.074 10.32-3.721zm2-20.348c5.775-1.566 10.65-2.95 10.832-3.077.183-.126.013-2.787-.377-5.913l-.71-5.684-5.623.651c-3.092.358-8.21 1.137-11.372 1.73l-5.75 1.078v7.477c0 5.553.321 7.362 1.25 7.03.687-.245 5.975-1.727 11.75-3.292zm-28.75-14.528c3.722-1.033 3.75-1.08 3.736-6.244-.01-2.862-.275-6.178-.595-7.37-.57-2.13-.657-2.139-4.986-.534l-4.405 1.632v6.785c0 7.419.04 7.456 6.25 5.731zm23.75-7.447c3.025-.812 7.585-1.482 10.133-1.488 5.213-.014 5.828-.934 5.853-8.762.013-4.132-.076-4.25-3.236-4.243-8.727.02-16.87 1.35-17.693 2.892-1.262 2.365-2.429 13.103-1.422 13.09.475-.007 3.34-.677 6.365-1.489zm-24.866-13.658l3.866-1.159v-5.958c0-5.691-.101-5.931-2.25-5.355-1.238.331-3.67.609-5.407.616-2.47.011-3.079.394-2.802 1.764.195.962.63 3.887.968 6.5.337 2.612.871 4.75 1.186 4.75.315 0 2.313-.521 4.439-1.158zm28.699-7.889c3.319-.653 7.636-1 9.593-.772 3.317.387 3.599.202 4.148-2.725.324-1.727.44-4.23.257-5.56l-.331-2.42-12.646 2.388-12.647 2.389 1.512 4.436c.96 2.82 1.98 4.257 2.795 3.944.706-.27 4-1.027 7.319-1.68zm-69.333-14.955c-9.468-1.424-13.228-2.924-16.409-6.547-3.238-3.687-4.145-8.673-1.841-10.116.687-.43 15.785-1.064 33.55-1.408 17.764-.345 32.664-1.032 33.11-1.527 1.55-1.718-.943-7.323-4.443-9.993l-3.495-2.665 8.034-8.369c4.42-4.603 9.853-11.182 12.076-14.62 2.222-3.44 4.561-6.253 5.197-6.253 1.934 0 5.687 7.757 5.704 11.79.018 4.069-2.798 10.466-6.62 15.037-2.356 2.818-3.046 7.049-1.537 9.426.625.985 1.964.867 6.235-.545 5.213-1.725 5.584-2.087 8.939-8.736 3.192-6.327 3.498-7.686 3.478-15.455-.022-8.567-1.844-14.249-6.14-19.145-1.275-1.454-.753-2.162 4.867-6.606 3.462-2.738 8.212-6.177 10.556-7.642 4.04-2.525 4.416-2.584 7.234-1.126 4.782 2.472 9.823 8.162 11.146 12.579 2.203 7.353-1.819 16.762-13.152 30.768-2.823 3.489-4.944 6.534-4.712 6.766.232.231 6.264-1.79 13.405-4.49 33.782-12.781 44.442-15.011 52.314-10.944 7.653 3.954 8.433 9.188 2.021 13.563-5.564 3.796-12.11 4.96-40.017 7.112-14.06 1.084-23.472 4.066-53.5 16.948-29.208 12.531-31.758 13.228-47.856 13.075-7.23-.068-15.394-.463-18.144-.877zm121-97.174c-3.3-.43-9.375-1.956-13.5-3.394-28.48-9.926-44.393-24.491-47.92-43.864-.594-3.263-1.08-16.03-1.08-28.372V86.611l-2.25 1.49c-1.995 1.32-2.323 2.61-2.891 11.372-1.403 21.633-10.586 35.701-32.86 50.342-16.632 10.934-39.583 20.856-42.196 18.243-1.404-1.403-1.838-1.03 6.33-5.448 25.757-13.935 39.017-26.788 43.882-42.538 2.683-8.689 2.58-9.848-.933-10.55-8.08-1.616-16.284-15.667-9.148-15.667 2.33 0 11.187-2.839 12.389-3.97 1.417-1.336-1.193-8.62-5.083-14.188-3.111-4.452-3.73-6.175-3.717-10.342.01-2.75.342-6.191.74-7.648l.724-2.647 9.256 2.004c14.52 3.144 16.983 5.073 18.141 14.212.344 2.706.808 5.105 1.033 5.33.225.225 1.539-.331 2.92-1.236 1.655-1.085 2.729-2.946 3.155-5.47.356-2.105 1.68-4.798 2.943-5.984 2.224-2.09 2.407-2.104 5.844-.465l3.548 1.692 8.836-5.53c16.15-10.107 17.076-10.323 24.948-5.807 5.652 3.241 10.064 7.908 11 11.633 1.947 7.761-11.39 13.397-31.738 13.41l-8.627.006-2.29 5.25c-3.152 7.22-3.912 24.391-1.491 33.664 5.195 19.9 19.148 35.053 32.3 35.077 4.05.007 6.59-.722 11-3.158 11.312-6.247 11.373-6.66 3.811-25.687-2.983-7.505-5.716-15.446-6.073-17.646-.583-3.586-.151-3.096 4.174 4.744 9.547 17.309 11.138 18.919 26.502 26.832 16.44 8.468 21.82 13.386 21.82 19.942 0 10.238-10.974 21.547-25 25.76-5.17 1.554-11.734 1.925-18.5 1.046z" fill="#c38c8f"/><path d="M57.36 444.387C27.583 437.892 4.75 413.364.869 383.695c-.76-5.806-1.003-56.346-.8-166.34l.293-158 2.349-7c4.41-13.146 8.861-20.336 18.59-30.03C31.345 12.313 40.51 6.793 53.887 2.697L61.361.41l112.5-.325c76.104-.22 115.134.02 120.642.745 26.066 3.43 47.303 18.74 58.082 41.869 6.664 14.299 6.339 4.425 6.043 183.427l-.267 162.23-2.339 7c-3.95 11.823-8.698 19.25-18.558 29.023-10.425 10.334-20.47 16.09-34.013 19.49-7.675 1.928-11.358 1.985-124 1.907-91.685-.062-117.352-.354-122.09-1.388zm246-4.804c3.3-.962 9.826-3.611 14.5-5.888 11.558-5.63 24.006-17.867 29.337-28.84 7.736-15.924 7.164-1.426 7.164-181.5 0-131.56-.246-162.006-1.347-166.5-.74-3.025-3.333-9.653-5.762-14.73-7.605-15.894-21.557-27.802-39.891-34.046l-8-2.724h-240l-8 2.816C28.99 16.045 12.41 33.654 6.833 55.464 4.91 62.981 4.86 67.206 4.86 223.355s.05 160.374 1.972 167.89c3.001 11.735 8.278 20.908 17.033 29.61 11.046 10.978 23.354 17.4 38.116 19.885 3.035.51 55.487.837 120.379.748 106.225-.146 115.458-.291 121-1.905zm-175.23-44.21c-4.18-1.818-6.717-6.106-8.825-14.914-.935-3.907-2.048-7.488-2.474-7.956-.426-.47-3.945-.132-7.82.75-3.875.88-8.658 1.602-10.63 1.602-4.308 0-10.15-2.305-13.268-5.233-2.558-2.403-4.657-8.915-3.773-11.703.517-1.627 1.066-1.72 4.802-.807 4.727 1.155 26.184 1.61 27.217.578.366-.366-.496-6.4-1.916-13.41-2.303-11.364-3.47-26.425-2.05-26.425.293 0 2.015.62 3.828 1.377 4.16 1.738 4.927 3.653 8.633 21.53 1.643 7.924 3.2 14.619 3.459 14.878.626.627 7.78-1.125 20.298-4.971l10.25-3.149-.015-6.583c-.022-9.312-.576-9.885-7.147-7.389-5.223 1.984-5.353 2.13-6.025 6.804-1.233 8.58-3.902 8.372-7.765-.607-4.11-9.555-6.382-22.369-6.468-36.483-.099-16.209-.022-16.337 9.763-16.328 9.204.01 13.844-1.276 41.396-11.464 12.519-4.63 24.561-8.909 26.761-9.51 9.718-2.657 18.5.097 18.5 5.8 0 2.322-1.245 4.048-5.959 8.265-7.949 7.11-9.048 11.096-9.765 35.397l-.532 18.066 15.378-.04c15.23-.04 15.484-.004 26.378 3.737 24.645 8.464 32.467 17.632 24.931 29.22-7.962 12.242-43.102 30.468-58.693 30.44-10.515-.017-38.206-7.696-51.043-14.154l-5.806-2.92-3.02 2.542c-2.128 1.79-4.199 2.542-6.995 2.542-5.592 0-9.747 2.449-11.565 6.816-2.314 5.557-4.184 6.247-10.04 3.701zm17.749-21.527c5.49-2.755 9.982-5.624 9.982-6.375 0-.751.281-2.772.625-4.491.515-2.576.308-3.125-1.178-3.125-2.304 0-24.673 6.92-25.782 7.975-1.196 1.138 4.192 11.025 6.008 11.025.2 0 4.855-2.254 10.345-5.01zm61.266 1.552c17.163-4.99 29.023-11.798 33.315-19.121 3.096-5.283 3.042-7.956-.203-10.082-2.37-1.552-3.657-1.593-14.25-.454-16.86 1.814-15.707 1.233-15.3 7.719.43 6.853-.986 10.385-5.966 14.884-5.564 5.027-9.46 4.861-13.84-.589-3.863-4.806-5.358-4.798-15.384.087-5.364 2.612-12.656 8.063-12.656 9.458 0 .74 15.492 1.316 26 .968 6.435-.214 12.334-1.14 18.284-2.87zm-31.553-13.93c10.893-3.963 14.269-5.983 14.269-8.537 0-1.834-.197-1.835-8.401-.042-17.005 3.716-16.6 3.52-16.6 8.005 0 2.178.338 3.955.75 3.947.413-.008 4.905-1.526 9.982-3.373zm-1.295-19.551c3.885-1.066 8.997-2.439 11.36-3.051l4.297-1.113-.297-6.2-.296-6.198-3 .27c-9.448.847-19.743 2.726-20.034 3.656-.897 2.871-.96 14.574-.078 14.574.541 0 4.163-.872 8.048-1.938zm-20.296-24.094c-.198-4.108-.508-7.628-.69-7.824-.18-.196-2.38.428-4.89 1.386l-4.56 1.742v14.513l5.25-1.175 5.25-1.174-.36-7.468zm21.782.402c3.532-.822 8.032-1.355 10-1.185l3.578.31.707-6.412c.39-3.527.539-6.685.332-7.02-.459-.742-20.014.494-21.405 1.354-.547.338-1.288 3.195-1.646 6.349-.359 3.154-.892 6.59-1.185 7.635-.43 1.528-.167 1.76 1.331 1.182 1.026-.396 4.756-1.392 8.288-2.213zm-26.071-13.468c3.063-1.068 3.149-1.262 3.149-7.14v-6.04l-5.136.608c-2.824.334-5.266.739-5.427.9-.16.16-.037 3.098.275 6.53.62 6.843 1.155 7.228 7.139 5.142zm32.77-7.58l9.122-.55.579-5.602c.318-3.082.427-5.754.243-5.938-.396-.396-25.44 4.31-26.02 4.89-.218.217.122 2.337.756 4.71 1.05 3.934 1.374 4.258 3.675 3.677 1.388-.351 6.629-.885 11.646-1.187zm-70.823-15.34c-15.835-1.807-21.923-5.25-22.166-12.532l-.132-3.95 30-.675c16.5-.372 31.962-.969 34.36-1.328 4.23-.633 4.34-.743 3.75-3.7-.336-1.676-.61-3.38-.61-3.786 0-.406-1.803-1.989-4.007-3.516l-4.007-2.777 8.295-8.609c4.562-4.735 10.029-11.422 12.149-14.859 2.12-3.438 4.203-6.25 4.63-6.25 1.215 0 4.653 6.162 5.393 9.666.937 4.434-.824 10.097-4.939 15.885-2.517 3.54-3.514 6.008-3.514 8.696 0 4.304.312 4.387 7.694 2.06 5.067-1.597 5.538-2.035 8.335-7.75 4.548-9.29 5.563-15.987 3.51-23.17-.925-3.238-2.775-7.565-4.11-9.616-1.336-2.05-2.43-4.075-2.43-4.5.001-1.965 17.532-14.263 20.341-14.268 2.843-.005 9.319 5.092 11.604 9.133 5.048 8.928 1.144 20.178-12.724 36.662-2.451 2.914-4.291 5.452-4.089 5.64.203.188 3.744-.973 7.869-2.58 4.125-1.606 15.6-5.685 25.5-9.064 14.014-4.784 19.329-6.151 24-6.177 10.756-.06 17.594 5.491 14.67 11.909-2.308 5.065-13.718 7.95-37.344 9.443-19.084 1.205-25.676 3.111-56.326 16.287-30.674 13.185-32.899 13.868-46.5 14.267-6.325.186-14.966-.057-19.202-.54zm117.702-97.158c-3.3-.43-9.375-1.956-13.5-3.394-28.48-9.926-44.393-24.491-47.92-43.864-.594-3.263-1.08-16.03-1.08-28.372V86.611l-2.25 1.49c-1.995 1.32-2.323 2.61-2.891 11.372-1.403 21.633-10.586 35.701-32.86 50.342-16.632 10.934-39.583 20.856-42.196 18.243-1.404-1.403-1.838-1.03 6.33-5.448 25.757-13.935 39.017-26.788 43.882-42.538 2.683-8.689 2.58-9.848-.933-10.55-8.08-1.616-16.284-15.667-9.148-15.667 2.329 0 11.187-2.839 12.389-3.97 1.417-1.336-1.193-8.62-5.083-14.188-3.111-4.452-3.73-6.175-3.717-10.342.01-2.75.342-6.191.74-7.648l.724-2.647 9.256 2.004c14.52 3.144 16.983 5.073 18.141 14.212.344 2.706.808 5.105 1.033 5.33.225.225 1.539-.331 2.92-1.236 1.655-1.085 2.729-2.946 3.155-5.47.356-2.105 1.68-4.798 2.943-5.984 2.224-2.09 2.407-2.104 5.844-.465l3.548 1.692 8.836-5.53c16.15-10.107 17.076-10.323 24.948-5.807 5.652 3.241 10.064 7.908 11 11.633 1.947 7.761-11.39 13.397-31.738 13.41l-8.627.006-2.29 5.25c-3.152 7.22-3.912 24.391-1.491 33.664 5.195 19.9 19.148 35.053 32.3 35.077 4.05.007 6.59-.722 11-3.158 11.312-6.247 11.373-6.66 3.811-25.687-2.983-7.505-5.716-15.446-6.073-17.646-.583-3.586-.151-3.096 4.174 4.744 9.547 17.309 11.138 18.919 26.502 26.832 16.44 8.468 21.82 13.386 21.82 19.942 0 10.238-10.974 21.547-25 25.76-5.17 1.554-11.734 1.925-18.5 1.046z" fill="#7b7b7b"/><path d="M61.692 444.832c-23.27-3.927-42.663-17.55-52.844-37.12-2.228-4.28-4.936-11.247-6.019-15.48-1.918-7.5-1.968-11.83-1.968-168.877 0-157.673.043-161.352 1.993-169.09 3.273-12.991 8.252-21.683 17.994-31.41C30.57 13.146 37.15 8.945 49.6 4.49l8.76-3.135h241l7.466 2.344c25.342 7.958 42.865 25.635 49.718 50.156 1.722 6.16 1.817 15.02 1.817 169 0 182.575.643 167.027-7.603 183.85-7.21 14.71-21.799 27.784-37.762 33.845-13.901 5.278-12.952 5.242-134.135 5.152-61.875-.045-114.601-.437-117.17-.87zm240.759-4.97c13.148-3.312 21.642-8.218 32.013-18.49 7.289-7.22 9.913-10.653 13.173-17.23 7.79-15.716 7.32-3.349 7.005-184.287l-.281-161.5-2.68-7.335c-3.957-10.834-8.412-17.726-17.018-26.33-6.14-6.14-9.58-8.62-17-12.265-17.657-8.67-7.36-8.07-138.302-8.07h-116l-7.955 2.303c-11.86 3.434-20.733 8.553-29.94 17.274-9.229 8.742-14.403 16.744-18.38 28.423l-2.725 8-.301 157.5c-.217 113.62.015 159.715.834 165.45 3.844 26.926 24.267 49.48 51.196 56.535 6.942 1.819 12.503 1.907 122.86 1.96 112.236.053 115.82-.003 123.5-1.938zm-174.32-44.49c-4.181-1.817-6.718-6.105-8.826-14.913-.935-3.907-2.048-7.488-2.474-7.956-.426-.47-3.945-.132-7.82.75-3.875.88-8.658 1.602-10.63 1.602-4.308 0-10.15-2.305-13.268-5.233-2.558-2.403-4.657-8.915-3.773-11.703.517-1.627 1.066-1.72 4.802-.807 4.727 1.155 26.184 1.61 27.217.578.366-.366-.496-6.4-1.916-13.41-2.303-11.364-3.47-26.425-2.05-26.425.293 0 2.015.62 3.828 1.377 4.16 1.738 4.927 3.653 8.633 21.53 1.643 7.924 3.2 14.619 3.459 14.878.626.627 7.78-1.125 20.298-4.971l10.25-3.149-.015-6.583c-.022-9.312-.576-9.885-7.147-7.389-5.223 1.984-5.353 2.13-6.025 6.804-1.233 8.58-3.902 8.372-7.765-.607-4.11-9.555-6.382-22.369-6.468-36.483-.099-16.209-.022-16.337 9.763-16.328 9.204.01 13.844-1.276 41.396-11.464 12.519-4.63 24.561-8.909 26.761-9.51 9.718-2.657 18.5.097 18.5 5.8 0 2.322-1.245 4.048-5.959 8.265-7.949 7.11-9.048 11.096-9.765 35.397l-.532 18.066 15.378-.04c15.23-.04 15.484-.004 26.378 3.737 24.645 8.464 32.467 17.632 24.931 29.22-7.962 12.242-43.102 30.468-58.693 30.44-10.515-.017-38.206-7.696-51.043-14.154l-5.806-2.92-3.02 2.542c-2.128 1.79-4.199 2.542-6.995 2.542-5.592 0-9.747 2.449-11.565 6.816-2.314 5.557-4.184 6.247-10.04 3.701zm17.748-21.526c5.49-2.755 9.982-5.624 9.982-6.375 0-.751.281-2.772.625-4.491.515-2.576.308-3.125-1.178-3.125-2.304 0-24.673 6.92-25.782 7.975-1.196 1.138 4.192 11.025 6.008 11.025.2 0 4.855-2.254 10.345-5.01zm61.266 1.552c17.163-4.99 29.023-11.798 33.315-19.121 3.096-5.283 3.042-7.956-.203-10.082-2.37-1.552-3.657-1.593-14.25-.454-16.86 1.814-15.707 1.233-15.3 7.719.43 6.853-.986 10.385-5.966 14.884-5.564 5.027-9.46 4.861-13.84-.589-3.863-4.806-5.358-4.798-15.384.087-5.364 2.612-12.656 8.063-12.656 9.458 0 .74 15.492 1.316 26 .968 6.435-.214 12.334-1.14 18.284-2.87zm-31.553-13.93c10.893-3.963 14.269-5.983 14.269-8.537 0-1.834-.197-1.835-8.401-.042-17.005 3.716-16.6 3.52-16.6 8.005 0 2.178.338 3.955.75 3.947.413-.008 4.905-1.526 9.982-3.373zm-1.295-19.551c3.885-1.066 8.997-2.439 11.36-3.051l4.297-1.113-.297-6.2-.296-6.198-3 .27c-9.448.847-19.743 2.726-20.034 3.656-.897 2.871-.96 14.574-.078 14.574.541 0 4.163-.872 8.048-1.938zm-20.296-24.094c-.198-4.108-.508-7.628-.69-7.824-.18-.196-2.38.428-4.89 1.386l-4.56 1.742v14.513l5.25-1.175 5.25-1.174-.36-7.468zm21.782.402c3.532-.822 8.032-1.355 10-1.185l3.578.31.707-6.412c.39-3.527.539-6.685.332-7.02-.459-.742-20.014.494-21.405 1.354-.547.338-1.288 3.195-1.646 6.349-.359 3.154-.892 6.59-1.185 7.635-.43 1.528-.167 1.76 1.331 1.182 1.026-.396 4.756-1.392 8.288-2.213zm-26.071-13.468c3.063-1.068 3.149-1.262 3.149-7.14v-6.04l-5.136.608c-2.824.334-5.266.739-5.427.9-.16.16-.037 3.098.275 6.53.62 6.843 1.155 7.228 7.139 5.142zm32.77-7.58l9.122-.55.579-5.602c.318-3.082.427-5.754.243-5.938-.396-.396-25.44 4.31-26.02 4.89-.218.217.122 2.337.756 4.71 1.05 3.934 1.374 4.258 3.675 3.677 1.388-.351 6.629-.885 11.646-1.187zm-70.823-15.34c-15.835-1.807-21.923-5.25-22.166-12.532l-.132-3.95 30-.675c16.5-.372 31.962-.969 34.36-1.328 4.23-.633 4.34-.743 3.75-3.7-.336-1.676-.61-3.38-.61-3.786 0-.406-1.803-1.989-4.007-3.516l-4.007-2.777 8.295-8.609c4.562-4.735 10.029-11.422 12.149-14.859 2.12-3.438 4.203-6.25 4.63-6.25 1.215 0 4.653 6.162 5.393 9.666.937 4.434-.824 10.097-4.939 15.885-2.517 3.54-3.514 6.008-3.514 8.696 0 4.304.312 4.387 7.694 2.06 5.067-1.597 5.538-2.035 8.335-7.75 4.548-9.29 5.563-15.987 3.51-23.17-.925-3.238-2.775-7.565-4.11-9.616-1.336-2.05-2.43-4.075-2.43-4.5.001-1.965 17.532-14.263 20.341-14.268 2.843-.005 9.319 5.092 11.604 9.133 5.048 8.928 1.144 20.178-12.724 36.662-2.451 2.914-4.291 5.452-4.089 5.64.203.188 3.744-.973 7.869-2.58 4.125-1.606 15.6-5.685 25.5-9.064 14.014-4.784 19.329-6.151 24-6.177 10.756-.06 17.594 5.491 14.67 11.909-2.308 5.065-13.718 7.95-37.344 9.443-19.084 1.205-25.676 3.111-56.326 16.287-30.674 13.185-32.899 13.868-46.5 14.267-6.325.186-14.966-.057-19.202-.54zm112.149-98.497c-7.193-1.747-19.614-6.69-28.416-11.307-8.623-4.523-18.226-13.364-21.951-20.209-4.979-9.147-5.555-13.312-5.568-40.219-.01-20.06-.267-24.75-1.357-24.75-2.91 0-4.393 3.54-5.027 12-1.62 21.59-9.034 34.19-28.099 47.751-10.313 7.336-27.27 16.169-37.872 19.728-11.084 3.72-13.13 1.806-3.336-3.125 10.36-5.216 27.355-17.237 33.02-23.356 3.147-3.399 7.02-8.75 8.605-11.891 2.736-5.421 6.63-16.975 5.896-17.5-.188-.136-2.213-.783-4.5-1.439-5.168-1.483-10.342-7.048-10.342-11.123 0-2.436.5-2.996 3.21-3.591 6.597-1.45 11.79-4.29 11.79-6.45 0-3.14-2.53-8.536-6.061-12.93-3.009-3.744-3.152-4.307-2.776-10.957.218-3.855.677-7.29 1.02-7.634 1.084-1.084 17.419 2.65 21.452 4.905 3.403 1.901 3.965 2.754 4.7 7.136.46 2.737 1.031 5.987 1.27 7.223l.432 2.247 3.469-2.247c2.758-1.787 3.472-2.901 3.481-5.441.01-1.9.968-4.305 2.372-5.937l2.36-2.743 3.291 2.084 3.291 2.084 6.817-4.37c8.901-5.705 17.788-10.424 19.633-10.424 2.604 0 13.276 6.243 15.8 9.243 2.908 3.456 3.248 8.815.72 11.343-4.083 4.083-10.359 5.75-24.155 6.415-11.617.56-13.57.9-14.794 2.572-5.443 7.438-6.49 28.602-2.04 41.262 3.524 10.031 8.158 17.388 14.897 23.65 5.676 5.275 12.523 8.548 17.749 8.483 3.595-.044 16.032-6.913 18.414-10.17 1.971-2.695 1.971-2.715-.112-8.5-1.148-3.189-3.726-9.751-5.727-14.583-2.002-4.831-3.87-10.456-4.15-12.5-.446-3.247.077-2.644 4.144 4.785 8.635 15.768 11.143 18.263 25.11 24.973 22.467 10.795 26.895 18.377 18.305 31.345-8.204 12.387-27.397 18.434-44.965 14.167z" fill="#a55357"/><path d="M61.692 444.832c-23.27-3.927-42.663-17.55-52.844-37.12-2.228-4.28-4.936-11.247-6.019-15.48-1.918-7.5-1.968-11.83-1.968-168.877 0-157.673.043-161.352 1.993-169.09 3.273-12.991 8.252-21.683 17.994-31.41C30.57 13.146 37.15 8.945 49.6 4.49l8.76-3.135h241l7.466 2.344c25.342 7.958 42.865 25.635 49.718 50.156 1.722 6.16 1.817 15.02 1.817 169 0 182.575.643 167.027-7.603 183.85-7.21 14.71-21.799 27.784-37.762 33.845-13.901 5.278-12.952 5.242-134.135 5.152-61.875-.045-114.601-.437-117.17-.87zm240.759-4.97c13.148-3.312 21.642-8.218 32.013-18.49 7.289-7.22 9.913-10.653 13.173-17.23 7.79-15.716 7.32-3.349 7.005-184.287l-.281-161.5-2.68-7.335c-3.957-10.834-8.412-17.726-17.018-26.33-6.14-6.14-9.58-8.62-17-12.265-17.657-8.67-7.36-8.07-138.302-8.07h-116l-7.955 2.303c-11.86 3.434-20.733 8.553-29.94 17.274-9.229 8.742-14.403 16.744-18.38 28.423l-2.725 8-.301 157.5c-.217 113.62.015 159.715.834 165.45 3.844 26.926 24.267 49.48 51.196 56.535 6.942 1.819 12.503 1.907 122.86 1.96 112.236.053 115.82-.003 123.5-1.938zM128.117 395.21c-4.335-2.137-6.844-6.475-8.92-15.425-.95-4.086-1.84-7.595-1.981-7.797-.141-.202-4.165.408-8.942 1.356-9.803 1.945-15.07 1.504-20.244-1.694-4.017-2.482-7.537-9.48-6.616-13.152.575-2.288.835-2.372 4.28-1.385 4 1.146 26.602 1.638 27.64.601.353-.352-.51-6.543-1.916-13.756-2.158-11.07-3.429-26.103-2.206-26.103.193 0 1.731.481 3.419 1.07 4.165 1.452 5.621 4.935 9.154 21.896 1.633 7.844 3.188 14.479 3.454 14.745.72.72 9.852-1.363 20.872-4.762l9.75-3.007v-7.503c0-8.817-.557-9.31-7.566-6.708-4.74 1.76-4.922 1.976-5.725 6.793-1.057 6.342-1.962 7.194-4.617 4.345-4.931-5.294-10.502-30.523-9.933-44.986.452-11.492 1.544-12.79 10.695-12.722 8.462.064 14.829-1.628 35.742-9.496 36.42-13.701 42.344-14.888 47.966-9.607 3.74 3.514 3.06 5.737-3.652 11.948-7.91 7.319-8.907 11.01-9.622 35.588l-.526 18.095 14.37-.082c16.393-.094 24.013 1.553 38.415 8.302 12.77 5.984 17.675 12.252 15.902 20.323-2.257 10.273-35.309 30.697-55.19 34.102-5.578.956-7.892.804-17.421-1.144-13.361-2.73-27.828-7.252-37.689-11.779-7.574-3.477-9.194-3.472-12.104.034-.85 1.024-2.983 1.555-6.245 1.555-4.118 0-5.405.471-7.627 2.792-1.47 1.535-3.44 4.235-4.377 6-1.906 3.59-3.745 3.927-8.54 1.563zm28.111-30.827c.477-2.545.658-4.836.403-5.091-1.001-1.002-27.262 8.162-27.54 9.61-.157.811 1.087 3.639 2.764 6.283l3.05 4.809 10.228-5.492 10.228-5.492.867-4.627zm50.633 11.405c8.22-2.34 22.262-8.56 27.102-12.006 4.655-3.315 8.898-9.73 8.898-13.456 0-5.174-3.601-6.124-17.463-4.603-16.094 1.765-15.086 1.224-14.76 7.931.33 6.785-2.343 12.318-7.69 15.921-4.939 3.329-7.461 2.941-11.207-1.72-1.768-2.2-3.927-4.005-4.798-4.01-3.919-.025-14.535 4.765-19.802 8.934l-5.78 4.576 9 .629c14.402 1.006 28.152.179 36.5-2.196zm-30.132-14.531c11.139-4.001 12.631-4.896 13.598-8.152.809-2.722 1.688-2.76-12.966.573l-12 2.73-.308 4.224c-.169 2.323.135 4.223.675 4.223s5.491-1.62 11.001-3.598zm2.132-20.416l11.5-3.21-.338-6.448c-.335-6.38-.367-6.443-3-5.946-1.464.276-6.633 1.029-11.487 1.674-4.854.644-8.982 1.683-9.174 2.308-.192.625-.55 4.416-.794 8.426-.314 5.129-.114 7.159.674 6.848.615-.242 6.294-1.886 12.619-3.652zm-27-14.979c2.426-.649 2.49-.888 2.14-8.088-.198-4.08-.507-7.578-.688-7.773-.18-.195-2.268.291-4.64 1.08l-4.312 1.434-.293 7.7-.292 7.7 2.792-.693c1.536-.38 3.918-.992 5.293-1.36zm24.963-7.6c3.555-.853 7.942-1.272 9.75-.933 3.245.609 3.287.569 3.298-3.179.01-2.087.287-5.468.625-7.513l.615-3.718-4.876.451c-2.681.248-7.865.714-11.518 1.036l-6.644.585-.68 5.682c-.375 3.125-.94 6.764-1.255 8.087-.512 2.148-.316 2.333 1.824 1.728 1.32-.373 5.306-1.375 8.861-2.227zm-28.963-12.779l4.5-1.341.301-6.289.302-6.289-5.187.615c-2.853.337-5.342.769-5.532.958-.29.29.702 13.747 1.01 13.703.058-.008 2.13-.619 4.606-1.357zm35.122-8.28l8.622-.58.578-5.6c.318-3.081.433-5.746.255-5.924-.465-.465-24.945 3.973-25.763 4.671-.377.322-.162 2.533.478 4.915 1.108 4.121 1.31 4.3 4.186 3.715 1.662-.339 6.902-.877 11.644-1.197zm-70.827-15.474c-11.822-1.24-18.239-3.613-21.022-7.772-2.983-4.459-2.993-7.918-.023-8.52 1.237-.25 15.525-.724 31.75-1.053 16.225-.329 30.776-.867 32.336-1.196 2.645-.559 2.793-.843 2.186-4.216-.441-2.449-1.84-4.633-4.334-6.763l-3.683-3.146 9.032-9.354c4.968-5.145 10.415-11.757 12.104-14.694l3.072-5.34 2.144 2.725c1.179 1.5 2.66 4.45 3.292 6.557 1.393 4.652-.538 10.633-5.557 17.212-2.71 3.55-3.132 4.84-2.782 8.5.255 2.672.846 4.155 1.551 3.896.626-.23 3.543-1.21 6.481-2.175 5.148-1.693 5.464-2.01 8.69-8.743 5.77-12.038 5.417-22.693-1.066-32.246l-2.577-3.799 2.218-2.36c3.101-3.302 16.418-12.387 18.156-12.387 2.306 0 9.63 5.776 11.766 9.28 2.25 3.69 2.618 11.126.763 15.423-2.035 4.714-7.76 13.455-13.456 20.547-2.982 3.712-5.14 6.75-4.796 6.75.345 0 9.702-3.322 20.793-7.382 11.092-4.06 24.087-8.399 28.877-9.641 7.812-2.026 9.191-2.125 13.367-.955 5.711 1.599 10.423 5.392 10.423 8.393 0 1.23-1.019 3.193-2.264 4.363-5.079 4.771-13.44 6.648-36.236 8.135-19.212 1.253-25.509 3.089-57.23 16.679-13.624 5.836-28.105 11.466-32.18 12.51-7.925 2.03-17.568 2.264-31.795.772zm111.652-98.39c-7.193-1.746-19.614-6.689-28.416-11.306-8.623-4.523-18.226-13.364-21.951-20.209-4.979-9.147-5.555-13.312-5.568-40.219-.01-20.06-.267-24.75-1.357-24.75-2.91 0-4.393 3.54-5.027 12-1.62 21.59-9.034 34.19-28.099 47.751-10.313 7.336-27.27 16.169-37.872 19.728-11.084 3.72-13.13 1.806-3.336-3.125 10.36-5.216 27.355-17.237 33.02-23.356 3.147-3.399 7.02-8.75 8.605-11.891 2.736-5.421 6.63-16.975 5.896-17.5-.188-.136-2.213-.783-4.5-1.439-5.168-1.483-10.342-7.048-10.342-11.123 0-2.436.5-2.996 3.21-3.591 6.597-1.45 11.79-4.29 11.79-6.45 0-3.14-2.53-8.536-6.061-12.93-3.009-3.744-3.152-4.307-2.776-10.957.218-3.855.677-7.29 1.02-7.634 1.084-1.084 17.419 2.65 21.452 4.905 3.403 1.901 3.965 2.754 4.7 7.136.46 2.737 1.031 5.987 1.27 7.223l.432 2.247 3.469-2.247c2.758-1.787 3.472-2.901 3.481-5.441.01-1.9.968-4.305 2.372-5.937l2.36-2.743 3.291 2.084 3.291 2.084 6.817-4.37c8.901-5.705 17.788-10.424 19.633-10.424 2.604 0 13.276 6.243 15.8 9.243 2.908 3.456 3.248 8.815.72 11.343-4.083 4.083-10.359 5.75-24.155 6.415-11.617.56-13.57.9-14.794 2.572-5.443 7.438-6.49 28.602-2.04 41.262 3.524 10.031 8.158 17.388 14.897 23.65 5.676 5.275 12.523 8.548 17.749 8.483 3.595-.044 16.032-6.913 18.414-10.17 1.971-2.695 1.971-2.715-.112-8.5-1.148-3.189-3.726-9.751-5.727-14.583-2.002-4.831-3.87-10.456-4.15-12.5-.446-3.247.077-2.644 4.144 4.785 8.635 15.768 11.143 18.263 25.11 24.973 22.467 10.795 26.895 18.377 18.305 31.345-8.204 12.387-27.397 18.434-44.965 14.167z" fill="#871a1f"/><path d="M60.36 444.392c-26.906-5.04-47.274-22.489-56.658-48.537l-2.341-6.5-.281-163C.766 44.402.33 56.419 7.818 41.209 16.755 23.055 31.376 10.744 52.36 3.704l7-2.349 116.987-.274C303.52.783 300.01.649 313.984 6.327c20.448 8.309 36.784 26.908 42.622 48.528 1.64 6.072 1.755 17.17 1.755 168.5 0 153.707-.093 162.333-1.823 168.5-5.783 20.621-19.273 36.876-38.177 46.002-16.546 7.987-6.15 7.401-135.5 7.636-91.752.167-116.94-.06-122.5-1.101zm242.878-4.506c12.018-3.073 22.765-9.205 31.573-18.012 8.464-8.464 12.929-15.394 16.87-26.184l2.68-7.335.267-161.73c.3-180.78.732-169.197-6.889-184.77-5.837-11.93-17.777-23.808-29.878-29.724-16.91-8.267-6.777-7.653-132.5-8.032-77.528-.234-114.575 0-120.365.762C41.822 7.906 22.116 21.238 12 40.716c-8.293 15.967-7.64.323-7.64 183.139v162.5l2.714 8c7.806 23.005 25.434 39.43 48.786 45.455 7.2 1.857 12.145 1.937 123.59 1.99 112.294.053 116.342-.01 123.787-1.914zm-79.194-256.53c-20.15-5.664-38.17-15.75-46.403-25.968-8.754-10.866-9.207-12.96-9.576-44.283-.177-14.988-.633-27.235-1.013-27.217-.38.019-1.63.818-2.776 1.776-1.717 1.436-2.197 3.324-2.725 10.717-1.59 22.255-10.58 36.406-32.161 50.624-15.63 10.297-40.462 21.317-42.79 18.99-.636-.637.547-1.752 3.392-3.197 10.199-5.181 28.264-17.498 33.836-23.07 7.022-7.023 12.243-15.875 14.458-24.517 1.926-7.513 1.925-7.356.035-7.356-3.043 0-9.577-4.144-11.496-7.29-3.532-5.794-2.849-6.976 5.536-9.579 6.876-2.134 7.498-2.549 7.478-4.98-.028-3.417-3.251-10.498-6.576-14.45-2.357-2.8-2.57-3.74-2.224-9.845.21-3.712.647-7.014.972-7.34.848-.848 18.159 3.075 21.74 4.928 3.063 1.583 5.074 6.123 5.12 11.556.037 4.41 1.198 5.104 4.764 2.846 2.585-1.637 3.226-2.707 3.226-5.388 0-2.042.889-4.38 2.28-5.998l2.281-2.651 3.47 2.045 3.469 2.045 8-5.012c4.4-2.756 10.198-6.147 12.884-7.534 4.786-2.472 4.97-2.49 9.222-.866 2.386.911 6.6 3.691 9.366 6.178 4.128 3.712 5.028 5.117 5.028 7.855 0 2.447-.732 3.91-2.75 5.498-5.229 4.114-9.397 5.189-22.75 5.87-7.15.364-13.534.997-14.185 1.406-2.266 1.422-5.443 12.14-5.977 20.163-1.405 21.105 10.4 44.858 25.875 52.062 7.293 3.395 10.958 3.159 19.655-1.268 9.77-4.974 10.916-6.719 8.896-13.554-.845-2.858-3.328-9.478-5.519-14.71-6.304-15.06-6.395-18.18-.217-7.487 8.687 15.038 10.347 16.607 25.961 24.53 18.465 9.369 22.746 14.234 20.15 22.9-2.458 8.202-10.862 16.392-20.963 20.428-6.325 2.526-20.012 3.106-26.993 1.144z" fill="#010101"/></svg>