<svg xmlns="http://www.w3.org/2000/svg" width="358.791" height="445.454"><path d="M55.268 443.605c-25.244-6.208-44.947-24.616-52.56-49.105L.376 387V223.5c0-133.137.248-164.521 1.338-169 2.187-8.989 9.63-23.07 15.792-29.88C27.446 13.635 41.01 5.495 55.646 1.73 61.84.138 71.696 0 179.376 0s117.536.138 123.73 1.731c21.52 5.535 39.143 19.49 48.325 38.269 7.989 16.338 7.537 4.68 7.224 186.5l-.279 161.5-2.715 8c-6.602 19.457-19.45 33.735-38.285 42.546-15.58 7.29-8.994 6.962-138.697 6.88-107.186-.067-116.86-.21-123.411-1.821zm248.108-4.485c24.738-7.457 42.866-25.631 48.953-49.08 1.365-5.259 1.547-24.879 1.547-166.7 0-111.56-.332-162.363-1.084-166.04-.597-2.915-3.122-9.545-5.611-14.733-7.86-16.375-22.572-28.872-41.722-35.437-6.008-2.06-7.51-2.089-122.583-2.392-131.494-.346-123.874-.749-140.933 7.45-12.893 6.198-23.81 16.908-29.89 29.324-7.726 15.776-7.177 1.933-7.177 181.038 0 156.691.048 160.82 1.975 168.354 6.622 25.889 29.715 45.92 57.525 49.896 1.65.235 54.75.36 118 .278 107.808-.14 115.375-.263 121-1.958zm-99.5-43.742c-11.734-2.534-31.594-8.96-39.152-12.669l-5.653-2.773-3.181 2.843c-2.477 2.213-3.798 2.708-5.96 2.233-4.391-.965-9.509 2.043-11.692 6.87-2.094 4.632-5.293 5.718-10.495 3.563-4.237-1.755-6.565-5.642-9.036-15.087-1.202-4.597-2.24-8.454-2.305-8.571-.065-.117-2.573.44-5.573 1.238-17.116 4.555-29.939-1.178-29.95-13.392-.003-4.258.065-4.35 2.747-3.702 1.512.365 8.713.926 16 1.247 10.884.479 13.25.336 13.246-.798-.002-.759-1.116-7.005-2.476-13.88-4.09-20.673-3.302-27.044 2.99-24.177 3.985 1.815 5.33 5.139 8.644 21.343l3.18 15.56 6.448-1.47c13.735-3.134 23.722-6.743 23.635-8.543a616.33 616.33 0 0 1-.25-7.647l-.167-5.935-6 2.026c-5.633 1.903-6 2.22-6.014 5.185-.023 5.492-1.041 7.793-3.3 7.46-6.002-.884-13.991-33.79-12.22-50.33.953-8.896 2.906-10.946 9.585-10.06 6.79.901 16.027-1.429 37.365-9.424 26.834-10.054 37.828-13.352 41.938-12.581 5.089.954 8.646 4.14 8.646 7.742 0 2.992-1.444 4.825-8.684 11.021-4.439 3.8-6.364 13.04-7.049 33.83L208.6 333l16.388.049c15.24.045 16.948.243 24.388 2.816 12.272 4.245 20.103 8.48 24.498 13.25 3.528 3.826 4.002 4.918 4.002 9.213 0 3.784-.645 5.762-2.888 8.858-8.39 11.584-39.492 28.043-56.112 29.697-3.661.364-8.676-.139-15-1.505zm-48.188-31.793c.36-4.928 2.133-5.006-15.46.68-12.227 3.952-11.961 3.584-7.626 10.544l2.373 3.808 10.2-5.387 10.201-5.387.312-4.258zm49.77 11.363c19.877-5.76 30.89-12.23 35.252-20.712 2.367-4.601 2.39-4.832.653-6.75-2.138-2.363-8.082-2.598-21.67-.855l-8.817 1.13v6.673c0 5.842-.374 7.18-3.004 10.757-3.425 4.657-9.052 7.763-12.498 6.898-1.283-.322-3.287-2.13-4.453-4.017-1.167-1.887-2.666-3.618-3.333-3.848-1.28-.441-9.9 2.253-13.864 4.333-1.292.678-4.114 2.617-6.273 4.31-3.875 3.039-3.894 3.087-1.5 3.756 1.334.373 8.787.723 16.563.777 12.374.088 15.237-.218 22.944-2.452zm-19.387-18.483c2.565-1.176 4.387-3.716 3.384-4.719-.257-.257-5.629.733-11.938 2.2-11.76 2.735-12.641 3.298-12.641 8.093v2.375l9.25-3.356c5.087-1.846 10.463-3.913 11.945-4.593zm-6.374-16.809L190.02 337l-.572-2.875c-.314-1.581-.571-4.227-.571-5.879v-3.004l-5.25.67c-2.888.369-8.063 1.148-11.5 1.732l-6.25 1.061v7.505c0 6.747.177 7.433 1.75 6.803.963-.385 6.395-1.895 12.071-3.357zm-29.571-14.209c4.124-1.145 4.382-2.059 3.137-11.143l-.614-4.475-4.386 1.578-4.387 1.577v6.758c0 7.39.043 7.43 6.25 5.705zm23.159-7.458c2.7-.819 7.268-1.489 10.152-1.489h5.243l.703-6.061c.387-3.334.462-6.303.167-6.599-.296-.295-4.857-.213-10.135.183-7.691.576-9.787 1.072-10.548 2.493-1.337 2.499-2.452 12.986-1.379 12.973.489-.006 3.097-.68 5.797-1.5zm-23.038-14.08c2.842-.68 2.865-.745 2.218-6.247-.36-3.058-.751-5.616-.871-5.685-.12-.068-2.307.063-4.86.291l-4.643.416.455 4.158c.835 7.638 1.275 8.808 3.113 8.262.944-.28 3.01-.818 4.588-1.195zm35.88-8.238c3.013.209 4.75-.077 4.75-.781 0-.611.282-3.179.629-5.706l.63-4.594-3.38.874c-1.86.48-7.725 1.631-13.035 2.556l-9.655 1.682 1.45 4.255 1.45 4.255 6.205-1.435c3.413-.789 8.343-1.287 10.956-1.106zm-78.132-14.202c-13.923-2.024-19.119-5.569-19.119-13.046 0-2.158.113-3.974.25-4.035.138-.062 15.218-.442 33.511-.845 18.294-.403 33.536-1.006 33.87-1.341.335-.335.32-2.154-.035-4.043-.45-2.396-1.694-4.149-4.113-5.797-1.908-1.299-3.472-2.768-3.476-3.264-.004-.496 3.949-4.996 8.784-10 4.835-5.004 10.279-11.704 12.097-14.89 3.737-6.545 4.661-6.472 8.295.651 3.1 6.076 2.148 12.266-3.043 19.788-4.041 5.856-4.943 9.04-3.296 11.635.642 1.011 2.007.824 6.476-.886 5.118-1.958 5.898-2.664 8.107-7.334 3.498-7.394 4.925-13.941 4.26-19.55-.585-4.948-3.584-11.985-6.554-15.38-1.543-1.763-1.348-2.122 3.538-6.5 2.843-2.547 7.67-6.143 10.727-7.99l5.557-3.359 4.45 2.608c8.514 4.99 11.606 11.511 9.635 20.319-1.142 5.107-8.094 16.653-15.696 26.07l-2.648 3.282 8.402-3.157c21.562-8.1 40.493-14.148 45.794-14.629 10.008-.907 18.108 3.173 18.108 9.122 0 7.504-9.755 11.089-34.498 12.677-23.756 1.526-26.543 2.311-62.08 17.494-13.244 5.658-26.81 10.995-30.145 11.86-6.515 1.688-27.19 1.988-37.158.54zm24.28-115.565c-13.275-7.034-27.076-21.872-47.56-51.134-8.312-11.874-10.738-16.048-10.261-17.66 1.926-6.514 8.905-5.468 19.997 3l4.842 3.695 17.041-4.33c9.373-2.38 27.61-7.174 40.528-10.652 12.917-3.478 24.49-6.323 25.715-6.323 1.303 0 2.708-.935 3.382-2.25 2.11-4.116 8.247-9.75 10.62-9.75 2.282 0 10.297 7.006 10.297 9 0 .55 2.362 1.003 5.25 1.006 11.726.013 29.533 3.586 42.952 8.619 16.508 6.19 29.694 18.796 29.776 28.465.052 6.143-5.974 14.925-19.895 28.994-16.992 17.173-20.54 19.212-33.583 19.307-12.463.09-17.92-2.526-15.955-7.648.823-2.143-10.766-4.084-24.723-4.14-8.737-.035-11.024.27-12.579 1.677-2.327 2.106-3.65 2.222-2.894.254.674-1.758-2.343-1.387-12.46 1.532-9.466 2.73-14.522 5.198-16.93 8.26-2.745 3.49-7.076 3.514-13.56.078zm105.3-30.767c7.873-8.318 11.301-13.592 11.301-17.388 0-2.558-4.988-9.375-9.224-12.606-5.805-4.428-13.99-7.57-21.934-8.422l-7.543-.808-3.706 11.261c-2.039 6.194-6.113 16.165-9.055 22.159l-5.348 10.896 11.155.504c11.279.51 16.937 1.988 19.517 5.1 1.257 1.516 1.576 1.491 4.114-.316 1.513-1.078 6.339-5.749 10.723-10.38zm-83.011 10.009c.229-.23-.282-6.749-1.136-14.488-.854-7.74-1.552-16.4-1.552-19.246v-5.174l-3.75.64c-3.49.595-31.388 4.198-37.456 4.837-2.459.259-1.044 1.86 15.5 17.538l18.206 17.252 4.886-.471c2.687-.26 5.073-.66 5.302-.888zm20.005-3.211l5.193-.678 1.094-5.1c1.291-6.02 3.65-35.36 2.903-36.108-.284-.283-5.05.501-10.59 1.744l-10.075 2.26 2.347 2.727c3.61 4.197 3.946 8.711 1.753 23.493l-1.982 13.36 2.082-.51c1.145-.282 4.419-.816 7.275-1.188z" fill="#e0c5c6"/><path d="M55.268 443.605c-25.244-6.208-44.947-24.616-52.56-49.105L.376 387V223.5c0-133.137.248-164.521 1.338-169 2.187-8.989 9.63-23.07 15.792-29.88C27.446 13.635 41.01 5.495 55.646 1.73 61.84.138 71.696 0 179.376 0s117.536.138 123.73 1.731c21.52 5.535 39.143 19.49 48.325 38.269 7.989 16.338 7.537 4.68 7.224 186.5l-.279 161.5-2.715 8c-6.602 19.457-19.45 33.735-38.285 42.546-15.58 7.29-8.994 6.962-138.697 6.88-107.186-.067-116.86-.21-123.411-1.821zm248.108-4.485c24.738-7.457 42.866-25.631 48.953-49.08 1.365-5.259 1.547-24.879 1.547-166.7 0-111.56-.332-162.363-1.084-166.04-.597-2.915-3.122-9.545-5.611-14.733-7.86-16.375-22.572-28.872-41.722-35.437-6.008-2.06-7.51-2.089-122.583-2.392-131.494-.346-123.874-.749-140.933 7.45-12.893 6.198-23.81 16.908-29.89 29.324-7.726 15.776-7.177 1.933-7.177 181.038 0 156.691.048 160.82 1.975 168.354 6.622 25.889 29.715 45.92 57.525 49.896 1.65.235 54.75.36 118 .278 107.808-.14 115.375-.263 121-1.958zm-91.5-42.306c-15.412-2.68-36.98-9.263-47.155-14.395-4.992-2.518-5.804-2.674-6.918-1.331-1.987 2.394-5.186 3.795-8.172 3.58-5.225-.378-9.62 2.35-11.736 7.288-1.775 4.14-2.255 4.544-5.407 4.544-3.87 0-8.832-3.546-11.009-7.87-.728-1.446-2.114-5.906-3.08-9.91-1.406-5.84-2.077-7.184-3.388-6.788-19.8 5.979-34.135.765-34.135-12.417 0-4.135.073-4.23 2.75-3.556 1.512.38 8.874.932 16.36 1.226l13.61.534-2.839-14.36c-4.398-22.257-3.798-27.965 2.635-25.034 3.633 1.656 5.323 5.955 8.642 21.99 1.672 8.077 3.13 14.783 3.242 14.903.346.372 18.8-4.519 24.6-6.52l5.5-1.897-.356-7.4c-.196-4.07-.475-7.53-.619-7.686-.144-.157-2.796.663-5.894 1.822-5.461 2.043-5.631 2.22-5.631 5.844 0 2.055-.634 4.604-1.41 5.665-1.378 1.885-1.455 1.886-3.479.055-5.13-4.643-10.313-25.86-10.489-42.937-.122-11.82-.118-11.84 2.711-14.273 2.434-2.094 3.491-2.352 7.5-1.827 6.719.88 14.808-1.296 41.294-11.111 12.743-4.722 25.95-9.315 29.351-10.207 6.112-1.603 6.239-1.594 11.102.816 4.14 2.052 4.968 2.933 5.224 5.56.264 2.718-.481 3.822-5.754 8.518-5.701 5.079-6.148 5.807-7.601 12.378-.85 3.84-1.81 14.632-2.134 23.982l-.59 17 15.888.033c14.732.03 16.505.24 24.387 2.868 19.781 6.596 29 13.78 29 22.599 0 4.37-2.056 7.844-7.85 13.262-15.138 14.161-45.516 27.248-58.15 25.052zm-65.995-23.564l9.954-5.25.02-4.25c.012-2.337-.301-4.25-.695-4.25-1.632 0-26.284 8.108-26.284 8.645 0 1.335 5.387 10.355 6.184 10.355.477 0 5.346-2.362 10.821-5.25zm64.718.478c17.793-6.118 27.027-12.148 30.449-19.883 2.061-4.66 1.641-6.952-1.453-7.934-2.795-.887-11.016-.649-19.395.563-3.753.542-7.386.995-8.074 1.006-.86.014-1.25 1.907-1.25 6.07 0 3.327-.652 7.31-1.449 8.851-1.723 3.333-7.563 8.65-10.534 9.594-2.418.767-6.388-1.45-8.005-4.472-.582-1.087-1.862-2.408-2.846-2.934-2.62-1.402-14.11 2.893-20.26 7.574L162.738 376l2.819.68c1.55.374 10.243.577 19.318.45 15.617-.22 16.994-.401 25.723-3.402zm-22.745-18.423c2.287-2.13 2.63-3.815.772-3.784-3.842.065-22.118 4.95-22.851 6.108-.478.754-.875 2.588-.884 4.075l-.015 2.705 10.479-3.61c5.763-1.986 11.388-4.458 12.5-5.494zm-8.747-15.44l10.73-2.845-.62-5.51c-.34-3.03-.752-5.669-.916-5.862-.327-.39-16.597 1.642-20.175 2.518-2.084.51-2.25 1.104-2.25 8.026 0 5.568.319 7.353 1.25 6.996.688-.263 6.079-1.759 11.98-3.323zm-28.981-14.418c4.13-1.147 4.383-2.052 3.127-11.214l-.623-4.546-4.377 1.622-4.377 1.622v6.785c0 7.419.04 7.456 6.25 5.731zm23.75-7.447c3.025-.812 7.579-1.482 10.12-1.488 4.557-.012 4.627-.062 5.238-3.762.341-2.062.625-5.05.631-6.637l.011-2.887-9.75.701c-5.363.386-10.284 1.235-10.936 1.887-1.428 1.427-2.946 13.691-1.693 13.674.483-.007 3.354-.676 6.379-1.488zm-23.625-14.092c2.827-.676 2.866-.781 2.312-6.153-.31-3.006-.704-5.564-.876-5.684-.17-.12-2.447-.028-5.057.206l-4.746.424.56 4.15c1.069 7.941 1.4 8.792 3.215 8.253.944-.28 3.011-.818 4.592-1.196zm26.933-7.568c2.647-.567 6.77-.876 9.162-.686 4.28.34 4.359.29 4.929-3.154.318-1.925.584-4.437.59-5.583l.011-2.082-12.75 2.447c-7.013 1.346-12.88 2.563-13.037 2.704-.159.14.142 1.326.668 2.635.526 1.308 1.222 3.213 1.546 4.233.404 1.27 1.137 1.644 2.33 1.186.956-.367 3.904-1.132 6.551-1.7zm-69.808-14.94c-12.604-1.8-18.5-5.997-18.5-13.168 0-3.358.137-3.479 4.64-4.096 2.551-.35 14.139-.639 25.75-.642 11.61-.003 24.87-.299 29.465-.656l8.356-.65-.557-3.594c-.386-2.495-1.631-4.48-4.07-6.491l-3.515-2.897 7.638-8.103c4.2-4.457 9.788-11.39 12.416-15.406l4.779-7.303 2.589 3.913c4.952 7.483 4.322 14.354-2.083 22.746-3.34 4.375-4.659 10.556-2.533 11.87.481.297 3.293-.26 6.25-1.237 5.084-1.681 5.554-2.13 8.68-8.307 5.625-11.119 5.33-22.546-.837-32.268l-2.862-4.513 4.697-3.9c2.583-2.146 7.263-5.592 10.4-7.66l5.703-3.759 3.45 2.132c5.539 3.423 10.353 9.409 11.094 13.792 1.179 6.977-3.883 17.459-14.655 30.347l-5.705 6.827 6.705-2.582c17.386-6.693 44.581-15.478 49.476-15.984 9.383-.968 17.729 3.497 17.729 9.486 0 7.61-9.215 10.325-44.5 13.11-14.625 1.154-21.794 3.42-52.232 16.513-30.105 12.949-32.486 13.608-48.623 13.458-7.23-.067-15.845-.507-19.145-.978zm24.899-115.496c-13.275-7.034-27.076-21.872-47.56-51.134-8.312-11.874-10.738-16.048-10.261-17.66 1.926-6.514 8.905-5.468 19.997 3l4.842 3.695 17.041-4.33c9.373-2.38 27.61-7.174 40.528-10.652 12.917-3.478 24.49-6.323 25.715-6.323 1.303 0 2.708-.935 3.382-2.25 2.11-4.116 8.247-9.75 10.62-9.75 2.282 0 10.297 7.006 10.297 9 0 .55 2.362 1.003 5.25 1.006 11.726.013 29.533 3.586 42.952 8.619 16.508 6.19 29.694 18.796 29.776 28.465.052 6.143-5.974 14.925-19.895 28.994-16.992 17.173-20.54 19.212-33.583 19.307-12.463.09-17.92-2.526-15.955-7.648.823-2.143-10.766-4.083-24.723-4.14-8.737-.035-11.024.27-12.579 1.677-2.327 2.106-3.65 2.222-2.894.254.674-1.758-2.343-1.387-12.46 1.532-9.466 2.73-14.522 5.198-16.93 8.26-2.745 3.49-7.076 3.514-13.56.078zm105.3-30.767c7.873-8.318 11.301-13.592 11.301-17.388 0-2.558-4.988-9.375-9.224-12.606-5.805-4.428-13.99-7.57-21.934-8.422l-7.543-.808-3.706 11.261c-2.039 6.194-6.113 16.165-9.055 22.159l-5.348 10.896 11.155.504c11.279.51 16.937 1.988 19.517 5.1 1.257 1.516 1.576 1.491 4.114-.316 1.513-1.078 6.339-5.749 10.723-10.38zm-83.011 10.009c.229-.23-.282-6.749-1.136-14.488-.854-7.74-1.552-16.4-1.552-19.246v-5.174l-3.75.64c-3.49.595-31.388 4.198-37.456 4.837-2.459.259-1.044 1.86 15.5 17.538l18.206 17.252 4.886-.471c2.687-.26 5.073-.66 5.302-.888zm20.005-3.211l5.193-.678 1.094-5.1c1.291-6.02 3.65-35.36 2.903-36.108-.284-.283-5.05.501-10.59 1.744l-10.075 2.26 2.347 2.727c3.61 4.197 3.946 8.711 1.753 23.493l-1.982 13.36 2.082-.51c1.145-.282 4.419-.816 7.275-1.188z" fill="#bebebe"/><path d="M55.376 443.559C29.768 436.786 9.691 417.682 2.243 393 .534 387.338.413 378.009.096 227.5c-.247-117.097-.03-161.494.818-167 4.44-28.84 26.28-51.513 56.962-59.134C62.367.251 84.746 0 179.876 0h116.5l8 2.313C329.649 9.621 348.01 26.923 356.041 51l2.335 7 .27 160.979c.306 181.78.775 169.953-7.384 186.466-3.866 7.824-6.143 10.914-13.276 18.015-9.654 9.611-17.823 14.801-29.61 18.816l-8 2.724-119 .205c-113.001.195-119.353.112-126-1.646zm248-4.336c25.415-7.384 44.995-27.664 49.455-51.223.827-4.366 1.056-50.262.84-168.5L353.377 57l-2.224-6.5c-6.844-20.009-22.912-35.656-43.998-42.847L299.376 5h-240l-8 2.808c-11.042 3.875-20.283 9.58-27.71 17.108-7.416 7.515-11.93 14.671-15.61 24.75L5.375 57l-.265 163.418c-.295 182.413-.83 168.199 6.926 184.082 6.868 14.066 21.47 26.957 36.887 32.566 11.675 4.247 13.094 4.29 133.452 4.091 106.054-.175 115.467-.326 121-1.933zm-91.5-42.41c-15.412-2.678-36.98-9.262-47.155-14.394-4.992-2.518-5.804-2.674-6.918-1.331-1.987 2.394-5.186 3.795-8.172 3.58-5.225-.378-9.62 2.35-11.736 7.288-1.775 4.14-2.255 4.544-5.407 4.544-3.87 0-8.832-3.546-11.009-7.87-.728-1.446-2.114-5.906-3.08-9.91-1.406-5.84-2.077-7.184-3.388-6.788-19.8 5.979-34.135.765-34.135-12.417 0-4.135.073-4.23 2.75-3.556 1.512.38 8.874.932 16.36 1.226l13.61.534-2.839-14.36c-4.398-22.257-3.798-27.965 2.635-25.034 3.633 1.656 5.323 5.955 8.642 21.99 1.672 8.077 3.13 14.783 3.242 14.903.346.372 18.8-4.519 24.6-6.52l5.5-1.897-.356-7.4c-.196-4.07-.475-7.53-.619-7.686-.144-.157-2.796.663-5.894 1.822-5.461 2.043-5.631 2.22-5.631 5.844 0 2.055-.634 4.604-1.41 5.665-1.378 1.885-1.455 1.886-3.479.055-5.13-4.643-10.313-25.86-10.489-42.937-.122-11.82-.118-11.84 2.711-14.273 2.434-2.094 3.491-2.352 7.5-1.827 6.719.88 14.808-1.296 41.294-11.111 12.743-4.722 25.95-9.315 29.351-10.207 6.112-1.603 6.239-1.594 11.102.816 4.14 2.052 4.968 2.933 5.224 5.56.264 2.718-.481 3.822-5.754 8.518-5.701 5.079-6.148 5.807-7.601 12.378-.85 3.84-1.81 14.632-2.134 23.982l-.59 17 15.888.033c14.732.03 16.505.24 24.387 2.868 19.781 6.596 29 13.78 29 22.599 0 4.37-2.056 7.844-7.85 13.262-15.138 14.161-45.516 27.248-58.15 25.052zm-65.995-23.563l9.954-5.25.02-4.25c.012-2.337-.301-4.25-.695-4.25-1.632 0-26.284 8.108-26.284 8.645 0 1.335 5.387 10.355 6.184 10.355.477 0 5.346-2.362 10.821-5.25zm64.718.478c17.793-6.118 27.027-12.148 30.449-19.883 2.061-4.66 1.641-6.952-1.453-7.934-2.795-.887-11.016-.649-19.395.563-3.753.542-7.386.995-8.074 1.006-.86.014-1.25 1.907-1.25 6.07 0 3.327-.652 7.31-1.449 8.851-1.723 3.333-7.563 8.65-10.534 9.594-2.418.767-6.388-1.45-8.005-4.472-.582-1.087-1.862-2.408-2.846-2.934-2.62-1.402-14.11 2.893-20.26 7.574L162.738 376l2.819.68c1.55.374 10.243.577 19.318.45 15.617-.22 16.994-.401 25.723-3.402zm-22.745-18.423c2.287-2.13 2.63-3.815.772-3.784-3.842.065-22.118 4.95-22.851 6.108-.478.754-.875 2.588-.884 4.075l-.015 2.705 10.479-3.61c5.763-1.986 11.388-4.458 12.5-5.494zm-8.747-15.44l10.73-2.845-.62-5.51c-.34-3.03-.752-5.669-.916-5.862-.327-.39-16.597 1.642-20.175 2.518-2.084.51-2.25 1.104-2.25 8.026 0 5.568.319 7.353 1.25 6.996.688-.263 6.079-1.759 11.98-3.323zm-28.981-14.418c4.13-1.147 4.383-2.052 3.127-11.214l-.623-4.546-4.377 1.622-4.377 1.622v6.785c0 7.419.04 7.456 6.25 5.731zm23.75-7.447c3.025-.812 7.579-1.482 10.12-1.488 4.557-.012 4.627-.062 5.238-3.762.341-2.063.625-5.05.631-6.637l.011-2.887-9.75.701c-5.363.386-10.284 1.235-10.936 1.887-1.428 1.427-2.946 13.691-1.693 13.674.483-.007 3.354-.676 6.379-1.488zm-23.625-14.092c2.827-.676 2.866-.781 2.312-6.153-.31-3.006-.704-5.564-.876-5.684-.17-.12-2.447-.028-5.057.206l-4.746.424.56 4.15c1.069 7.941 1.4 8.792 3.215 8.253.944-.28 3.011-.818 4.592-1.196zm26.933-7.568c2.647-.567 6.77-.876 9.162-.686 4.28.34 4.359.29 4.929-3.154.318-1.925.584-4.437.59-5.583l.011-2.082-12.75 2.447c-7.013 1.346-12.88 2.563-13.037 2.704-.159.14.142 1.326.668 2.635.526 1.308 1.222 3.213 1.546 4.233.404 1.27 1.137 1.644 2.33 1.186.956-.367 3.904-1.132 6.551-1.7zm-69.808-14.94c-12.604-1.8-18.5-5.997-18.5-13.168 0-3.358.137-3.479 4.64-4.096 2.551-.35 14.139-.639 25.75-.642 11.61-.003 24.87-.299 29.465-.656l8.356-.65-.557-3.594c-.386-2.495-1.631-4.48-4.07-6.491l-3.515-2.897 7.638-8.103c4.2-4.457 9.788-11.39 12.416-15.406l4.779-7.303 2.589 3.913c4.952 7.483 4.322 14.354-2.083 22.746-3.34 4.375-4.659 10.556-2.533 11.87.481.297 3.293-.26 6.25-1.237 5.084-1.681 5.554-2.13 8.68-8.307 5.625-11.119 5.33-22.546-.837-32.268l-2.862-4.513 4.697-3.9c2.583-2.146 7.263-5.592 10.4-7.66l5.703-3.759 3.45 2.132c5.539 3.423 10.353 9.409 11.094 13.792 1.179 6.977-3.883 17.459-14.655 30.347l-5.705 6.827 6.705-2.582c17.386-6.693 44.581-15.478 49.476-15.984 9.383-.968 17.729 3.497 17.729 9.486 0 7.61-9.215 10.325-44.5 13.11-14.625 1.154-21.794 3.42-52.232 16.513-30.105 12.949-32.486 13.608-48.623 13.458-7.23-.067-15.845-.507-19.145-.978zm24.41-116.103c-11.857-5.925-30.531-26.562-50.038-55.297-7.791-11.478-8.652-14.477-4.753-16.564 2.857-1.529 8.107.424 15.836 5.892l6.456 4.566 18.943-4.774c10.418-2.627 27.9-7.227 38.847-10.224 10.947-2.997 21.906-5.723 24.352-6.058 2.511-.345 4.447-1.143 4.447-1.835 0-1.99 8.48-10.503 10.463-10.503 1.002 0 4.073 2.25 6.823 5 4.165 4.165 5.606 5 8.633 5 21.818 0 50.95 9.613 63.258 20.873 14.864 13.6 12.812 21.864-11.546 46.512-15.618 15.803-19.877 18.102-33.39 18.022-7.786-.046-9.734-.389-12.017-2.118-1.902-1.44-2.643-2.817-2.454-4.563.327-3.023-.575-3.313-14.965-4.805-11.417-1.183-19.946-.53-23.501 1.8-2.126 1.392-2.282 1.384-1.716-.09.523-1.363.085-1.527-2.733-1.02-13.325 2.395-22.822 6.072-26.866 10.4-3.566 3.818-6.087 3.78-14.08-.214zm102.457-26.365c10.05-9.827 14.633-16.41 14.633-21.02 0-2.391-1.162-4.488-4.616-8.33-7.31-8.13-16.405-12.31-29.044-13.347l-5.16-.424-3.67 11.094c-3.038 9.191-5.65 15.17-14.282 32.702-.165.333 4.583.838 10.55 1.12 10.672.506 18.853 2.748 20.652 5.66.378.612 1.022 1.113 1.431 1.113.409 0 4.687-3.856 9.506-8.568zm-79.773 6.307c.328-.328-.121-6.86-.999-14.515-.877-7.654-1.595-16.286-1.595-19.18v-5.263l-3.25.472c-1.788.259-11.703 1.538-22.035 2.842l-18.786 2.372 17.786 17.282 17.785 17.283 5.249-.348c2.887-.192 5.517-.617 5.845-.945zm20.17-3.314c4.248-.554 5.356-1.095 5.742-2.806 1.294-5.73 2.497-16.306 3.112-27.369.566-10.168.444-12.243-.718-12.21-.77.023-5.513 1.048-10.54 2.279l-9.14 2.237 2.346 2.726c1.29 1.5 2.64 4.303 3.002 6.23.58 3.094-1.742 23.866-3.23 28.874-.465 1.569-.162 1.789 1.801 1.306 1.299-.32 4.73-.89 7.625-1.267z" fill="#c38c8f"/><path d="M55.376 443.559C29.768 436.786 9.691 417.682 2.243 393 .534 387.338.413 378.009.096 227.5c-.247-117.097-.03-161.494.818-167 4.44-28.84 26.28-51.513 56.962-59.134C62.367.251 84.746 0 179.876 0h116.5l8 2.313C329.649 9.621 348.01 26.923 356.041 51l2.335 7 .27 160.979c.306 181.78.775 169.953-7.384 186.466-3.866 7.824-6.143 10.914-13.276 18.015-9.654 9.611-17.823 14.801-29.61 18.816l-8 2.724-119 .205c-113.001.195-119.353.112-126-1.646zm248-4.336c25.415-7.384 44.995-27.664 49.455-51.223.827-4.366 1.056-50.262.84-168.5L353.377 57l-2.224-6.5c-6.844-20.009-22.912-35.656-43.998-42.847L299.376 5h-240l-8 2.808c-11.042 3.875-20.283 9.58-27.71 17.108-7.416 7.515-11.93 14.671-15.61 24.75L5.375 57l-.265 163.418c-.295 182.413-.83 168.199 6.926 184.082 6.868 14.066 21.47 26.957 36.887 32.566 11.675 4.247 13.094 4.29 133.452 4.091 106.054-.175 115.467-.326 121-1.933zM127.18 394.544c-4.369-2.664-5.832-5.244-8.153-14.38-1.095-4.311-2.205-8.051-2.466-8.313-.262-.261-3.879.228-8.038 1.087-4.16.86-9.061 1.562-10.893 1.562-4.274 0-11.575-3.728-14.106-7.203-2.119-2.91-2.951-11.439-1.084-11.109 8.967 1.584 19.904 2.388 25.03 1.839 3.523-.377 6.406-.813 6.406-.97 0-.155-1.125-5.806-2.5-12.557-2.222-10.911-3.395-27-1.968-27 .293 0 2.042.63 3.887 1.402 2.698 1.127 3.661 2.35 4.919 6.25.86 2.666 1.853 6.648 2.207 8.848 1.589 9.88 4.72 21.499 5.788 21.483 1.776-.026 14.267-3.389 22.533-6.066l7.367-2.386-.467-7.283c-.258-4.006-.746-7.562-1.086-7.902-.34-.34-2.985.232-5.877 1.272-5.169 1.858-5.272 1.975-6.09 6.886-.458 2.748-1.245 5.413-1.75 5.922-2.884 2.917-8.148-9.263-11.391-26.36-1.902-10.026-2.055-26.552-.279-30.066 1.147-2.269 1.9-2.517 8.142-2.688 9.677-.264 14.107-1.476 39.565-10.826 12.375-4.545 24.944-8.988 27.931-9.875 11.607-3.443 20.069-.858 20.069 6.13 0 .867-2.864 4.318-6.365 7.668-5.563 5.324-6.513 6.783-7.55 11.591-1.243 5.774-3.006 26.577-3.056 36.066l-.029 5.565 15.25.003c13.783.002 16.116.267 24.25 2.752 23.447 7.165 33.156 16.038 29.539 26.998-4.048 12.263-42.854 33.644-61 33.607-9.55-.019-37.557-7.768-50.472-13.966l-5.934-2.847-3.16 2.411c-2.091 1.595-4.485 2.413-7.067 2.415-5.074.005-9.718 2.901-11.429 7.128-2.216 5.474-5.156 6.276-10.673 2.912zm18.822-21.208l9.874-5.164v-4.336c0-5.376.068-5.374-15-.462-10.261 3.346-11.474 3.985-11.263 5.933.275 2.53 4.348 9.162 5.639 9.18.481.008 5.319-2.31 10.75-5.15zm61.173 1.703c11.865-3.45 23.058-8.905 28.426-13.853 7.557-6.966 9.204-12.376 4.67-15.346-2.368-1.552-3.656-1.593-14.25-.454-16.654 1.792-16.031 1.544-15.416 6.132.877 6.537-.494 10.702-5.11 15.519-3.507 3.66-4.922 4.463-7.864 4.463-3.004 0-4.114-.665-6.829-4.093-3.72-4.697-5.235-4.743-14.616-.448-5.146 2.355-13.255 8.304-13.292 9.75-.024.942 14.122 1.597 25.982 1.204 6.44-.214 12.334-1.14 18.3-2.874zm-29.893-14.65c9.58-3.47 12.594-5.339 12.594-7.813 0-1.834-.197-1.835-8.401-.042-17.042 3.724-16.599 3.508-16.599 8.072 0 4.615-.99 4.632 12.406-.217zm-2.97-18.827c3.885-1.066 8.997-2.439 11.36-3.051l4.297-1.113-.297-6.199-.296-6.199-3.5.285c-9.771.796-18.606 2.6-19.75 4.032-1.642 2.056-1.696 14.183-.064 14.183.653 0 4.365-.872 8.25-1.938zm-20.343-24.059c-.134-4.117-.404-7.647-.6-7.844-.664-.664-7.498 1.988-9.002 3.493-1.448 1.448-2.202 12.304-.943 13.563.302.302 2.853.037 5.668-.588l5.12-1.137-.243-7.487zm31.407-.808l4 .274.577-6.485c.318-3.566.318-6.752 0-7.08-.816-.84-20.166.783-21.149 1.776-.955.965-3.06 13.298-2.44 14.301.234.378 3.707-.156 7.718-1.186 4.012-1.03 9.094-1.75 11.294-1.6zm-35.65-12.293c3.064-1.068 3.15-1.262 3.15-7.14v-6.04l-5.136.608c-2.824.334-5.327.8-5.561 1.034-.234.234-.115 3.173.265 6.53.756 6.687 1.332 7.083 7.283 5.008zm33.15-7.786l8.5-.616.59-5.5c.324-3.025.489-5.636.365-5.802-.284-.38-25.373 4.386-25.91 4.923-.218.218.123 2.34.757 4.717 1.107 4.146 1.276 4.292 4.176 3.608 1.662-.392 6.847-.99 11.522-1.33zm-67.5-14.793c-7.875-.671-17.056-2.494-20.294-4.03-3.816-1.81-6.461-6.255-6.016-10.11l.31-2.683 30-.685c16.5-.377 31.941-.971 34.314-1.321 4.221-.622 4.3-.704 3.695-3.815-.378-1.939-2.134-4.512-4.502-6.595l-3.882-3.416 8.491-9.02c4.67-4.962 10.106-11.637 12.08-14.835 1.974-3.197 3.965-5.813 4.426-5.813 1.645 0 5.064 8.359 5.127 12.534.07 4.624-2.873 11.317-6.812 15.493-1.951 2.069-2.274 3.202-1.78 6.25.684 4.211 1.163 4.344 7.663 2.13 5.41-1.843 7.932-4.894 10.897-13.178 3.253-9.088 2.823-15.846-1.555-24.485-2.019-3.984-3.669-7.534-3.666-7.888.006-.799 13.645-11.182 16.847-12.824 3.131-1.606 6.377-.655 10.69 3.13 9.587 8.419 8.641 18.742-3.212 35.056-2.51 3.455-5.948 7.744-7.639 9.532-1.69 1.787-2.81 3.25-2.486 3.25.323 0 6.385-2.193 13.47-4.874 35.86-13.566 46.575-15.777 55.011-11.351 4.418 2.317 5.876 4.886 4.925 8.674-1.34 5.337-13.837 9.12-33.315 10.082-22.734 1.124-27.478 2.452-62.893 17.596-12.708 5.435-26.617 10.78-30.91 11.877-7.393 1.89-17.093 2.332-28.984 1.319zm16.41-116.526c-11.857-5.925-30.531-26.562-50.038-55.297-7.791-11.478-8.652-14.477-4.753-16.564 2.857-1.529 8.107.424 15.836 5.892l6.456 4.566 18.943-4.774c10.418-2.627 27.9-7.227 38.847-10.224 10.947-2.997 21.906-5.723 24.352-6.058 2.511-.345 4.447-1.143 4.447-1.835 0-1.99 8.48-10.503 10.463-10.503 1.002 0 4.073 2.25 6.823 5 4.165 4.165 5.606 5 8.633 5 21.818 0 50.95 9.613 63.258 20.873 14.864 13.6 12.812 21.864-11.546 46.512-15.618 15.803-19.877 18.102-33.39 18.022-7.786-.046-9.734-.389-12.017-2.118-1.902-1.44-2.643-2.817-2.454-4.562.327-3.024-.575-3.314-14.965-4.806-11.417-1.183-19.946-.53-23.501 1.8-2.126 1.392-2.282 1.384-1.716-.09.523-1.363.085-1.527-2.733-1.02-13.325 2.395-22.822 6.072-26.866 10.4-3.566 3.818-6.087 3.78-14.08-.214zm102.457-26.365c10.05-9.827 14.633-16.41 14.633-21.02 0-2.391-1.162-4.488-4.616-8.33-7.31-8.13-16.405-12.31-29.044-13.347l-5.16-.424-3.67 11.094c-3.038 9.191-5.65 15.17-14.282 32.702-.165.333 4.583.838 10.55 1.12 10.672.506 18.853 2.748 20.652 5.66.378.612 1.022 1.113 1.431 1.113.409 0 4.687-3.856 9.506-8.568zm-79.773 6.307c.328-.328-.121-6.86-.999-14.515-.877-7.654-1.595-16.286-1.595-19.18v-5.263l-3.25.472c-1.788.259-11.703 1.538-22.035 2.842l-18.786 2.372 17.786 17.282 17.785 17.283 5.249-.348c2.887-.192 5.517-.617 5.845-.945zm20.17-3.314c4.247-.554 5.356-1.095 5.742-2.806 1.294-5.73 2.497-16.306 3.112-27.369.566-10.168.444-12.243-.718-12.21-.77.023-5.513 1.048-10.54 2.279l-9.14 2.237 2.346 2.726c1.29 1.5 2.64 4.303 3.002 6.23.58 3.094-1.742 23.866-3.23 28.874-.465 1.569-.162 1.789 1.801 1.306 1.299-.32 4.73-.89 7.625-1.267z" fill="#7c7c7c"/><path d="M61.707 444.49c-16.281-2.795-29.297-9.4-40.331-20.467-8.888-8.913-13.326-15.751-17.32-26.688L1.375 390l-.28-164C.785 42.68.344 54.752 7.91 39.713 16.834 21.978 31.7 9.691 51.91 3.344L59.376 1h240l7.5 2.342c24.879 7.768 42.333 25.342 48.975 49.31 1.995 7.201 2.025 9.68 2.01 169.828-.016 181.443.5 168.282-7.225 184.02-3.312 6.748-5.934 10.27-12.719 17.084-7.12 7.15-10.132 9.361-18.044 13.244-17.931 8.799-6.664 8.119-137.497 8.302-63.8.09-118.101-.198-120.67-.64zm245.669-6.306c23.515-8.277 41.273-27.951 45.934-50.892 1.383-6.805 1.564-26.135 1.549-165-.02-173.893.33-164.285-6.482-178.628-8.788-18.504-25.548-32.16-46.501-37.887C295.822 4.122 287.412 4 179.376 4c-130.133 0-120.892-.504-137 7.47-14.787 7.321-25.05 17.715-32.15 32.558-6.62 13.84-6.35 6.245-6.35 179.102 0 174.998-.411 164.677 7.176 180.144 6.648 13.553 20.67 26.883 34.439 32.738 2.137.91 7.035 2.496 10.885 3.526 6.676 1.786 12.467 1.863 125 1.667l118-.205 8-2.816zm-180.196-43.64c-4.369-2.664-5.832-5.244-8.153-14.38-1.095-4.31-2.205-8.051-2.466-8.313-.262-.261-3.879.228-8.038 1.087-4.16.86-9.061 1.562-10.893 1.562-4.274 0-11.575-3.728-14.106-7.203-2.119-2.91-2.951-11.439-1.084-11.109 8.967 1.584 19.904 2.388 25.03 1.839 3.523-.377 6.406-.813 6.406-.97 0-.155-1.125-5.806-2.5-12.557-2.222-10.911-3.395-27-1.968-27 .293 0 2.042.63 3.887 1.402 2.698 1.127 3.661 2.35 4.919 6.25.86 2.666 1.853 6.648 2.207 8.848 1.589 9.88 4.72 21.499 5.788 21.483 1.776-.026 14.267-3.389 22.533-6.066l7.367-2.386-.467-7.283c-.258-4.006-.746-7.562-1.086-7.902-.34-.34-2.985.232-5.877 1.272-5.169 1.858-5.272 1.975-6.09 6.886-.458 2.748-1.245 5.413-1.75 5.922-2.884 2.917-8.148-9.263-11.391-26.36-1.902-10.026-2.055-26.552-.279-30.066 1.147-2.269 1.9-2.517 8.142-2.688 9.677-.264 14.107-1.476 39.565-10.826 12.375-4.545 24.944-8.988 27.931-9.875 11.607-3.443 20.069-.858 20.069 6.13 0 .867-2.864 4.318-6.365 7.668-5.563 5.324-6.513 6.783-7.55 11.591-1.243 5.774-3.006 26.577-3.056 36.066l-.029 5.565 15.25.003c13.783.002 16.116.267 24.25 2.752 23.447 7.165 33.156 16.038 29.539 26.998-4.048 12.263-42.854 33.644-61 33.607-9.55-.019-37.557-7.768-50.472-13.966l-5.934-2.847-3.16 2.411c-2.091 1.595-4.485 2.413-7.067 2.415-5.074.005-9.718 2.901-11.429 7.128-2.216 5.474-5.156 6.276-10.673 2.912zm18.822-21.208l9.874-5.164v-4.336c0-5.376.068-5.374-15-.462-10.261 3.346-11.474 3.985-11.263 5.933.275 2.53 4.348 9.162 5.639 9.18.481.008 5.319-2.31 10.75-5.15zm61.173 1.703c11.865-3.45 23.058-8.905 28.426-13.853 7.557-6.966 9.204-12.376 4.67-15.346-2.368-1.552-3.656-1.593-14.25-.454-16.654 1.792-16.031 1.544-15.416 6.132.877 6.537-.494 10.702-5.11 15.519-3.507 3.66-4.922 4.463-7.864 4.463-3.004 0-4.114-.665-6.829-4.093-3.72-4.697-5.235-4.743-14.616-.448-5.146 2.355-13.255 8.304-13.292 9.75-.024.942 14.122 1.597 25.982 1.204 6.44-.214 12.334-1.14 18.3-2.874zm-29.893-14.65c9.58-3.47 12.594-5.339 12.594-7.813 0-1.834-.197-1.835-8.401-.042-17.042 3.724-16.599 3.508-16.599 8.072 0 4.615-.99 4.632 12.406-.217zm-2.97-18.827c3.885-1.066 8.997-2.439 11.36-3.051l4.297-1.113-.297-6.199-.296-6.199-3.5.285c-9.771.796-18.606 2.6-19.75 4.032-1.642 2.056-1.696 14.183-.064 14.183.653 0 4.365-.872 8.25-1.938zm-20.343-24.059c-.134-4.117-.404-7.647-.6-7.844-.664-.664-7.498 1.988-9.002 3.493-1.448 1.448-2.202 12.304-.943 13.563.302.302 2.853.037 5.668-.588l5.12-1.137-.243-7.487zm31.407-.808l4 .274.577-6.485c.318-3.566.318-6.752 0-7.08-.816-.84-20.166.783-21.149 1.776-.955.965-3.06 13.298-2.44 14.301.234.378 3.707-.156 7.718-1.186 4.012-1.03 9.094-1.75 11.294-1.6zm-35.65-12.293c3.064-1.068 3.15-1.262 3.15-7.14v-6.04l-5.136.608c-2.824.334-5.327.8-5.561 1.034-.234.234-.115 3.173.265 6.53.756 6.687 1.332 7.083 7.283 5.008zm33.15-7.786l8.5-.616.59-5.5c.324-3.025.489-5.636.365-5.802-.284-.38-25.373 4.386-25.91 4.923-.218.218.123 2.34.757 4.717 1.107 4.146 1.276 4.292 4.176 3.608 1.662-.392 6.847-.99 11.522-1.33zm-67.5-14.793c-7.875-.671-17.056-2.494-20.294-4.03-3.816-1.81-6.461-6.255-6.016-10.11l.31-2.683 30-.685c16.5-.377 31.941-.971 34.314-1.321 4.221-.622 4.3-.704 3.695-3.815-.378-1.939-2.134-4.512-4.502-6.595l-3.882-3.416 8.491-9.02c4.67-4.962 10.106-11.637 12.08-14.835 1.974-3.197 3.965-5.813 4.426-5.813 1.645 0 5.064 8.359 5.127 12.534.07 4.624-2.873 11.317-6.812 15.493-1.951 2.069-2.274 3.202-1.78 6.25.684 4.211 1.163 4.344 7.663 2.13 5.41-1.843 7.932-4.894 10.897-13.178 3.253-9.088 2.823-15.846-1.555-24.485-2.019-3.984-3.669-7.534-3.666-7.888.006-.799 13.645-11.182 16.847-12.824 3.131-1.606 6.377-.655 10.69 3.13 9.587 8.419 8.641 18.742-3.212 35.056-2.51 3.455-5.948 7.745-7.639 9.532-1.69 1.788-2.81 3.25-2.486 3.25.323 0 6.385-2.193 13.47-4.874 35.86-13.566 46.575-15.777 55.011-11.351 4.418 2.317 5.876 4.886 4.925 8.674-1.34 5.337-13.837 9.12-33.315 10.082-22.734 1.124-27.478 2.452-62.893 17.596-12.708 5.435-26.617 10.78-30.91 11.877-7.393 1.89-17.093 2.332-28.984 1.319zm18.588-115.414c-8.217-3.285-22.51-16.697-35.44-33.256-9.068-11.613-23.648-33.176-23.648-34.975 0-7.074 8.466-6.097 19.526 2.254l5.116 3.862 28.429-7.435c15.636-4.09 35.041-9.106 43.123-11.147 11.64-2.94 14.887-4.133 15.627-5.74.513-1.114 2.153-3.477 3.645-5.25 4.138-4.917 8.224-4.517 13.352 1.308l3.987 4.53 10.348.91c24.93 2.19 44.447 8.964 56.693 19.677 9.237 8.08 11.378 16.048 6.754 25.136-2.986 5.87-20.377 25.28-27.697 30.915-8.577 6.603-13.103 8.255-22.685 8.28-5.1.014-9.644-.547-11.827-1.46-3.165-1.322-3.51-1.83-3.218-4.74l.327-3.258-8-1.185c-4.4-.652-12.465-1.219-17.921-1.26-8.03-.06-10.282.25-11.811 1.635-1.551 1.404-2.04 1.467-2.73.35-1.983-3.207-27.86 5.06-29.908 9.554-.907 1.99-1.795 2.375-5.359 2.323-2.349-.035-5.356-.498-6.683-1.028zm107.746-34.967c5.282-6.022 8.506-12.296 7.671-14.926-1.356-4.274-11.299-13.65-17.356-16.369-6.171-2.77-14.121-4.647-19.674-4.647-2.968 0-3.313.328-3.949 3.75-1.108 5.97-7.334 21.952-12.411 31.862l-4.669 9.111 10.027.616c11.502.706 20.044 2.914 21.732 5.617 1.075 1.722 1.692 1.386 7.899-4.294 3.703-3.39 8.532-8.213 10.73-10.72zm-86.713 14.18c.342-.343.038-5.347-.675-11.122-.713-5.775-1.61-14.676-1.992-19.779-.594-7.914-.936-9.21-2.325-8.806-2.091.608-21.813 3.328-29.629 4.087-3.3.32-7.546.824-9.436 1.12l-3.435.538 18.435 17.817 18.436 17.817 5-.526c2.75-.29 5.28-.805 5.621-1.147zm25.587-4.511c.115-.107.866-5.35 1.669-11.653 1.87-14.682 2.457-30.504 1.123-30.32-.55.076-5.354 1.118-10.676 2.315l-9.675 2.177 2.425 3.575c2.931 4.319 3.199 11.88.912 25.795-.813 4.95-1.48 9.49-1.482 10.09-.003.755 2.369.65 7.746-.348 4.263-.79 7.844-1.524 7.958-1.631z" fill="#a55357"/><path d="M61.707 444.49c-16.281-2.795-29.297-9.4-40.331-20.467-8.888-8.913-13.326-15.751-17.32-26.688L1.375 390l-.28-164C.785 42.68.344 54.752 7.91 39.713 16.834 21.978 31.7 9.691 51.91 3.344L59.376 1h240l7.5 2.342c24.879 7.768 42.333 25.342 48.975 49.31 1.995 7.201 2.025 9.68 2.01 169.828-.016 181.443.5 168.282-7.225 184.02-3.312 6.748-5.934 10.27-12.719 17.084-7.12 7.15-10.132 9.361-18.044 13.244-17.931 8.799-6.664 8.119-137.497 8.302-63.8.09-118.101-.198-120.67-.64zm245.669-6.306c23.515-8.277 41.273-27.951 45.934-50.892 1.383-6.805 1.564-26.135 1.549-165-.02-173.893.33-164.285-6.482-178.628-8.788-18.504-25.548-32.16-46.501-37.887C295.822 4.122 287.412 4 179.376 4c-130.133 0-120.892-.504-137 7.47-14.787 7.321-25.05 17.715-32.15 32.558-6.62 13.84-6.35 6.245-6.35 179.102 0 174.998-.411 164.677 7.176 180.144 6.648 13.553 20.67 26.883 34.439 32.738 2.137.91 7.035 2.496 10.885 3.526 6.676 1.786 12.467 1.863 125 1.667l118-.205 8-2.816zm-179-43.2c-5.469-2.815-6.54-4.876-10.457-20.133l-1.066-4.148-4.351 1.31c-12.228 3.68-21.644 2.669-27.237-2.924-3.192-3.192-5.18-9.084-4.055-12.016.452-1.18 1.247-1.244 4.36-.354 3.934 1.126 26.702 1.716 27.702.718.31-.31-.542-6.16-1.893-13-1.35-6.84-2.467-15.73-2.48-19.754-.022-7.13.034-7.3 2.227-6.628 5.52 1.692 6.863 4.514 10.27 21.586 1.495 7.494 3.072 14.2 3.506 14.9.88 1.426 7.556.075 22.869-4.627l8.358-2.567-.477-7.441c-.263-4.093-.73-7.694-1.04-8.002-.308-.31-3.003.208-5.987 1.15-5.42 1.707-5.43 1.718-6.338 6.825-1.928 10.827-6.938 4.807-11.552-13.881-1.727-6.992-2.237-12.08-2.29-22.824-.082-16.533-.084-16.53 10.778-16.547 8.306-.014 15.728-2.071 39.153-10.855 26.13-9.798 32.138-11.573 37.225-11 5.77.65 9.841 4.335 8.906 8.06-.348 1.388-2.865 4.243-5.594 6.346-7.625 5.875-9.326 12.2-10.606 39.441l-.687 14.62 14.878-.108c12.865-.094 15.96.209 22.878 2.235 16.637 4.874 28.614 12.167 31.526 19.197 1.657 4 .012 9.685-4.186 14.467-3.93 4.475-18.696 14.361-28.156 18.85-13.519 6.416-19.39 8.054-28.684 8.002-11.932-.066-33.667-5.923-50.111-13.503l-6.798-3.133-3.122 2.627c-2.253 1.896-4.284 2.637-7.296 2.662-5.693.049-8.58 1.894-11.067 7.077-2.372 4.942-4.515 5.735-9.106 3.372zm27.302-31.433c.227-3.787-.02-4.917-1-4.578-.716.247-6.477 2.07-12.802 4.05-6.325 1.98-12.078 3.789-12.785 4.02-1.395.457.18 4.291 3.981 9.698l1.928 2.741 10.188-5.451 10.188-5.452.302-5.028zm53.72 10.898c17.527-5.602 27.866-11.869 31.575-19.14 2.526-4.95 2.159-7.82-1.244-9.723-2.302-1.288-4.253-1.308-15-.154-6.794.73-12.838 1.512-13.432 1.739-.668.255-.908 2.474-.63 5.827.376 4.53.022 6.145-2.162 9.872-2.772 4.73-7.968 8.63-11.497 8.63-2.07 0-3.66-1.269-7.465-5.958-1.364-1.681-2.522-2.121-4.526-1.72-6.265 1.253-13.971 4.95-18.6 8.922l-4.96 4.256 8.96.629c17.175 1.205 28.032.32 38.982-3.18zm-32.795-13.576c10.538-3.91 13.273-5.662 13.273-8.503 0-2.05.364-2.086-15.134 1.502l-9.366 2.168-.307 4.23c-.178 2.444.129 4.23.726 4.23.569 0 5.432-1.632 10.808-3.627zm-2.227-19.25c3.85-1.091 8.912-2.483 11.25-3.092l4.25-1.108v-13.014l-3.25.524c-1.788.288-6.85 1.028-11.25 1.644-4.4.616-8.563 1.58-9.25 2.144-.794.65-1.25 3.706-1.25 8.37 0 5.431.326 7.238 1.25 6.932.688-.228 4.4-1.307 8.25-2.4zm-22.508-16.107c2.415-.635 2.481-.886 2.155-8.086-.186-4.086-.49-7.587-.675-7.78-.72-.744-8.037 2.153-9.222 3.651-.7.885-1.25 4.348-1.25 7.865v6.284l3.25-.64c1.788-.351 4.371-.934 5.742-1.294zm23.998-7.553c3.805-.963 8.045-1.393 10.25-1.04l3.76.6.014-5.261c.008-2.894.28-6.259.607-7.478.565-2.105.353-2.193-4.263-1.767-2.672.247-7.849.713-11.505 1.035l-6.646.585-.654 4.682a309.23 309.23 0 0 1-1.235 8.04c-.51 2.947-.35 3.291 1.3 2.803 1.035-.306 4.802-1.296 8.372-2.199zm-27.99-12.835l4.5-1.341.301-6.289.302-6.289-5.187.615c-2.853.337-5.37.796-5.592 1.019-.334.334.708 13.69 1.064 13.642.062-.008 2.137-.619 4.612-1.357zm34.665-8.293l9.165-.599.385-5.618c.211-3.09.26-5.796.107-6.013-.226-.32-15.782 2.43-24.952 4.413-2.091.451-2.1.543-.5 5.035 1.463 4.107 1.886 4.514 4.13 3.978 1.375-.328 6.624-.866 11.665-1.196zm-69.397-15.302c-10.842-1.237-17.058-2.985-20.292-5.707-3.388-2.85-5.078-9.014-2.858-10.42.76-.482 9.932-.909 20.382-.95 19.528-.075 46.139-1.262 46.97-2.093.258-.257.198-2.137-.133-4.177-.451-2.777-1.562-4.414-4.423-6.518l-3.821-2.81 7.578-7.43c4.168-4.085 9.701-10.692 12.296-14.682 4.382-6.738 4.825-7.129 6.246-5.5 6.081 6.971 5.298 15.663-2.28 25.31-2.381 3.031-2.71 4.185-2.225 7.804.335 2.494 1.028 4.084 1.68 3.853.612-.217 3.55-1.254 6.529-2.304 5.075-1.789 5.593-2.287 8.229-7.913 5.752-12.28 5.493-23.367-.77-32.853l-2.546-3.856 2.835-2.973c4.961-5.203 16.146-12.08 18.62-11.448 3.39.867 9.265 6.166 11.085 10 3.803 8.016.116 18.44-11.72 33.134-3.544 4.4-6.334 8.119-6.2 8.263.134.145 9.434-3.087 20.666-7.183 11.233-4.096 24.157-8.415 28.72-9.597 7.345-1.904 8.888-2.009 13.462-.911 5.645 1.354 10.702 5.494 10.702 8.762 0 2.841-5.236 6.86-11.297 8.67-2.862.856-11.053 1.999-18.203 2.542-29.787 2.26-32.74 3.047-67.5 17.976-28.479 12.232-31.45 13.145-44 13.522-5.775.173-13.755-.057-17.732-.51zm20.82-115.124c-8.217-3.285-22.51-16.697-35.44-33.256-9.068-11.613-23.648-33.176-23.648-34.975 0-7.074 8.466-6.097 19.526 2.254l5.116 3.862 28.429-7.435c15.636-4.09 35.041-9.106 43.123-11.147 11.64-2.94 14.887-4.133 15.627-5.74.513-1.114 2.153-3.476 3.645-5.25 4.138-4.917 8.224-4.517 13.352 1.308l3.987 4.53 10.348.91c24.93 2.19 44.447 8.964 56.693 19.677 9.237 8.08 11.378 16.048 6.754 25.136-2.986 5.87-20.377 25.28-27.697 30.915-8.577 6.603-13.103 8.255-22.685 8.28-5.1.014-9.644-.547-11.827-1.46-3.165-1.321-3.51-1.83-3.218-4.74l.327-3.258-8-1.185c-4.4-.652-12.465-1.219-17.921-1.26-8.03-.06-10.282.251-11.811 1.635-1.551 1.404-2.04 1.467-2.73.35-1.983-3.207-27.86 5.06-29.908 9.554-.907 1.99-1.795 2.375-5.359 2.323-2.349-.035-5.356-.498-6.683-1.028zm107.747-34.967c5.28-6.022 8.505-12.296 7.67-14.926-1.356-4.274-11.299-13.65-17.356-16.369-6.171-2.77-14.121-4.647-19.674-4.647-2.968 0-3.313.328-3.949 3.75-1.108 5.97-7.334 21.952-12.411 31.862l-4.669 9.111 10.027.616c11.502.706 20.044 2.914 21.732 5.617 1.075 1.722 1.692 1.386 7.899-4.294 3.703-3.39 8.532-8.213 10.73-10.72zm-86.714 14.18c.342-.343.038-5.347-.675-11.122-.713-5.775-1.61-14.676-1.992-19.779-.594-7.914-.936-9.21-2.325-8.806-2.091.608-21.813 3.328-29.629 4.087-3.3.32-7.546.824-9.436 1.12l-3.435.538 18.435 17.817 18.436 17.817 5-.526c2.75-.29 5.28-.805 5.621-1.147zm25.587-4.511c.115-.107.866-5.35 1.669-11.653 1.87-14.682 2.457-30.504 1.123-30.32-.55.076-5.354 1.118-10.676 2.315l-9.675 2.177 2.425 3.575c2.931 4.319 3.199 11.88.912 25.795-.813 4.95-1.48 9.49-1.482 10.09-.003.755 2.369.65 7.746-.348 4.263-.79 7.844-1.524 7.958-1.631z" fill="#871a1f"/><path d="M59.63 443.936c-23.115-4.228-42.186-18.737-52.358-39.834C.43 389.91.787 400.582 1.097 219.5L1.376 56l2.707-7.298c8.73-23.539 27.652-40.363 51.946-46.187C64.127.574 67.803.514 179.376.514c110.13 0 115.339.082 123 1.928 9.972 2.403 16.127 5.077 24.703 10.73 12.233 8.065 22.346 21.062 27.618 35.493L357.376 56l.265 164.419c.292 181.95.728 169.071-6.214 183.77-6.952 14.722-18.065 25.923-32.968 33.228-16.453 8.065-6.128 7.477-135.583 7.72-96.034.18-116.806-.023-123.246-1.201zm241.323-3.865c23.318-4.943 42.455-21.99 50.6-45.071l2.823-8 .279-160.5c.313-180.23.736-169.115-7.051-185-3.273-6.677-5.89-10.216-12.198-16.5-11.989-11.944-24.173-18.156-40.132-20.463-4.244-.614-48.875-1.005-116.017-1.017-118.537-.022-119.08 0-132.688 5.523C28.331 16.445 13.451 32.227 7.132 50.87L4.376 59v163.5c0 155.716.087 163.783 1.833 169.44 7.028 22.771 23.44 39.43 45.753 46.444 3.528 1.108 7.539 2.202 8.914 2.43 1.375.227 54.475.467 118 .532 95.3.098 116.65-.125 122.077-1.275zM129.966 163.75c-11.349-6.687-26.105-22.881-43.797-48.067-10.781-15.346-12.061-17.738-10.678-19.948 2.477-3.956 10.25-1.752 19.083 5.41l4.198 3.404 16.302-4.092c8.966-2.25 26.877-6.96 39.802-10.468 12.925-3.507 25.2-6.68 27.277-7.05 2.397-.426 4.177-1.451 4.87-2.805.601-1.174 2.477-3.597 4.17-5.384 4.326-4.571 7.092-4.271 12.313 1.335l4.27 4.585 10.8.932c23.891 2.061 46.294 10.306 57.2 21.05 13.571 13.371 10.839 22.182-14.559 46.942-13.334 13-17.298 15.2-28.271 15.691-5.505.247-10-.097-12.57-.96-3.628-1.219-4.005-1.668-4.05-4.834l-.05-3.491-7.45-1.187c-11.119-1.772-27.996-1.67-30.645.186-1.528 1.07-2.25 1.165-2.528.331-1.03-3.09-26.283 5.002-29.881 9.575-3.034 3.857-7.903 3.501-15.806-1.155zm108.153-28.151c5.535-5.817 9.154-10.572 10.271-13.498 1.717-4.493 1.712-4.54-.856-8.922-3.025-5.162-8.079-9.833-13.792-12.747-4.575-2.335-15.553-4.904-20.866-4.884l-3.5.013-3.94 12.203c-2.166 6.711-6.255 16.761-9.086 22.333l-5.147 10.13 10.104.653c12.075.78 16.645 1.921 20.303 5.067 2.7 2.323 2.77 2.33 5.35.493 1.437-1.023 6.459-5.902 11.16-10.841zm-83.424 10.331c.725-.231 1.09-1.21.81-2.175-.278-.965-1.275-9.855-2.213-19.755-.939-9.9-1.783-18.104-1.877-18.232-.093-.128-3.965.416-8.604 1.209-4.64.792-14.466 2.128-21.838 2.968-7.372.84-13.554 1.678-13.738 1.863-.185.184 6.297 6.455 14.403 13.934 8.106 7.48 16.529 15.447 18.717 17.706 3.786 3.906 4.199 4.077 8.5 3.504 2.487-.33 5.115-.79 5.84-1.022zm22.297-3.884l3.616-.586 1.166-7.23c1.188-7.375 3.294-34.871 2.715-35.45-.404-.404-20.714 4.488-21.374 5.148-.268.268.693 1.891 2.137 3.606 2.213 2.631 2.623 4.086 2.62 9.293-.002 3.395-.669 10.223-1.482 15.173-2.133 12.978-2.27 12.402 2.736 11.444a343.132 343.132 0 0 1 7.866-1.398z" fill="#010101"/></svg>