<svg xmlns="http://www.w3.org/2000/svg" height="445.808" width="357.926"><path d="M54.118 443.819c-25.728-6.78-45.952-26.382-52.127-50.523-1.94-7.59-1.985-11.43-1.985-170.394 0-179.567-.436-167.183 6.387-181.55C16.97 19.08 37.867 4.178 63.186.852c5.726-.753 43.549-.994 121.32-.774l113 .32 7.472 2.292c20.808 6.383 37.116 19.63 46.01 37.375 7.553 15.072 7.112 2.996 6.798 186.287l-.28 164-2.875 7.853c-7.51 20.512-24.344 36.694-46.125 44.339l-8 2.808-119.5.207c-115.575.2-119.743.143-126.888-1.74zm248.388-4.236c22.649-6.55 40.989-23.696 48.244-45.1l2.756-8.131.28-159.5c.313-178.397.684-168.331-6.757-183.5-8.694-17.724-23.524-30.047-43.523-36.165-5.678-1.736-12.403-1.835-125-1.835h-119l-8 2.724c-21.457 7.307-36.771 22.404-44.31 43.68l-2.69 7.596-.268 160.729c-.3 179.669-.73 168.202 6.889 183.77 7.035 14.377 22.327 27.885 38.05 33.61 11.525 4.196 13.192 4.247 132.829 4.048 105.363-.175 114.978-.33 120.5-1.926zm-91.5-42.396c-15.139-2.723-32.959-7.997-44.19-13.079l-7.689-3.479-3.17 2.257c-1.935 1.378-4.844 2.327-7.468 2.436-5.592.233-9.15 2.656-11.115 7.568-1.468 3.669-1.874 3.962-5.492 3.962-3.02 0-4.718-.744-7.49-3.285-2.975-2.726-3.986-4.788-5.945-12.127-1.299-4.863-2.513-8.993-2.698-9.178-.185-.185-2.79.317-5.79 1.115s-8.339 1.456-11.866 1.463c-11.01.02-18.087-6.046-18.087-15.503 0-3.657.048-3.702 3.25-3.05 1.787.363 9.26.918 16.605 1.232 12.71.543 13.329.48 12.814-1.298-3.398-11.736-6.282-36.064-4.49-37.874 1.295-1.31 6.897.692 8.413 3.006.84 1.28 2.862 8.778 4.495 16.663 4.103 19.806 2.953 17.885 9.697 16.196 12.634-3.165 23.452-6.812 23.934-8.07.28-.73.202-4.207-.174-7.725l-.685-6.396-5.176 1.76c-5.138 1.746-5.184 1.799-6.2 7.155-3.554 18.746-15.483-11.328-15.483-39.037 0-10.616.12-11.258 2.559-13.697 2.255-2.256 3.09-2.48 7.027-1.89 6.683 1.003 13.5-.796 40.294-10.633 13.41-4.923 27.18-9.685 30.6-10.582 5.844-1.533 6.502-1.524 10.881.149 8.565 3.27 8.605 7.917.13 15.158-4.436 3.79-5.8 5.706-6.995 9.828-1.6 5.516-3.455 24.767-3.481 36.12l-.017 7 13.404-.346c15.066-.389 23.172 1.113 36.933 6.841 29.588 12.318 25.063 29.335-12.835 48.274-13.693 6.843-27.17 10.384-34.5 9.066zm-56-33.13c0-4.035-.159-4.292-2.25-3.662-14.268 4.3-23.75 7.762-23.75 8.669 0 .612 1.138 3.055 2.53 5.429l2.53 4.317 10.47-5.207 10.47-5.207v-4.34zm54.876 9.948c18.275-6.192 29.927-14.43 31.677-22.397 1.283-5.84-4.319-6.987-22.651-4.636l-8.733 1.12.536 5.196c.819 7.929-4.258 16.271-11.321 18.602-3.957 1.306-6.295.3-9.383-4.036-1.357-1.906-3.013-3.002-4.532-3.002-3.748 0-12.395 3.775-17.896 7.813l-5.01 3.678 2.968.686c1.633.377 10.169.565 18.969.419 14.973-.25 16.601-.47 25.376-3.443zm-35.686-12.776c10.161-3.646 14.81-6.15 14.81-7.977 0-1.727.03-1.73-15.25 1.765l-8.75 2.001v3.417c0 1.88.423 3.417.94 3.417.517 0 4.23-1.18 8.25-2.623zm4.06-21.018l10.75-2.85-.014-3.504c-.008-1.928-.294-4.552-.636-5.83-.682-2.546-1.673-2.546-17.1-.001l-6.25 1.031v7.48c0 5.574.318 7.36 1.25 7.003.687-.263 6.087-1.761 12-3.329zm-29-14.412l3.75-1.041V309.887l-4.75 1.76-4.75 1.76-.296 6.722c-.326 7.404-.297 7.431 6.046 5.67zm23.41-7.447c3.168-.825 8.102-1.5 10.964-1.5h5.205l.335-6.62.336-6.621-9.344.687c-5.139.379-9.935.915-10.66 1.193-1.453.558-4.38 14.36-3.045 14.36.248 0 3.043-.674 6.21-1.5zm-23.41-14.061c2.606-.622 2.75-.957 2.75-6.425v-5.769l-4.75.51c-2.613.281-4.91.648-5.106.816-.195.169-.037 3.05.353 6.402.581 5.013 1 6.01 2.355 5.61.906-.269 2.885-.783 4.398-1.144zm33.75-8.317l7.5-.622.507-5.038.508-5.038-12.508 2.377c-6.879 1.308-12.597 2.465-12.706 2.57-.11.107.27 2.043.844 4.304l1.044 4.111 3.655-1.021c2.01-.562 7.03-1.302 11.156-1.644zm-76.5-14.223c-12.669-1.808-18.488-6.06-18.497-13.513-.004-2.948.245-3.148 4.636-3.75 2.552-.35 15.04-.689 27.75-.753 12.71-.064 26.036-.402 29.61-.75l6.5-.633-.293-3c-.197-2.012-1.601-4.166-4.264-6.54l-3.97-3.538 8.802-9.186c4.84-5.053 10.359-11.893 12.263-15.2 1.904-3.308 3.781-6.02 4.17-6.025.39-.01 1.852 1.94 3.25 4.327 4.408 7.52 3.034 16.17-3.871 24.377-2.043 2.428-2.399 3.666-1.913 6.658.648 3.993.076 3.911 8.327 1.184 6.823-2.255 12.685-18.759 10.604-29.855-.348-1.85-2.16-5.905-4.03-9.008l-3.397-5.643 3.517-3.088c1.935-1.698 6.625-5.155 10.424-7.68 7.8-5.187 8.554-5.144 15.407.874 10.728 9.419 8.23 21.165-8.992 42.29-2.897 3.555-3.47 4.726-2.033 4.16 7.955-3.139 20.135-7.569 32.5-11.82 17.832-6.133 25.69-7.084 32.255-3.906 5.35 2.59 7.511 6.037 6.173 9.843-2.065 5.87-12.351 8.914-34.928 10.336-8.8.555-18.925 1.727-22.5 2.605-7.836 1.924-23.563 7.97-42.5 16.336-7.7 3.402-17.892 7.494-22.648 9.092-8.002 2.69-9.681 2.898-22.5 2.785-7.619-.067-16.552-.508-19.852-.979zM257.03 179.39c-10.631-5.204-21.779-10.01-24.772-10.68-4.457-.998-8.839-.915-24.211.458-27.611 2.464-49.685 7.225-54.606 11.776-1.135 1.05-2.993 1.909-4.127 1.909-1.135 0-2.624.675-3.308 1.5-4.015 4.837-18.077-2.898-22.196-12.21-2.27-5.13-1.764-7.767 2.982-15.552 2.994-4.911 6.807-15.478 5.909-16.376-.156-.156-3.639 2.47-7.74 5.837-16.124 13.239-33.236 22.645-48.524 26.674-8.156 2.15-16.431 2.81-16.431 1.31 0-.448 3.89-2.788 8.644-5.199 22.512-11.414 48.3-33.047 54.884-46.04 4.767-9.407 5.804-15.92 5.116-32.114l-.624-14.67 3.24-2.735c3.968-3.35 14.453-8.423 17.408-8.424 2.389-.001 5.464 4.237 7.722 10.641 1.346 3.818 1.41 3.855 6.235 3.62 13.573-.66 33.982-7.066 55.594-17.453 13.931-6.695 17.766-8.119 23-8.538 13.447-1.079 29.605 3.657 34.218 10.028 3.843 5.308 1.775 15.542-3.589 17.764-2.44 1.01-5.167.91-15.068-.555-14.436-2.136-30.757-1.617-43.682 1.389-8.22 1.912-8.56 2.11-15.79 9.278-7.08 7.02-11.308 13.703-12.756 20.165l-.636 2.841 6.176-3.34c3.396-1.838 9.665-6.604 13.931-10.591 6.927-6.476 8.18-7.25 11.718-7.25 2.47 0 5.242.86 7.36 2.286 3.361 2.26 3.402 2.379 3.722 10.75.295 7.7-1.218 29.689-2.475 35.973-.51 2.55-.456 2.572 9.176 3.789 12.722 1.607 33.165 9.753 43.24 17.231 7.54 5.596 11.936 16.518 9.347 23.22-.933 2.416-1.59 2.75-5.41 2.75-3.462 0-8.285-1.927-23.677-9.462zm-96.048-36.841l3.946-9.196-9.211-.58c-5.066-.32-10.218-.91-11.45-1.314-2.023-.663-2.188-.465-1.728 2.08.859 4.742 4.462 30.726 4.464 32.192.005 2.63 10.054-14.035 13.979-23.182zm20.024 12.4c6.875-2.763 15.724-5.788 19.664-6.722l7.165-1.7.695-10.197c.707-10.365-.105-14.477-2.858-14.477-.695 0-5.292 1.786-10.215 3.969s-11.012 4.498-13.53 5.145l-4.58 1.176-5.42 13.493c-2.982 7.421-5.595 13.952-5.808 14.514-.212.562.238.752 1 .422.763-.33 7.012-2.86 13.887-5.623zm-15.086-34.495c4.337-1.082 4.456-1.224 6.785-8.101 1.305-3.85 3.071-9.757 3.926-13.125 1.42-5.59 1.414-6.399-.06-9.25-1.422-2.748-2.126-3.127-5.841-3.136-2.323-.01-5.912-.29-7.974-.631l-3.75-.62-.012 6.38c-.016 8.236-1.94 15.307-6.346 23.323-3.047 5.544-3.301 6.484-1.839 6.803 2.31.503 9.75-.306 15.11-1.643z" fill="#edc5c7"/><path d="M54.118 443.819c-25.728-6.78-45.952-26.382-52.127-50.523-1.94-7.59-1.985-11.43-1.985-170.394 0-179.567-.436-167.183 6.387-181.55C16.97 19.08 37.867 4.178 63.186.852c5.726-.753 43.549-.994 121.32-.774l113 .32 7.472 2.292c20.808 6.383 37.116 19.63 46.01 37.375 7.553 15.072 7.112 2.996 6.798 186.287l-.28 164-2.875 7.853c-7.51 20.512-24.344 36.694-46.125 44.339l-8 2.808-119.5.207c-115.575.2-119.743.143-126.888-1.74zm248.388-4.236c22.649-6.55 40.989-23.696 48.244-45.1l2.756-8.131.28-159.5c.313-178.397.684-168.331-6.757-183.5-8.694-17.724-23.524-30.047-43.523-36.165-5.678-1.736-12.403-1.835-125-1.835h-119l-8 2.724c-21.457 7.307-36.771 22.404-44.31 43.68l-2.69 7.596-.268 160.729c-.3 179.669-.73 168.202 6.889 183.77 7.035 14.377 22.327 27.885 38.05 33.61 11.525 4.196 13.192 4.247 132.829 4.048 105.363-.175 114.978-.33 120.5-1.926zm-98.473-43.85c-12-2.532-32.08-9.04-39.612-12.84l-5.789-2.92-3.318 2.913c-2.591 2.275-3.95 2.788-6.198 2.338-4.518-.904-9.35 1.955-11.64 6.887-1.605 3.454-2.527 4.291-4.97 4.513-3.779.342-8.935-2.778-10.915-6.606-.83-1.608-2.417-6.192-3.524-10.187-1.107-3.995-2.139-7.39-2.293-7.544-.154-.154-3.203.4-6.774 1.232-9.554 2.224-17.835 1.455-22.48-2.089-4.13-3.15-6.79-8.38-6.32-12.431.25-2.166.76-2.597 2.806-2.374 5.866.643 30 1.44 30 .992 0-.27-1.15-6.065-2.555-12.878-2.57-12.46-3.605-25.058-2.176-26.49 1.394-1.394 6.13 1.07 8.33 4.337 1.345 1.995 2.961 7.468 4.278 14.486 1.164 6.204 2.575 12.918 3.136 14.92l1.02 3.64 4.233-.922c2.329-.507 9.13-2.347 15.113-4.09l10.88-3.166-.56-7.398c-.308-4.069-.757-7.595-.998-7.836-.24-.241-2.635.424-5.32 1.478-4.659 1.829-4.934 2.153-6.04 7.11-1.34 5.999-1.685 6.51-3.848 5.68-2.267-.87-6.041-9.649-8.658-20.139-1.766-7.08-2.254-11.946-2.29-22.833-.044-13.459.02-13.889 2.378-15.8 1.98-1.605 3.351-1.854 7.5-1.36 6.835.814 14.814-1.366 43.077-11.768 27.407-10.087 32.226-11.376 36.703-9.815 4 1.394 7.797 4.875 7.797 7.147 0 1.892-3.69 6.094-8.796 10.02-2.456 1.888-3.66 3.932-4.728 8.018-1.653 6.332-3.455 24.98-3.468 35.894l-.01 7.5h15.751c14.646 0 16.346.199 24.25 2.842 12.103 4.048 18.783 7.416 23.705 11.953 10.786 9.942 7.072 19.081-13.184 32.445-12.458 8.219-30.01 15.42-40.52 16.624-2.66.305-8.375-.301-13.973-1.483zm-58.888-22.103l9.86-5.222v-4.345c0-3.666-.273-4.267-1.75-3.839-.962.28-7.026 2.148-13.476 4.153l-11.727 3.646 2.098 4.164c2.236 4.439 3.778 6.665 4.617 6.665.284 0 4.954-2.35 10.378-5.222zm58.137 2.279c17.647-4.513 31.27-11.696 35.834-18.893 6.787-10.7 2.542-12.978-19.084-10.238-4.66.59-8.815 1.074-9.231 1.074-.416 0-.487 1.969-.157 4.375.33 2.406.09 5.918-.533 7.804-1.38 4.185-8.615 11.446-12.305 12.35-2.744.673-4.281-.408-9.056-6.372-1.355-1.693-2.38-2.043-4.5-1.536-4.898 1.173-14.66 5.98-18.157 8.94l-3.412 2.89 2.412.675c1.327.37 8.753.72 16.503.774 10.93.077 15.793-.336 21.686-1.843zm-16.526-19.644c2.374-1.54 3.07-4.413 1.07-4.413-.649 0-6.049 1.164-12 2.587l-10.82 2.587v7.646l9.75-3.474c5.362-1.91 10.762-4.13 12-4.933zm-8.5-15.984l10.75-2.87-.016-4.53c-.027-7.949.234-7.877-17.734-4.87l-6.25 1.046v7.504c0 5.581.32 7.387 1.25 7.047.687-.251 6.087-1.749 12-3.327zm-26.25-14.968c1.202-.346 1.434-1.934 1.169-8.003-.232-5.29-.684-7.423-1.5-7.08-.643.27-2.857 1.042-4.92 1.715l-3.75 1.223v13.906l3.75-.664c2.063-.366 4.426-.86 5.25-1.097zm21-6.961c3.025-.812 7.824-1.482 10.664-1.488l5.165-.012.335-6.502c.387-7.497 1.398-7.028-12.597-5.845-6.616.56-7.846.957-8.508 2.75-1.22 3.3-2.213 12.598-1.344 12.585.432-.01 3.26-.676 6.285-1.488zm-24.866-13.659l3.866-1.158V291.89l-4.75.622c-2.613.342-4.91.756-5.106.92-.548.459.98 12.42 1.588 12.42.294 0 2.275-.521 4.402-1.159zm28.365-7.865c2.75-.603 7.025-.97 9.5-.817l4.5.28.59-5.47c.325-3.008.55-5.53.5-5.605-.049-.075-5.976.994-13.17 2.375l-13.082 2.511 1.57 4.366c1.093 3.038 2.03 4.228 3.082 3.912.83-.25 3.76-.948 6.51-1.552zm-68.38-14.964c-9.853-1.512-14.022-3.138-17.133-6.681-3.138-3.573-4.006-8.575-1.736-9.996.687-.43 15.784-1.064 33.55-1.409 17.764-.344 32.718-1.044 33.23-1.556 1.792-1.792-.845-7.757-4.535-10.258l-3.522-2.388 8.804-9.112c4.842-5.012 10.281-11.7 12.087-14.862 1.805-3.163 3.669-5.75 4.14-5.75 2.202 0 5.413 6.629 5.8 11.968.384 5.307.163 5.954-4.234 12.375-4.039 5.9-4.554 7.225-3.988 10.247.706 3.76.272 3.713 8.418.927 11.217-3.836 14.757-28.22 5.902-40.655l-2.14-3.005 2.869-3.037c1.578-1.67 6.133-5.253 10.122-7.962 6.377-4.329 7.526-4.784 9.5-3.766 7.99 4.122 12.747 10.75 12.747 17.765 0 5.189-5.36 15.487-13.043 25.061-3.274 4.08-5.806 7.566-5.626 7.746.18.18 8.288-2.6 18.02-6.18 21.837-8.03 33.615-11.491 39.01-11.462 8.12.043 16.684 6.11 15.204 10.77-2.064 6.506-12.301 9.792-34.992 11.234-23.304 1.48-28.572 2.962-62.073 17.453-29.913 12.94-29.695 12.878-46.5 13.136-7.975.122-16.922-.15-19.881-.603zm165.88-94.449c-1.924-.712-10.25-4.687-18.5-8.833-22.124-11.117-23.248-11.38-42.295-9.92-29.077 2.227-52.118 6.789-59.258 11.73-1.955 1.353-4.056 2.46-4.67 2.46-.612 0-2.414.745-4.002 1.657-1.753 1.006-3.854 1.414-5.35 1.038-4.195-1.052-11.526-6.513-14.494-10.795-3.846-5.55-3.67-9.347.765-16.557 3.29-5.346 6.805-14.692 6.805-18.093 0-.769-2.566.828-5.75 3.577-14.768 12.75-30.678 22.344-45.029 27.152-9.497 3.182-22.221 5.1-22.221 3.35 0-.53 2.79-2.282 6.202-3.895 16.566-7.836 33.104-19.856 46.884-34.074 13.686-14.121 16.652-22.846 15.61-45.915l-.604-13.356 4.557-4.011c5.242-4.615 15.028-8.747 17.35-7.327 1.91 1.169 6.946 10.19 6.977 12.499.016 1.172.813 1.75 2.413 1.75 6.636 0 33.204-6.493 43.19-10.554 2.156-.877 10.276-4.742 18.045-8.588 12.638-6.258 14.9-7.05 21.5-7.522 12.983-.93 28.567 3.691 33.15 9.83 2.426 3.25 2.536 10.948.207 14.502-2.725 4.16-5.836 4.678-17.481 2.912-14.956-2.267-28.25-2.028-41.648.75-10.048 2.084-11.638 2.722-16.11 6.467-6.996 5.857-13 14.023-14.822 20.159-.856 2.882-1.321 5.476-1.034 5.764 1.335 1.334 18.042-10.313 24.56-17.12 2.615-2.733 4.254-3.6 6.8-3.6 4.04 0 8.813 2.308 10.224 4.944 1.837 3.432 1.14 23.308-1.498 42.7l-.563 4.144 7.295.724c10.019.995 18.206 3.644 32.296 10.449 13.437 6.49 20.467 12.655 22.41 19.657 3.134 11.283-1.404 15.834-11.91 11.945zm-113.3-43.817c2.365-5.364 4.3-9.977 4.3-10.25 0-.273-3.037-.507-6.75-.52-3.712-.014-8.721-.48-11.131-1.035-2.41-.556-4.5-.883-4.643-.726-.143.157.81 7.71 2.117 16.785 1.308 9.075 2.385 17.17 2.393 17.989.027 2.758 9.375-12.403 13.714-22.243zm38.942 5.053l8.14-2.067.7-9.32c.853-11.387.154-15.412-2.679-15.412-1.12 0-6.046 1.804-10.945 4.01-4.898 2.206-10.88 4.538-13.29 5.183l-4.386 1.173-5.936 14.672-5.936 14.672 13.095-5.422c7.203-2.982 16.76-6.352 21.237-7.489zm-33.141-28.22c3.964-1.107 4.028-1.202 7.167-10.706 6.433-19.477 5.625-22.246-6.778-23.224l-7.61-.6-.53 8.225c-.57 8.836-2.998 16.48-7.303 22.986-2.109 3.186-2.372 4.17-1.296 4.842 1.539.961 10.41.135 16.35-1.523z" fill="#bebebe"/><path d="M54.792 443.81c-23.76-5.841-42.359-22.511-51.457-46.118l-2.83-7.34v-334l2.68-7.335c4.04-11.059 8.447-17.787 17.82-27.206 7.052-7.085 10.12-9.339 18-13.225 17.86-8.806 8.148-8.234 140-8.234 107.206 0 117.038.138 123.23 1.73 24.457 6.291 43.14 22.832 52.142 46.162l3.129 8.108.28 163.5c.312 181.092.67 170.402-6.177 184.601-7.308 15.158-18.587 26.361-34.103 33.873-16.378 7.929-9.021 7.535-139.198 7.453-110.179-.069-116.177-.164-123.516-1.969zm249.714-4.823c21.026-7.103 34.481-18.54 43.162-36.69 6.676-13.958 6.408-5.938 6.108-182.967l-.27-159.978-2.958-8.476c-5.998-17.192-18.06-30.843-34.042-38.528-16.4-7.885-9.278-7.498-137.698-7.479-128.59.02-121.607-.366-137.78 7.618-13.052 6.442-23.959 17.197-29.84 29.42-7.685 15.975-7.273 5.041-6.961 184.945l.279 160.5 2.823 8c8.818 24.99 29.699 42.014 56.177 45.8 1.65.235 54.975.377 118.5.314l115.5-.114 7-2.365zm-100.473-43.254c-12-2.532-32.08-9.04-39.612-12.84l-5.789-2.92-3.318 2.913c-2.591 2.275-3.95 2.788-6.198 2.338-4.518-.904-9.35 1.955-11.64 6.887-1.605 3.454-2.527 4.291-4.97 4.513-3.779.342-8.935-2.778-10.915-6.606-.83-1.608-2.417-6.192-3.524-10.187-1.107-3.995-2.139-7.39-2.293-7.544-.154-.154-3.202.4-6.774 1.232-9.554 2.224-17.835 1.455-22.48-2.089-4.13-3.15-6.79-8.38-6.32-12.431.25-2.166.76-2.597 2.806-2.374 5.866.643 30 1.44 30 .992 0-.27-1.15-6.065-2.555-12.878-2.57-12.46-3.605-25.058-2.176-26.49 1.394-1.394 6.13 1.07 8.33 4.337 1.345 1.995 2.961 7.468 4.278 14.486 1.164 6.204 2.575 12.918 3.136 14.92l1.02 3.64 4.233-.922c2.329-.507 9.13-2.347 15.113-4.09l10.88-3.166-.56-7.398c-.308-4.069-.757-7.595-.998-7.836-.24-.241-2.635.424-5.32 1.478-4.659 1.829-4.934 2.153-6.04 7.11-1.34 5.999-1.685 6.51-3.848 5.68-2.267-.87-6.041-9.649-8.658-20.139-1.766-7.08-2.254-11.946-2.29-22.833-.044-13.459.02-13.889 2.378-15.8 1.98-1.605 3.351-1.854 7.5-1.36 6.835.814 14.815-1.366 43.077-11.768 27.407-10.087 32.226-11.376 36.703-9.815 4 1.394 7.797 4.875 7.797 7.147 0 1.892-3.69 6.094-8.796 10.02-2.456 1.888-3.66 3.932-4.728 8.018-1.653 6.332-3.455 24.98-3.468 35.894l-.01 7.5h15.751c14.646 0 16.346.199 24.25 2.842 12.103 4.048 18.783 7.416 23.705 11.953 10.786 9.942 7.072 19.081-13.184 32.445-12.458 8.219-30.01 15.42-40.52 16.624-2.66.305-8.375-.301-13.973-1.483zm-58.888-22.103l9.86-5.222v-4.345c0-3.666-.273-4.267-1.75-3.839-.962.28-7.026 2.148-13.476 4.153l-11.727 3.646 2.098 4.164c2.236 4.439 3.778 6.665 4.617 6.665.284 0 4.954-2.35 10.378-5.222zm58.137 2.279c17.647-4.513 31.27-11.696 35.834-18.893 6.787-10.7 2.542-12.978-19.084-10.238-4.66.59-8.815 1.074-9.231 1.074-.416 0-.487 1.969-.157 4.375.33 2.406.09 5.918-.533 7.804-1.38 4.185-8.615 11.446-12.305 12.35-2.744.673-4.281-.408-9.056-6.372-1.355-1.693-2.38-2.043-4.5-1.536-4.898 1.173-14.66 5.98-18.157 8.94l-3.412 2.89 2.412.675c1.327.37 8.753.72 16.503.774 10.93.077 15.793-.336 21.686-1.843zm-16.526-19.644c2.374-1.54 3.07-4.413 1.07-4.413-.649 0-6.049 1.164-12 2.587l-10.82 2.587v7.646l9.75-3.474c5.362-1.91 10.762-4.13 12-4.933zm-8.5-15.984l10.75-2.87-.016-4.53c-.027-7.949.234-7.877-17.734-4.87l-6.25 1.046v7.504c0 5.581.32 7.387 1.25 7.047.687-.251 6.087-1.749 12-3.327zm-26.25-14.968c1.202-.346 1.434-1.934 1.169-8.003-.232-5.29-.684-7.423-1.5-7.08-.643.27-2.857 1.042-4.92 1.715l-3.75 1.223v13.906l3.75-.664c2.063-.366 4.426-.86 5.25-1.097zm21-6.961c3.025-.812 7.824-1.482 10.664-1.488l5.165-.012.335-6.502c.387-7.497 1.398-7.028-12.597-5.845-6.616.56-7.846.957-8.508 2.75-1.22 3.3-2.213 12.598-1.344 12.585.432-.01 3.26-.676 6.285-1.488zm-24.866-13.659l3.866-1.158V291.89l-4.75.622c-2.613.342-4.91.756-5.106.92-.548.459.98 12.42 1.588 12.42.294 0 2.275-.521 4.402-1.159zm28.365-7.865c2.75-.603 7.025-.97 9.5-.817l4.5.28.59-5.47c.325-3.008.55-5.53.5-5.605-.049-.075-5.976.994-13.17 2.375l-13.082 2.511 1.57 4.366c1.093 3.038 2.03 4.228 3.082 3.912.83-.25 3.76-.948 6.51-1.552zm-68.38-14.964c-9.853-1.512-14.022-3.138-17.133-6.681-3.138-3.573-4.006-8.575-1.736-9.996.687-.43 15.784-1.064 33.55-1.409 17.764-.344 32.718-1.044 33.23-1.556 1.792-1.792-.845-7.757-4.535-10.258l-3.522-2.388 8.804-9.112c4.842-5.012 10.282-11.7 12.087-14.862 1.805-3.163 3.669-5.75 4.14-5.75 2.202 0 5.413 6.629 5.8 11.968.384 5.307.163 5.954-4.234 12.375-4.039 5.9-4.554 7.225-3.988 10.247.706 3.76.272 3.713 8.418.927 11.217-3.836 14.757-28.22 5.902-40.655l-2.14-3.005 2.869-3.037c1.578-1.67 6.133-5.253 10.122-7.962 6.377-4.329 7.526-4.784 9.5-3.766 7.99 4.122 12.747 10.75 12.747 17.765 0 5.189-5.36 15.487-13.043 25.061-3.274 4.08-5.806 7.566-5.626 7.746.18.18 8.288-2.6 18.02-6.18 21.837-8.03 33.615-11.491 39.01-11.462 8.12.043 16.684 6.11 15.204 10.77-2.064 6.506-12.301 9.792-34.992 11.234-23.304 1.48-28.572 2.962-62.073 17.453-29.913 12.94-29.695 12.878-46.5 13.136-7.975.122-16.922-.15-19.881-.603zm165.88-94.449c-1.924-.712-10.25-4.687-18.5-8.833-22.124-11.117-23.248-11.38-42.295-9.92-29.077 2.227-52.118 6.789-59.258 11.73-1.955 1.353-4.056 2.46-4.67 2.46-.612 0-2.414.745-4.002 1.657-1.753 1.006-3.854 1.414-5.35 1.038-4.195-1.052-11.526-6.513-14.494-10.795-3.846-5.55-3.67-9.347.765-16.557 3.29-5.346 6.805-14.692 6.805-18.093 0-.769-2.566.828-5.75 3.577-14.768 12.75-30.678 22.344-45.029 27.152-9.497 3.182-22.221 5.1-22.221 3.35 0-.53 2.79-2.282 6.202-3.895 16.566-7.836 33.104-19.856 46.884-34.074 13.686-14.121 16.652-22.846 15.61-45.915l-.604-13.356 4.557-4.011c5.242-4.615 15.028-8.747 17.35-7.327 1.91 1.169 6.946 10.19 6.977 12.499.016 1.172.813 1.75 2.413 1.75 6.636 0 33.204-6.493 43.19-10.554 2.156-.877 10.276-4.742 18.045-8.588 12.638-6.258 14.9-7.05 21.5-7.522 12.983-.93 28.567 3.691 33.15 9.83 2.426 3.25 2.536 10.948.207 14.502-2.725 4.16-5.836 4.678-17.481 2.912-14.956-2.267-28.25-2.028-41.648.75-10.048 2.084-11.638 2.722-16.11 6.467-6.996 5.857-13 14.023-14.822 20.159-.856 2.882-1.321 5.476-1.034 5.764 1.335 1.334 18.042-10.313 24.56-17.12 2.615-2.733 4.254-3.6 6.8-3.6 4.04 0 8.813 2.308 10.224 4.944 1.837 3.432 1.14 23.308-1.498 42.7l-.563 4.144 7.295.724c10.019.995 18.206 3.644 32.296 10.449 13.437 6.49 20.467 12.655 22.41 19.657 3.134 11.283-1.404 15.834-11.91 11.945zm-113.3-43.817c2.365-5.364 4.3-9.977 4.3-10.25 0-.273-3.037-.507-6.75-.52-3.712-.014-8.721-.48-11.131-1.035-2.41-.556-4.5-.883-4.643-.726-.143.157.81 7.71 2.117 16.785 1.308 9.075 2.385 17.17 2.393 17.989.027 2.758 9.375-12.403 13.714-22.243zm38.942 5.053l8.14-2.067.7-9.32c.853-11.387.154-15.412-2.679-15.412-1.12 0-6.046 1.804-10.945 4.01-4.898 2.206-10.88 4.538-13.29 5.183l-4.386 1.173-5.936 14.672-5.936 14.672 13.095-5.422c7.203-2.982 16.76-6.352 21.237-7.489zm-33.141-28.22c3.964-1.107 4.028-1.202 7.167-10.706 6.433-19.477 5.625-22.246-6.778-23.224l-7.61-.6-.53 8.225c-.57 8.836-2.998 16.48-7.303 22.986-2.109 3.186-2.372 4.17-1.296 4.842 1.539.961 10.41.135 16.35-1.523z" fill="#dc8c8f"/><path d="M54.792 443.81c-23.76-5.841-42.359-22.511-51.457-46.118l-2.83-7.34v-334l2.68-7.335c4.04-11.059 8.447-17.787 17.82-27.206 7.052-7.085 10.12-9.339 18-13.225 17.86-8.806 8.148-8.234 140-8.234 107.206 0 117.038.138 123.23 1.73 24.457 6.291 43.14 22.832 52.142 46.162l3.129 8.108.28 163.5c.312 181.092.67 170.402-6.177 184.601-7.308 15.158-18.587 26.361-34.103 33.873-16.378 7.929-9.021 7.535-139.198 7.453-110.179-.069-116.177-.164-123.516-1.969zm249.714-4.823c21.026-7.103 34.481-18.54 43.162-36.69 6.676-13.958 6.408-5.938 6.108-182.967l-.27-159.978-2.958-8.476c-5.998-17.192-18.06-30.843-34.042-38.528-16.4-7.885-9.278-7.498-137.698-7.479-128.59.02-121.607-.366-137.78 7.618-13.052 6.442-23.959 17.197-29.84 29.42-7.685 15.975-7.273 5.041-6.961 184.945l.279 160.5 2.823 8c8.818 24.99 29.699 42.014 56.177 45.8 1.65.235 54.975.377 118.5.314l115.5-.114 7-2.365zm-177.23-43.618c-4.305-1.871-6.568-5.874-8.769-15.51-2.049-8.971-1.661-8.743-11.001-6.487-10.32 2.492-17.267 1.447-22.708-3.414-2.628-2.349-3.174-3.657-3.583-8.598-.446-5.375-.338-5.772 1.384-5.111 7.121 2.733 30.412 2.942 30.403.273-.002-.644-1.117-6.795-2.477-13.67-2.534-12.811-3.231-23.442-1.603-24.448 1.515-.937 5.88 1.203 7.45 3.653.81 1.262 2.902 9.27 4.65 17.795 1.747 8.525 3.358 15.687 3.58 15.915.505.523 23.512-5.517 27.754-7.286l3.15-1.313-.33-7.658c-.214-4.998-.735-7.658-1.5-7.657-.643 0-3.42.853-6.17 1.895-4.778 1.81-5.024 2.088-5.526 6.249-.702 5.813-1.592 7.13-3.962 5.862-6-3.211-13.305-42.005-10.112-53.697 1.334-4.886 3.023-5.712 11.1-5.43 7.109.248 12.669-1.279 36.086-9.912 35.195-12.976 39.283-13.87 45.664-9.98 2.527 1.541 3.25 2.663 3.25 5.043 0 3.095-.983 4.357-8.227 10.562-5.483 4.696-7.687 15.72-7.743 38.724l-.03 12.817 10.25-.685c11.914-.796 20.938.36 32.338 4.145 10.329 3.429 18.343 7.708 22.535 12.033 3.032 3.129 3.377 4.065 3.377 9.178 0 4.322-.549 6.463-2.275 8.883-3.737 5.24-14.927 13.01-28.426 19.74-15.09 7.523-24.327 10.092-33.282 9.256-11.873-1.11-37.613-8.67-48.82-14.342l-4.804-2.43-3.024 2.544c-2.128 1.79-4.199 2.544-6.996 2.544-5.855 0-9.473 2.305-11.771 7.502-2.207 4.988-4.018 5.543-9.833 3.015zm18.23-21.805l10-5.212.307-4.25c.257-3.552.01-4.247-1.5-4.229-2.96.035-25.654 7.52-26.006 8.576-.393 1.179 5.336 10.419 6.427 10.365.424-.021 5.272-2.384 10.772-5.25zm61.699 1.665c16.482-5.207 27.161-11.132 31.93-17.715 3.658-5.05 3.756-9.036.277-11.315-2.368-1.552-3.646-1.586-14.75-.394-6.686.718-12.719 1.52-13.406 1.783-.807.308-1.25 2.588-1.25 6.42 0 3.269-.652 7.204-1.45 8.745-2.276 4.402-8.22 9.099-11.514 9.099-2.916 0-3.625-.493-7.858-5.458-2.565-3.008-3.292-2.98-12.47.48-2.864 1.082-7.44 3.88-10.168 6.222l-4.96 4.256 8.96.627c15.307 1.072 27.441.162 36.659-2.75zm-34.568-12.895c11.304-4.144 16.178-6.645 16.678-8.557.26-.995.276-2.007.034-2.248-.414-.415-13.445 2.243-21.593 4.405-3.535.938-3.75 1.222-3.75 4.956 0 2.179.396 3.962.88 3.962.485 0 3.973-1.133 7.75-2.518zm7.055-22.014l10.186-2.75-.52-5.11c-.287-2.81-.67-5.607-.85-6.216-.238-.798-3.061-.73-10.121.248-14.35 1.986-13.381 1.258-13.381 10.044 0 8.72-1.842 8.245 14.686 3.784zm-26.502-22.494c-.173-4.09-.483-7.606-.689-7.812-.206-.206-2.426.41-4.935 1.368l-4.56 1.741v14.514l5.25-1.186 5.25-1.186-.316-7.439zm31.566-.658c3.803.392 4.25.215 4.258-1.69.005-1.17.287-4.44.627-7.268l.617-5.141-4.376.37c-20.38 1.727-18.435.643-19.48 10.845l-.656 6.407 7.38-1.98c4.277-1.149 9.166-1.797 11.63-1.543zm-35.437-12.386l3.814-1.06-.689-5.685c-.379-3.127-.829-5.844-1-6.038-.17-.194-2.563-.043-5.317.336l-5.007.689.527 5.164c.874 8.556.809 8.5 7.672 6.594zm24.687-7.024c2.475-.574 7.256-1.063 10.625-1.087l6.125-.043.65-5.53c.358-3.04.453-5.727.211-5.968-.355-.356-13.61 1.968-24.307 4.262-1.99.426-2.1.775-1.162 3.715a528.291 528.291 0 0 1 1.414 4.494c.454 1.491.673 1.496 6.444.157zm-57.5-15.476c-16.182-2.15-19.67-2.855-22.436-4.537-3.454-2.1-6.492-7.971-5.592-10.807.514-1.619 3.164-1.823 31.794-2.45 17.179-.376 32.52-.96 34.092-1.298 2.627-.563 2.813-.894 2.296-4.08-.382-2.353-1.782-4.521-4.358-6.75l-3.796-3.282 8.537-8.863c4.696-4.875 10.096-11.438 12-14.585 1.905-3.147 3.807-5.734 4.227-5.75 1.258-.047 4.683 6.226 5.362 9.818.842 4.454-.89 9.86-5.138 16.034-3.302 4.8-4.174 8.17-2.944 11.375.455 1.185 1.55 1.075 6.648-.668 6.038-2.065 6.14-2.163 9.482-9.158 1.857-3.889 3.644-9.326 3.971-12.083.714-6.031-1.45-14.305-5.179-19.8l-2.578-3.799 2.306-2.495c3.746-4.053 15.945-12.252 18.23-12.252 3.117 0 9.043 4.401 11.688 8.681 4.84 7.833 2.23 17.824-8.205 31.405-2.71 3.528-5.854 7.651-6.986 9.164l-2.058 2.75 8.319-3.1c19.646-7.32 33.69-12.112 41.18-14.054 6.966-1.806 8.71-1.925 13.268-.905 7.064 1.581 10.37 4.283 10.37 8.476 0 7.684-9.066 10.649-38.347 12.54-18.961 1.226-25.27 3.085-57.432 16.921-28.822 12.4-31.56 13.234-44.721 13.625-6.05.179-12.35.146-14-.072zm158.5-94.865c-1.925-.712-10.254-4.679-18.508-8.815-8.255-4.136-18.091-8.473-21.86-9.636-6.739-2.082-7.13-2.091-23.991-.574-31.259 2.814-50.338 6.838-57.186 12.062-1.73 1.319-4.114 2.398-5.3 2.398-1.185 0-2.155.45-2.155 1s-1.948 1-4.329 1c-9.146 0-19.51-10.706-18.398-19.004.288-2.147 1.546-5.338 2.795-7.092 3.085-4.332 6.879-13.78 6.908-17.203.023-2.758-.08-2.71-7.176 3.262-9.647 8.12-22.137 16.332-32.11 21.11-11.563 5.54-33.763 10.933-33.663 8.177.015-.413 3.586-2.434 7.935-4.493 13.11-6.204 28.127-16.974 41.077-29.459 9.897-9.541 12.579-12.778 15.473-18.67 4.806-9.784 6.246-20.296 4.648-33.92l-1.182-10.076 2.76-2.942c3.332-3.55 13.696-8.688 17.526-8.69 3.08 0 5.898 3.65 7.91 10.25 1.078 3.538 1.373 3.75 5.234 3.74 5.366-.011 22.917-4.026 34.352-7.856 5-1.676 15.536-6.298 23.415-10.274 14.322-7.226 14.327-7.227 23.891-7.653 10.782-.48 18.031.72 25.619 4.237 7.568 3.509 10.007 9.403 7.21 17.428-1.975 5.663-5.503 6.205-22.97 3.532-12.4-1.898-23.144-1.406-37.893 1.734l-10.236 2.18-7.246 7.09c-7.941 7.773-12.016 13.986-13.117 20.003-.652 3.559-.546 3.847 1.175 3.202 4.525-1.699 12.875-7.492 19.89-13.802 4.165-3.746 8.448-6.811 9.517-6.811 4.234 0 9.79 3.117 11.072 6.21 1.215 2.934.658 15.821-1.768 40.883l-.541 5.594 8.369.59c9.32.658 18.18 3.464 32.353 10.246 15.433 7.385 21.5 14.365 21.5 24.737 0 2.937-.54 5.88-1.2 6.54-1.519 1.518-5.304 1.427-9.8-.235zm-121.883-29.065c4.15-6.445 11.883-22.442 11.883-24.585 0-.503-1.827-.915-4.059-.915s-7.217-.49-11.077-1.09c-3.861-.598-7.232-.875-7.493-.615-.513.513 2.043 20.627 3.815 30.013.603 3.195 1.395 5.445 1.76 5 .364-.444 2.692-3.958 5.171-7.808zm29.383-3.678c3.85-1.656 11.05-4.046 16-5.312 10.447-2.672 10.184-2.25 10.381-16.689.09-6.585-.251-9.048-1.415-10.212-1.654-1.654-2.079-1.559-10.966 2.459-2.75 1.243-8.294 3.424-12.32 4.846l-7.318 2.586-5.931 14.486c-3.262 7.968-5.931 14.599-5.931 14.736 0 .32 8.557-3.054 17.5-6.9zm-15.285-33.857c3.623-1.014 3.79-1.277 6.786-10.628 4.105-12.814 4.64-17.196 2.586-21.169l-1.639-3.168h-16.898l.58 2.906c1.374 6.867-5.367 28.959-9.641 31.6-4.166 2.575 9.445 2.918 18.226.46z" fill="#cb5258"/><path d="M54.792 443.81c-23.76-5.841-42.359-22.511-51.457-46.118l-2.83-7.34v-334l2.68-7.335c4.04-11.059 8.447-17.787 17.82-27.206 7.052-7.085 10.12-9.339 18-13.225 17.86-8.806 8.148-8.234 140-8.234 107.206 0 117.038.138 123.23 1.73 24.457 6.291 43.14 22.832 52.142 46.162l3.129 8.108.28 163.5c.312 181.092.67 170.402-6.177 184.601-7.308 15.158-18.587 26.361-34.103 33.873-16.378 7.929-9.021 7.535-139.198 7.453-110.179-.069-116.177-.164-123.516-1.969zm249.714-4.823c21.026-7.103 34.481-18.54 43.162-36.69 6.676-13.958 6.408-5.938 6.108-182.967l-.27-159.978-2.958-8.476c-5.998-17.192-18.06-30.843-34.042-38.528-16.4-7.885-9.278-7.498-137.698-7.479-128.59.02-121.607-.366-137.78 7.618-13.052 6.442-23.959 17.197-29.84 29.42-7.685 15.975-7.273 5.041-6.961 184.945l.279 160.5 2.823 8c8.818 24.99 29.699 42.014 56.177 45.8 1.65.235 54.975.377 118.5.314l115.5-.114 7-2.365zm-177-43.996c-5.04-3.113-6.458-5.494-8.81-14.8l-2.263-8.951-4.964 1.356c-2.73.745-8.113 1.446-11.963 1.556-11.724.335-18.488-4.765-18.497-13.944l-.004-4.144 4.25 1.038c4.86 1.187 26.223 1.61 27.292.54.39-.39-.472-6.822-1.916-14.295-2.475-12.806-3.351-23.436-2.04-24.747 1.255-1.255 6.551 1.616 7.943 4.306.807 1.561 2.852 9.496 4.544 17.633 1.692 8.138 3.27 14.989 3.506 15.225.62.619 9.35-1.484 21.213-5.11 7.67-2.344 10.153-3.504 9.75-4.555-.298-.776-.542-4.51-.542-8.3v-6.887l-6.238 2.223-6.238 2.224-.672 4.696c-.871 6.093-1.593 7.256-3.514 5.662-5.37-4.456-10.647-25.306-10.759-42.508-.1-15.377.467-16.27 10.276-16.196 8.644.065 15.283-1.74 39.039-10.615 32.976-12.319 37.655-13.338 43.856-9.557 5.291 3.226 4.568 6.727-2.692 13.042-5.59 4.862-6.042 5.594-7.617 12.319-1.048 4.479-1.866 13.536-2.19 24.244l-.515 17.095 14.382-.064c15.345-.068 20.716.9 33.882 6.106 17.551 6.94 24.404 15.787 19.53 25.212-6.295 12.173-43.568 32.084-59.99 32.047-9.185-.02-37.277-7.9-50.265-14.098l-6.274-2.994-3.345 2.55c-2.252 1.718-4.62 2.556-7.25 2.566-5.335.02-8.588 1.861-10.602 6-3.22 6.614-5.073 7.356-10.304 4.125zm18.639-21.361l9.86-5.222v-4.845c0-4.157-.248-4.768-1.75-4.298-19.957 6.25-24.89 7.903-25.61 8.59-1.191 1.133 4.333 10.997 6.159 10.997.814 0 5.917-2.35 11.34-5.222zm50.86 4.153c19.981-3.237 40.586-14.346 44.386-23.931 3.157-7.963-1.118-9.918-17.617-8.057-14.625 1.65-13.768 1.122-13.768 8.474 0 5.322-.437 6.885-2.854 10.222-6.085 8.4-11.296 9.485-16.146 3.36-3.646-4.603-4.814-4.775-12.713-1.873-5.6 2.057-16.287 9.247-16.287 10.956 0 .752 3.25.993 23 1.705 3.025.109 8.425-.276 12-.856zm-22.33-16.042c11.468-4.04 14.047-5.42 14.851-7.954.364-1.147.494-2.254.289-2.46-.381-.38-14.306 2.504-21.71 4.498-3.923 1.056-4.1 1.274-4.1 5.065 0 2.179.415 3.962.92 3.962.507 0 4.895-1.4 9.75-3.11zm14.586-30.297c-.29-3.35-.604-6.194-.7-6.318-.226-.294-20.675 2.668-22.305 3.231-.858.296-1.25 2.899-1.25 8.283v7.85l12.39-3.476 12.391-3.477-.526-6.093zm-37.379-5.764c2.3-.847 2.354-1.11 1.666-8.102-.391-3.974-.888-7.404-1.105-7.62-.216-.218-2.428.382-4.915 1.332l-4.522 1.727v14.785l3.25-.624c1.787-.343 4.32-1.017 5.626-1.498zm24.124-7.436c3.575-.86 7.908-1.336 9.629-1.06l3.128.503.692-7.014c.38-3.858.547-7.141.37-7.297-.695-.613-21.159 1.418-21.87 2.171-.419.443-1.176 4.1-1.683 8.126-.9 7.139-.87 7.307 1.156 6.728 1.142-.327 5.003-1.297 8.578-2.157zm-23.377-14.683c.235-.234.129-2.965-.236-6.068-.722-6.147-1.188-6.431-8.227-5.023-3.02.604-3.078.721-2.56 5.25 1.094 9.582.806 9.215 6.005 7.65 2.525-.76 4.784-1.574 5.018-1.809zm21.383-5.735c1.922-.565 6.483-1.046 10.137-1.07l6.644-.043.689-5.515c.378-3.033.49-5.712.249-5.954-.242-.242-6.242.631-13.333 1.94-11.438 2.113-12.856 2.595-12.572 4.275 1.386 8.183 1.555 8.315 8.186 6.367zm-62.208-16.056c-14.66-1.552-21.069-4.447-22.638-10.227-1.755-6.461-2.5-6.298 32.038-7.03 17.216-.365 32.362-.953 33.659-1.307 3.602-.984 2.346-6.893-2.307-10.854l-3.524-3 7.62-8c4.192-4.4 9.654-11.108 12.137-14.906 4.251-6.502 4.6-6.795 5.973-5 2.32 3.035 4.245 8.106 4.222 11.124-.028 3.54-2.905 9.877-6.324 13.926-1.891 2.24-2.654 4.277-2.654 7.083 0 2.167.259 4.198.575 4.515.317.317 3.282-.338 6.589-1.455 4.492-1.517 6.5-2.822 7.941-5.16 2.686-4.358 5.895-15.08 5.895-19.698 0-4.71-2.384-11.992-5.586-17.065l-2.385-3.778 5.627-4.584c3.096-2.522 7.601-5.74 10.012-7.154 3.891-2.28 4.718-2.431 7.347-1.342 4.18 1.731 9.687 8.174 10.929 12.786 1.928 7.161-2.068 16.116-13.523 30.305-3.51 4.347-6.143 7.903-5.853 7.903.29 0 8.718-2.978 18.73-6.618 34.9-12.69 41.469-13.942 49.44-9.427 4.52 2.56 5.795 4.785 4.864 8.494-1.353 5.39-13.67 9.07-33.73 10.078-22.703 1.141-27.69 2.562-64.872 18.478-11.825 5.062-24.835 10.056-28.91 11.099-7.849 2.008-17.617 2.262-31.292.814zm161.202-95.32c-3.025-1.274-11.8-5.51-19.5-9.411-20.037-10.153-21.886-10.523-43.262-8.65-29.54 2.587-49.632 6.835-57.43 12.141-2.03 1.382-4.116 2.25-4.636 1.928-.52-.321-1.502.086-2.182.905-2.754 3.319-11.843.57-17.087-5.17-7.037-7.7-7.479-11.22-2.453-19.555 3.866-6.41 6.55-13.561 6.55-17.45v-2.593l-3.25 2.654c-18.888 15.419-33.25 24.346-46.139 28.677-8.871 2.98-20.657 5.41-22.793 4.699-.691-.23 3.68-2.992 9.712-6.136 15.204-7.923 28.022-17.3 40.515-29.637 11.877-11.73 14.961-16.827 17.562-29.024 1.548-7.264 1.474-20.489-.162-28.544-.859-4.232 2.698-8.244 10.882-12.273 9.898-4.873 11.208-4.538 15.003 3.836l3.17 6.994 4.5-.016c12.148-.044 36.584-7.681 56.946-17.798l15.447-7.675 12.553.056c10.565.047 13.455.411 18.243 2.3 10.07 3.97 13.702 10.422 10.705 19.016-1.968 5.647-5.968 6.27-22.655 3.528-11.78-1.935-23.43-1.446-38.24 1.603l-10.5 2.163-6.333 6.167c-3.484 3.392-7.584 7.967-9.112 10.167-2.61 3.76-6.462 14.427-5.54 15.348 1.018 1.018 15.093-8.52 21.944-14.874 4.137-3.835 8.089-6.971 8.782-6.968 3.522.016 8.899 2.356 10.714 4.664 1.466 1.863 2.046 4.076 2.046 7.805 0 5.915-2.775 36.189-3.541 38.633-.426 1.36.766 1.69 7.768 2.139 9.41.604 17.155 2.964 30.724 9.361 17.4 8.204 24.049 15.292 24.049 25.637 0 8.01-3.386 9.404-13 5.354zm-120.568-26.602c2.632-3.852 6.686-11.39 9.01-16.75l4.224-9.746-8.465-.74c-4.656-.407-9.981-1.158-11.834-1.67-2.952-.814-3.367-.699-3.367.936 0 3.974 4.789 34.974 5.403 34.974.134 0 2.397-3.152 5.029-7.004zm27.694-3.903c6.944-2.816 15.938-5.962 19.986-6.99 8.688-2.206 8.642-2.121 8.788-16.23.113-10.89-.64-12.382-5.537-10.978-1.639.47-4.529 1.671-6.422 2.67-1.893.997-7.229 3.19-11.858 4.874l-8.417 3.06-5.325 13c-6.803 16.61-6.908 16.937-5.207 16.26.751-.3 7.047-2.85 13.992-5.666zm-12.915-35.094c3.655-1.056 3.766-1.24 7.25-12.017 3.841-11.881 4.165-14.607 2.338-19.661l-1.201-3.321h-17.098l-.116 6.87a45.282 45.282 0 0 1-6.959 23.391c-2.363 3.749-2.953 5.439-2.104 6.03 1.436 1.001 12.787.181 17.89-1.292z" fill="#777"/><path d="M59.506 444.368c-14.23-2.706-26.517-8.92-37.006-18.714-11.634-10.865-19.25-24.825-21.487-39.385-.727-4.727-.975-57.74-.785-167.417l.278-160.5 2.724-8c6.953-20.418 21.78-36.08 41.819-44.174C58.72.656 55.358.781 182.306 1.078l117.2.274 7.666 2.617c27.453 9.372 45.662 30.39 49.837 57.524.717 4.656.966 58.082.776 166.359l-.28 159.5-2.348 7c-4.282 12.76-8.946 20.354-18.123 29.5-9.506 9.474-19.042 15.18-32.028 19.163l-7.5 2.301-115.5.192c-92.615.154-116.887-.072-122.5-1.14zm242.876-4.485c19.075-4.878 36.343-18.493 44.447-35.044 7.727-15.778 7.178-1.879 7.162-181.447-.017-178.203.386-167.036-6.525-181.045-6.583-13.343-17.056-23.672-30.96-30.536-16.134-7.964-6.826-7.46-137.5-7.46-129.75 0-121.113-.435-136.5 6.883-14.416 6.856-25.22 17.356-32.02 31.118-6.957 14.076-6.532 1.618-6.242 183.07l.262 163.93 2.67 7.307c4.957 13.57 15.621 26.765 27.88 34.498 6.963 4.392 11.586 6.364 20.45 8.722 6.63 1.764 13.127 1.866 123.09 1.918 112.294.053 116.341-.01 123.786-1.914zm-174.876-44.892c-5.04-3.113-6.458-5.494-8.81-14.8l-2.263-8.951-4.964 1.356c-2.73.745-8.113 1.446-11.963 1.556-11.724.335-18.488-4.765-18.497-13.944l-.004-4.144 4.25 1.038c4.86 1.187 26.223 1.61 27.292.54.39-.39-.472-6.822-1.916-14.295-2.475-12.806-3.351-23.436-2.04-24.747 1.255-1.255 6.551 1.616 7.943 4.306.807 1.561 2.852 9.496 4.544 17.633 1.692 8.138 3.27 14.989 3.506 15.225.62.619 9.35-1.484 21.213-5.11 7.67-2.344 10.153-3.504 9.75-4.555-.298-.776-.542-4.51-.542-8.3v-6.887l-6.238 2.223-6.238 2.224-.672 4.696c-.871 6.093-1.593 7.256-3.514 5.662-5.37-4.456-10.647-25.306-10.759-42.508-.1-15.377.467-16.27 10.276-16.196 8.644.065 15.283-1.74 39.039-10.615 32.976-12.319 37.655-13.338 43.856-9.557 5.291 3.226 4.568 6.727-2.692 13.042-5.59 4.862-6.042 5.594-7.617 12.319-1.048 4.479-1.866 13.536-2.19 24.244l-.515 17.095 14.382-.064c15.345-.068 20.716.9 33.882 6.106 17.551 6.94 24.404 15.787 19.53 25.212-6.295 12.173-43.568 32.084-59.99 32.047-9.185-.02-37.277-7.9-50.265-14.098l-6.274-2.994-3.345 2.55c-2.252 1.718-4.62 2.556-7.25 2.566-5.335.02-8.588 1.861-10.602 6-3.22 6.614-5.073 7.356-10.304 4.125zm18.639-21.361l9.86-5.222v-4.845c0-4.157-.248-4.768-1.75-4.298-19.957 6.25-24.89 7.903-25.61 8.59-1.191 1.133 4.333 10.997 6.159 10.997.814 0 5.917-2.35 11.34-5.222zm50.86 4.153c19.981-3.237 40.586-14.346 44.386-23.931 3.157-7.963-1.118-9.918-17.617-8.057-14.625 1.65-13.768 1.122-13.768 8.474 0 5.322-.437 6.885-2.854 10.222-6.085 8.4-11.296 9.485-16.146 3.36-3.646-4.603-4.814-4.775-12.713-1.873-5.6 2.057-16.287 9.247-16.287 10.956 0 .752 3.25.993 23 1.705 3.025.109 8.425-.276 12-.856zm-22.33-16.042c11.468-4.04 14.047-5.42 14.851-7.954.364-1.147.494-2.254.289-2.46-.381-.38-14.306 2.504-21.71 4.498-3.923 1.056-4.1 1.274-4.1 5.065 0 2.179.415 3.962.92 3.962.507 0 4.895-1.4 9.75-3.11zm14.586-30.297c-.29-3.35-.604-6.194-.7-6.318-.226-.294-20.675 2.668-22.305 3.231-.858.296-1.25 2.899-1.25 8.283v7.85l12.39-3.476 12.391-3.477-.526-6.093zm-37.379-5.764c2.3-.847 2.354-1.11 1.666-8.102-.391-3.974-.888-7.404-1.105-7.62-.216-.218-2.428.382-4.915 1.332l-4.522 1.727v14.785l3.25-.624c1.787-.343 4.32-1.017 5.626-1.498zm24.124-7.436c3.575-.86 7.908-1.336 9.629-1.06l3.128.503.692-7.014c.38-3.858.547-7.141.37-7.297-.695-.613-21.159 1.418-21.87 2.171-.419.443-1.176 4.1-1.683 8.126-.9 7.139-.87 7.307 1.156 6.728 1.142-.327 5.003-1.297 8.578-2.157zm-23.377-14.683c.235-.234.129-2.965-.236-6.068-.722-6.147-1.188-6.431-8.227-5.023-3.02.604-3.078.721-2.56 5.25 1.094 9.582.806 9.215 6.005 7.65 2.525-.76 4.784-1.574 5.018-1.809zm21.383-5.735c1.922-.565 6.483-1.046 10.137-1.07l6.643-.043.69-5.515c.378-3.033.49-5.712.249-5.954-.242-.242-6.242.631-13.333 1.94-11.438 2.113-12.856 2.595-12.572 4.275 1.386 8.183 1.555 8.315 8.186 6.367zm-62.208-16.056c-14.66-1.552-21.069-4.447-22.638-10.227-1.755-6.461-2.5-6.298 32.038-7.03 17.216-.365 32.362-.953 33.659-1.307 3.602-.984 2.346-6.893-2.307-10.854l-3.524-3 7.62-8c4.192-4.4 9.654-11.108 12.137-14.906 4.251-6.502 4.6-6.795 5.973-5 2.32 3.035 4.245 8.106 4.222 11.124-.028 3.54-2.905 9.877-6.324 13.926-1.891 2.24-2.654 4.277-2.654 7.083 0 2.167.259 4.198.575 4.515.317.317 3.282-.338 6.589-1.455 4.492-1.517 6.5-2.822 7.941-5.16 2.686-4.358 5.895-15.08 5.895-19.698 0-4.71-2.384-11.992-5.586-17.065l-2.385-3.778 5.627-4.584c3.096-2.522 7.6-5.74 10.012-7.154 3.891-2.28 4.717-2.431 7.347-1.342 4.18 1.731 9.687 8.174 10.929 12.786 1.928 7.161-2.068 16.116-13.523 30.305-3.51 4.347-6.143 7.903-5.853 7.903.29 0 8.718-2.978 18.73-6.618 34.9-12.69 41.469-13.942 49.44-9.427 4.52 2.56 5.795 4.785 4.864 8.494-1.353 5.39-13.67 9.07-33.73 10.078-22.703 1.141-27.69 2.562-64.872 18.478-11.825 5.062-24.835 10.056-28.91 11.099-7.849 2.008-17.617 2.262-31.292.814zm161.202-95.32c-3.025-1.274-11.8-5.51-19.5-9.411-20.037-10.153-21.886-10.523-43.262-8.65-29.54 2.587-49.632 6.835-57.43 12.141-2.03 1.382-4.116 2.25-4.636 1.928-.52-.321-1.502.086-2.182.905-2.754 3.319-11.843.57-17.087-5.17-7.037-7.7-7.479-11.22-2.453-19.555 3.866-6.41 6.55-13.561 6.55-17.45v-2.593l-3.25 2.654c-18.888 15.419-33.25 24.346-46.139 28.677-8.871 2.98-20.657 5.41-22.793 4.699-.691-.23 3.68-2.992 9.712-6.136 15.204-7.923 28.022-17.3 40.515-29.637 11.877-11.73 14.961-16.827 17.562-29.024 1.548-7.264 1.474-20.489-.162-28.544-.859-4.232 2.698-8.244 10.882-12.273 9.898-4.873 11.208-4.538 15.003 3.836l3.17 6.994 4.5-.016c12.148-.044 36.584-7.681 56.946-17.798l15.447-7.675 12.553.056c10.565.047 13.455.411 18.243 2.3 10.07 3.97 13.702 10.422 10.705 19.016-1.968 5.647-5.968 6.27-22.655 3.528-11.78-1.935-23.43-1.446-38.24 1.603l-10.5 2.163-6.333 6.167c-3.484 3.392-7.584 7.967-9.112 10.167-2.61 3.76-6.462 14.427-5.54 15.348 1.018 1.018 15.093-8.52 21.944-14.874 4.137-3.835 8.089-6.971 8.782-6.968 3.522.016 8.899 2.356 10.714 4.664 1.466 1.863 2.046 4.076 2.046 7.805 0 5.915-2.775 36.189-3.541 38.633-.426 1.36.766 1.69 7.768 2.139 9.41.604 17.155 2.964 30.724 9.361 17.4 8.204 24.049 15.292 24.049 25.637 0 8.01-3.386 9.404-13 5.354zm-120.568-26.602c2.632-3.852 6.686-11.39 9.01-16.75l4.224-9.746-8.465-.74c-4.656-.407-9.981-1.158-11.834-1.67-2.952-.814-3.367-.699-3.367.936 0 3.974 4.789 34.974 5.403 34.974.134 0 2.397-3.152 5.029-7.004zm27.694-3.903c6.944-2.816 15.938-5.962 19.986-6.99 8.688-2.206 8.642-2.121 8.788-16.23.113-10.89-.64-12.382-5.537-10.978-1.639.47-4.529 1.671-6.422 2.67-1.893.997-7.229 3.19-11.858 4.874l-8.417 3.06-5.325 13c-6.803 16.61-6.908 16.937-5.207 16.26.751-.3 7.047-2.85 13.992-5.666zm-12.915-35.094c3.655-1.056 3.766-1.24 7.25-12.017 3.841-11.881 4.165-14.607 2.338-19.661l-1.201-3.321h-17.098l-.116 6.87a45.282 45.282 0 0 1-6.959 23.391c-2.363 3.749-2.953 5.439-2.104 6.03 1.436 1.001 12.787.181 17.89-1.292z" fill="#ba1920"/><path d="M59.506 444.368c-14.23-2.706-26.517-8.92-37.006-18.714-11.634-10.865-19.25-24.825-21.487-39.385-.727-4.727-.975-57.74-.785-167.417l.278-160.5 2.724-8c6.953-20.418 21.78-36.08 41.819-44.174C58.72.656 55.358.781 182.306 1.078l117.2.274 7.666 2.617c27.453 9.372 45.662 30.39 49.837 57.524.717 4.656.966 58.082.776 166.359l-.28 159.5-2.348 7c-4.282 12.76-8.946 20.354-18.123 29.5-9.506 9.474-19.042 15.18-32.028 19.163l-7.5 2.301-115.5.192c-92.615.154-116.887-.072-122.5-1.14zm242.876-4.485c19.075-4.878 36.343-18.493 44.447-35.044 7.727-15.778 7.178-1.879 7.162-181.447-.017-178.203.386-167.036-6.525-181.045-6.583-13.343-17.056-23.672-30.96-30.536-16.134-7.964-6.826-7.46-137.5-7.46-129.75 0-121.113-.435-136.5 6.883-14.416 6.856-25.22 17.356-32.02 31.118-6.957 14.076-6.532 1.618-6.242 183.07l.262 163.93 2.67 7.307c4.957 13.57 15.621 26.765 27.88 34.498 6.963 4.392 11.586 6.364 20.45 8.722 6.63 1.764 13.127 1.866 123.09 1.918 112.294.053 116.341-.01 123.786-1.914z"/></svg>