<svg xmlns="http://www.w3.org/2000/svg" width="359.001" height="445.925"><path d="M55.392 444.076c-24.726-6.08-44.079-23.737-52.178-47.605l-2.714-8-.28-161.5C-.096 45.202-.555 57.04 7.466 40.471 16.523 21.764 34.218 7.746 55.77 2.202 61.964.61 71.82.472 179.5.472s117.536.137 123.73 1.73c21.552 5.544 39.247 19.562 48.304 38.27 8.021 16.567 7.561 4.73 7.246 186.5l-.28 161.5-2.715 8c-6.602 19.456-19.45 33.735-38.285 42.546-15.58 7.289-8.994 6.962-138.698 6.88-107.185-.068-116.86-.21-123.41-1.822zm248.108-4.485c24.429-7.363 42.102-24.773 48.468-47.747 2.004-7.23 2.032-9.563 2.032-168.392 0-179.585.55-165.692-7.176-181.468-8.254-16.856-25.587-30.35-44.948-34.99-8.133-1.95-11.686-2.009-122.179-2.016C51.532 4.97 58.97 4.555 42.067 12.667 29.177 18.853 18.26 29.56 12.176 41.984 4.45 57.76 5 43.867 5 223.452c0 158.73.03 161.165 2.028 168.378 7.225 26.074 29.786 45.482 57.472 49.44 1.65.237 54.75.362 118 .28 107.808-.141 115.375-.264 121-1.959zm-99.473-43.707c-11.578-2.481-31.529-8.95-39.18-12.703l-5.652-2.773-3.181 2.842c-2.503 2.236-3.788 2.71-6.017 2.22-4.086-.897-10.556 2.606-11.46 6.206-.383 1.531-1.167 3.35-1.74 4.04-1.568 1.889-6.878 1.504-10.607-.77-3.696-2.254-5.303-5.465-7.791-15.577-.934-3.794-1.764-6.994-1.845-7.11-.081-.118-2.601.44-5.6 1.237-17.117 4.555-29.94-1.178-29.95-13.391-.004-4.259.064-4.35 2.746-3.703 1.512.365 8.712.927 16 1.247 10.884.48 13.25.337 13.246-.797-.002-.76-1.117-7.006-2.477-13.88-4.09-20.673-3.3-27.045 2.992-24.178 3.984 1.816 5.33 5.14 8.642 21.344l3.182 15.559 6.447-1.47c13.735-3.134 23.722-6.743 23.635-8.543a616.33 616.33 0 0 1-.25-7.647l-.167-5.934-6 2.026c-5.633 1.902-6.001 2.22-6.014 5.184-.039 8.942-3.81 10.262-7.591 2.658-5.153-10.362-9.377-34.982-7.955-46.366.998-7.985 3.176-10.075 9.611-9.221 6.79.9 16.026-1.43 37.365-9.424 36.274-13.592 41.822-14.735 47.982-9.89 4.24 3.335 3.562 7.338-2.126 12.56-2.6 2.388-5.04 4.341-5.42 4.341-1.257 0-3.768 9.366-4.818 17.974-.569 4.66-1.034 13.66-1.034 20v11.526l16.25.05c15.089.045 16.821.246 24.25 2.816 12.272 4.245 20.102 8.48 24.498 13.249 3.528 3.826 4.002 4.918 4.002 9.213 0 3.784-.645 5.762-2.888 8.858-8.387 11.58-39.463 28.029-56.112 29.703-3.656.368-8.676-.127-14.973-1.476zm-48.215-31.828c.36-4.928 2.134-5.006-15.467.682-10.92 3.53-11.135 3.657-10.225 6.05.511 1.345 1.86 3.752 2.998 5.35l2.068 2.904 10.157-5.364 10.157-5.363.312-4.259zm49.77 11.363c19.877-5.76 30.89-12.23 35.252-20.712 2.367-4.6 2.389-4.832.653-6.75-2.138-2.363-8.082-2.597-21.67-.855L211 348.233v6.672c0 5.843-.374 7.18-3.004 10.757-3.425 4.658-9.052 7.763-12.498 6.898-1.283-.322-3.287-2.13-4.453-4.016-1.167-1.887-2.666-3.619-3.333-3.849-1.281-.44-9.9 2.253-13.864 4.334-1.292.677-4.114 2.617-6.273 4.31-3.875 3.038-3.894 3.086-1.5 3.755 1.334.373 8.787.723 16.563.778 12.374.087 15.237-.22 22.944-2.453zm-19.417-18.469c2.55-1.17 4.64-4.979 2.733-4.979-3.067 0-22.45 5.27-23.091 6.279-.427.672-.783 2.44-.792 3.928l-.015 2.707 9.25-3.356c5.087-1.846 10.45-3.906 11.915-4.579zm-6.344-16.822l10.322-2.657-.572-2.875c-.314-1.58-.571-4.226-.571-5.878v-3.004l-5.25.67c-2.888.368-8.063 1.147-11.5 1.731l-6.25 1.062v7.504c0 6.747.176 7.434 1.75 6.804.962-.385 6.394-1.896 12.071-3.357zm-29.571-14.21c4.124-1.145 4.382-2.059 3.136-11.142l-.613-4.475-4.387 1.577-4.386 1.578v6.757c0 7.39.042 7.43 6.25 5.706zm22.75-7.447c3.025-.812 7.801-1.481 10.614-1.488l5.114-.012.636-4.64c1.268-9.248 1.912-8.69-9.114-7.892-5.363.388-10.284 1.229-10.936 1.869-1.071 1.05-3.1 13.68-2.193 13.651.208-.007 2.854-.676 5.879-1.488zM150.37 304.38c2.842-.68 2.865-.745 2.218-6.246-.36-3.058-.751-5.616-.871-5.685-.12-.069-2.307.062-4.86.29l-4.643.417.454 4.158c.835 7.637 1.276 8.807 3.114 8.262.944-.28 3.009-.819 4.588-1.196zm35.796-8.237l4.667.328.665-5.334c.366-2.934.516-5.435.333-5.558-.183-.123-6.026.872-12.986 2.212l-12.653 2.436.991 3.122a343.248 343.248 0 0 1 1.328 4.256c.243.822 2.074.732 6.662-.329 3.48-.804 8.426-1.314 10.993-1.133zm-78.048-14.203c-13.923-2.023-19.12-5.569-19.12-13.045 0-2.158.113-3.975.25-4.038.138-.063 15-.435 33.027-.827 21.102-.458 33.16-1.095 33.852-1.786 1.926-1.926-.035-6.952-3.682-9.435-1.888-1.286-3.436-2.799-3.44-3.363-.003-.563 3.395-4.388 7.552-8.5 4.158-4.11 9.632-10.73 12.166-14.71 5.134-8.063 5.776-8.125 9.46-.905 3.11 6.098 2.15 12.307-3.045 19.674-3.99 5.657-5.4 11.07-3.232 12.409.499.308 3.371-.383 6.384-1.535 4.88-1.868 5.75-2.658 7.988-7.252 3.135-6.435 4.708-12.064 4.715-16.868.007-4.483-3.264-13.59-6.24-17.372l-2.163-2.751 5.125-4.582c2.819-2.52 7.626-6.094 10.682-7.94l5.556-3.36 4.45 2.608c8.515 4.99 11.607 11.512 9.636 20.32-1.143 5.106-8.094 16.652-15.696 26.07l-2.648 3.281 8.402-3.157c21.562-8.1 40.492-14.148 45.794-14.629C263.9 229.34 272 233.42 272 239.37c0 7.503-9.755 11.088-34.498 12.677-23.756 1.525-26.543 2.31-62.08 17.494-13.244 5.658-26.81 10.994-30.145 11.859-6.516 1.688-27.19 1.988-37.158.54zm74.38-107.078c-9.24-1.332-18.746-4.538-24.113-8.13-4.03-2.699-5.202-4.209-6.796-8.76-1.059-3.026-2.038-5.651-2.176-5.836-.138-.184-3.55 2.145-7.583 5.176-13.777 10.355-27.133 15.255-39.443 14.471-7.845-.5-10.388-2.465-10.388-8.032 0-7.577 2.828-9.816 16.784-13.286 12.436-3.093 21.604-6.25 32.065-11.04l8.349-3.822-.375-16.066c-.407-17.424-.607-18.172-6.728-25.184-5.408-6.195-10.882-16.07-12.218-22.041-1.042-4.654-.962-5.827.64-9.38 1.007-2.232 3.343-5.387 5.192-7.01 2.737-2.403 4.264-2.95 8.227-2.95 4.22 0 5.667.602 10.914 4.546C165.514 65.534 174 76.484 174 82.228c0 1.286-1.983 5.357-4.407 9.047-3.054 4.65-4.581 8.167-4.974 11.453-1.201 10.05-1.812 22.122-1.173 23.157.85 1.374 8.03-3.474 25.054-16.917 31.93-25.213 44.142-30.478 62.578-26.982 14.154 2.684 20.284 10.582 15.459 19.914-1.869 3.613-2.324 3.77-19.037 6.592-7.7 1.3-17.977 3.524-22.838 4.943-17.886 5.219-40.409 15.089-54.44 23.857l-5.28 3.299 2.304 3.418c3.567 5.292 9.95 7.353 22.754 7.346 8.715-.005 11.86-.46 18.5-2.682 10.183-3.406 12.933-3.416 16.049-.054 8.1 8.74 3.983 22.335-7.825 25.842-5.623 1.67-23.939 1.884-34.224.401z" fill="#e0c5c6"/><path d="M55.392 444.076c-24.726-6.08-44.079-23.737-52.178-47.605l-2.714-8-.28-161.5C-.096 45.202-.555 57.04 7.466 40.471 16.523 21.764 34.218 7.746 55.77 2.202 61.964.61 71.82.472 179.5.472s117.536.137 123.73 1.73c21.552 5.544 39.247 19.562 48.304 38.27 8.021 16.567 7.561 4.73 7.246 186.5l-.28 161.5-2.715 8c-6.602 19.456-19.45 33.735-38.285 42.546-15.58 7.289-8.994 6.962-138.698 6.88-107.185-.068-116.86-.21-123.41-1.822zm248.108-4.485c24.429-7.363 42.102-24.773 48.468-47.747 2.004-7.23 2.032-9.563 2.032-168.392 0-179.585.55-165.692-7.176-181.468-8.254-16.856-25.587-30.35-44.948-34.99-8.133-1.95-11.686-2.009-122.179-2.016C51.532 4.97 58.97 4.555 42.067 12.667 29.177 18.853 18.26 29.56 12.176 41.984 4.45 57.76 5 43.867 5 223.452c0 158.73.03 161.165 2.028 168.378 7.225 26.074 29.786 45.482 57.472 49.44 1.65.237 54.75.362 118 .28 107.808-.141 115.375-.264 121-1.959zM212 397.275c-14.99-2.544-36.975-9.25-47.155-14.384-4.992-2.518-5.804-2.674-6.918-1.332-1.987 2.394-5.186 3.795-8.172 3.58-5.226-.378-9.62 2.351-11.736 7.288-1.775 4.141-2.255 4.544-5.407 4.544-3.862 0-8.808-3.528-11.032-7.869-.741-1.447-2.138-5.903-3.105-9.903-1.395-5.777-2.088-7.173-3.366-6.788-19.78 5.969-34.11.75-34.11-12.424 0-4.136.074-4.23 2.75-3.557 1.513.38 8.875.933 16.36 1.226l13.61.535-2.838-14.36c-3.13-15.842-3.667-24.62-1.554-25.432 2.384-.915 6.543 1.42 8.184 4.594.884 1.709 2.975 9.716 4.647 17.793 1.672 8.077 3.13 14.784 3.242 14.903.346.372 18.8-4.518 24.6-6.52l5.5-1.896-.356-7.4c-.196-4.071-.475-7.53-.619-7.687-.144-.157-2.796.663-5.894 1.822-5.461 2.043-5.631 2.22-5.631 5.844 0 2.055-.635 4.605-1.41 5.665-1.378 1.885-1.455 1.886-3.479.055-5.152-4.662-10.367-25.966-10.51-42.937-.1-11.809-.095-11.842 2.732-14.273 2.433-2.094 3.491-2.351 7.5-1.826 6.718.88 14.808-1.297 41.294-11.112 12.743-4.722 25.95-9.315 29.35-10.207 6.113-1.603 6.24-1.594 11.103.817 4.14 2.051 4.968 2.932 5.224 5.56.264 2.717-.482 3.821-5.754 8.518-5.701 5.078-6.148 5.806-7.601 12.377-.85 3.84-1.81 14.65-2.135 24.023l-.592 17.042 12.973-.405c14.61-.455 22.854 1.079 36.637 6.817 16.625 6.92 23.007 15.648 18.218 24.91-3.827 7.4-22.968 20.72-39 27.139-7.012 2.808-19.53 6.102-22.05 5.803-.55-.066-2.125-.31-3.5-.543zm-66.266-23.523l10.234-5.28.016-4.25c.01-2.338-.306-4.25-.7-4.25-1.632 0-26.284 8.108-26.284 8.645 0 1.04 5.299 10.353 5.909 10.385.325.017 5.196-2.345 10.825-5.25zm64.988.447c17.794-6.118 27.028-12.148 30.45-19.883 2.06-4.66 1.641-6.952-1.453-7.934-2.795-.887-11.016-.648-19.395.563-3.753.543-7.387.996-8.074 1.007-.86.013-1.25 1.907-1.25 6.069 0 3.327-.652 7.31-1.45 8.852-1.722 3.332-7.562 8.65-10.533 9.593-2.418.767-6.388-1.45-8.005-4.472-.582-1.087-1.863-2.407-2.846-2.934-2.62-1.402-14.111 2.893-20.261 7.574l-5.042 3.837 2.819.68c1.55.375 10.243.577 19.318.45 15.617-.219 16.993-.4 25.722-3.402zm-25.42-16.7c3.261-1.548 5.391-4.168 4.286-5.273-.587-.586-20.515 3.692-22.838 4.903-1.145.597-1.75 2.089-1.75 4.314v3.402l8.379-2.833c4.609-1.558 9.974-3.589 11.923-4.514zm-6.072-17.163l10.73-2.845-.619-5.51c-.34-3.03-.753-5.668-.916-5.862-.327-.389-16.597 1.642-20.175 2.518-2.084.51-2.25 1.104-2.25 8.026 0 5.569.319 7.353 1.25 6.996.687-.263 6.079-1.758 11.98-3.323zm-28.98-14.417c4.13-1.147 4.383-2.053 3.127-11.215l-.623-4.546-4.377 1.623-4.377 1.622v6.784c0 7.42.04 7.456 6.25 5.732zM174 318.47c3.025-.812 7.576-1.481 10.114-1.488l4.614-.012.636-4.64c1.273-9.285 1.915-8.726-9.114-7.932-5.363.385-10.284 1.235-10.936 1.887-1.428 1.427-2.946 13.69-1.693 13.673.483-.007 3.354-.676 6.379-1.488zM150.37 304.38c2.842-.68 2.865-.745 2.218-6.246-.36-3.058-.751-5.616-.871-5.685-.12-.069-2.354.066-4.964.299l-4.746.424.559 4.15c1.07 7.942 1.4 8.792 3.216 8.254.944-.28 3.009-.819 4.588-1.196zm26.937-7.568c2.647-.568 6.77-.877 9.162-.686 4.28.34 4.359.29 4.929-3.155.318-1.925.584-4.437.59-5.582l.01-2.083-12.75 2.448c-7.012 1.346-12.879 2.562-13.037 2.703-.158.14.143 1.327.669 2.635.526 1.309 1.222 3.214 1.546 4.233.404 1.271 1.137 1.644 2.329 1.186.957-.367 3.905-1.132 6.552-1.7zM107.5 281.87c-12.604-1.8-18.5-5.996-18.5-13.168 0-3.358.137-3.479 4.64-4.096 2.551-.35 14.139-.638 25.75-.642 11.61-.003 24.87-.298 29.465-.656l8.356-.65-.557-3.594c-.386-2.495-1.631-4.48-4.071-6.49l-3.514-2.898 7.637-8.103c4.201-4.456 9.788-11.389 12.417-15.406l4.778-7.302 2.59 3.912c4.952 7.483 4.322 14.354-2.083 22.746-3.34 4.375-4.659 10.556-2.533 11.87.48.297 3.293-.258 6.25-1.233 5.136-1.695 5.523-2.074 8.702-8.53 5.586-11.341 5.29-22.352-.86-32.049l-2.861-4.513 4.697-3.9c2.583-2.145 7.263-5.592 10.4-7.66l5.703-3.759 3.45 2.133c5.539 3.423 10.353 9.408 11.094 13.791 1.178 6.978-3.883 17.459-14.655 30.348l-5.705 6.826 6.705-2.568c18.954-7.26 44.163-15.44 49.205-15.966 9.647-1.009 18 3.38 18 9.455 0 7.61-9.215 10.325-44.5 13.11-14.625 1.153-21.794 3.42-52.232 16.512-30.105 12.95-32.486 13.608-48.624 13.458-7.23-.067-15.844-.507-19.144-.978zm75-107.009c-9.24-1.332-18.747-4.538-24.114-8.13-4.03-2.699-5.202-4.209-6.796-8.76-1.059-3.026-2.038-5.651-2.176-5.836-.138-.184-3.55 2.145-7.583 5.176-13.777 10.355-27.133 15.255-39.443 14.471-7.845-.5-10.388-2.465-10.388-8.032 0-7.577 2.828-9.816 16.784-13.286 12.436-3.093 21.604-6.25 32.065-11.04l8.349-3.822-.375-16.066c-.407-17.424-.607-18.172-6.728-25.184-5.408-6.195-10.882-16.07-12.218-22.041-1.042-4.654-.962-5.827.64-9.38 1.007-2.232 3.343-5.387 5.192-7.01 2.737-2.403 4.264-2.95 8.227-2.95 4.22 0 5.667.602 10.914 4.546C165.514 65.534 174 76.484 174 82.228c0 1.286-1.983 5.357-4.407 9.047-3.054 4.65-4.581 8.167-4.974 11.453-1.201 10.05-1.812 22.122-1.173 23.157.85 1.374 8.03-3.474 25.054-16.917 31.93-25.213 44.142-30.478 62.578-26.982 14.154 2.684 20.284 10.582 15.459 19.914-1.869 3.613-2.324 3.77-19.037 6.592-7.7 1.3-17.977 3.524-22.838 4.943-17.886 5.219-40.409 15.089-54.44 23.857l-5.28 3.299 2.304 3.418c3.567 5.292 9.95 7.353 22.754 7.346 8.715-.005 11.86-.46 18.5-2.682 10.183-3.406 12.933-3.416 16.049-.054 8.1 8.74 3.983 22.335-7.825 25.842-5.623 1.67-23.939 1.884-34.224.401z" fill="#bebebe"/><path d="M55.5 444.03c-21.508-5.689-38.767-19.529-48.034-38.52C-.46 389.265 0 400.444.007 223.763.012 119.353.366 64.309 1.058 60.04 5.936 29.978 31.768 5.61 63.643 1.002c9.244-1.336 222.47-1.336 231.713 0 31.876 4.608 57.708 28.976 62.585 59.039.693 4.268 1.046 59.312 1.051 163.723.01 177.154.502 165.438-7.66 182.152-3.856 7.896-6.024 10.847-13.222 18-9.836 9.774-16.406 13.968-28.849 18.42l-8.761 3.135-119 .205c-113.001.195-119.353.112-126-1.646zm248-4.335c25.415-7.385 44.995-27.664 49.455-51.224.827-4.365 1.056-50.262.84-168.5l-.295-162.5-2.68-7.334c-7.38-20.208-22.068-34.399-43.32-41.858l-8-2.808h-240l-8 2.808c-10.996 3.86-20.284 9.579-27.723 17.072-7.344 7.397-11.878 14.602-15.598 24.786l-2.68 7.334-.264 163.281C5.002 364.38 5.155 384.827 6.5 390.628c4.713 20.323 22.11 39.466 42.67 46.953 11.529 4.197 13.166 4.247 133.33 4.048 106.054-.176 115.467-.326 121-1.934zm-91.5-42.42c-14.99-2.544-36.975-9.25-47.155-14.384-4.992-2.518-5.804-2.674-6.918-1.332-1.987 2.394-5.186 3.795-8.172 3.58-5.226-.378-9.62 2.351-11.736 7.288-1.775 4.141-2.255 4.544-5.407 4.544-3.862 0-8.808-3.528-11.032-7.869-.741-1.447-2.138-5.903-3.105-9.903-1.395-5.777-2.088-7.173-3.366-6.788-19.78 5.969-34.11.75-34.11-12.424 0-4.136.074-4.23 2.75-3.557 1.513.38 8.875.933 16.36 1.226l13.61.535-2.838-14.36c-3.13-15.842-3.667-24.62-1.554-25.432 2.384-.915 6.543 1.42 8.184 4.594.884 1.709 2.975 9.716 4.647 17.793 1.672 8.077 3.13 14.784 3.242 14.903.346.372 18.8-4.518 24.6-6.52l5.5-1.896-.356-7.4c-.196-4.071-.475-7.53-.619-7.687-.144-.157-2.796.663-5.894 1.822-5.461 2.043-5.631 2.22-5.631 5.844 0 2.055-.635 4.605-1.41 5.665-1.378 1.885-1.455 1.886-3.479.055-5.152-4.662-10.367-25.966-10.51-42.937-.1-11.809-.095-11.842 2.732-14.273 2.433-2.094 3.491-2.351 7.5-1.826 6.718.88 14.808-1.297 41.294-11.112 12.743-4.722 25.95-9.315 29.35-10.207 6.113-1.603 6.24-1.594 11.103.817 4.14 2.051 4.968 2.932 5.224 5.56.264 2.717-.482 3.821-5.754 8.518-5.701 5.078-6.148 5.806-7.601 12.377-.85 3.84-1.81 14.65-2.135 24.023l-.592 17.042 12.973-.405c14.61-.455 22.854 1.079 36.637 6.817 16.625 6.92 23.007 15.648 18.218 24.91-3.827 7.4-22.968 20.72-39 27.139-7.012 2.808-19.53 6.102-22.05 5.803-.55-.066-2.125-.31-3.5-.543zm-66.266-23.523l10.234-5.28.016-4.25c.01-2.338-.306-4.25-.7-4.25-1.632 0-26.284 8.108-26.284 8.645 0 1.04 5.299 10.353 5.909 10.385.325.017 5.196-2.345 10.825-5.25zm64.988.447c17.794-6.118 27.028-12.148 30.45-19.883 2.06-4.66 1.641-6.952-1.453-7.934-2.795-.887-11.016-.648-19.395.563-3.753.543-7.387.996-8.074 1.007-.86.013-1.25 1.907-1.25 6.069 0 3.327-.652 7.31-1.45 8.852-1.722 3.332-7.562 8.65-10.533 9.593-2.418.767-6.388-1.45-8.005-4.472-.582-1.087-1.863-2.407-2.846-2.934-2.62-1.402-14.111 2.893-20.261 7.574l-5.042 3.837 2.819.68c1.55.375 10.243.577 19.318.45 15.617-.219 16.993-.4 25.722-3.402zm-25.42-16.7c3.261-1.548 5.391-4.168 4.286-5.273-.587-.586-20.515 3.692-22.838 4.903-1.145.597-1.75 2.089-1.75 4.314v3.402l8.379-2.833c4.609-1.558 9.974-3.589 11.923-4.514zm-6.072-17.163l10.73-2.845-.619-5.51c-.34-3.03-.753-5.668-.916-5.862-.327-.389-16.597 1.642-20.175 2.518-2.084.51-2.25 1.104-2.25 8.026 0 5.569.319 7.353 1.25 6.996.687-.263 6.079-1.758 11.98-3.323zm-28.98-14.417c4.13-1.147 4.383-2.053 3.127-11.215l-.623-4.546-4.377 1.623-4.377 1.622v6.784c0 7.42.04 7.456 6.25 5.732zM174 318.47c3.025-.812 7.576-1.481 10.114-1.488l4.614-.012.636-4.64c1.273-9.285 1.915-8.726-9.114-7.932-5.363.385-10.284 1.235-10.936 1.887-1.428 1.427-2.946 13.69-1.693 13.673.483-.007 3.354-.676 6.379-1.488zM150.37 304.38c2.842-.68 2.865-.745 2.218-6.246-.36-3.058-.751-5.616-.871-5.685-.12-.069-2.354.066-4.964.299l-4.746.424.559 4.15c1.07 7.942 1.4 8.792 3.216 8.254.944-.28 3.009-.819 4.588-1.196zm26.937-7.568c2.647-.568 6.77-.877 9.162-.686 4.28.34 4.359.29 4.929-3.155.318-1.925.584-4.437.59-5.582l.01-2.083-12.75 2.448c-7.012 1.346-12.879 2.562-13.037 2.703-.158.14.143 1.327.669 2.635.526 1.309 1.222 3.214 1.546 4.233.404 1.271 1.137 1.644 2.329 1.186.957-.367 3.905-1.132 6.552-1.7zM107.5 281.87c-12.604-1.8-18.5-5.996-18.5-13.168 0-3.358.137-3.479 4.64-4.096 2.551-.35 14.139-.638 25.75-.642 11.61-.003 24.87-.298 29.465-.656l8.356-.65-.557-3.594c-.386-2.495-1.631-4.48-4.071-6.49l-3.514-2.898 7.637-8.103c4.201-4.456 9.788-11.389 12.417-15.406l4.778-7.302 2.59 3.912c4.952 7.483 4.322 14.354-2.083 22.746-3.34 4.375-4.659 10.556-2.533 11.87.48.297 3.293-.258 6.25-1.233 5.136-1.695 5.523-2.074 8.702-8.53 5.586-11.341 5.29-22.352-.86-32.049l-2.861-4.513 4.697-3.9c2.583-2.145 7.263-5.592 10.4-7.66l5.703-3.759 3.45 2.133c5.539 3.423 10.353 9.408 11.094 13.791 1.178 6.978-3.883 17.459-14.655 30.348l-5.705 6.826 6.705-2.568c18.954-7.26 44.163-15.44 49.205-15.966 9.647-1.009 18 3.38 18 9.455 0 7.61-9.215 10.325-44.5 13.11-14.625 1.153-21.794 3.42-52.232 16.512-30.105 12.95-32.486 13.608-48.624 13.458-7.23-.067-15.844-.507-19.144-.978zm76.314-106.931c-8.294-1.285-17.665-3.852-21.849-5.986-5.052-2.578-9.782-8.267-11.162-13.429l-1.16-4.333-7.071 5.278c-9.37 6.993-16.6 10.884-24.928 13.417-11.421 3.473-23.19 2.316-25.023-2.46-1.463-3.813-.607-8.095 2.129-10.646 3.868-3.608 6.112-4.598 14.349-6.33 9.282-1.953 22.313-6.36 32.15-10.874l7.75-3.555-.005-14.275c-.003-7.852-.484-16-1.07-18.107-.585-2.107-3.258-6.554-5.94-9.882-2.682-3.329-6.558-9.252-8.613-13.162-4.781-9.1-5.089-14.535-1.144-20.23 5.697-8.224 12.964-9.629 20.638-3.989 6.092 4.477 17.395 16.252 19.482 20.295 2.488 4.82 2.04 7.432-2.316 13.516-2.183 3.048-4.393 7.51-4.91 9.913-1.455 6.75-2.493 26.87-1.387 26.87 1.395 0 14.224-9.17 26.266-18.777 29.12-23.228 43.57-29.535 60.184-26.266C262.004 84.253 268 89.02 268 96.09c0 2.804-.747 4.666-2.75 6.856-2.528 2.763-3.8 3.17-15.75 5.043-23.512 3.685-44.446 10.674-67.247 22.451-16.674 8.613-17.566 9.31-15.964 12.501 4.52 9.006 25.245 11.7 42.962 5.584 8.905-3.073 10.724-3.148 13.998-.572 5.75 4.522 6.97 14.094 2.58 20.257-4.003 5.623-8.91 7.18-23.33 7.407-7.15.112-15.558-.193-18.685-.677z" fill="#c38c8f"/><path d="M55.5 444.03c-21.508-5.689-38.767-19.529-48.034-38.52C-.46 389.265 0 400.444.007 223.763.012 119.353.366 64.309 1.058 60.04 5.936 29.978 31.768 5.61 63.643 1.002c9.244-1.336 222.47-1.336 231.713 0 31.876 4.608 57.708 28.976 62.585 59.039.693 4.268 1.046 59.312 1.051 163.723.01 177.154.502 165.438-7.66 182.152-3.856 7.896-6.024 10.847-13.222 18-9.836 9.774-16.406 13.968-28.849 18.42l-8.761 3.135-119 .205c-113.001.195-119.353.112-126-1.646zm248-4.335c25.415-7.385 44.995-27.664 49.455-51.224.827-4.365 1.056-50.262.84-168.5l-.295-162.5-2.68-7.334c-7.38-20.208-22.068-34.399-43.32-41.858l-8-2.808h-240l-8 2.808c-10.996 3.86-20.284 9.579-27.723 17.072-7.344 7.397-11.878 14.602-15.598 24.786l-2.68 7.334-.264 163.281C5.002 364.38 5.155 384.827 6.5 390.628c4.713 20.323 22.11 39.466 42.67 46.953 11.529 4.197 13.166 4.247 133.33 4.048 106.054-.176 115.467-.326 121-1.934zm-176.196-44.68c-4.37-2.664-5.832-5.244-8.153-14.38-1.095-4.31-2.205-8.051-2.467-8.312-.261-.262-3.878.227-8.037 1.086-10.34 2.136-13.421 1.978-19.39-.997-4.242-2.114-5.424-3.311-6.784-6.87-1.723-4.515-1.663-9.204.115-8.883 8.618 1.558 19.891 2.387 25.006 1.84 3.523-.378 6.406-.814 6.406-.97 0-.155-1.143-5.857-2.54-12.67-2.384-11.628-3.534-25.147-2.249-26.432.315-.315 2.145.084 4.068.888 4.126 1.723 5.239 4.619 8.807 22.903 1.26 6.46 2.61 12.263 3 12.894.839 1.356 5.04.474 20.782-4.364l10.369-3.186-.47-7.313c-.258-4.022-.747-7.591-1.088-7.931-.34-.34-2.985.232-5.878 1.272-5.163 1.856-5.279 1.986-6.28 7.067-.562 2.847-1.356 5.505-1.765 5.906-2.696 2.644-8.26-10.483-11.211-26.452-1.88-10.168-2.017-26.648-.252-30.14 1.147-2.269 1.899-2.517 8.141-2.687 9.678-.265 14.108-1.477 39.566-10.827 12.375-4.544 24.944-8.988 27.931-9.874 11.607-3.443 20.069-.859 20.069 6.13 0 .867-2.864 4.317-6.365 7.667-5.563 5.325-6.514 6.784-7.55 11.591-1.243 5.774-3.006 26.577-3.056 36.066l-.03 5.566 15.25.003c13.784.002 16.116.267 24.25 2.752 23.448 7.164 33.156 16.037 29.54 26.997-4.048 12.263-42.854 33.644-61 33.608-9.55-.02-37.557-7.769-50.473-13.966l-5.933-2.847-3.161 2.41c-2.09 1.595-4.484 2.413-7.067 2.416-5.073.005-9.717 2.9-11.428 7.128-2.216 5.473-5.156 6.276-10.673 2.912zm18.821-21.208l9.875-5.163v-4.337c0-2.8-.443-4.336-1.25-4.337-2.966-.004-25.01 7.515-25.458 8.684-.547 1.425 4.694 10.313 6.083 10.316.482 0 5.32-2.322 10.75-5.163zm61.174 1.703c11.865-3.45 23.058-8.905 28.426-13.853 7.557-6.966 9.204-12.376 4.67-15.346-2.368-1.552-3.656-1.593-14.25-.453-16.654 1.791-16.031 1.544-15.416 6.132.898 6.69-.49 10.795-5.265 15.57-6.048 6.048-9.932 6.133-14.538.318-2.854-3.604-3.604-4.021-6.272-3.488-6.83 1.366-21.654 10.066-21.654 12.708 0 1.014 13.734 1.693 26 1.286 6.44-.213 12.334-1.139 18.3-2.874zm-29.894-14.65c9.58-3.469 12.595-5.339 12.595-7.813 0-1.834-.197-1.835-8.401-.042-17.042 3.724-16.6 3.509-16.6 8.072 0 4.615-.988 4.633 12.406-.217zm-2.969-18.827c3.885-1.066 8.997-2.438 11.36-3.05l4.297-1.114-.297-6.199-.296-6.199-3.5.285c-7.597.62-18.566 2.552-19.75 3.48-1.675 1.314-1.733 14.735-.064 14.735.652 0 4.365-.872 8.25-1.938zm-20.343-24.058c-.134-4.118-.44-7.684-.681-7.925-.241-.24-2.57.443-5.175 1.52l-4.737 1.96-.304 5.858c-.439 8.45-.304 8.614 5.905 7.236l5.235-1.163-.243-7.486zm31.407-.808l4 .273.577-6.484c.318-3.567.318-6.752 0-7.08-.816-.842-20.166.783-21.15 1.775-.955.965-3.059 13.299-2.439 14.301.234.378 3.707-.156 7.718-1.186 4.012-1.03 9.094-1.75 11.294-1.6zm-35.65-12.293c3.064-1.068 3.15-1.262 3.15-7.14v-6.041l-5.136.608c-2.824.335-5.327.8-5.561 1.034-.235.234-.115 3.173.264 6.531.757 6.686 1.333 7.082 7.284 5.008zm33.15-7.786l8.5-.617.59-5.5c.324-3.025.489-5.635.365-5.801-.284-.381-25.373 4.386-25.91 4.923-.218.218.123 2.34.757 4.717 1.107 4.145 1.276 4.291 4.176 3.607 1.662-.392 6.847-.99 11.522-1.33zm-67.5-14.794c-7.876-.67-17.057-2.494-20.294-4.03-3.816-1.81-6.461-6.255-6.016-10.109l.31-2.684 30-.685c16.5-.377 31.941-.971 34.314-1.32 4.22-.623 4.3-.705 3.694-3.815-.377-1.94-2.133-4.512-4.501-6.596l-3.882-3.416 8.491-9.02c4.67-4.962 10.106-11.637 12.08-14.834 1.973-3.198 3.965-5.814 4.426-5.814.46 0 1.746 1.782 2.858 3.96 3.827 7.504 2.018 17.06-4.556 24.067-1.937 2.065-2.26 3.208-1.767 6.25.684 4.211 1.163 4.345 7.663 2.13 5.409-1.843 7.931-4.894 10.897-13.178 3.252-9.087 2.823-15.846-1.555-24.485-2.02-3.984-3.67-7.583-3.667-7.998.007-1.204 15.952-12.694 18.504-13.335 2.685-.674 5.834.754 9.84 4.462 9.454 8.75 7.225 20.335-7.428 38.598-3.764 4.691-6.682 8.53-6.486 8.53.197 0 6.156-2.194 13.241-4.875 35.859-13.566 46.575-15.777 55.011-11.35 4.418 2.317 5.876 4.885 4.925 8.674-1.34 5.336-13.837 9.119-33.315 10.082-22.734 1.124-27.478 2.451-62.893 17.596-12.708 5.434-26.618 10.779-30.91 11.876-7.393 1.891-17.093 2.333-28.984 1.32zm68.314-107.354c-8.294-1.285-17.665-3.852-21.849-5.986-5.052-2.578-9.782-8.267-11.162-13.429l-1.16-4.333-7.071 5.278c-9.37 6.993-16.6 10.884-24.928 13.417-11.421 3.473-23.19 2.316-25.023-2.46-1.463-3.813-.607-8.095 2.129-10.646 3.868-3.608 6.112-4.598 14.349-6.33 9.282-1.953 22.313-6.36 32.15-10.874l7.75-3.555-.005-14.275c-.003-7.852-.484-16-1.07-18.107-.585-2.107-3.258-6.554-5.94-9.882-2.682-3.329-6.558-9.252-8.613-13.162-4.781-9.1-5.089-14.535-1.144-20.23 5.697-8.224 12.964-9.629 20.638-3.989 6.092 4.477 17.395 16.252 19.482 20.295 2.488 4.82 2.04 7.432-2.316 13.516-2.183 3.048-4.393 7.51-4.91 9.913-1.455 6.75-2.493 26.87-1.387 26.87 1.395 0 14.224-9.17 26.266-18.777 29.12-23.228 43.57-29.535 60.184-26.266C262.004 84.253 268 89.02 268 96.09c0 2.804-.747 4.666-2.75 6.856-2.528 2.763-3.8 3.17-15.75 5.043-23.512 3.685-44.446 10.674-67.247 22.451-16.674 8.613-17.566 9.31-15.964 12.501 4.52 9.006 25.245 11.7 42.962 5.584 8.905-3.073 10.724-3.148 13.998-.572 5.75 4.522 6.97 14.094 2.58 20.257-4.003 5.623-8.91 7.18-23.33 7.407-7.15.112-15.558-.193-18.685-.677z" fill="#7c7c7c"/><path d="M59.5 444.488c-15.366-2.922-27.135-9.117-38-20.002-8.886-8.902-13.324-15.739-17.321-26.68l-2.68-7.335-.279-164C.908 43.141.466 55.216 8.038 40.184 17.02 22.35 31.803 10.12 52 3.814l7.5-2.343h240l7.5 2.342c20.196 6.307 34.979 18.536 43.962 36.371 7.571 15.032 7.13 2.957 6.817 186.287l-.28 164-2.678 7.335c-3.999 10.946-8.43 17.77-17.396 26.785-6.612 6.648-9.783 8.958-17.5 12.744-17.844 8.755-6.645 8.08-137.425 8.294-93.023.152-117.387-.074-123-1.141zm248-5.833c23.652-8.325 41.372-28.055 45.97-51.184 1.421-7.149 1.56-25.016 1.308-168-.27-152.955-.363-160.242-2.142-165.5-6.616-19.554-19.335-34.15-37.136-42.617-15.384-7.317-6.81-6.883-136-6.883s-120.616-.434-136 6.883C25.813 19.766 12.822 34.668 6.348 53.971 4.59 59.211 4.49 67.04 4.22 219.471c-.315 178.934-.7 168.518 6.797 184.104 6.43 13.37 20.806 27.044 34.597 32.909 2.136.909 7.035 2.495 10.885 3.525 6.676 1.786 12.467 1.863 125 1.668l118-.206 8-2.816zm-180.196-43.64c-4.37-2.664-5.832-5.244-8.153-14.38-1.095-4.31-2.205-8.051-2.467-8.312-.261-.262-3.878.227-8.037 1.086-10.34 2.136-13.421 1.978-19.39-.997-4.242-2.114-5.424-3.311-6.784-6.87-1.723-4.515-1.663-9.204.115-8.883 8.618 1.558 19.891 2.387 25.006 1.84 3.523-.378 6.406-.814 6.406-.97 0-.155-1.143-5.857-2.54-12.67-2.384-11.628-3.534-25.147-2.249-26.432.315-.315 2.145.084 4.068.888 4.126 1.723 5.239 4.619 8.807 22.903 1.26 6.46 2.61 12.263 3 12.894.839 1.356 5.04.474 20.782-4.364l10.369-3.186-.47-7.313c-.258-4.022-.747-7.591-1.088-7.931-.34-.34-2.985.232-5.878 1.272-5.163 1.856-5.279 1.986-6.28 7.067-.562 2.847-1.356 5.505-1.765 5.906-2.696 2.644-8.26-10.483-11.211-26.452-1.88-10.168-2.017-26.648-.252-30.14 1.147-2.269 1.899-2.517 8.141-2.687 9.678-.265 14.108-1.477 39.566-10.827 12.375-4.544 24.944-8.988 27.931-9.874 11.607-3.443 20.069-.859 20.069 6.13 0 .867-2.864 4.317-6.365 7.667-5.563 5.325-6.514 6.784-7.55 11.591-1.243 5.774-3.006 26.577-3.056 36.066l-.03 5.566 15.25.003c13.784.002 16.116.267 24.25 2.752 23.448 7.164 33.156 16.037 29.54 26.997-4.048 12.263-42.854 33.644-61 33.608-9.55-.02-37.557-7.769-50.473-13.966l-5.933-2.847-3.161 2.41c-2.09 1.595-4.484 2.413-7.067 2.416-5.073.005-9.717 2.9-11.428 7.128-2.216 5.473-5.156 6.276-10.673 2.912zm18.821-21.208l9.875-5.163v-4.337c0-2.8-.443-4.336-1.25-4.337-2.966-.004-25.01 7.515-25.458 8.684-.547 1.425 4.694 10.313 6.083 10.316.482 0 5.32-2.322 10.75-5.163zm61.174 1.703c11.865-3.45 23.058-8.905 28.426-13.853 7.557-6.966 9.204-12.376 4.67-15.346-2.368-1.552-3.656-1.593-14.25-.453-16.654 1.791-16.031 1.544-15.416 6.132.898 6.69-.49 10.795-5.265 15.57-6.048 6.048-9.932 6.133-14.538.318-2.854-3.604-3.604-4.021-6.272-3.488-6.83 1.366-21.654 10.066-21.654 12.708 0 1.014 13.734 1.693 26 1.286 6.44-.213 12.334-1.139 18.3-2.874zm-29.894-14.65c9.58-3.469 12.595-5.339 12.595-7.813 0-1.834-.197-1.835-8.401-.042-17.042 3.724-16.6 3.509-16.6 8.072 0 4.615-.988 4.633 12.406-.217zm-2.969-18.827c3.885-1.066 8.997-2.438 11.36-3.05l4.297-1.114-.297-6.199-.296-6.199-3.5.285c-7.597.62-18.566 2.552-19.75 3.48-1.675 1.314-1.733 14.735-.064 14.735.652 0 4.365-.872 8.25-1.938zm-20.343-24.058c-.134-4.118-.44-7.684-.681-7.925-.241-.24-2.57.443-5.175 1.52l-4.737 1.96-.304 5.858c-.439 8.45-.304 8.614 5.905 7.236l5.235-1.163-.243-7.486zm31.407-.808l4 .273.577-6.484c.318-3.567.318-6.752 0-7.08-.816-.842-20.166.783-21.15 1.775-.955.965-3.059 13.299-2.439 14.301.234.378 3.707-.156 7.718-1.186 4.012-1.03 9.094-1.75 11.294-1.6zm-35.65-12.293c3.064-1.068 3.15-1.262 3.15-7.14v-6.041l-5.136.608c-2.824.335-5.327.8-5.561 1.034-.235.234-.115 3.173.264 6.531.757 6.686 1.333 7.082 7.284 5.008zm33.15-7.786l8.5-.617.59-5.5c.324-3.025.489-5.635.365-5.801-.284-.381-25.373 4.386-25.91 4.923-.218.218.123 2.34.757 4.717 1.107 4.145 1.276 4.291 4.176 3.607 1.662-.392 6.847-.99 11.522-1.33zm-67.5-14.794c-7.876-.67-17.057-2.494-20.294-4.03-3.816-1.81-6.461-6.255-6.016-10.109l.31-2.684 30-.685c16.5-.377 31.941-.971 34.314-1.32 4.22-.623 4.3-.705 3.694-3.815-.377-1.94-2.133-4.512-4.501-6.596l-3.882-3.416 8.491-9.02c4.67-4.962 10.106-11.637 12.08-14.834 1.973-3.198 3.965-5.814 4.426-5.814.46 0 1.746 1.782 2.858 3.96 3.827 7.504 2.018 17.06-4.556 24.067-1.937 2.065-2.26 3.208-1.767 6.25.684 4.211 1.163 4.345 7.663 2.13 5.409-1.843 7.931-4.894 10.897-13.178 3.252-9.087 2.823-15.846-1.555-24.485-2.02-3.984-3.67-7.583-3.667-7.998.007-1.204 15.952-12.694 18.504-13.335 2.685-.674 5.834.754 9.84 4.462 9.454 8.75 7.225 20.335-7.428 38.598-3.764 4.691-6.682 8.53-6.486 8.53.197 0 6.156-2.194 13.241-4.875 35.859-13.566 46.575-15.777 55.011-11.35 4.418 2.317 5.876 4.885 4.925 8.674-1.34 5.336-13.837 9.119-33.315 10.082-22.734 1.124-27.478 2.451-62.893 17.596-12.708 5.434-26.618 10.779-30.91 11.876-7.393 1.891-17.093 2.333-28.984 1.32zm72.427-107.325c-15.977-1.84-27.682-5.855-32.674-11.21-1.235-1.325-3.035-4.706-4-7.514l-1.753-5.104-6.5 4.911c-13.502 10.203-26.24 15.305-38.348 15.358-7.37.033-7.994-.135-10.25-2.758-3.446-4.006-3.153-8.13.862-12.145 2.737-2.736 4.878-3.627 13.25-5.51 10.886-2.447 25.739-7.642 34.637-12.114l5.652-2.84.709-10.403c.642-9.424.419-13.728-1.135-21.872-.284-1.488-2.943-5.75-5.91-9.473-6.961-8.735-11.634-18.003-12.236-24.27-.854-8.888 6.088-17.054 14.499-17.054 1.61 0 4.983 1.363 7.497 3.027 6.946 4.601 18.235 16.998 20.225 22.21 1.628 4.263 1.63 4.709.02 7.89-.938 1.856-2.532 4.28-3.541 5.387-3.726 4.087-5.077 9.493-5.662 22.645-.374 8.404-.22 12.841.445 12.841 1.585 0 11.1-6.717 24.886-17.568 16.545-13.025 25.256-18.931 34.4-23.326 7.336-3.527 7.762-3.605 19.5-3.594 10.181.01 12.716.34 16.723 2.182 7.62 3.501 10.524 10.027 7.266 16.326-2.061 3.987-3.355 4.507-15.99 6.425-23.072 3.502-51.34 13.142-71.666 24.44-13.476 7.49-14.36 8.262-12.805 11.168 1.972 3.685 5.009 5.792 10.895 7.56 7.669 2.305 24.502 1.503 31.986-1.523 11.714-4.734 18.119-1.453 18.831 9.647.466 7.25-1.722 11.108-8.03 14.162-5.287 2.559-19.585 3.503-31.783 2.1z" fill="#a55357"/><path d="M59.5 444.488c-15.366-2.922-27.135-9.117-38-20.002-8.886-8.902-13.324-15.739-17.321-26.68l-2.68-7.335-.279-164C.908 43.141.466 55.216 8.038 40.184 17.02 22.35 31.803 10.12 52 3.814l7.5-2.343h240l7.5 2.342c20.196 6.307 34.979 18.536 43.962 36.371 7.571 15.032 7.13 2.957 6.817 186.287l-.28 164-2.678 7.335c-3.999 10.946-8.43 17.77-17.396 26.785-6.612 6.648-9.783 8.958-17.5 12.744-17.844 8.755-6.645 8.08-137.425 8.294-93.023.152-117.387-.074-123-1.141zm248-5.833c23.652-8.325 41.372-28.055 45.97-51.184 1.421-7.149 1.56-25.016 1.308-168-.27-152.955-.363-160.242-2.142-165.5-6.616-19.554-19.335-34.15-37.136-42.617-15.384-7.317-6.81-6.883-136-6.883s-120.616-.434-136 6.883C25.813 19.766 12.822 34.668 6.348 53.971 4.59 59.211 4.49 67.04 4.22 219.471c-.315 178.934-.7 168.518 6.797 184.104 6.43 13.37 20.806 27.044 34.597 32.909 2.136.909 7.035 2.495 10.885 3.525 6.676 1.786 12.467 1.863 125 1.668l118-.206 8-2.816zm-179-43.2c-1.65-.849-3.791-2.484-4.758-3.634-1.563-1.859-4.595-10.712-6.15-17.957l-.559-2.608-5.19 1.346c-13.248 3.437-20.85 2.562-26.454-3.041-3.192-3.193-5.18-9.085-4.055-12.017.452-1.18 1.247-1.244 4.36-.353 3.99 1.141 26.709 1.709 27.727.692.324-.323-.55-6.173-1.942-13-2.253-11.052-3.439-25.285-2.21-26.515 1.1-1.1 5.897 1.828 7.61 4.645 1.034 1.7 3.107 9.3 4.607 16.888 1.5 7.589 3.087 14.38 3.527 15.092.895 1.449 7.473.124 22.881-4.608l8.359-2.567-.478-7.44c-.262-4.093-.73-7.694-1.038-8.003-.309-.309-3.004.209-5.989 1.15-5.418 1.708-5.428 1.718-6.338 6.825-1.925 10.818-6.902 4.85-11.575-13.881-1.766-7.078-2.254-11.947-2.29-22.826-.054-16.527-.056-16.524 10.802-16.552 8.441-.021 14.116-1.581 37.682-10.36 27.788-10.352 33.562-12.066 38.696-11.487 5.77.65 9.841 4.334 8.906 8.06-.348 1.387-2.859 4.243-5.579 6.345-7.765 6-9.408 12.02-10.632 38.942l-.687 15.119 14.883-.108c12.871-.093 15.966.21 22.884 2.236 16.637 4.873 28.614 12.166 31.526 19.196 1.657 4 .012 9.686-4.186 14.467-3.93 4.475-18.696 14.362-28.156 18.85-13.519 6.416-19.391 8.054-28.684 8.002-11.932-.066-33.667-5.923-50.111-13.502l-6.798-3.134-3.122 2.627c-2.254 1.896-4.284 2.637-7.296 2.663-5.693.048-8.58 1.894-11.067 7.077-2.372 4.941-4.515 5.735-9.106 3.372zm27.302-31.433c.227-3.787-.02-4.917-1-4.578-.716.247-6.477 2.07-12.802 4.05-6.325 1.98-12.078 3.79-12.785 4.02-1.395.457.18 4.292 3.981 9.699l1.927 2.74 10.189-5.451 10.188-5.452.302-5.028zm53.72 10.898c17.527-5.601 27.866-11.869 31.575-19.14 2.526-4.95 2.159-7.819-1.244-9.722-2.302-1.289-4.253-1.309-15-.155-6.794.73-12.83 1.51-13.414 1.732-.644.246-.907 2.656-.669 6.12.348 5.064.043 6.24-2.673 10.3-5.615 8.395-13.082 10.137-16.76 3.91-2.447-4.142-4.39-4.472-11.805-2.004-6.363 2.117-9.393 3.939-14.855 8.93l-2.824 2.58 8.824.63c16.98 1.21 27.908.315 38.846-3.18zm-32.796-13.575c10.539-3.91 13.274-5.663 13.274-8.504 0-2.05.364-2.086-15.134 1.502l-9.366 2.169-.308 4.23c-.177 2.444.13 4.23.727 4.23.569 0 5.432-1.633 10.807-3.627zm-2.226-19.25c3.85-1.092 8.912-2.484 11.25-3.093l4.25-1.108v-5.902c0-3.247-.338-6.104-.75-6.35-1.241-.742-21.598 2.373-22.974 3.515-1.77 1.47-1.796 15.924-.026 15.338.687-.228 4.4-1.308 8.25-2.4zm-22.5-16.11c1.375-.362 2.455-1.188 2.4-1.836-.055-.648-.168-4.103-.25-7.678-.167-7.25-.325-7.362-6.867-4.864L143 313.243v14.678l3.25-.639c1.787-.352 4.375-.935 5.75-1.297zm23.99-7.55c3.805-.963 8.045-1.394 10.25-1.041l3.76.601.014-5.262c.008-2.894.28-6.259.607-7.477.565-2.106.353-2.194-4.263-1.767-2.672.247-7.835.71-11.472 1.03l-6.614.582-1.136 6.878c-1.474 8.925-1.453 9.22.614 8.612.962-.283 4.67-1.253 8.24-2.156zm-23.189-20.42l.302-6.334-5.187.614c-2.853.338-5.37.797-5.593 1.02-.222.222-.105 3.325.26 6.895l.665 6.49 4.626-1.175 4.626-1.177.301-6.334zm29.864-.708l9.165-.6.384-5.617c.212-3.09.26-5.796.107-6.013-.225-.32-15.781 2.43-24.951 4.412-2.091.452-2.1.544-.5 5.035 1.463 4.107 1.885 4.514 4.13 3.978 1.375-.328 6.624-.866 11.665-1.195zm-69.398-15.303c-10.84-1.236-17.057-2.985-20.292-5.707-3.387-2.85-5.077-9.014-2.857-10.42.76-.481 9.932-.908 20.382-.949 20.48-.08 46.15-1.274 47.067-2.19.31-.31.083-2.354-.506-4.54-.734-2.726-2.154-4.718-4.516-6.336l-3.446-2.362 8.323-8.514c4.579-4.683 10.105-11.335 12.28-14.781 3.693-5.848 4.06-6.149 5.5-4.5 2.78 3.187 3.798 6.066 3.798 10.75 0 4.975-1.66 8.961-6.068 14.573-2.38 3.03-2.71 4.185-2.224 7.804.338 2.522 1.02 4.074 1.68 3.822.612-.234 3.544-1.27 6.516-2.304 5.067-1.761 5.58-2.253 8.23-7.883 5.765-12.255 5.51-23.36-.758-32.852l-2.546-3.857 2.835-2.973c4.96-5.203 16.146-12.08 18.62-11.447 3.39.866 9.265 6.165 11.084 10 3.802 8.012.132 18.364-11.748 33.133-3.539 4.4-6.326 8.113-6.194 8.251.133.138 9.48-3.113 20.771-7.224 11.291-4.112 24.381-8.452 29.089-9.644 8.508-2.154 8.593-2.156 14.31-.275 3.737 1.23 6.47 2.871 7.806 4.688 1.884 2.562 1.931 3.018.566 5.45-3.412 6.079-12.62 8.558-37.8 10.176-19.516 1.254-25.197 2.917-57.703 16.892-28.964 12.452-31.88 13.353-44.466 13.73-5.775.173-13.755-.057-17.733-.51zm74.66-107.035c-15.977-1.84-27.682-5.855-32.674-11.21-1.235-1.325-3.035-4.706-4-7.514l-1.753-5.104-6.5 4.911c-13.502 10.203-26.24 15.305-38.348 15.358-7.37.033-7.994-.135-10.25-2.758-3.446-4.006-3.153-8.13.862-12.145 2.737-2.736 4.878-3.627 13.25-5.51 10.886-2.447 25.739-7.642 34.637-12.114l5.652-2.84.709-10.403c.642-9.424.419-13.728-1.135-21.872-.284-1.488-2.943-5.75-5.91-9.473-6.961-8.735-11.634-18.003-12.236-24.27-.854-8.888 6.088-17.054 14.499-17.054 1.61 0 4.983 1.363 7.497 3.027 6.946 4.601 18.235 16.998 20.225 22.21 1.628 4.263 1.63 4.709.02 7.89-.938 1.856-2.532 4.28-3.541 5.387-3.726 4.087-5.077 9.493-5.662 22.645-.374 8.404-.22 12.841.445 12.841 1.585 0 11.1-6.717 24.886-17.568 16.545-13.025 25.256-18.931 34.4-23.326 7.336-3.527 7.762-3.605 19.5-3.594 10.181.01 12.716.34 16.723 2.182 7.62 3.501 10.524 10.027 7.266 16.326-2.061 3.987-3.355 4.507-15.99 6.425-23.072 3.502-51.34 13.142-71.666 24.44-13.476 7.49-14.36 8.262-12.805 11.168 1.972 3.685 5.009 5.792 10.895 7.56 7.669 2.305 24.502 1.503 31.986-1.523 11.714-4.734 18.119-1.453 18.831 9.647.466 7.25-1.722 11.108-8.03 14.162-5.287 2.559-19.585 3.503-31.783 2.1z" fill="#871a1f"/><path d="M59.753 444.407c-23.188-4.24-42.153-18.67-52.357-39.834-6.842-14.191-6.485-3.52-6.176-184.602l.28-163.5 2.68-7.335C9.45 34.705 19.563 21.708 31.795 13.644 40.373 7.99 46.528 5.316 56.5 2.914 64.16 1.066 69.37.984 179.5.984s115.339.082 123 1.928c9.972 2.403 16.127 5.077 24.703 10.73 12.233 8.065 22.346 21.063 27.618 35.494l2.679 7.334.265 164.419c.292 181.791.715 169.15-6.148 183.581-7.083 14.894-18.228 26.152-33.117 33.455-16.352 8.02-6.097 7.44-135.5 7.682-96.034.18-116.806-.023-123.247-1.2zm247.24-5.29c19.75-7.159 33.022-18.648 41.175-35.646 7.291-15.198 6.898-4.276 6.6-183.27L354.5 59.47l-2.339-7c-3.723-11.147-8.79-19.307-17.076-27.5C323.497 13.514 311.1 7.278 295.398 5.008c-4.245-.613-48.875-1.005-116.017-1.017-93.7-.017-110.364.197-117.926 1.516C35.102 10.103 14.627 27.894 6.83 52.971l-2.331 7.5v163c0 155.231.087 163.283 1.833 168.94 7.027 22.771 23.44 39.431 45.753 46.444 3.528 1.108 7.539 2.207 8.914 2.442 1.375.234 55.825.37 121 .3l118.5-.126 6.493-2.353zM191.5 175.36c-15.138-1.539-27.142-4.898-33.21-9.293-3.452-2.5-4.759-4.617-7.927-12.833-.838-2.173-1.106-2.064-9.242 3.76-4.608 3.299-11.25 7.368-14.76 9.043-8.053 3.844-19.428 6.29-25.237 5.425-8.105-1.206-11.625-8.042-7.101-13.792 2.002-2.547 11.278-6.699 14.963-6.699 3.074 0 17.653-4.82 29.171-9.645l10.658-4.464.712-10.455c.756-11.087-.62-24.591-2.805-27.53-.672-.905-3.2-4.066-5.617-7.025C135.189 84.61 130 73.65 130 68.4c0-8.237 8.857-16.428 16.261-15.04 6.6 1.239 23.56 17.753 26.692 25.988 1.215 3.196-.16 6.877-4.9 13.123-3.567 4.699-5.361 14.967-4.859 27.797l.306 7.797 9-6.143c4.95-3.378 11.25-8.04 14-10.358 15.728-13.263 32.573-24.324 42.17-27.69 8.676-3.043 22.752-2.399 30.51 1.397 7.166 3.506 9.675 7.903 7.897 13.838-1.528 5.098-4.43 6.479-17.77 8.457-13.672 2.028-26.071 5.171-38.807 9.839-11.814 4.33-38.72 17.45-43 20.969-2.898 2.382-2.948 2.562-1.463 5.282.846 1.548 3.546 3.933 6 5.3 3.85 2.143 6.011 2.535 15.742 2.859 9.985.331 12.238.075 19.646-2.235 12.78-3.984 15.523-3.59 18.728 2.691 1.542 3.024 1.949 5.286 1.6 8.91-.888 9.245-8.2 13.766-23.09 14.273-5.04.172-10.963.13-13.163-.094z" fill="#010101"/></svg>