<svg xmlns="http://www.w3.org/2000/svg" width="358.759" height="445.788"><path d="M55.253 443.959c-25.838-6.354-46.163-25.915-53.101-51.105-1.687-6.124-1.79-15.988-1.79-170.5v-164l2.72-8.021C9.67 30.916 23.16 15.789 41.543 7.209 57.078-.042 49.116.354 179.363.354c107.68 0 117.536.138 123.73 1.73 21.571 5.549 39.032 19.353 48.358 38.232 7.917 16.027 7.481 4.704 7.18 186.544l-.268 161.494-2.715 8c-8.14 23.991-27.441 41.612-52.038 47.509-7.98 1.913-12.019 1.975-124.747 1.91-107.388-.061-117.056-.203-123.609-1.814zm248.109-4.46c24.545-7.294 42.871-25.678 48.952-49.105 1.366-5.26 1.546-24.876 1.533-167-.013-139.87-.213-161.88-1.52-167.426-4.195-17.796-18.21-34.95-35.54-43.506-16.11-7.952-9.236-7.571-137.228-7.59-128.17-.02-120.725-.436-137.63 7.677-17.262 8.284-30.786 24.93-35.557 43.765-2.248 8.87-2.256 323.753-.01 333.282 6.142 26.05 28.565 46.528 56.074 51.212 2.709.461 56.675.757 119.925.656 107.11-.17 115.412-.304 121-1.965zm-99.5-43.767c-11.734-2.534-31.594-8.96-39.153-12.669l-5.652-2.773-3.182 2.843c-2.476 2.213-3.797 2.707-5.96 2.232-4.39-.964-9.508 2.043-11.691 6.87-2.095 4.633-5.293 5.719-10.496 3.564-4.236-1.755-6.564-5.643-9.035-15.087-1.203-4.597-2.24-8.454-2.305-8.571-.066-.118-2.573.44-5.573 1.238-17.117 4.555-29.94-1.178-29.95-13.392-.004-4.26.064-4.35 2.747-3.698 1.512.367 8.878.926 16.368 1.24l13.618.573-2.415-11.374c-1.329-6.256-2.507-15.2-2.618-19.874-.195-8.132-.106-8.514 2.053-8.82 3.47-.493 7.798 4.483 9.017 10.366 5.823 28.11 5.336 26.454 7.777 26.454 2.681 0 26.638-6.768 27.604-7.799.362-.386.418-3.917.125-7.847l-.533-7.146-4.623 1.537c-6.013 2-7.12 2.951-7.137 6.127-.044 8.42-3.923 9.507-7.588 2.128-4.977-10.022-9.151-34.148-7.911-45.726.907-8.468 3.097-10.687 9.7-9.83 6.646.862 16.099-1.539 37.228-9.456 36.275-13.591 41.823-14.735 47.983-9.89 4.51 3.547 3.604 7.238-3.382 13.79-5.383 5.048-6.14 6.264-7.533 12.112-.883 3.7-1.813 13.823-2.16 23.5l-.609 17 16.393.049c15.245.045 16.953.242 24.393 2.816 12.272 4.245 20.102 8.48 24.498 13.249 3.527 3.826 4.002 4.919 4.002 9.213 0 3.785-.645 5.763-2.888 8.859-8.391 11.583-39.492 28.043-56.112 29.696-3.662.365-8.676-.138-15-1.504zm-48.041-31.696c.047-4.985 1.828-5.052-15.632.59l-11.172 3.612 2.043 4.058c3.563 7.075 3.029 7.027 14.37 1.292l10.35-5.234.04-4.318zm49.623 11.266c19.877-5.76 30.889-12.23 35.252-20.712 2.366-4.601 2.389-4.832.653-6.75-2.139-2.363-8.083-2.598-21.67-.855l-8.817 1.13v6.673c0 5.842-.374 7.18-3.005 10.757-3.425 4.657-9.051 7.763-12.498 6.898-1.283-.322-3.286-2.13-4.453-4.017-1.166-1.887-2.666-3.619-3.332-3.848-1.281-.441-9.901 2.253-13.865 4.333-1.29.678-4.114 2.617-6.272 4.31-3.875 3.039-3.894 3.087-1.5 3.756 1.333.372 8.787.722 16.563.777 12.373.087 15.237-.219 22.944-2.452zm-19.387-18.47c2.567-1.19 4.385-3.732 3.384-4.732-.257-.257-5.621.73-11.92 2.196-9.802 2.279-11.539 2.98-12.043 4.86-1.562 5.826-1.276 5.902 8.634 2.294 5.087-1.853 10.462-3.93 11.945-4.618zm-6.374-16.822l10.321-2.656-.571-2.875c-.314-1.581-.571-4.227-.571-5.88v-3.003l-5.25.67c-2.888.369-8.063 1.148-11.5 1.732l-6.25 1.061v7.504c0 6.748.176 7.434 1.75 6.804.962-.385 6.394-1.896 12.071-3.357zm-29.571-14.209c4.124-1.145 4.381-2.06 3.136-11.143l-.613-4.475-4.387 1.578-4.386 1.577v6.758c0 7.39.042 7.43 6.25 5.705zm23.159-7.458c2.7-.82 7.253-1.49 10.119-1.49h5.21l.62-3.75c1.215-7.352.865-9.25-1.708-9.25-8.633 0-17.81 1.432-18.595 2.901-1.261 2.364-2.427 13.102-1.42 13.089.475-.006 3.074-.681 5.774-1.5zm-23.16-14.05c2.919-.696 3.426-2.808 2.177-9.064-.551-2.758-.774-2.861-5.457-2.532-5.42.382-5.043-.65-3.457 9.457.466 2.966.969 3.69 2.292 3.297.933-.276 2.933-.797 4.446-1.158zm35.911-8.268c4.631.327 4.665.306 5.24-3.171 1.204-7.29.96-7.932-2.65-7-1.788.46-7.563 1.589-12.834 2.507l-9.584 1.67 1.403 4.261 1.403 4.262 6.18-1.429c3.4-.786 8.279-1.28 10.842-1.1zm-78.041-14.16c-13.957-2.139-19.12-5.637-19.12-12.952 0-3.748.05-3.794 4.64-4.423 2.552-.35 14.14-.639 25.75-.642 11.61-.003 24.87-.299 29.466-.657l8.356-.65-.56-3.448c-.378-2.332-1.788-4.511-4.355-6.733l-3.796-3.285 9.04-9.36c4.973-5.149 10.53-11.968 12.348-15.153 3.736-6.545 4.66-6.473 8.295.651 3.1 6.076 2.147 12.265-3.044 19.788-4.04 5.856-4.942 9.04-3.296 11.634.643 1.013 1.976.837 6.35-.837 6.274-2.4 8.44-5.338 11.339-15.37 2.711-9.386.558-20.132-5.399-26.941-1.543-1.765-1.348-2.123 3.537-6.5 2.844-2.548 7.69-6.156 10.768-8.016l5.597-3.383 4.714 2.914c8.397 5.192 11.583 12.52 9.177 21.113-1.202 4.294-9.137 17.035-15.582 25.02l-2.648 3.28 8.402-3.164c20.276-7.637 40.793-14.168 45.984-14.638 9.812-.89 17.918 3.244 17.918 9.139 0 7.547-9.745 11.096-34.85 12.694-23.093 1.47-30.137 3.56-68.261 20.267-22.076 9.673-23.439 10.02-40.39 10.262-8.25.118-17.42-.156-20.38-.61zM79.86 170.208c-5.733-.95-7-1.466-7-2.848 0-2.071 3.669-3.718 19-8.53 16.284-5.109 21.033-7.402 27.647-13.348 3.805-3.421 5.598-6.034 7.25-10.564 2.49-6.83 7.76-13.064 11.045-13.064 2.782 0 15.932 4.385 21.18 7.062 6.623 3.378 11.879 8.74 11.879 12.12 0 4.486-1.59 6.596-8.178 10.854-14.733 9.523-43.346 16.9-70.822 18.262-5.225.26-10.625.284-12 .056zm184.536-2.442c-21.042-2.87-47.25-10.702-60.127-17.968-10.595-5.977-23.346-18.888-35.404-35.846-9.758-13.724-15.96-20.201-24.254-25.332-3.966-2.453-4.75-3.435-4.75-5.95 0-4.139 2.408-8.851 6.596-12.907 3.294-3.19 3.95-3.409 10.212-3.405 11.798.008 13.721 1.709 36.758 32.496 22.093 29.525 33.939 38.442 74.434 56.032 7.975 3.464 15.062 6.73 15.75 7.256 1.455 1.114 1.664 4.337.335 5.16-1.832 1.131-12.755 1.39-19.55.464z" fill="#e0c5c6"/><path d="M55.253 443.959c-25.838-6.354-46.163-25.915-53.101-51.105-1.687-6.124-1.79-15.988-1.79-170.5v-164l2.72-8.021C9.67 30.916 23.16 15.789 41.543 7.209 57.078-.042 49.116.354 179.363.354c107.68 0 117.536.138 123.73 1.73 21.571 5.549 39.032 19.353 48.358 38.232 7.917 16.027 7.481 4.704 7.18 186.544l-.268 161.494-2.715 8c-8.14 23.991-27.441 41.612-52.038 47.509-7.98 1.913-12.019 1.975-124.747 1.91-107.388-.061-117.056-.203-123.609-1.814zm248.109-4.46c24.545-7.294 42.871-25.678 48.952-49.105 1.366-5.26 1.546-24.876 1.533-167-.013-139.87-.213-161.88-1.52-167.426-4.195-17.796-18.21-34.95-35.54-43.506-16.11-7.952-9.236-7.571-137.228-7.59-128.17-.02-120.725-.436-137.63 7.677-17.262 8.284-30.786 24.93-35.557 43.765-2.248 8.87-2.256 323.753-.01 333.282 6.142 26.05 28.565 46.528 56.074 51.212 2.709.461 56.675.757 119.925.656 107.11-.17 115.412-.304 121-1.965zm-91.5-42.324c-14.865-2.54-37.572-9.537-47.844-14.742-4.394-2.226-5.11-2.34-6.228-.993-1.988 2.396-5.186 3.797-8.173 3.581-5.171-.374-9.415 2.274-11.614 7.246-1.85 4.181-2.336 4.587-5.508 4.587-3.893 0-8.847-3.535-11.03-7.87-.729-1.446-2.115-5.907-3.08-9.911-1.407-5.84-2.078-7.183-3.389-6.787-9.276 2.8-19.43 3.307-24.432 1.217-1.779-.743-4.69-3.009-6.468-5.035-2.64-3.006-3.234-4.527-3.234-8.266 0-4.499.049-4.569 2.75-3.89 1.512.381 8.874.933 16.36 1.227l13.609.534-2.838-14.36c-4.215-21.326-3.802-27.272 1.757-25.317 4.251 1.495 6.254 6.143 9.557 22.18 1.673 8.128 3.125 14.876 3.225 14.996.316.378 18.833-4.537 24.58-6.525l5.5-1.902-.36-7.396c-.198-4.067-.466-7.513-.594-7.656-.415-.461-8.828 2.75-10.21 3.897-.735.61-1.336 2.543-1.336 4.295 0 1.753-.635 4.054-1.41 5.114-1.379 1.886-1.455 1.887-3.48.055-5.13-4.642-10.312-25.859-10.488-42.936-.122-11.82-.119-11.84 2.71-14.274 2.434-2.093 3.492-2.35 7.5-1.826 6.695.877 14.792-1.292 40.897-10.954 34.568-12.795 36.735-13.214 43.52-8.418 4.65 3.286 3.788 6.724-3.253 12.996-5.65 5.033-6.094 5.76-7.53 12.33-.84 3.84-1.803 14.632-2.14 23.982l-.613 17 15.893.033c14.74.03 16.511.239 24.394 2.867 19.781 6.597 29 13.78 29 22.6 0 4.369-2.057 7.843-7.85 13.262-15.133 14.156-45.465 27.227-58.15 25.059zm-65.995-23.571l9.954-5.25.02-4.25c.011-2.338-.302-4.25-.695-4.25-1.51 0-26.284 8.087-26.284 8.58 0 1.813 5.518 10.42 6.68 10.42.204 0 4.85-2.363 10.325-5.25zm64.717.477c17.373-5.973 26.492-11.807 30.386-19.44 4.367-8.559-1.187-10.647-20.784-7.813-3.753.542-7.387.995-8.074 1.006-.86.014-1.25 1.907-1.25 6.07 0 3.327-.652 7.31-1.45 8.851-1.723 3.332-7.562 8.65-10.534 9.593-2.417.768-6.387-1.45-8.004-4.471-.582-1.088-1.863-2.408-2.846-2.934-2.62-1.403-14.111 2.893-20.261 7.573l-5.042 3.838 2.818.68c1.55.374 10.244.576 19.319.45 15.616-.22 16.993-.401 25.722-3.403zm-32.722-13.806c8.553-3.07 12-5.257 12-7.612 0-.445-.563-.8-1.25-.788-2.009.034-21.75 4.646-22.319 5.214-.284.284-.794 2.223-1.132 4.309-.558 3.438-.438 3.721 1.293 3.039 1.049-.414 6.183-2.287 11.408-4.162zm1.289-20.066l10.79-2.855-.665-5.5c-.366-3.025-.805-5.659-.975-5.853-.342-.388-16.604 1.64-20.19 2.519-2.083.51-2.25 1.104-2.25 8.026 0 5.568.32 7.352 1.25 6.996.688-.263 6.106-1.763 12.04-3.333zm-29.04-14.408c3.475-.965 3.75-1.314 3.74-4.744-.006-2.037-.284-5.35-.617-7.362l-.605-3.66-4.384 1.625-4.383 1.625v6.784c0 7.42.04 7.457 6.25 5.732zm23.75-7.447c3.026-.812 7.58-1.482 10.12-1.488 4.558-.012 4.627-.062 5.239-3.762.34-2.063.625-5.05.63-6.637l.012-2.887-9.75.701c-5.363.386-10.284 1.235-10.937 1.887-1.427 1.427-2.946 13.69-1.693 13.674.484-.007 3.355-.676 6.38-1.488zm-23.637-14.09c2.785-.665 2.85-.83 2.418-6.046-.245-2.949-.633-5.508-.863-5.687-.23-.179-2.507-.138-5.06.091l-4.642.416.454 4.158c.835 7.637 1.276 8.807 3.114 8.262.944-.28 3.005-.817 4.58-1.193zm27.47-7.457c3.32-.653 7.597-1.005 9.505-.782 3.297.385 3.499.229 4.055-3.133.322-1.946.59-4.475.597-5.62l.01-2.083-12.75 2.447c-7.012 1.346-12.879 2.563-13.037 2.703-.158.141.143 1.327.669 2.636.526 1.308 1.221 3.213 1.546 4.233.337 1.06 1.184 1.625 1.98 1.32.764-.294 4.106-1.068 7.425-1.721zm-70.285-15.065c-12.598-1.835-18.547-5.95-18.547-12.83 0-3.747.048-3.793 4.64-4.422 2.55-.35 14.138-.639 25.75-.642 11.61-.003 24.822-.295 29.36-.648l8.25-.643v-3.023c0-2.243-1.007-3.939-3.896-6.563l-3.896-3.538 8.456-8.983c4.651-4.941 10.188-11.874 12.304-15.408l3.847-6.424 2.633 3.978c4.996 7.55 4.384 14.394-2.04 22.81-3.34 4.375-4.66 10.557-2.534 11.87.482.298 3.294-.259 6.25-1.236 5.093-1.684 5.55-2.124 8.71-8.37 5.721-11.31 5.409-22.31-.916-32.284l-2.812-4.435 4.697-3.9c2.583-2.145 7.24-5.576 10.348-7.625 5.43-3.578 5.766-3.666 8.552-2.225 4.954 2.561 11 9.94 11.742 14.328 1.162 6.877-3.725 17.16-14.217 29.915-2.9 3.526-4.984 6.41-4.632 6.41.352 0 8.618-2.907 18.369-6.46 31.115-11.338 39.31-13.124 46.48-10.128 7.102 2.968 9.83 9.219 5.667 12.986-4.926 4.458-13.54 6.183-42.612 8.53-14.508 1.173-22.615 3.745-53 16.818-29.277 12.596-31.773 13.281-47.856 13.132-7.23-.067-15.823-.512-19.097-.99zM79.862 170.208c-5.734-.95-7-1.466-7-2.848 0-2.071 3.668-3.718 19-8.53 16.283-5.109 21.032-7.402 27.646-13.348 3.805-3.421 5.598-6.034 7.25-10.564 2.49-6.83 7.76-13.064 11.045-13.064 2.782 0 15.932 4.385 21.18 7.062 6.623 3.378 11.879 8.74 11.879 12.12 0 4.486-1.59 6.596-8.178 10.854-14.733 9.523-43.346 16.9-70.822 18.262-5.225.26-10.625.284-12 .056zm184.535-2.442c-21.042-2.87-47.25-10.702-60.127-17.968-10.595-5.977-23.346-18.888-35.404-35.846-9.758-13.724-15.96-20.201-24.254-25.332-3.966-2.453-4.75-3.435-4.75-5.95 0-4.139 2.408-8.851 6.596-12.907 3.294-3.19 3.95-3.409 10.212-3.405 11.798.008 13.721 1.709 36.758 32.496 22.093 29.525 33.939 38.442 74.434 56.032 7.975 3.464 15.062 6.73 15.75 7.256 1.455 1.114 1.664 4.337.335 5.16-1.832 1.131-12.755 1.39-19.55.464z" fill="#bebebe"/><path d="M57.226 444.37c-20.811-4.56-40.343-19.557-49.447-37.966-8.02-16.218-7.328-.215-7.691-178.05-.235-114.78-.01-161.225.81-167C4.82 33.686 24.77 11.645 54.032 2.652L61.362.4l112.5-.32c78.737-.224 115.046.015 120.984.796 16.876 2.218 31.958 9.786 44.016 22.09 7.813 7.971 13.106 16.613 16.775 27.388l2.725 8 .278 160.5c.19 109.676-.06 162.69-.785 167.417-2.225 14.475-9.748 28.325-21.309 39.228-8.665 8.172-17.315 13.429-28.184 17.13l-8 2.725-118.5.18c-96.054.147-119.663-.074-124.636-1.164zm246.136-4.793c22.473-6.53 40.932-23.539 47.584-43.848l2.416-7.375v-332l-2.623-6.742c-3.903-10.03-8.612-17.315-15.947-24.67-7.771-7.792-16.438-13.12-27.43-16.864l-8-2.724h-119.5c-113.083 0-119.823.098-125.5 1.835C34.78 13.18 19.71 25.507 11.415 42.322c-6.927 14.04-6.522 2.834-6.539 181.072-.016 179.493-.559 165.68 7.125 181.373 6.928 14.149 21.511 27.051 36.909 32.653 11.675 4.247 13.094 4.29 133.452 4.091 106.053-.176 115.466-.326 121-1.934zm-91.5-42.402c-14.865-2.54-37.572-9.537-47.844-14.742-4.394-2.226-5.11-2.34-6.228-.993-1.988 2.396-5.186 3.797-8.173 3.581-5.171-.374-9.415 2.274-11.614 7.246-1.85 4.181-2.336 4.587-5.508 4.587-3.893 0-8.847-3.535-11.03-7.87-.729-1.446-2.115-5.907-3.08-9.911-1.407-5.84-2.078-7.183-3.389-6.787-9.276 2.8-19.43 3.307-24.432 1.217-1.779-.743-4.69-3.009-6.468-5.035-2.64-3.006-3.234-4.527-3.234-8.266 0-4.499.049-4.569 2.75-3.89 1.512.381 8.874.933 16.36 1.227l13.609.534-2.838-14.36c-4.215-21.326-3.802-27.272 1.757-25.317 4.251 1.495 6.254 6.143 9.557 22.18 1.673 8.128 3.125 14.876 3.225 14.996.316.378 18.833-4.537 24.58-6.525l5.5-1.902-.36-7.396c-.198-4.067-.466-7.513-.594-7.656-.415-.461-8.828 2.75-10.21 3.897-.735.61-1.336 2.543-1.336 4.295 0 1.753-.635 4.054-1.41 5.114-1.379 1.886-1.455 1.887-3.48.055-5.13-4.642-10.312-25.859-10.488-42.936-.122-11.82-.119-11.84 2.71-14.274 2.434-2.093 3.492-2.35 7.5-1.826 6.695.877 14.792-1.292 40.897-10.954 34.568-12.795 36.735-13.214 43.52-8.418 4.65 3.286 3.788 6.724-3.253 12.996-5.65 5.033-6.094 5.76-7.53 12.33-.84 3.84-1.803 14.632-2.14 23.982l-.613 17 15.893.033c14.74.03 16.511.239 24.394 2.867 19.781 6.597 29 13.78 29 22.6 0 4.369-2.057 7.843-7.85 13.262-15.133 14.156-45.465 27.227-58.15 25.059zm-65.995-23.571l9.954-5.25.02-4.25c.011-2.338-.302-4.25-.695-4.25-1.51 0-26.284 8.087-26.284 8.58 0 1.813 5.518 10.42 6.68 10.42.204 0 4.85-2.363 10.325-5.25zm64.717.477c17.373-5.973 26.492-11.807 30.386-19.44 4.367-8.559-1.187-10.647-20.784-7.813-3.753.542-7.387.995-8.074 1.006-.86.014-1.25 1.907-1.25 6.07 0 3.327-.652 7.31-1.45 8.851-1.723 3.332-7.562 8.65-10.534 9.593-2.417.768-6.387-1.45-8.004-4.471-.582-1.088-1.863-2.408-2.846-2.934-2.62-1.403-14.111 2.893-20.261 7.573l-5.042 3.838 2.818.68c1.55.374 10.244.576 19.319.45 15.616-.22 16.993-.401 25.722-3.403zm-32.722-13.806c8.553-3.07 12-5.257 12-7.612 0-.445-.563-.8-1.25-.788-2.009.034-21.75 4.646-22.319 5.214-.284.284-.794 2.223-1.132 4.309-.558 3.438-.438 3.721 1.293 3.039 1.049-.414 6.183-2.287 11.408-4.162zm1.289-20.066l10.79-2.855-.665-5.5c-.366-3.025-.805-5.659-.975-5.853-.342-.388-16.604 1.64-20.19 2.519-2.083.51-2.25 1.104-2.25 8.026 0 5.568.32 7.352 1.25 6.996.688-.263 6.106-1.763 12.04-3.333zm-29.04-14.408c3.475-.965 3.75-1.314 3.74-4.744-.006-2.037-.284-5.35-.617-7.362l-.605-3.66-4.384 1.625-4.383 1.625v6.784c0 7.42.04 7.457 6.25 5.732zm23.75-7.447c3.026-.812 7.58-1.482 10.12-1.488 4.558-.012 4.627-.062 5.239-3.762.34-2.063.625-5.05.63-6.637l.012-2.887-9.75.701c-5.363.386-10.284 1.235-10.937 1.887-1.427 1.427-2.946 13.69-1.693 13.674.484-.007 3.355-.676 6.38-1.488zm-23.637-14.09c2.785-.665 2.85-.83 2.418-6.046-.245-2.949-.633-5.508-.863-5.687-.23-.179-2.507-.138-5.06.091l-4.642.416.454 4.158c.835 7.637 1.276 8.807 3.114 8.262.944-.28 3.005-.817 4.58-1.193zm27.47-7.457c3.32-.653 7.597-1.005 9.505-.782 3.297.385 3.499.229 4.055-3.133.322-1.946.59-4.475.597-5.62l.01-2.083-12.75 2.447c-7.012 1.346-12.879 2.563-13.037 2.703-.158.141.143 1.327.669 2.636.526 1.308 1.221 3.213 1.546 4.233.337 1.06 1.184 1.625 1.98 1.32.764-.294 4.106-1.068 7.425-1.721zm-70.285-15.065c-12.598-1.835-18.547-5.95-18.547-12.83 0-3.747.048-3.793 4.64-4.422 2.55-.35 14.138-.639 25.75-.642 11.61-.003 24.822-.295 29.36-.648l8.25-.643v-3.023c0-2.243-1.007-3.939-3.896-6.563l-3.896-3.538 8.456-8.983c4.651-4.941 10.188-11.874 12.304-15.408l3.847-6.424 2.633 3.978c4.996 7.55 4.384 14.394-2.04 22.81-3.34 4.375-4.66 10.557-2.534 11.87.482.298 3.294-.259 6.25-1.236 5.093-1.684 5.55-2.124 8.71-8.37 5.721-11.31 5.409-22.31-.916-32.284l-2.812-4.435 4.697-3.9c2.583-2.145 7.24-5.576 10.348-7.625 5.43-3.578 5.766-3.666 8.552-2.225 4.954 2.561 11 9.94 11.742 14.328 1.162 6.877-3.725 17.16-14.217 29.915-2.9 3.526-4.984 6.41-4.632 6.41.352 0 8.618-2.907 18.369-6.46 31.115-11.338 39.31-13.124 46.48-10.128 7.102 2.968 9.83 9.219 5.667 12.986-4.926 4.458-13.54 6.183-42.612 8.53-14.508 1.173-22.615 3.745-53 16.818-29.277 12.596-31.773 13.281-47.856 13.132-7.23-.067-15.823-.512-19.097-.99zm-28.543-111.63c-1.923-.232-4.072-.9-4.776-1.483-2.649-2.199 2.19-4.765 19.324-10.25 15.997-5.12 17.827-5.958 24.31-11.124 5.588-4.45 7.327-6.51 8.562-10.134 2.283-6.699 6.055-12.65 9.025-14.24 2.326-1.245 3.415-1.146 9.833.896 9.579 3.047 20.186 8.656 23.245 12.292 3.673 4.365 3.24 7.858-1.502 12.143-11.484 10.375-40.06 19.13-70.518 21.603-7.039.571-13.07.967-13.403.879-.332-.088-2.178-.35-4.1-.582zm183.496-2.84c-21.682-3.345-41.682-9.29-55.588-16.525-11.415-5.938-23.708-17.888-36.354-35.338-10.316-14.234-19.874-24.145-26.591-27.572-3.407-1.738-3.967-2.488-3.967-5.308 0-4.208 4.935-12.056 9.229-14.674 6.195-3.777 15.2-2.016 22.485 4.396 2.527 2.225 10.327 11.709 17.332 21.074 7.005 9.366 15.282 19.945 18.393 23.51 12.878 14.754 26.531 23.328 62.06 38.973 12.054 5.307 15.062 7.028 15.312 8.761.252 1.747-.414 2.358-3.5 3.215-4.728 1.313-7.46 1.239-18.811-.512z" fill="#c38c8f"/><path d="M57.226 444.37c-20.811-4.56-40.343-19.557-49.447-37.966-8.02-16.218-7.328-.215-7.691-178.05-.235-114.78-.01-161.225.81-167C4.82 33.686 24.77 11.645 54.032 2.652L61.362.4l112.5-.32c78.737-.224 115.046.015 120.984.796 16.876 2.218 31.958 9.786 44.016 22.09 7.813 7.971 13.106 16.613 16.775 27.388l2.725 8 .278 160.5c.19 109.676-.06 162.69-.785 167.417-2.225 14.475-9.748 28.325-21.309 39.228-8.665 8.172-17.315 13.429-28.184 17.13l-8 2.725-118.5.18c-96.054.147-119.663-.074-124.636-1.164zm246.136-4.793c22.473-6.53 40.932-23.539 47.584-43.848l2.416-7.375v-332l-2.623-6.742c-3.903-10.03-8.612-17.315-15.947-24.67-7.771-7.792-16.438-13.12-27.43-16.864l-8-2.724h-119.5c-113.083 0-119.823.098-125.5 1.835C34.78 13.18 19.71 25.507 11.415 42.322c-6.927 14.04-6.522 2.834-6.539 181.072-.016 179.493-.559 165.68 7.125 181.373 6.928 14.149 21.511 27.051 36.909 32.653 11.675 4.247 13.094 4.29 133.452 4.091 106.053-.176 115.466-.326 121-1.934zm-176.196-44.68c-4.37-2.663-5.832-5.243-8.154-14.38-1.095-4.31-2.22-8.066-2.5-8.346-.28-.28-3.667.209-7.527 1.087-3.86.877-8.747 1.596-10.859 1.596-4.721 0-11.973-3.574-14.616-7.203-2.12-2.91-2.952-11.44-1.084-11.11 8.966 1.585 19.903 2.389 25.03 1.84 3.523-.378 6.406-.814 6.406-.97 0-.155-1.125-5.806-2.5-12.557-2.085-10.235-3.42-27-2.15-27 .193 0 1.817.51 3.608 1.135 4.188 1.46 5.276 4.116 8.99 21.95 1.62 7.779 3.177 14.374 3.46 14.657.67.67 7.578-1.007 20.46-4.965l10.368-3.186-.469-7.313c-.258-4.023-.748-7.592-1.088-7.932-.34-.34-2.985.232-5.876 1.271-5.17 1.858-5.272 1.975-6.09 6.887-.459 2.748-1.246 5.413-1.75 5.922-2.885 2.916-8.148-9.263-11.391-26.36-1.902-10.026-2.056-26.552-.28-30.066 1.147-2.27 1.9-2.518 8.142-2.688 9.677-.264 14.108-1.476 39.566-10.826 26.803-9.844 32.126-11.486 37.23-11.486 4.413 0 9.233 2.159 10.148 4.545 1.362 3.548.374 5.484-5.412 10.61-5.132 4.546-6.254 6.167-7.503 10.845-1.371 5.131-3.415 27.706-3.449 38.085l-.014 4.585 14.75-.072c15.981-.079 20.415.728 34.936 6.357 19.773 7.664 25.286 18.605 15.001 29.77-10.792 11.717-38.108 25.549-53.247 26.963-10.197.952-38.165-6.123-53.722-13.59l-6.085-2.92-3.161 2.41c-2.026 1.546-4.491 2.412-6.866 2.412-5.337 0-9.507 2.516-11.298 6.816-2.405 5.777-5.388 6.652-11.004 3.228zm18.821-21.207l9.875-5.164v-4.336c0-2.661-.456-4.336-1.178-4.336-1.892 0-24.237 7.1-25.183 8.001-.986.94 4.178 10.999 5.645 10.999.532 0 5.41-2.324 10.841-5.164zm61.174 1.703c11.864-3.45 23.057-8.905 28.425-13.853 7.558-6.966 9.204-12.376 4.671-15.346-2.369-1.553-3.656-1.594-14.25-.454-16.654 1.792-16.032 1.544-15.416 6.132.877 6.537-.495 10.702-5.11 15.519-3.507 3.66-4.922 4.463-7.864 4.463-2.99 0-4.114-.666-6.755-4-1.743-2.2-3.918-3.99-4.834-3.976-4.829.068-23.166 10.47-23.166 13.14 0 .981 13.92 1.65 26 1.249 6.44-.214 12.334-1.14 18.299-2.874zm-31.8-13.896c9.848-3.262 14.5-5.999 14.5-8.53 0-1.88-.15-1.882-8.4-.08-17.064 3.73-16.6 3.502-16.6 8.112 0 2.834.38 3.929 1.25 3.608.688-.253 4.85-1.652 9.25-3.11zm-1.063-19.581c3.885-1.066 8.997-2.44 11.36-3.051l4.296-1.113-.296-6.2-.296-6.198-3 .269c-1.65.148-6.754.79-11.342 1.425-7.354 1.018-8.448 1.438-9.25 3.545-1.356 3.568-1.153 13.26.278 13.26.652 0 4.365-.871 8.25-1.937zm-20.288-24.084c-.186-4.113-.511-7.656-.721-7.873-.21-.217-2.357.36-4.77 1.282l-4.388 1.675-.667 6.512c-.367 3.582-.43 6.895-.141 7.363.289.468 2.888.326 5.776-.315l5.25-1.166-.339-7.478zm31.059-.808c2.04.137 3.907.042 4.151-.211.244-.253.601-3.344.793-6.87l.349-6.41-7.5.227c-4.125.125-9.075.553-11 .951-3.39.702-3.537.927-4.705 7.184-.663 3.552-1.042 6.952-.841 7.555.25.75 2.678.501 7.705-.79 4.037-1.036 9.009-1.772 11.048-1.636zm-35.357-12.268c3.064-1.068 3.15-1.262 3.15-7.14v-6.04l-5.136.607c-2.825.335-5.327.8-5.562 1.035-.234.234-.115 3.173.265 6.53.757 6.686 1.333 7.082 7.283 5.008zm32.814-7.582l9.164-.551.385-5.635c.212-3.099.303-5.77.201-5.936-.235-.385-25.338 4.392-25.869 4.923-.218.218.122 2.338.755 4.71 1.05 3.934 1.375 4.26 3.676 3.678 1.388-.351 6.647-.886 11.688-1.19zm-67.164-14.997c-7.876-.671-17.057-2.495-20.294-4.03-3.817-1.81-6.462-6.255-6.016-10.11l.31-2.683 30-.675c16.5-.372 31.94-.966 34.313-1.321 4.22-.632 4.3-.715 3.695-3.825-.378-1.94-2.134-4.513-4.51-6.602l-3.89-3.423 8.126-8.577c4.468-4.717 9.871-11.277 12.006-14.577 2.135-3.3 4.373-6 4.973-6 1.887 0 5.12 7.581 5.12 12.006 0 4.527-2.97 11.303-6.793 15.494-1.784 1.957-2.176 3.315-1.8 6.25.547 4.287.727 4.335 7.866 2.085 4.982-1.57 5.455-2.017 8.34-7.879 5.937-12.058 5.935-20.414-.007-31.384-1.617-2.985-2.94-5.731-2.94-6.102 0-.859 10.306-8.873 15.281-11.884 2.53-1.53 4.592-2.084 6.232-1.672 3.148.79 9.172 6.075 11.039 9.685 2.034 3.933 1.764 11.608-.59 16.797-2.246 4.95-9.703 15.704-14.806 21.354-1.864 2.062-3.16 3.75-2.88 3.75.28 0 6.306-2.193 13.391-4.874 35.932-13.594 46.567-15.78 55.068-11.322 4.726 2.479 6.217 5.813 4.39 9.821-2.235 4.907-13.915 7.854-36.624 9.242-19.621 1.2-25.786 3-59.037 17.24-12.67 5.426-26.58 10.772-30.91 11.88-7.465 1.908-17.12 2.353-29.053 1.336zM78.866 170.112c-1.923-.232-4.072-.9-4.776-1.483-2.649-2.199 2.19-4.765 19.324-10.25 15.997-5.12 17.827-5.958 24.31-11.124 5.588-4.45 7.327-6.51 8.562-10.134 2.283-6.699 6.055-12.65 9.025-14.24 2.326-1.245 3.415-1.146 9.833.896 9.579 3.047 20.186 8.656 23.245 12.292 3.673 4.365 3.24 7.858-1.502 12.143-11.484 10.375-40.06 19.13-70.518 21.603-7.039.571-13.07.967-13.403.879-.332-.088-2.178-.35-4.1-.582zm183.496-2.84c-21.682-3.345-41.682-9.29-55.588-16.525-11.415-5.938-23.708-17.888-36.354-35.338-10.316-14.234-19.874-24.145-26.591-27.572-3.407-1.738-3.967-2.488-3.967-5.308 0-4.208 4.935-12.056 9.229-14.674 6.195-3.777 15.2-2.016 22.485 4.396 2.527 2.225 10.327 11.709 17.332 21.074 7.005 9.366 15.282 19.945 18.393 23.51 12.878 14.754 26.531 23.328 62.06 38.973 12.054 5.307 15.062 7.028 15.312 8.761.252 1.747-.414 2.358-3.5 3.215-4.728 1.313-7.46 1.239-18.811-.512z" fill="#7c7c7c"/><path d="M61.692 444.845c-16.334-2.806-29.327-9.403-40.33-20.477-8.915-8.972-13.346-15.797-17.321-26.68l-2.68-7.334-.279-164C.77 43.072.33 55.132 7.88 40.067 16.523 22.822 32.332 9.743 51.862 3.682l7.5-2.328h240l7.5 2.342c20.618 6.438 35.917 19.351 44.612 37.658 6.823 14.366 6.388 1.981 6.388 181.55 0 158.964-.045 162.805-1.986 170.394-3.063 11.977-8.224 20.753-18.017 30.64-7.11 7.177-10.058 9.347-18 13.244-17.931 8.799-6.664 8.118-137.497 8.302-63.8.09-118.102-.198-120.67-.64zm245.67-6.307c23.127-8.14 41.367-28.04 46-50.184 1.25-5.977 1.465-30.105 1.465-165 0-175.588.4-165.02-6.813-180-6.913-14.359-17.774-25.041-32.652-32.118-15.385-7.316-6.81-6.882-136-6.882-130.114 0-120.87-.504-137 7.46-14.27 7.043-24.536 17.317-31.52 31.54-7.445 15.163-7.074 5.088-6.76 183.5l.28 159.5 2.338 7c5.759 17.238 18.409 32.285 33.891 40.313 16.69 8.653 7.247 8.124 140.77 7.892l118-.205 8-2.816zm-180.196-43.64c-4.37-2.664-5.832-5.244-8.154-14.381-1.095-4.31-2.22-8.066-2.5-8.346-.28-.28-3.667.209-7.527 1.087-3.86.877-8.747 1.596-10.859 1.596-4.721 0-11.973-3.574-14.616-7.203-2.12-2.91-2.952-11.44-1.084-11.11 8.966 1.585 19.903 2.389 25.03 1.84 3.523-.378 6.406-.814 6.406-.97 0-.155-1.125-5.806-2.5-12.557-2.085-10.235-3.42-27-2.15-27 .193 0 1.817.51 3.608 1.135 4.188 1.46 5.276 4.116 8.99 21.95 1.62 7.779 3.177 14.374 3.46 14.657.67.67 7.578-1.007 20.46-4.965l10.368-3.186-.469-7.313c-.258-4.023-.748-7.592-1.088-7.932-.34-.34-2.985.232-5.876 1.271-5.17 1.858-5.272 1.975-6.09 6.887-.459 2.748-1.246 5.413-1.75 5.922-2.885 2.916-8.148-9.263-11.391-26.36-1.902-10.026-2.056-26.552-.28-30.066 1.147-2.27 1.9-2.518 8.142-2.688 9.677-.264 14.108-1.476 39.566-10.826 26.803-9.844 32.126-11.486 37.23-11.486 4.413 0 9.233 2.159 10.148 4.545 1.362 3.548.374 5.484-5.412 10.61-5.132 4.546-6.254 6.167-7.503 10.845-1.371 5.131-3.415 27.706-3.449 38.085l-.014 4.585 14.75-.072c15.981-.079 20.415.728 34.936 6.357 19.773 7.664 25.286 18.605 15.001 29.77-10.792 11.717-38.108 25.549-53.247 26.963-10.197.952-38.165-6.123-53.722-13.59l-6.085-2.92-3.161 2.41c-2.026 1.546-4.491 2.412-6.866 2.412-5.337 0-9.507 2.516-11.298 6.816-2.405 5.777-5.388 6.652-11.004 3.228zm18.821-21.208l9.875-5.164v-4.336c0-2.661-.456-4.336-1.178-4.336-1.892 0-24.237 7.1-25.183 8.001-.986.94 4.178 10.999 5.645 10.999.532 0 5.41-2.324 10.841-5.164zm61.174 1.703c11.864-3.45 23.057-8.905 28.425-13.853 7.558-6.966 9.204-12.376 4.671-15.346-2.369-1.553-3.656-1.594-14.25-.454-16.654 1.792-16.032 1.544-15.416 6.132.877 6.537-.495 10.702-5.11 15.519-3.507 3.66-4.922 4.463-7.864 4.463-2.99 0-4.114-.666-6.755-4-1.743-2.2-3.918-3.99-4.834-3.976-4.829.068-23.166 10.47-23.166 13.14 0 .981 13.92 1.65 26 1.249 6.44-.214 12.334-1.14 18.299-2.874zm-31.8-13.896c9.848-3.262 14.5-5.999 14.5-8.53 0-1.88-.15-1.882-8.4-.08-17.064 3.73-16.6 3.502-16.6 8.112 0 2.834.38 3.929 1.25 3.608.688-.253 4.85-1.652 9.25-3.11zm-1.063-19.581c3.885-1.066 8.997-2.44 11.36-3.051l4.296-1.113-.296-6.2-.296-6.198-3 .269c-1.65.148-6.754.79-11.342 1.425-7.354 1.018-8.448 1.438-9.25 3.545-1.356 3.568-1.153 13.26.278 13.26.652 0 4.365-.871 8.25-1.937zm-20.288-24.084c-.186-4.113-.511-7.656-.721-7.873-.21-.217-2.357.36-4.77 1.282l-4.388 1.675-.667 6.512c-.367 3.582-.43 6.895-.141 7.363.289.468 2.888.326 5.776-.315l5.25-1.166-.339-7.478zm31.059-.808c2.04.137 3.907.042 4.151-.211.244-.253.601-3.344.793-6.87l.349-6.41-7.5.227c-4.125.125-9.075.553-11 .951-3.39.702-3.537.927-4.705 7.184-.663 3.552-1.042 6.952-.841 7.555.25.75 2.678.501 7.705-.79 4.037-1.036 9.009-1.772 11.048-1.636zm-35.357-12.268c3.064-1.068 3.15-1.262 3.15-7.14v-6.04l-5.136.607c-2.825.335-5.327.8-5.562 1.035-.234.234-.115 3.173.265 6.53.757 6.686 1.333 7.082 7.283 5.008zm32.814-7.582l9.164-.551.385-5.635c.212-3.099.303-5.77.201-5.936-.235-.385-25.338 4.392-25.869 4.923-.218.218.122 2.338.755 4.71 1.05 3.934 1.375 4.26 3.676 3.678 1.388-.351 6.647-.886 11.688-1.19zm-67.164-14.997c-7.876-.671-17.057-2.495-20.294-4.03-3.817-1.81-6.462-6.255-6.016-10.11l.31-2.683 30-.675c16.5-.372 31.94-.966 34.313-1.321 4.22-.632 4.3-.715 3.695-3.825-.378-1.94-2.134-4.513-4.51-6.602l-3.89-3.423 8.126-8.577c4.468-4.717 9.871-11.277 12.006-14.577 2.135-3.3 4.373-6 4.973-6 1.887 0 5.12 7.581 5.12 12.006 0 4.527-2.97 11.303-6.793 15.494-1.784 1.957-2.176 3.315-1.8 6.25.547 4.287.727 4.335 7.866 2.085 4.982-1.57 5.455-2.017 8.34-7.879 5.937-12.058 5.935-20.414-.007-31.384-1.617-2.985-2.94-5.731-2.94-6.102 0-.859 10.306-8.873 15.281-11.884 2.53-1.53 4.592-2.084 6.232-1.672 3.148.79 9.172 6.075 11.039 9.685 2.034 3.933 1.764 11.608-.59 16.797-2.246 4.95-9.703 15.704-14.806 21.354-1.864 2.062-3.16 3.75-2.88 3.75.28 0 6.306-2.193 13.391-4.874 35.932-13.594 46.567-15.78 55.068-11.322 4.726 2.479 6.217 5.813 4.39 9.821-2.235 4.907-13.915 7.854-36.624 9.242-19.621 1.2-25.786 3-59.037 17.24-12.67 5.426-26.58 10.772-30.91 11.88-7.465 1.908-17.12 2.353-29.053 1.336zm-39.75-113.013c-2.625-.685-2.109-3.08 1-4.637 1.512-.758 8.825-3.294 16.25-5.635 7.425-2.34 15.114-5.079 17.088-6.085 4.178-2.13 15.912-11.718 15.912-13.002 0-2.41 4.353-12.04 6.48-14.336 3.23-3.485 7.307-3.402 17.615.36 13.332 4.866 20.905 10.821 20.905 16.44 0 7.299-24.083 18.846-50 23.974-15.05 2.978-39.094 4.53-45.25 2.921zm180.75-3.254c-20.354-3.623-42.068-10.622-53.177-17.14-8.432-4.947-23.646-20.572-33.558-34.465-8.937-12.527-19.583-23.51-26.122-26.951-3.656-1.923-3.778-2.154-3.177-6 .696-4.452 4.748-10.94 8.278-13.253 3.242-2.123 12.14-1.844 17.424.547 5.565 2.518 9.212 6.465 22.364 24.206 18.13 24.456 25.535 32.437 37.968 40.92 10.48 7.152 21.093 12.709 40.5 21.205 13.41 5.872 17.57 8.124 17.802 9.638.208 1.357-.418 2.17-2 2.593-4.136 1.108-16.099.516-26.302-1.3z" fill="#a55357"/><path d="M61.692 444.845c-16.334-2.806-29.327-9.403-40.33-20.477-8.915-8.972-13.346-15.797-17.321-26.68l-2.68-7.334-.279-164C.77 43.072.33 55.132 7.88 40.067 16.523 22.822 32.332 9.743 51.862 3.682l7.5-2.328h240l7.5 2.342c20.618 6.438 35.917 19.351 44.612 37.658 6.823 14.366 6.388 1.981 6.388 181.55 0 158.964-.045 162.805-1.986 170.394-3.063 11.977-8.224 20.753-18.017 30.64-7.11 7.177-10.058 9.347-18 13.244-17.931 8.799-6.664 8.118-137.497 8.302-63.8.09-118.102-.198-120.67-.64zm245.67-6.307c23.127-8.14 41.367-28.04 46-50.184 1.25-5.977 1.465-30.105 1.465-165 0-175.588.4-165.02-6.813-180-6.913-14.359-17.774-25.041-32.652-32.118-15.385-7.316-6.81-6.882-136-6.882-130.114 0-120.87-.504-137 7.46-14.27 7.043-24.536 17.317-31.52 31.54-7.445 15.163-7.074 5.088-6.76 183.5l.28 159.5 2.338 7c5.759 17.238 18.409 32.285 33.891 40.313 16.69 8.653 7.247 8.124 140.77 7.892l118-.205 8-2.816zm-179-43.2c-5.47-2.815-6.54-4.876-10.458-20.133l-1.065-4.149-4.352 1.31c-16.567 4.986-29.212.816-31.081-10.25-.945-5.592-.33-6.326 4.213-5.025 4.004 1.146 26.661 1.675 27.691.647.34-.34-.522-6.246-1.916-13.126-1.393-6.88-2.532-15.746-2.532-19.701 0-6.99.063-7.173 2.25-6.522 5.268 1.57 6.618 4.338 10.134 20.789 1.853 8.67 3.619 16.012 3.924 16.317.787.787 9.563-1.183 21.048-4.725l9.856-3.04-.372-7.371c-.205-4.054-.663-7.661-1.019-8.017-.355-.355-3.088.124-6.073 1.065-5.418 1.708-5.429 1.719-6.338 6.826-1.927 10.827-6.938 4.806-11.552-13.882-1.726-6.991-2.237-12.08-2.29-22.824-.082-16.532-.084-16.53 10.778-16.547 8.307-.013 15.728-2.07 39.154-10.854 26.04-9.764 32.146-11.572 37.17-11.006 4.932.556 9.33 3.87 9.33 7.03 0 1.088-2.82 4.658-6.378 8.076-5.575 5.357-6.525 6.82-7.555 11.628-1.183 5.522-2.966 27.058-3.032 36.617l-.035 5.117 14.75-.106c12.667-.09 15.88.222 22.75 2.215 17.174 4.981 30.268 13.402 32.083 20.632 1.937 7.72-5.383 16.076-23.559 26.888-15.59 9.273-30.663 14.203-40.648 13.293-11.52-1.049-34.063-7.59-47.487-13.777l-6.799-3.133-3.122 2.627c-2.237 1.882-4.261 2.627-7.14 2.627-5.404 0-9.086 2.378-11.405 7.363-2.179 4.686-4.384 5.457-8.923 3.121zm27.3-31.366l.3-4.987-7.8 2.403c-14.692 4.526-18.8 6.156-19.078 7.571-.152.78 1.09 3.573 2.762 6.209l3.039 4.792 10.238-5.501 10.239-5.501.3-4.986zm53.722 10.83c17.852-5.707 27.8-11.74 31.58-19.15 2.52-4.94 2.151-7.81-1.25-9.712-2.302-1.288-4.253-1.308-15-.154-6.793.73-12.83 1.509-13.414 1.732-.642.245-.909 2.662-.676 6.12.335 4.969.007 6.304-2.51 10.216-3.35 5.206-8.794 8.59-12.352 7.676-1.32-.34-3.3-1.983-4.4-3.652-1.1-1.67-2.832-3.303-3.848-3.628-3.142-1.008-15.752 4.288-21.112 8.867l-4.96 4.237 8.96.629c17.177 1.205 28.032.32 38.982-3.18zM175 361.803c12.526-4.618 14.599-5.788 15.123-8.534.541-2.828 1.045-2.858-15.26.922l-9.5 2.203-.308 4.23c-.17 2.33.137 4.23.682 4.23.544 0 4.712-1.373 9.263-3.05zm-.637-19.825c3.85-1.092 8.912-2.484 11.25-3.094l4.25-1.107v-13.082l-2.75.521c-1.513.287-6.718 1.048-11.568 1.692-7.928 1.053-8.912 1.419-9.75 3.624-1.446 3.802-1.204 14.349.318 13.845.687-.228 4.4-1.308 8.25-2.4zm-25.008-15.457l4.992-1.294-.337-7.437c-.186-4.09-.49-7.594-.676-7.786-.42-.435-7.725 1.863-8.648 2.72-1.063.99-2.189 15.132-1.203 15.11.484-.01 3.126-.601 5.872-1.313zm26.97-8.21c3.83-.88 8.443-1.322 10.25-.983l3.288.616v-4.42c0-2.431.278-5.812.618-7.512l.618-3.092-4.868.45c-2.678.247-7.86.713-11.515 1.035l-6.647.586-.654 4.681a309.23 309.23 0 0 1-1.235 8.041c-.51 2.952-.353 3.289 1.3 2.778 1.036-.32 5.016-1.3 8.846-2.18zm-28.462-12.829l4.5-1.341.301-6.29.302-6.288-5.188.614c-2.852.338-5.369.797-5.592 1.02-.334.334.708 13.69 1.065 13.642.061-.008 2.137-.62 4.612-1.357zm34.637-8.291l9.137-.598.487-5.62c.268-3.09.368-5.758.221-5.928-.146-.17-5.377.628-11.624 1.771-17.672 3.235-15.886 2.265-13.988 7.59 1.463 4.108 1.885 4.514 4.13 3.979 1.375-.328 6.611-.866 11.637-1.194zm-69.37-15.304c-10.84-1.237-17.057-2.985-20.292-5.707-3.387-2.85-5.077-9.014-2.857-10.42.76-.482 9.932-.909 20.382-.95 19.527-.076 46.138-1.262 46.97-2.093.257-.258.197-2.137-.134-4.177-.45-2.777-1.561-4.414-4.423-6.518l-3.82-2.81 7.578-7.43c4.168-4.085 9.7-10.692 12.295-14.682 4.382-6.738 4.826-7.129 6.247-5.5 6.14 7.04 5.372 15.568-2.281 25.31-2.38 3.03-2.71 4.185-2.224 7.804.334 2.494 1.028 4.084 1.68 3.853l6.463-2.288c4.681-1.656 5.656-2.493 7.775-6.675 3.553-7.01 5.65-16.122 4.85-21.071-.797-4.93-3.88-12.363-6.185-14.91-1.524-1.684-1.444-2 1.205-4.765 5.024-5.245 16.36-12.258 18.802-11.634 3.38.863 9.255 6.168 11.071 9.996 3.804 8.016.117 18.44-11.719 33.134-3.544 4.4-6.339 8.114-6.21 8.253.128.14 10.094-3.301 22.146-7.646 12.053-4.345 25.214-8.691 29.249-9.66 6.924-1.66 7.635-1.664 12.706-.066 5.502 1.735 9.459 5.36 9.459 8.665 0 2.647-5.407 6.698-11.298 8.465-2.861.859-11.277 2.01-18.702 2.56-28.505 2.112-32.692 3.23-66.5 17.745-28.994 12.45-31.914 13.35-44.5 13.727-5.775.173-13.755-.056-17.733-.51zM75.612 169.164c-2.625-.685-2.109-3.08 1-4.637 1.512-.758 8.825-3.294 16.25-5.635 7.425-2.34 15.114-5.079 17.088-6.085 4.178-2.13 15.912-11.718 15.912-13.002 0-2.41 4.353-12.04 6.48-14.336 3.23-3.485 7.307-3.402 17.615.36 13.332 4.866 20.905 10.821 20.905 16.44 0 7.299-24.083 18.846-50 23.974-15.05 2.978-39.094 4.53-45.25 2.921zm180.75-3.254c-20.354-3.623-42.068-10.622-53.177-17.14-8.432-4.947-23.646-20.572-33.558-34.465-8.937-12.527-19.583-23.51-26.122-26.951-3.656-1.923-3.778-2.154-3.177-6 .696-4.452 4.748-10.94 8.278-13.253 3.242-2.123 12.14-1.844 17.424.547 5.565 2.518 9.212 6.465 22.364 24.206 18.13 24.456 25.535 32.437 37.968 40.92 10.48 7.152 21.093 12.709 40.5 21.205 13.41 5.872 17.57 8.124 17.802 9.638.208 1.357-.418 2.17-2 2.593-4.136 1.108-16.099.516-26.302-1.3z" fill="#871a1f"/><path d="M59.716 444.307c-23.108-4.23-42.321-18.827-52.458-39.852C.412 390.256.77 400.946 1.08 219.854l.28-163.5 3.19-8.273C11.47 30.128 23.308 17.134 40.332 8.808 57.415.454 50.401.853 180.07.86c109.24.007 114.646.092 122.293 1.926 10.189 2.445 16.167 5.027 24.561 10.608 12.55 8.343 22.422 21.011 27.76 35.624l2.679 7.335v166.5c0 159.892-.074 166.718-1.867 172-6.678 19.68-19.453 34.475-37.133 43.004-16.528 7.973-6.173 7.39-135.5 7.632-95.384.179-116.832-.027-123.146-1.183zm241.222-3.882c23.318-4.943 42.456-21.99 50.6-45.071l2.824-8 .278-160.5c.313-180.23.737-169.115-7.05-185-3.274-6.677-5.89-10.216-12.198-16.5C323.402 13.41 311.218 7.197 295.26 4.89c-4.245-.613-48.875-1.004-116.017-1.016-93.7-.017-110.364.197-117.927 1.516C35.73 9.85 15.761 26.707 7.278 51.002l-2.916 8.352-.271 159.978c-.303 178.724-.654 169.036 6.667 184.011 8.586 17.562 22.504 29.522 41.19 35.394 3.527 1.109 7.539 2.202 8.914 2.43 1.375.228 54.475.468 118 .533 95.3.098 116.65-.125 122.076-1.275zM75.555 169.226c-1.004-.3-1.671-1.282-1.5-2.207.22-1.196 5.406-3.363 18.427-7.697 11.105-3.697 19.622-7.144 22-8.902 5.424-4.013 11.378-9.772 11.39-11.02.018-1.96 5.115-12.038 7.23-14.296 2.608-2.784 6.573-2.895 13.858-.389 13.263 4.564 23.902 12.173 23.902 17.097 0 3.695-5.193 8.1-15.376 13.044-17.89 8.684-40.541 13.806-64.124 14.5-7.7.226-14.814.167-15.807-.13zm178.546-3.862c-24.568-4.662-43.863-11.784-56.653-20.912-8.236-5.876-15.726-14.106-26.321-28.916-10.045-14.043-19.702-24.102-26.573-27.682-4.62-2.408-4.775-2.629-4.16-5.966.917-4.972 2.859-8.292 6.951-11.886 3.586-3.148 4.954-3.523 11.517-3.155 8.407.472 13.33 4.67 26.71 22.78 11.807 15.982 24.058 30.856 29.654 36.004 9.796 9.01 30.63 20.724 56.37 31.692 12.665 5.397 14.723 6.992 11.787 9.139-2.83 2.069-14.997 1.613-29.282-1.098z" fill="#010101"/></svg>