<svg xmlns="http://www.w3.org/2000/svg" width="358.843" height="445.794"><path d="M56.494 444.386c-21.244-4.633-39.65-18.882-49.085-37.994-7.953-16.112-7.477-3.764-7.18-186.295L.494 57.354l2.755-8.13C10.713 27.201 30.128 9.257 53.707 2.587 61.491.386 61.527.385 173.994.073c75.899-.211 115.149.035 120.642.757 33.827 4.444 59.111 29.088 63.43 61.827.662 5.017.91 62.7.71 165.697-.344 177.33.363 161.423-7.93 178.5-3.39 6.978-5.764 10.127-13.268 17.591-10.417 10.362-20.162 15.927-33.994 19.414-7.687 1.938-11.195 1.992-124.5 1.915-92.097-.063-117.85-.354-122.59-1.388zm248-5.381c20.196-6.776 34.165-18.432 42.551-35.505 7.477-15.22 7.043-3.386 6.73-183.646l-.281-161.5-2.68-7.335c-3.865-10.581-8.362-17.637-16.336-25.632-8.144-8.165-16.731-13.477-27.984-17.309l-8-2.724-115.5-.29c-81.314-.204-117.424.04-122 .82C35.317 10.27 13.067 30.58 6.247 55.855c-1.637 6.069-1.753 17.171-1.753 167.5 0 181.407-.68 165.58 7.807 182 4.816 9.318 15.877 21.017 24.884 26.32 6.596 3.884 17.311 7.781 24.93 9.067 3.041.513 55.356.843 120.379.76l115-.147 7-2.349zm-99.5-43.063c-17.248-3.713-34.872-9.53-42.687-14.088-2.809-1.638-3.333-1.681-4.427-.363-1.972 2.376-6.401 4.302-8.581 3.732-1.1-.288-3.652.167-5.67 1.01-2.802 1.17-4.129 2.606-5.616 6.077-1.748 4.076-2.286 4.543-5.234 4.54-4.172-.005-9.261-3.082-11.156-6.746-.807-1.562-2.198-5.744-3.091-9.295-.893-3.55-1.795-6.967-2.006-7.592-.28-.831-1.943-.768-6.207.235-6.994 1.645-16.141 1.8-20.01.338-6.4-2.418-11.08-10.038-9.656-15.717.504-2.007 1.034-2.297 3.222-1.763 4.857 1.185 29.119 1.861 29.119.812 0-.546-1.125-6.517-2.5-13.268-1.375-6.752-2.5-15.363-2.5-19.138 0-6.268.178-6.862 2.065-6.862 3.144 0 5.754 1.749 7.422 4.974 1.067 2.064 7.513 30.055 7.513 32.625 0 .467 9.431-1.92 19.242-4.87l10.742-3.23.008-7.19c.004-3.955-.33-7.39-.742-7.631-.412-.242-3.112.467-6 1.575-4.604 1.767-5.25 2.359-5.25 4.815 0 4.05-1.708 7.932-3.49 7.932-5.623 0-13.118-29.15-12.31-47.88.365-8.476.638-9.571 2.834-11.349 1.97-1.594 3.327-1.848 7.163-1.34 6.743.895 14.221-1.102 40.636-10.848 26.818-9.895 33.905-11.91 38.716-11.008 4.978.934 8.451 3.981 8.451 7.416 0 2.77-1.347 4.399-9.233 11.164-4.292 3.682-5.877 11.585-6.489 32.345l-.53 18 15.876.04c14.693.038 16.51.252 24.376 2.868 25.305 8.415 34.21 18.695 26.25 30.3-8.635 12.587-38.596 28.788-56.75 30.687-3.036.317-8.339-.196-13.5-1.307zm-49.448-31.396c.355-2.105.442-4.032.191-4.282-.484-.485-25.462 6.975-26.36 7.872-.636.637 2.238 6.51 4.383 8.958 1.432 1.633 2.126 1.42 11.332-3.49 9.34-4.982 9.838-5.413 10.454-9.058zm53.448 9.86c8.996-2.952 20.421-8.332 25.278-11.906 3.4-2.502 7.722-9.42 7.722-12.362 0-3.936-2.32-4.628-13.282-3.958-5.62.344-11.906.92-13.968 1.28l-3.75.655v5.92c0 6.548-1.404 10.006-5.661 13.946-6.472 5.99-10.408 6.093-14.761.386-1.76-2.306-3.509-3.513-5.092-3.513-3.943 0-12.668 3.908-17.422 7.803-4.36 3.573-4.395 3.65-2 4.367 1.34.402 9.636.604 18.436.45 14.368-.252 16.867-.565 24.5-3.069zm-24-17.362c4.182-2.02 5.599-5.783 1.849-4.91-1.292.3-6.737 1.54-12.1 2.756l-9.75 2.21v7.614l8.25-2.99c4.538-1.644 9.826-3.75 11.75-4.68zm-.75-18.4l4.75-1.134v-11.887l-5.75.667c-3.163.367-8.338 1.152-11.5 1.745l-5.75 1.079V343.712l6.75-1.968c3.712-1.082 8.887-2.477 11.5-3.1zm-34.586-12.936c4.521-1.138 4.546-1.169 3.954-4.75-.328-1.982-.601-5.27-.607-7.306l-.011-3.703-4.5 1.668-4.5 1.668v6.784c0 3.732.25 6.785.557 6.785.306 0 2.605-.516 5.107-1.146zm23.336-7.354c3.025-.812 7.862-1.482 10.75-1.488l5.25-.012v-3.375c0-1.857.294-4.845.653-6.641l.653-3.266-9.403.696c-5.172.383-10.129.907-11.016 1.165-1.155.335-1.88 2.447-2.557 7.444-.519 3.837-.693 6.971-.387 6.965.306-.007 3.032-.676 6.057-1.488zm-23-14.097c2.366-.52 2.482-.86 2.168-6.344l-.333-5.795-4.667.5c-2.568.276-4.748.559-4.845.629-.098.07.08 2.97.396 6.445.529 5.833.735 6.272 2.677 5.716a92.05 92.05 0 0 1 4.604-1.151zm26.813-7.446c3.308-.651 7.802-1.013 9.985-.805l3.97.378.566-5.482c.311-3.015.476-5.523.366-5.573-.11-.05-5.96 1.016-12.998 2.371-10.825 2.084-12.691 2.71-12.108 4.058.379.878.905 2.86 1.17 4.406.299 1.748.963 2.625 1.757 2.32.702-.27 3.983-1.022 7.292-1.673zm-66.813-14.604c-10.171-1.523-14.581-2.924-17.629-5.6-3.615-3.175-5.463-9.062-3.47-11.055.795-.795 11.227-1.345 33.675-1.775 18.605-.356 32.935-1.035 33.486-1.586 1.901-1.9-.156-6.79-4.103-9.75l-3.884-2.914 8.827-9.233c4.855-5.078 10.538-12.05 12.63-15.494l3.804-6.262 2.344 2.908c2.977 3.693 4.66 9.784 3.868 14.003-.338 1.802-2.4 5.95-4.582 9.217-2.833 4.242-3.966 6.995-3.966 9.631 0 4.056-.518 3.987 8 1.074 4.42-1.512 7.467-5.953 10.153-14.796 2.894-9.527 1.532-17.126-4.831-26.96-1.77-2.737-1.769-2.743 1.703-5.749 1.91-1.654 6.53-5.081 10.266-7.615 6.307-4.277 6.999-4.52 9.7-3.4 3.687 1.526 9.859 7.479 11.077 10.682.512 1.348.932 4.625.932 7.283 0 6.084-4.779 15.701-12.611 25.38-3.045 3.764-5.391 6.96-5.213 7.101.178.142 8.075-2.599 17.55-6.09 31.375-11.563 39.64-13.186 47.943-9.416 10.049 4.562 7.661 13.532-4.552 17.098-3.874 1.132-14.632 2.369-33.117 3.808-14.06 1.095-23.5 4.086-53.5 16.957-29.39 12.609-31.689 13.23-48.356 13.063-7.504-.074-14.77-.304-16.144-.51zm-8.88-110.429c-16.651-2.926-23.89-11.53-15.729-18.695 4.861-4.268 11.871-5.709 22.51-4.626 24.138 2.455 39.227-.614 78.846-16.04 16.958-6.603 26.354-8.7 41.624-9.29 15.235-.59 21.704.34 30.253 4.35 9.684 4.542 18.382 14.288 18.372 20.587-.006 3.863-3.762 8.78-8.267 10.826-6.595 2.994-13.389 2.503-29.236-2.11-24.668-7.183-37.9-6.398-78.768 4.67-38.437 10.412-48.858 12.217-59.605 10.328zm27.309-39.918c-7.767-1.14-9.43-2.377-9.43-7.016 0-5.285 2.628-6.562 17.519-8.514 14.873-1.95 37.953-6.747 48.087-9.996 4.342-1.392 13.342-5.22 20-8.506 6.657-3.286 12.836-5.974 13.73-5.974 2.928 0 9.702 3.201 10.694 5.054.534.998.97 3.147.97 4.776 0 8.425-24.153 19.182-59.74 26.606-10.224 2.132-32.153 4.85-35.76 4.43-.55-.064-3.281-.45-6.07-.86zm-.156-33.056c-5.808-1.792-6.834-8.227-1.833-11.503 1.398-.917 9.25-2.566 18.734-3.935 32.029-4.624 49.435-9.356 68.789-18.7 10.46-5.052 13.077-5.936 16.288-5.505 4.676.627 8.475 2.998 9.934 6.2 4.504 9.886-19.448 21.69-62.124 30.618-11.757 2.46-17.642 3.12-30.561 3.434-9.022.218-17.408-.047-19.227-.609z" fill="#e0c5c6"/><path d="M56.494 444.386c-21.244-4.633-39.65-18.882-49.085-37.994-7.953-16.112-7.477-3.764-7.18-186.295L.494 57.354l2.755-8.13C10.713 27.201 30.128 9.257 53.707 2.587 61.491.386 61.527.385 173.994.073c75.899-.211 115.149.035 120.642.757 33.827 4.444 59.111 29.088 63.43 61.827.662 5.017.91 62.7.71 165.697-.344 177.33.363 161.423-7.93 178.5-3.39 6.978-5.764 10.127-13.268 17.591-10.417 10.362-20.162 15.927-33.994 19.414-7.687 1.938-11.195 1.992-124.5 1.915-92.097-.063-117.85-.354-122.59-1.388zm248-5.381c20.196-6.776 34.165-18.432 42.551-35.505 7.477-15.22 7.043-3.386 6.73-183.646l-.281-161.5-2.68-7.335c-3.865-10.581-8.362-17.637-16.336-25.632-8.144-8.165-16.731-13.477-27.984-17.309l-8-2.724-115.5-.29c-81.314-.204-117.424.04-122 .82C35.317 10.27 13.067 30.58 6.247 55.855c-1.637 6.069-1.753 17.171-1.753 167.5 0 181.407-.68 165.58 7.807 182 4.816 9.318 15.877 21.017 24.884 26.32 6.596 3.884 17.311 7.781 24.93 9.067 3.041.513 55.356.843 120.379.76l115-.147 7-2.349zm-101.511-43.587c-12.819-2.832-29.782-8.421-37.725-12.431l-5.893-2.975-3.34 2.615c-2.323 1.817-4.358 2.546-6.677 2.39-4.783-.322-8.831 2.159-11.534 7.068-2.75 4.993-5.63 5.864-10.58 3.199-4.335-2.335-6.62-6.322-8.841-15.43-1.007-4.125-1.908-7.638-2.004-7.806-.096-.169-2.876.394-6.179 1.25-13.05 3.381-23.254 1.08-27.51-6.207-1.86-3.185-2.727-9.55-1.473-10.804.346-.346 2.932-.135 5.747.469 5.755 1.234 26.022 1.505 26.016.348-.002-.413-1.117-6.375-2.477-13.25-2.838-14.348-3.29-24.768-1.11-25.604 2.25-.863 7.207 2.256 8.435 5.307.619 1.538 2.458 9.26 4.088 17.16 1.629 7.9 3.117 14.52 3.307 14.71.44.44 9.77-1.899 21.01-5.267l8.75-2.622v-7.175c0-3.947-.26-7.437-.578-7.755-.319-.318-2.906.212-5.75 1.179-5.08 1.726-5.183 1.841-5.858 6.549-1.789 12.48-7.224 6.772-12.47-13.095-2.137-8.1-2.63-12.298-2.726-23.22l-.117-13.333 2.833-2.44c2.443-2.106 3.479-2.355 7.535-1.817 6.402.849 14.55-1.308 38.132-10.096 30.507-11.368 36.318-13.002 41.123-11.563 2.195.658 4.866 2.07 5.934 3.139 3.32 3.32 2.416 5.934-4.16 12.039-7.867 7.301-8.848 10.92-9.598 35.404l-.551 18 15.876.031c15.561.031 16.077.102 26.035 3.573 18.829 6.563 26.84 13.123 26.84 21.975 0 3.785-.616 5.506-3.07 8.578-9.59 12-39.603 27.932-55.93 29.69-3.328.36-8.512-.237-15.51-1.783zm-58.103-21.507c10.024-5.03 11.066-6.138 11.1-11.807.008-1.238-.379-2.25-.859-2.25s-6.578 1.824-13.55 4.053c-11.6 3.708-12.623 4.229-12.021 6.123.763 2.406 4.444 8.824 5.06 8.824.231 0 4.853-2.225 10.27-4.943zm59.303 1.961c8.917-2.336 21.58-7.549 27.566-11.349 8.603-5.46 13.492-16.504 8.069-18.225-2.95-.936-9.551-.738-20.324.61l-9 1.125.296 5.66c.35 6.664-1.688 11.177-6.902 15.287-5.913 4.661-7.397 4.602-12.423-.496l-4.461-4.526-5.255 1.557c-6.588 1.95-10.198 3.781-15.18 7.698-3.876 3.047-3.895 3.094-1.5 3.764 1.333.372 8.977.722 16.986.777 11.544.079 16.13-.311 22.128-1.882zm-20.534-17.96c3.176-1.37 5.357-2.997 5.682-4.24.606-2.316-.085-2.257-15.587 1.326l-8.75 2.022v7.715l6.75-2.3c3.712-1.266 9.07-3.301 11.905-4.523zm-4.59-17.651l10.566-2.802-.44-5.553c-.241-3.054-.58-5.71-.751-5.905-.343-.388-16.604 1.64-20.19 2.518-2.084.51-2.25 1.105-2.25 8.026 0 5.569.318 7.353 1.25 6.997.687-.263 6.004-1.74 11.816-3.281zm-28.697-14.492c3.767-1.046 3.852-1.17 3.26-4.745-.333-2.019-.611-5.33-.617-7.36l-.011-3.689-4.5 1.533-4.5 1.534v6.906c0 7.57.015 7.585 6.368 5.82zm31.253-8.621l7.122-.564.63-6.03c.347-3.316.417-6.243.157-6.504-.261-.26-5.082-.074-10.713.415l-10.239.889-.671 3.5c-.37 1.925-.952 5.393-1.294 7.707l-.623 4.207 4.255-1.528c2.34-.841 7.46-1.783 11.376-2.092zM148.301 304.8l4.193-1.054-.332-5.814-.333-5.814-4.667.5c-2.568.276-4.782.593-4.92.704-.413.331 1 12.532 1.451 12.532.228 0 2.302-.474 4.608-1.054zm28.506-7.99c3.308-.65 7.854-1.007 10.1-.793 3.853.367 4.087.238 4.087-2.262 0-1.458.268-3.991.595-5.629l.596-2.977-12.846 2.442c-7.065 1.343-12.924 2.518-13.02 2.611-.097.093.336 2.09.963 4.436.682 2.558 1.613 4.084 2.324 3.811.652-.25 3.892-.987 7.2-1.638zm-69.773-15.126c-12.126-1.731-18.062-5.934-18.39-13.018-.14-3.02.114-3.282 3.85-3.965 2.2-.403 13.9-.76 26-.796 12.1-.035 25.75-.355 30.332-.712l8.332-.648-.647-3.596c-.436-2.426-1.844-4.619-4.33-6.742l-3.682-3.146 9.038-9.354c4.971-5.144 10.53-11.965 12.352-15.157l3.313-5.803 2.371 3.215c5.708 7.736 5.299 14.51-1.418 23.494-2.961 3.961-3.602 5.615-3.35 8.648.17 2.062.715 3.75 1.212 3.75.496 0 3.331-.91 6.3-2.02 5.193-1.943 5.527-2.296 8.741-9.25 2.772-5.995 3.35-8.446 3.39-14.348.04-6.277-.387-7.961-3.613-14.251l-3.658-7.133 5.158-4.378c2.837-2.408 7.532-5.827 10.432-7.599 5.167-3.156 5.328-3.186 8-1.492 15.527 9.847 15.175 20.943-1.335 42.087-3.6 4.61-6.301 8.384-6.002 8.384.3 0 8.987-3.096 19.305-6.879 30.665-11.244 37.534-12.704 45.027-9.574 8.147 3.404 10.396 8.542 5.661 12.93-5.006 4.64-12.27 6.096-42.085 8.437-14.887 1.168-21.127 3.15-53.344 16.942-12.925 5.533-26.182 10.754-29.46 11.602-6.665 1.724-26.647 1.922-37.5.372zm-5.92-109.906c-16.651-2.926-23.89-11.53-15.729-18.695 4.861-4.268 11.871-5.709 22.51-4.626 24.138 2.455 39.227-.614 78.846-16.04 16.958-6.603 26.354-8.7 41.624-9.29 15.235-.59 21.704.34 30.253 4.35 9.684 4.542 18.382 14.288 18.372 20.587-.006 3.863-3.762 8.78-8.267 10.826-6.595 2.994-13.389 2.503-29.236-2.11-24.668-7.183-37.9-6.398-78.768 4.67-38.437 10.412-48.858 12.217-59.605 10.328zm27.309-39.918c-7.767-1.14-9.43-2.377-9.43-7.016 0-5.285 2.628-6.562 17.519-8.514 14.873-1.95 37.953-6.747 48.087-9.996 4.342-1.392 13.342-5.22 20-8.506 6.657-3.286 12.836-5.974 13.73-5.974 2.928 0 9.702 3.201 10.694 5.054.534.998.97 3.147.97 4.776 0 8.425-24.153 19.182-59.74 26.606-10.224 2.132-32.153 4.85-35.76 4.43-.55-.064-3.281-.45-6.07-.86zm-.156-33.056c-5.808-1.792-6.834-8.227-1.833-11.503 1.398-.917 9.25-2.566 18.734-3.935 32.029-4.624 49.435-9.356 68.789-18.7 10.46-5.052 13.077-5.936 16.288-5.505 4.676.627 8.475 2.998 9.934 6.2 4.504 9.886-19.448 21.69-62.124 30.618-11.757 2.46-17.642 3.12-30.561 3.434-9.022.218-17.408-.047-19.227-.609z" fill="#bebebe"/><path d="M54.994 443.819C34.1 438.39 16.24 424.053 7.079 405.354-.46 389.969-.008 401.58.01 223.156.031 46.876-.299 56.26 6.35 42.382 17.428 19.252 38.38 4.242 64.352.83c5.492-.722 44.592-.968 120.142-.757C296.44.385 296.497.386 304.28 2.588c13.37 3.782 23.023 9.5 33.296 19.726 7.4 7.364 9.854 10.615 13.245 17.54 8.327 17.003 7.673 1.366 7.673 183.5 0 153.706-.094 162.332-1.823 168.5-6.931 24.716-24.83 42.955-50.677 51.642-5.213 1.752-11.724 1.86-124.5 2.06-115.093.205-119.247.148-126.5-1.737zm241-3.03c15.44-2.494 27.555-8.618 38.45-19.435 7.954-7.899 12.462-14.965 16.37-25.666l2.68-7.334.28-162c.315-181.433.779-169.158-6.969-184.637-9.121-18.224-28.346-32.337-48.811-35.832-4.577-.782-40.824-1.025-122.5-.82l-116 .289-8 2.724C29.015 15.733 12.57 32.765 6.33 54.854c-1.748 6.186-1.836 14.353-1.836 169v162.5l2.714 8c2.907 8.565 7.83 17.472 12.916 23.36 9.86 11.421 26.25 20.517 41.633 23.107 7.394 1.245 226.516 1.215 234.237-.032zm-93.011-45.37c-12.819-2.833-29.782-8.422-37.725-12.432l-5.893-2.975-3.34 2.615c-2.323 1.817-4.358 2.546-6.677 2.39-4.783-.322-8.831 2.159-11.534 7.068-2.75 4.993-5.63 5.864-10.58 3.199-4.335-2.335-6.62-6.322-8.841-15.43-1.007-4.125-1.908-7.638-2.004-7.806-.096-.169-2.876.394-6.179 1.25-13.05 3.381-23.254 1.08-27.51-6.207-1.86-3.185-2.727-9.55-1.473-10.804.346-.346 2.932-.135 5.747.469 5.755 1.234 26.022 1.505 26.016.348-.002-.413-1.117-6.375-2.477-13.25-2.838-14.348-3.29-24.768-1.11-25.604 2.25-.863 7.207 2.256 8.435 5.307.619 1.538 2.458 9.26 4.088 17.16 1.629 7.9 3.117 14.52 3.307 14.71.44.44 9.77-1.899 21.01-5.267l8.75-2.622v-7.175c0-3.947-.26-7.437-.578-7.755-.319-.318-2.906.212-5.75 1.179-5.08 1.726-5.183 1.841-5.858 6.549-1.789 12.48-7.224 6.772-12.47-13.095-2.137-8.1-2.63-12.298-2.726-23.22l-.117-13.333 2.833-2.44c2.443-2.106 3.479-2.355 7.535-1.817 6.402.849 14.55-1.308 38.132-10.096 30.507-11.368 36.318-13.002 41.123-11.563 2.195.658 4.866 2.07 5.934 3.139 3.32 3.32 2.416 5.934-4.16 12.039-7.867 7.301-8.848 10.92-9.598 35.404l-.551 18 15.876.031c15.561.031 16.077.102 26.035 3.573 18.829 6.563 26.84 13.123 26.84 21.975 0 3.785-.616 5.506-3.07 8.578-9.59 12-39.603 27.932-55.93 29.69-3.328.36-8.512-.237-15.51-1.783zM144.88 373.91c10.024-5.03 11.066-6.138 11.1-11.807.008-1.238-.379-2.25-.859-2.25s-6.578 1.824-13.55 4.053c-11.6 3.708-12.623 4.229-12.021 6.123.763 2.406 4.444 8.824 5.06 8.824.231 0 4.853-2.225 10.27-4.943zm59.303 1.961c8.917-2.336 21.58-7.549 27.566-11.349 8.603-5.46 13.492-16.504 8.069-18.225-2.95-.936-9.551-.738-20.324.61l-9 1.126.296 5.66c.35 6.663-1.688 11.176-6.902 15.286-5.913 4.661-7.397 4.602-12.423-.496l-4.461-4.526-5.255 1.557c-6.588 1.95-10.198 3.781-15.18 7.698-3.876 3.047-3.895 3.094-1.5 3.764 1.333.372 8.977.722 16.986.777 11.544.079 16.13-.311 22.128-1.882zm-20.534-17.96c3.176-1.37 5.357-2.997 5.682-4.24.606-2.316-.085-2.257-15.587 1.326l-8.75 2.022v7.715l6.75-2.3c3.712-1.266 9.07-3.301 11.905-4.523zm-4.59-17.65l10.566-2.803-.44-5.553c-.241-3.054-.58-5.71-.751-5.905-.343-.388-16.604 1.64-20.19 2.518-2.084.51-2.25 1.105-2.25 8.026 0 5.569.318 7.353 1.25 6.997.687-.263 6.004-1.74 11.816-3.28zm-28.697-14.493c3.767-1.046 3.852-1.17 3.26-4.745-.333-2.019-.611-5.33-.617-7.36l-.011-3.689-4.5 1.533-4.5 1.534v6.906c0 7.57.015 7.585 6.368 5.82zm31.253-8.621l7.122-.564.63-6.03c.347-3.316.417-6.243.157-6.504-.261-.26-5.082-.074-10.713.415l-10.239.889-.671 3.5c-.37 1.925-.952 5.393-1.294 7.707l-.623 4.207 4.255-1.528c2.34-.841 7.46-1.783 11.376-2.092zM148.301 304.8l4.193-1.054-.332-5.814-.333-5.814-4.667.5c-2.568.276-4.782.593-4.92.704-.413.331 1 12.532 1.451 12.532.228 0 2.302-.474 4.608-1.054zm28.506-7.99c3.308-.65 7.854-1.007 10.1-.793 3.853.367 4.087.238 4.087-2.262 0-1.458.268-3.991.595-5.629l.596-2.977-12.846 2.442c-7.065 1.343-12.924 2.518-13.02 2.611-.097.093.336 2.09.963 4.436.682 2.558 1.613 4.084 2.324 3.811.652-.25 3.892-.987 7.2-1.638zm-69.773-15.126c-12.126-1.731-18.062-5.934-18.39-13.018-.14-3.02.114-3.282 3.85-3.965 2.2-.403 13.9-.76 26-.796 12.1-.035 25.75-.355 30.332-.712l8.332-.648-.647-3.596c-.436-2.426-1.844-4.619-4.33-6.742l-3.682-3.146 9.038-9.354c4.971-5.144 10.53-11.965 12.352-15.157l3.313-5.803 2.371 3.215c5.708 7.736 5.299 14.51-1.418 23.494-2.961 3.961-3.602 5.615-3.35 8.648.17 2.062.715 3.75 1.212 3.75.496 0 3.331-.91 6.3-2.02 5.193-1.943 5.527-2.296 8.741-9.25 2.772-5.995 3.35-8.446 3.39-14.348.04-6.277-.387-7.961-3.613-14.251l-3.658-7.133 5.158-4.378c2.837-2.408 7.532-5.827 10.432-7.599 5.167-3.156 5.328-3.186 8-1.492 15.527 9.847 15.175 20.943-1.335 42.087-3.6 4.61-6.301 8.384-6.002 8.384.3 0 8.987-3.096 19.305-6.879 30.665-11.244 37.534-12.704 45.027-9.574 8.147 3.404 10.396 8.542 5.661 12.93-5.006 4.64-12.27 6.096-42.085 8.437-14.887 1.168-21.127 3.15-53.344 16.942-12.925 5.533-26.182 10.754-29.46 11.602-6.665 1.724-26.647 1.922-37.5.372zm-6.04-109.911c-7.115-1.194-16.036-5.728-17.939-9.12-2.014-3.587-.566-7.543 3.853-10.52 5.523-3.723 10.54-4.611 20.586-3.645 24.551 2.361 41.67-.831 73.535-13.714 20.78-8.401 31.44-11.017 47.468-11.65 8.022-.318 15.134-.072 18.565.64 16.428 3.41 31.472 16.802 29.412 26.18-.349 1.587-1.948 4.125-3.554 5.641-6.437 6.076-15.026 6.715-29.553 2.2-26.324-8.18-38.356-7.913-75.373 1.679-51.599 13.37-55.931 14.166-67 12.309zm27.721-39.92c-6.987-.896-9.942-3.177-9.52-7.35.475-4.7 4.038-6.558 14.82-7.73 14.065-1.527 39.079-6.703 50.715-10.493 5.63-1.834 15.268-5.866 21.418-8.96 12.489-6.283 15.244-6.526 20.816-1.838 4.292 3.612 4.12 7.608-.516 11.98-13.438 12.673-73.06 27.553-97.733 24.39zm-.222-33.385c-4.206-1.833-5.843-4.11-5.095-7.089 1.01-4.023 4.733-5.609 16.811-7.16 16.77-2.155 44.07-7.833 54.82-11.402 5.206-1.729 14.36-5.577 20.345-8.553 5.984-2.976 11.736-5.41 12.782-5.41 5.13 0 12.838 5.495 12.838 9.153 0 3.028-5.673 8.427-12.74 12.128-12.414 6.498-36.885 13.637-60.712 17.71-13.769 2.354-34.324 2.682-39.049.623z" fill="#c38c8f"/><path d="M54.994 443.819C34.1 438.39 16.24 424.053 7.079 405.354-.46 389.969-.008 401.58.01 223.156.031 46.876-.299 56.26 6.35 42.382 17.428 19.252 38.38 4.242 64.352.83c5.492-.722 44.592-.968 120.142-.757C296.44.385 296.497.386 304.28 2.588c13.37 3.782 23.023 9.5 33.296 19.726 7.4 7.364 9.854 10.615 13.245 17.54 8.327 17.003 7.673 1.366 7.673 183.5 0 153.706-.094 162.332-1.823 168.5-6.931 24.716-24.83 42.955-50.677 51.642-5.213 1.752-11.724 1.86-124.5 2.06-115.093.205-119.247.148-126.5-1.737zm241-3.03c15.44-2.494 27.555-8.618 38.45-19.435 7.954-7.899 12.462-14.965 16.37-25.666l2.68-7.334.28-162c.315-181.433.779-169.158-6.969-184.637-9.121-18.224-28.346-32.337-48.811-35.832-4.577-.782-40.824-1.025-122.5-.82l-116 .289-8 2.724C29.015 15.733 12.57 32.765 6.33 54.854c-1.748 6.186-1.836 14.353-1.836 169v162.5l2.714 8c2.907 8.565 7.83 17.472 12.916 23.36 9.86 11.421 26.25 20.517 41.633 23.107 7.394 1.245 226.516 1.215 234.237-.032zm-167-44.62c-2.318-.88-6.054-4.547-7.456-7.315-.696-1.375-2.052-5.763-3.013-9.75-.96-3.988-2.036-7.25-2.389-7.25-.353 0-4.017.715-8.142 1.588-16.643 3.522-27-1.91-27-14.163 0-2.75.35-3.505 1.434-3.089 3.816 1.465 18.736 2.75 24.827 2.137 5.688-.57 6.722-.954 6.293-2.328-1.496-4.796-4.686-22.557-5.143-28.645-.642-8.549.062-9.928 4.31-8.447 3.968 1.383 4.965 3.862 8.826 21.947l3.096 14.5 3.428-.264c4.394-.338 24.379-6.114 26.486-7.655 1.34-.98 1.486-2.367.887-8.451-.708-7.184-.75-7.27-3.275-6.637-7.01 1.76-9.034 3.259-9.697 7.18-.962 5.691-1.513 7.327-2.468 7.327-5.323 0-11.989-24.32-12.142-44.296-.114-14.89.394-15.68 10.033-15.59 8.48.08 14.864-1.61 35.7-9.449 28.832-10.847 35.946-12.964 41.7-12.411 3.921.377 5.616 1.104 7.396 3.173 1.27 1.476 2.309 3.414 2.309 4.306 0 .892-2.931 4.354-6.514 7.694-6.338 5.909-6.554 6.275-7.99 13.573-.811 4.125-1.773 14.739-2.136 23.587l-.661 16.086 14.9-.078c16.96-.089 24.411 1.499 38.883 8.287 12.873 6.038 17.603 12.468 15.35 20.868-3.324 12.398-42.033 34.25-60.672 34.25-9.738 0-40.339-8.51-52.182-14.511l-4.627-2.345-2.926 2.392c-2.138 1.749-4.188 2.401-7.62 2.428-5.392.041-8.8 2.407-11.578 8.036-1.727 3.5-4.647 4.676-8.227 3.315zm17.121-22.565l9.868-5.25.005-4.719c.004-3.337-.36-4.594-1.245-4.293-.687.234-6.986 2.269-13.998 4.521l-12.749 4.095 1.647 3.198c2.643 5.132 4.507 7.698 5.592 7.698.557 0 5.453-2.363 10.88-5.25zm59.502 2.247c10.16-2.81 24.865-9.73 29.703-13.98 5.195-4.56 8.201-10.564 6.814-13.609-1.443-3.166-5.952-3.814-17.27-2.483-15.654 1.841-14.526 1.188-14.445 8.365.081 7.188-2.612 12.633-7.82 15.809-5.022 3.062-7.952 2.488-11.966-2.345l-3.527-4.246-6.963 2.37c-4.275 1.456-9.217 4.156-12.806 6.996l-5.843 4.626 9 .626c14.355 1 26.464.266 35.123-2.13zm-29.513-14.683c10.14-3.642 13.89-5.993 13.89-8.71 0-1.135-2.107-.945-11.25 1.014-6.188 1.325-11.762 2.595-12.388 2.821-1.227.444-2.377 8.56-1.214 8.56.386 0 5.319-1.658 10.962-3.685zm2.214-20.502l11.825-3.22-.687-6.046c-.378-3.325-.75-6.11-.825-6.189-.259-.268-20.045 2.637-21.842 3.208-1.515.48-1.795 1.73-1.795 8.002 0 4.088.337 7.44.75 7.448.412.01 6.07-1.433 12.574-3.203zm-24.824-22.554c0-3.902-.265-7.358-.588-7.68-.674-.673-6.793 1.227-8.662 2.69-1.238.967-1.833 12.816-.7 13.949.303.302 2.665.007 5.25-.658l4.7-1.207v-7.094zm22.5.088c3.575-.834 7.913-1.29 9.64-1.012 2.854.458 3.198.226 3.75-2.54.336-1.674.61-4.958.61-7.296v-4.253l-4.25.357c-2.338.196-7.247.622-10.91.947l-6.66.59-1.09 6.262c-1.532 8.8-1.449 9.951.66 9.137.962-.372 4.675-1.358 8.25-2.192zm-27.25-13.284l4.25-1.14v-12.2l-5.136.607c-2.825.335-5.354.827-5.621 1.094-.737.737.818 13.656 1.587 13.187.368-.224 2.582-.92 4.92-1.548zm33.414-7.74c9.628-.621 9.794-.767 9.822-8.68.012-3.5-.196-3.808-2.236-3.312-1.238.3-6.3 1.263-11.25 2.14-14.91 2.64-13.516 1.79-11.63 7.082 1.468 4.12 1.878 4.513 4.13 3.952 1.375-.342 6.399-.874 11.164-1.182zm-70.531-15.418c-16.634-1.755-23.055-5.434-22.432-12.851l.299-3.553 31.654-.739c17.41-.406 32.797-1.172 34.193-1.703 2.318-.882 2.457-1.254 1.595-4.262-.52-1.813-2.632-4.73-4.694-6.482l-3.748-3.185 8.655-8.815c4.76-4.848 10.305-11.43 12.321-14.628 3.189-5.056 3.872-5.642 5.25-4.5 2.369 1.965 4.274 7.234 4.274 11.821 0 4.45-2.433 9.977-6.54 14.858-2.241 2.663-2.537 3.724-1.97 7.076l.666 3.943 6.172-2.192c5.996-2.13 6.268-2.383 9.532-8.883 5.79-11.528 5.272-23.82-1.386-32.843l-2.467-3.345 2.159-2.298c3.535-3.763 16.503-12.323 18.67-12.323 2.874 0 10.134 5.888 12.312 9.984 4.214 7.93.605 18.364-11.733 33.92-3.724 4.697-5.838 8.071-4.79 7.647 11.331-4.583 40.87-14.81 48.117-16.658l9.241-2.358 5.674 1.982c10.954 3.827 12.156 11.171 2.507 15.311-6.313 2.71-13.886 3.925-31.664 5.085-19.212 1.253-25.509 3.088-57.23 16.678-13.624 5.837-28.105 11.467-32.18 12.51-7.902 2.025-18.412 2.284-32.457.803zm-10.633-109.985c-7.115-1.194-16.036-5.728-17.939-9.12-2.014-3.587-.566-7.543 3.853-10.52 5.523-3.723 10.54-4.611 20.586-3.645 24.551 2.361 41.67-.831 73.535-13.714 20.78-8.401 31.44-11.017 47.468-11.65 8.022-.318 15.134-.072 18.565.64 16.428 3.41 31.472 16.802 29.412 26.18-.349 1.587-1.948 4.125-3.554 5.641-6.437 6.076-15.026 6.715-29.553 2.2-26.324-8.18-38.356-7.913-75.373 1.679-51.599 13.37-55.931 14.166-67 12.309zm27.721-39.92c-6.987-.896-9.942-3.177-9.52-7.35.475-4.7 4.038-6.558 14.82-7.73 14.065-1.527 39.079-6.703 50.715-10.493 5.63-1.834 15.268-5.866 21.418-8.96 12.489-6.283 15.244-6.526 20.816-1.838 4.292 3.612 4.12 7.608-.516 11.98-13.438 12.673-73.06 27.553-97.733 24.39zm-.222-33.385c-4.206-1.833-5.843-4.11-5.095-7.089 1.01-4.023 4.733-5.609 16.811-7.16 16.77-2.155 44.07-7.833 54.82-11.402 5.206-1.729 14.36-5.577 20.345-8.553 5.984-2.976 11.736-5.41 12.782-5.41 5.13 0 12.838 5.495 12.838 9.153 0 3.028-5.673 8.427-12.74 12.128-12.414 6.498-36.885 13.637-60.712 17.71-13.769 2.354-34.324 2.682-39.049.623z" fill="#7b7b7b"/><path d="M59.494 444.39c-14.93-2.796-29.209-10.305-39.242-20.638-8.846-9.11-14.45-19.056-17.975-31.898C.6 385.74.494 375.69.494 222.854c0-153.98.095-162.841 1.816-169C9.17 29.307 26.657 11.664 52.02 3.7l7.475-2.347h241l8.76 3.134c11.151 3.99 18.406 8.321 26.577 15.866 8.28 7.645 15.396 18.51 18.907 28.87l2.756 8.13.264 162.743c.295 181.208.692 170.064-6.596 185.257-8.816 18.378-25.006 31.604-46.668 38.123-5.618 1.69-13.4 1.819-122 2.015-92.161.166-117.439-.06-123-1.102zm242.876-4.505c24.017-6.142 43.552-25.19 50.287-49.031 1.748-6.185 1.837-14.31 1.837-167.5 0-180.201.574-165.77-7.228-181.5-2.83-5.707-5.878-9.66-12.746-16.532-9.965-9.971-17.7-14.688-30.543-18.627L296.494 4.4l-111.5-.32c-76.704-.22-114.097.021-119.82.773-16.447 2.162-30.29 8.962-41.663 20.468C15.516 33.41 11.025 40.474 7.173 51.02l-2.68 7.335-.267 161.961c-.262 158.727-.228 162.118 1.718 169.813 6.144 24.297 25.206 43.214 50.05 49.667 7.217 1.875 11.854 1.95 123.09 2.004 111.797.053 115.842-.01 123.286-1.914zM128.994 396.17c-2.318-.88-6.054-4.547-7.456-7.315-.696-1.375-2.052-5.763-3.013-9.75-.96-3.988-2.036-7.25-2.389-7.25-.353 0-4.017.715-8.142 1.588-16.643 3.522-27-1.91-27-14.163 0-2.75.35-3.505 1.434-3.089 3.816 1.465 18.736 2.75 24.827 2.137 5.688-.57 6.722-.954 6.293-2.328-1.496-4.796-4.686-22.557-5.143-28.645-.642-8.549.062-9.928 4.31-8.447 3.968 1.383 4.965 3.862 8.826 21.947l3.096 14.5 3.428-.264c4.394-.338 24.379-6.114 26.486-7.655 1.34-.98 1.486-2.367.887-8.451-.708-7.184-.75-7.27-3.275-6.637-7.01 1.76-9.034 3.259-9.697 7.18-.962 5.691-1.513 7.327-2.468 7.327-5.323 0-11.989-24.32-12.142-44.296-.114-14.89.394-15.68 10.033-15.59 8.48.08 14.864-1.61 35.7-9.449 28.832-10.847 35.946-12.964 41.7-12.411 3.921.377 5.616 1.104 7.396 3.173 1.27 1.476 2.309 3.414 2.309 4.306 0 .892-2.931 4.354-6.514 7.694-6.338 5.909-6.554 6.275-7.99 13.573-.811 4.125-1.773 14.739-2.136 23.587l-.661 16.086 14.9-.078c16.96-.089 24.411 1.499 38.883 8.287 12.873 6.038 17.603 12.468 15.35 20.868-3.324 12.398-42.033 34.25-60.672 34.25-9.738 0-40.339-8.51-52.182-14.511l-4.627-2.345-2.926 2.392c-2.138 1.749-4.188 2.401-7.62 2.428-5.392.041-8.8 2.407-11.578 8.036-1.727 3.5-4.647 4.676-8.227 3.315zm17.121-22.565l9.868-5.25.005-4.719c.004-3.337-.36-4.594-1.245-4.293-.687.234-6.986 2.269-13.998 4.521l-12.749 4.095 1.647 3.198c2.643 5.132 4.507 7.698 5.592 7.698.557 0 5.453-2.363 10.88-5.25zm59.502 2.247c10.16-2.81 24.865-9.73 29.703-13.98 5.195-4.56 8.201-10.564 6.814-13.609-1.443-3.166-5.952-3.814-17.27-2.483-15.654 1.841-14.526 1.188-14.445 8.365.081 7.188-2.612 12.633-7.82 15.809-5.022 3.062-7.952 2.488-11.966-2.345l-3.527-4.246-6.963 2.37c-4.275 1.456-9.217 4.156-12.806 6.996l-5.843 4.626 9 .626c14.355 1 26.464.266 35.123-2.13zm-29.513-14.683c10.14-3.642 13.89-5.993 13.89-8.71 0-1.135-2.107-.945-11.25 1.014-6.188 1.325-11.762 2.595-12.388 2.821-1.227.444-2.377 8.56-1.214 8.56.386 0 5.319-1.658 10.962-3.685zm2.214-20.502l11.825-3.22-.687-6.046c-.378-3.325-.75-6.11-.825-6.189-.259-.268-20.045 2.637-21.842 3.208-1.515.48-1.795 1.73-1.795 8.002 0 4.088.337 7.44.75 7.448.412.01 6.07-1.433 12.574-3.203zm-24.824-22.554c0-3.902-.265-7.358-.588-7.68-.674-.673-6.793 1.227-8.662 2.69-1.238.967-1.833 12.816-.7 13.949.303.302 2.665.007 5.25-.658l4.7-1.207v-7.094zm22.5.088c3.575-.834 7.913-1.29 9.64-1.012 2.854.458 3.198.226 3.75-2.54.336-1.674.61-4.958.61-7.296v-4.253l-4.25.357c-2.338.196-7.247.622-10.91.947l-6.66.59-1.09 6.262c-1.532 8.8-1.449 9.951.66 9.137.962-.372 4.675-1.358 8.25-2.192zm-27.25-13.284l4.25-1.14v-12.2l-5.136.607c-2.825.335-5.354.827-5.621 1.094-.737.737.818 13.656 1.587 13.187.368-.224 2.582-.92 4.92-1.548zm33.414-7.74c9.628-.621 9.794-.767 9.822-8.68.012-3.5-.196-3.808-2.236-3.312-1.238.3-6.3 1.263-11.25 2.14-14.91 2.64-13.516 1.79-11.63 7.082 1.468 4.12 1.878 4.513 4.13 3.952 1.375-.342 6.399-.874 11.164-1.182zm-70.531-15.418c-16.634-1.755-23.055-5.434-22.432-12.851l.299-3.553 31.654-.739c17.41-.406 32.797-1.172 34.193-1.703 2.318-.882 2.457-1.254 1.595-4.262-.52-1.813-2.632-4.73-4.694-6.482l-3.748-3.185 8.655-8.815c4.76-4.848 10.305-11.43 12.321-14.628 3.189-5.056 3.872-5.642 5.25-4.5 2.369 1.965 4.274 7.234 4.274 11.821 0 4.45-2.433 9.977-6.54 14.858-2.241 2.663-2.537 3.724-1.97 7.076l.666 3.943 6.172-2.192c5.996-2.13 6.268-2.383 9.532-8.883 5.79-11.528 5.272-23.82-1.386-32.843l-2.467-3.345 2.159-2.298c3.535-3.763 16.503-12.323 18.67-12.323 2.874 0 10.134 5.888 12.312 9.984 4.214 7.93.605 18.364-11.733 33.92-3.724 4.697-5.838 8.071-4.79 7.647 11.331-4.583 40.87-14.81 48.117-16.658l9.241-2.358 5.674 1.982c10.954 3.827 12.156 11.171 2.507 15.311-6.313 2.71-13.886 3.925-31.664 5.085-19.212 1.253-25.509 3.088-57.23 16.678-13.624 5.837-28.105 11.467-32.18 12.51-7.902 2.025-18.412 2.284-32.457.803zM97.74 170.768c-5.952-1.403-13.723-5.768-14.911-8.377-2.616-5.74 1.77-10.453 12.217-13.13 5.384-1.379 7.378-1.43 14.238-.362 18.497 2.877 38.757-.894 69.37-12.911 25.442-9.988 36.216-12.531 53.34-12.589 11.236-.038 14.68.326 20.537 2.169 17.353 5.46 28.194 20.001 21.374 28.67-5.692 7.237-15.142 7.887-33.911 2.331-6.875-2.035-15.945-4.171-20.155-4.748-12.774-1.748-30.469 1.162-65.345 10.747-33.043 9.08-45.427 10.87-56.754 8.2zm26.35-40.146c-4.193-1.562-5.592-3.657-4.732-7.085.951-3.789 3.28-4.65 18.5-6.831 30.373-4.354 51.257-10.169 68.03-18.94 10.765-5.63 14.934-6.172 20.208-2.63 4.892 3.285 5.18 7.718.767 11.84-7.906 7.385-29.887 15.357-58.87 21.349-15.03 3.107-38.441 4.332-43.903 2.297zm6.482-31.816c-5.311-1.344-6.578-2.605-6.578-6.55 0-4.523 3.469-6.227 15.311-7.521 13.6-1.486 43.494-7.553 54.001-10.96 5.053-1.638 14.707-5.67 21.453-8.96 11.942-5.824 12.382-5.953 16.667-4.874 6.22 1.566 8.753 4.203 8.373 8.72-.254 3.018-1.131 4.248-5.235 7.343-9.437 7.116-36.455 15.975-63.57 20.843-13.22 2.374-34.672 3.413-40.422 1.959z" fill="#a55357"/><path d="M59.494 444.39c-14.93-2.796-29.209-10.305-39.242-20.638-8.846-9.11-14.45-19.056-17.975-31.898C.6 385.74.494 375.69.494 222.854c0-153.98.095-162.841 1.816-169C9.17 29.307 26.657 11.664 52.02 3.7l7.475-2.347h241l8.76 3.134c11.151 3.99 18.406 8.321 26.577 15.866 8.28 7.645 15.396 18.51 18.907 28.87l2.756 8.13.264 162.743c.295 181.208.692 170.064-6.596 185.257-8.816 18.378-25.006 31.604-46.668 38.123-5.618 1.69-13.4 1.819-122 2.015-92.161.166-117.439-.06-123-1.102zm242.876-4.505c24.017-6.142 43.552-25.19 50.287-49.031 1.748-6.185 1.837-14.31 1.837-167.5 0-180.201.574-165.77-7.228-181.5-2.83-5.707-5.878-9.66-12.746-16.532-9.965-9.971-17.7-14.688-30.543-18.627L296.494 4.4l-111.5-.32c-76.704-.22-114.097.021-119.82.773-16.447 2.162-30.29 8.962-41.663 20.468C15.516 33.41 11.025 40.474 7.173 51.02l-2.68 7.335-.267 161.961c-.262 158.727-.228 162.118 1.718 169.813 6.144 24.297 25.206 43.214 50.05 49.667 7.217 1.875 11.854 1.95 123.09 2.004 111.797.053 115.842-.01 123.286-1.914zm-174.305-44.783c-4.826-2.46-6.754-5.581-9.063-14.667-1.107-4.356-2.214-8.12-2.46-8.366-.245-.245-4.406.353-9.247 1.33-5.209 1.052-10.23 1.506-12.301 1.113-7.943-1.507-13.99-7.9-13.997-14.802l-.004-3.644 4.25 1.021c4.352 1.045 27.18 1.668 28.083.766.276-.275-.592-5.881-1.928-12.458-2.856-14.059-3.882-24.503-2.591-26.386 1.428-2.084 7.053 1.27 8.655 5.161.72 1.751 2.52 9.259 3.997 16.684 1.478 7.425 3.075 13.899 3.548 14.387.935.964 9.347-.914 22.84-5.097l8.353-2.59-.703-7.6c-.387-4.18-.897-7.801-1.134-8.047-.236-.246-2.885.388-5.886 1.408-5.427 1.844-5.46 1.88-6.097 6.679-2.552 19.244-14.439-11.23-14.578-37.376-.079-14.604.6-15.623 10.42-15.64 9.352-.018 13.308-1.128 43.315-12.16 26.682-9.81 33.08-11.245 38.243-8.575 6.787 3.51 6.194 7.927-1.893 14.094-3.996 3.047-5.18 4.692-6.402 8.897-1.869 6.428-3.432 22.087-3.466 34.717l-.026 9.598 15.25-.042c14.04-.039 15.925.179 23.75 2.74 12.953 4.241 22.245 9.028 26.355 13.577 3.131 3.466 3.645 4.715 3.645 8.854 0 3.699-.639 5.675-2.75 8.499-8.99 12.029-43.559 29.696-58.051 29.668-9.757-.02-35.21-7.064-49.396-13.672l-7.698-3.585-3.129 2.633c-2.283 1.92-4.257 2.634-7.302 2.636-5.528.005-10.287 2.962-11.16 6.932-.606 2.76-2.974 5.067-5.198 5.063-.448 0-2.359-.788-4.244-1.75zm17.947-21.257l9.982-5.01v-9.874l-4.75 1.426c-20.473 6.144-22.754 7.063-22.428 9.026.428 2.581 4.94 9.44 6.21 9.44.552 0 5.496-2.253 10.986-5.008zm61.482 1.512c19.096-5.535 32.067-13.989 34.64-22.578 1.178-3.93 1.113-4.302-1.054-6.056-2.653-2.149-6.219-2.31-18.177-.824-13.779 1.712-13.244 1.46-12.534 5.902 1 6.25-.318 10-5.35 15.22-6.145 6.376-9.479 6.573-14.025.833-3.776-4.767-5.271-4.9-13.794-1.218-5.915 2.554-15.085 8.858-15.168 10.427-.05.948 14.063 1.593 26.462 1.21 7.064-.217 12.642-1.074 19-2.916zm-31.77-13.89c11.014-4.007 14.27-5.982 14.27-8.655 0-1.551-.502-1.885-2.25-1.499-15.764 3.485-21.351 4.865-21.87 5.4-1.3 1.343-1.775 8.14-.567 8.127.652-.008 5.34-1.526 10.418-3.373zm14.038-24.048c.243-.243.131-3.122-.249-6.397l-.69-5.955-4.165.531c-2.29.292-7.54 1.032-11.664 1.644l-7.5 1.113-.288 8.092-.288 8.092 12.2-3.339c6.711-1.836 12.4-3.538 12.644-3.781zm-39.518-11.123l3.75-.665-.016-6.639c-.02-9.138-.6-9.832-6.371-7.628l-4.613 1.761v7.432c0 6.607.194 7.374 1.75 6.917.962-.282 3.437-.813 5.5-1.178zm25.75-8.096c3.575-.834 7.919-1.289 9.654-1.01 3.687.592 4.31-.696 4.332-8.964l.014-5.127-4.25.357c-17.835 1.495-17.543 1.435-18.126 3.76-.307 1.221-.869 4.865-1.248 8.097-.648 5.507-.571 5.83 1.216 5.14 1.05-.405 4.833-1.419 8.408-2.253zm-23.203-20.158c.332-6.889.282-6.924-7.855-5.578l-3.558.589.735 5.15c.404 2.833.768 5.892.808 6.797.065 1.465.596 1.513 4.823.438l4.75-1.207.297-6.189zm29.367-.866c7.757-.5 8.724-.782 9.236-2.69.878-3.27.705-9.632-.261-9.632-.734 0-17.209 3.136-23.757 4.523-2.058.436-2.075.578-.602 5.05 1.39 4.226 1.728 4.55 4.117 3.956 1.432-.356 6.502-.899 11.267-1.207zm-70.366-15.34c-11.4-1.302-15.783-2.767-19.554-6.538-2.701-2.701-3.313-4.032-3.06-6.66l.316-3.284 30-.676c34.524-.777 38.82-1.187 38.093-3.642a98.594 98.594 0 0 1-1.095-4.197c-.328-1.383-2.155-3.582-4.059-4.886l-3.461-2.372 8.298-8.614c4.565-4.737 10.028-11.416 12.14-14.842 2.114-3.426 4.24-5.983 4.727-5.683.487.301 1.828 2.396 2.981 4.656 3.582 7.021 2.244 12.523-5.708 23.465-1.166 1.604-1.424 3.285-.942 6.137l.663 3.928 6.357-2.067c5.99-1.948 6.498-2.36 8.804-7.137 4.061-8.418 4.981-12.418 4.476-19.462-.455-6.328-3.094-13.425-6.393-17.19-1.213-1.383-.863-2.006 2.809-5 6.209-5.06 15.122-10.912 16.63-10.915.725-.002 3.268 1.338 5.65 2.977 4.584 3.153 8.53 9.727 8.53 14.21 0 6.154-5.818 16.964-15.172 28.19-2.695 3.235-4.718 6.063-4.496 6.286.223.222 7.552-2.259 16.287-5.514 35.193-13.116 42.84-14.656 51.171-10.309 9.51 4.962 7.084 12-5.37 15.576-6.817 1.957-10.657 2.443-28.297 3.58-13.734.886-16.619 1.408-27 4.882-6.393 2.14-19.386 7.304-28.875 11.477-27.765 12.21-32.877 13.794-45.748 14.177-6.05.18-14.466-.069-18.702-.552zM97.74 170.769c-5.952-1.403-13.723-5.768-14.911-8.377-2.616-5.74 1.77-10.453 12.217-13.13 5.384-1.379 7.378-1.43 14.238-.362 18.497 2.877 38.757-.894 69.37-12.911 25.442-9.988 36.216-12.531 53.34-12.589 11.236-.038 14.68.326 20.537 2.169 17.353 5.46 28.194 20.001 21.374 28.67-5.692 7.237-15.142 7.887-33.911 2.331-6.875-2.035-15.945-4.171-20.155-4.748-12.774-1.748-30.469 1.162-65.345 10.747-33.043 9.08-45.427 10.87-56.754 8.2zm26.35-40.146c-4.193-1.562-5.592-3.657-4.732-7.085.951-3.789 3.28-4.65 18.5-6.831 30.373-4.354 51.257-10.169 68.03-18.94 10.765-5.63 14.934-6.172 20.208-2.63 4.892 3.285 5.18 7.718.767 11.84-7.906 7.385-29.887 15.357-58.87 21.349-15.03 3.107-38.441 4.332-43.903 2.297zm6.482-31.816c-5.311-1.344-6.578-2.605-6.578-6.55 0-4.523 3.469-6.227 15.311-7.521 13.6-1.486 43.494-7.553 54.001-10.96 5.053-1.638 14.707-5.67 21.453-8.96 11.942-5.824 12.382-5.953 16.667-4.874 6.22 1.566 8.753 4.203 8.373 8.72-.254 3.018-1.131 4.248-5.235 7.343-9.437 7.116-36.455 15.975-63.57 20.843-13.22 2.374-34.672 3.413-40.422 1.959z" fill="#871a1f"/><path d="M61.825 444.83c-29.163-4.92-51.645-24.935-59.509-52.976C.587 385.686.494 377.06.494 223.354.494 41.25-.156 56.84 8.148 39.899c3.323-6.776 5.852-10.15 12.745-17 9.827-9.764 16.399-13.96 28.84-18.41l8.76-3.135h240l7.5 2.342c20.945 6.54 35.74 18.904 45.06 37.658 7.313 14.712 6.904 3.957 6.923 182.09.017 156.614-.026 160.261-1.975 168-5.548 22.02-22.496 40.989-43.872 49.105-13.897 5.276-12.993 5.241-133.635 5.152-61.6-.045-114.101-.437-116.67-.87zm240.759-4.982c24.765-6.28 43.553-24.635 50.15-48.994 1.646-6.08 1.76-16.963 1.76-168 0-153.677-.09-161.815-1.837-168-7.601-26.908-30.376-46.26-58.844-50-5.724-.753-43.26-.994-120.32-.774l-112 .32-7.483 2.295c-12.532 3.843-20.6 8.71-30.076 18.14-9.797 9.75-14.817 18.309-17.968 30.628-1.923 7.517-1.972 11.709-1.955 167.3.015 135.834.234 160.633 1.474 166.59 4.868 23.394 25.234 44.065 49.738 50.486 6.943 1.819 12.51 1.907 123.36 1.96 113.004.053 116.301.002 124-1.951zM97.026 170.253c-6.785-1.824-10.71-4.076-13.407-7.695-1.92-2.576-1.966-3.007-.58-5.478 3.712-6.61 14.621-10.186 25.37-8.315 19.176 3.34 40.64-.676 73.085-13.675 40.637-16.28 69.487-16.272 87.167.024 5.437 5.012 7.333 8.456 7.333 13.322 0 5.186-5.056 9.84-12.5 11.505-5.929 1.327-7.864.971-31-5.698-17.974-5.182-34.49-3.515-76 7.67-38.203 10.292-47.402 11.582-59.468 8.34zm27.576-39.728c-4.593-1.386-6.14-3.414-5.266-6.897.844-3.366 5.442-5.387 14.158-6.226 11.044-1.063 41.07-7.279 51.5-10.662 5.225-1.694 14.364-5.512 20.308-8.483 11.762-5.88 14.434-6.36 19.707-3.54 14.267 7.625-3.744 20.405-42.423 30.103-25.7 6.444-48.203 8.658-57.984 5.705zm6.892-31.6c-5.492-1.325-7.5-2.941-7.5-6.034 0-3.742 3.788-6.77 9.32-7.449 16.078-1.973 22.937-3.051 36.18-5.69 18.601-3.706 32.636-8.34 46.773-15.447 10.164-5.11 11.16-5.412 14.684-4.463 5.419 1.46 9.047 4.61 9.02 7.834-.029 3.505-2.36 6.294-8.434 10.092-20.005 12.509-81.762 25.569-100.043 21.157z"/></svg>