<svg xmlns="http://www.w3.org/2000/svg" width="358.851" height="445.846"><path d="M56.5 444.423c-24.657-5.378-44.728-23.134-53.176-47.042L.5 389.39.235 226.145C-.06 43.546-.51 55.58 7.196 39.96c3.41-6.91 5.98-10.326 13.267-17.64C30.46 12.287 39.399 6.91 53.027 2.728L60.5.436l113-.32c120.117-.34 123.76-.222 136.82 4.418 27.178 9.657 44.699 31.752 47.743 60.208.678 6.341.924 63.12.716 165.648-.355 175.1.348 159.523-7.957 176.5-5.845 11.95-18.637 24.732-30.822 30.797-17.505 8.713-8.848 8.214-140.91 8.124-92.097-.063-117.85-.355-122.59-1.388zm246-4.805c3.3-.961 9.825-3.61 14.5-5.888 11.998-5.844 23.961-17.796 29.869-29.84 7.629-15.554 7.198-4.077 6.899-183.771L353.5 59.39l-2.824-7.99c-3.822-10.817-8.823-18.746-16.72-26.51-7.894-7.761-16.592-13.076-27.456-16.775l-8-2.725h-239l-8 2.82c-18.724 6.6-32.549 18.619-40.47 35.18-6.969 14.573-6.53 2.442-6.53 180.5v161.5l2.902 8.855c7.82 23.862 28.18 41.572 53.098 46.192 5.515 1.022 31.285 1.258 121.5 1.113 105.698-.17 114.961-.32 120.5-1.932zm-97.592-43.652c-13.468-2.887-26.149-6.777-36.33-11.145l-9.364-4.016-3.73 2.531c-2.427 1.647-4.51 2.335-5.964 1.97-1.23-.309-3.882.127-5.895.967-2.79 1.166-4.12 2.607-5.606 6.073-1.843 4.299-2.162 4.544-5.907 4.544-2.828 0-4.862-.76-7.121-2.661-3.475-2.924-4.422-4.902-6.627-13.839-.814-3.3-1.644-6.51-1.846-7.134-.265-.822-2.103-.73-6.692.339-16.803 3.91-28.574-1.243-29.116-12.747-.206-4.382-.159-4.454 2.79-4.212 7.793.637 29.5 1.472 29.496 1.135-.002-.21-1.116-6.006-2.476-12.88-1.36-6.876-2.484-15.763-2.497-19.75-.021-6.669.143-7.25 2.043-7.25 6.042 0 7.89 3.384 11.42 20.918 3.814 18.934 2.372 17.324 13.014 14.535 4.95-1.297 11.475-3.208 14.5-4.247l5.5-1.889.294-5.453c.161-3-.064-6.4-.5-7.554l-.794-2.1-5.068 1.896c-4.968 1.86-5.086 2-6 7.145-1.917 10.795-7.384 4.95-12.106-12.944-2.162-8.192-2.608-12.169-2.707-24.14-.117-14.058-.072-14.37 2.325-16.317 1.979-1.608 3.32-1.865 7.055-1.351 6.614.91 14.485-1.195 40.834-10.917 33.633-12.41 38.429-13.311 44.676-8.397 4.345 3.418 3.4 6.897-3.537 13.002-7.862 6.92-9.276 12.342-10.387 39.812l-.546 13.5 16.23.031c15.084.029 16.832.23 24.731 2.852 27.28 9.05 35.466 20.562 23.702 33.325-11.344 12.306-37.718 25.755-54.202 27.639-3.158.36-8.165-.107-13.592-1.271zm-59.9-22.326l9.829-5.25.339-4.25c.186-2.337.161-4.25-.056-4.25-1.391 0-26.12 8.197-26.12 8.658 0 .878 5.26 10.342 5.748 10.342.237 0 4.854-2.362 10.26-5.25zm58.257 2.31c9.85-2.519 21.379-7.35 28.093-11.772 8.141-5.361 12.777-13.752 9.442-17.088-1.498-1.498-10.504-1.54-21.732-.102l-8.568 1.098.349 4.94c.468 6.617-.295 9.163-4.012 13.397-3.882 4.422-8.339 6.809-11.316 6.062-1.245-.313-3.47-2.15-4.943-4.082-1.73-2.268-3.516-3.513-5.04-3.513-4.09 0-13.12 4.038-17.945 8.025l-4.644 3.837 2.775.42c1.527.23 8.892.486 16.366.568 10.554.117 15.284-.283 21.175-1.79zM187.61 355.8c2.28-1.892 1.729-4.204-.859-3.61-1.238.284-6.638 1.495-12 2.69l-9.75 2.174v7.602l10.609-3.85c5.835-2.119 11.235-4.371 12-5.006zm-9.363-15.512l10.747-2.898.004-5.865.004-5.865-5.75.667c-3.163.366-8.28 1.14-11.373 1.72l-5.623 1.053-.618 5.145c-.938 7.8-.799 9.919.614 9.4.687-.252 6.086-1.762 11.996-3.357zm-28.609-14.537c3.9-.982 4.445-1.43 3.957-3.25-.312-1.16-.573-4.452-.58-7.313l-.014-5.202-4.5 1.668-4.5 1.668v6.784c0 3.731.25 6.784.557 6.784.307 0 2.593-.512 5.08-1.139zm23.363-7.36c3.025-.813 7.862-1.482 10.75-1.489l5.25-.012.014-4.25c.008-2.337.302-5.33.655-6.648l.642-2.399-9.749.716c-5.362.394-10.344.944-11.072 1.223-.727.28-1.618 2.837-1.979 5.683-.36 2.846-.878 5.963-1.15 6.925-.598 2.111-.333 2.121 6.639.25zm-24.866-13.66l3.866-1.157V292.136l-4.75.51c-2.613.28-4.863.601-5.002.712-.457.368 1.026 12.532 1.528 12.532.27 0 2.232-.521 4.358-1.158zm28.679-7.884c3.308-.65 7.854-1.008 10.101-.794 4.08.39 4.086.385 4.1-3.136.008-1.94.267-4.47.576-5.624l.563-2.098-12.826 2.463c-7.055 1.354-12.906 2.527-13.002 2.606-.097.079.337 2.064.963 4.41.683 2.559 1.613 4.084 2.324 3.812.652-.25 3.892-.988 7.2-1.639zM106 281.724c-11.829-1.672-18-6.506-18-14.099 0-2.172.548-2.538 4.64-3.099 2.551-.35 15.039-.688 27.75-.753 12.71-.064 26.035-.402 29.61-.75 6.493-.632 6.5-.636 6.234-3.633-.182-2.05-1.516-4.088-4.21-6.435l-3.944-3.435 7.975-8.307c4.387-4.57 10.016-11.461 12.509-15.315 2.493-3.854 4.73-7.008 4.97-7.008 1.02 0 5.336 7.757 5.936 10.666.942 4.575-.989 10.55-5.184 16.044-2.81 3.68-3.605 5.593-3.427 8.252.128 1.905.36 3.59.517 3.748.573.572 10.173-3.028 11.782-4.42 2.236-1.933 5.68-10.147 6.991-16.678 1.248-6.213-.55-14.12-4.711-20.71-1.341-2.125-2.438-4.255-2.438-4.734 0-1.031 9.67-8.717 15.808-12.565 5.075-3.182 6.768-2.884 12.367 2.174 5.172 4.673 6.83 8.066 6.803 13.924-.033 7.298-4.629 16.056-14.717 28.05-2.428 2.887-4.205 5.25-3.946 5.25.258 0 6.292-2.204 13.41-4.897 21.22-8.028 35.37-12.316 42.275-12.811 5.514-.396 7.182-.1 11 1.95 8.769 4.707 7.803 11.516-2.197 15.499-5.593 2.227-13.319 3.33-36.303 5.187-14.508 1.172-22.614 3.744-53 16.817-29.442 12.667-31.702 13.281-48.355 13.13-7.505-.067-16.57-.536-20.145-1.042zm136.5-95.031c-4.736-2.691-11.723-9.249-24.828-23.303-23.19-24.87-27.717-31.394-23.034-33.191 6.296-2.416 52.535 22.8 61.294 33.425 4.097 4.97 4.114 9.91.058 16.981-4.061 7.082-8.342 9.013-13.49 6.088zm-156.99-.628c-4.394-.743-5.894-3.388-2.82-4.974.995-.514 5.635-1.478 10.31-2.142 11.476-1.632 37.415-11.88 43.311-17.113 3.876-3.44 4.059-3.839 2.912-6.355-.672-1.477-1.223-4.959-1.223-7.738 0-4.413.43-5.483 3.4-8.453 2.945-2.945 4.058-3.4 8.318-3.4 9.897 0 21.257 4.91 27.596 11.926 7.17 7.937 6.98 15.676-.52 21.108-7.88 5.708-29.08 12.106-51.032 15.402-11.336 1.702-34.54 2.704-40.252 1.739zm24.244-56.773c-6.493-1.997-12.155-7.663-11.256-11.265 1.415-5.671 2.35-5.969 18.326-5.837 10.61.087 17.031-.373 23.176-1.658 14.453-3.024 24-5.81 23.995-7.001-.008-1.648-2.818-5.715-8.214-11.886-5.698-6.518-8.73-12.854-8.759-18.308-.029-5.275 4.146-13.615 8.688-17.36 7.131-5.878 13.193-4.834 23.429 4.034 6.787 5.879 11.017 12.407 11.153 17.21.134 4.707-3.55 11.247-10.091 17.92-3.101 3.162-5.155 5.75-4.565 5.75.59 0 7.87-2.682 16.175-5.959 21.88-8.632 28.25-10.405 35.137-9.78 10.048.91 35.344 10.537 44.13 16.794 4.068 2.897 6.058 7.2 6.204 13.414.15 6.434-1.969 10.082-7.11 12.236-5.261 2.206-13.577.457-29.685-6.24-19.638-8.165-24.246-9.58-33.195-10.186-10.672-.724-16.852.555-38.292 7.921-29.13 10.01-36.175 11.809-45.924 11.73-4.717-.039-10.712-.727-13.322-1.53z" fill="#e0c5c6"/><path d="M56.5 444.423c-24.657-5.378-44.728-23.134-53.176-47.042L.5 389.39.235 226.145C-.06 43.546-.51 55.58 7.196 39.96c3.41-6.91 5.98-10.326 13.267-17.64C30.46 12.287 39.399 6.91 53.027 2.728L60.5.436l113-.32c120.117-.34 123.76-.222 136.82 4.418 27.178 9.657 44.699 31.752 47.743 60.208.678 6.341.924 63.12.716 165.648-.355 175.1.348 159.523-7.957 176.5-5.845 11.95-18.637 24.732-30.822 30.797-17.505 8.713-8.848 8.214-140.91 8.124-92.097-.063-117.85-.355-122.59-1.388zm246-4.805c3.3-.961 9.825-3.61 14.5-5.888 11.998-5.844 23.961-17.796 29.869-29.84 7.629-15.554 7.198-4.077 6.899-183.771L353.5 59.39l-2.824-7.99c-3.822-10.817-8.823-18.746-16.72-26.51-7.894-7.761-16.592-13.076-27.456-16.775l-8-2.725h-239l-8 2.82c-18.724 6.6-32.549 18.619-40.47 35.18-6.969 14.573-6.53 2.442-6.53 180.5v161.5l2.902 8.855c7.82 23.862 28.18 41.572 53.098 46.192 5.515 1.022 31.285 1.258 121.5 1.113 105.698-.17 114.961-.32 120.5-1.932zM203 395.434c-13.785-3.076-28.866-7.956-37.238-12.05l-6.738-3.295-3.635 2.889c-2.663 2.117-4.286 2.725-6.074 2.276-4.135-1.037-9.66 2.198-11.87 6.95-2.358 5.075-5.723 5.914-10.895 2.717-3.909-2.416-6.817-7.914-8.636-16.326-.689-3.188-1.55-5.98-1.914-6.205-.363-.224-3.1.24-6.08 1.034-15.422 4.104-27.612-.68-29.39-11.534-.88-5.373.173-6.194 6.421-5.01 6.495 1.233 26.049 1.343 26.049.148 0-.475-1.125-6.387-2.5-13.138s-2.5-15.363-2.5-19.137c0-6.03.226-6.863 1.865-6.863 2.576 0 7.083 3.732 8.267 6.846.54 1.421 2.106 8.224 3.48 15.119 3.471 17.42 2.723 15.966 7.67 14.897 2.32-.502 9.055-2.31 14.968-4.017l10.75-3.104v-6.289c0-9.43-.156-9.617-6.285-7.533-5.093 1.73-5.147 1.793-6.177 7.156-1.195 6.226-3.437 7.535-6.057 3.536-4.624-7.056-9.481-28.945-9.481-42.722 0-12.716 2.339-16.292 10.026-15.33 6.476.811 16.333-1.71 37.444-9.574 27.171-10.123 37.409-13.23 41.227-12.514 4.118.773 9.303 5.087 9.303 7.74 0 1.193-2.64 4.57-6.377 8.162-5.575 5.356-6.526 6.82-7.557 11.627-.939 4.378-2.846 29.276-3.03 39.537-.035 1.967.41 2.023 13.026 1.63 10.043-.313 14.723-.008 20.25 1.32 15.794 3.793 28.48 10.166 33.866 17.012 3.536 4.495 3.226 11.185-.75 16.158-9.54 11.939-39.685 27.942-55.928 29.691-3.346.36-8.474-.236-15.5-1.804zm-58.016-21.585l9.814-5.04.44-4.21c.242-2.315.309-4.376.147-4.58-.652-.824-26.385 8.015-26.385 9.064 0 1.354 4.85 9.807 5.628 9.807.298 0 4.959-2.268 10.356-5.04zm60.023 1.679c22.312-6.207 35.13-14.548 36.639-23.841 1.009-6.218-3.22-7.128-22.08-4.754l-9.18 1.155.405 5.651c.365 5.098.077 6.134-2.943 10.582-4.16 6.125-9.465 9.156-13.116 7.493-1.382-.63-3.106-2.255-3.833-3.612-2.15-4.018-4.11-4.476-10.2-2.38-6.922 2.381-9.224 3.593-14.124 7.435-3.875 3.04-3.894 3.087-1.5 3.756 1.334.373 8.953.723 16.932.777 12.386.086 15.75-.245 23-2.262zm-18.757-18.685c2.59-1.2 3.93-4.953 1.769-4.953-.54 0-5.94 1.163-12 2.584L165 357.058v7.796l9.25-3.368c5.087-1.853 10.487-3.942 12-4.643zm-7.5-16.516l10.25-2.752v-5.842c0-5.394-.173-5.843-2.25-5.839-2.735.005-19.82 2.732-20.334 3.246-.201.202-.674 3.675-1.05 7.717-.643 6.921-.572 7.316 1.226 6.785 1.05-.31 6.52-1.802 12.158-3.315zm-28.634-14.452l3.616-1.005-.495-7.24c-.273-3.982-.582-7.347-.689-7.48-.106-.13-2.038.486-4.293 1.372l-4.1 1.61-.328 6.882c-.362 7.62-.29 7.688 6.289 5.86zm31.507-8.691l7.124-.563.553-6.105c.305-3.358.374-6.285.155-6.504-.22-.22-4.994 0-10.61.49-11.518 1.002-10.883.422-12.129 11.075l-.607 5.186 4.196-1.508c2.307-.83 7.4-1.761 11.318-2.071zm-33.373-12.346l3.75-1.042v-11.66l-4.75.51c-2.613.28-4.863.601-5.002.712-.525.422 1.065 12.532 1.644 12.527.335-.003 2.295-.475 4.358-1.047zm28.563-7.99c3.308-.652 7.807-1.013 9.997-.805l3.981.38.479-5.516c.263-3.034.423-5.568.354-5.63-.151-.14-25.052 4.76-25.3 4.976-.096.085.338 2.075.964 4.421.683 2.559 1.613 4.084 2.324 3.812.652-.25 3.892-.988 7.2-1.639zm-69.772-15.083c-8.83-1.32-14.558-4.034-17.01-8.057-2.297-3.766-2.624-7.327-.781-8.484.687-.432 15.993-1.063 34.011-1.404 18.019-.34 33.01-.868 33.315-1.172.304-.305.25-2.172-.122-4.15-.486-2.594-1.746-4.385-4.517-6.423l-3.843-2.826 7.99-7.93c4.394-4.36 9.862-10.854 12.15-14.429 2.29-3.575 4.337-6.725 4.55-7 .851-1.102 5.216 5.288 6.26 9.166 1.345 4.994-.432 10.57-5.476 17.177-2.625 3.439-3.138 4.902-2.784 7.937.24 2.046.819 3.72 1.288 3.72.47 0 3.288-.911 6.265-2.025 5.025-1.88 5.598-2.439 8.007-7.806 3.883-8.653 5.033-15.181 3.739-21.219-1.158-5.397-3.359-10.349-5.874-13.217-1.42-1.62-1.305-2.024 1.37-4.833 1.607-1.686 6.215-5.274 10.24-7.973 7.296-4.892 7.329-4.902 10.5-3.303 1.75.883 4.459 2.79 6.02 4.24 9.314 8.647 7.454 18.866-6.847 37.609-3.578 4.69-6.317 8.527-6.087 8.527.23 0 8.3-2.905 17.934-6.455 21.187-7.807 33.78-11.545 38.9-11.545 7.221 0 15.761 5.14 15.761 9.487 0 1.177-1.244 3.33-2.764 4.787-5.157 4.94-11.545 6.258-41.892 8.64-14.73 1.156-22.032 3.44-51.525 16.117-31.307 13.456-30.875 13.334-47.819 13.59-7.975.12-17.407-.215-20.96-.746zM242.5 186.693c-4.736-2.691-11.723-9.249-24.828-23.303-23.19-24.87-27.717-31.394-23.034-33.191 6.296-2.416 52.535 22.8 61.294 33.425 4.097 4.97 4.114 9.91.058 16.981-4.061 7.082-8.342 9.013-13.49 6.088zm-156.99-.628c-4.394-.743-5.894-3.388-2.82-4.974.995-.514 5.635-1.478 10.31-2.142 11.476-1.632 37.415-11.88 43.311-17.113 3.876-3.44 4.059-3.839 2.912-6.355-.672-1.477-1.223-4.959-1.223-7.738 0-4.413.43-5.483 3.4-8.453 2.945-2.945 4.058-3.4 8.318-3.4 9.897 0 21.257 4.91 27.596 11.926 7.17 7.937 6.98 15.676-.52 21.108-7.88 5.708-29.08 12.106-51.032 15.402-11.336 1.702-34.54 2.704-40.252 1.739zm24.244-56.773c-6.493-1.997-12.155-7.663-11.256-11.265 1.415-5.671 2.35-5.969 18.326-5.837 10.61.087 17.031-.373 23.176-1.658 14.453-3.024 24-5.81 23.995-7.001-.008-1.648-2.818-5.715-8.214-11.886-5.698-6.518-8.73-12.854-8.759-18.308-.029-5.275 4.146-13.615 8.688-17.36 7.131-5.878 13.193-4.834 23.429 4.034 6.787 5.879 11.017 12.407 11.153 17.21.134 4.707-3.55 11.247-10.091 17.92-3.101 3.162-5.155 5.75-4.565 5.75.59 0 7.87-2.682 16.175-5.959 21.88-8.632 28.25-10.405 35.137-9.78 10.048.91 35.344 10.537 44.13 16.794 4.068 2.897 6.058 7.2 6.204 13.414.15 6.434-1.969 10.082-7.11 12.236-5.261 2.206-13.577.457-29.685-6.24-19.638-8.165-24.246-9.58-33.195-10.186-10.672-.724-16.852.555-38.292 7.921-29.13 10.01-36.175 11.809-45.924 11.73-4.717-.039-10.712-.727-13.322-1.53z" fill="#bebebe"/><path d="M55 443.843C28.88 437.1 8.322 417.11 1.972 392.281.049 384.763 0 380.534 0 223.39 0 67.436.063 61.964 1.93 54.663 7.167 34.19 21.14 17.258 40.5 7.934 57.18-.102 48.19.39 178.5.39c131.52 0 123.349-.479 140.785 8.25 7.365 3.687 10.853 6.267 17.798 13.168 9.966 9.9 15.56 19.131 19.114 31.541l2.303 8.041v161.5c0 151.928-.106 161.915-1.79 168.5-5.304 20.734-19.641 37.805-39.917 47.528-15.115 7.248-8.981 6.942-138.293 6.9-111.418-.036-116.296-.114-123.5-1.975zm248.5-4.308c20.01-5.946 35.628-18.791 43.95-36.145 6.925-14.443 6.552-4.158 6.533-180.197-.015-135.553-.232-159.828-1.482-165.803-3.923-18.746-17.596-36.016-35.523-44.865-16.174-7.984-9.19-7.598-137.78-7.617C50.637 4.888 57.727 4.5 41.5 12.454 21.305 22.354 8.186 40.336 5.035 62.44c-.818 5.735-1.043 51.967-.809 165.95.358 174.184-.15 160.583 6.543 174.769 9.201 19.497 28.655 33.884 50.994 37.712 2.606.447 56.712.73 120.237.63 107.594-.17 115.91-.304 121.5-1.966zm-100.5-44.1c-13.785-3.077-28.866-7.957-37.238-12.05l-6.738-3.296-3.635 2.889c-2.663 2.117-4.286 2.725-6.074 2.276-4.135-1.037-9.66 2.198-11.87 6.95-2.358 5.075-5.723 5.914-10.895 2.717-3.909-2.416-6.817-7.914-8.636-16.326-.689-3.188-1.55-5.98-1.914-6.205-.363-.224-3.1.24-6.08 1.034-15.422 4.104-27.612-.68-29.39-11.534-.88-5.373.173-6.194 6.421-5.01 6.495 1.233 26.049 1.343 26.049.148 0-.475-1.125-6.387-2.5-13.138s-2.5-15.363-2.5-19.137c0-6.03.226-6.863 1.865-6.863 2.576 0 7.083 3.732 8.267 6.846.54 1.421 2.106 8.224 3.48 15.119 3.471 17.42 2.723 15.966 7.67 14.897 2.32-.502 9.055-2.31 14.968-4.017l10.75-3.104v-6.289c0-9.43-.156-9.617-6.285-7.533-5.093 1.73-5.147 1.793-6.177 7.156-1.195 6.226-3.437 7.535-6.057 3.536-4.624-7.056-9.481-28.945-9.481-42.722 0-12.716 2.339-16.292 10.026-15.33 6.476.811 16.333-1.71 37.444-9.574 27.171-10.123 37.409-13.23 41.227-12.514 4.118.773 9.303 5.087 9.303 7.74 0 1.193-2.64 4.57-6.377 8.162-5.575 5.356-6.526 6.82-7.557 11.627-.939 4.378-2.846 29.276-3.03 39.537-.035 1.967.41 2.023 13.026 1.63 10.043-.313 14.723-.008 20.25 1.32 15.794 3.793 28.48 10.166 33.866 17.012 3.536 4.495 3.226 11.185-.75 16.158-9.54 11.939-39.685 27.942-55.928 29.691-3.346.36-8.474-.236-15.5-1.804zm-58.016-21.586l9.814-5.04.44-4.21c.242-2.315.309-4.376.147-4.58-.652-.824-26.385 8.015-26.385 9.064 0 1.354 4.85 9.807 5.628 9.807.298 0 4.959-2.268 10.356-5.04zm60.023 1.679c22.312-6.207 35.13-14.548 36.639-23.841 1.009-6.218-3.22-7.128-22.08-4.754l-9.18 1.155.405 5.651c.365 5.098.077 6.134-2.943 10.582-4.16 6.125-9.465 9.156-13.116 7.493-1.382-.63-3.106-2.255-3.833-3.612-2.15-4.018-4.11-4.476-10.2-2.38-6.922 2.381-9.224 3.593-14.124 7.435-3.875 3.04-3.894 3.087-1.5 3.756 1.334.373 8.953.723 16.932.777 12.386.086 15.75-.245 23-2.262zm-18.757-18.685c2.59-1.2 3.93-4.953 1.769-4.953-.54 0-5.94 1.163-12 2.584L165 357.058v7.796l9.25-3.368c5.087-1.853 10.487-3.942 12-4.643zm-7.5-16.516l10.25-2.752v-5.842c0-5.394-.173-5.843-2.25-5.839-2.735.005-19.82 2.732-20.334 3.246-.201.202-.674 3.675-1.05 7.717-.643 6.921-.572 7.316 1.226 6.785 1.05-.31 6.52-1.802 12.158-3.315zm-28.634-14.452l3.616-1.005-.495-7.24c-.273-3.982-.582-7.347-.689-7.48-.106-.13-2.038.486-4.293 1.372l-4.1 1.61-.328 6.882c-.362 7.62-.29 7.688 6.289 5.86zm31.507-8.691l7.124-.563.553-6.105c.305-3.358.374-6.285.155-6.504-.22-.22-4.994 0-10.61.49-11.518 1.002-10.883.422-12.129 11.075l-.607 5.186 4.196-1.508c2.307-.83 7.4-1.761 11.318-2.071zm-33.373-12.346l3.75-1.042v-11.66l-4.75.51c-2.613.28-4.863.601-5.002.712-.525.422 1.065 12.532 1.644 12.527.335-.003 2.295-.475 4.358-1.047zm28.563-7.99c3.308-.652 7.807-1.013 9.997-.805l3.981.38.479-5.516c.263-3.034.423-5.568.354-5.63-.151-.14-25.052 4.76-25.3 4.976-.096.085.338 2.075.964 4.421.683 2.559 1.613 4.084 2.324 3.812.652-.25 3.892-.988 7.2-1.639zm-69.772-15.083c-8.83-1.32-14.558-4.034-17.01-8.057-2.297-3.766-2.624-7.327-.781-8.484.687-.432 15.993-1.063 34.011-1.404 18.019-.34 33.01-.868 33.315-1.172.304-.305.25-2.172-.122-4.15-.486-2.594-1.746-4.385-4.517-6.423l-3.843-2.826 7.99-7.93c4.394-4.36 9.862-10.854 12.15-14.429 2.29-3.575 4.337-6.725 4.55-7 .851-1.102 5.216 5.288 6.26 9.166 1.345 4.994-.432 10.57-5.476 17.177-2.625 3.439-3.138 4.902-2.784 7.937.24 2.046.819 3.72 1.288 3.72.47 0 3.288-.911 6.265-2.025 5.025-1.88 5.598-2.439 8.007-7.806 3.883-8.653 5.033-15.181 3.739-21.219-1.158-5.397-3.359-10.349-5.874-13.217-1.42-1.62-1.305-2.024 1.37-4.833 1.607-1.686 6.215-5.274 10.24-7.973 7.296-4.892 7.329-4.902 10.5-3.303 1.75.883 4.459 2.79 6.02 4.24 9.314 8.647 7.454 18.866-6.847 37.609-3.578 4.69-6.317 8.527-6.087 8.527.23 0 8.3-2.905 17.934-6.455 21.187-7.807 33.78-11.545 38.9-11.545 7.221 0 15.761 5.14 15.761 9.487 0 1.177-1.244 3.33-2.764 4.787-5.157 4.94-11.545 6.258-41.892 8.64-14.73 1.156-22.032 3.44-51.525 16.117-31.307 13.456-30.875 13.334-47.819 13.59-7.975.12-17.407-.215-20.96-.746zM240.4 185.042c-5.29-3.863-30.349-29.741-39.822-41.123-7.65-9.191-8.548-11.389-5.452-13.338 4.978-3.135 48.744 20.85 59.665 32.699 4.933 5.351 5.543 9.873 2.103 15.61-5.656 9.435-9.854 11.001-16.494 6.152zm-152.9 1.193c-1.1-.232-3.013-.639-4.25-.903-2.92-.623-2.895-3.246.04-4.362 1.26-.48 6.548-1.56 11.75-2.402 9.566-1.548 29.388-8.872 38.765-14.324 5.08-2.953 6.919-6.133 5.298-9.162-1.576-2.944-1.362-9.791.414-13.225 2.3-4.45 6.754-6.31 13.61-5.689 15.121 1.371 31.498 15.046 29.41 24.557-1.875 8.533-18.026 16.076-46.124 21.54-18.098 3.52-41.904 5.452-48.913 3.97zm21.813-57.38c-2.853-1.132-6.545-3.604-8.204-5.494-2.699-3.073-2.905-3.757-1.958-6.474 1.6-4.587 3.87-5.308 14.27-4.528 12.207.915 26.389-1.07 46.921-6.567 3.505-.938 3.785-1.261 3.18-3.673-.366-1.454-3.385-5.813-6.71-9.687-11.074-12.902-12.436-20.51-5.532-30.908 4.718-7.107 10.71-10.252 16.54-8.682 4.38 1.18 16.632 11.808 20.125 17.459 4.349 7.036 2.005 14.294-8.108 25.104l-6.155 6.58 7.909-2.948c4.35-1.62 13.984-5.298 21.409-8.172 18.615-7.203 21.858-7.376 38.22-2.038 14.688 4.791 27.434 10.871 31.668 15.105 5.119 5.119 5.93 16.187 1.542 21.035-.961 1.063-3.568 2.422-5.793 3.02-5.501 1.482-12.724-.39-30.983-8.033-16.709-6.993-24.427-9.034-34.154-9.034-9.525 0-16.055 1.656-44 11.163-23.152 7.875-24.371 8.176-34.5 8.496-8.774.278-11.352-.006-15.687-1.725z" fill="#c38c8f"/><path d="M55 443.843C28.88 437.1 8.322 417.11 1.972 392.281.049 384.763 0 380.534 0 223.39 0 67.436.063 61.964 1.93 54.663 7.167 34.19 21.14 17.258 40.5 7.934 57.18-.102 48.19.39 178.5.39c131.52 0 123.349-.479 140.785 8.25 7.365 3.687 10.853 6.267 17.798 13.168 9.966 9.9 15.56 19.131 19.114 31.541l2.303 8.041v161.5c0 151.928-.106 161.915-1.79 168.5-5.304 20.734-19.641 37.805-39.917 47.528-15.115 7.248-8.981 6.942-138.293 6.9-111.418-.036-116.296-.114-123.5-1.975zm248.5-4.308c20.01-5.946 35.628-18.791 43.95-36.145 6.925-14.443 6.552-4.158 6.533-180.197-.015-135.553-.232-159.828-1.482-165.803-3.923-18.746-17.596-36.016-35.523-44.865-16.174-7.984-9.19-7.598-137.78-7.617C50.637 4.888 57.727 4.5 41.5 12.454 21.305 22.354 8.186 40.336 5.035 62.44c-.818 5.735-1.043 51.967-.809 165.95.358 174.184-.15 160.583 6.543 174.769 9.201 19.497 28.655 33.884 50.994 37.712 2.606.447 56.712.73 120.237.63 107.594-.17 115.91-.304 121.5-1.966zM127.299 395.29c-4.357-2.18-5.881-4.828-8.387-14.573-1.178-4.58-2.264-8.462-2.414-8.63-.15-.166-3.983.45-8.518 1.368C91.162 376.862 81 371.732 81 359.833c0-3.53.261-4.057 1.73-3.493 3.783 1.452 18.139 2.652 24.342 2.036l6.572-.653-2.8-14.166c-2.843-14.384-3.588-24.089-1.928-25.115 1.547-.956 5.891 1.225 7.584 3.807.882 1.347 2.972 9.13 4.644 17.295 1.672 8.165 3.408 15.233 3.858 15.706.873.918 17.2-2.975 25.502-6.082l4.996-1.87-.356-7.454c-.195-4.1-.493-7.602-.662-7.783-.168-.18-2.787.454-5.82 1.41-5.673 1.788-6.6 2.96-6.664 8.42-.075 6.525-3.69 6.103-6.864-.801-6.896-15.005-10.305-47.885-5.466-52.725.964-.964 3.592-1.403 8.142-1.36 8.567.08 14.907-1.594 35.786-9.45 28.831-10.846 35.945-12.963 41.7-12.41 3.944.379 5.613 1.1 7.431 3.215 3.187 3.704 2.35 5.866-4.852 12.53-5.559 5.145-6.04 5.953-7.435 12.5-.821 3.85-1.772 14.464-2.113 23.587l-.62 16.587 14.896-.078c16.967-.09 24.434 1.504 38.879 8.295 10.784 5.07 15.52 10.217 15.514 16.862-.005 6.118-2.349 9.917-9.7 15.724-17.557 13.868-40.67 23.32-54.306 22.21-11.703-.953-37.79-8.524-49.111-14.252l-4.622-2.338-3.323 2.452c-2.19 1.615-4.653 2.451-7.224 2.451-5.3 0-9.142 2.505-11.358 7.406-2.14 4.73-4.924 5.56-10.053 2.993zm18.775-21.649l9.895-5.25.016-4.718c.01-3.34-.35-4.595-1.235-4.293-.687.234-6.985 2.267-13.994 4.52l-12.745 4.093 2.116 4.2c2.542 5.045 3.797 6.698 5.085 6.698.532 0 5.42-2.362 10.862-5.25zm50.582 4.236c12.884-2.091 31.756-9.897 38.728-16.018 3.971-3.487 7.948-10.938 7.066-13.237-1.293-3.369-6.003-4.142-17.31-2.841-16.256 1.87-15.14 1.208-15.14 8.986 0 5.476-.45 7.321-2.529 10.381-1.39 2.047-3.843 4.401-5.45 5.232-4.934 2.552-7.504 1.934-11.382-2.735l-3.527-4.246-6.962 2.37c-4.276 1.456-9.218 4.156-12.806 6.997l-5.844 4.625 9 .561c15.498.966 19.816.954 26.156-.075zm-20.83-16.569c5.486-1.97 10.92-4.463 12.074-5.539 2.278-2.122 2.878-5.386.85-4.62-.688.26-5.975 1.483-11.75 2.718-5.775 1.235-10.783 2.533-11.129 2.885-1.15 1.17-1.999 8.14-.991 8.14.533 0 5.459-1.613 10.946-3.584zm2.452-20.592l11.778-3.207-.66-6.059c-.364-3.332-.714-6.123-.779-6.201-.223-.272-20.035 2.64-21.822 3.207-1.515.48-1.795 1.73-1.795 8.003 0 4.087.337 7.44.75 7.448.412.009 6.05-1.427 12.528-3.191zM151 325.893c2.379-.64 2.497-1.02 2.437-7.818-.035-3.93-.299-7.38-.588-7.669-.624-.624-6.816 1.357-8.599 2.752-.785.613-1.25 3.544-1.25 7.874v6.896l2.75-.681c1.512-.375 3.875-.984 5.25-1.354zm25-7.657c3.575-.834 7.91-1.29 9.632-1.013 2.955.475 3.167.295 3.74-3.165.333-2.017.61-5.3.617-7.295l.011-3.627-4.25.356c-17.835 1.496-17.542 1.435-18.126 3.76-.307 1.222-.868 4.866-1.248 8.097-.647 5.507-.571 5.83 1.217 5.14 1.049-.405 4.832-1.419 8.407-2.253zm-27.25-13.283l4.25-1.14v-5.402c0-2.972-.47-5.694-1.046-6.05-.575-.355-3.19-.35-5.812.01l-4.766.655.739 5.182c.406 2.85.772 5.996.812 6.991.04.995.41 1.603.823 1.352.412-.252 2.662-.971 5-1.598zm33.443-7.741l8.693-.561.678-5.426c.373-2.985.48-5.624.24-5.865-.242-.24-5.358.465-11.371 1.568-17.136 3.145-15.412 2.193-13.653 7.536 1.391 4.226 1.729 4.55 4.118 3.955 1.43-.356 6.514-.9 11.295-1.207zm-70.56-15.354c-16.781-1.907-23.053-5.518-22.432-12.915l.299-3.553 29.5-.678c16.225-.373 31.466-.97 33.868-1.329l4.368-.65-.592-3.65c-.417-2.568-1.712-4.6-4.368-6.857l-3.776-3.207 8.655-8.814c4.761-4.848 10.31-11.439 12.333-14.645 3.523-5.588 3.755-5.76 5.557-4.13 5.462 4.944 5.067 14.953-.935 23.651-4.127 5.98-4.578 7.462-3.5 11.484l.584 2.174 5.956-2.143c6.68-2.403 8.571-4.676 11.87-14.261 3.337-9.702 1.97-19.704-3.729-27.267l-2.503-3.323 2.268-2.415c3.567-3.796 16.565-12.44 18.707-12.44 5.606 0 14.16 10.357 14.215 17.213.051 6.325-6.216 17.74-16.97 30.91-2.627 3.217-3 4.077-1.5 3.47 11.415-4.629 43.653-15.763 49.64-17.145 6.614-1.527 8.275-1.59 12.297-.463 6.628 1.856 9.555 4.438 9.555 8.433 0 7.61-9.105 10.643-37.5 12.495-19.163 1.25-25.526 3.097-56.75 16.47-13.359 5.721-26.755 11.164-29.77 12.094-6.554 2.023-24.142 2.765-35.347 1.491zM240.4 185.042c-5.29-3.863-30.349-29.741-39.822-41.123-7.65-9.191-8.548-11.389-5.452-13.338 4.978-3.135 48.744 20.85 59.665 32.699 4.933 5.351 5.543 9.873 2.103 15.61-5.656 9.435-9.854 11.001-16.494 6.152zm-152.9 1.193c-1.1-.232-3.013-.639-4.25-.903-2.92-.623-2.895-3.246.04-4.362 1.26-.48 6.548-1.56 11.75-2.402 9.566-1.548 29.388-8.872 38.765-14.324 5.08-2.953 6.919-6.133 5.298-9.162-1.576-2.944-1.362-9.791.414-13.225 2.3-4.45 6.754-6.31 13.61-5.689 15.121 1.371 31.498 15.046 29.41 24.557-1.875 8.533-18.026 16.076-46.124 21.54-18.098 3.52-41.904 5.452-48.913 3.97zm21.813-57.38c-2.853-1.132-6.545-3.604-8.204-5.494-2.699-3.073-2.905-3.757-1.958-6.474 1.6-4.587 3.87-5.308 14.27-4.528 12.207.915 26.389-1.07 46.921-6.567 3.505-.938 3.785-1.261 3.18-3.673-.366-1.454-3.385-5.813-6.71-9.687-11.074-12.902-12.436-20.51-5.532-30.908 4.718-7.107 10.71-10.252 16.54-8.682 4.38 1.18 16.632 11.808 20.125 17.459 4.349 7.036 2.005 14.294-8.108 25.104l-6.155 6.58 7.909-2.948c4.35-1.62 13.984-5.298 21.409-8.172 18.615-7.203 21.858-7.376 38.22-2.038 14.688 4.791 27.434 10.871 31.668 15.105 5.119 5.119 5.93 16.187 1.542 21.035-.961 1.063-3.568 2.422-5.793 3.02-5.501 1.482-12.724-.39-30.983-8.033-16.709-6.993-24.427-9.034-34.154-9.034-9.525 0-16.055 1.656-44 11.163-23.152 7.875-24.371 8.176-34.5 8.496-8.774.278-11.352-.006-15.687-1.725z" fill="#7b7b7b"/><path d="M59.5 444.427c-28.274-5.295-49.544-24.47-57.169-51.537C.591 386.711.5 378.343.5 223.39c0-181.933-.54-167.766 6.972-183C14.621 25.892 25.042 15.786 40.5 8.362 56.74.562 50.653.89 179.392.89c97.24 0 115.537.223 121.514 1.48 28.529 6.002 50.986 28.436 56.01 55.954.749 4.099 1.084 55.053 1.084 164.792 0 141-.178 159.72-1.583 166.52-4.334 20.986-18.344 38.817-37.917 48.259-16.555 7.986-6.093 7.399-136 7.633-92.16.167-117.439-.06-123-1.101zm242.734-4.469c19.578-5.007 37.215-19.212 45.401-36.568 7.374-15.633 6.794-1.471 7.127-173.975.184-95.84-.073-158.297-.674-163.682-3.17-28.393-22.765-50.99-51.588-59.492-5.554-1.638-14.392-1.793-118.869-2.093C60.364 3.795 60.327 3.796 46.7 9.504c-20.093 8.416-35.587 25.9-40.713 45.942C4.046 63.034 4 66.844 4.015 223.3c.016 177.186-.387 166.085 6.539 180.122 8.827 17.893 26.127 31.733 45.669 36.533 6.767 1.663 15.381 1.793 122.867 1.862 111.09.07 115.884-.002 123.144-1.859zM127.299 395.29c-4.357-2.18-5.881-4.828-8.387-14.573-1.178-4.58-2.264-8.462-2.414-8.63-.15-.166-3.983.45-8.518 1.368C91.162 376.862 81 371.732 81 359.833c0-3.53.261-4.057 1.73-3.493 3.783 1.452 18.139 2.652 24.342 2.036l6.572-.653-2.8-14.166c-2.843-14.384-3.588-24.089-1.928-25.115 1.547-.956 5.891 1.225 7.584 3.807.882 1.347 2.972 9.13 4.644 17.295 1.672 8.165 3.408 15.233 3.858 15.706.873.918 17.2-2.975 25.502-6.082l4.996-1.87-.356-7.454c-.195-4.1-.493-7.602-.662-7.783-.168-.18-2.787.454-5.82 1.41-5.673 1.788-6.6 2.96-6.664 8.42-.075 6.525-3.69 6.103-6.864-.801-6.896-15.005-10.305-47.885-5.466-52.725.964-.964 3.592-1.403 8.142-1.36 8.567.08 14.907-1.594 35.786-9.45 28.831-10.846 35.945-12.963 41.7-12.41 3.944.379 5.613 1.1 7.431 3.215 3.187 3.704 2.35 5.866-4.852 12.53-5.559 5.145-6.04 5.953-7.435 12.5-.821 3.85-1.772 14.464-2.113 23.587l-.62 16.587 14.896-.078c16.967-.09 24.434 1.504 38.879 8.295 10.784 5.07 15.52 10.217 15.514 16.862-.005 6.118-2.349 9.917-9.7 15.724-17.557 13.868-40.67 23.32-54.306 22.21-11.703-.953-37.79-8.524-49.111-14.252l-4.622-2.338-3.323 2.452c-2.19 1.615-4.653 2.451-7.224 2.451-5.3 0-9.142 2.505-11.358 7.406-2.14 4.73-4.924 5.56-10.053 2.993zm18.775-21.649l9.895-5.25.016-4.718c.01-3.34-.35-4.595-1.235-4.293-.687.234-6.985 2.267-13.994 4.52l-12.745 4.093 2.116 4.2c2.542 5.045 3.797 6.698 5.085 6.698.532 0 5.42-2.362 10.862-5.25zm50.582 4.236c12.884-2.091 31.756-9.897 38.728-16.018 3.971-3.487 7.948-10.938 7.066-13.237-1.293-3.369-6.003-4.142-17.31-2.841-16.256 1.87-15.14 1.208-15.14 8.986 0 5.476-.45 7.321-2.529 10.381-1.39 2.047-3.843 4.401-5.45 5.232-4.934 2.552-7.504 1.934-11.382-2.735l-3.527-4.246-6.962 2.37c-4.276 1.456-9.218 4.156-12.806 6.997l-5.844 4.625 9 .561c15.498.966 19.816.954 26.156-.075zm-20.83-16.569c5.486-1.97 10.92-4.463 12.074-5.539 2.278-2.122 2.878-5.386.85-4.62-.688.26-5.975 1.483-11.75 2.718-5.775 1.235-10.783 2.533-11.129 2.885-1.15 1.17-1.999 8.14-.991 8.14.533 0 5.459-1.613 10.946-3.584zm2.452-20.592l11.778-3.207-.66-6.059c-.364-3.332-.714-6.123-.779-6.201-.223-.272-20.035 2.64-21.822 3.207-1.515.48-1.795 1.73-1.795 8.003 0 4.087.337 7.44.75 7.448.412.009 6.05-1.427 12.528-3.191zM151 325.893c2.379-.64 2.497-1.02 2.437-7.818-.035-3.93-.299-7.38-.588-7.669-.624-.624-6.816 1.357-8.599 2.752-.785.613-1.25 3.544-1.25 7.874v6.896l2.75-.681c1.512-.375 3.875-.984 5.25-1.354zm25-7.657c3.575-.834 7.91-1.29 9.632-1.013 2.955.475 3.167.295 3.74-3.165.333-2.017.61-5.3.617-7.295l.011-3.627-4.25.356c-17.835 1.496-17.542 1.435-18.126 3.76-.307 1.222-.868 4.866-1.248 8.097-.647 5.507-.571 5.83 1.217 5.14 1.049-.405 4.832-1.419 8.407-2.253zm-27.25-13.283l4.25-1.14v-5.402c0-2.972-.47-5.694-1.046-6.05-.575-.355-3.19-.35-5.812.01l-4.766.655.739 5.182c.406 2.85.772 5.996.812 6.991.04.995.41 1.603.823 1.352.412-.252 2.662-.971 5-1.598zm33.443-7.741l8.693-.561.678-5.426c.373-2.985.48-5.624.24-5.865-.242-.24-5.358.465-11.371 1.568-17.136 3.145-15.412 2.193-13.653 7.536 1.391 4.226 1.729 4.55 4.118 3.955 1.43-.356 6.514-.9 11.295-1.207zm-70.56-15.354c-16.781-1.907-23.053-5.518-22.432-12.915l.299-3.553 29.5-.678c16.225-.373 31.466-.97 33.868-1.329l4.368-.65-.592-3.65c-.417-2.568-1.712-4.6-4.368-6.857l-3.776-3.207 8.655-8.814c4.761-4.848 10.31-11.439 12.333-14.645 3.523-5.588 3.755-5.76 5.557-4.13 5.462 4.944 5.067 14.953-.935 23.651-4.127 5.98-4.578 7.462-3.5 11.484l.584 2.174 5.956-2.143c6.68-2.403 8.571-4.676 11.87-14.261 3.337-9.702 1.97-19.704-3.729-27.267l-2.503-3.323 2.268-2.415c3.567-3.796 16.565-12.44 18.707-12.44 5.606 0 14.16 10.357 14.215 17.213.051 6.325-6.216 17.74-16.97 30.91-2.627 3.217-3 4.077-1.5 3.47 11.415-4.629 43.653-15.763 49.64-17.145 6.614-1.527 8.275-1.59 12.297-.463 6.628 1.856 9.555 4.438 9.555 8.433 0 7.61-9.105 10.643-37.5 12.495-19.163 1.25-25.526 3.097-56.75 16.47-13.359 5.721-26.755 11.164-29.77 12.094-6.554 2.023-24.142 2.765-35.347 1.491zM242.5 186.244c-5.681-2.965-37.273-35.68-46.926-48.594-5.24-7.01-1.17-8.644 10.255-4.117 11.367 4.503 22.07 10.25 34.106 18.314C253.407 160.872 259 166.47 259 170.927c0 6.338-7.51 17.032-11.885 16.923-.888-.022-2.965-.744-4.615-1.606zm-159.75-1.043c-2.058-.538-2.245-1.676-.5-3.05 1.581-1.246 4.615-1.965 13.753-3.261 10.141-1.439 36.031-12.182 41.218-17.104l3.799-3.605-1.613-3.86c-1.843-4.41-1.425-10.229 1-13.93 5.892-8.992 31.706-1.695 39.192 11.077 2.788 4.758 3.091 9.992.771 13.304-5.517 7.877-33.517 16.847-62.58 20.048-9.505 1.047-31.572 1.287-35.04.38zM112 129.287c-10.155-2.717-15.514-9.584-11.624-14.897 1.357-1.853 2.415-1.976 14.386-1.676 13.757.344 24.865-1.066 40.32-5.117 10.954-2.872 11.173-3.932 2.866-13.85-7.955-9.497-10.234-14.03-10.234-20.357 0-7.77 5.701-17.187 11.813-19.51 6.778-2.577 12.246-.357 21.804 8.855C186.77 67.976 190 73.49 190 77.535c0 4.402-3.864 11.136-10.398 18.123-7.128 7.622-8.237 7.743 16.398-1.793 25.985-10.058 28.038-10.278 45-4.82 20.148 6.484 32.08 13.089 34.48 19.086 3.081 7.702 1.276 16.182-3.952 18.564-6.474 2.95-15.691.723-41.804-10.102-13.784-5.714-23.65-7.382-33.876-5.728-4.041.653-17.923 4.74-30.848 9.08-34.18 11.478-40.712 12.63-53 9.342z" fill="#a55357"/><path d="M59.5 444.427c-28.274-5.295-49.544-24.47-57.169-51.537C.591 386.711.5 378.343.5 223.39c0-181.933-.54-167.766 6.972-183C14.621 25.892 25.042 15.786 40.5 8.362 56.74.562 50.653.89 179.392.89c97.24 0 115.537.223 121.514 1.48 28.529 6.002 50.986 28.436 56.01 55.954.749 4.099 1.084 55.053 1.084 164.792 0 141-.178 159.72-1.583 166.52-4.334 20.986-18.344 38.817-37.917 48.259-16.555 7.986-6.093 7.399-136 7.633-92.16.167-117.439-.06-123-1.101zm242.734-4.469c19.578-5.007 37.215-19.212 45.401-36.568 7.374-15.633 6.794-1.471 7.127-173.975.184-95.84-.073-158.297-.674-163.682-3.17-28.393-22.765-50.99-51.588-59.492-5.554-1.638-14.392-1.793-118.869-2.093C60.364 3.795 60.327 3.796 46.7 9.504c-20.093 8.416-35.587 25.9-40.713 45.942C4.046 63.034 4 66.844 4.015 223.3c.016 177.186-.387 166.085 6.539 180.122 8.827 17.893 26.127 31.733 45.669 36.533 6.767 1.663 15.381 1.793 122.867 1.862 111.09.07 115.884-.002 123.144-1.859zm-174.163-44.82c-4.886-2.49-6.754-5.581-9.257-15.314l-2.202-8.566-7.556 1.808c-9.505 2.275-13.515 2.26-18.556-.066-6.057-2.796-8.709-6.23-9.263-11.998l-.476-4.953 4.37 1.07c4.397 1.076 27.294 1.703 28.174.771.26-.275-.585-5.45-1.878-11.5-2.806-13.135-4.01-24.64-2.803-26.782.768-1.362 1.282-1.382 4.163-.168 4.19 1.765 5.184 4.288 8.75 22.2 2.204 11.072 3.185 14.246 4.4 14.233 2.103-.023 13.892-3.14 22.836-6.036l7.273-2.355-.658-7.546c-.361-4.15-.844-7.756-1.073-8.013-.641-.72-10.72 3.066-11.55 4.339-.404.62-.741 2.505-.75 4.187-.008 1.682-.613 3.877-1.344 4.876-1.254 1.715-1.45 1.662-3.502-.947-7.039-8.948-12.615-47.58-7.905-54.768 1.572-2.399 2.26-2.606 8.473-2.56 8.836.067 15.42-1.734 40.748-11.144 32.351-12.02 36.057-12.812 42.265-9.027 5.2 3.171 4.529 6.544-2.62 13.15-5.51 5.093-5.975 5.884-7.578 12.893-1.038 4.54-1.934 14.077-2.286 24.325l-.578 16.857 10.533-.718c12.774-.87 21.562.42 34.697 5.093 17.349 6.173 24.552 12.757 23.777 21.735-.36 4.17-1.078 5.5-5.305 9.818-12.368 12.632-41.646 26.875-55.192 26.85-9.828-.02-36.729-7.465-50.533-13.987l-6.63-3.133-3.362 2.564c-2.21 1.686-4.63 2.564-7.067 2.564-5.311 0-9.345 2.44-11.141 6.739-2.377 5.689-3.96 6.28-9.394 3.51zM156 363.77c0-3.403-.367-4.697-1.25-4.41-.688.223-6.65 2.05-13.25 4.059-6.6 2.009-12.38 4.014-12.843 4.455-.895.852.227 3.506 3.683 8.71l2.12 3.194 10.77-5.596 10.77-5.596v-4.816zm51.5 11.624c17.98-5.211 29.958-12.626 33.936-21.009 2.178-4.59.995-8.097-3.078-9.119-2.48-.622-22.5 1.075-26.608 2.257-1.416.407-1.75 1.646-1.75 6.485 0 6.946-1.503 10.362-6.484 14.735-5.086 4.465-8.488 4.234-12.516-.852-1.742-2.2-4.04-4-5.104-4-5.1 0-23.896 10.356-23.896 13.165 0 .987 13.881 1.645 26.5 1.255 7.064-.218 12.642-1.074 19-2.917zm-32.935-13.47c11.062-3.904 14.156-5.58 14.955-8.097.365-1.148.487-2.262.272-2.477-.528-.528-23.114 4.543-23.964 5.38-.37.363-.982 2.349-1.361 4.411-.847 4.604-.749 4.612 10.098.784zm15.1-24.364c.186-.187.055-3.052-.291-6.367l-.63-6.027-4.622.496c-2.542.273-7.772 1.011-11.622 1.64l-7 1.145-.288 8.065-.288 8.064 12.2-3.338c6.711-1.837 12.354-3.492 12.54-3.678zm-39.292-11.25l3.873-.688-.474-7.383c-.26-4.06-.756-7.665-1.1-8.01-.345-.345-2.662.15-5.15 1.1L143 313.057v7.484c0 6.658.193 7.428 1.75 6.97.962-.282 3.493-.823 5.623-1.2zM176 318.236c3.575-.834 7.91-1.29 9.632-1.013 2.955.475 3.167.295 3.74-3.165.333-2.017.61-5.28.617-7.25l.011-3.582-5.75.363c-3.163.2-8.07.601-10.907.892-5.776.593-5.756.561-6.967 10.868-.647 5.507-.571 5.83 1.217 5.14 1.049-.405 4.832-1.419 8.407-2.253zm-23.25-14.335c.137-.006.25-2.5.25-5.542 0-6.413-.771-7.03-7.516-6.019-3.948.592-4.437.939-4.042 2.862.247 1.203.722 4.297 1.055 6.875l.607 4.686 4.698-1.425c2.584-.785 4.81-1.431 4.948-1.437zm29.398-6.687l8.649-.559.601-3.007c.832-4.157.754-8.758-.148-8.755-.821.003-20.416 3.686-23.938 4.5-2.147.495-2.159.59-.625 5.093 1.437 4.216 1.778 4.536 4.189 3.938 1.443-.359 6.516-.903 11.272-1.21zM115.5 282.277c-8.545-.865-17.144-2.6-20.294-4.094-3.816-1.81-6.461-6.255-6.016-10.11l.31-2.683 30-.675c34.524-.777 38.82-1.188 38.093-3.643a98.594 98.594 0 0 1-1.095-4.196c-.328-1.383-2.147-3.577-4.042-4.875l-3.445-2.361 8.38-8.807c4.61-4.844 10.043-11.542 12.074-14.885 2.03-3.343 4.113-5.818 4.628-5.5 1.965 1.214 4.907 8.527 4.907 12.197 0 2.654-1.064 5.512-3.459 9.29-5.492 8.663-5.838 9.557-5.14 13.28l.652 3.477 6.41-2.084 6.41-2.084 3.162-6.861c5.459-11.843 5.095-22.445-1.105-32.222l-2.8-4.416 4.185-3.409c2.302-1.875 6.764-5.113 9.916-7.196 5.246-3.468 5.977-3.686 8.636-2.585 6.372 2.64 12.134 10.605 12.132 16.773-.002 5.697-8.8 20.944-17.324 30.017-1.67 1.78-2.807 3.466-2.524 3.75.282.282 7.083-1.929 15.111-4.913 35.963-13.368 44.224-15.062 52.472-10.757 4.187 2.185 5.838 5.016 5.105 8.75-1.034 5.26-14.383 8.951-37.339 10.324-19.458 1.163-26.003 3.042-57 16.367-30.427 13.08-32.956 13.862-46 14.228-6.05.17-12.8.126-15-.097zm127-96.033c-5.681-2.965-37.273-35.68-46.926-48.594-5.24-7.01-1.17-8.644 10.255-4.117 11.367 4.503 22.07 10.25 34.106 18.314C253.407 160.872 259 166.47 259 170.927c0 6.338-7.51 17.032-11.885 16.923-.888-.022-2.965-.744-4.615-1.606zm-159.75-1.043c-2.058-.538-2.245-1.676-.5-3.05 1.581-1.246 4.615-1.965 13.753-3.261 10.141-1.439 36.031-12.182 41.218-17.104l3.799-3.605-1.613-3.86c-1.843-4.41-1.425-10.229 1-13.93 5.892-8.992 31.706-1.695 39.192 11.077 2.788 4.758 3.091 9.992.771 13.304-5.517 7.877-33.517 16.847-62.58 20.048-9.505 1.047-31.572 1.287-35.04.38zM112 129.287c-10.155-2.717-15.514-9.584-11.624-14.897 1.357-1.853 2.415-1.976 14.386-1.676 13.757.344 24.865-1.066 40.32-5.117 10.954-2.872 11.173-3.932 2.866-13.85-7.955-9.497-10.234-14.03-10.234-20.357 0-7.77 5.701-17.187 11.813-19.51 6.778-2.577 12.246-.357 21.804 8.855C186.77 67.976 190 73.49 190 77.535c0 4.402-3.864 11.136-10.398 18.123-7.128 7.622-8.237 7.743 16.398-1.793 25.985-10.058 28.038-10.278 45-4.82 20.148 6.484 32.08 13.089 34.48 19.086 3.081 7.702 1.276 16.182-3.952 18.564-6.474 2.95-15.691.723-41.804-10.102-13.784-5.714-23.65-7.382-33.876-5.728-4.041.653-17.923 4.74-30.848 9.08-34.18 11.478-40.712 12.63-53 9.342z" fill="#871a1f"/><path d="M61.83 444.881c-23.678-4.067-43.776-18.394-53.743-38.312C-.132 390.144.5 405.442.5 222.89.5 39.846-.18 55.87 8.279 39.39c3.062-5.966 6.282-10.184 12.663-16.59C30.35 13.356 37.772 8.687 50.5 4.206l8-2.816h240l7.5 2.342c20.949 6.541 36.906 20.083 45.573 38.674 6.825 14.64 6.515 5.403 6.206 184.484l-.279 161.5-2.932 8.401c-6.108 17.499-19.384 32.49-35.98 40.63-17.456 8.562-6.566 7.916-136.588 8.1-63.525.089-117.601-.199-120.17-.64zm246.071-6.423c21.793-7.607 38.764-25.623 44.809-47.568 1.686-6.121 1.79-15.871 1.79-167.5 0-151.397-.106-161.388-1.784-167.5-5.547-20.215-17.803-35.13-36.216-44.072-16.346-7.94-6.88-7.428-137.5-7.428H62.5l-7.955 2.303c-22.582 6.538-38.628 21.12-46.943 42.662L4.5 57.39l-.28 162.5c-.313 182.134-.787 169.635 7.04 185.287 8.084 16.164 25.37 29.809 43.97 34.708 6.989 1.841 11.857 1.907 125.77 1.71l118.5-.205 8.401-2.932zM243.014 186.3c-5.434-2.357-41.94-40.496-48.446-50.616-3.892-6.052 1.148-6.3 14.31-.702 11.352 4.826 17.445 8.165 29.622 16.232 16.198 10.73 20.514 15.128 20.49 20.877-.012 2.998-5.32 12.216-8.192 14.228-2.722 1.907-3.347 1.905-7.784-.019zM83.07 184.862c-4.2-1.798-.501-3.744 10.43-5.486 13.214-2.106 37.556-11.569 43.342-16.849 3.804-3.471 4.277-5.092 2.516-8.621-3.273-6.562.12-14.699 7.09-16.999 6.595-2.176 20.771 2.573 28.487 9.543C180 151.026 182 154.645 182 159.235c0 9.487-18.11 17.775-52 23.795-13.239 2.351-43.004 3.514-46.93 1.832zm29.88-55.334c-11.837-3.192-17.457-10.734-11.495-15.424 2.205-1.734 3.67-1.881 14.34-1.442 12.667.522 18.474-.186 36.955-4.502 10.863-2.537 11.25-2.72 11.25-5.293 0-1.777-1.7-4.608-5.1-8.493-10.379-11.861-12.858-17.982-10.482-25.877 2.706-8.994 9.787-15.596 16.733-15.603 7.1-.007 22.942 14.646 24.435 22.602.946 5.046-1.861 10.572-9.48 18.656-3.516 3.732-6.125 7.052-5.799 7.378.326.327 6.128-1.531 12.893-4.128 27.791-10.67 31.116-11.717 37.3-11.741 11.219-.045 43.216 12.538 48.82 19.198 2.815 3.346 4.265 10.09 3.206 14.912-.37 1.686-2.088 4.256-3.817 5.71-4.787 4.029-12.896 3.136-27.775-3.055-24.02-9.995-30.476-11.87-40.934-11.89-10.957-.022-20.199 2.232-42.656 10.402-25.826 9.396-37.634 11.492-48.393 8.59z"/></svg>