<svg xmlns="http://www.w3.org/2000/svg" width="358.789" height="445.793"><path d="M56.32 444.367c-21.733-4.728-40.219-19.52-50.052-40.05-6.741-14.073-6.416-4.273-6.12-184.235l.268-162.73 2.816-8C9.478 31.607 22.52 16.667 38.942 8.446 56.025-.105 48.052.352 179.916.352c130.84 0 121.776-.492 138.5 7.525 18.794 9.01 32.785 25.83 38.24 45.975 1.646 6.08 1.76 17.031 1.76 169.5 0 155.184-.088 163.311-1.838 169.483-7.27 25.649-26.604 44.226-53.072 50.994-7.727 1.977-10.607 2.022-124.5 1.944-92.875-.063-117.83-.35-122.685-1.406zm248.096-5.38c20.259-6.843 34.766-18.874 42.866-35.548 7.07-14.554 6.634-2.713 6.634-180.24 0-156.09-.05-160.217-1.975-167.75-4.875-19.06-17.876-34.564-36.525-43.558-15.256-7.357-9.111-7.04-136.197-7.021-127.993.02-121.07-.364-137.303 7.598-12.513 6.137-24.61 17.904-30.21 29.384-7.897 16.194-7.29 1.137-7.29 181 0 131.141.246 161.506 1.346 166 .74 3.025 3.357 9.7 5.814 14.835 9.157 19.136 28.534 33.338 50.578 37.069 2.903.492 56.808.825 120.262.744l115-.148 7-2.364zm-99.873-43.103c-15.443-3.327-38.525-11.043-43.149-14.424-1.667-1.219-2.302-1.04-5.54 1.562-2.771 2.227-4.276 2.784-6.213 2.298-4.297-1.079-9.647 2.185-11.795 7.197-1.655 3.859-2.22 4.335-5.144 4.332-7.552-.01-12.166-5.753-14.858-18.497-.697-3.3-1.307-6.078-1.356-6.175-.049-.096-2.785.46-6.08 1.235-17.67 4.156-29.492-.957-29.492-12.753 0-4.992.026-5.034 2.75-4.376 4.554 1.1 29.25 1.902 29.246.95 0-.484-1.116-6.506-2.476-13.38-1.36-6.876-2.484-15.538-2.497-19.25-.022-6.5.068-6.75 2.421-6.75 1.345 0 3.59 1.012 4.989 2.25 2.68 2.368 3.621 5.452 7.598 24.87l2.175 10.62 4.147-.902c2.28-.496 8.984-2.31 14.897-4.032l10.75-3.129v-7.839c0-4.311-.185-7.839-.411-7.839-.226 0-2.872.942-5.88 2.093-5.345 2.046-5.481 2.196-5.976 6.587-.909 8.061-4.478 8.413-7.856.775-4.684-10.59-7.118-23.233-7.25-37.666-.16-17.19-.124-17.242 11.659-17.397 9.035-.12 14.61-1.743 45.714-13.317 20.231-7.527 27.004-9.352 31.549-8.5 6.617 1.242 9.835 5.655 7.865 10.788-.322.84-2.993 3.384-5.936 5.654-5.048 3.895-5.447 4.534-7.05 11.306-1.09 4.606-1.872 13.267-2.183 24.177l-.483 17 15.869.041c14.685.038 16.503.252 24.369 2.868 23.38 7.775 32.328 16.707 28.04 27.986-3.205 8.43-27.177 24.048-46.703 30.426-9.461 3.091-15.634 3.382-25.71 1.21zm-49.392-28.396c.404-.624.741-2.628.75-4.453.012-2.689-.317-3.222-1.735-2.812-10.396 3-25.25 7.845-25.25 8.235 0 .998 3.287 6.947 4.78 8.649 1.449 1.652 2.093 1.458 11.129-3.364 5.275-2.815 9.922-5.63 10.326-6.255zm53.765 6.916c8.996-2.95 20.421-8.331 25.278-11.905 3.401-2.503 7.722-9.42 7.722-12.362 0-3.945-2.317-4.632-13.283-3.936-5.62.357-11.905.933-13.967 1.28l-3.75.633v5.919c0 6.549-1.404 10.007-5.66 13.947-6.473 5.99-10.409 6.093-14.762.386-1.79-2.347-3.5-3.514-5.15-3.514-3.384 0-14.182 5.041-18.34 8.562l-3.413 2.89 2.413.724c1.326.399 9.612.599 18.412.444 14.368-.252 16.867-.565 24.5-3.068zm-22.907-17.601c2.384-1.276 4.474-4.95 2.816-4.95-.638 0-6.279 1.205-12.535 2.678l-11.374 2.679v7.462l9.616-3.436c5.289-1.89 10.453-3.886 11.477-4.433zm-1.317-18.216c3.767-.827 5.125-1.55 4.75-2.528-.29-.754-.526-3.416-.526-5.917v-4.547l-5.25.67c-2.888.368-8.063 1.147-11.5 1.731l-6.25 1.062V343.71l6.75-1.983c3.712-1.091 9.124-2.505 12.026-3.141zm-32.405-13.415c1.602-.455 1.782-1.186 1.25-5.065-.341-2.494-.621-5.8-.621-7.346v-2.813l-4.5 1.668-4.5 1.668v13.727l3.25-.654c1.787-.36 4.092-.893 5.121-1.185zm20.629-6.82c3.025-.812 7.798-1.481 10.608-1.488l5.107-.012.644-6.164c.355-3.391.45-6.36.211-6.599-.634-.633-19.112.862-20.387 1.65-.986.61-2.972 14.129-2.071 14.101.213-.007 2.863-.676 5.888-1.488zm-22.833-14.132c2.59-.568 2.65-.744 2.111-6.226-.305-3.103-.605-5.675-.666-5.715-.062-.041-2.29.12-4.95.357-4.374.39-4.784.638-4.264 2.574.316 1.178.58 4.107.588 6.509.013 4.05.178 4.32 2.264 3.726a99.989 99.989 0 0 1 4.917-1.225zm26.646-7.41c3.308-.652 7.804-1.013 9.99-.805l3.977.38.635-5.408c.35-2.974.512-5.482.36-5.574-.151-.092-6.034.941-13.073 2.296-10.825 2.083-12.691 2.709-12.108 4.058.379.878.905 2.86 1.17 4.405.299 1.749.963 2.625 1.757 2.32.702-.269 3.983-1.022 7.292-1.673zm-65.313-14.43c-.55-.174-4.301-.86-8.336-1.528-5.605-.926-8.116-1.897-10.64-4.113-3.58-3.142-5.523-9.288-3.56-11.251.735-.735 11.978-1.303 33.597-1.697 19.178-.35 32.896-.996 33.478-1.578 2.008-2.008-.15-7.166-4.162-9.946l-3.895-2.7 8.795-9.107c4.838-5.01 10.51-11.939 12.607-15.4 3.294-5.437 4.023-6.115 5.372-5 2.266 1.876 5.2 8.81 5.2 12.292 0 3.668-3.077 10.667-6.453 14.679-2.738 3.254-3.713 11.482-1.253 10.574.687-.254 3.522-1.208 6.298-2.12 4.533-1.49 5.312-2.196 7.627-6.918 5.995-12.222 5.925-22.435-.218-32.122-1.626-2.564-2.957-4.878-2.957-5.141 0-1.04 6.853-6.698 13.472-11.124l6.973-4.663 4.527 2.515c2.49 1.383 5.798 4.308 7.35 6.5 5.973 8.437 2.737 20.08-9.914 35.663-3.056 3.764-5.41 6.959-5.232 7.1.178.143 8.075-2.598 17.55-6.09 31.375-11.562 39.64-13.185 47.943-9.416 10.049 4.563 7.661 13.532-4.551 17.099-3.82 1.115-14.124 2.31-33.118 3.837-14.379 1.157-21.884 3.5-50.315 15.712-31.521 13.538-34.734 14.433-51.487 14.336-7.534-.043-14.148-.22-14.698-.393zM96.94 158.25c-7.496-2.015-13.862-5.904-14.623-8.934-2.35-9.362 10.966-16.182 26.565-13.606 19.108 3.155 39.213-.552 70.295-12.962 8.206-3.276 18.592-7.017 23.08-8.312 18.102-5.227 38.875-5.865 51.333-1.577 12.185 4.195 21.891 13.335 23.009 21.667.467 3.48.115 4.486-2.68 7.669-2.277 2.595-4.8 4.124-8.646 5.242-6.466 1.88-9.354 1.52-25.849-3.224-26.347-7.576-36.933-6.8-84.894 6.221-35.49 9.636-45.673 11.018-57.59 7.815z" fill="#e0c5c6"/><path d="M56.32 444.367c-21.733-4.728-40.219-19.52-50.052-40.05-6.741-14.073-6.416-4.273-6.12-184.235l.268-162.73 2.816-8C9.478 31.607 22.52 16.667 38.942 8.446 56.025-.105 48.052.352 179.916.352c130.84 0 121.776-.492 138.5 7.525 18.794 9.01 32.785 25.83 38.24 45.975 1.646 6.08 1.76 17.031 1.76 169.5 0 155.184-.088 163.311-1.838 169.483-7.27 25.649-26.604 44.226-53.072 50.994-7.727 1.977-10.607 2.022-124.5 1.944-92.875-.063-117.83-.35-122.685-1.406zm248.096-5.38c20.259-6.843 34.766-18.874 42.866-35.548 7.07-14.554 6.634-2.713 6.634-180.24 0-156.09-.05-160.217-1.975-167.75-4.875-19.06-17.876-34.564-36.525-43.558-15.256-7.357-9.111-7.04-136.197-7.021-127.993.02-121.07-.364-137.303 7.598-12.513 6.137-24.61 17.904-30.21 29.384-7.897 16.194-7.29 1.137-7.29 181 0 131.141.246 161.506 1.346 166 .74 3.025 3.357 9.7 5.814 14.835 9.157 19.136 28.534 33.338 50.578 37.069 2.903.492 56.808.825 120.262.744l115-.148 7-2.364zm-101-43.552c-12.776-2.681-29.823-8.214-38.172-12.39l-5.828-2.914-3.716 2.729c-2.409 1.768-4.549 2.569-6.081 2.276-1.3-.249-4.023.241-6.05 1.088-2.82 1.179-4.144 2.607-5.634 6.084-1.792 4.182-2.233 4.544-5.522 4.544-2.762 0-4.473-.852-7.524-3.75-3.357-3.187-4.278-5.025-6.139-12.25-1.204-4.675-2.284-8.637-2.401-8.806-.116-.168-2.914.394-6.217 1.25-17.097 4.43-29.202-1.085-29.212-13.31 0-4.265.06-4.35 2.746-3.679 1.512.379 8.712.934 16 1.233 11.27.463 13.25.323 13.25-.934 0-.813-1.125-7.002-2.5-13.754-2.847-13.98-3.281-23.763-1.09-24.603 2.244-.862 7.203 2.252 8.452 5.306.63 1.539 2.489 9.28 4.131 17.204 1.643 7.924 3.123 14.543 3.29 14.71.401.4 10.132-2.063 20.967-5.31l8.75-2.622v-7.91c0-8.862.816-8.323-8-5.281-3.175 1.095-3.564 1.652-4.187 5.993-.377 2.633-1.09 5.19-1.582 5.683-5.563 5.562-15.29-27.754-13.996-47.93.433-6.748.797-7.87 3.235-9.967 2.312-1.989 3.422-2.261 7.019-1.722 6.462.969 13.872-.967 38.51-10.06 32.189-11.88 36.27-13.026 41.16-11.561 2.175.652 4.83 2.06 5.898 3.128 3.446 3.445 2.478 6.28-4.135 12.12-5.408 4.774-6.242 6.026-7.557 11.344-.864 3.492-1.72 13.464-2.056 23.978l-.578 18 15.885.002c15.678.001 16.016.049 26.089 3.6 22.29 7.862 31.21 17.429 25.872 27.75-4.497 8.696-27.453 23.501-45.803 29.54-11.003 3.622-14.888 3.792-27.274 1.192zm-58-21.87l10-5.213.307-4.25c.17-2.337-.11-4.25-.622-4.25-1.751 0-26.185 8.073-26.185 8.652 0 1.077 5.314 10.349 5.909 10.31.325-.02 5.09-2.383 10.59-5.25zm65.165.515c20.984-7.128 31.335-15.092 31.335-24.11 0-2.19-.582-3.167-2.188-3.677-2.88-.915-11.015-.692-19.488.533-3.753.543-7.387.996-8.074 1.007-.867.013-1.25 1.967-1.25 6.37 0 5.458-.418 6.926-2.98 10.463-3.11 4.293-5.944 6.507-9.803 7.66-1.84.55-3.151-.197-6.745-3.843l-4.462-4.526-5.255 1.554c-6.453 1.909-7.953 2.67-14.19 7.199-4.76 3.456-4.847 3.609-2.5 4.312 1.34.4 10.085.603 19.435.45 16.017-.263 17.53-.459 26.165-3.392zm-27.01-16.17c3.176-1.37 5.357-2.996 5.682-4.238.606-2.317-.085-2.258-15.587 1.325l-8.75 2.022v7.714l6.75-2.3c3.712-1.265 9.07-3.3 11.905-4.523zm-4.59-17.65l10.567-2.802-.44-5.553c-.242-3.054-.58-5.711-.752-5.905-.343-.388-16.604 1.64-20.19 2.518-2.084.51-2.25 1.104-2.25 8.026 0 5.569.319 7.353 1.25 6.996.687-.263 6.005-1.74 11.816-3.28zm-28.69-14.495l3.874-1.076-.624-4.558c-.344-2.507-.625-5.818-.625-7.358v-2.8l-4.5 1.534-4.5 1.533v6.906c0 7.573.014 7.585 6.375 5.82zm31.375-8.628c6.995-.553 7.25-.665 7.26-3.179.01-1.433.302-4.36.656-6.504l.644-3.898-9.748.715c-5.362.394-10.333.94-11.048 1.214-.733.281-1.591 2.981-1.966 6.183-.367 3.127-.892 6.461-1.167 7.411-.468 1.614-.22 1.626 3.809.179 2.37-.852 7.572-1.806 11.56-2.121zm-33.113-12.424c3.9-.981 4.445-1.43 3.957-3.25-.312-1.16-.573-3.743-.58-5.738l-.014-3.627-4.75.51c-2.613.28-4.83.568-4.927.638-.37.265.974 12.606 1.373 12.606.23 0 2.453-.512 4.941-1.139zm28.176-7.904c3.308-.65 7.854-1.008 10.101-.793 3.563.34 4.087.13 4.097-1.637.01-1.115.28-3.649.607-5.631l.596-3.605-12.857 2.444c-7.071 1.345-12.936 2.52-13.032 2.614-.097.093.337 2.089.963 4.435.683 2.559 1.613 4.085 2.324 3.812.652-.25 3.892-.988 7.2-1.639zm-69.813-15.114c-9.03-1.266-15.048-4.418-17.323-9.074-3.996-8.176-2-8.766 29.713-8.775 11.61-.003 24.87-.298 29.465-.656l8.356-.65-.58-3.572c-.403-2.485-1.716-4.527-4.311-6.706l-3.732-3.133 8.642-8.818c4.753-4.85 10.327-11.701 12.387-15.224l3.746-6.405 1.802 2.335c3.11 4.032 5.127 10.466 4.435 14.154-.351 1.873-2.43 5.962-4.62 9.088-3.012 4.3-3.98 6.644-3.98 9.638 0 2.175.298 3.955.662 3.955.364 0 3.082-.762 6.039-1.695 6.167-1.944 7.892-4.125 11.313-14.305 2.964-8.819 2.384-14.989-2.258-24.036l-3.573-6.965 4.159-3.564c4.398-3.77 13.524-10.062 15.934-10.987.789-.303 3.407.954 5.818 2.793 13.072 9.971 12.055 20.743-3.862 40.872-4.138 5.233-5.797 7.986-4.601 7.636 1.028-.301 8.844-3.13 17.369-6.288 35.347-13.09 43.198-14.107 51.25-6.637 5.142 4.77 2.882 9.86-5.825 13.119-5.577 2.086-13.617 3.199-35.925 4.97-14.825 1.178-22.211 3.501-52.266 16.442-30.463 13.116-32.464 13.673-48.59 13.522-7.229-.068-16.07-.533-19.644-1.034zM96.94 158.249c-7.496-2.014-13.862-5.903-14.623-8.933-2.35-9.362 10.966-16.182 26.565-13.606 19.108 3.155 39.213-.552 70.295-12.962 8.206-3.276 18.592-7.017 23.08-8.312 18.102-5.227 38.875-5.865 51.333-1.577 12.185 4.195 21.891 13.335 23.009 21.667.467 3.48.115 4.486-2.68 7.669-2.277 2.595-4.8 4.124-8.646 5.242-6.466 1.88-9.354 1.52-25.849-3.224-26.347-7.576-36.933-6.8-84.894 6.221-35.49 9.636-45.673 11.018-57.59 7.815z" fill="#bebebe"/><path d="M54.916 443.826c-23.631-6.115-43.65-24.389-51.568-47.072l-2.932-8.402-.281-162c-.312-179.706-.671-169.09 6.236-184C16.836 19.761 38.442 4.227 64.097.85c5.736-.755 43.245-.994 120.819-.769l112.5.326 7.473 2.288c13.505 4.135 22.556 9.571 32.629 19.597 7.398 7.364 9.884 10.651 13.281 17.56 8.248 16.774 7.524.29 7.862 178.921.325 171.41.42 167.78-4.731 181.383-7.074 18.68-24.68 35.076-45.514 42.389l-8 2.807-119 .207c-114.91.2-119.258.14-126.5-1.733zm241-3.039c8.558-1.382 18.82-5.002 25.835-9.114 9.22-5.405 20.173-17.087 24.93-26.59 7.802-15.59 7.33-3.14 7.016-185.23l-.281-162.5-2.883-7.5c-7.737-20.126-23.247-35.038-43.262-41.598l-8.855-2.903h-239l-8 2.725C24.963 17.085 8 37.876 4.868 65.13c-.717 6.234-.957 59.607-.74 164.721.356 173.758-.26 159.378 7.503 174.886 4.455 8.9 15.583 21.12 23.648 25.969 7.508 4.514 16.454 8.033 24.493 9.634 8.575 1.708 225.79 2.119 236.144.446zm-92.5-45.352c-12.776-2.681-29.823-8.214-38.172-12.39l-5.828-2.914-3.716 2.729c-2.409 1.768-4.549 2.569-6.081 2.276-1.3-.249-4.023.241-6.05 1.088-2.82 1.179-4.144 2.607-5.634 6.084-1.792 4.182-2.233 4.544-5.522 4.544-2.762 0-4.473-.852-7.524-3.75-3.357-3.187-4.278-5.025-6.139-12.25-1.204-4.675-2.284-8.637-2.401-8.806-.116-.168-2.914.394-6.217 1.25-17.097 4.43-29.202-1.085-29.212-13.31 0-4.265.06-4.35 2.746-3.679 1.512.379 8.712.934 16 1.233 11.27.463 13.25.323 13.25-.934 0-.813-1.125-7.002-2.5-13.754-2.847-13.98-3.281-23.763-1.09-24.603 2.244-.862 7.203 2.252 8.452 5.306.63 1.539 2.489 9.28 4.131 17.204 1.643 7.924 3.123 14.543 3.29 14.71.401.4 10.132-2.063 20.967-5.31l8.75-2.622v-7.91c0-8.862.816-8.323-8-5.281-3.175 1.095-3.564 1.652-4.187 5.993-.377 2.633-1.09 5.19-1.582 5.683-5.563 5.562-15.29-27.754-13.996-47.93.433-6.748.797-7.87 3.235-9.967 2.312-1.989 3.422-2.261 7.019-1.722 6.462.969 13.872-.967 38.51-10.06 32.189-11.88 36.27-13.026 41.16-11.561 2.175.652 4.83 2.06 5.898 3.128 3.446 3.445 2.478 6.28-4.135 12.12-5.408 4.774-6.242 6.026-7.557 11.344-.864 3.492-1.72 13.464-2.056 23.978l-.578 18 15.885.002c15.678.001 16.016.049 26.089 3.6 22.29 7.862 31.21 17.429 25.872 27.75-4.497 8.696-27.453 23.501-45.803 29.54-11.003 3.622-14.888 3.792-27.274 1.192zm-58-21.87l10-5.213.307-4.25c.17-2.337-.11-4.25-.622-4.25-1.751 0-26.185 8.073-26.185 8.652 0 1.077 5.314 10.349 5.909 10.31.325-.02 5.09-2.383 10.59-5.25zm65.165.515c20.984-7.128 31.335-15.092 31.335-24.11 0-2.19-.582-3.167-2.188-3.677-2.88-.915-11.015-.692-19.488.533-3.753.543-7.387.996-8.074 1.007-.867.013-1.25 1.967-1.25 6.37 0 5.458-.418 6.926-2.98 10.463-3.11 4.293-5.944 6.507-9.803 7.66-1.84.55-3.151-.197-6.745-3.843l-4.462-4.526-5.255 1.554c-6.453 1.909-7.953 2.67-14.19 7.199-4.76 3.456-4.847 3.609-2.5 4.312 1.34.4 10.085.603 19.435.45 16.017-.263 17.53-.459 26.165-3.392zm-27.01-16.17c3.176-1.37 5.357-2.996 5.682-4.238.606-2.317-.085-2.258-15.587 1.325l-8.75 2.022v7.714l6.75-2.3c3.712-1.265 9.07-3.3 11.905-4.523zm-4.59-17.65l10.567-2.802-.44-5.553c-.242-3.054-.58-5.711-.752-5.905-.343-.388-16.604 1.64-20.19 2.518-2.084.51-2.25 1.104-2.25 8.026 0 5.569.319 7.353 1.25 6.996.687-.263 6.005-1.74 11.816-3.28zm-28.69-14.495l3.874-1.076-.624-4.558c-.344-2.507-.625-5.818-.625-7.358v-2.8l-4.5 1.534-4.5 1.533v6.906c0 7.573.014 7.585 6.375 5.82zm31.375-8.628c6.995-.553 7.25-.665 7.26-3.179.01-1.433.302-4.36.656-6.504l.644-3.898-9.748.715c-5.362.394-10.333.94-11.048 1.214-.733.281-1.591 2.981-1.966 6.183-.367 3.127-.892 6.461-1.167 7.411-.468 1.614-.22 1.626 3.809.179 2.37-.852 7.572-1.806 11.56-2.121zm-33.113-12.424c3.9-.981 4.445-1.43 3.957-3.25-.312-1.16-.573-3.743-.58-5.738l-.014-3.627-4.75.51c-2.613.28-4.83.568-4.927.638-.37.265.974 12.606 1.373 12.606.23 0 2.453-.512 4.941-1.139zm28.176-7.904c3.308-.65 7.854-1.008 10.101-.793 3.563.34 4.087.13 4.097-1.637.01-1.115.28-3.649.607-5.631l.596-3.605-12.857 2.444c-7.071 1.345-12.936 2.52-13.032 2.614-.097.093.337 2.089.963 4.435.683 2.559 1.613 4.085 2.324 3.812.652-.25 3.892-.988 7.2-1.639zm-69.813-15.114c-9.03-1.266-15.048-4.418-17.323-9.074-3.996-8.176-2-8.766 29.713-8.775 11.61-.003 24.87-.298 29.465-.656l8.356-.65-.58-3.572c-.403-2.485-1.716-4.527-4.311-6.706l-3.732-3.133 8.642-8.818c4.753-4.85 10.327-11.701 12.387-15.224l3.746-6.405 1.802 2.335c3.11 4.032 5.127 10.466 4.435 14.154-.351 1.873-2.43 5.962-4.62 9.088-3.012 4.3-3.98 6.644-3.98 9.638 0 2.175.298 3.955.662 3.955.364 0 3.082-.762 6.039-1.695 6.167-1.944 7.892-4.125 11.313-14.305 2.964-8.819 2.384-14.989-2.258-24.036l-3.573-6.965 4.159-3.564c4.397-3.77 13.524-10.062 15.934-10.987.789-.303 3.406.954 5.817 2.793 13.073 9.971 12.056 20.743-3.861 40.872-4.138 5.233-5.797 7.986-4.602 7.636 1.029-.301 8.845-3.13 17.37-6.288 35.347-13.09 43.198-14.107 51.25-6.637 5.142 4.77 2.882 9.86-5.825 13.119-5.577 2.086-13.617 3.199-35.925 4.97-14.825 1.178-22.211 3.501-52.266 16.442-30.463 13.116-32.464 13.673-48.59 13.522-7.229-.068-16.07-.533-19.644-1.034zm-7.593-122.873c-5.787-1.148-10.39-3.23-14.157-6.407-4.424-3.73-4.372-7.37.164-11.353 6.334-5.561 11.37-6.295 32.586-4.748 17.078 1.246 33.324-2.37 62.5-13.912 20.97-8.295 33.817-11.534 48.5-12.225 19-.895 32.174 3.615 42.015 14.382 8.148 8.916 7.477 15.973-2.02 21.23-6.3 3.488-13.527 3.161-28.197-1.275-26.797-8.102-38.092-7.287-88.454 6.384-32.798 8.904-41.457 10.2-52.937 7.924z" fill="#c38c8f"/><path d="M54.916 443.826c-23.631-6.115-43.65-24.389-51.568-47.072l-2.932-8.402-.281-162c-.312-179.706-.671-169.09 6.236-184C16.836 19.761 38.442 4.227 64.097.85c5.736-.755 43.245-.994 120.819-.769l112.5.326 7.473 2.288c13.505 4.135 22.556 9.571 32.629 19.597 7.398 7.364 9.884 10.651 13.281 17.56 8.248 16.774 7.524.29 7.862 178.921.325 171.41.42 167.78-4.731 181.383-7.074 18.68-24.68 35.076-45.514 42.389l-8 2.807-119 .207c-114.91.2-119.258.14-126.5-1.733zm241-3.039c8.558-1.382 18.82-5.002 25.835-9.114 9.22-5.405 20.173-17.087 24.93-26.59 7.802-15.59 7.33-3.14 7.016-185.23l-.281-162.5-2.883-7.5c-7.737-20.126-23.247-35.038-43.262-41.598l-8.855-2.903h-239l-8 2.725C24.963 17.085 8 37.876 4.868 65.13c-.717 6.234-.957 59.607-.74 164.721.356 173.758-.26 159.378 7.503 174.886 4.455 8.9 15.583 21.12 23.648 25.969 7.508 4.514 16.454 8.033 24.493 9.634 8.575 1.708 225.79 2.119 236.144.446zM127.22 394.921c-4.366-2.696-5.828-5.243-8.359-14.569-1.194-4.4-2.294-8.136-2.445-8.303-.15-.167-3.985.449-8.52 1.368-13.25 2.684-21.918.3-25.374-6.982-2.084-4.393-2.196-11.023-.172-10.246 3.802 1.459 18.736 2.749 24.786 2.141 6.267-.63 6.73-.838 6.266-2.828-4.044-17.32-6.236-34.219-4.724-36.412 1.48-2.144 6.85.416 8.561 4.082.817 1.75 2.45 8.13 3.63 14.18 1.181 6.05 2.605 12.738 3.165 14.862 1.197 4.537.756 4.55 18.109-.491 14.484-4.208 14.173-3.908 13.282-12.775-.72-7.18-.756-7.25-3.313-6.609-7.362 1.848-9.023 3.176-9.711 7.766-.973 6.484-1.892 7.595-4.403 5.322-4.968-4.496-10.082-26.441-10.082-43.26 0-14.328.618-15.286 9.803-15.2 8.675.08 15.123-1.645 37.44-10.019 35.906-13.471 42.125-14.584 48.102-8.608 3.01 3.01 1.95 5.662-4.783 11.976-6.256 5.866-6.481 6.253-7.993 13.714-.856 4.223-1.851 14.828-2.212 23.567l-.655 15.89h15.4c13.868.001 16.272.269 24.194 2.692 16.687 5.105 26.634 11.304 29.287 18.252 1.588 4.158 1.586 4.689-.026 8.912-4.964 12.997-42.068 33.537-60.517 33.5-9.555-.02-35.418-7.065-49.666-13.53l-7.125-3.234-2.875 2.35c-2.087 1.708-4.16 2.361-7.568 2.387-5.393.041-8.801 2.407-11.579 8.036-2.091 4.24-5.317 4.912-9.922 2.068zm18.818-21.319l9.867-5.25v-4.657l.01-4.656-11.25 3.515c-6.187 1.933-12.484 4.028-13.993 4.656l-2.742 1.142 3.013 5.25c1.657 2.888 3.51 5.25 4.12 5.25.608 0 5.547-2.362 10.974-5.25zm59.878 2.218c9.805-2.74 24.547-9.753 29.326-13.95 5.196-4.561 8.202-10.564 6.814-13.609-1.442-3.166-5.952-3.815-17.269-2.483-15.872 1.867-14.962 1.396-14.302 7.404.7 6.385-2.3 12.978-7.467 16.412-5.178 3.441-8 2.987-12.282-1.976l-3.68-4.266-6.82 2.343c-6.514 2.237-17.32 9.193-17.32 11.15 0 .51 3.712 1.108 8.25 1.33 14.323.703 26.85-.146 34.75-2.355zm-28.102-15.244c8.412-3.025 12.102-5.502 12.102-8.125 0-1.167-1.404-1.094-8.401.435-17.042 3.724-16.6 3.509-16.6 8.072 0 4.623-1.11 4.656 12.9-.382zm.684-19.916l11.633-3.192-.685-6.052c-.376-3.328-.762-6.125-.857-6.216-.235-.223-18.61 2.481-21.423 3.153-2.085.498-2.25 1.086-2.25 8.018 0 4.19.429 7.481.974 7.481.536 0 6.21-1.436 12.608-3.192zm-25.42-15.408c1.183-.731 1.047-14.152-.15-14.893-.544-.336-3.02.288-5.5 1.385l-4.512 1.996v6.39c0 3.514.247 6.636.55 6.938.555.556 8.072-.864 9.613-1.816zm22.838-7.048c3.575-.832 7.95-1.343 9.721-1.136 3.865.451 4.279-.34 4.279-8.175v-5.795l-4.25.356c-2.338.196-7.247.623-10.91.947l-6.66.591-1.09 6.262c-1.532 8.799-1.449 9.95.66 9.137.962-.372 4.675-1.356 8.25-2.187zm-26.15-13.45c3.053-1.064 3.15-1.278 3.15-7 0-6.505-.399-6.772-7.875-5.277-3.399.68-3.742 2.01-2.483 9.625.68 4.116 1.814 4.533 7.209 2.653zm32.314-7.579c9.629-.621 9.794-.768 9.822-8.681.012-3.5-.195-3.808-2.236-3.312-1.238.301-6.3 1.264-11.25 2.14-14.91 2.64-13.516 1.791-11.63 7.083 1.468 4.12 1.878 4.513 4.13 3.952 1.375-.342 6.399-.874 11.164-1.182zm-70.531-15.419c-12.306-1.298-18.35-3.399-20.694-7.193-1.11-1.796-1.863-4.533-1.711-6.21l.272-3 31.654-.739c17.41-.406 32.797-1.173 34.194-1.704 2.31-.878 2.456-1.261 1.617-4.261-.508-1.813-2.576-4.705-4.597-6.425l-3.675-3.13 8.196-8.37c4.508-4.605 10.03-11.184 12.271-14.622 2.241-3.437 4.39-6.25 4.773-6.25.384 0 1.681 1.75 2.883 3.887 4.018 7.148 2.437 15.906-4.322 23.937-2.173 2.583-2.488 3.69-1.918 6.733.63 3.355.905 3.597 3.5 3.078 7.58-1.516 9.884-3.324 13.163-10.33 5.326-11.384 4.88-21.994-1.336-31.797l-2.828-4.459 5.605-4.565c8.374-6.822 13.903-9.805 16.818-9.074 1.356.34 4.115 2.068 6.132 3.84 10.114 8.879 8.006 20.464-7.214 39.655-3.747 4.724-5.845 8.077-4.791 7.655 12.264-4.908 40.812-14.791 47.731-16.524 11.799-2.955 19.327-1.501 23.253 4.491 1.358 2.071 1.427 2.972.418 5.41-2.244 5.415-13.207 8.59-33.027 9.567-22.54 1.111-28.487 2.803-64.962 18.48-11.747 5.05-24.733 10.043-28.858 11.098-7.996 2.045-18.452 2.31-32.547.822zM99.323 158.822c-5.787-1.148-10.39-3.23-14.157-6.407-4.424-3.73-4.372-7.37.164-11.353 6.334-5.561 11.37-6.295 32.586-4.748 17.078 1.246 33.323-2.37 62.5-13.912 20.97-8.295 33.817-11.534 48.5-12.225 19-.895 32.174 3.615 42.015 14.382 8.148 8.916 7.477 15.973-2.02 21.23-6.3 3.488-13.527 3.161-28.197-1.275-26.797-8.102-38.092-7.287-88.454 6.384-32.798 8.904-41.457 10.2-52.937 7.924z" fill="#7b7b7b"/><path d="M59.416 444.369c-15.728-2.99-27.174-9.07-38.6-20.503-6.855-6.858-9.442-10.321-12.745-17.06-8.306-16.94-7.655-1.35-7.655-183.454 0-180.927-.521-167.377 7.03-182.863 8.625-17.686 23.915-30.327 44.505-36.793l7.465-2.344h241l8 2.817c12.471 4.39 20.175 9.182 29.088 18.095 8.549 8.55 13.584 16.45 17.58 27.588l2.332 6.5.268 163.963c.262 160.701.228 164.118-1.718 171.81-6.2 24.522-24.372 42.993-50.066 50.891l-7.484 2.3-116 .192c-93.027.154-117.386-.072-123-1.14zm242.877-4.485c27.219-6.962 47.748-29.458 51.587-56.532.818-5.767 1.051-51.951.835-165.5l-.3-157.5-2.724-8c-3.924-11.524-9.135-19.612-18.262-28.35-9.107-8.717-18.022-13.862-30.058-17.346l-7.955-2.304h-116c-130.924 0-120.65-.598-138.273 8.056-15.86 7.789-28.628 22.617-34.397 39.944l-2.33 7-.265 160.743c-.296 179.657-.725 168.198 6.884 183.757 3.404 6.962 5.807 10.135 13.269 17.53 10.193 10.1 18.61 14.992 31.69 18.417 7.138 1.869 11.848 1.945 123.012 1.998 111.797.054 115.842-.01 123.287-1.913zM127.22 394.92c-4.366-2.696-5.828-5.243-8.359-14.569-1.194-4.4-2.295-8.136-2.445-8.303-.15-.167-3.985.449-8.52 1.368-13.25 2.684-21.919.3-25.374-6.982-2.084-4.393-2.196-11.023-.172-10.246 3.802 1.459 18.735 2.749 24.786 2.141 6.267-.63 6.73-.838 6.266-2.828-4.044-17.32-6.237-34.219-4.724-36.412 1.48-2.144 6.85.416 8.561 4.082.817 1.75 2.45 8.13 3.63 14.18 1.181 6.05 2.605 12.738 3.165 14.862 1.197 4.537.756 4.55 18.109-.491 14.484-4.208 14.173-3.908 13.282-12.775-.72-7.18-.756-7.25-3.313-6.609-7.362 1.848-9.023 3.176-9.711 7.766-.973 6.484-1.892 7.595-4.403 5.322-4.968-4.496-10.082-26.441-10.082-43.26 0-14.328.618-15.286 9.803-15.2 8.675.08 15.123-1.645 37.44-10.019 35.906-13.471 42.125-14.584 48.102-8.608 3.01 3.01 1.95 5.662-4.783 11.976-6.256 5.866-6.481 6.253-7.993 13.714-.856 4.223-1.851 14.828-2.212 23.567l-.655 15.89h15.4c13.868.001 16.272.269 24.194 2.692 16.686 5.105 26.634 11.304 29.287 18.252 1.588 4.158 1.586 4.689-.026 8.912-4.964 12.997-42.068 33.537-60.517 33.5-9.555-.02-35.418-7.065-49.666-13.53l-7.126-3.234-2.874 2.35c-2.087 1.708-4.16 2.361-7.568 2.387-5.393.041-8.801 2.407-11.579 8.036-2.092 4.24-5.317 4.912-9.922 2.068zm18.818-21.319l9.867-5.25v-4.657l.01-4.656-11.25 3.515c-6.187 1.933-12.484 4.028-13.993 4.656l-2.742 1.142 3.013 5.25c1.657 2.888 3.51 5.25 4.12 5.25.608 0 5.547-2.362 10.974-5.25zm59.878 2.218c9.805-2.74 24.547-9.753 29.326-13.95 5.196-4.561 8.201-10.564 6.814-13.609-1.442-3.166-5.952-3.815-17.269-2.483-15.872 1.867-14.962 1.396-14.302 7.404.7 6.385-2.3 12.978-7.467 16.412-5.178 3.441-8 2.987-12.282-1.976l-3.68-4.266-6.82 2.343c-6.514 2.237-17.32 9.193-17.32 11.15 0 .51 3.712 1.108 8.25 1.33 14.323.703 26.85-.146 34.75-2.355zm-28.102-15.244c8.412-3.025 12.102-5.502 12.102-8.125 0-1.167-1.404-1.094-8.401.435-17.042 3.724-16.6 3.509-16.6 8.072 0 4.623-1.11 4.656 12.9-.382zm.684-19.916l11.633-3.192-.685-6.052c-.376-3.328-.762-6.125-.857-6.216-.235-.223-18.61 2.481-21.423 3.153-2.085.498-2.25 1.086-2.25 8.018 0 4.19.429 7.481.974 7.481.536 0 6.21-1.436 12.608-3.192zm-25.42-15.408c1.183-.731 1.047-14.152-.15-14.893-.544-.336-3.02.288-5.5 1.385l-4.512 1.996v6.39c0 3.514.247 6.636.55 6.938.555.556 8.072-.864 9.613-1.816zm22.838-7.048c3.575-.832 7.95-1.343 9.721-1.136 3.865.451 4.279-.34 4.279-8.175v-5.795l-4.25.356c-2.338.196-7.247.623-10.91.947l-6.66.591-1.09 6.262c-1.532 8.799-1.449 9.95.66 9.137.962-.372 4.675-1.356 8.25-2.187zm-26.15-13.45c3.053-1.064 3.15-1.278 3.15-7 0-6.505-.399-6.772-7.875-5.277-3.399.68-3.742 2.01-2.483 9.625.68 4.116 1.814 4.533 7.209 2.653zm32.314-7.579c9.629-.621 9.794-.768 9.822-8.681.012-3.5-.196-3.808-2.236-3.312-1.238.301-6.3 1.264-11.25 2.14-14.91 2.64-13.516 1.791-11.63 7.083 1.468 4.12 1.878 4.513 4.13 3.952 1.375-.342 6.399-.874 11.164-1.182zm-70.531-15.419c-12.306-1.298-18.35-3.399-20.694-7.193-1.11-1.796-1.863-4.533-1.711-6.21l.272-3 31.654-.739c17.41-.406 32.797-1.173 34.193-1.704 2.312-.878 2.457-1.261 1.618-4.261-.508-1.813-2.576-4.705-4.597-6.425l-3.675-3.13 8.196-8.37c4.508-4.605 10.03-11.184 12.271-14.622 2.241-3.437 4.39-6.25 4.773-6.25.384 0 1.681 1.75 2.883 3.887 4.018 7.148 2.437 15.906-4.322 23.937-2.173 2.583-2.488 3.69-1.918 6.733.63 3.355.905 3.597 3.5 3.078 7.58-1.516 9.884-3.324 13.163-10.33 5.326-11.384 4.88-21.994-1.336-31.797l-2.828-4.459 5.605-4.565c8.374-6.822 13.903-9.805 16.818-9.074 1.356.34 4.115 2.068 6.132 3.84 10.114 8.879 8.006 20.464-7.214 39.655-3.747 4.724-5.845 8.077-4.791 7.655 12.264-4.908 40.812-14.791 47.731-16.524 11.799-2.955 19.327-1.501 23.253 4.491 1.358 2.071 1.427 2.972.418 5.41-2.244 5.415-13.207 8.59-33.027 9.567-22.54 1.111-28.487 2.803-64.962 18.48-11.747 5.05-24.733 10.043-28.858 11.098-7.996 2.045-18.452 2.31-32.547.822zm-9.856-122.986c-10.839-1.59-19.777-7.002-19.777-11.976 0-3.212 4.845-7.73 10.198-9.507 4.324-1.437 6.818-1.572 15.72-.853 25.384 2.051 41.174-.99 74.073-14.269 23.739-9.58 43.398-13.315 59.538-11.309 12.873 1.6 19.766 4.462 27.162 11.28 5.478 5.048 7.309 8.439 7.309 13.532 0 5.062-2.76 8.546-8.513 10.742-6.142 2.346-13.9 1.541-29.487-3.06-8.35-2.465-15.41-3.87-21.267-4.233-14.838-.92-20.747.207-78.733 15.028-18.994 4.855-27.366 5.924-36.223 4.625z" fill="#a55357"/><path d="M59.416 444.369c-15.728-2.99-27.174-9.07-38.6-20.503-6.855-6.858-9.442-10.321-12.745-17.06-8.306-16.94-7.655-1.35-7.655-183.454 0-180.927-.521-167.377 7.03-182.863 8.625-17.686 23.915-30.327 44.505-36.793l7.465-2.344h241l8 2.817c12.471 4.39 20.175 9.182 29.088 18.095 8.549 8.55 13.584 16.45 17.58 27.588l2.332 6.5.268 163.963c.262 160.701.228 164.118-1.718 171.81-6.2 24.522-24.372 42.993-50.066 50.891l-7.484 2.3-116 .192c-93.027.154-117.386-.072-123-1.14zm242.877-4.485c27.219-6.962 47.748-29.458 51.587-56.532.818-5.767 1.051-51.951.835-165.5l-.3-157.5-2.724-8c-3.924-11.524-9.135-19.612-18.262-28.35-9.107-8.717-18.022-13.862-30.058-17.346l-7.955-2.304h-116c-130.924 0-120.65-.598-138.273 8.056-15.86 7.789-28.628 22.617-34.397 39.944l-2.33 7-.265 160.743c-.296 179.657-.725 168.198 6.884 183.757 3.404 6.962 5.807 10.135 13.269 17.53 10.193 10.1 18.61 14.992 31.69 18.417 7.138 1.869 11.848 1.945 123.012 1.998 111.797.054 115.842-.01 123.287-1.913zm-173.877-44.415c-4.802-2.15-6.665-5.061-9.117-14.246-1.267-4.743-2.523-8.844-2.792-9.113-.269-.268-4.449.311-9.29 1.288-5.209 1.051-10.23 1.505-12.301 1.112-7.943-1.506-13.99-7.9-13.996-14.801v-3.644l4.25 1.02c4.352 1.046 27.18 1.669 28.083.767.275-.275-.61-5.9-1.969-12.5-2.362-11.481-3.546-25.625-2.253-26.936 1.095-1.11 5.745 1.287 7.403 3.817.89 1.359 2.987 9.141 4.66 17.295 1.672 8.153 3.414 15.224 3.87 15.712.887.948 8.919-.827 22.844-5.05l8.388-2.543-.64-7.565c-.351-4.161-.877-7.804-1.168-8.095-.29-.29-2.956.297-5.923 1.305-5.348 1.818-5.401 1.877-6.057 6.647-.887 6.446-2.675 7.878-5.25 4.205-5.009-7.149-9.238-26.55-9.238-42.38 0-13.846.698-14.813 10.702-14.823 8.894-.01 13.21-1.23 42.841-12.125 26.682-9.81 33.08-11.244 38.243-8.574 6.683 3.456 6.022 8.699-1.777 14.104-2.27 1.573-4.577 3.698-5.125 4.722-2.032 3.798-3.97 17.743-4.569 32.883l-.617 15.6 15.401-.05c14.833-.049 15.77.072 25.4 3.27 22.563 7.49 31.205 15.325 28.342 25.695-1.98 7.168-15.25 17.428-34.168 26.415-18.649 8.86-26.25 9.604-45.966 4.499-13.394-3.467-20.843-6.013-29.905-10.22l-7.697-3.574-3.13 2.633c-2.26 1.902-4.288 2.643-7.302 2.669-5.704.048-8.697 1.959-11.13 7.106-2.286 4.832-4.292 5.603-9.043 3.475zm17.518-21.626l9.982-5.009v-9.886l-4.25 1.311c-2.338.722-8.3 2.553-13.25 4.071-4.95 1.518-9.334 2.956-9.743 3.195-.718.422 2.448 7.533 4.486 10.077 1.467 1.831 1.873 1.712 12.775-3.759zm52.982 3.575c17.519-3.188 35.213-11.904 40.798-20.098 3.902-5.724 3.92-9.224.055-11.383-2.3-1.286-4.258-1.306-15-.153-6.794.73-12.935 1.55-13.646 1.821-.925.354-1.11 1.715-.647 4.796.902 6.02-.912 10.6-6.089 15.371-5.792 5.34-8.485 5.342-13.27.011-3.292-3.666-3.989-4.005-7.055-3.43-5.709 1.07-13.667 5.072-18.177 9.14l-4.28 3.86 8.905.56c15.676.988 20.741.9 28.406-.495zM175.82 361.44c10.973-4.08 14.095-5.98 14.095-8.586 0-2.204.482-2.248-15.134 1.375l-9.366 2.172-.567 4.226c-.39 2.902-.198 4.225.614 4.225.65 0 5.31-1.535 10.358-3.412zm2.095-20.524c1.925-.51 5.473-1.443 7.885-2.071l4.384-1.142-.637-6.094c-.35-3.352-.748-6.195-.884-6.318-.358-.323-19.819 2.449-21.953 3.126-1.527.485-1.795 1.748-1.795 8.455v7.885l4.75-1.456c2.612-.8 6.325-1.873 8.25-2.385zm-27.75-14.622l3.75-.664v-7.33c0-4.031-.46-7.614-1.024-7.962-.563-.348-3.038.136-5.5 1.077l-4.476 1.71v7.43c0 6.607.194 7.375 1.75 6.918.962-.283 3.437-.813 5.5-1.179zm25.674-8.016c3.534-.897 7.92-1.388 9.747-1.092 3.77.612 4.04.074 4.543-9.008l.286-5.174-4.5.407c-2.475.224-7.497.672-11.16.994l-6.66.587-1.09 6.262c-1.517 8.713-1.436 9.84.66 9.194.962-.297 4.64-1.274 8.174-2.17zm-23.123-20.383l.302-6.333-5.187.614c-2.853.338-5.406.833-5.673 1.1-.267.267-.176 3.377.202 6.91l.688 6.425 4.684-1.19 4.683-1.192.301-6.334zm29.465-.709c9.658-.675 9.216-.295 9.984-8.584.221-2.378-.076-3.75-.812-3.75-.966 0-16.461 2.914-24.068 4.527-2.091.443-2.1.534-.5 5.026 1.462 4.104 1.887 4.514 4.13 3.985 1.375-.325 6.445-.866 11.266-1.204zm-69.87-15.327c-11.735-1.232-16.312-2.723-20.152-6.562-2.701-2.702-3.313-4.033-3.06-6.66l.316-3.285 30-.675c29.543-.665 38.505-1.278 38.494-2.636-.029-3.544-2.473-8.026-5.496-10.075l-3.52-2.387 8.299-8.613c4.564-4.738 10.063-11.474 12.22-14.971l3.92-6.358 2.287 2.858c4.893 6.112 4.272 14.113-1.759 22.665-3.626 5.143-4.025 6.257-3.454 9.64l.647 3.826 6.485-2.108c6.442-2.095 6.508-2.153 9.607-8.637 2.417-5.056 3.224-8.287 3.577-14.321.432-7.403.27-8.167-3.237-15.263l-3.692-7.47 3.2-2.738c5.365-4.59 15.197-11.237 16.621-11.237 2.687 0 9.477 5.444 11.86 9.51 1.342 2.291 2.44 5.584 2.44 7.317 0 6.643-5.804 17.494-15.845 29.62-2.252 2.72-3.958 5.083-3.79 5.25.167.168 9.492-3.039 20.72-7.126 27.594-10.045 35.715-12.11 41.697-10.604 8.894 2.24 12.814 6.95 9.717 11.676-3.529 5.386-12.916 7.705-37.672 9.304-18.942 1.223-25.844 3.204-54.826 15.736-30.158 13.04-34.637 14.455-47 14.844-5.775.182-14.147-.052-18.605-.52zm-10.62-123.089c-10.838-1.59-19.776-7.002-19.776-11.976 0-3.212 4.845-7.73 10.198-9.507 4.324-1.437 6.818-1.572 15.72-.853 25.384 2.051 41.174-.99 74.073-14.269 23.739-9.58 43.398-13.315 59.539-11.309 12.872 1.6 19.766 4.462 27.161 11.28 5.478 5.048 7.309 8.439 7.309 13.532 0 5.062-2.76 8.546-8.513 10.742-6.142 2.346-13.9 1.541-29.487-3.06-8.35-2.465-15.41-3.87-21.267-4.233-14.838-.92-20.747.207-78.733 15.028-18.994 4.855-27.366 5.924-36.223 4.625z" fill="#871a1f"/><path d="M63.416 445.138c-23.851-3.299-45.556-18.7-55.908-39.671C-.104 390.044.416 403.433.416 222.852.416 41.67-.201 56.776 7.87 40.302c6.868-14.017 21.121-27.314 35.961-33.55C58.29.679 54.297.853 179.023.853c127.181 0 122.144-.254 137.393 6.935 20.482 9.656 34.219 25.915 39.57 46.84 1.868 7.301 1.93 12.734 1.913 168.135-.014 133.47-.253 161.701-1.412 167.167-5.827 27.49-29.21 49.252-58.571 54.51-6.01 1.077-29.742 1.32-119.5 1.229-61.6-.064-113.35-.302-115-.53zm239.09-5.285c20.459-5.17 37.044-18.52 45.64-36.732 6.695-14.185 6.185-.583 6.544-174.769.234-113.667.01-160.244-.805-166-4.245-30.054-27.953-52.947-59.517-57.47-5.695-.817-39.879-1.042-120.452-.794-126.267.389-116.068-.227-133 8.03-12.013 5.86-23.932 17.733-29.848 29.734-7.654 15.528-7.22 3.912-6.92 184.771l.268 161.73 2.68 7.334c3.95 10.814 8.416 17.735 16.874 26.15 8.735 8.69 19.594 14.967 31.107 17.983 7.03 1.842 12.211 1.925 123.429 1.977 112.868.054 116.31 0 124-1.944zM103.318 158.855c-19.977-2.927-27.277-12.844-14.603-19.835 5.405-2.982 13.317-3.734 24.25-2.304 16.92 2.213 37.497-1.913 66.025-13.238 27.354-10.859 45.987-14.683 61.846-12.695 19.075 2.392 35.08 13.59 35.08 24.544 0 3.662-.518 4.773-3.414 7.316-7.153 6.28-14.937 6.6-31.9 1.307-25.076-7.823-39.82-6.814-86.165 5.896-30.753 8.435-41.778 10.378-51.119 9.009z"/></svg>