<svg xmlns="http://www.w3.org/2000/svg" width="357.926" height="445.873"><path d="M61.506 444.997c-21.87-3.29-41.55-16.329-52.313-34.659-1.666-2.838-4.303-8.463-5.858-12.5l-2.83-7.34v-335l2.68-7.335c5.338-14.612 15.21-27.28 27.759-35.624 8.395-5.58 14.372-8.162 24.562-10.607C63.153.097 68.566.012 178.298.005c130.228-.008 123.15-.409 140.236 7.947 17.313 8.468 29.462 21.985 35.886 39.928l3.086 8.618.279 163.5c.31 181.081.666 170.41-6.176 184.602-10.555 21.892-30.55 36.405-55.603 40.357-7.577 1.196-226.57 1.232-234.5.04zm244.5-6.84c19.731-7.108 33.163-18.944 41.662-36.713 6.675-13.957 6.408-5.99 6.108-182.468l-.27-159.478-2.917-8.352c-8.519-24.399-28.507-41.201-54.311-45.654-7.901-1.364-23.202-1.519-121.904-1.236-126.691.363-116.43-.253-133.368 8.009-12.116 5.908-24.075 17.853-29.809 29.77-7.695 15.995-7.283 5.094-6.97 184.463l.279 160 2.822 8c6.616 18.747 19.146 32.397 37.293 40.625 13.125 5.951 8.325 5.756 136.885 5.558l118-.183 6.5-2.341zM107.65 379.48c-24.264-6.152-40.957-27.543-40.957-52.483 0-17.882 7.902-33.611 21.903-43.602 9.091-6.488 17.733-9.512 28.909-10.116 17.002-.918 30.207 4.143 42.021 16.107 10.583 10.717 15.479 22.613 15.479 37.611 0 23.102-13.838 42.704-35.822 50.742-8.533 3.12-22.954 3.917-31.533 1.741zm23.855-9.842c10.705-2.86 18.775-8.31 25.188-17.012 11.181-15.17 10.99-37.043-.455-52.105-13.445-17.694-37.493-22.596-57.563-11.733-6.212 3.362-14.778 12.63-18.033 19.51-9.643 20.384-1.612 45.253 18.401 56.982 9.041 5.298 22.285 7.076 32.462 4.358zm-20.5-5.015c-11.492-3.164-20.19-10.206-25.22-20.417-3.078-6.251-3.28-7.31-3.28-17.2 0-9.885.203-10.954 3.274-17.196 4.072-8.28 11.963-15.768 19.979-18.96 4.548-1.812 7.728-2.294 15.247-2.314 8.594-.022 10.131.274 16.123 3.107 9.246 4.37 14.198 9.202 18.632 18.177 3.538 7.163 3.744 8.106 3.737 17.129-.01 8.636-.31 10.188-3.174 16.249-8.133 17.207-27.457 26.343-45.318 21.425zm21.32-9.698c5.347-1.485 11.464-7.262 12.277-11.595.86-4.58-.874-8.342-3.826-8.303-3.187.042-19.771 12.463-19.771 14.808 0 1.908 2.36 4.482 5 5.453 2.166.796 2.14.798 6.32-.363zm-15.543-1.485c4.305-3.015 2.93-5.8-6.027-12.21-10.322-7.387-11.254-7.73-13.886-5.098-4.18 4.18-.321 12.945 7.376 16.755 5.053 2.501 9.478 2.696 12.537.553zm13.903-16.657c8.979-8.979 3.004-23.786-9.598-23.786-10.852 0-17.494 9.76-13.22 19.424 2.777 6.276 7.035 8.806 13.959 8.294 4.492-.333 5.873-.946 8.859-3.932zm-14.18-1.94c-5.222-2.857-6.262-10.175-2.046-14.391 5.33-5.33 15.546-1.03 15.546 6.545 0 6.411-7.817 10.954-13.5 7.845zm30.248-2.382c5.382-3.77 4.983-14.284-.792-20.86-3.18-3.622-6.348-4.743-9.797-3.467-2.819 1.043-2.745 3.444.413 13.363 3.929 12.344 5.614 14.16 10.176 10.964zm-46.682-1.589c2.268-4.237 5.934-16.303 5.934-19.531 0-2.742-.452-3.42-2.651-3.971-3.707-.93-8.6 1.949-11.212 6.597-2.87 5.107-2.901 12.79-.064 16.395 2.54 3.23 6.407 3.476 7.994.51zm32.598-23.11c3.848-3.85-1.98-10.595-9.932-11.492-8.525-.96-16.218 3.654-15.559 9.333.425 3.665 2.818 4.338 14.542 4.09 7.23-.154 9.59-.57 10.949-1.93zm92.904 72.07c-18.791-3.589-36.054-19.949-41.116-38.966-1.662-6.246-1.859-20.393-.373-26.841 3.268-14.18 14.734-28.38 28.312-35.06 9.893-4.869 17.45-6.364 28.609-5.663 23.075 1.45 42.782 17.404 48.468 39.237 1.746 6.701 1.978 20.807.452 27.43-3.086 13.394-14.406 27.882-26.922 34.46-11.209 5.89-24.69 7.836-37.43 5.403zm21.32-9.895c12.775-2.946 24.69-12.606 30.39-24.638 3.048-6.435 3.222-7.423 3.222-18.302 0-10.837-.183-11.885-3.165-18.18-16.287-34.378-64.384-34.378-80.671 0-2.982 6.295-3.164 7.343-3.164 18.18 0 10.88.173 11.867 3.221 18.302 5.594 11.81 17.644 21.7 29.977 24.603 5.238 1.232 14.921 1.25 20.19.035zm-18.545-4.918c-18.715-3.987-31.429-21.358-30.076-41.094 2.733-39.873 57.526-49.457 74.597-13.048 2.323 4.954 2.636 6.865 2.636 16.12 0 9.44-.28 11.068-2.761 16.121-6.552 13.342-18.5 21.495-32.74 22.34-4.124.246-9.37.048-11.656-.44zm24.956-12.363c4.668-2.56 7.7-7.247 7.7-11.905 0-4.557-2.206-6.494-5.83-5.118-4.271 1.622-17.036 11.368-17.723 13.532-.381 1.202.036 2.708 1.068 3.848 3.057 3.378 8.199 3.254 14.785-.357zm-19.72.027c3.666-3.154 2.48-5.097-7.34-12.017-9.95-7.012-12.568-7.566-14.294-3.025-1.371 3.606.268 8.204 4.323 12.123 5.865 5.669 12.762 6.831 17.31 2.919zm11.077-13.782c4.272-2.641 6.345-6.597 6.34-12.104-.01-8.134-5.754-13.8-13.996-13.8-8.281 0-13.99 5.662-13.997 13.882-.01 11.134 12.158 17.89 21.653 12.022zm-13.733-5.827c-3.873-3.872-3.985-8.743-.287-12.44 5.792-5.793 15.4-1.99 15.332 6.068-.072 8.555-9.057 12.36-15.045 6.372zm32.555-1.327c8.668-7.532-.89-27.471-11.32-23.613-2.916 1.079-2.767 3.687.819 14.296 4.195 12.41 5.553 13.616 10.5 9.317zm-47.699 0c.938-1.144 7.22-19.355 7.22-20.929 0-1.528-3.297-3.82-5.494-3.82-3.088 0-8.425 4.562-10.141 8.67-2.06 4.93-1.74 11.583.708 14.694 2.203 2.801 5.989 3.481 7.707 1.385zm31.22-22.64c5.2-1.438 2.907-8.998-3.545-11.693-9.267-3.872-21.35 1.331-20.282 8.734.419 2.9 3.156 3.65 13.328 3.65 4.4 0 9.125-.311 10.5-.692zm-81-32.677c-19.186-4.155-34.57-18.767-40.387-38.364-2.06-6.937-2.089-20.82-.061-28.604 4.224-16.217 17.766-30.792 33.949-36.538 7.582-2.692 23.094-3.68 30.632-1.952 19.017 4.363 34.764 19.204 40.272 37.957 1.822 6.2 2.097 21.18.516 28.04-3.148 13.664-15.124 28.62-27.92 34.867-11.804 5.763-24.387 7.326-37 4.594zm21.201-9.558c15.892-3.375 29.592-16.25 33.76-31.726 1.82-6.759 1.41-18.797-.862-25.382-3.867-11.204-12.61-20.745-23.919-26.102-6.294-2.982-7.343-3.165-18.18-3.165-10.864 0-11.873.177-18.258 3.202-9.343 4.425-16.922 11.86-21.47 21.063-3.187 6.45-3.72 8.565-4.087 16.254-.335 7.017.013 10.272 1.689 15.79 6.572 21.638 29.04 34.799 51.327 30.066zm-17.155-4.911c-11.765-2.455-22.123-10.685-27.36-21.74-2.925-6.173-3.184-7.543-3.172-16.724.012-8.72.354-10.731 2.68-15.718 3.735-8.009 10.773-15.172 18.717-19.05 6.142-2.997 7.304-3.216 17.11-3.224 9.852-.008 10.94.198 17.106 3.233 13.128 6.463 20.914 18.303 21.688 32.982 1.157 21.942-13.95 39.011-36.014 40.69-3.465.264-8.305.062-10.755-.45zm4.533-12.278c2.286-1.966 2.522-2.63 1.569-4.41-1.058-1.976-12.1-10.575-16.834-13.108-7.146-3.824-9.27 7.763-2.57 14.02 6.514 6.084 13.285 7.412 17.835 3.498zm18.323.865c4.98-2.575 9.099-8.182 9.099-12.386 0-4.15-1.403-6.165-4.295-6.165-2.693 0-18.45 11.62-19.273 14.213-1.53 4.82 8.008 7.68 14.469 4.338zm-8.318-14.157c9.74-4.622 9.891-19.994.247-24.982-9.831-5.084-20.818 1.617-20.827 12.703-.01 10.24 11.015 16.817 20.58 12.279zm-12.66-6.317c-6.071-6.07-2.441-15.077 6.077-15.077 5.57 0 9 3.379 9 8.866 0 3.19-.596 4.458-3.077 6.545-4.168 3.507-8.274 3.392-12-.334zm32.65-1.386c6.067-5.219 3.266-18.757-4.789-23.146-3-1.635-4.014-1.761-6.186-.772-3.208 1.462-3.214 2.72-.064 12.583 4.488 14.054 6.033 15.64 11.038 11.335zm-47.818.059c.55-.687 2.489-5.827 4.31-11.422 2.776-8.534 3.098-10.426 2-11.75-3.438-4.141-12.724.828-15.121 8.09-1.504 4.557-.697 11.843 1.592 14.373 2.006 2.216 5.72 2.581 7.219.709zm34.07-26.088c.593-5.185-5.588-9.662-13.342-9.662-6.823 0-13.483 4.186-13.483 8.474 0 4.082 1.742 4.6 14.478 4.305l12.022-.279.325-2.838zm-79.062-30.633c-16-2.902-30.154-12.602-38.051-26.076-8.96-15.29-9.568-34.95-1.59-51.461 6.557-13.572 21.793-25.464 36.548-28.527 8.164-1.695 23.487-.781 30.678 1.83 15.112 5.486 27.46 17.822 32.78 32.744 2.644 7.421 3.572 21.772 1.921 29.724-2.608 12.561-11.811 26.066-22.68 33.28-10.838 7.194-27.291 10.72-39.606 8.486zm17.35-10.034c11.357-2.12 23.129-10.082 29.256-19.788 7.644-12.11 8.782-28.875 2.824-41.607-4.301-9.192-11.77-16.787-20.984-21.34-6.594-3.26-8.489-3.723-16.68-4.082-19.112-.836-34.64 8.01-42.512 24.216-15.763 32.453 12.503 69.243 48.096 62.6zm-15.333-5.025c-11.84-1.995-23.492-10.852-28.592-21.734-2.407-5.136-2.688-6.886-2.688-16.736 0-10.172.22-11.434 2.92-16.766 3.64-7.19 11.79-15.006 19.327-18.538 5.103-2.391 6.938-2.696 16.253-2.696 9.255 0 11.166.312 16.12 2.635 15.016 7.041 23.832 22.09 22.587 38.555-.707 9.342-4.015 16.64-10.792 23.805-5.852 6.188-12.613 9.802-21.35 11.412-6.541 1.205-6.992 1.207-13.785.063zm2.997-11.527c4.208-2.947 2.91-5.855-5.328-11.948-10.703-7.916-12.219-8.498-14.567-5.598-2.246 2.774-2.378 5.254-.472 8.903 4.316 8.26 14.651 12.647 20.367 8.643zm18.551.193c3.811-1.592 8.395-6.688 9.316-10.353.988-3.94-.755-7.733-3.715-8.08-3.03-.356-19.214 11.21-19.762 14.121-.925 4.922 6.958 7.322 14.161 4.312zm-7.57-14.63c9.524-5.807 9.544-19.683.036-24.619-9.668-5.019-21.128 1.461-21.128 11.947 0 11.212 11.83 18.319 21.093 12.671zm-12.564-5.496c-6.35-5.343-2.956-15.51 5.178-15.51 4.844 0 6.481.816 8.165 4.072 3.192 6.173.12 12.493-6.593 13.561-2.89.46-4.153.062-6.75-2.123zm34.054-4.595c2.372-4.632 2.204-7.614-.763-13.57-3.136-6.291-7.97-9.357-11.918-7.558-1.69.77-2.567 1.969-2.567 3.504 0 3.653 5.84 20.076 7.607 21.39 2.363 1.759 5.64.143 7.641-3.766zm-48.905 1.335c2.299-4.534 5.867-17.72 5.5-20.322-.27-1.91-1.025-2.494-3.538-2.737-6.62-.64-12.305 6.583-12.305 15.634 0 8.763 7.085 13.85 10.343 7.425zm32.706-22.81c1.896-2.284.11-6.416-3.96-9.159-5.594-3.77-15.424-2.946-20.05 1.68-2.25 2.25-2.754 7.584-.79 8.377.688.277 6.258.54 12.378.583 8.93.063 11.383-.23 12.422-1.48zm94.292 72.526c-20.38-3.647-36.666-18.473-42.73-38.897-2.05-6.911-2.09-20.81-.08-28.527 4.74-18.196 19.806-33.088 38.514-38.067 7.201-1.916 20.656-1.864 28.31.11 18.006 4.642 32.671 19.037 38.05 37.347 1.997 6.801 2.07 21.69.142 28.937-4.542 17.064-18.754 32.026-35.266 37.126-7.612 2.351-19.823 3.245-26.94 1.971zm17.768-9.987c13.712-2.6 25.705-11.76 31.915-24.377 2.946-5.985 3.45-8.118 3.799-16.106.447-10.232-1.213-17.891-5.443-25.11-3.688-6.293-12.59-14.117-20.122-17.684-6.385-3.025-7.394-3.202-18.258-3.202-10.865 0-11.874.177-18.259 3.202-9.353 4.43-16.921 11.86-21.482 21.088-3.264 6.603-3.723 8.484-4.083 16.725-.334 7.638-.017 10.455 1.79 15.886 6.99 21.002 28.49 33.685 50.143 29.578zm-15.459-4.994c-11.836-2.069-22.607-10.45-27.965-21.76-2.92-6.165-3.185-7.558-3.185-16.725 0-8.757.333-10.71 2.68-15.718 3.742-7.985 10.764-15.137 18.694-19.04 6.162-3.034 7.259-3.242 17.126-3.242 9.866 0 10.963.208 17.126 3.241 17.119 8.428 25.444 27.166 20.38 45.874-5.106 18.861-24.796 30.876-44.856 27.37zm3.934-12.478c3.2-3.201 2.3-5.051-5.13-10.54-11.869-8.769-14.55-9.475-16.5-4.349-2.038 5.361 2.523 12.53 10.046 15.788 5.171 2.24 8.72 1.965 11.584-.9zm18.317 1.044c4.98-2.575 9.099-8.182 9.099-12.386 0-7.561-3.649-7.99-12.873-1.51-8.853 6.216-11.127 8.355-11.127 10.463 0 4.322 9.118 6.423 14.9 3.433zm-7.948-14.645c4.768-2.68 7.048-6.584 7.043-12.06-.01-10.733-9.764-17.254-19.42-12.983-11.124 4.92-11.763 18.783-1.165 25.246 4.043 2.465 8.925 2.392 13.542-.203zm-10.596-3.86c-5.544-2.335-7.14-10.355-2.903-14.591 5.544-5.544 15.546-1.72 15.546 5.944 0 6.376-6.874 11.077-12.643 8.647zm30.215-3.355c6.068-5.219 3.267-18.757-4.788-23.146-3-1.635-4.014-1.761-6.186-.772-3.208 1.462-3.214 2.72-.064 12.583 4.488 14.054 6.033 15.64 11.038 11.335zm-47.817.059c.55-.687 2.489-5.827 4.31-11.422 2.776-8.534 3.098-10.426 2-11.75-3.216-3.875-10.964-.485-14.208 6.216-2.76 5.701-2.212 13.691 1.124 16.392 2.608 2.112 5.353 2.34 6.774.564zm33.045-23.95c2.052-2.053 1.327-5.303-1.866-8.363-2.825-2.706-3.645-2.937-10.434-2.937-6.79 0-7.61.23-10.435 2.937-3.193 3.06-3.918 6.31-1.865 8.363 1.65 1.65 22.949 1.65 24.6 0z" fill="#c2c5cd"/><path d="M59.506 444.515c-15.913-3.026-27.107-9.05-39-20.985-10.321-10.358-15.39-18.867-18.515-31.088C.051 384.854.006 381.014.006 222.548c0-179.014-.435-166.684 6.387-181.05C15.291 22.761 31.091 9.37 52.006 2.84l7.5-2.342h239l7.5 2.328c19.686 6.11 36.143 19.79 44.975 37.385 7.56 15.06 7.12 3.038 6.805 185.787l-.28 163.5-2.876 7.853c-7.906 21.598-26.406 38.667-49.652 45.814l-7.472 2.297-115.5.192c-92.615.154-116.887-.072-122.5-1.14zm242.876-5.485c23.075-5.902 41.196-22.815 48.785-45.532l2.339-7 .28-160c.313-178.952.685-168.829-6.757-184-6.861-13.989-16.47-23.604-30.523-30.54-16.134-7.965-6.826-7.46-137.5-7.46-129.75 0-121.113-.435-136.5 6.883-14.787 7.032-24.719 16.8-31.638 31.117-7.23 14.96-6.828 4.318-6.828 180.5 0 176.657-.426 165.693 7.03 180.819 4.891 9.923 14.144 20.239 23.39 26.079 7.684 4.852 11.989 6.72 21.046 9.13 6.63 1.764 13.127 1.865 123.09 1.917 112.294.053 116.341-.009 123.786-1.913zm-191.876-59.054c-14.971-3.005-29.145-13.164-36.952-26.485-4.69-8.003-6.8-16.257-6.774-26.493.04-16.06 5.655-28.828 17.377-39.519 21.76-19.844 54.142-19.187 74.849 1.52 21.23 21.23 21.454 54.243.511 75.43-12.703 12.853-31.977 18.966-49.011 15.547zm21.965-10.51c12.765-3.326 23.019-11.935 28.833-24.21 3.025-6.384 3.202-7.393 3.202-18.258 0-10.864-.177-11.873-3.202-18.258-10.915-23.043-37.474-32.233-60.994-21.106-16.24 7.683-26.448 27.843-23.367 46.15 4.42 26.269 29.584 42.439 55.528 35.681zm-21.441-5.071c-11.087-2.98-20.647-10.853-25.718-21.18-2.534-5.163-2.806-6.735-2.806-16.217 0-9.594.253-11.016 2.94-16.487 3.919-7.983 11.01-14.887 19.319-18.807 6.037-2.849 7.68-3.178 15.74-3.157 7.006.018 10.283.533 14.785 2.322 8.087 3.213 16.788 11.5 20.948 19.949 2.972 6.037 3.264 7.453 3.231 15.659-.046 11.415-2.586 18.306-9.563 25.94-5.914 6.47-11.658 10.023-19.52 12.07-7.113 1.853-12.21 1.829-19.356-.092zm26.829-11.664c4.3-2.595 7.138-7.277 7.143-11.783 0-4.049-1.445-5.95-4.534-5.95-2.15 0-11.595 6.127-16.712 10.841-8.07 7.434 3.685 13.179 14.103 6.892zm-20.788 1.232c1.243-.665 1.935-2.092 1.935-3.993 0-2.519-1.104-3.774-7.437-8.457-4.09-3.025-8.643-6.05-10.118-6.722-2.387-1.087-2.886-.966-4.563 1.104-5.645 6.972 3.505 19.08 14.433 19.097 2.099.003 4.686-.46 5.75-1.03zm11.636-14.924c8.677-5.29 8.315-19.878-.608-24.492-6.114-3.162-14.847-1.582-18.827 3.405-2.346 2.94-3.407 8.81-2.321 12.844.99 3.675 4.979 8.38 8.055 9.498 3.504 1.276 10.62.623 13.701-1.255zm-13.778-5.964c-4.1-4.1-4.04-8.959.153-12.488 4.218-3.55 8.27-3.396 12.124.457 2.632 2.633 2.966 3.55 2.457 6.75-1.244 7.816-9.31 10.706-14.734 5.281zm33.152-1.66c3.392-3.613 3.387-12.315-.01-17.81-4.392-7.107-14.066-8.358-14.066-1.82 0 3.72 5.644 20.37 7.251 21.39 2.235 1.419 4.354.872 6.824-1.76zm-48.331.333c1.962-2.48 6.382-17.732 6.072-20.954-.286-2.983-.654-3.324-3.87-3.595-6.797-.57-11.946 6.316-11.946 15.978 0 6.569 1.965 9.821 5.934 9.821 1.551 0 3.266-.562 3.81-1.25zm31.69-22.725c4.855-1.846 2.393-8.946-4.033-11.63-6.652-2.78-16.972-.934-19.321 3.455-1.848 3.452-1.32 7.118 1.17 8.119 3.05 1.226 19 1.266 22.184.056zm93.167 70.381c-19.211-4.648-35.18-20.169-40.07-38.947-8.764-33.647 17.535-67.459 52.469-67.459 24.133 0 45.329 16.156 52.387 39.932 2.09 7.041 2.099 21.049.017 28.137-3.872 13.182-14.071 26.259-25.552 32.762-11.334 6.42-26.727 8.606-39.251 5.575zm28.639-11.328c12.058-4.651 21.82-14.741 25.783-26.65 1.842-5.534 2.132-8.242 1.792-16.764-.356-8.951-.792-10.966-3.648-16.886-4.47-9.266-11.29-15.98-20.886-20.562-7.584-3.622-8.073-3.716-19.281-3.714-10.593.002-12 .232-17.824 2.92-17.017 7.851-26.176 22.024-26.176 40.502 0 13.426 4.023 23.025 13.345 31.842 9.434 8.922 19.064 12.423 32.655 11.87 5.679-.23 10.404-1.08 14.24-2.558zm-26.216-3.617c-3.012-.845-7.302-2.606-9.535-3.914-5.833-3.418-13.203-11.701-16.31-18.329-2.317-4.944-2.68-7.003-2.68-15.218 0-8.544.311-10.154 3.087-16 3.875-8.16 10.832-15.096 19.345-19.287 5.966-2.937 7.346-3.213 16.069-3.213 8.772 0 10.082.266 16.239 3.297 8.531 4.2 15.264 10.94 19.179 19.2 2.77 5.845 3.082 7.465 3.082 16.003 0 12.575-2.944 19.38-12.08 27.926-10.103 9.45-23.85 13.052-36.396 9.535zm26.472-11.34c4.224-2.437 7.504-7.712 7.504-12.069 0-7.905-4.026-7.928-14.712-.084-9.29 6.819-9.69 7.292-8.885 10.505 1.143 4.552 9.564 5.414 16.093 1.647zm-19.496-.12c2.675-2.676 2.522-4.138-.75-7.198-3.418-3.195-16.044-11.803-17.314-11.803-.515 0-1.879.942-3.03 2.094-3.988 3.988-.256 13.086 6.924 16.88 4.95 2.614 11.569 2.627 14.17.026zm11.087-14.281c4.427-2.983 5.88-6.059 5.898-12.485.013-4.61-.41-5.729-3.409-9-3.333-3.637-3.607-3.735-10.48-3.735-6.598 0-7.265.207-10.24 3.181-2.598 2.6-3.263 4.171-3.629 8.587-.54 6.523 1.399 10.924 6.071 13.773 4.484 2.734 11.466 2.592 15.79-.321zm-14.164-5.643c-1.995-1.995-2.923-3.924-2.923-6.077 0-4.302 4.698-9 9-9 4.301 0 9 4.698 9 9s-4.699 9-9 9c-2.153 0-4.082-.928-6.077-2.923zm31.532.302c2.38-.913 4.545-5.732 4.545-10.117 0-9.006-8.144-17.679-14.376-15.31-3.429 1.304-3.376 3.448.353 14.48 3.876 11.468 4.935 12.69 9.478 10.947zm-44.503-5.981c4.175-11.158 5.476-17.177 4.079-18.86-3.04-3.662-10.942-.595-14.022 5.443-3.15 6.176-2.425 15.706 1.39 18.254.605.404 2.306.741 3.779.75 2.34.013 2.942-.691 4.774-5.587zm29.482-18.373c1.974-.75 2.566-1.673 2.566-4 0-5.371-5.466-9.025-13.5-9.025-8.04 0-13.5 3.653-13.5 9.032 0 2.21.61 3.278 2.25 3.937 3.05 1.226 19 1.266 22.184.056zm-79.434-32.14c-3.025-.484-9.207-2.7-13.736-4.924-33.548-16.472-40.804-59.858-14.38-85.976 17.34-17.14 41.494-20.896 63.372-9.857 12.595 6.356 24.567 21.458 27.664 34.9 1.567 6.8 1.299 20.863-.516 27.04-4.146 14.118-14.234 26.468-27.147 33.237-11.345 5.947-22.22 7.668-35.257 5.58zm19.04-9.893c11.206-2.125 22.665-9.865 28.699-19.386 6.234-9.838 8.253-25.24 4.844-36.966-3.453-11.878-13.92-23.251-25.583-27.799-8.298-3.235-21.897-3.675-30.725-.993-13.503 4.101-24.326 14.925-28.428 28.428-3.116 10.26-2.384 22.852 1.854 31.904 8.82 18.835 28.546 28.756 49.339 24.812zm-17.04-5.36c-11.776-2.568-22.641-11.328-27.802-22.414-2.288-4.915-2.665-7.052-2.68-15.218-.016-8.618.276-10.122 3.156-16.2 4.039-8.526 10.6-15.087 19.125-19.126 6.064-2.872 7.603-3.174 16.2-3.174 8.61 0 10.133.3 16.241 3.193 8.31 3.937 15.427 10.87 19.329 18.829 2.646 5.399 2.93 6.947 2.93 15.978 0 8.772-.33 10.707-2.695 15.753-5.507 11.751-16.56 20.314-29.238 22.653-7.002 1.291-7.432 1.283-14.566-.273zm5-11.632c3.798-3.799 2.73-5.5-8.4-13.396-8.045-5.707-10.543-6.583-12.398-4.348-3.936 4.743-.494 13.704 6.705 17.45 5.54 2.884 11.381 3.006 14.093.294zm19.015.148c6.21-3.3 9.572-10.849 7.378-16.566-1.071-2.79-5.79-1.778-11.98 2.572-11.412 8.017-13.054 10.376-9.758 14.017 2.208 2.44 9.748 2.429 14.36-.023zM185.1 236.45c8.778-4.54 9.407-19.78 1.021-24.722-5.606-3.303-13.181-2.612-17.805 1.625-3.284 3.01-3.7 3.962-4.04 9.25-.302 4.685.047 6.574 1.695 9.202 3.585 5.713 12.757 7.94 19.13 4.645zm-11.318-4.97c-5.564-3.102-6.375-9.037-1.852-13.559 3.853-3.853 8.405-3.94 12.272-.236 7.306 7-1.558 18.735-10.42 13.795zm29.015-1.123c6.718-1.8 6.74-15.907.037-23.043-4.16-4.428-11.827-3.76-11.827 1.032 0 2.811 5.53 19.38 7.1 21.272 1.292 1.557 1.51 1.591 4.69.74zm-43.838-5.961c4.175-11.158 5.476-17.177 4.079-18.86-1.651-1.99-6.964-1.974-9.822.028-5.868 4.11-8.236 16.589-4.137 21.8 1.375 1.747 3.034 2.634 4.928 2.634 2.552 0 3.079-.596 4.952-5.602zm31.86-21.598c.17-1.486-.203-3.661-.831-4.835-3.444-6.434-21.474-6.518-24.901-.115-1.22 2.278-1.434 6.463-.385 7.512.382.382 6.344.57 13.25.416l12.555-.278.311-2.7zm-79.812-30.857c-8.863-1.511-21.332-8.235-28.387-15.307-10.731-10.757-16.142-24.08-15.892-39.136.243-14.597 6.155-27.55 17.374-38.065 10.394-9.74 22.198-14.435 36.3-14.435 15.43 0 27.753 5.095 38.631 15.973 16.73 16.73 20.7 40.452 10.346 61.825-3.307 6.827-12.264 16.503-19.8 21.388-10.479 6.794-25.963 9.908-38.572 7.757zm19.2-10.068c20.715-4.399 34.8-21.96 34.8-43.391 0-19.404-12.126-36.123-30.176-41.606-10.418-3.164-23.933-2.443-32.824 1.75-22.12 10.435-31.56 36.222-21.547 58.863 2.86 6.467 11.13 15.594 17.533 19.349 9.001 5.279 21.711 7.265 32.214 5.035zm-17.202-5.208c-11.876-2.603-22.654-11.195-27.677-22.062-2.5-5.41-2.821-7.244-2.821-16.105 0-8.778.33-10.705 2.703-15.768 3.461-7.387 11.642-15.553 19.297-19.262 5.377-2.606 7.037-2.911 16-2.939 9.13-.028 10.565.237 16.502 3.05 17.778 8.426 26.729 27.908 21.155 46.046-5.911 19.233-25.971 31.245-45.159 27.04zm3.836-11.264c4.255-2.98 2.612-6.176-6.754-13.141-4.63-3.444-9.21-6.262-10.178-6.262-5.273 0-6.303 7.82-1.853 14.07 4.162 5.844 14.048 8.651 18.785 5.333zm20.47-.716c4.868-2.947 7.68-7.24 7.689-11.737.014-7.594-4.641-7.845-14.371-.775-8.059 5.856-9.622 7.472-9.622 9.945 0 5.192 9.496 6.688 16.304 2.567zm-9.588-13.357c5.339-2.533 7.47-6.653 7.025-13.58-.301-4.695-.9-6.306-3.258-8.767-5.478-5.718-15.585-5.972-21.029-.528-3.255 3.255-4.795 9.566-3.504 14.36 2.305 8.561 12.157 12.6 20.766 8.515zm-10.36-4.322c-8.607-3.473-5.936-17.008 3.357-17.008 4.012 0 9.287 4.529 9.287 7.973 0 3.33-2.597 7.522-5.473 8.832-3.012 1.373-4.19 1.406-7.17.203zm30.321-3.407c2.462-2.118 2.79-3.087 2.79-8.258 0-4.07-.62-6.925-2.028-9.351-2.577-4.44-8.087-7.548-11.75-6.629-3.531.886-3.564 4.518-.132 14.637 4.237 12.492 5.995 14.01 11.12 9.601zm-47.933.15c1.962-2.48 6.382-17.733 6.072-20.955-.286-2.983-.654-3.324-3.87-3.595-6.966-.585-11.946 6.118-11.946 16.078 0 3.996.514 5.896 2.039 7.533 2.246 2.41 6.162 2.887 7.705.938zm34.067-25.951c.687-5.949-4.84-9.8-14.065-9.8-6.787 0-12.077 3.1-12.571 7.367-.648 5.597-.345 5.718 13.555 5.413l12.77-.28.311-2.7zm92.189 73.64c-19.87-4.283-36.504-19.92-41.47-38.981-1.916-7.36-1.953-20.28-.078-27.328 4.86-18.258 20.64-33.795 39.25-38.642 7.37-1.92 19.292-1.902 26.745.04 18.81 4.899 35.303 21.404 39.473 39.499 1.567 6.8 1.298 20.863-.516 27.04-5.69 19.372-21.888 34.225-41.905 38.428-8.507 1.786-13.01 1.774-21.5-.056zm20.2-9.555c13.476-2.834 24.441-11.334 30.54-23.675 3.717-7.52 3.76-7.742 3.76-19.658 0-11.491-.15-12.367-3.21-18.826-4.203-8.875-11.754-16.406-20.818-20.763-6-2.885-8.276-3.412-16.315-3.781-11.534-.53-19.753 1.464-27.992 6.79-7.024 4.54-11.236 9.45-15.463 18.028-3.067 6.225-3.202 7.011-3.202 18.552 0 11.916.042 12.137 3.759 19.658 9.038 18.287 28.893 27.892 48.941 23.675zm-16.08-5.012c-11.659-1.937-23.71-11.366-28.835-22.56-5.504-12.023-3.826-27.284 4.199-38.185 15.907-21.608 48.294-21.3 63.598.606 13.236 18.946 6.77 45.071-13.88 56.077-4.586 2.445-16.643 5.624-19.202 5.065-.275-.06-2.921-.512-5.88-1.003zm2.229-10.816c2.804-1.066 4.204-4.245 2.898-6.58-1.322-2.36-17.313-13.477-19.388-13.477-.997 0-2.538 1.107-3.425 2.46-3.106 4.74.748 12.937 7.704 16.38 4.723 2.337 8.321 2.696 12.21 1.217zm20.666-.909c6.21-3.3 9.572-10.849 7.378-16.566-1.071-2.79-5.79-1.778-11.98 2.572-11.412 8.017-13.054 10.376-9.758 14.017 2.208 2.44 9.748 2.429 14.36-.023zm-9.505-13.588c4.651-1.943 7.481-6.822 7.486-12.906.01-8.628-5.388-14.039-13.996-14.039-8.609 0-14.003 5.411-13.997 14.04.01 11.123 9.89 17.342 20.507 12.905zm-10.735-5.119c-5.369-2.913-6.282-8.497-2.187-13.364 2.06-2.448 3.371-3.077 6.412-3.077 3.04 0 4.351.63 6.41 3.077 4.164 4.948 3.167 10.539-2.39 13.413-3.577 1.849-4.761 1.842-8.245-.049zm29.628-1.579c6.178-2.815 5.848-15.707-.577-22.546-4.16-4.428-11.826-3.76-11.826 1.032 0 3.71 5.878 20.047 7.7 21.402 2.03 1.508 1.658 1.5 4.703.112zm-46.01-2.112c2.744-4.29 7.01-19.887 5.916-21.635-1.387-2.215-6.934-2.591-9.867-.669-6.022 3.946-8.547 16.61-4.37 21.92 2.578 3.276 6.359 3.45 8.32.384zm33.433-24.079c1.218-6.351-4.085-10.661-13.126-10.667-6.254-.004-11.019 1.854-12.67 4.94-1.177 2.2-1.366 6.387-.335 7.418.382.382 6.339.57 13.237.416 11.233-.249 12.58-.469 12.894-2.107z" fill="#c38c8f"/><path d="M59.506 444.515c-15.913-3.026-27.107-9.05-39-20.985-10.321-10.358-15.39-18.867-18.515-31.088C.051 384.854.006 381.014.006 222.548c0-179.014-.435-166.684 6.387-181.05C15.291 22.761 31.091 9.37 52.006 2.84l7.5-2.342h239l7.5 2.328c19.686 6.11 36.143 19.79 44.975 37.385 7.56 15.06 7.12 3.038 6.805 185.787l-.28 163.5-2.876 7.853c-7.906 21.598-26.406 38.667-49.652 45.814l-7.472 2.297-115.5.192c-92.615.154-116.887-.072-122.5-1.14zm242.876-5.485c23.075-5.902 41.196-22.815 48.785-45.532l2.339-7 .28-160c.313-178.952.685-168.829-6.757-184-6.861-13.989-16.47-23.604-30.523-30.54-16.134-7.965-6.826-7.46-137.5-7.46-129.75 0-121.113-.435-136.5 6.883-14.787 7.032-24.719 16.8-31.638 31.117-7.23 14.96-6.828 4.318-6.828 180.5 0 176.657-.426 165.693 7.03 180.819 4.891 9.923 14.144 20.239 23.39 26.079 7.684 4.852 11.989 6.72 21.046 9.13 6.63 1.764 13.127 1.865 123.09 1.917 112.294.053 116.341-.009 123.786-1.913zm-191.876-59.054c-14.971-3.005-29.145-13.164-36.952-26.485-4.69-8.003-6.8-16.257-6.774-26.493.04-16.06 5.655-28.828 17.377-39.519 21.76-19.844 54.142-19.187 74.849 1.52 21.23 21.23 21.454 54.243.511 75.43-12.703 12.853-31.977 18.966-49.011 15.547zm21.965-10.51c12.765-3.326 23.019-11.935 28.833-24.21 3.025-6.384 3.202-7.393 3.202-18.258 0-10.864-.177-11.873-3.202-18.258-10.915-23.043-37.474-32.233-60.994-21.106-16.24 7.683-26.448 27.843-23.367 46.15 4.42 26.269 29.584 42.439 55.528 35.681zm-21.441-5.071c-11.087-2.98-20.647-10.853-25.718-21.18-2.534-5.163-2.806-6.735-2.806-16.217 0-9.594.253-11.016 2.94-16.487 3.919-7.983 11.01-14.887 19.319-18.807 6.037-2.849 7.68-3.178 15.74-3.157 7.006.018 10.283.533 14.785 2.322 8.087 3.213 16.788 11.5 20.948 19.949 2.972 6.037 3.264 7.453 3.231 15.659-.046 11.415-2.586 18.306-9.563 25.94-5.914 6.47-11.658 10.023-19.52 12.07-7.113 1.853-12.21 1.829-19.356-.092zm26.829-11.664c4.3-2.595 7.138-7.277 7.143-11.783 0-4.049-1.445-5.95-4.534-5.95-2.15 0-11.595 6.127-16.712 10.841-8.07 7.434 3.685 13.179 14.103 6.892zm-20.788 1.232c1.243-.665 1.935-2.092 1.935-3.993 0-2.519-1.104-3.774-7.437-8.457-4.09-3.025-8.643-6.05-10.118-6.722-2.387-1.087-2.886-.966-4.563 1.104-5.645 6.972 3.505 19.08 14.433 19.097 2.099.003 4.686-.46 5.75-1.03zm11.636-14.924c8.677-5.29 8.315-19.878-.608-24.492-6.114-3.162-14.847-1.582-18.827 3.405-2.346 2.94-3.407 8.81-2.321 12.844.99 3.675 4.979 8.38 8.055 9.498 3.504 1.276 10.62.623 13.701-1.255zm-13.778-5.964c-4.1-4.1-4.04-8.959.153-12.488 4.218-3.55 8.27-3.396 12.124.457 2.632 2.633 2.966 3.55 2.457 6.75-1.244 7.816-9.31 10.706-14.734 5.281zm33.152-1.66c3.392-3.613 3.387-12.315-.01-17.81-4.392-7.107-14.066-8.358-14.066-1.82 0 3.72 5.644 20.37 7.251 21.39 2.235 1.419 4.354.872 6.824-1.76zm-48.331.333c1.962-2.48 6.382-17.732 6.072-20.954-.286-2.983-.654-3.324-3.87-3.595-6.797-.57-11.946 6.316-11.946 15.978 0 6.569 1.965 9.821 5.934 9.821 1.551 0 3.266-.562 3.81-1.25zm31.69-22.725c4.855-1.846 2.393-8.946-4.033-11.63-6.652-2.78-16.972-.934-19.321 3.455-1.848 3.452-1.32 7.118 1.17 8.119 3.05 1.226 19 1.266 22.184.056zm93.167 70.381c-19.211-4.648-35.18-20.169-40.07-38.947-8.764-33.647 17.535-67.459 52.469-67.459 24.133 0 45.329 16.156 52.387 39.932 2.09 7.041 2.099 21.049.017 28.137-3.872 13.182-14.071 26.259-25.552 32.762-11.334 6.42-26.727 8.606-39.251 5.575zm28.639-11.328c12.058-4.651 21.82-14.741 25.783-26.65 1.842-5.534 2.132-8.242 1.792-16.764-.356-8.951-.792-10.966-3.648-16.886-4.47-9.266-11.29-15.98-20.886-20.562-7.584-3.622-8.073-3.716-19.281-3.714-10.593.002-12 .232-17.824 2.92-17.017 7.851-26.176 22.024-26.176 40.502 0 13.426 4.023 23.025 13.345 31.842 9.434 8.922 19.064 12.423 32.655 11.87 5.679-.23 10.404-1.08 14.24-2.558zm-26.216-3.617c-3.012-.845-7.302-2.606-9.535-3.914-5.833-3.418-13.203-11.701-16.31-18.329-2.317-4.944-2.68-7.003-2.68-15.218 0-8.544.311-10.154 3.087-16 3.875-8.16 10.832-15.096 19.345-19.287 5.966-2.937 7.346-3.213 16.069-3.213 8.772 0 10.082.266 16.239 3.297 8.531 4.2 15.264 10.94 19.179 19.2 2.77 5.845 3.082 7.465 3.082 16.003 0 12.575-2.944 19.38-12.08 27.926-10.103 9.45-23.85 13.052-36.396 9.535zm26.472-11.34c4.224-2.437 7.504-7.712 7.504-12.069 0-7.905-4.026-7.928-14.712-.084-9.29 6.819-9.69 7.292-8.885 10.505 1.143 4.552 9.564 5.414 16.093 1.647zm-19.496-.12c2.675-2.676 2.522-4.138-.75-7.198-3.418-3.195-16.044-11.803-17.314-11.803-.515 0-1.879.942-3.03 2.094-3.988 3.988-.256 13.086 6.924 16.88 4.95 2.614 11.569 2.627 14.17.026zm11.087-14.281c4.427-2.983 5.88-6.059 5.898-12.485.013-4.61-.41-5.729-3.409-9-3.333-3.637-3.607-3.735-10.48-3.735-6.598 0-7.265.207-10.24 3.181-2.598 2.6-3.263 4.171-3.629 8.587-.54 6.523 1.399 10.924 6.071 13.773 4.484 2.734 11.466 2.592 15.79-.321zm-14.164-5.643c-1.995-1.995-2.923-3.924-2.923-6.077 0-4.302 4.698-9 9-9 4.301 0 9 4.698 9 9s-4.699 9-9 9c-2.153 0-4.082-.928-6.077-2.923zm31.532.302c2.38-.913 4.545-5.732 4.545-10.117 0-9.006-8.144-17.679-14.376-15.31-3.429 1.304-3.376 3.448.353 14.48 3.876 11.468 4.935 12.69 9.478 10.947zm-44.503-5.981c4.175-11.158 5.476-17.177 4.079-18.86-3.04-3.662-10.942-.595-14.022 5.443-3.15 6.176-2.425 15.706 1.39 18.254.605.404 2.306.741 3.779.75 2.34.013 2.942-.691 4.774-5.587zm29.482-18.373c1.974-.75 2.566-1.673 2.566-4 0-5.371-5.466-9.025-13.5-9.025-8.04 0-13.5 3.653-13.5 9.032 0 2.21.61 3.278 2.25 3.937 3.05 1.226 19 1.266 22.184.056zm-79.434-32.14c-3.025-.484-9.207-2.7-13.736-4.924-33.548-16.472-40.804-59.858-14.38-85.976 17.34-17.14 41.494-20.896 63.372-9.857 12.595 6.356 24.567 21.458 27.664 34.9 1.567 6.8 1.299 20.863-.516 27.04-4.146 14.118-14.234 26.468-27.147 33.237-11.345 5.947-22.22 7.668-35.257 5.58zm19.04-9.893c11.206-2.125 22.665-9.865 28.699-19.386 6.234-9.838 8.253-25.24 4.844-36.966-3.453-11.878-13.92-23.251-25.583-27.799-8.298-3.235-21.897-3.675-30.725-.993-13.503 4.101-24.326 14.925-28.428 28.428-3.116 10.26-2.384 22.852 1.854 31.904 8.82 18.835 28.546 28.756 49.339 24.812zm-20.754-6.386c-27.294-8.895-35.872-43.862-15.707-64.027 18.015-18.016 50.462-13.242 61.742 9.084 9.936 19.663 2.373 42.962-17.048 52.523-5.716 2.814-7.753 3.27-15.672 3.514-5.742.176-10.657-.228-13.315-1.094zm26.214-9.496c6.243-2.882 10.5-8.628 10.5-14.175 0-1.995-3.278-5.935-4.937-5.935-1.27 0-13.896 8.608-17.313 11.803-3.449 3.224-3.48 5.477-.116 8.124 3.236 2.546 6.633 2.598 11.866.183zm-17.46-.941c3.83-3.101 2.075-6.063-7.695-12.994-4.788-3.396-9.376-6.175-10.197-6.175-2.63 0-5.148 3.181-5.148 6.505 0 4.076 4.636 10.576 9.12 12.785 4.552 2.242 11.07 2.186 13.92-.121zm10.898-14.058c11.653-8.292 7.628-25.278-6.364-26.855-10.118-1.14-18.811 9.436-15.644 19.032 2.923 8.857 14.68 13.037 22.008 7.823zm-13.202-5.36c-3.8-2.886-4.211-10.106-.755-13.234.974-.881 3.323-1.854 5.22-2.162 5.183-.841 9.253 2.962 9.253 8.646 0 3.21-.557 4.664-2.338 6.106-2.68 2.17-8.906 2.522-11.38.643zm-15.998-1.7c2.119-2.275 7.262-17.42 7.262-21.385 0-3.74-3.804-5.193-8.482-3.238-5.208 2.176-8.947 8.573-8.947 15.309 0 4.926.333 5.788 3.23 8.377 3.82 3.413 4.54 3.51 6.937.936zm48.807-.505c2.021-2.022 2.455-3.443 2.455-8.05 0-3.077-.66-6.87-1.465-8.426-4.557-8.813-15.535-11.02-15.535-3.123 0 3.475 4.901 18.142 6.784 20.303 2.122 2.434 4.872 2.184 7.761-.704zm-15.514-23.37c1.92-1.554 2.11-2.257 1.283-4.75-1.148-3.468-6.158-7.118-11.023-8.031-9.67-1.814-20.692 7.205-15.343 12.554 1.805 1.805 3.299 2.051 12.44 2.051 8.566 0 10.785-.32 12.643-1.824zm-79.031-33.233c-8.863-1.511-21.332-8.235-28.387-15.307-10.731-10.757-16.142-24.08-15.892-39.136.243-14.597 6.155-27.55 17.374-38.065 10.394-9.74 22.198-14.435 36.3-14.435 15.43 0 27.753 5.095 38.631 15.973 16.73 16.73 20.7 40.452 10.346 61.825-3.307 6.827-12.264 16.503-19.8 21.388-10.479 6.794-25.963 9.908-38.572 7.757zm19.2-10.068c20.715-4.399 34.8-21.96 34.8-43.391 0-19.404-12.126-36.123-30.176-41.606-10.418-3.164-23.933-2.443-32.824 1.75-22.12 10.435-31.56 36.222-21.547 58.863 2.86 6.467 11.13 15.594 17.533 19.349 9.001 5.279 21.711 7.265 32.214 5.035zm-17.202-5.208c-11.876-2.603-22.654-11.195-27.677-22.062-2.5-5.41-2.821-7.244-2.821-16.105 0-8.778.33-10.705 2.703-15.768 3.461-7.387 11.642-15.553 19.297-19.262 5.377-2.606 7.037-2.911 16-2.939 9.13-.028 10.565.237 16.502 3.05 17.778 8.426 26.729 27.908 21.155 46.046-5.911 19.233-25.971 31.245-45.159 27.04zm3.836-11.264c4.255-2.98 2.612-6.176-6.754-13.141-4.63-3.444-9.21-6.262-10.178-6.262-5.273 0-6.303 7.82-1.853 14.07 4.162 5.844 14.048 8.651 18.785 5.333zm20.47-.716c4.868-2.947 7.68-7.24 7.689-11.737.014-7.594-4.641-7.845-14.371-.775-8.059 5.856-9.622 7.472-9.622 9.945 0 5.192 9.496 6.688 16.304 2.567zm-9.588-13.357c5.339-2.533 7.47-6.653 7.025-13.58-.301-4.695-.9-6.306-3.258-8.767-5.478-5.718-15.585-5.972-21.029-.528-3.255 3.255-4.795 9.566-3.504 14.36 2.305 8.561 12.157 12.6 20.766 8.515zm-10.36-4.322c-8.607-3.473-5.936-17.008 3.357-17.008 4.012 0 9.287 4.529 9.287 7.973 0 3.33-2.597 7.522-5.473 8.832-3.012 1.373-4.19 1.406-7.17.203zm30.321-3.407c2.462-2.118 2.79-3.087 2.79-8.258 0-4.07-.62-6.925-2.028-9.351-2.577-4.44-8.087-7.548-11.75-6.629-3.531.886-3.564 4.518-.132 14.637 4.237 12.492 5.995 14.01 11.12 9.601zm-47.933.15c1.962-2.48 6.382-17.733 6.072-20.955-.286-2.983-.654-3.324-3.87-3.595-6.966-.585-11.946 6.118-11.946 16.078 0 3.996.514 5.896 2.039 7.533 2.246 2.41 6.162 2.887 7.705.938zm34.067-25.951c.687-5.949-4.84-9.8-14.065-9.8-6.787 0-12.077 3.1-12.571 7.367-.648 5.597-.345 5.718 13.555 5.413l12.77-.28.311-2.7zm92.189 73.64c-19.87-4.283-36.504-19.92-41.47-38.981-1.916-7.36-1.953-20.28-.078-27.328 4.86-18.258 20.64-33.795 39.25-38.642 7.37-1.92 19.292-1.902 26.745.04 18.81 4.899 35.303 21.404 39.473 39.499 1.567 6.8 1.298 20.863-.516 27.04-5.69 19.372-21.888 34.225-41.905 38.428-8.507 1.786-13.01 1.774-21.5-.056zm20.2-9.555c13.476-2.834 24.441-11.334 30.54-23.675 3.717-7.52 3.76-7.742 3.76-19.658 0-11.491-.15-12.367-3.21-18.826-4.203-8.875-11.754-16.406-20.818-20.763-6-2.885-8.276-3.412-16.315-3.781-11.534-.53-19.753 1.464-27.992 6.79-7.024 4.54-11.236 9.45-15.463 18.028-3.067 6.225-3.202 7.011-3.202 18.552 0 11.916.042 12.137 3.759 19.658 9.038 18.287 28.893 27.892 48.941 23.675zm-16.08-5.012c-11.659-1.937-23.71-11.366-28.835-22.56-5.504-12.023-3.826-27.284 4.199-38.185 15.907-21.608 48.294-21.3 63.598.606 13.236 18.946 6.77 45.071-13.88 56.077-4.586 2.445-16.643 5.624-19.202 5.065-.275-.06-2.921-.512-5.88-1.003zm2.229-10.816c2.804-1.066 4.204-4.245 2.898-6.58-1.322-2.36-17.313-13.477-19.388-13.477-.997 0-2.538 1.107-3.425 2.46-3.106 4.74.748 12.937 7.704 16.38 4.723 2.337 8.321 2.696 12.21 1.217zm20.666-.909c6.21-3.3 9.572-10.849 7.378-16.566-1.071-2.79-5.79-1.778-11.98 2.572-11.412 8.017-13.054 10.376-9.758 14.017 2.208 2.44 9.748 2.429 14.36-.023zm-9.505-13.588c4.651-1.943 7.481-6.822 7.486-12.906.01-8.628-5.388-14.039-13.996-14.039-8.609 0-14.003 5.411-13.997 14.04.01 11.123 9.89 17.342 20.507 12.905zm-10.735-5.119c-5.369-2.913-6.282-8.497-2.187-13.364 2.06-2.448 3.371-3.077 6.412-3.077 3.04 0 4.351.63 6.41 3.077 4.164 4.948 3.167 10.539-2.39 13.413-3.577 1.849-4.761 1.842-8.245-.049zm29.628-1.579c6.178-2.815 5.848-15.707-.577-22.546-4.16-4.428-11.826-3.76-11.826 1.032 0 3.71 5.878 20.047 7.7 21.402 2.03 1.508 1.658 1.5 4.703.112zm-46.01-2.112c2.744-4.29 7.01-19.887 5.916-21.635-1.387-2.215-6.934-2.591-9.867-.669-6.022 3.946-8.547 16.61-4.37 21.92 2.578 3.276 6.359 3.45 8.32.384zm33.433-24.079c1.218-6.351-4.085-10.661-13.126-10.667-6.254-.004-11.019 1.854-12.67 4.94-1.177 2.2-1.366 6.387-.335 7.418.382.382 6.339.57 13.237.416 11.233-.249 12.58-.469 12.894-2.107z" fill="#8b909e"/><path d="M54.118 442.965c-28.078-7.399-48.971-29.647-53.105-56.55-.727-4.727-.975-57.89-.785-167.917l.278-161 2.724-8c7.135-20.95 22.067-36.36 42.791-44.158 4.684-1.763 12.334-3.707 17-4.32C68.961.24 105.406 0 184.506.224l113 .32 7.472 2.292c28.782 8.83 47.735 29.885 52.031 57.804.717 4.656.966 58.234.776 166.858l-.28 160-2.348 7c-4.055 12.085-9.044 20.408-17.14 28.593-8.536 8.63-17.876 14.516-29.511 18.6l-8 2.807-119.5.207c-115.575.2-119.743.143-126.888-1.74zm248.388-3.236c19.105-5.526 36.33-19.413 44.319-35.73 7.73-15.794 7.182-1.94 7.166-180.961-.016-177.753.392-166.524-6.566-180.627-8.41-17.047-24.254-30.062-43.92-36.078-5.677-1.736-12.402-1.835-125-1.835h-119l-8 2.724c-11.19 3.812-19.717 9.106-27.942 17.352-7.787 7.806-12.46 14.968-16.435 25.183l-2.622 6.741v331l2.415 7.376c6.03 18.407 23.235 35.808 42.255 42.733 11.526 4.197 13.193 4.248 132.83 4.048 105.363-.175 114.978-.329 120.5-1.926zm-197.5-61.619c-18.715-6.057-32.218-20.207-36.46-38.205-4.434-18.809.853-37.58 14.344-50.928 28.004-27.707 76.582-16.497 88.932 20.521 9.815 29.42-7.003 61.323-36.358 68.969-8.078 2.104-23.41 1.925-30.458-.357zm27.483-8.305c11.195-2.838 23.178-12.607 28.333-23.097 8.64-17.583 5.757-35.997-7.856-50.172-7.138-7.435-15.374-11.869-25.21-13.573-21.723-3.765-44.615 11.054-50.198 32.495-4.08 15.668.133 31.165 11.6 42.673 11.56 11.6 27.105 15.788 43.33 11.674zm-25.818-7.196c-11.121-4.682-16.544-9.832-21.478-20.398-2.298-4.922-2.668-7.028-2.677-15.213-.01-8.609.287-10.128 3.164-16.2 3.894-8.22 10.028-14.525 17.88-18.38 5.523-2.712 6.763-2.92 17.446-2.92 10.98 0 11.77.143 17.5 3.165 7.335 3.869 13.444 10.032 17.184 17.335 2.605 5.09 2.816 6.358 2.816 17 0 11.176-.096 11.676-3.39 17.752-4.134 7.623-10.382 13.56-17.935 17.046-4.59 2.117-7.492 2.68-15.175 2.943-8.283.284-10.248.011-15.335-2.13zm8.02-7.656c1.548-.575 3.332-1.724 3.965-2.554.997-1.31 1.489-1.17 3.704 1.045 8.52 8.519 29.092-7.252 21.707-16.641l-2.017-2.564 2.935-.587c8.54-1.708 7.637-19.258-1.27-24.69-4.081-2.488-6.927-2.486-9.182.006-1.715 1.895-1.68 2.299.952 10.75 1.504 4.829 3.333 9.94 4.065 11.36 1.3 2.52 1.178 2.678-5.346 6.968-3.672 2.414-8.305 5.86-10.294 7.658l-3.618 3.268-1.893-2.093c-2.638-2.917-16.923-12.88-18.467-12.88-2.326 0-4.926 3.274-4.926 6.204 0 5.843 4.966 11.951 11.655 14.336 4.747 1.693 4.604 1.686 8.03.414zm14.253-15.795c4.603-3.368 6.446-6.845 6.446-12.16 0-11.309-11.33-18.125-21.28-12.801-11.415 6.108-10.314 21.633 1.896 26.723 3.29 1.372 9.882.474 12.938-1.762zm-14.866-6.795c-2.742-3.486-2.622-7.615.321-11.036 3.218-3.74 9.857-3.973 12.713-.445 2.567 3.17 2.512 9.498-.106 12.116-3.123 3.123-10.247 2.773-12.928-.635zm-14.39-.69c1.006-1.278 3.157-6.48 4.78-11.559 3.364-10.525 2.978-12.43-2.617-12.915-8.648-.748-15.85 13.09-11.345 21.799 2.694 5.211 6.35 6.276 9.183 2.676zm33.118-22.875c2.12-2.12 1.357-6.275-1.69-9.194-5.838-5.594-16.467-5.403-22.268.398-3.237 3.237-3.57 5.534-1.187 8.167 1.414 1.564 3.272 1.83 12.8 1.83 7.335 0 11.555-.411 12.345-1.2zm87.2 68.924c-18.455-6.314-30.444-19.232-35.16-37.884-4.819-19.054 1.515-40.18 15.82-52.773 5.547-4.882 16.284-10.456 23.34-12.117 3.025-.712 8.875-1.295 13-1.295 23.747 0 43.567 14.003 51.174 36.155 3.27 9.522 3.259 24.89-.025 34.456-5.633 16.409-18.14 28.465-35.005 33.744-9.137 2.861-24.332 2.73-33.144-.286zm31.606-8.775c20.256-6.912 33.15-28.253 29.594-48.984-3.255-18.986-18.237-33.8-37.45-37.034-23.61-3.974-46.847 13.07-51.018 37.42-1.392 8.125-.123 16.931 3.614 25.094 2.82 6.159 11.058 15.488 17.018 19.271 10.99 6.977 25.497 8.583 38.242 4.233zm-26.32-5.343c-32.964-10.743-36.443-55.813-5.493-71.152 7.435-3.685 21.248-4.629 29.445-2.012 11.039 3.524 20.264 12.443 24.368 23.558 2.528 6.846 2.267 20.023-.54 27.285-3.141 8.126-11.21 16.601-19.284 20.258-5.127 2.321-7.938 2.899-15.282 3.14-5.698.187-10.547-.208-13.214-1.077zm8.898-10.273c3.746-3.39 1.993-5.957-10.044-14.709-6.937-5.043-8.552-5.467-11.312-2.969-3.776 3.417-1.52 11.191 4.605 15.862 6.117 4.666 12.802 5.39 16.75 1.816zm17.115 1.053c7.815-3.941 11.96-10.933 9.706-16.373-2.13-5.144-4.052-4.888-13.505 1.796-7.647 5.407-10.5 8.348-10.5 10.821 0 4.86 7.963 6.952 14.3 3.756zm-8.97-13.75c6.454-2.697 10.848-10.81 9.266-17.111-.944-3.762-6.257-9.258-10.21-10.563-9.985-3.295-20.878 6.269-18.935 16.625 1.197 6.38 7.929 11.974 14.832 12.323.98.05 3.25-.524 5.046-1.274zm-11.355-7.456c-3.087-2.5-3.146-9.453-.106-12.493 2.974-2.974 9.336-2.927 12.354.09 3.16 3.161 3.104 9.73-.106 12.33-3.007 2.435-9.18 2.472-12.142.073zm-15.676-.43c1.78-1.323 7.702-17.654 7.702-21.238 0-3.04-1.904-4.512-5.832-4.512-7.19 0-13.778 11.686-11.283 20.013 1.107 3.695 4.238 6.987 6.646 6.987.597 0 1.843-.562 2.767-1.25zm49.247-1.204c1.962-1.962 2.455-3.475 2.455-7.533 0-6.414-1.849-10.866-5.941-14.31-5.264-4.429-11.06-3.253-11.06 2.244 0 3.475 4.902 18.142 6.785 20.303 2.122 2.434 4.872 2.184 7.761-.704zm-15.026-23.568c1.722-1.902 1.733-2.225.193-5.455-2.088-4.379-6.803-6.809-13.212-6.809-6.41 0-11.125 2.43-13.213 6.81-1.54 3.23-1.529 3.552.193 5.454 1.628 1.8 3.06 2.022 13.02 2.022 9.96 0 11.39-.222 13.02-2.022zm-85.52-32.424c-19.906-5.603-34.4-20.797-38.56-40.423-1.79-8.449-1.773-13.884.072-22.63 8.72-41.35 60.523-56.54 90.604-26.568 11.384 11.342 16.582 25.069 15.55 41.067-1.538 23.827-16.748 42.414-39.71 48.525-6.599 1.756-21.765 1.772-27.955.03zm32.288-11.295c28.7-13.483 35.524-49.05 13.692-71.36-10.156-10.38-24.356-15.28-38.11-13.15-35.75 5.533-51.107 48.03-26.688 73.85 10.112 10.691 19.563 14.587 34.319 14.147 8.807-.263 10.81-.679 16.787-3.487zm-30.001-3.653c-27.294-8.895-35.872-43.862-15.707-64.027 18.015-18.016 50.462-13.242 61.742 9.084 9.936 19.663 2.373 42.962-17.048 52.523-5.716 2.814-7.753 3.27-15.672 3.514-5.742.176-10.657-.228-13.315-1.094zm26.214-9.496c6.243-2.882 10.5-8.628 10.5-14.175 0-1.995-3.278-5.935-4.937-5.935-1.27 0-13.896 8.608-17.313 11.803-3.449 3.224-3.48 5.477-.116 8.124 3.236 2.546 6.633 2.598 11.866.183zm-17.46-.941c3.83-3.101 2.075-6.063-7.695-12.994-4.788-3.396-9.376-6.175-10.197-6.175-2.63 0-5.148 3.181-5.148 6.505 0 4.076 4.636 10.576 9.12 12.785 4.552 2.242 11.07 2.186 13.92-.121zm10.898-14.058c11.653-8.292 7.628-25.278-6.364-26.855-10.118-1.14-18.811 9.436-15.644 19.032 2.923 8.857 14.68 13.037 22.008 7.823zm-13.202-5.36c-3.8-2.886-4.211-10.106-.755-13.234.974-.881 3.323-1.854 5.22-2.162 5.183-.841 9.253 2.962 9.253 8.646 0 3.21-.557 4.664-2.338 6.106-2.68 2.17-8.906 2.522-11.38.643zm-15.998-1.7c2.119-2.275 7.262-17.42 7.262-21.385 0-3.74-3.804-5.193-8.482-3.238-5.208 2.176-8.947 8.573-8.947 15.309 0 4.926.333 5.788 3.23 8.377 3.82 3.413 4.54 3.51 6.937.936zm48.807-.505c2.021-2.022 2.455-3.443 2.455-8.05 0-3.077-.66-6.87-1.465-8.426-4.557-8.813-15.535-11.02-15.535-3.123 0 3.475 4.901 18.142 6.784 20.303 2.122 2.434 4.872 2.184 7.761-.704zm-15.514-23.37c1.92-1.554 2.11-2.257 1.283-4.75-1.148-3.468-6.158-7.118-11.023-8.031-9.67-1.814-20.692 7.205-15.343 12.554 1.805 1.805 3.299 2.051 12.44 2.051 8.566 0 10.785-.32 12.643-1.824zm-82.76-34.613c-23.815-5.77-40.271-27.184-40.271-52.402 0-14.133 5.112-26.276 15.478-36.767 9.99-10.11 20.177-14.842 34.388-15.975 35.456-2.826 63.955 29.113 56.733 63.581-4.34 20.714-19.005 36.224-39.23 41.492-6.902 1.798-19.832 1.832-27.097.071zm26.916-9.539c16.187-5 28.104-18.796 30.91-35.783 4.769-28.879-22.159-55.41-51.185-50.433-13.203 2.264-23.729 9.199-30.972 20.405-15.579 24.104-3.622 56.248 24.546 65.988 6.929 2.396 18.621 2.319 26.7-.177zm-24.258-5.391c-10.658-2.874-21.152-12.268-24.902-22.29-8.965-23.96 4.493-48.066 29.24-52.376 16.98-2.957 33.948 5.555 41.388 20.76 2.324 4.751 2.853 7.302 3.162 15.24.417 10.754-1.413 17.413-6.848 24.917-8.68 11.981-26.717 17.88-42.04 13.749zm28.02-10.981c2.273-1.504 4.707-4.376 6.036-7.122 1.923-3.971 2.061-5.003 1.014-7.532-2.019-4.873-4.386-4.746-12.242.654-3.878 2.667-8.316 6.023-9.861 7.459l-2.81 2.61-2.293-2.457c-3.667-3.929-15.997-12.264-18.142-12.264-1.84 0-1.859-.113-.298-1.838 1.776-1.963 7.647-18.335 7.647-21.326 0-2.55-4.373-5.162-7.201-4.304-3.425 1.04-6.834 4.471-8.91 8.968-3.34 7.238-1.953 14.382 3.322 17.11 2.343 1.211 2.65 1.781 1.805 3.359-3.983 7.443 3.781 17.825 14.071 18.814 4.24.407 5.38.127 7.465-1.832 2.191-2.059 2.599-2.142 3.705-.756 3.581 4.486 10.325 4.67 16.693.457zm-9.131-13.682c4.28-2.61 7.62-9.822 6.734-14.543-1.207-6.432-8.25-12.427-14.602-12.427-9.296 0-16.807 9.467-14.573 18.369.784 3.124 5.304 8.555 8.04 9.662 3.884 1.571 10.935 1.051 14.4-1.061zm-13.517-5.471c-1.179-.826-2.446-2.88-2.816-4.566-1.838-8.37 7.183-14.128 13.88-8.86 3.52 2.769 3.764 9.797.446 12.888-2.62 2.44-8.407 2.71-11.51.538zm33.11-2.576c6.285-7.47-.23-23.923-9.475-23.923-2.613 0-5.936 2.186-5.936 3.905 0 .418 1.35 4.964 3.002 10.102 4.35 13.538 7.347 15.932 12.409 9.916zm-16.346-21.958c2.343-1.254 2.563-5.622.436-8.66-.824-1.176-3.505-2.905-5.958-3.841-6.423-2.454-12.89-1.318-17.233 3.026-3.855 3.855-4.21 6.767-1.088 8.953 2.617 1.834 20.655 2.228 23.843.522zm91.043 69.514c-7.886-2.21-12.924-4.674-19.082-9.336-26.206-19.839-27.86-59.73-3.404-82.08 9.157-8.37 23.83-14.028 36.378-14.028 13.806 0 28.174 5.993 38.115 15.898 27.573 27.472 17.46 74.315-18.97 87.862-8.51 3.165-24.791 3.995-33.037 1.684zm32.18-11.225c28.629-13.429 35.56-49.501 13.72-71.393-10.41-10.433-25.104-15.45-38.522-13.151-19.519 3.343-34.393 18.048-37.687 37.255-2.297 13.395 1.754 26.118 11.755 36.921 5.525 5.968 14.212 11.352 21.063 13.056 2.136.53 8.158.86 13.383.73 8.31-.205 10.35-.633 16.287-3.418zm-30.452-4.108c-7.276-2.41-11.764-5.216-16.205-10.132-13.802-15.278-13.425-39.273.842-53.54 14.608-14.608 40.379-14.674 54.912-.141 18.607 18.607 13.36 50.573-10.145 61.79-8.595 4.103-20.627 4.93-29.404 2.023zm26.875-9.248c7.8-3.776 12.217-12.306 8.952-17.288-1.511-2.307-1.473-2.44.86-3.026 4.875-1.224 7.078-10.816 4.113-17.913-3.803-9.1-15.636-11.919-15.636-3.724 0 3.348 4.868 18.16 6.56 19.958 1.112 1.183.737 1.698-2.37 3.261-5.783 2.91-16.658 12.194-16.995 14.51-.381 2.62 4.083 6.324 7.624 6.324 1.402 0 4.503-.946 6.892-2.102zm-17.711-.898c3.726-3.727 2.63-5.626-7.5-12.981-8.368-6.076-10.866-6.903-13.54-4.482-4.305 3.895-1.081 12.479 6.363 16.94 5.286 3.17 11.799 3.4 14.677.523zm11.102-14.27c12.775-8.535 5.628-28.2-9.625-26.48-5.454.614-8.916 3.174-11.583 8.564-2.367 4.784-2.153 9.617.614 13.84 4.175 6.371 14.19 8.354 20.594 4.076zm-13.277-4.768c-.922-.538-2.173-2.484-2.78-4.326-1.333-4.036-.189-7.722 3.114-10.035 7.269-5.091 16.547 3.265 12.44 11.205-.839 1.623-2.254 3.231-3.144 3.573-2.412.925-7.724.695-9.63-.417zm-16.367-1.916c2.21-2.442 7.542-17.479 7.542-21.27 0-3.845-3.65-5.578-7.976-3.786-9.471 3.923-12.948 18.53-5.835 24.516 3.57 3.004 4.005 3.041 6.269.54zm33.593-24.097c2.108-2.109 1.959-4.881-.424-7.857-1.697-2.12-8.731-5.048-12.127-5.048-3.397 0-10.43 2.928-12.128 5.048-2.383 2.976-2.532 5.748-.424 7.857 1.808 1.808 3.298 2.051 12.552 2.051s10.743-.243 12.55-2.051z" fill="#5c606f"/><path d="M54.118 442.965c-28.078-7.399-48.971-29.647-53.105-56.55-.727-4.727-.975-57.89-.785-167.917l.278-161 2.724-8c7.135-20.95 22.067-36.36 42.791-44.158 4.684-1.763 12.334-3.707 17-4.32C68.961.24 105.406 0 184.506.224l113 .32 7.472 2.292c28.782 8.83 47.735 29.885 52.031 57.804.717 4.656.966 58.234.776 166.858l-.28 160-2.348 7c-4.055 12.085-9.044 20.408-17.14 28.593-8.536 8.63-17.876 14.516-29.511 18.6l-8 2.807-119.5.207c-115.575.2-119.743.143-126.888-1.74zm248.388-3.236c19.105-5.526 36.33-19.413 44.319-35.73 7.73-15.794 7.182-1.94 7.166-180.961-.016-177.753.392-166.524-6.566-180.627-8.41-17.047-24.254-30.062-43.92-36.078-5.677-1.736-12.402-1.835-125-1.835h-119l-8 2.724c-11.19 3.812-19.717 9.106-27.942 17.352-7.787 7.806-12.46 14.968-16.435 25.183l-2.622 6.741v331l2.415 7.376c6.03 18.407 23.235 35.808 42.255 42.733 11.526 4.197 13.193 4.248 132.83 4.048 105.363-.175 114.978-.329 120.5-1.926zm-196.25-61.276c-6.799-1.83-11.548-4.295-18.562-9.63-25.266-19.216-27.688-56.714-5.121-79.281 10.689-10.689 23.48-15.892 38.933-15.837 15.314.056 28.206 5.808 38.898 17.357 27.133 29.306 13.661 75.748-25.33 87.324-6.717 1.994-21.534 2.028-28.818.067zm28.296-9c6.686-1.845 16.217-8.11 20.746-13.636 22.225-27.123 6.748-67.586-27.916-72.983-27.009-4.205-51.315 16.77-51.365 44.325-.03 17.033 9.89 32.69 25.265 39.879 10.52 4.918 21.349 5.704 33.27 2.415zm-25.046-5.797c-13.312-4.398-22.661-14.318-26.084-27.676-4.409-17.211 4.072-35.178 20.396-43.208 6.24-3.07 7.314-3.274 17.172-3.274 9.611 0 11.03.253 16.503 2.94 7.638 3.75 14.895 11.007 18.324 18.324 2.383 5.084 2.689 6.93 2.689 16.236 0 9.597-.254 11.016-2.944 16.5-3.667 7.473-10.758 14.493-18.291 18.105-4.722 2.264-7.394 2.82-14.765 3.069-5.587.19-10.518-.196-13-1.016zm8.575-10.226c1.707-1.545 2.004-1.515 4.51.457 6.443 5.068 18.176.425 22.094-8.743 1.665-3.893.951-8.675-1.508-10.11-1.387-.809-1.216-.98 1.006-1.006 4.033-.045 6.823-4.215 6.823-10.197 0-6.293-1.885-10.717-6.066-14.234-2.736-2.303-4.01-2.718-7.081-2.306-3.687.494-3.75.446-4.05-3.113-.767-9.125-18.05-12.034-25.053-4.217-1.513 1.688-2.75 3.962-2.75 5.053 0 1.677-.679 1.984-4.382 1.984-3.61 0-4.932.563-7.507 3.198-6.803 6.958-6.83 18.57-.053 22.691 1.842 1.12 2.667 2.163 2.025 2.56-.596.368-1.084 2.563-1.084 4.878 0 6.898 3.96 11.472 13 15.018 2.426.952 8.1-.126 10.076-1.913zm1.286-5.75c-1.238-2.213-17.206-13.682-19.048-13.682-1.131 0-1.123-.378.049-2.25 2.387-3.813 6.871-18.745 6.388-21.272-.402-2.102-.223-2.266 1.483-1.353 1.138.61 6.816.901 13.727.707 8.952-.252 11.675-.04 11.32.884-.492 1.276 5.364 19.991 6.845 21.877.546.696-.03 1.498-1.583 2.206-3.634 1.656-17.292 11.95-17.774 13.396-.287.86-.729.7-1.408-.514zm8.263-7.742c4.53-2.193 8.397-8.213 8.354-13.006-.044-4.855-3.62-10.71-7.863-12.875-13.198-6.733-26.453 5.624-20.729 19.325 3.162 7.567 12.14 10.476 20.238 6.556zm-12.6-6.914c-4.483-4.484-3.292-11.18 2.413-13.564 3.816-1.595 5.946-1.169 9.313 1.861 3.102 2.793 3.07 8.558-.064 11.503-3.011 2.828-8.93 2.93-11.66.2zm107.667 45.473c-14.233-3.912-27.874-15.343-34.166-28.628-11.645-24.59-3.37-52.885 19.902-68.04 15.905-10.357 37.144-10.982 54.805-1.612 15.932 8.452 27.738 28.363 27.738 46.781 0 23.433-17.111 45.428-40.101 51.547-6.607 1.759-21.701 1.733-28.178-.048zm26.792-8.697c18.494-4.663 32.517-23.12 32.517-42.802 0-26.998-24.522-48.133-51.247-44.166-36.548 5.425-51.515 49.493-25.622 75.444 11.551 11.578 27.599 15.747 44.352 11.524zm-24.983-6.547c-13.514-4.849-22.903-15.932-25.465-30.06-2.98-16.432 6.205-33.729 21.79-41.035 5.015-2.35 6.895-2.66 16.175-2.66 9.28 0 11.159.31 16.175 2.66 11.612 5.444 20.714 17.793 22.265 30.209 1.988 15.91-7.06 31.894-22.263 39.333-7.325 3.584-20.96 4.322-28.677 1.553zm9.684-9.922c3.706-3.354 2.357-5.957-6.414-12.382-4.527-3.315-9.233-6.28-10.46-6.588-2.028-.509-2.102-.752-.828-2.711 1.722-2.648 6.487-17.41 6.505-20.152.012-1.9.683-2 13.513-2h13.5v3.075c0 3.047 3.737 15.197 5.94 19.315.955 1.783.847 2.248-.647 2.789-.987.357-5.506 3.306-10.043 6.553-7.052 5.047-8.25 6.322-8.25 8.78 0 9.132 16.798 7.308 22.514-2.446 3.006-5.13 3.164-8.888.486-11.566-2-2-2-2 .427-2 6.487 0 8.946-12.275 4.11-20.525-2.735-4.668-7.041-7.023-11.293-6.176-2.481.494-2.755.263-2.853-2.41-.15-4.113-3.745-7.534-9.322-8.872-8.946-2.146-18.21 2.218-18.461 8.698-.103 2.651-.313 2.768-4.358 2.434-3.727-.307-4.666.067-7.647 3.047-3.148 3.149-5.585 8.844-5.598 13.086-.01 3.357 2.89 8.713 5.317 9.819 2.138.974 2.305 1.426 1.405 3.811-4.155 11.008 13.873 24.19 22.457 16.421zm9.78-13.583c13.104-6.72 9.34-25.834-5.414-27.497-11.902-1.342-20.117 10.836-14.602 21.646 1.57 3.078 3.326 4.777 6.36 6.154 5.484 2.49 8.332 2.427 13.656-.303zm-12.641-7c-3.007-3.34-3.458-5.493-1.921-9.17 3.943-9.437 19.033-4.005 15.67 5.64-1.403 4.028-3.787 5.71-8.148 5.748-2.47.022-4.203-.664-5.601-2.218zm-67.211-57.33c-26.43-7.108-43.63-33.635-39.126-60.341 2.423-14.363 12.721-29.721 24.596-36.68 16.902-9.905 35.062-10.7 52.264-2.288 17.727 8.669 28.436 24.615 29.81 44.39 1.747 25.154-15.32 48.488-40.209 54.97-7.274 1.895-20.187 1.87-27.335-.052zm30.888-10.251c29.98-11.745 37.5-51.172 14.027-73.561-17.792-16.97-45.173-16.612-62.596.82-7.27 7.274-11.204 14.884-12.705 24.58-3.29 21.257 8.96 41.683 29.247 48.77 8.58 2.997 23.547 2.713 32.027-.61zm-27.5-4.571c-19.218-6.094-30.786-24.282-27.411-43.098 4.666-26.012 32.845-39.672 56.213-27.25 29.865 15.876 25.75 59.852-6.542 69.902-6.781 2.11-16.403 2.303-22.26.446zm24.184-8.662c3.449-1.303 8.01-5.51 9.905-9.136 1.838-3.518 1.787-6.817-.146-9.577-1.452-2.073-1.423-2.223.427-2.223 3.471 0 6.13-4.63 6.13-10.675 0-9.918-5.555-16.864-12.925-16.16-3.378.321-3.668.154-3.277-1.892.679-3.55-5.343-8.932-10.93-9.77-8.878-1.331-17.029 3.09-17.26 9.361-.092 2.507-.371 2.793-1.917 1.968-6.108-3.26-15.656 6.753-15.686 16.45-.01 3.401 2.904 8.72 5.402 9.858 2.006.914 2.318 1.504 1.552 2.936-2.624 4.903.454 12.264 6.962 16.65 6.997 4.715 17.78 2.24 16.909-3.88-.38-2.666-15.986-14.846-19.023-14.846-1.69 0-1.724-.2-.39-2.25 1.772-2.724 6.552-17.457 6.57-20.25.012-1.9.683-2 13.513-2h13.5l.013 2.5c.013 2.55 4.27 16.792 5.968 19.964.735 1.375.418 1.989-1.472 2.85-1.325.603-5.806 3.61-9.959 6.681-6.385 4.722-7.55 6.032-7.55 8.488 0 5.178 6.685 7.598 13.685 4.953zm-5.041-16.036c10.565-6.492 7.063-24.176-5.245-26.485-14.666-2.751-23.985 13.014-14.248 24.104 5.003 5.698 12.588 6.625 19.493 2.381zm-14.47-6.214c-2.137-2.276-2.831-6.808-1.552-10.141.965-2.517 6.135-4.757 9.348-4.052 9.661 2.122 7.945 16.507-1.97 16.507-2.523 0-4.322-.715-5.825-2.314zm-65.05-59.264c-23.122-6.219-40.161-28.047-40.109-51.382.033-14.678 5.4-27.45 15.986-38.047 16.762-16.78 41.83-20.548 62.93-9.46 17.728 9.316 28.535 27.357 28.433 47.467-.057 11.196-2.782 20.273-8.821 29.37-12.275 18.493-36.98 27.819-58.419 22.052zm32.942-11.553c18.201-8.65 28.266-27.528 25.051-46.991-1.651-10.002-5.397-17.302-12.545-24.45-22.15-22.15-58.95-15.898-72.336 12.291-2.917 6.142-3.573 8.792-3.99 16.121-1.21 21.222 10.577 38.71 30.517 45.273 4.4 1.448 8.07 1.826 15.738 1.62 9.121-.245 10.664-.585 17.565-3.864zm-31.157-3.707c-10.708-3.538-18.055-10.1-23.008-20.55-11.084-23.384 4.347-50.492 30.783-54.078 15.299-2.075 32.26 7.58 39.156 22.29 2.353 5.02 2.66 6.888 2.654 16.176-.01 9.422-.289 11.077-2.757 16.112-3.462 7.062-11.951 15.18-19.484 18.632-7.632 3.498-19.229 4.1-27.344 1.418zm26.633-9.042c7.766-3.527 11.997-11.33 9.193-16.951-1.369-2.743-1.316-2.888 1.412-3.918 5.135-1.938 6.486-11.248 2.751-18.962-2.386-4.93-6.501-7.559-11.11-7.098-5.192.52-5.59 2.606-2.382 12.519 1.564 4.834 3.442 9.965 4.173 11.4 1.233 2.423 1.144 2.695-1.238 3.78-3.993 1.82-15.196 10.066-16.815 12.377-1.303 1.86-1.523 1.902-2.102.393-.975-2.54-16.893-13.658-19.58-13.675-1.333-.01-1.87-.332-1.243-.75.605-.404 1.608-1.7 2.228-2.879 1.496-2.843 6.143-17.45 6.157-19.356.01-1.265 1.802-1.448 11.422-1.166 13.429.393 15.593-.34 15.593-5.28 0-9.508-18.174-12.864-25.698-4.747-1.661 1.793-2.337 3.504-2.079 5.264.36 2.45.222 2.546-2.297 1.595-6.209-2.343-13.816 4.975-14.663 14.109-.563 6.058.896 9.743 4.795 12.114 1.842 1.12 2.667 2.163 2.025 2.56-.596.368-1.083 2.652-1.083 5.075 0 7.656 7.698 14.476 16.34 14.476 2.8 0 5.267-.67 6.684-1.819 2.19-1.774 2.304-1.761 4.566.5 2.84 2.841 7.328 2.993 12.95.44zm-5.137-16.17c10.78-9.465 4.345-25.96-10.122-25.946-10.626.01-17.387 11.65-12.612 21.713 2.37 4.994 6.614 7.275 13.545 7.28 4.948.002 6.181-.406 9.189-3.047zm-15.904-6.132c-3.249-3.861-2.86-8.123 1.054-11.568 2.975-2.618 5.435-2.824 9.374-.787 7.479 3.868 4.254 15.537-4.294 15.537-2.657 0-4.076-.736-6.134-3.182zm108 46.315c-17.264-4.96-30.808-17.864-36.676-34.942-3.34-9.722-3.181-23.916.38-33.907 4.989-13.998 14.84-24.668 28.81-31.202 28.19-13.185 62.798 1.807 73.066 31.653 9.904 28.785-7.772 60.959-37.784 68.776-7.499 1.953-20.29 1.78-27.796-.378zm28.799-9.144c25.828-7.977 38.184-38.518 25.58-63.225-2.94-5.763-11.909-14.918-17.706-18.073-13.21-7.19-30.001-7.41-43.41-.57-5.762 2.94-14.917 11.908-18.072 17.705-13.347 24.522-1.757 55.02 24.282 63.897 8.626 2.941 20.322 3.047 29.326.266zm-24.8-5.333c-14.971-4.965-24.786-15.956-27.526-30.823-4.573-24.816 18.992-48.4 43.965-44 22.135 3.898 36.954 25.424 31.679 46.015-3.273 12.775-10.007 21.1-21.371 26.418-5.387 2.52-8.19 3.172-14.701 3.415-4.826.181-9.646-.229-12.045-1.025zm24.269-9.204c9.019-3.768 13.668-12.528 9.675-18.23-1.452-2.072-1.423-2.222.427-2.222 3.471 0 6.13-4.63 6.13-10.675 0-9.918-5.555-16.864-12.925-16.16-3.378.321-3.668.154-3.277-1.892.302-1.577-.59-3.264-2.995-5.67-6.078-6.078-17.913-5.827-23.23.493-3.238 3.848-3.263 6.406-.083 8.49 2.032 1.331 4.603 1.563 14 1.265l11.51-.365.015 2.507c.016 2.731 4.047 16.387 5.81 19.679.927 1.734.728 2.21-1.316 3.142-1.324.603-5.832 3.63-10.016 6.723-6.967 5.152-7.582 5.892-7.3 8.772.516 5.29 6.477 7.109 13.575 4.143zm-16.343-1.37c3.15-3.48 1.623-6.146-7.345-12.818-5.124-3.812-9.43-6.276-11-6.294-2.155-.026-2.305-.191-.911-1.005 2.099-1.225 8.08-18.94 7.65-22.66-.739-6.394-10.537-4.726-14.57 2.481-4.474 7.994-3.694 16.757 1.787 20.09 2.087 1.27 2.59 2.102 1.912 3.173-2.78 4.395.543 12.344 6.973 16.677 4.452 3 12.935 3.195 15.504.357zm10.576-13.742c3.612-2.133 6.999-8.173 6.997-12.476 0-8.01-6.78-14.864-14.696-14.864-14.272 0-20.481 16.49-9.755 25.907 3.034 2.664 4.293 3.093 9.083 3.093 3.386 0 6.66-.65 8.371-1.66zm-12.842-5.94c-3.471-2.432-4.406-5.875-2.701-9.954 3.551-8.5 15.942-5.986 15.942 3.233 0 6.615-7.765 10.556-13.241 6.72z" fill="#881d22"/><path d="M54.118 442.965c-28.078-7.399-48.971-29.647-53.105-56.55-.727-4.727-.975-57.89-.785-167.917l.278-161 2.724-8c7.135-20.95 22.067-36.36 42.791-44.158 4.684-1.763 12.334-3.707 17-4.32C68.961.24 105.406 0 184.506.224l113 .32 7.472 2.292c28.782 8.83 47.735 29.885 52.031 57.804.717 4.656.966 58.234.776 166.858l-.28 160-2.348 7c-4.055 12.085-9.044 20.408-17.14 28.593-8.536 8.63-17.876 14.516-29.511 18.6l-8 2.807-119.5.207c-115.575.2-119.743.143-126.888-1.74zm248.388-3.236c19.105-5.526 36.33-19.413 44.319-35.73 7.73-15.794 7.182-1.94 7.166-180.961-.016-177.753.392-166.524-6.566-180.627-8.41-17.047-24.254-30.062-43.92-36.078-5.677-1.736-12.402-1.835-125-1.835h-119l-8 2.724c-11.19 3.812-19.717 9.106-27.942 17.352-7.787 7.806-12.46 14.968-16.435 25.183l-2.622 6.741v331l2.415 7.376c6.03 18.407 23.235 35.808 42.255 42.733 11.526 4.197 13.193 4.248 132.83 4.048 105.363-.175 114.978-.329 120.5-1.926zm-196.25-61.276c-6.799-1.83-11.548-4.295-18.562-9.63-25.266-19.216-27.688-56.714-5.121-79.281 10.689-10.689 23.48-15.892 38.933-15.837 15.314.056 28.206 5.808 38.898 17.357 27.133 29.306 13.661 75.748-25.33 87.324-6.717 1.994-21.534 2.028-28.818.067zm28.296-9c6.686-1.845 16.217-8.11 20.746-13.636 22.225-27.123 6.748-67.586-27.916-72.983-27.009-4.205-51.315 16.77-51.365 44.325-.03 17.033 9.89 32.69 25.265 39.879 10.52 4.918 21.349 5.704 33.27 2.415zm-25.046-5.797c-13.312-4.398-22.661-14.318-26.084-27.676-4.409-17.211 4.072-35.178 20.396-43.208 6.24-3.07 7.314-3.274 17.172-3.274 9.611 0 11.03.253 16.503 2.94 7.638 3.75 14.895 11.007 18.324 18.324 2.383 5.084 2.689 6.93 2.689 16.236 0 9.597-.254 11.016-2.944 16.5-3.667 7.473-10.758 14.493-18.291 18.105-4.722 2.264-7.394 2.82-14.765 3.069-5.587.19-10.518-.196-13-1.016zm8.575-10.226c1.707-1.545 2.004-1.515 4.51.457 6.443 5.068 18.176.425 22.094-8.743 1.665-3.893.951-8.675-1.508-10.11-1.387-.809-1.216-.98 1.006-1.006 4.033-.045 6.823-4.215 6.823-10.197 0-6.293-1.885-10.717-6.066-14.234-2.736-2.303-4.01-2.718-7.081-2.306-3.687.494-3.75.446-4.05-3.113-.767-9.125-18.05-12.034-25.053-4.217-1.513 1.688-2.75 3.962-2.75 5.053 0 1.677-.679 1.984-4.382 1.984-3.61 0-4.932.563-7.507 3.198-6.803 6.958-6.83 18.57-.053 22.691 1.842 1.12 2.667 2.163 2.025 2.56-.596.368-1.084 2.563-1.084 4.878 0 6.898 3.96 11.472 13 15.018 2.426.952 8.1-.126 10.076-1.913zm1.286-5.75c-1.238-2.213-17.206-13.682-19.048-13.682-1.131 0-1.123-.378.049-2.25 2.387-3.813 6.871-18.745 6.388-21.272-.402-2.102-.223-2.266 1.483-1.353 1.138.61 6.816.901 13.727.707 8.952-.252 11.675-.04 11.32.884-.492 1.276 5.364 19.991 6.845 21.877.546.696-.03 1.498-1.583 2.206-3.634 1.656-17.292 11.95-17.774 13.396-.287.86-.729.7-1.408-.514zm8.263-7.742c4.53-2.193 8.397-8.213 8.354-13.006-.044-4.855-3.62-10.71-7.863-12.875-13.198-6.733-26.453 5.624-20.729 19.325 3.162 7.567 12.14 10.476 20.238 6.556zm-12.6-6.914c-4.483-4.484-3.292-11.18 2.413-13.564 3.816-1.595 5.946-1.169 9.313 1.861 3.102 2.793 3.07 8.558-.064 11.503-3.011 2.828-8.93 2.93-11.66.2zm107.667 45.473c-14.233-3.912-27.874-15.343-34.166-28.628-11.645-24.59-3.37-52.885 19.902-68.04 15.905-10.357 37.144-10.982 54.805-1.612 15.932 8.452 27.738 28.363 27.738 46.781 0 23.433-17.111 45.428-40.101 51.547-6.607 1.759-21.701 1.733-28.178-.048zm26.792-8.697c18.494-4.663 32.517-23.12 32.517-42.802 0-26.998-24.522-48.133-51.247-44.166-36.548 5.425-51.515 49.493-25.622 75.444 11.551 11.578 27.599 15.747 44.352 11.524zm-24.983-6.547c-13.514-4.849-22.903-15.932-25.465-30.06-2.98-16.432 6.205-33.729 21.79-41.035 5.015-2.35 6.895-2.66 16.175-2.66 9.28 0 11.159.31 16.175 2.66 11.612 5.444 20.714 17.793 22.265 30.209 1.988 15.91-7.06 31.894-22.263 39.333-7.325 3.584-20.96 4.322-28.677 1.553zm9.684-9.922c3.706-3.354 2.357-5.957-6.414-12.382-4.527-3.315-9.233-6.28-10.46-6.588-2.028-.509-2.102-.752-.828-2.711 1.722-2.648 6.487-17.41 6.505-20.152.012-1.9.683-2 13.513-2h13.5v3.075c0 3.047 3.737 15.197 5.94 19.315.955 1.783.847 2.248-.647 2.789-.987.357-5.506 3.306-10.043 6.553-7.052 5.047-8.25 6.322-8.25 8.78 0 9.132 16.798 7.308 22.514-2.446 3.006-5.13 3.164-8.888.486-11.566-2-2-2-2 .427-2 6.487 0 8.946-12.275 4.11-20.525-2.735-4.668-7.041-7.023-11.293-6.176-2.481.494-2.755.263-2.853-2.41-.15-4.113-3.745-7.534-9.322-8.872-8.946-2.146-18.21 2.218-18.461 8.698-.103 2.651-.313 2.768-4.358 2.434-3.727-.307-4.666.067-7.647 3.047-3.148 3.149-5.585 8.844-5.598 13.086-.01 3.357 2.89 8.713 5.317 9.819 2.138.974 2.305 1.426 1.405 3.811-4.155 11.008 13.873 24.19 22.457 16.421zm9.78-13.583c13.104-6.72 9.34-25.834-5.414-27.497-11.902-1.342-20.117 10.836-14.602 21.646 1.57 3.078 3.326 4.777 6.36 6.154 5.484 2.49 8.332 2.427 13.656-.303zm-12.641-7c-3.007-3.34-3.458-5.493-1.921-9.17 3.943-9.437 19.033-4.005 15.67 5.64-1.403 4.028-3.787 5.71-8.148 5.748-2.47.022-4.203-.664-5.601-2.218zm-67.211-57.33c-26.43-7.108-43.63-33.635-39.126-60.341 2.423-14.363 12.721-29.721 24.596-36.68 16.902-9.905 35.062-10.7 52.264-2.288 17.727 8.669 28.436 24.615 29.81 44.39 1.747 25.154-15.32 48.488-40.209 54.97-7.274 1.895-20.187 1.87-27.335-.052zm30.888-10.251c29.98-11.745 37.5-51.172 14.027-73.561-17.792-16.97-45.173-16.612-62.596.82-7.27 7.274-11.204 14.884-12.705 24.58-3.29 21.257 8.96 41.683 29.247 48.77 8.58 2.997 23.547 2.713 32.027-.61zm-87.877-94.747c-23.122-6.219-40.161-28.047-40.109-51.382.033-14.678 5.4-27.45 15.986-38.047 16.762-16.78 41.83-20.548 62.93-9.46 17.728 9.316 28.535 27.357 28.433 47.467-.057 11.196-2.782 20.273-8.821 29.37-12.275 18.493-36.98 27.819-58.419 22.052zm32.942-11.553c18.201-8.65 28.266-27.528 25.051-46.991-1.651-10.002-5.397-17.302-12.545-24.45-22.15-22.15-58.95-15.898-72.336 12.291-2.917 6.142-3.573 8.792-3.99 16.121-1.21 21.222 10.577 38.71 30.517 45.273 4.4 1.448 8.07 1.826 15.738 1.62 9.121-.245 10.664-.585 17.565-3.864zm-31.157-3.707c-10.708-3.538-18.055-10.1-23.008-20.55-11.084-23.384 4.347-50.492 30.783-54.078 15.299-2.075 32.26 7.58 39.156 22.29 2.353 5.02 2.66 6.888 2.654 16.176-.01 9.422-.289 11.077-2.757 16.112-3.462 7.062-11.951 15.18-19.484 18.632-7.632 3.498-19.229 4.1-27.344 1.418zm26.633-9.042c7.766-3.527 11.997-11.33 9.193-16.951-1.369-2.743-1.316-2.888 1.412-3.918 5.135-1.938 6.486-11.248 2.751-18.962-2.386-4.93-6.501-7.559-11.11-7.098-5.192.52-5.59 2.606-2.382 12.519 1.564 4.834 3.442 9.965 4.173 11.4 1.233 2.423 1.144 2.695-1.238 3.78-3.993 1.82-15.196 10.066-16.815 12.377-1.303 1.86-1.523 1.902-2.102.393-.975-2.54-16.893-13.658-19.58-13.675-1.333-.01-1.87-.332-1.243-.75.605-.404 1.608-1.7 2.228-2.879 1.496-2.843 6.143-17.45 6.157-19.356.01-1.265 1.802-1.448 11.422-1.166 13.429.393 15.593-.34 15.593-5.28 0-9.508-18.174-12.864-25.698-4.747-1.661 1.793-2.337 3.504-2.079 5.264.36 2.45.222 2.546-2.297 1.595-6.209-2.343-13.816 4.975-14.663 14.109-.563 6.058.896 9.743 4.795 12.114 1.842 1.12 2.667 2.163 2.025 2.56-.596.368-1.083 2.652-1.083 5.075 0 7.656 7.698 14.476 16.34 14.476 2.8 0 5.267-.67 6.684-1.819 2.19-1.774 2.304-1.761 4.566.5 2.84 2.841 7.328 2.993 12.95.44zm-5.137-16.17c10.78-9.465 4.345-25.96-10.122-25.946-10.626.01-17.387 11.65-12.612 21.713 2.37 4.994 6.614 7.275 13.545 7.28 4.948.002 6.181-.406 9.189-3.047zm-15.904-6.132c-3.249-3.861-2.86-8.123 1.054-11.568 2.975-2.618 5.435-2.824 9.374-.787 7.479 3.868 4.254 15.537-4.294 15.537-2.657 0-4.076-.736-6.134-3.182zm108 46.315c-17.264-4.96-30.808-17.864-36.676-34.942-3.34-9.722-3.181-23.916.38-33.907 4.989-13.998 14.84-24.668 28.81-31.202 28.19-13.185 62.798 1.807 73.066 31.653 9.904 28.785-7.772 60.959-37.784 68.776-7.499 1.953-20.29 1.78-27.796-.378zm28.799-9.144c25.828-7.977 38.184-38.518 25.58-63.225-2.94-5.763-11.909-14.918-17.706-18.073-13.21-7.19-30.001-7.41-43.41-.57-5.762 2.94-14.917 11.908-18.072 17.705-13.347 24.522-1.757 55.02 24.282 63.897 8.626 2.941 20.322 3.047 29.326.266zm-24.8-5.333c-14.971-4.965-24.786-15.956-27.526-30.823-4.573-24.816 18.992-48.4 43.965-44 22.135 3.898 36.954 25.424 31.679 46.015-3.273 12.775-10.007 21.1-21.371 26.418-5.387 2.52-8.19 3.172-14.701 3.415-4.826.181-9.646-.229-12.045-1.025zm24.269-9.204c9.019-3.768 13.668-12.528 9.675-18.23-1.452-2.072-1.423-2.222.427-2.222 3.471 0 6.13-4.63 6.13-10.675 0-9.918-5.555-16.864-12.925-16.16-3.378.321-3.668.154-3.277-1.892.302-1.577-.59-3.264-2.995-5.67-6.078-6.078-17.913-5.827-23.23.493-3.238 3.848-3.263 6.406-.083 8.49 2.032 1.331 4.603 1.563 14 1.265l11.51-.365.015 2.507c.016 2.731 4.047 16.387 5.81 19.679.927 1.734.728 2.21-1.316 3.142-1.324.603-5.832 3.63-10.016 6.723-6.967 5.152-7.582 5.892-7.3 8.772.516 5.29 6.477 7.109 13.575 4.143zm-16.343-1.37c3.15-3.48 1.623-6.146-7.345-12.818-5.124-3.812-9.43-6.276-11-6.294-2.155-.026-2.305-.191-.911-1.005 2.099-1.225 8.08-18.94 7.65-22.66-.739-6.394-10.537-4.726-14.57 2.481-4.474 7.994-3.694 16.757 1.787 20.09 2.087 1.27 2.59 2.102 1.912 3.173-2.78 4.395.543 12.344 6.973 16.677 4.452 3 12.935 3.195 15.504.357zm10.576-13.742c3.612-2.133 6.999-8.173 6.997-12.476 0-8.01-6.78-14.864-14.696-14.864-14.272 0-20.481 16.49-9.755 25.907 3.034 2.664 4.293 3.093 9.083 3.093 3.386 0 6.66-.65 8.371-1.66zm-12.842-5.94c-3.471-2.432-4.406-5.875-2.701-9.954 3.551-8.5 15.942-5.986 15.942 3.233 0 6.615-7.765 10.556-13.241 6.72z" fill="#0f1938"/><path d="M54.785 442.955C30.562 437 11.281 419.255 3.22 395.498l-2.714-8-.268-160.994C-.065 44.67-.537 56.562 7.646 40.001c3.888-7.871 6.163-10.963 13.276-18.05 7.089-7.065 10.238-9.368 18.084-13.228 17.876-8.796 8.162-8.225 140-8.225 129.688 0 121.788-.394 137.319 6.855 18.382 8.58 31.872 23.707 38.46 43.124l2.72 8.021v163.5c0 153.147-.111 163.905-1.764 169.888-5.586 20.222-19.135 36.38-38.235 45.6-16.398 7.914-9.047 7.521-139.198 7.44-110.214-.07-116.175-.164-123.523-1.97zm248.068-3.175c20.836-6.437 37.333-20.103 45.315-37.54 6.117-13.362 5.807-3.814 5.823-179.332.014-156.582-.034-160.782-1.957-168.3-3.05-11.924-8.247-20.87-17.571-30.249-6.732-6.77-9.678-8.9-17.525-12.665-16.91-8.115-9.401-7.698-138.13-7.679-128.276.02-121.664-.337-137.391 7.425C22.645 20.704 8.668 38.405 5.049 57.498c-.83 4.37-1.057 50.259-.84 169l.297 163 2.622 6.742c9.286 23.867 29.417 40.481 54.115 44.662 2.912.493 56.846.81 120.763.71 104.24-.163 116.02-.341 120.847-1.832z"/></svg>