<svg xmlns="http://www.w3.org/2000/svg" width="358.497" height="445.701"><path d="M59.485 444.39c-16.104-3.016-29.294-10.286-40.746-22.46-8.498-9.032-13.775-18.63-16.762-30.486-1.95-7.74-1.992-11.386-1.975-168.5.02-178.687-.39-167.876 6.923-182.59C16.245 21.6 31.04 9.235 51.985 2.695l7.5-2.341h241l8.76 3.134c12.441 4.452 19.013 8.647 28.84 18.411 6.894 6.85 9.423 10.224 12.745 17 8.306 16.944 7.655 1.29 7.655 183.955 0 154.19-.093 162.832-1.823 169-5.783 20.62-19.273 36.875-38.177 46.001-16.55 7.99-6.089 7.402-136 7.637-92.161.166-117.439-.06-123-1.102zm242.876-5.505c12.15-3.107 22.887-9.229 31.624-18.028 8.441-8.503 12.903-15.444 16.82-26.169l2.68-7.334.28-161.5c.315-180.944.786-168.575-7.006-184.287-3.21-6.471-5.897-10.02-12.674-16.732-9.518-9.427-17.622-14.308-30.117-18.14L296.485 4.4l-111.5-.32c-77.075-.221-114.083.02-119.866.78-10.153 1.334-21.812 5.452-29.742 10.504-13.33 8.493-24.643 23.868-29.056 39.49-1.747 6.185-1.836 14.338-1.836 168.5v162l2.714 8c7.763 22.878 25.49 39.39 48.786 45.441 7.217 1.875 11.854 1.95 123.09 2.004 111.797.053 115.842-.01 123.286-1.914zm-69.055-51.497c-19.486-5.48-34.03-19.798-38.83-38.228-1.711-6.57-1.925-20.713-.412-27.279 3.875-16.814 18.27-32.205 35.73-38.202 5.318-1.826 8.845-2.297 17.19-2.297 8.346 0 11.874.471 17.191 2.297 18.037 6.195 31.93 21.438 35.848 39.331 1.74 7.945.79 23.875-1.824 30.625-5.817 15.016-17.323 26.344-32.714 32.205-7.71 2.937-24.387 3.739-32.179 1.548zm26.554-10.418c12.506-3.893 21.798-11.984 27.44-23.893 3.005-6.345 3.185-7.371 3.185-18.223 0-10.88-.174-11.867-3.222-18.302-8.832-18.647-30.337-29.21-50.164-24.638-12.606 2.906-24.77 12.767-30.393 24.638-3.047 6.435-3.221 7.422-3.221 18.302 0 10.852.18 11.878 3.185 18.223 3.63 7.663 10.73 15.764 17.078 19.484 10.641 6.236 24.718 7.955 36.112 4.409zm-24.966-5.013c-10.51-3.362-19.052-10.918-23.808-21.058-2.284-4.87-2.601-6.825-2.601-16.045 0-9.585.255-11.021 2.93-16.479 11.952-24.38 44.363-29.823 63.52-10.666 2.579 2.578 5.995 7.378 7.592 10.666 2.634 5.421 2.907 6.958 2.931 16.479.024 9.287-.278 11.149-2.609 16.12-8.434 17.988-29.08 27.022-47.955 20.983zm28.744-11.198c6-3.709 8.92-11.097 6.311-15.971-1.653-3.089-4.049-2.329-13.262 4.207-10.05 7.13-11.205 9.17-7.158 12.65 2.34 2.013 3.463 2.303 6.832 1.764 2.217-.354 5.492-1.547 7.277-2.65zm-20.705 1.122c2.168-1.16 3.2-3.48 2.434-5.473-.947-2.47-17.043-13.554-19.68-13.554-3.885 0-5.286 4.5-3.1 9.962 3 7.497 14.064 12.427 20.346 9.065zm11.753-14.987c8.901-5.427 8.234-19.996-1.118-24.434-9.857-4.677-20.57 1.67-20.58 12.193-.01 8.535 5.573 14.193 13.997 14.193 2.703 0 5.778-.78 7.701-1.952zM240.44 341.4c-3.707-3.707-3.426-9.55.622-12.956 4.168-3.507 8.274-3.393 12 .334 6.071 6.07 2.441 15.077-6.076 15.077-3.01 0-4.74-.649-6.546-2.455zm-10.718-12.14c3.453-10.57 3.436-13.073-.092-13.958-6.286-1.578-12.796 5.49-13.455 14.61-.398 5.497-.229 6.058 2.72 9.006 2.91 2.91 3.31 3.037 5.367 1.696 1.527-.995 3.238-4.553 5.46-11.354zm44.129 10.238c6.76-7.195.053-24.373-9.154-23.446-5.107.514-5.5 2.63-2.329 12.512 4.408 13.731 6.755 15.966 11.483 10.934zm-15.8-22.679c2.833-1.516 2.418-5.635-.903-8.956-5.268-5.268-17.741-4.901-22.109.65-2.758 3.508-2.672 7.157.197 8.31 3.13 1.259 20.462 1.256 22.815-.004zm-91.065-38.593c-43.565-8.362-60.221-60.642-29.116-91.386 10.848-10.722 23.474-15.939 38.656-15.97 39.256-.083 65.849 41.362 49.076 76.485-6.608 13.837-17.588 23.746-31.616 28.532-6.373 2.174-21.177 3.457-27 2.34zm20.465-10.904c8.534-2.223 14.967-6.087 21.02-12.626 16.214-17.512 16.237-42.749.055-59.714-9.724-10.194-21.225-14.752-34.988-13.866-13.508.87-24.58 6.803-32.764 17.56-24.956 32.801 6.528 79.103 46.677 68.646zm-20.465-4.841c-6.91-1.903-11.62-4.479-16.954-9.274-12.203-10.972-15.892-26.968-9.915-42.993 1.637-4.388 3.84-7.514 8.777-12.45 8.754-8.755 15.003-11.328 27.592-11.36 8.06-.022 9.703.308 15.74 3.156 8.308 3.92 15.4 10.824 19.32 18.807 2.686 5.471 2.94 6.893 2.94 16.488 0 9.504-.269 11.047-2.833 16.267-8.257 16.816-27.59 26.06-44.667 21.359zm21.277-9.686c8.166-2.268 14.186-11.02 11.824-17.19-1.67-4.366-5.121-3.594-14.636 3.275-8.623 6.225-10.568 8.94-8.333 11.634 2.603 3.137 5.746 3.78 11.145 2.28zm-15.237-1.772c3.678-2.978 2.04-5.948-6.753-12.247-9.132-6.541-10.776-7.265-13.36-5.883-2.62 1.403-2.606 8.413.025 12.404 4.434 6.726 15.098 9.766 20.088 5.726zm12.575-15.231c2.953-2.724 5.385-7.731 5.385-11.09 0-3.655-3.76-10.274-6.883-12.12-3.644-2.151-11.224-2.24-15.211-.179-8.925 4.615-9.283 19.102-.608 24.551 4.56 2.864 13.61 2.257 17.317-1.162zm-13.865-3.017c-2.805-1.634-4.957-6.703-4.237-9.981.798-3.635 4.867-6.94 8.545-6.94 1.54 0 4.165 1.159 5.865 2.59 2.447 2.059 3.077 3.37 3.077 6.41 0 6.487-7.754 11.122-13.25 7.92zm31.907-3.487c2.335-2.335 2.53-3.148 2.158-8.99-.472-7.421-2.566-11.008-8.005-13.716-4.146-2.064-8.823-1.002-8.793 1.998.026 2.61 5.738 20.275 7.078 21.89 1.76 2.12 4.724 1.656 7.562-1.182zm-44.955-8.433c1.761-5.225 3.224-10.423 3.25-11.55.121-5.223-6.125-5.993-11.356-1.4-4.187 3.676-6.003 8.65-5.331 14.609.641 5.693 3.149 8.534 7.184 8.14 2.903-.285 3.206-.76 6.253-9.8zm27.733-13.976c2.81-1.068 3.438-4.524 1.484-8.175-2.349-4.389-12.669-6.234-19.32-3.455-6.191 2.587-8.883 9.752-4.35 11.574 3.052 1.227 19.001 1.267 22.186.056zm-82.274-43.14c-8.687-1.073-14.981-3.317-21.848-7.79-29.714-19.353-33.805-60.408-8.407-84.367 7.195-6.788 16.021-11.781 24.121-13.648 6.65-1.532 21.737-1.292 28.438.454 8.39 2.185 14.991 6.042 22.636 13.225 22.395 21.045 22.395 56.438 0 77.483-3.663 3.442-8.944 7.489-11.736 8.992-9.056 4.877-21.847 7.055-33.204 5.652zm16.108-10.354c16.84-3.568 29.98-15.867 34.179-31.99 6.553-25.168-10.014-50.082-36.246-54.506-26.055-4.395-51.153 16.932-51.153 43.466 0 20.385 14.899 38.572 35.213 42.986 8.096 1.758 9.898 1.763 18.007.044zm-21.97-6.337c-32.736-11.663-34.817-57.126-3.3-72.083 4.893-2.322 6.715-2.61 16.5-2.61 9.786 0 11.608.288 16.5 2.61 11.73 5.566 19.687 16.03 22.084 29.038 3.093 16.79-6.161 34.265-22.083 41.7-7.43 3.469-21.9 4.125-29.7 1.345zm9.885-10.86c3.306-2.992 2.144-5.04-6.434-11.346-9.554-7.022-12.451-8.117-14.406-5.444-6.869 9.394 12.114 24.687 20.84 16.79zm19.942-.198c7.06-4.478 9.866-12.143 5.896-16.113-2.507-2.507-3.53-2.12-13.772 5.21-8.957 6.41-10.332 9.196-6.028 12.21 3.466 2.429 8.805 1.926 13.904-1.307zm-8.105-14.15c3.858-2.748 6.32-8.403 5.693-13.078-.726-5.414-3.997-9.468-9.26-11.478-3.872-1.479-5.117-1.548-8.677-.48-12.98 3.888-14.456 20.563-2.32 26.218 4.777 2.225 10.423 1.766 14.564-1.183zm-12.663-3.43c-4.302-1.873-6.039-6.991-4.015-11.834 1.811-4.336 5.95-6.031 11.19-4.584 7.57 2.09 8.18 13.413.89 16.46-4.033 1.684-4.097 1.684-8.065-.043zm-16.938-3.805c2.138-3.28 6.756-18.497 6.392-21.059-.249-1.746-1.082-2.255-4.1-2.504-9.66-.797-16.38 15.994-9.43 23.563 1.136 1.237 2.877 2.25 3.869 2.25.991 0 2.462-1.013 3.269-2.25zm48.507-.385c2.502-3.18 2.814-11.03.609-15.296-4.392-8.491-14.536-11.03-14.536-3.638 0 3.157 3.691 15.256 5.933 19.444 1.587 2.966 5.454 2.72 7.994-.51zm-15.499-22.937c1.857-1.856 1.828-1.624.597-4.863-3.328-8.752-22.723-8.752-26.05 0-1.232 3.24-1.26 3.007.596 4.863 2.281 2.282 22.576 2.282 24.857 0z" fill="#c38c8f"/><path d="M63.485 445.14c-11.983-1.658-27.21-8.173-36.68-15.694-8.037-6.383-15.521-15.779-19.989-25.092C-.47 389.164-.074 400.25.22 219.597L.485 57.354l2.755-8.13c3.56-10.505 10.633-21.211 19.4-29.37 8.598-8.001 15.698-12.292 27.083-16.366L58.485.354h240l7.464 2.344c25.584 8.033 43.803 26.41 50.72 51.156 1.72 6.158 1.816 15.003 1.816 168.5 0 182.037.644 166.524-7.617 183.378-7.288 14.868-22.715 28.73-38.748 34.817-13.907 5.28-12.966 5.244-133.635 5.12-61.6-.063-113.35-.302-115-.53zm239.09-6.292c20.007-5.074 35.331-17.232 44.376-35.207 7.567-15.04 7.129-3.188 6.815-184.287l-.281-162-2.68-7.335c-3.79-10.375-8.315-17.563-15.871-25.208-10.888-11.016-24.928-17.829-41.13-19.958-5.724-.752-43.26-.993-120.32-.773l-112 .32-7.483 2.295c-12.618 3.87-20.606 8.69-30.04 18.13-6.368 6.374-9.463 10.424-12.245 16.029-7.807 15.725-7.231 1.231-7.231 182 0 153.676.089 161.815 1.836 168 6.627 23.458 25.327 41.81 48.893 47.985 6.942 1.819 12.51 1.907 123.36 1.96 113.004.053 116.301.002 124-1.951zm-68.956-51.58c-8.822-2.136-17.38-7.115-24.75-14.4-10.702-10.578-15.884-22.98-15.884-38.014 0-15.016 5.14-27.18 16.066-38.024 29.228-29.008 78.484-15.944 90.322 23.955 2.1 7.077 2.1 21.063 0 28.137-4.192 14.12-14.699 27.236-26.981 33.683-11.375 5.971-26.067 7.738-38.773 4.662zm27.593-10.491c18.508-6.235 29.773-21.913 29.773-41.436 0-13.86-3.924-23.342-13.346-32.253-8.483-8.023-19.035-12.234-30.654-12.234-11.62 0-22.172 4.211-30.655 12.234-10.178 9.627-13.84 19.302-13.11 34.653.517 10.898 2.452 16.362 8.753 24.71 10.513 13.932 31.92 20.16 49.24 14.326zm-23.481-3.945c-11.024-2.786-21.033-11.14-26.06-21.754-2.888-6.094-3.186-7.617-3.186-16.245 0-8.732.27-10.072 3.267-16.16 4.18-8.49 12.875-16.755 20.948-19.911 4.393-1.718 7.83-2.262 14.285-2.262s9.891.544 14.284 2.262c8.073 3.156 16.768 11.42 20.948 19.912 2.997 6.087 3.268 7.427 3.268 16.159 0 8.561-.31 10.176-3.082 16.023-6.368 13.436-18.77 21.87-33.17 22.556-4.261.202-9.438-.058-11.502-.58zm24.284-11.228c5.843-2.952 9.16-7.914 8.767-13.116-.579-7.659-4.351-7.272-16.297 1.671-5.898 4.416-7 5.705-7 8.188 0 5.513 6.97 7.075 14.53 3.257zm-19.082.277c2.214-1.185 3.196-3.489 2.385-5.6-1.073-2.796-16.519-13.427-19.508-13.427-8.207 0-4.58 14.584 4.625 18.593 3.62 1.577 9.952 1.797 12.498.434zm14.17-16.91c3.546-3.547 3.881-4.346 3.878-9.25-.01-9.258-5.287-14.867-13.996-14.867-8.71 0-13.99 5.61-13.997 14.867 0 4.904.332 5.703 3.88 9.25 3.679 3.68 4.207 3.883 10.117 3.883 5.91 0 6.438-.203 10.117-3.883zm-16.195-4.04c-1.995-1.995-2.923-3.925-2.923-6.077 0-4.302 4.698-9 9-9s9 4.698 9 9-4.698 9-9 9c-2.153 0-4.082-.928-6.077-2.923zm-15.515-.629c2.016-2.016 8.01-20.916 7.256-22.88-.318-.83-1.732-1.798-3.14-2.152-6.77-1.699-13.524 6.037-13.524 15.487 0 6.008 1.21 8.839 4.315 10.09 3.058 1.232 3.348 1.2 5.093-.545zm47.047.93c4.572-1.754 5.826-11.1 2.43-18.114-2.661-5.499-5.625-7.485-10.559-7.08-4.863.401-5.262 2.384-2.332 11.591 4.447 13.977 5.596 15.47 10.46 13.603zm-14.39-24.414c4.423-2.366 1.248-9.386-5.38-11.898-5.88-2.227-15.24-.338-18.301 3.694-1.899 2.5-1.699 6.957.366 8.16 2.3 1.34 20.83 1.375 23.315.044zm-94.42-39.48c-12.999-3.297-25.447-12.185-32.985-23.552-9.932-14.976-11.328-35.237-3.557-51.612 15.641-32.964 58.618-41.58 85.428-17.13 30.746 28.044 20.442 77.04-19.111 90.87-7.843 2.743-21.92 3.415-29.775 1.423zm31.784-12.79c13.595-6.457 22.283-18.07 24.776-33.117 3.584-21.63-10.592-43.582-31.665-49.035-29.387-7.605-56.475 12.818-56.528 42.619-.022 12.191 4.967 23.804 13.761 32.03 9.274 8.674 18.815 11.993 32.91 11.45 8.063-.312 10.105-.794 16.746-3.948zm-31.143-3.09c-10.36-3.373-18.509-10.584-23.151-20.484-2.324-4.956-2.635-6.864-2.635-16.141 0-9.85.207-10.943 3.25-17.123 3.853-7.826 10.129-13.971 18.075-17.696 5.067-2.375 6.853-2.66 16.675-2.66 10.13 0 11.47.23 16.945 2.919 7.853 3.855 13.987 10.16 17.88 18.38 2.873 6.064 3.175 7.603 3.175 16.2 0 8.605-.3 10.134-3.186 16.225-3.84 8.105-10.273 14.65-18.098 18.409-4.768 2.291-7.292 2.796-15.216 3.045-6.115.192-11.002-.19-13.714-1.074zm9.091-10.538c3.265-3.265 1.465-6.154-8.032-12.891-4.788-3.397-9.31-6.175-10.048-6.175-1.086 0-1.062-.431.129-2.25 2.236-3.418 6.559-16.841 6.567-20.393.01-3.377-1.331-4.373-5.825-4.335-8.987.075-14.86 16.437-8.58 23.9 1.424 1.693 3.235 3.078 4.024 3.078 1.191 0 1.157.421-.201 2.495-2.455 3.747-1.104 8.812 3.606 13.522 6.057 6.057 14.028 7.381 18.36 3.05zm16.92 1.583c3.827-1.6 9.417-7.662 10.297-11.168.876-3.493-.27-7.237-2.597-8.483-2.434-1.302-4.75-.147-14.497 7.236-7.95 6.02-8.979 8.458-4.92 11.65 3.097 2.436 7.093 2.697 11.717.765zm-7.863-14.664c5.932-2.94 8.066-6.374 8.066-12.985 0-7.004-2.76-11.17-8.97-13.542-5.702-2.177-10.472-1.327-15.038 2.682-10.015 8.794-3.788 24.92 9.942 25.744 1.064.063 3.764-.79 6-1.899zm-12.434-6.985c-2.176-2.176-2.695-7.833-1.008-10.986.546-1.02 2.506-2.354 4.356-2.964 8.48-2.799 15.06 6.348 9.58 13.315-2.681 3.407-9.806 3.757-12.928.635zm33.858-1.547c2.791-3.549 3.461-7.552 2.107-12.583-1.351-5.018-7.652-11.87-10.913-11.87-3.426 0-6.054 1.864-6.04 4.285.017 2.959 4.728 17.634 6.57 20.465 1.97 3.028 5.768 2.891 8.276-.297zm-15.43-23.025c5.985-5.984-6.06-14.88-16.851-12.446-7.449 1.68-12.583 10.167-7.827 12.938.962.56 6.555 1.033 12.428 1.05 8.404.023 11.014-.305 12.25-1.542zm-83.928-42.557c-20.18-2.365-37.9-16.94-44.697-36.763-3.215-9.376-3.192-23.906.053-33.375 7.66-22.358 27.872-36.733 51.644-36.733 23.826 0 43.967 14.326 51.645 36.733 3.27 9.541 3.27 23.992 0 33.533-8.415 24.557-32.605 39.656-58.645 36.605zm14.48-9.938c13.067-2.12 25.246-10.531 31.237-21.575 14.933-27.525-1.03-60.456-31.68-65.352-18.27-2.92-37.32 6.089-45.754 21.635-16.115 29.703 3.626 64.37 37.717 66.234 1.1.06 4.916-.364 8.48-.942zM99.93 147.46c-11.661-4.48-21.158-13.337-25.004-23.32-3.085-8.007-3.08-19.577.012-27.602C78.072 88.4 86.972 79.056 95.212 75.25c5.596-2.584 7.351-2.896 16.273-2.896 8.921 0 10.676.312 16.272 2.896 8.24 3.806 17.14 13.15 20.274 21.287 3.092 8.025 3.097 19.595.012 27.601-2.966 7.7-11.497 16.884-19.486 20.978-5.328 2.73-7.238 3.149-15.573 3.41-6.293.198-10.7-.162-13.054-1.067zm7.055-9.9c1.816-.918 2.5-2.072 2.5-4.216 0-2.538-1.179-3.828-8.42-9.22-10.96-8.162-15.08-8.221-15.08-.217 0 4.949 3.533 9.951 8.97 12.698 5.022 2.537 8.377 2.803 12.03.955zm22.534-2.163c3.66-2.793 6.466-7.738 6.466-11.4 0-1.056-.847-2.967-1.883-4.246-1.676-2.07-2.176-2.19-4.563-1.103-1.474.672-6.027 3.696-10.117 6.721-6.32 4.673-7.437 5.942-7.437 8.443 0 3.903 2.333 5.178 8.678 4.744 3.767-.257 6.18-1.118 8.856-3.16zm-9.67-13.253c4.076-2.987 6.318-8.07 5.8-13.154-.83-8.157-7.46-13.622-15.529-12.8-14.321 1.46-17.848 20.241-5.064 26.97 4.222 2.221 11.01 1.755 14.793-1.016zm-10.49-3.074c-6.352-.963-8.94-10.105-4.202-14.843 5.567-5.566 15.228-1.713 15.228 6.073 0 5.76-4.943 9.693-11.026 8.77zm-15.666-11.715c1.765-4.95 3.115-10.575 3-12.5-.2-3.346-.39-3.514-4.33-3.802-3.456-.252-4.603.18-7.1 2.677-7.758 7.759-5.975 23.918 2.532 22.935 2.411-.278 3.022-1.242 5.898-9.31zm45.735 7.277c2.075-2.963 2.013-12.013-.113-16.494-2.977-6.274-11.988-9.66-14.284-5.37-.773 1.445-.289 4.301 1.977 11.662 1.65 5.362 3.5 10.35 4.111 11.087 1.776 2.139 6.547 1.631 8.309-.885zm-15.13-23.91c1.472-2.338-.736-7.095-4.26-9.177-3.836-2.266-14.246-2.28-18.064-.025-2.725 1.61-4.99 5.096-4.99 7.682 0 3.131 2.43 3.711 14.373 3.432 9.726-.228 12.102-.579 12.941-1.911z" fill="#8f93a0"/><path d="M63.485 445.14c-11.983-1.658-27.21-8.173-36.68-15.694-8.037-6.383-15.521-15.779-19.989-25.092C-.47 389.164-.074 400.25.22 219.597L.485 57.354l2.755-8.13c3.56-10.505 10.633-21.211 19.4-29.37 8.598-8.001 15.698-12.292 27.083-16.366L58.485.354h240l7.464 2.344c25.584 8.033 43.803 26.41 50.72 51.156 1.72 6.158 1.816 15.003 1.816 168.5 0 182.037.644 166.524-7.617 183.378-7.288 14.868-22.715 28.73-38.748 34.817-13.907 5.28-12.966 5.244-133.635 5.12-61.6-.063-113.35-.302-115-.53zm239.09-6.292c20.007-5.074 35.331-17.232 44.376-35.207 7.567-15.04 7.129-3.188 6.815-184.287l-.281-162-2.68-7.335c-3.79-10.375-8.315-17.563-15.871-25.208-10.888-11.016-24.928-17.829-41.13-19.958-5.724-.752-43.26-.993-120.32-.773l-112 .32-7.483 2.295c-12.618 3.87-20.606 8.69-30.04 18.13-6.368 6.374-9.463 10.424-12.245 16.029-7.807 15.725-7.231 1.231-7.231 182 0 153.676.089 161.815 1.836 168 6.627 23.458 25.327 41.81 48.893 47.985 6.942 1.819 12.51 1.907 123.36 1.96 113.004.053 116.301.002 124-1.951zm-64.653-51.01c-19.425-3.022-35.57-16.744-42.112-35.794-3.026-8.813-3.24-24.894-.44-33.19 5.975-17.707 19.864-30.965 37.156-35.47 7.536-1.962 21.382-1.962 28.917 0 38.22 9.956 52.148 57.546 25.644 87.621-11.317 12.843-31.155 19.634-49.165 16.833zm18.976-9.526c17.893-4.217 31.225-18.545 34.377-36.943 2.764-16.138-5.115-33.413-19.873-43.571-12.684-8.73-33.367-9.312-47.028-1.322-6.074 3.553-15.112 13.53-18.03 19.904-11.599 25.335 2.446 54.551 29.64 61.66 8.142 2.127 12.787 2.188 20.914.272zm-22.818-6.965c-10.058-3.136-19.723-12.716-23.702-23.493-2.521-6.829-2.267-20.025.526-27.247 3.089-7.989 10.538-15.869 18.888-19.98 6.238-3.07 7.304-3.273 17.193-3.273 9.888 0 10.954.203 17.192 3.274 8.35 4.11 15.8 11.99 18.888 19.979 2.793 7.222 3.048 20.418.526 27.247-4.022 10.892-12.495 19.354-23.118 23.088-6.499 2.284-19.714 2.487-26.393.405zm10.029-10.106c3.894-3.524 1.809-6.475-10.438-14.771-3.747-2.54-7.29-4.616-7.872-4.616-.704 0-.675-.463.086-1.38 1.52-1.832 7.1-18.42 7.1-21.108 0-5.586-7.19-6.256-12.3-1.147-7.17 7.17-7.143 19.165.052 22.76 2.796 1.396 3.042 1.8 1.75 2.872-1.889 1.568-1.936 6.27-.098 9.802 4.444 8.541 16.148 12.63 21.72 7.588zm17.173 1.262c4.154-1.736 9.317-7.62 10.195-11.616.87-3.959-1.588-8.033-4.846-8.033-1.27 0-6.096 2.817-10.727 6.261-6.356 4.727-8.495 6.91-8.726 8.903-.593 5.096 6.922 7.485 14.104 4.485zm-9.612-13.713c4.012-1.516 8.084-5.707 9.39-9.666 3.489-10.57-7.01-21.25-17.984-18.295-7.045 1.897-12.409 10.639-10.702 17.441.864 3.44 5.47 8.612 9.061 10.177 3.752 1.634 6.567 1.729 10.235.343zm-8.685-6.19c-5.293-2.763-6.28-11.037-1.699-14.245 2.987-2.092 8.993-1.893 11.815.392 3.071 2.487 3.269 9.166.357 12.077-2.6 2.601-7.35 3.406-10.473 1.776zm31.927-3.381c4.467-5.68 1.53-18.286-5.218-22.4-4.039-2.464-6.198-2.476-8.623-.051-1.543 1.542-1.751 2.562-1.075 5.25 1.458 5.791 4.611 15.262 5.859 17.593 1.72 3.215 6.378 3.014 9.057-.392zm-15.492-23.294c2.17-2.398 1.48-4.82-2.446-8.581-2.426-2.324-4.09-2.942-8.854-3.287-7.434-.538-12.652 1.714-14.901 6.432-1.476 3.094-1.459 3.459.246 5.343 1.629 1.8 3.06 2.022 13.02 2.022 9.781 0 11.41-.243 12.935-1.929zm-98.323-39.652c-22.45-6.038-38.372-27.1-38.491-50.92-.05-10.07 1.64-17.104 6.25-25.998 6.445-12.433 18.296-21.902 32.629-26.068 6.947-2.02 20.463-2.26 27.968-.495 23.584 5.544 40.532 27.313 40.532 52.062 0 23.454-14.053 42.996-36.285 50.46-6.153 2.065-9.405 2.527-17.392 2.474-5.403-.036-12.248-.718-15.211-1.515zm28.551-8.99c12.506-3.477 25.328-16.187 29.299-29.042 7.916-25.63-7.604-51.459-34.262-57.017-24.306-5.068-48.359 11.776-52.74 36.934-3.181 18.27 7.086 37.711 24.395 46.19 11.23 5.502 20.987 6.362 33.308 2.936zm-25.377-5.825c-10.36-3.373-18.509-10.584-23.151-20.484-2.324-4.956-2.635-6.864-2.635-16.141 0-9.85.207-10.943 3.25-17.123 3.853-7.826 10.129-13.971 18.075-17.696 5.067-2.375 6.853-2.66 16.675-2.66 10.13 0 11.47.23 16.945 2.919 7.853 3.855 13.987 10.16 17.88 18.38 2.873 6.064 3.175 7.603 3.175 16.2 0 8.605-.3 10.134-3.186 16.225-3.84 8.105-10.273 14.65-18.098 18.409-4.768 2.291-7.292 2.796-15.216 3.045-6.115.192-11.002-.19-13.714-1.074zm9.091-10.538c3.265-3.265 1.465-6.154-8.032-12.891-4.788-3.397-9.31-6.175-10.048-6.175-1.086 0-1.062-.431.129-2.25 2.236-3.418 6.559-16.841 6.567-20.393.01-3.377-1.331-4.373-5.825-4.335-8.987.075-14.86 16.437-8.58 23.9 1.424 1.693 3.235 3.078 4.024 3.078 1.191 0 1.157.421-.201 2.495-2.455 3.747-1.104 8.811 3.606 13.522 6.057 6.057 14.028 7.381 18.36 3.05zm16.92 1.583c3.827-1.6 9.417-7.662 10.297-11.168.876-3.493-.27-7.237-2.597-8.483-2.434-1.302-4.75-.147-14.497 7.236-7.95 6.02-8.979 8.458-4.92 11.65 3.097 2.436 7.093 2.697 11.717.765zm-7.863-14.664c5.932-2.94 8.066-6.374 8.066-12.985 0-7.004-2.76-11.17-8.97-13.542-5.702-2.177-10.472-1.327-15.038 2.682-10.015 8.794-3.788 24.92 9.942 25.744 1.064.063 3.764-.79 6-1.899zm-12.434-6.985c-2.176-2.176-2.695-7.833-1.008-10.986.546-1.02 2.506-2.354 4.356-2.964 8.48-2.799 15.06 6.348 9.58 13.315-2.681 3.407-9.806 3.757-12.928.635zm33.858-1.547c2.791-3.549 3.461-7.552 2.107-12.583-1.351-5.018-7.652-11.87-10.913-11.87-3.426 0-6.054 1.864-6.04 4.285.017 2.959 4.728 17.634 6.57 20.465 1.97 3.028 5.768 2.891 8.276-.297zm-15.43-23.025c5.985-5.984-6.06-14.88-16.851-12.446-7.449 1.68-12.583 10.167-7.827 12.938.962.56 6.555 1.033 12.428 1.05 8.404.023 11.014-.305 12.25-1.542zm-87.928-43.384c-10.563-2.296-22.65-8.987-29.18-16.153-3.886-4.265-9.345-14.237-11.357-20.747-2.67-8.644-2.67-22.645 0-31.289 2.244-7.26 7.685-16.811 12.351-21.678 4.931-5.142 13.971-10.77 21.42-13.33 9.656-3.321 25.875-3.321 35.532 0 22.087 7.595 35.734 26.94 35.734 50.653 0 23.396-13.028 42.275-34.621 50.17-7.575 2.768-22.578 3.961-29.88 2.374zm22-9.4c20.182-5.378 33.5-22.53 33.5-43.144 0-33.995-36.05-55.205-66.063-38.87-23.348 12.708-30.332 44.013-14.514 65.056 11.046 14.694 29.979 21.514 47.077 16.958zm-21.27-6.135c-7.45-2.09-10.875-4.06-16.798-9.662-3.262-3.085-6.25-7.21-8.058-11.125-2.56-5.54-2.874-7.319-2.874-16.222 0-8.925.312-10.676 2.9-16.282 3.72-8.053 12.233-16.148 20.315-19.316 4.49-1.76 7.799-2.267 14.785-2.267s10.294.507 14.784 2.267c8.082 3.168 16.596 11.263 20.315 19.316 2.589 5.606 2.9 7.357 2.9 16.282s-.311 10.675-2.9 16.282c-3.747 8.114-12.254 16.178-20.315 19.258-7.343 2.807-18.047 3.434-25.054 1.469zm21.989-8.553c6.869-1.908 12.78-8.65 12.78-14.578 0-3.008-2.51-6.378-4.752-6.378-1.67 0-15.846 9.79-18.626 12.864l-1.879 2.078-1.914-2.433c-2.926-3.72-15.924-12.51-18.499-12.51-1.343 0-2.97 1.049-3.951 2.546-2.324 3.547-.523 9.242 4.245 13.429 6.58 5.778 13.709 6.784 17.957 2.536 2.039-2.039 2.596-2.214 3.074-.97.584 1.523 4.968 4.35 6.846 4.414.55.019 2.673-.43 4.719-.998zm-1.398-18.311c3.472-3.472 3.679-4.038 3.679-10.081 0-5.45-.373-6.802-2.5-9.079-3.432-3.673-7.232-5.485-11.5-5.485s-8.069 1.812-11.5 5.485c-2.12 2.27-2.5 3.635-2.5 8.99 0 6.854 1.192 9.021 7 12.723 2.267 1.446 4.3 1.817 8.321 1.52 4.537-.337 5.864-.937 9-4.073zm-16.367-4.1c-5.393-5.393-1.588-14.545 6.046-14.545 4.876 0 8.5 3.623 8.5 8.5 0 2.479-.76 4.35-2.455 6.045-1.695 1.695-3.566 2.455-6.045 2.455-2.48 0-4.351-.76-6.046-2.455zm31.601.425c1.058-.566 2.604-2.344 3.434-3.95 4.514-8.729-2.676-22.568-11.335-21.819-5.385.466-5.926 2.426-3.169 11.476 4.36 14.31 6.317 16.837 11.07 14.293zm-45.688-2.72c.78-1.513 2.649-6.702 4.153-11.53 2.632-8.452 2.667-8.855.952-10.75-5.4-5.968-16.472 3.47-16.472 14.04 0 4.328 2.105 9.466 4.229 10.32 3.248 1.307 5.77.572 7.138-2.08zm31.41-21.807c4.291-3.005 2.293-8.6-4.108-11.506-5.289-2.402-10.05-2.402-15.339 0-6.694 3.04-8.437 9.199-3.33 11.773 3.74 1.885 19.976 1.695 22.777-.267z" fill="#7f7f7f"/><path d="M56.466 443.384c-13.69-2.98-26.37-10.098-36.481-20.476C9.126 411.763 3.02 399.032.928 383.165.246 377.997 0 321.884.203 217.354.546 39.96-.164 55.868 8.166 38.854c3.34-6.822 5.855-10.186 12.74-17.037 9.526-9.48 18.937-15.085 32.106-19.125L60.485.399l113-.32c76.288-.215 115.645.029 121.142.75 26.014 3.418 46.592 18.204 57.361 41.219 6.24 13.335 5.96 4.855 5.98 180.896.016 157.114-.027 160.76-1.976 168.5-3.329 13.211-8.203 21.65-18.481 31.992-7.35 7.395-10.606 9.858-17.526 13.256-4.675 2.295-12.06 5.07-16.41 6.167-7.687 1.938-11.195 1.992-124.5 1.915-92.179-.063-117.85-.354-122.61-1.39zm246.019-3.803c25.06-7.299 43.763-25.81 50.24-49.727 1.646-6.079 1.76-16.94 1.76-167.5 0-153.191-.09-161.316-1.837-167.5-3.161-11.191-9.277-21.581-17.629-29.95-8.626-8.645-17.078-13.925-28.534-17.826l-8-2.724-115.5-.29c-81.314-.204-117.424.04-122 .82C34.5 9.409 11.208 31.327 5.53 57.068c-1.446 6.557-1.58 23.457-1.326 168.787l.28 161.5 2.68 7.334c3.961 10.844 8.433 17.783 16.863 26.166 11.062 11 23.318 17.4 38.078 19.885 3.035.51 55.281.837 119.88.747 105.746-.145 114.958-.291 120.5-1.905zm-64.563-51.743c-19.425-3.022-35.57-16.744-42.112-35.794-3.026-8.813-3.24-24.894-.44-33.19 5.975-17.707 19.864-30.965 37.156-35.47 7.536-1.962 21.382-1.962 28.917 0 38.22 9.956 52.148 57.546 25.644 87.621-11.317 12.843-31.155 19.634-49.165 16.833zm18.976-9.526c17.893-4.217 31.225-18.545 34.377-36.943 2.764-16.138-5.115-33.413-19.873-43.571-12.684-8.73-33.367-9.312-47.028-1.322-6.074 3.553-15.112 13.53-18.03 19.904-11.599 25.335 2.446 54.551 29.64 61.66 8.142 2.127 12.787 2.188 20.914.272zm-22.818-6.965c-10.058-3.136-19.723-12.716-23.702-23.493-2.521-6.829-2.267-20.025.526-27.247 3.089-7.989 10.538-15.869 18.888-19.98 6.238-3.07 7.304-3.273 17.193-3.273 9.888 0 10.954.203 17.192 3.274 8.35 4.11 15.8 11.99 18.888 19.979 2.793 7.222 3.048 20.418.526 27.247-4.022 10.892-12.495 19.354-23.118 23.088-6.499 2.284-19.714 2.487-26.393.405zm10.029-10.106c3.894-3.524 1.809-6.475-10.438-14.771-3.747-2.54-7.29-4.616-7.872-4.616-.704 0-.675-.463.086-1.38 1.52-1.832 7.1-18.42 7.1-21.108 0-5.586-7.19-6.256-12.3-1.147-7.17 7.17-7.143 19.165.052 22.76 2.796 1.396 3.042 1.8 1.75 2.872-1.889 1.568-1.936 6.27-.098 9.802 4.444 8.541 16.148 12.63 21.72 7.588zm17.173 1.262c4.154-1.736 9.317-7.62 10.195-11.616.87-3.959-1.588-8.033-4.846-8.033-1.27 0-6.096 2.817-10.727 6.261-6.356 4.727-8.495 6.91-8.726 8.903-.593 5.096 6.922 7.485 14.104 4.485zm-9.612-13.713c4.012-1.516 8.084-5.707 9.39-9.666 3.489-10.57-7.01-21.25-17.984-18.295-7.045 1.897-12.409 10.639-10.702 17.441.864 3.44 5.47 8.612 9.061 10.177 3.752 1.634 6.567 1.729 10.235.343zm-8.685-6.19c-5.293-2.763-6.28-11.037-1.699-14.245 2.987-2.092 8.993-1.893 11.815.392 3.071 2.487 3.269 9.166.357 12.077-2.6 2.601-7.35 3.406-10.473 1.776zm31.927-3.381c4.467-5.68 1.53-18.286-5.218-22.4-4.039-2.464-6.198-2.476-8.623-.051-1.543 1.542-1.751 2.562-1.075 5.25 1.458 5.791 4.611 15.262 5.859 17.593 1.72 3.215 6.378 3.014 9.057-.392zm-15.492-23.294c2.17-2.398 1.48-4.82-2.446-8.581-2.426-2.324-4.09-2.942-8.854-3.287-7.434-.538-12.652 1.714-14.901 6.432-1.476 3.094-1.459 3.459.246 5.343 1.629 1.8 3.06 2.022 13.02 2.022 9.781 0 11.41-.243 12.935-1.929zm-98.323-39.652c-22.45-6.038-38.372-27.1-38.491-50.92-.05-10.07 1.64-17.104 6.25-25.998 6.445-12.433 18.296-21.902 32.629-26.068 6.947-2.02 20.463-2.26 27.968-.495 23.584 5.544 40.532 27.313 40.532 52.062 0 23.454-14.053 42.996-36.285 50.46-6.153 2.065-9.405 2.527-17.392 2.474-5.403-.036-12.248-.718-15.211-1.515zm28.551-8.99c12.506-3.477 25.328-16.187 29.299-29.042 7.916-25.63-7.604-51.459-34.262-57.017-24.306-5.068-48.359 11.776-52.74 36.934-3.181 18.27 7.086 37.711 24.395 46.19 11.23 5.502 20.987 6.362 33.308 2.936zm-26.441-6.343c-7.598-2.817-14.536-8.306-19.059-15.079-4.91-7.354-6.541-13.92-5.958-23.993.796-13.743 8.628-25.35 21.307-31.575 5.473-2.687 6.892-2.94 16.503-2.94 9.858 0 10.932.205 17.172 3.275 8.298 4.081 15.776 11.968 18.944 19.979 3.18 8.041 3.18 20.452 0 28.493-3.152 7.972-10.65 15.899-18.858 19.94-5.687 2.8-7.792 3.276-15.672 3.545-7.135.244-10.241-.112-14.38-1.645zm8.31-8.535c2.817-1.178 3.468-1.989 3.468-4.326 0-1.718-.907-3.69-2.25-4.897-4.634-4.16-15.569-11.328-17.282-11.328-1.608 0-1.632-.168-.253-1.75 2.325-2.668 6.96-17.73 6.601-21.454-.295-3.076-.587-3.316-4.37-3.594-7.424-.546-12.446 6.01-12.446 16.244 0 4.66.428 6.073 2.454 8.1 1.35 1.35 3.176 2.454 4.057 2.454 1.456 0 1.46.203.046 2.222-4.073 5.815 1.04 15.089 10.098 18.319 4.926 1.756 5.696 1.757 9.877.01zm20.938-.833c7.319-4.145 10.956-13.38 6.994-17.758-1.405-1.552-1.295-1.744 1.296-2.262 8.207-1.642 7.353-19.61-1.18-24.813-3.517-2.144-7.622-2.444-9.38-.685-1.942 1.941-1.408 6.016 2.111 16.118l3.312 9.505-6.452 4.242c-9.349 6.147-13.171 9.769-13.171 12.482 0 5.415 9.334 7.213 16.47 3.171zm-7.738-14.279c5.717-3.746 8.032-13.127 4.788-19.4-6.088-11.773-24.098-9.75-27.556 3.095-1.918 7.12 2.01 14.855 9.036 17.798 3.182 1.332 10.661.52 13.732-1.493zm-14.558-6.754c-4.24-4.512-2.085-11.827 4.132-14.026 2.5-.885 8.29 1.716 9.705 4.361 1.607 3.003.392 8.583-2.274 10.45-3.339 2.34-8.988 1.956-11.563-.785zm18.626-23.885c3.576-3.577-1.161-10.898-8.2-12.67-9.534-2.402-18.6 2.036-18.6 9.104 0 4.204 1.649 4.766 14 4.766 7.689 0 12.004-.405 12.8-1.2zm-88.3-43.756c-10.563-2.296-22.65-8.987-29.18-16.153-3.886-4.265-9.345-14.237-11.357-20.747-2.67-8.644-2.67-22.645 0-31.289 2.244-7.26 7.685-16.811 12.351-21.678 4.931-5.142 13.971-10.77 21.42-13.33 9.656-3.321 25.875-3.321 35.532 0 22.087 7.595 35.734 26.94 35.734 50.653 0 23.396-13.028 42.275-34.621 50.17-7.575 2.768-22.578 3.961-29.88 2.374zm22-9.4c20.182-5.378 33.5-22.53 33.5-43.144 0-33.995-36.05-55.205-66.063-38.87-23.348 12.708-30.332 44.013-14.514 65.056 11.046 14.694 29.979 21.514 47.077 16.958zm-21.27-6.135c-7.45-2.09-10.875-4.06-16.798-9.662-3.262-3.085-6.25-7.21-8.058-11.125-2.56-5.54-2.874-7.319-2.874-16.222 0-8.925.312-10.676 2.9-16.282 3.72-8.053 12.233-16.148 20.315-19.316 4.49-1.76 7.799-2.267 14.785-2.267s10.294.507 14.784 2.267c8.082 3.168 16.596 11.263 20.315 19.316 2.589 5.606 2.9 7.357 2.9 16.282s-.311 10.675-2.9 16.282c-3.747 8.114-12.254 16.178-20.315 19.258-7.343 2.807-18.047 3.434-25.054 1.469zm21.989-8.553c6.869-1.908 12.78-8.65 12.78-14.578 0-3.008-2.51-6.378-4.752-6.378-1.67 0-15.846 9.79-18.626 12.864l-1.879 2.078-1.914-2.433c-2.926-3.72-15.924-12.51-18.499-12.51-1.343 0-2.97 1.049-3.951 2.546-2.324 3.547-.523 9.242 4.245 13.429 6.58 5.778 13.709 6.784 17.957 2.536 2.039-2.039 2.596-2.214 3.074-.97.584 1.523 4.968 4.35 6.846 4.414.55.019 2.673-.43 4.719-.998zm-1.398-18.311c3.472-3.472 3.679-4.038 3.679-10.081 0-5.45-.373-6.802-2.5-9.079-3.432-3.673-7.232-5.485-11.5-5.485s-8.069 1.812-11.5 5.485c-2.12 2.27-2.5 3.635-2.5 8.99 0 6.854 1.192 9.021 7 12.723 2.267 1.446 4.3 1.817 8.321 1.52 4.537-.337 5.864-.937 9-4.073zm-16.367-4.1c-5.393-5.393-1.588-14.545 6.046-14.545 4.876 0 8.5 3.623 8.5 8.5 0 2.479-.76 4.35-2.455 6.045-1.695 1.695-3.566 2.455-6.045 2.455-2.48 0-4.351-.76-6.046-2.455zm31.601.425c1.058-.566 2.604-2.344 3.434-3.95 4.514-8.729-2.676-22.568-11.335-21.819-5.385.466-5.926 2.426-3.169 11.476 4.36 14.31 6.317 16.837 11.07 14.293zm-45.688-2.72c.78-1.513 2.649-6.702 4.153-11.53 2.632-8.452 2.667-8.855.952-10.75-5.4-5.968-16.472 3.47-16.472 14.04 0 4.328 2.105 9.466 4.229 10.32 3.248 1.307 5.77.572 7.138-2.08zm31.41-21.807c4.291-3.005 2.293-8.6-4.108-11.506-5.289-2.402-10.05-2.402-15.339 0-6.694 3.04-8.437 9.199-3.33 11.773 3.74 1.885 19.976 1.695 22.777-.267z" fill="#4b526a"/><path d="M54.985 442.807c-13.528-3.493-23.287-9.12-33.584-19.362-7.504-7.464-9.879-10.613-13.268-17.591-8.293-17.075-7.587-1.232-7.93-178-.2-102.664.047-160.18.71-165.197C5.23 29.918 30.514 5.274 64.342.83c5.492-.722 44.592-.968 120.142-.757C296.432.385 296.488.386 304.27 2.588c23.58 6.67 42.994 24.614 50.458 46.635l2.756 8.13.264 162.244c.298 182.171.787 169.656-7.267 185.971-9.358 18.956-28.15 33.348-49.434 37.86-5.397 1.144-27.182 1.384-122.563 1.353-111.418-.036-116.297-.114-123.5-1.974zm241-2.018c8.574-1.385 18.837-5.01 25.809-9.115 9.006-5.303 20.067-17.002 24.883-26.32 8.488-16.422 7.808-.53 7.808-182.5 0-150.805-.116-161.93-1.754-168-6.82-25.275-29.07-45.584-54.746-49.97-4.577-.78-40.824-1.024-122.5-.82l-116 .29-8 2.724c-11.253 3.832-19.84 9.144-27.985 17.31-7.974 7.994-12.47 15.05-16.336 25.631l-2.68 7.335-.28 162C3.89 400.182 3.455 388.285 10.937 403.5c9.5 19.32 26.89 32.386 49.048 36.855 8.413 1.697 225.708 2.096 236 .434zm-55.5-52.581c-30.855-4.623-51.575-32.267-46.544-62.096 1.856-11.002 6.805-20.262 15.323-28.67 11.227-11.08 22.103-15.555 37.865-15.576 15.631-.022 28.76 5.717 39.42 17.23 30.444 32.884 8.815 86-36.28 89.095-3.732.257-8.134.264-9.784.017zm14.613-9.353c16.793-3.114 31.12-16.276 35.335-32.461 5.388-20.694-4.525-42.076-23.927-51.61-6.821-3.353-7.263-3.43-19.5-3.43-12.03 0-12.788.126-19.323 3.221-16.766 7.941-26.832 25.267-25.415 43.74 2.039 26.568 26.587 45.406 52.83 40.54zm-22.22-8.31c-10.247-4.299-16.225-9.985-20.908-19.885-8.828-18.668-.615-40.988 18.536-50.376 5.458-2.675 6.894-2.93 16.479-2.93 9.584 0 11.02.255 16.478 2.93 15.539 7.617 24.425 24.502 21.483 40.82-2.27 12.591-10.401 23.259-21.786 28.582-4.667 2.183-7.363 2.704-15.175 2.933-8.118.239-10.317-.063-15.108-2.073zm9.584-7.863c2.847-1.297 4.193-4.808 2.799-7.3-1.176-2.101-17.193-13.528-18.963-13.528-1.115 0-1.096-.405.104-2.25 1.772-2.724 6.552-17.457 6.57-20.25.012-1.901.684-2 13.524-2 10.616 0 13.405.276 13.016 1.289-.551 1.436 5.117 19.998 6.706 21.96.556.688 2.274 1.25 3.817 1.25 4.163 0 6.95-4.075 6.95-10.166 0-6.293-1.885-10.717-6.066-14.235-2.73-2.298-4.013-2.717-7.064-2.308-2.681.36-3.596.157-3.258-.723.258-.672.012-2.425-.547-3.894-3.423-9.005-23.707-9.005-27.131 0-.559 1.47-.81 3.21-.557 3.867.33.859-.778 1.056-3.932.7-3.978-.448-4.715-.17-7.829 2.943-3.89 3.89-6.096 10.474-5.252 15.674.648 3.993 4.154 8.143 6.881 8.143 1.725 0 1.755.142.326 1.571-4.3 4.3-.05 14.498 7.626 18.297 4.841 2.397 8.5 2.683 12.28.96zm21.649-1.693c6.483-4.112 9.493-11.241 6.838-16.201-1.162-2.172-4.951-2.547-8.195-.811-3.19 1.707-14.17 9.924-15.004 11.227-.404.632-.742 2.014-.75 3.07-.049 6.126 9.375 7.62 17.111 2.715zm-10.508-12.759c10.861-5.154 10.906-21.511.073-26.43-5.484-2.49-8.332-2.426-13.655.304-5.766 2.956-8.306 7.576-7.737 14.074.494 5.65 2.995 9.488 7.772 11.924 4.287 2.186 9.115 2.232 13.547.128zm-10.762-5.893c-2.892-1.57-5.125-6.538-4.165-9.262.334-.947 1.518-2.734 2.632-3.971 3.99-4.433 11.806-2.213 13.985 3.971.991 2.812-1.317 7.732-4.367 9.309-3.48 1.8-4.7 1.792-8.085-.047zm-81.856-66.371c-12.6-4.079-22.357-11.177-29.381-21.375-11.678-16.955-12.012-41.012-.81-58.31 18.827-29.07 59.256-33.306 83.851-8.785 9.742 9.712 15.34 23.345 15.34 37.358 0 23.85-16.635 45.502-39.542 51.468-7.998 2.084-22.461 1.909-29.458-.356zm22-7.141c14.713-2.294 27.881-12.167 34.298-25.713 3.025-6.385 3.202-7.394 3.202-18.258 0-10.875-.175-11.87-3.215-18.288-8.732-18.433-28.16-28.957-47.665-25.816-30.497 4.91-46.86 36.306-33.408 64.104 5.786 11.957 18.862 21.778 31.788 23.874 7.61 1.234 7.704 1.235 15 .097zm-19.778-7.885c-7.598-2.817-14.536-8.306-19.059-15.079-4.91-7.354-6.541-13.92-5.958-23.993.796-13.743 8.628-25.35 21.307-31.575 5.473-2.687 6.892-2.94 16.503-2.94 9.858 0 10.932.205 17.172 3.275 8.298 4.081 15.776 11.968 18.944 19.979 3.18 8.041 3.18 20.452 0 28.493-3.152 7.972-10.65 15.899-18.858 19.94-5.687 2.8-7.792 3.276-15.672 3.545-7.135.244-10.241-.112-14.38-1.645zm8.31-8.535c2.817-1.178 3.468-1.989 3.468-4.326 0-1.718-.907-3.69-2.25-4.897-4.634-4.16-15.569-11.328-17.282-11.328-1.608 0-1.632-.168-.253-1.75 2.325-2.668 6.96-17.73 6.601-21.454-.295-3.076-.587-3.316-4.37-3.594-7.424-.546-12.446 6.01-12.446 16.244 0 4.66.428 6.073 2.454 8.1 1.35 1.35 3.176 2.454 4.057 2.454 1.456 0 1.46.203.046 2.222-4.073 5.815 1.04 15.089 10.098 18.319 4.926 1.756 5.696 1.757 9.877.01zm20.938-.833c7.319-4.145 10.956-13.38 6.994-17.758-1.405-1.552-1.295-1.744 1.296-2.262 8.207-1.642 7.353-19.61-1.18-24.813-3.517-2.144-7.622-2.444-9.38-.685-1.942 1.941-1.408 6.016 2.111 16.118l3.312 9.505-6.452 4.242c-9.349 6.147-13.171 9.769-13.171 12.482 0 5.415 9.334 7.213 16.47 3.171zm-7.738-14.279c5.717-3.746 8.032-13.127 4.788-19.4-6.088-11.773-24.098-9.75-27.556 3.095-1.918 7.12 2.01 14.855 9.036 17.798 3.182 1.332 10.661.52 13.732-1.493zm-14.558-6.754c-4.24-4.512-2.085-11.827 4.132-14.026 2.5-.885 8.29 1.716 9.705 4.361 1.607 3.003.392 8.583-2.274 10.45-3.339 2.34-8.988 1.956-11.563-.785zm18.626-23.885c3.576-3.577-1.161-10.898-8.2-12.67-9.534-2.402-18.6 2.036-18.6 9.104 0 4.204 1.649 4.766 14 4.766 7.689 0 12.004-.405 12.8-1.2zM98.63 162.27c-18.528-4.485-35.382-21.288-39.566-39.444-1.325-5.75-1.325-19.194 0-24.945 1.852-8.038 6.862-16.928 13.514-23.98 21.371-22.654 56.442-22.654 77.813 0 10.264 10.881 14.524 21.55 14.57 36.493.044 14.893-4.147 25.293-14.735 36.56-13.15 13.995-32.87 19.849-51.596 15.316zm24.895-8.968c12.314-3.207 22.425-11.553 28.234-23.306 3.68-7.447 3.726-7.685 3.726-19.642s-.045-12.195-3.726-19.643c-7.674-15.527-22.791-24.857-40.274-24.857-17.738 0-33.195 9.825-40.903 26-2.932 6.153-3.097 7.142-3.097 18.551 0 11.898.048 12.15 3.725 19.591 9.561 19.345 30.943 28.87 52.315 23.306zm-20.923-5.497c-11.086-2.784-21.055-11.04-26.354-21.827-2.458-5.004-2.763-6.728-2.763-15.624 0-8.897.305-10.62 2.763-15.624 4.312-8.778 9.814-14.311 18.5-18.604 7.138-3.528 8.223-3.772 16.737-3.772 8.514 0 9.598.244 16.736 3.772 8.748 4.323 14.612 10.21 18.654 18.728 2.272 4.789 2.61 6.792 2.61 15.5 0 8.707-.338 10.71-2.61 15.5-6.237 13.142-18.859 21.768-32.961 22.526-4.086.22-9.176-.039-11.312-.575zm24.893-10.523c4.897-2.324 8.49-7.808 8.49-12.96 0-2.238-.54-4.608-1.2-5.268-.934-.934-.861-1.2.325-1.2 2.576 0 6.01-4.59 6.573-8.785.703-5.241-1.209-10.948-5.013-14.965-2.544-2.687-3.824-3.25-7.382-3.25-3.811 0-4.303-.26-4.303-2.278 0-5.366-6.273-9.722-14-9.722-7.668 0-14 4.354-14 9.627 0 1.95-.406 2.128-3.8 1.673-7.117-.955-13.2 6.664-13.2 16.533 0 6.09 2.786 10.167 6.95 10.167 1.543 0 3.324-.626 3.959-1.39 1.685-2.031 7.314-20.585 6.717-22.14-.404-1.054.101-1.113 2.473-.286 1.646.574 7.668.866 13.441.652 10.063-.372 10.46-.308 10.46 1.7 0 2.67 5.587 19.261 7.1 21.084.885 1.067.81 1.38-.329 1.38-1.625 0-16.467 10.236-18.636 12.853-.992 1.196-1.492 1.308-1.83.407-.256-.682-4.251-3.973-8.88-7.314-6.827-4.929-9.021-6.015-11.638-5.76-7.404.72-5.196 12.508 3.385 18.072 5.355 3.472 12.548 3.813 15.342.726 1.79-1.978 1.862-1.98 3.905-.127 1.144 1.038 2.756 2.155 3.58 2.482 2.239.887 7.432.024 11.51-1.911zm-7.809-14.388c4.195-2.557 6.3-6.818 6.295-12.74-.01-8.86-5.523-14.3-14.496-14.3-8.974 0-14.49 5.44-14.497 14.3-.01 9.263 5.35 14.692 14.497 14.692 3.199 0 6.153-.703 8.201-1.952zm-12.201-5.248c-6.586-3.777-5.657-13.021 1.538-15.305 5.094-1.616 10.985 2.669 10.93 7.951-.067 6.442-6.965 10.51-12.468 7.354z" fill="#881c21"/><path d="M54.985 442.807c-13.528-3.493-23.287-9.12-33.584-19.362-7.504-7.464-9.879-10.613-13.268-17.591-8.293-17.075-7.587-1.232-7.93-178-.2-102.664.047-160.18.71-165.197C5.23 29.918 30.514 5.274 64.342.83c5.492-.722 44.592-.968 120.142-.757C296.432.385 296.488.386 304.27 2.588c23.58 6.67 42.994 24.614 50.458 46.635l2.756 8.13.264 162.244c.298 182.171.787 169.656-7.267 185.971-9.358 18.956-28.15 33.348-49.434 37.86-5.397 1.144-27.182 1.384-122.563 1.353-111.418-.036-116.297-.114-123.5-1.974zm241-2.018c8.574-1.385 18.837-5.01 25.809-9.115 9.006-5.303 20.067-17.002 24.883-26.32 8.488-16.422 7.808-.53 7.808-182.5 0-150.805-.116-161.93-1.754-168-6.82-25.275-29.07-45.584-54.746-49.97-4.577-.78-40.824-1.024-122.5-.82l-116 .29-8 2.724c-11.253 3.832-19.84 9.144-27.985 17.31-7.974 7.994-12.47 15.05-16.336 25.631l-2.68 7.335-.28 162C3.89 400.182 3.455 388.285 10.937 403.5c9.5 19.32 26.89 32.386 49.048 36.855 8.413 1.697 225.708 2.096 236 .434zm-55.5-52.581c-30.855-4.623-51.575-32.267-46.544-62.096 1.856-11.002 6.805-20.262 15.323-28.67 11.227-11.08 22.103-15.555 37.865-15.576 15.631-.022 28.76 5.717 39.42 17.23 30.444 32.884 8.815 86-36.28 89.095-3.732.257-8.134.264-9.784.017zm14.613-9.353c16.793-3.114 31.12-16.276 35.335-32.461 5.388-20.694-4.525-42.076-23.927-51.61-6.821-3.353-7.263-3.43-19.5-3.43-12.03 0-12.788.126-19.323 3.221-16.766 7.941-26.832 25.267-25.415 43.74 2.039 26.568 26.587 45.406 52.83 40.54zm-22.22-8.31c-10.247-4.299-16.225-9.985-20.908-19.885-8.828-18.668-.615-40.988 18.536-50.376 5.458-2.675 6.894-2.93 16.479-2.93 9.584 0 11.02.255 16.478 2.93 15.539 7.617 24.425 24.502 21.483 40.82-2.27 12.591-10.401 23.259-21.786 28.582-4.667 2.183-7.363 2.704-15.175 2.933-8.118.239-10.317-.063-15.108-2.073zm9.584-7.863c2.847-1.297 4.193-4.808 2.799-7.3-1.176-2.101-17.193-13.528-18.963-13.528-1.115 0-1.096-.405.104-2.25 1.772-2.724 6.552-17.457 6.57-20.25.012-1.901.684-2 13.524-2 10.616 0 13.405.276 13.016 1.289-.551 1.436 5.117 19.998 6.706 21.96.556.688 2.274 1.25 3.817 1.25 4.163 0 6.95-4.075 6.95-10.166 0-6.293-1.885-10.717-6.066-14.235-2.73-2.298-4.013-2.717-7.064-2.308-2.681.36-3.596.157-3.258-.723.258-.672.012-2.425-.547-3.894-3.423-9.005-23.707-9.005-27.131 0-.559 1.47-.81 3.21-.557 3.867.33.859-.778 1.056-3.932.7-3.978-.448-4.715-.17-7.829 2.943-3.89 3.89-6.096 10.474-5.252 15.674.648 3.993 4.154 8.143 6.881 8.143 1.725 0 1.755.142.326 1.571-4.3 4.3-.05 14.498 7.626 18.297 4.841 2.397 8.5 2.683 12.28.96zm21.649-1.693c6.483-4.112 9.493-11.241 6.838-16.201-1.162-2.172-4.951-2.547-8.195-.811-3.19 1.707-14.17 9.924-15.004 11.227-.404.632-.742 2.014-.75 3.07-.049 6.126 9.375 7.62 17.111 2.715zm-10.508-12.759c10.861-5.154 10.906-21.511.073-26.43-5.484-2.49-8.332-2.426-13.655.304-5.766 2.956-8.306 7.576-7.737 14.074.494 5.65 2.995 9.488 7.772 11.924 4.287 2.186 9.115 2.232 13.547.128zm-10.762-5.893c-2.892-1.57-5.125-6.538-4.165-9.262.334-.947 1.518-2.734 2.632-3.971 3.99-4.433 11.806-2.213 13.985 3.971.991 2.812-1.317 7.732-4.367 9.309-3.48 1.8-4.7 1.792-8.085-.047zm-81.856-66.371c-12.6-4.079-22.357-11.177-29.381-21.375-11.678-16.955-12.012-41.012-.81-58.31 18.827-29.07 59.256-33.306 83.851-8.785 9.742 9.712 15.34 23.345 15.34 37.358 0 23.85-16.635 45.502-39.542 51.468-7.998 2.084-22.461 1.909-29.458-.356zm22-7.141c14.713-2.294 27.881-12.167 34.298-25.713 3.025-6.385 3.202-7.394 3.202-18.258 0-10.875-.175-11.87-3.215-18.288-8.732-18.433-28.16-28.957-47.665-25.816-30.497 4.91-46.86 36.306-33.408 64.104 5.786 11.957 18.862 21.778 31.788 23.874 7.61 1.234 7.704 1.235 15 .097zM98.63 162.27c-18.528-4.485-35.382-21.288-39.566-39.444-1.325-5.75-1.325-19.194 0-24.945 1.852-8.038 6.862-16.928 13.514-23.98 21.371-22.654 56.442-22.654 77.813 0 10.264 10.881 14.524 21.55 14.57 36.493.044 14.893-4.147 25.293-14.735 36.56-13.15 13.995-32.87 19.849-51.596 15.316zm24.895-8.968c12.314-3.207 22.425-11.553 28.234-23.306 3.68-7.447 3.726-7.685 3.726-19.642s-.045-12.195-3.726-19.643c-7.674-15.527-22.791-24.857-40.274-24.857-17.738 0-33.195 9.825-40.903 26-2.932 6.153-3.097 7.142-3.097 18.551 0 11.898.048 12.15 3.725 19.591 9.561 19.345 30.943 28.87 52.315 23.306zm-20.923-5.497c-11.086-2.784-21.055-11.04-26.354-21.827-2.458-5.004-2.763-6.728-2.763-15.624 0-8.897.305-10.62 2.763-15.624 4.312-8.778 9.814-14.311 18.5-18.604 7.138-3.528 8.223-3.772 16.737-3.772 8.514 0 9.598.244 16.736 3.772 8.748 4.323 14.612 10.21 18.654 18.728 2.272 4.789 2.61 6.792 2.61 15.5 0 8.707-.338 10.71-2.61 15.5-6.237 13.142-18.859 21.768-32.961 22.526-4.086.22-9.176-.039-11.312-.575zm24.893-10.523c4.897-2.324 8.49-7.808 8.49-12.96 0-2.238-.54-4.608-1.2-5.268-.934-.934-.861-1.2.325-1.2 2.576 0 6.01-4.59 6.573-8.785.703-5.241-1.209-10.948-5.013-14.965-2.544-2.687-3.824-3.25-7.382-3.25-3.811 0-4.303-.26-4.303-2.278 0-5.366-6.273-9.722-14-9.722-7.668 0-14 4.354-14 9.627 0 1.95-.406 2.128-3.8 1.673-7.117-.955-13.2 6.664-13.2 16.533 0 6.09 2.786 10.167 6.95 10.167 1.543 0 3.324-.626 3.959-1.39 1.685-2.031 7.314-20.585 6.717-22.14-.404-1.054.101-1.113 2.473-.286 1.646.574 7.668.866 13.441.652 10.063-.372 10.46-.308 10.46 1.7 0 2.67 5.587 19.261 7.1 21.084.885 1.067.81 1.38-.329 1.38-1.625 0-16.467 10.236-18.636 12.853-.992 1.196-1.492 1.308-1.83.407-.256-.682-4.251-3.973-8.88-7.314-6.827-4.929-9.021-6.015-11.638-5.76-7.404.72-5.196 12.508 3.385 18.072 5.355 3.472 12.548 3.813 15.342.726 1.79-1.978 1.862-1.98 3.905-.127 1.144 1.038 2.756 2.155 3.58 2.482 2.239.887 7.432.024 11.51-1.911zm-7.809-14.388c4.195-2.557 6.3-6.818 6.295-12.74-.01-8.86-5.523-14.3-14.496-14.3-8.974 0-14.49 5.44-14.497 14.3-.01 9.263 5.35 14.692 14.497 14.692 3.199 0 6.153-.703 8.201-1.952zm-12.201-5.248c-6.586-3.777-5.657-13.021 1.538-15.305 5.094-1.616 10.985 2.669 10.93 7.951-.067 6.442-6.965 10.51-12.468 7.354z" fill="#0f1938"/><path d="M54.985 442.807c-13.528-3.493-23.287-9.12-33.584-19.362-7.504-7.464-9.879-10.613-13.268-17.591-8.293-17.075-7.587-1.232-7.93-178-.2-102.664.047-160.18.71-165.197C5.23 29.918 30.514 5.274 64.342.83c5.492-.722 44.592-.968 120.142-.757C296.432.385 296.488.386 304.27 2.588c23.58 6.67 42.994 24.614 50.458 46.635l2.756 8.13.264 162.244c.298 182.171.787 169.656-7.267 185.971-9.358 18.956-28.15 33.348-49.434 37.86-5.397 1.144-27.182 1.384-122.563 1.353-111.418-.036-116.297-.114-123.5-1.974zm241-2.018c8.574-1.385 18.837-5.01 25.809-9.115 9.006-5.303 20.067-17.002 24.883-26.32 8.488-16.422 7.808-.53 7.808-182.5 0-150.805-.116-161.93-1.754-168-6.82-25.275-29.07-45.584-54.746-49.97-4.577-.78-40.824-1.024-122.5-.82l-116 .29-8 2.724c-11.253 3.832-19.84 9.144-27.985 17.31-7.974 7.994-12.47 15.05-16.336 25.631l-2.68 7.335-.28 162C3.89 400.182 3.455 388.285 10.937 403.5c9.5 19.32 26.89 32.386 49.048 36.855 8.413 1.697 225.708 2.096 236 .434z"/></svg>