<svg xmlns="http://www.w3.org/2000/svg" width="358.837" height="445.884"><path d="M59.487 444.75c-24.044-4.46-43.88-19.677-53.605-41.124-6.187-13.646-5.864-3.734-5.88-180.52C-.014 66.722.048 61.273 1.915 53.971 8.596 27.853 30.388 7.278 57.194 1.778 68.437-.529 289.97-.621 300.892 1.677c26.55 5.584 47.938 25.305 55.291 50.978l2.304 8.041v162c0 152.41-.106 162.415-1.79 169-6.37 24.9-25.649 44.145-52.21 52.12-5.612 1.684-13.515 1.815-122 2.016-91.581.17-117.474-.057-123-1.082zm240.871-5.044c19.776-4.19 38.337-18.781 47.078-37.01 6.924-14.44 6.552-4.212 6.533-179.697-.019-176.629.421-165.47-7.135-180.802-5.913-11.998-17.832-23.873-29.847-29.736-17.084-8.337-6.95-7.764-137.5-7.764-108.203 0-116.47.12-123 1.79C32.114 12.721 12.84 31.44 6.26 55.269c-1.665 6.033-1.774 16.317-1.774 167.428 0 176.064-.361 165.245 5.974 179 8.587 18.644 24.981 32.129 45.526 37.448 7.209 1.866 11.96 1.943 122.5 1.98 96.963.03 116.077-.192 121.871-1.42zm-185.371-37.578c-3.025-.527-9.275-2.76-13.889-4.965-14.568-6.96-25.963-21.302-29.16-36.704-1.64-7.892-.724-22.304 1.881-29.61 5.277-14.803 19.215-28.788 32.639-32.752 2.49-.735 4.529-1.63 4.529-1.989 0-.358-2.062-1.229-4.582-1.934-5.742-1.608-14.602-7.339-20.223-13.08-9.51-9.716-14.086-20.267-14.914-34.397-.647-11.044.754-18.314 5.253-27.263 13.498-26.846 45.951-37.575 73.19-24.195 11.736 5.765 23.118 18.624 26.794 30.27.9 2.853 1.867 5.863 2.148 6.688.29.848 1.27-.891 2.257-4 7.03-22.163 24.957-36.53 48.077-38.533 9.371-.811 19.925 1.26 29 5.692 12.797 6.25 24.772 21.205 27.92 34.868 1.581 6.861 1.306 21.84-.516 28.041-4.956 16.873-17.925 30.686-33.891 36.099-4.006 1.357-4.611 1.831-3.013 2.358 1.1.362 5.327 2.249 9.394 4.193 12.846 6.139 23.246 18.696 27.51 33.213 1.822 6.2 2.097 21.18.516 28.04-3.945 17.12-18.91 32.866-36.379 38.28-10.233 3.17-24.461 2.99-34.143-.436-17.09-6.045-28.935-18.351-34.475-35.815-.987-3.11-1.967-4.848-2.257-4-.281.825-1.248 3.834-2.148 6.686-3.25 10.3-12.524 21.683-23.018 28.254-9.862 6.176-26.173 9.137-38.5 6.991zm18.109-9.952c18.492-3.507 32.983-18.445 35.987-37.095 2.692-16.716-6.283-35.357-21.245-44.125-11.813-6.924-28.851-7.761-41.11-2.021-22.386 10.482-31.98 36.488-21.556 58.436 8.777 18.483 28.213 28.543 47.924 24.805zm-14.329-5.01c-10.616-1.788-20.77-8.565-26.629-17.772-12.461-19.583-4.63-45.438 16.846-55.616 5.915-2.803 7.406-3.081 16.503-3.081 8.923 0 10.612.3 15.692 2.795 8.439 4.144 15.193 10.71 19.027 18.499 3.077 6.25 3.28 7.315 3.28 17.184 0 9.883-.191 10.885-3.166 16.521-5.955 11.286-16.56 19.18-28.767 21.414-6.502 1.19-6.064 1.189-12.786.056zm1.518-10.893c2.771-1.053 4.017-3.506 3.158-6.213-.694-2.186-17.058-13.863-19.428-13.863-2.683 0-4.028 2.162-4.028 6.477 0 9.499 11.253 17.038 20.298 13.6zm20.357-.717c4.965-2.356 8.617-7.552 8.617-12.258 0-5.006-.77-6.102-4.286-6.102-3.438 0-19.27 11.445-19.816 14.325-.19 1.003.438 2.69 1.397 3.75 2.21 2.442 9.242 2.584 14.088.285zm-9.291-13.738c7.297-3.05 10.228-11.233 6.8-18.983-4.057-9.172-16.507-11.11-23.628-3.677-3.967 4.141-4.747 12.344-1.649 17.356 3.734 6.042 11.426 8.25 18.477 5.304zm-10.254-4.976c-5.522-3.155-6.516-9.393-2.187-13.722 5.814-5.814 15.077-2.45 15.077 5.475 0 6.67-7.384 11.393-12.89 8.247zm29.946-1.645c1.618 0 3.944-5.83 3.944-9.886 0-7.474-4.467-14.4-10.082-15.632-3.29-.723-6.918.928-6.918 3.146 0 .858 1.383 6.013 3.075 11.458 2.977 9.582 4.898 12.402 7.756 11.387.733-.26 1.734-.474 2.225-.474zm-46.557-1.75c2.463-6.037 6.5-18.977 6.5-20.831 0-3.887-7.022-4.763-11.286-1.409-5.568 4.38-7.434 17.325-3.177 22.03 2.231 2.465 6.992 2.59 7.963.21zm33-26.71c0-3.388-.49-4.292-3.397-6.25-6.003-4.046-19.315-2.498-22.022 2.56-1.22 2.278-1.434 6.462-.385 7.511.382.383 6.344.57 13.25.417l12.555-.278v-3.96zm103.61 65.439c13.723-2.603 25.704-11.76 31.927-24.4 3.017-6.13 3.451-8.035 3.798-16.654.424-10.57-.943-16.682-5.494-24.552-3.612-6.248-12.529-14.094-20.082-17.672-6.385-3.025-7.394-3.202-18.258-3.202-10.865 0-11.874.177-18.259 3.202-9.343 4.425-16.922 11.861-21.47 21.063-3.187 6.45-3.719 8.565-4.087 16.254-.334 6.986.014 10.278 1.66 15.698 6.45 21.233 28.35 34.419 50.265 30.263zm-14.515-5.036c-12.063-2.021-24.084-11.314-29.396-22.725-2.288-4.915-2.665-7.053-2.68-15.218-.017-8.618.276-10.123 3.156-16.201 12.951-27.338 50.204-30.69 67.408-6.066 13.236 18.946 6.77 45.071-13.879 56.077-4.588 2.446-16.65 5.626-19.203 5.064-.275-.06-2.708-.48-5.406-.931zm1.755-10.886c2.804-1.066 4.204-4.246 2.898-6.58-1.322-2.361-17.313-13.477-19.388-13.477-2.708 0-5.22 4.426-4.392 7.742 2.363 9.466 12.56 15.479 20.882 12.315zm20.666-.91c6.21-3.299 9.572-10.848 7.378-16.566-1.071-2.79-5.79-1.777-11.98 2.572-11.412 8.017-13.054 10.376-9.758 14.018 2.208 2.44 9.748 2.428 14.36-.023zm-9.505-13.587c9.914-4.143 10.07-21.56.23-25.684-7.06-2.96-15.683-.63-19.105 5.163-2.296 3.887-2.104 11.68.388 15.767 3.449 5.657 11.42 7.707 18.487 4.754zm-10.735-5.12c-5.369-2.913-6.282-8.496-2.187-13.364 6.637-7.887 19.257.87 14.382 9.979-1.089 2.035-5.982 4.972-8.17 4.904-.716-.022-2.527-.705-4.025-1.518zm29.567-1.55c8.459-3.855 4.325-23.267-5.41-25.405-3.69-.81-6.932.995-6.932 3.862 0 3.71 5.878 20.047 7.7 21.403 2.027 1.506 1.666 1.495 4.642.14zm-45.949-2.14c2.744-4.29 7.01-19.888 5.916-21.635-1.387-2.216-6.933-2.592-9.867-.67-6.022 3.946-8.547 16.61-4.37 21.92 2.578 3.276 6.359 3.451 8.321.384zm33.433-24.08c.663-3.455-.885-6.735-4.103-8.698-6.027-3.675-19.064-1.942-21.643 2.877-1.22 2.279-1.434 6.463-.385 7.512.382.383 6.339.57 13.237.417 11.233-.25 12.58-.47 12.894-2.108zm-60.577-5.988c4.592-8.615 13.881-17.52 22.95-22.001 4.097-2.025 8.204-3.681 9.125-3.681 3.228 0 1.633-1.576-2.97-2.936-2.555-.754-7.928-3.567-11.941-6.25-10.885-7.281-18.73-18.076-21.77-29.958l-1.31-5.115-2.26 7.032c-2.84 8.834-8.682 17.847-15.388 23.744-5.015 4.41-17.53 11.483-20.32 11.483-.75 0-1.365.45-1.365 1s.614 1 1.365 1c2.79 0 15.305 7.072 20.32 11.482 6.706 5.897 12.547 14.91 15.388 23.744l2.26 7.032 1.348-5.267c.742-2.897 2.797-7.986 4.568-11.309zm-46.14-37.72c15.96-5.376 27.14-18.444 29.918-34.971 3.052-18.16-6.82-37.342-23.437-45.536-9.579-4.724-17.546-6.127-26.722-4.707-21.868 3.385-37.868 21.61-37.868 43.13 0 19.788 12.456 36.68 31.5 42.72 6.432 2.039 19.604 1.725 26.61-.636zm-24.61-4.365c-15.884-5.036-26.843-18.378-28.178-34.306-1.676-19.989 12.324-37.52 33.016-41.346 15.596-2.883 32.901 6.215 40.996 21.554 2.973 5.634 3.167 6.641 3.167 16.5 0 11.854-1.61 16.768-8.083 24.666-9.541 11.645-27.289 17.254-40.917 12.932zm26.147-10.668c6.981-3.38 11.077-12.943 7.427-17.341-2.164-2.608-4.33-1.886-13.096 4.368-9.114 6.502-10.428 8.05-9.45 11.128 1.32 4.162 8.519 5.04 15.12 1.845zm-18.214-.855c.959-1.06 1.586-2.742 1.394-3.74-.529-2.742-16.612-14.334-19.889-14.334-3.061 0-3.937 1.485-3.937 6.677 0 4.126 2.978 8.729 7.388 11.418 4.286 2.613 12.67 2.602 15.044-.021zm10.766-13.677c3.706-1.916 6.15-6.88 6.17-12.53.038-10.756-10.85-17.055-21.085-12.198-10.851 5.15-9.277 22.72 2.36 26.334 3.4 1.056 8.725.375 12.555-1.606zm-14.275-6.32c-1.608-1.608-2.923-3.88-2.923-5.05 0-3.486 2.709-7.664 5.799-8.944 8.827-3.657 16.318 7.527 9.564 14.28-3.697 3.698-8.568 3.586-12.44-.287zm-15.023-.457c1.57-1.892 7.1-18.461 7.1-21.273 0-4.78-7.718-5.467-11.758-1.046-5.13 5.614-6.723 13.935-3.763 19.658 2.096 4.053 6.191 5.347 8.421 2.66zm49.027-1.255c4.051-5.15 1.528-18.055-4.273-21.856-3.064-2.008-8.56-1.637-10.007.675-1.084 1.732.136 6.717 4.543 18.566 1.73 4.651 2.279 5.25 4.809 5.25 1.894 0 3.553-.888 4.928-2.635zm-16.51-21.972c1.002-.385 1.583-1.821 1.583-3.912 0-6.597-9.663-10.996-18.768-8.544-6.741 1.815-10.862 9.432-6.482 11.982 1.88 1.096 21.048 1.479 23.668.474zm114.841 57.879c7.547-3.546 16.455-11.373 20.082-17.646 4.55-7.87 5.918-13.981 5.494-24.552-.347-8.619-.781-10.524-3.798-16.653-12.336-25.061-42.65-32.729-65.95-16.681-16.539 11.39-22.924 35.188-14.355 53.5 5.308 11.342 14.593 19.677 26.756 24.016 3.838 1.369 7.356 1.718 15.013 1.49 8.797-.263 10.813-.68 16.758-3.474zm-28.758-2.675c-11.467-3.635-19.824-10.839-24.826-21.397-2.88-6.078-3.173-7.583-3.156-16.2.015-8.166.392-10.304 2.68-15.219 7.46-16.024 25.425-25.74 42.052-22.743 28.281 5.099 42 37.085 25.832 60.228-9.298 13.308-27.872 19.996-42.582 15.331zm24.797-9.949c1.779-.743 4.69-3.008 6.468-5.034 2.584-2.943 3.235-4.558 3.235-8.027 0-5.42-1.961-7.421-5.83-5.952-5.087 1.932-17.175 11.533-17.836 14.167-1.302 5.187 6.59 7.927 13.963 4.846zm-16.794-1.653c2.766-3.056.848-5.905-8.328-12.372-9.104-6.416-12.645-7.15-14.241-2.95-1.953 5.137 1.173 11.592 7.477 15.436 4.334 2.643 12.654 2.58 15.092-.114zm10.611-13.723c3.835-2.264 5.886-6.423 5.882-11.927-.007-8.527-5.683-14.345-13.996-14.345-8.474 0-13.99 5.799-13.997 14.715-.003 4.41.476 5.76 3.098 8.747 4.872 5.549 12.473 6.672 19.013 2.81zm-14.526-6.35c-4.2-4.992-3.166-10.538 2.514-13.476 8.98-4.643 17.375 6.89 10.093 13.866-4.041 3.872-9.154 3.714-12.607-.39zm-14.845-.172c1.275-1.612 7.257-19.72 7.257-21.968 0-2.38-3.552-4.04-7.017-3.279-3.79.833-8.708 6.513-9.557 11.038-1.038 5.53.141 11.69 2.621 13.698 2.547 2.063 5.303 2.273 6.696.51zm48.747-.74c2.882-3.185 3.16-11.034.581-16.362-2.707-5.593-6.013-7.86-10.874-7.456-4.72.393-5.111 2.446-2.203 11.583 3.9 12.26 5.006 14.225 8.002 14.225 1.482 0 3.504-.896 4.494-1.99zm-16.072-22.617c1-.385 1.582-1.821 1.582-3.912 0-8.754-15.974-12.582-24.072-5.768-3.111 2.618-3.924 6.89-1.728 9.087 1.26 1.26 21.208 1.748 24.218.593zm-128.418-75.084c-5.913-.989-15.304-4.706-20.69-8.191-22.922-14.828-30.794-44.474-18.574-69.948 3.692-7.697 14.963-18.983 23.014-23.046 13.498-6.81 30.754-7.939 44.396-2.902 15.773 5.824 28.5 19.274 32.91 34.778 1.773 6.229 2.577 6.779 3.4 2.324 2.216-11.996 14.185-27.261 26.415-33.688 22.343-11.74 48.895-7.51 66.104 10.533 9.604 10.07 14.025 21.702 14.025 36.907 0 11.748-2.246 19.919-7.831 28.496-15.332 23.542-44.835 31.886-70.015 19.801-13.717-6.583-26.314-21.785-28.683-34.615-.815-4.413-1.989-4.145-2.89.66-.355 1.893-2.233 6.613-4.172 10.49-10.045 20.078-34.584 32.218-57.41 28.401zm20.54-10.861c33.105-8.621 44.152-50.315 19.547-73.783-9.8-9.348-20.205-13.207-33.496-12.422-13.655.806-24.741 6.642-32.825 17.28-5.322 7.004-7.956 14.466-8.527 24.148-1.76 29.848 26.076 52.386 55.3 44.777zm-21.04-4.794c-11.759-3.063-20.589-10.399-25.826-21.454-2.877-6.072-3.174-7.596-3.174-16.252 0-9.035.204-9.966 3.778-17.196 4.395-8.893 9.215-13.559 18.722-18.12 5.888-2.825 7.393-3.116 16-3.093 7.518.019 10.698.501 15.246 2.313 8.007 3.189 15.905 10.68 19.98 18.95 2.825 5.735 3.32 7.88 3.608 15.671.273 7.377-.062 10.083-1.834 14.809-3.915 10.44-12.594 19.252-22.715 23.06-6.233 2.346-17.444 2.965-23.785 1.312zm25.443-11.58c6.136-3.05 9.96-10.622 7.68-15.212-1.953-3.933-4.643-3.328-13.589 3.054-9.843 7.022-10.787 8.286-8.639 11.564 2.467 3.765 7.733 3.98 14.548.593zm-18.882-.136c1.134-1.134 1.918-2.805 1.744-3.713-.408-2.119-17.544-15.225-19.905-15.225-1.966 0-3.9 3.49-3.9 7.036 0 9.696 15.763 18.2 22.061 11.902zm10.757-13.969c4.252-2.593 7.592-9.756 6.652-14.269-2.795-13.419-21.219-16.18-26.978-4.043-3.347 7.053.065 16.493 7.008 19.383 3.648 1.52 9.893 1.017 13.318-1.07zm-13.77-5.767c-4.06-4.06-4.103-8.302-.125-12.28 6.005-6.005 15.077-2.442 15.077 5.921 0 5.303-2.476 8.142-7.712 8.845-3.714.498-4.54.214-7.24-2.486zm33.363-2.28c7.518-8.934-3.89-29.024-12.515-22.04l-2.383 1.93 3.305 10.084c4.54 13.85 6.76 15.77 11.593 10.027zm-48.511.698c1.416-1.706 7.1-18.337 7.1-20.773 0-1.986-2.834-3.847-5.858-3.847-3.119 0-7.834 4.626-9.703 9.52-2.98 7.803-.299 16.48 5.093 16.48 1.223 0 2.738-.621 3.368-1.38zm31.535-22.596c5.235-1.99 2.343-9.27-4.75-11.958-6.402-2.425-15.136-.36-18.19 4.3-2.135 3.258-1.62 5.759 1.513 7.344 2.957 1.495 17.748 1.713 21.427.314zm109.105 60.424c12.314-3.207 22.425-11.554 28.234-23.306 3.65-7.387 3.726-7.77 3.726-19.09 0-10.911-.177-11.926-3.185-18.276-16.33-34.47-64.167-34.337-80.705.224-2.924 6.11-3.11 7.188-3.11 18.02 0 11.1.125 11.777 3.43 18.5 9.618 19.574 30.734 29.363 51.61 23.928zm-21.04-4.79c-22.29-5.793-34.437-27.796-27.496-49.803 10.557-33.468 57.823-36.047 72.86-3.976 2.323 4.954 2.636 6.865 2.636 16.12 0 9.247-.312 11.157-2.61 16-6.231 13.13-18.84 21.754-32.961 22.543-4.285.24-9.546-.135-12.43-.884zm25.799-12c4.643-2.545 7.7-7.241 7.7-11.827 0-3.72-1.458-5.831-4.028-5.831-2.499 0-18.753 11.735-19.495 14.075-.415 1.307-.033 2.757 1.038 3.94 3.057 3.379 8.199 3.255 14.785-.356zm-19.388-.064c3.11-3.311 1.914-5.17-7.671-11.925-9.95-7.012-12.569-7.566-14.295-3.025-1.371 3.606.268 8.203 4.323 12.123 5.958 5.757 13.721 7.001 17.643 2.827zm10.182-13.143c9.16-4.736 9.16-20.167 0-24.903-9.789-5.062-21.08 1.541-21.09 12.333-.009 10.717 11.458 17.551 21.09 12.57zm-13.17-6.375c-5.989-5.988-2.183-14.973 6.372-15.045 5.202-.043 8.716 3.471 8.673 8.673-.072 8.555-9.057 12.36-15.045 6.372zm32.62-1.36c6.96-5.986 1.93-22.762-7.117-23.739-6.728-.726-7.393 1.454-3.905 12.807 4.193 13.65 5.897 15.34 11.021 10.932zm-47.64-.101c.996-1.2 7.03-18.926 7.079-20.794.04-1.511-3.272-3.821-5.477-3.821-3.088 0-8.425 4.563-10.141 8.67-2.06 4.93-1.74 11.583.708 14.695 2.259 2.87 5.992 3.467 7.832 1.25zm31.097-22.505c1.78-.49 2.593-1.496 2.825-3.488.83-7.158-11.168-12.013-20.28-8.206-6.452 2.696-8.744 10.255-3.545 11.693 3.233.894 17.76.895 21 0z" fill="#c38c8f"/><path d="M61.817 445.187c-27.652-4.75-49.424-22.798-58.507-48.5l-2.823-7.99-.265-162.744C-.074 43.909-.523 55.883 7.182 40.267c3.4-6.89 6.002-10.356 13.267-17.674 9.909-9.98 17.021-14.498 30.038-19.08l8-2.816h240l7.5 2.341c29.678 9.267 48.865 32.12 52.062 62.01.679 6.341.924 62.958.716 165.149-.354 174.537.347 159.025-7.956 176-3.377 6.902-5.864 10.207-13.24 17.585-7.66 7.663-10.57 9.814-18.582 13.744-17.936 8.796-6.734 8.117-137 8.3-63.525.09-117.602-.197-120.17-.639zm246.07-7.423c16.98-5.927 31.52-18.506 39.054-33.785 7.53-15.273 7.112-3.99 6.813-184.053l-.267-161.23-2.823-8c-6.438-18.244-17.782-30.925-34.896-39.007-15.77-7.448-6.854-6.992-136.781-6.992h-116.5L54.532 7c-20.01 5.793-35.156 18.218-43.515 35.697-6.97 14.574-6.53 2.39-6.53 181v162l2.902 8.854c7.169 21.873 25.166 38.671 47.827 44.64 6.99 1.842 11.858 1.908 125.77 1.71l118.5-.205 8.402-2.932zm-191.137-35.6c-12.483-2.102-22.737-7.804-31.917-17.748-18.556-20.102-18.511-50.789.104-71.515 5.233-5.826 14.305-12.003 21.253-14.47 2.638-.937 4.797-1.943 4.797-2.234 0-.292-2.16-1.298-4.797-2.235-20.436-7.258-35.203-28.344-35.203-50.265 0-15.007 4.904-26.546 16.04-37.743 8.898-8.945 16.277-12.93 28.597-15.446 22.999-4.695 47.2 7.627 58.22 29.643 2.278 4.552 4.143 9.275 4.143 10.495 0 4.36 1.409 3.513 2.728-1.64 4.797-18.746 22.046-34.263 42.772-38.477 26.57-5.401 54.005 11.705 61.904 38.599 1.815 6.178 2.083 20.24.516 27.04-3.241 14.068-14.658 28.27-28.155 35.026-4.398 2.201-8.62 4.003-9.381 4.003-2.979 0-1.135 1.619 3.866 3.394 15.632 5.551 29.97 21.578 33.67 37.633 1.567 6.8 1.299 20.863-.516 27.041-5.733 19.518-21.735 34.193-41.904 38.427-8.773 1.842-12.228 1.842-21 0-13.96-2.93-26.408-11.233-34.52-23.023-3.899-5.668-7.922-14.91-7.957-18.282-.013-1.28-.469-2.033-1.023-1.69-.55.34-1 1.664-1 2.943 0 1.279-1.865 6.05-4.143 10.602-5.642 11.273-13.76 19.342-24.975 24.824-11.26 5.505-20.753 7.012-32.119 5.098zm19.018-10.478c8.653-2.04 13.638-4.794 20.464-11.305 22.171-21.148 15.81-58.322-12.245-71.556-8.892-4.194-22.407-4.915-32.825-1.75-36.396 11.055-41.073 63.444-7.197 80.61 10.632 5.388 20.601 6.642 31.803 4.001zm-23.281-6.483c-11.222-3.762-19.33-11.63-23.562-22.862-3.15-8.364-2.5-22.433 1.407-30.417 9.588-19.599 34.084-27.078 53.97-16.478 26.71 14.236 25.608 54.325-1.867 67.85-8.531 4.2-20.78 4.98-29.948 1.907zm26.268-8.554c8.797-3.676 13.729-12.655 9.857-17.95-1.239-1.694-1.067-2.033 1.75-3.44 7.048-3.523 6.864-15.058-.354-22.276-5.399-5.4-12.044-5.032-12.009.664.018 2.831 4.782 17.55 6.57 20.3.805 1.237 1.032 2.25.504 2.25-1.288 0-13.887 8.578-17.336 11.802-3.449 3.225-3.48 5.478-.116 8.125 3.143 2.472 6.136 2.613 11.134.525zm-16.99-1.01c4.398-3.08 2.972-5.903-6.528-12.92-4.813-3.555-9.753-6.476-10.977-6.493-3.121-.042-5.683 4.17-4.905 8.063 1.865 9.326 15.465 16.214 22.41 11.35zm12.803-15.505c4.086-3.817 5.702-7.733 5.163-12.512-1.146-10.167-12-16.447-20.675-11.961-3.995 2.065-7.88 7.005-8.622 10.963-.88 4.69 2.452 11.914 6.735 14.601 4.682 2.938 13.691 2.373 17.399-1.091zm-15.393-4.976c-3.318-3.091-3.074-10.12.446-12.889 6.697-5.267 15.719.491 13.88 8.86-.37 1.686-1.637 3.74-2.816 4.566-3.103 2.173-8.89 1.903-11.51-.537zm-15.89-.211c1.965-1.461 7.702-17.82 7.702-21.96 0-6.246-8.579-5.86-13.47.606-5.233 6.921-5.17 16.382.139 20.558 3.047 2.397 3.407 2.448 5.63.796zm33.48-24.307c3.12-2.186 2.767-5.099-1.089-8.954-7.893-7.893-24.69-4.027-24.69 5.683 0 3.956 2.275 4.763 13.528 4.797 7.496.023 10.589-.363 12.25-1.526zm105.422 61.442c15.677-3.297 28.43-14.685 33.294-29.725 1.313-4.061 1.633-7.772 1.34-15.5-.338-8.874-.79-11.018-3.57-16.934-4.164-8.864-11.698-16.39-20.792-20.77-6.094-2.934-8.194-3.41-16.667-3.77-12.47-.533-20.886 1.826-29.724 8.332-11.94 8.79-17.692 21.826-16.904 38.31.377 7.882.888 9.919 4.135 16.49 8.982 18.173 28.895 27.772 48.888 23.567zm-22.34-7.135c-21.836-7.658-31.615-32.38-21.216-53.634 7.068-14.448 24.33-23.096 40.438-20.259 17.22 3.033 28.9 14.467 32.008 31.33 3.114 16.903-6.004 34.306-21.753 41.515-8.25 3.778-20.457 4.211-29.477 1.048zm27.756-8.664c7.678-3.486 12.295-12.52 8.983-17.575-1.475-2.25-1.483-2.511-.075-2.511.864 0 2.675-1.191 4.023-2.647 1.974-2.13 2.453-3.7 2.453-8.05 0-2.971-.66-6.677-1.464-8.234-4.586-8.867-15.536-11.013-15.536-3.045 0 3.164 4.394 16.403 6.523 19.651 1.197 1.827 1.24 2.324.2 2.324-.728 0-4.226 2.084-7.773 4.631-12.627 9.066-14.12 11.518-9.316 15.297 3.244 2.551 6.616 2.596 11.982.16zm-17.576-.918c3.664-2.967 2.034-6.138-6.276-12.21-9.582-7.002-12.042-7.922-14.714-5.504-4.396 3.978-1.25 12.513 6.273 17.023 5.087 3.05 11.437 3.347 14.717.691zm11.062-14.438c12.776-8.535 5.628-28.2-9.625-26.48-10.753 1.211-16.68 13.405-10.846 22.31 4.283 6.536 13.973 8.51 20.47 4.17zm-13.366-4.98c-4.177-3.172-4.166-10.48.02-13.773 7.248-5.702 17.098 2.602 12.844 10.828-.84 1.624-2.255 3.232-3.145 3.573-2.704 1.038-7.974.697-9.72-.628zm-16.037-2c2.335-2.566 7.3-16.866 7.3-21.025 0-3.793-3.677-5.516-7.975-3.736-9.471 3.923-12.948 18.531-5.835 24.516 3.624 3.05 3.945 3.062 6.51.245zm33.352-23.802c2.108-2.108 1.959-4.88-.424-7.857-1.697-2.12-8.73-5.048-12.127-5.048-3.397 0-10.43 2.928-12.128 5.048-2.383 2.976-2.532 5.749-.424 7.857 1.808 1.808 3.298 2.052 12.552 2.052s10.743-.244 12.55-2.052zm-57.428-10.569c5.01-7.547 13.727-15.143 21.848-19.037 3.835-1.838 7.547-3.342 8.25-3.342.703 0 1.279-.45 1.279-1s-.576-1-1.279-1-4.583-1.585-8.623-3.52c-13.035-6.247-23.47-18.646-28.175-33.48-.987-3.11-1.967-4.848-2.257-4-.281.825-1.248 3.834-2.148 6.686-4.369 13.842-18.179 27.914-32.324 32.938-2.857 1.015-5.194 2.13-5.194 2.48 0 .35 2.061 1.213 4.58 1.918 13.419 3.757 28.896 19.753 33.359 34.478.667 2.2 1.43 4.668 1.696 5.485.265.817 1.602-1.838 2.97-5.9 1.367-4.061 4.076-9.78 6.018-12.706zm-43.623-35.998c13.597-6.435 22.794-18.776 25.117-33.706 3.72-23.901-12.823-46.187-37.069-49.94-13.034-2.017-26.861 1.946-36.556 10.48-21.025 18.507-18.885 54.045 4.177 69.353 8.828 5.86 15.004 7.478 27.33 7.16 9.336-.241 11.221-.613 17-3.347zm-26.955-2.474c-10.926-2.142-21.783-10.584-26.801-20.84-3.802-7.772-4.415-21.957-1.306-30.212 4.376-11.616 12.53-19.296 24.398-22.98 32.789-10.18 61.195 22.486 46.584 53.57-4.865 10.35-15.48 18.292-27.354 20.468-6.73 1.232-9.21 1.231-15.521-.005zm4.32-10.98c3.365-2.647 3.333-4.9-.115-8.125-3.418-3.195-16.044-11.802-17.314-11.802-.515 0-1.836.9-2.936 2-4.684 4.683-.57 13.556 8.5 18.338 4.168 2.197 8.75 2.038 11.865-.411zm20.76-.793c7.071-4.484 10.053-12.853 5.915-16.598-2.758-2.496-5.206-1.593-14.79 5.451-6.387 4.694-8.25 6.61-8.25 8.481 0 5.914 9.639 7.415 17.126 2.666zm-10.507-12.758c7.538-3.577 10.672-13.799 6.22-20.285-3.573-5.207-6.953-7.259-12.084-7.336-6.27-.095-10.71 2.684-13.614 8.519-2.722 5.469-2.4 9.855 1.047 14.237 4.88 6.203 11.776 8.023 18.431 4.865zm-11.984-6.45c-2.13-1.676-2.634-2.91-2.634-6.46 0-5.525 2.767-8.466 7.966-8.466 4.604 0 7.698 2.195 8.548 6.067 1.839 8.369-7.183 14.127-13.88 8.86zm31.658-.942c5.477-4.308 5.555-13.475.176-20.588-4.831-6.39-13.468-6.856-13.468-.727 0 3.962 5.143 19.108 7.261 21.38 2.27 2.438 2.857 2.432 6.031-.065zm-46.816-1.309c2.129-3.248 6.524-16.487 6.524-19.65 0-5.519-5.752-6.789-10.946-2.418-3.599 3.029-5.054 5.472-6.172 10.369-2.133 9.34 6.148 18.485 10.594 11.7zm33.642-24.037c1.496-3.282-1.029-7.894-5.475-10.004-8.77-4.161-21.643.205-21.643 7.34 0 4.5 1.486 5.026 14.221 5.026 11.454 0 11.855-.074 12.897-2.362zm109.026 61.386c11.991-3.726 21.104-11.827 26.542-23.594 3.614-7.822 4.498-23.27 1.808-31.591-3.573-11.05-12.9-21.847-22.781-26.37-22.532-10.316-48.722-1.394-59.413 20.237-3.312 6.702-3.763 8.541-4.126 16.845-.521 11.919 1.916 20.635 8.132 29.078 10.93 14.848 31.326 21.149 49.838 15.395zm-22.1-4.117c-10.963-2.15-21.644-10.302-26.501-20.23-9.476-19.367-1.702-42.638 17.35-51.937 6.161-3.007 7.316-3.225 17.128-3.232 9.873-.008 10.93.193 17.171 3.266 33.286 16.386 26.412 65.284-10.152 72.218-6.086 1.154-8.752 1.139-14.995-.085zm4.375-11.023c4.072-3.203 3.04-5.658-4.92-11.691-9.652-7.319-12.046-8.507-14.497-7.195-4.106 2.197-3.818 8.69.618 13.963 5.552 6.598 13.893 8.782 18.8 4.923zm18.482.667c3.705-1.917 8.902-7.92 9.738-11.25.9-3.586-1.507-7.732-4.67-8.047-3.79-.377-19.97 11.924-19.97 15.181 0 4.961 8.648 7.35 14.902 4.116zm-6.152-15.373c6.298-4.485 7.954-14.074 3.47-20.092-8.57-11.497-26.72-6.122-26.72 7.914 0 5.501 2.117 9.08 7.593 12.839 4.201 2.884 11.087 2.593 15.657-.66zm-13.994-5.156c-2.963-2.33-3.932-6.219-2.542-10.204 1.203-3.453 3.502-4.818 8.11-4.818 5.204 0 8.131 2.88 8.131 7.999 0 7.535-7.9 11.585-13.699 7.023zm32.322-1.946c2.505-2.505 2.92-3.684 2.906-8.25-.02-6.708-3.16-12.585-8.16-15.282-4.758-2.565-8.823-1.095-8.823 3.19 0 4.259 5.647 20.534 7.627 21.982 2.488 1.82 3.162 1.648 6.45-1.64zm-47.66-.326c1.789-2.75 6.552-17.469 6.57-20.3.018-2.86-1.878-4.45-5.305-4.45-6.356 0-13.8 11.638-12.174 19.036 1.546 7.04 7.887 10.36 10.91 5.714zm33.746-24.21c.9-1.975.786-2.968-.576-5.047-6.323-9.651-23.838-8.256-27.003 2.151-1.32 4.34 1.434 5.356 14.508 5.356 11.724 0 11.972-.047 13.07-2.46zM112.632 149.68c-29.252-7.418-47.424-37.283-40.061-65.84 6.007-23.3 28.417-40.683 52.376-40.629 23.705.054 45.437 16.023 52.227 38.377l2.119 6.975 1.361-5.321c2.188-8.549 7.246-17.032 14.406-24.163 21.503-21.416 55.075-21.19 76.427.514 11.092 11.275 15.487 22.106 15.462 38.104-.038 24.757-16.49 45.43-41.106 51.655-28.022 7.086-58.12-10.578-65.207-38.271l-1.301-5.087-2.212 6.738c-5.54 16.876-17.39 29.158-33.958 35.2-8.525 3.108-22.103 3.886-30.533 1.748zm23.855-9.845c12.71-3.4 22.963-11.663 28.406-22.893 14.436-29.785-6.258-63.672-38.906-63.713-18.59-.022-33.51 9.264-41.299 25.709-3.024 6.385-3.201 7.394-3.201 18.259 0 10.864.177 11.873 3.201 18.258 3.786 7.993 11.362 16.37 18.142 20.06 9.85 5.36 23.309 7.088 33.657 4.32zm-21.467-5.176c-11.124-3.118-22.037-12.81-26.193-23.26-1.753-4.407-2.276-7.752-2.304-14.724-.033-8.206.259-9.621 3.231-15.659 4.16-8.448 12.862-16.735 20.948-19.948 4.503-1.79 7.78-2.304 14.785-2.323 8.06-.02 9.703.308 15.74 3.157 8.28 3.907 15.404 10.825 19.257 18.699 3.729 7.621 4.632 19.782 2.066 27.818-6.265 19.623-28.113 31.684-47.53 26.24zm22.244-9.523c8.204-2.278 13.811-10.518 11.557-16.985-1.552-4.451-4.779-3.836-14.01 2.67-8.708 6.136-10.995 9.26-8.756 11.958 2.668 3.215 5.77 3.868 11.209 2.357zm-15.237-1.77c3.678-2.98 2.04-5.949-6.753-12.248-9.132-6.541-10.776-7.265-13.36-5.883-2.398 1.284-2.63 7.7-.433 11.951 3.443 6.658 15.483 10.279 20.546 6.18zm12.977-15.686c6.81-6.525 5.864-17.367-1.99-22.78-3.125-2.153-11.099-2.235-15.121-.155-8.925 4.615-9.283 19.102-.608 24.55 4.88 3.066 13.67 2.265 17.719-1.615zm-15.495-3.733c-1.545-1.343-2.828-3.745-3.18-5.954-.509-3.2-.175-4.118 2.457-6.75 3.854-3.854 7.906-4.007 12.124-.458 2.447 2.06 3.077 3.371 3.077 6.412 0 7.42-8.92 11.58-14.478 6.75zm32.617-1.662c2.064-1.672 2.36-2.77 2.36-8.75 0-5.616-.428-7.44-2.398-10.202-3.04-4.26-8.038-6.491-11.554-5.155-3.215 1.223-3.21 2.793.043 13.217 4.065 13.027 6.303 15.138 11.549 10.89zm-46.86-2.338c3.671-9.129 6.089-18.944 5.069-20.573-2.811-4.49-11.025-1.544-14.246 5.111-4.271 8.823-1.652 18.712 4.957 18.712 2.353 0 3.165-.626 4.22-3.25zm30.156-20.726c4.8-1.825 2.918-9.143-2.984-11.61-7.133-2.98-17.81-.851-20.447 4.077-1.805 3.372-.903 6.816 1.996 7.618 3.854 1.066 18.561 1.008 21.435-.085zm110.86 59.966c12.413-3.834 22.394-12.615 27.877-24.525 1.99-4.323 2.288-6.585 2.307-17.487.02-12.171-.072-12.708-3.29-19.245-4.584-9.311-11.355-15.957-20.908-20.518-7.59-3.624-8.066-3.715-19.333-3.715-11.328 0-11.699.072-19.12 3.74-16.404 8.107-24.828 21.638-24.828 39.88 0 13.257 4.53 23.582 14.292 32.581 11.148 10.276 28.013 13.919 43.002 9.29zm-23.271-4.53c-3.012-.844-7.302-2.605-9.535-3.914-5.833-3.418-13.203-11.7-16.31-18.328-2.317-4.945-2.68-7.004-2.68-15.218 0-8.35.348-10.253 2.87-15.712 3.19-6.908 11.617-15.73 18.175-19.028 26.517-13.336 57.978 7.141 56.252 36.613-.636 10.846-4.247 18.447-12.376 26.052-10.103 9.45-23.85 13.052-36.396 9.535zm26.472-11.34c4.224-2.437 7.504-7.711 7.504-12.068 0-7.905-4.026-7.928-14.712-.085-9.29 6.82-9.69 7.293-8.885 10.505 1.143 4.552 9.564 5.414 16.093 1.648zm-19.496-.12c2.675-2.676 2.522-4.138-.75-7.198-3.147-2.941-16.001-11.802-17.122-11.802-.41 0-1.613.633-2.673 1.408-2.665 1.95-2.409 8.444.495 12.521 4.615 6.483 15.807 9.313 20.05 5.07zm9.961-13.48c5.095-2.635 7.039-6.133 7.039-12.67 0-5.3-.338-6.248-3.424-9.615-3.333-3.638-3.607-3.735-10.48-3.735-6.598 0-7.265.207-10.24 3.18-2.598 2.6-3.263 4.172-3.629 8.587-.54 6.524 1.399 10.924 6.071 13.773 3.833 2.337 10.64 2.56 14.663.48zm-13.038-6.444c-1.995-1.995-2.923-3.924-2.923-6.076 0-4.302 4.698-9 9-9s9 4.698 9 9c0 2.152-.928 4.081-2.923 6.076-3.93 3.93-8.224 3.93-12.154 0zm31.532.302c2.38-.913 4.545-5.732 4.545-10.117 0-9.006-8.144-17.678-14.376-15.309-3.429 1.304-3.376 3.448.353 14.48 3.876 11.467 4.935 12.69 9.478 10.946zm-44.646-5.628c6.19-16.643 6.335-19.909.906-20.56-6.62-.795-12.648 6.625-12.693 15.625-.035 6.852 2.28 10.141 7.156 10.17 2.32.012 2.939-.686 4.63-5.235zm29.626-18.726c5.08-1.931 2.522-9.57-4.04-12.064-6.308-2.399-18.147.343-19.772 4.579-1.318 3.434-.643 6.517 1.627 7.43 3.05 1.226 19 1.266 22.185.055z" fill="#8c919e"/><path d="M61.817 445.187c-27.652-4.75-49.424-22.798-58.507-48.5l-2.823-7.99-.265-162.744C-.074 43.909-.523 55.883 7.182 40.267c3.4-6.89 6.002-10.356 13.267-17.674 9.909-9.98 17.021-14.498 30.038-19.08l8-2.816h240l7.5 2.341c29.678 9.267 48.865 32.12 52.062 62.01.679 6.341.924 62.958.716 165.149-.354 174.537.347 159.025-7.956 176-3.377 6.902-5.864 10.207-13.24 17.585-7.66 7.663-10.57 9.814-18.582 13.744-17.936 8.796-6.734 8.117-137 8.3-63.525.09-117.602-.197-120.17-.639zm246.07-7.423c16.98-5.927 31.52-18.506 39.054-33.785 7.53-15.273 7.112-3.99 6.813-184.053l-.267-161.23-2.823-8c-6.438-18.244-17.782-30.925-34.896-39.007-15.77-7.448-6.854-6.992-136.781-6.992h-116.5L54.532 7c-20.01 5.793-35.156 18.218-43.515 35.697-6.97 14.574-6.53 2.39-6.53 181v162l2.902 8.854c7.169 21.873 25.166 38.671 47.827 44.64 6.99 1.842 11.858 1.908 125.77 1.71l118.5-.205 8.402-2.932zM111.193 400.64c-9.535-2.567-16.393-6.591-23.955-14.058-14.749-14.564-19.505-34.4-13.167-54.919 4.693-15.194 19.409-29.664 34.188-33.617 5.514-1.474 5.95-2.355 1.6-3.225-9.72-1.944-22.931-11.488-29.407-21.244-20.532-30.933-4.697-72.531 31.167-81.873 12.474-3.249 28.163-1.35 39.868 4.827 12.161 6.416 23.886 21.79 26.056 34.166 1.154 6.581 2.101 7.145 2.826 1.681.9-6.785 7.47-19.625 12.988-25.384 10.147-10.59 21.499-15.693 36.763-16.527 11.501-.629 17.552.57 27.685 5.485 16.948 8.22 27.574 24.518 28.847 44.245 1.56 24.181-13.896 47.341-35.912 53.81-3.162.93-5.75 1.915-5.75 2.19 0 .275 2.588 1.26 5.75 2.189 22.016 6.469 37.472 29.629 35.912 53.81-.686 10.636-3.397 18.59-9.286 27.25-10.694 15.724-27.893 23.75-48.162 22.476-14.399-.905-26.01-6.257-35.847-16.523-5.518-5.76-12.088-18.599-12.988-25.384-.725-5.464-1.672-4.9-2.826 1.682-.386 2.2-2.284 7.31-4.218 11.358-6.575 13.757-20.928 24.896-36.137 28.045-7.197 1.49-19.564 1.27-25.995-.46zm32.982-11.692c24.55-12.133 33.223-41.335 18.872-63.539-12.758-19.74-36.85-26.482-57.788-16.174-16.996 8.366-27.55 28.242-24.423 45.993 2.987 16.954 14.069 30.141 30.008 35.708 5.537 1.934 8.244 2.27 16.256 2.01 8.741-.281 10.288-.643 17.075-3.998zm-31.687-3.745c-11.222-3.762-19.33-11.63-23.562-22.862-3.15-8.364-2.5-22.433 1.407-30.417 9.588-19.599 34.084-27.078 53.97-16.478 26.71 14.236 25.608 54.325-1.867 67.85-8.531 4.2-20.78 4.98-29.948 1.907zm26.268-8.554c8.797-3.676 13.729-12.655 9.857-17.95-1.239-1.694-1.067-2.033 1.75-3.44 7.048-3.523 6.864-15.058-.354-22.276-5.399-5.4-12.044-5.032-12.009.664.018 2.831 4.782 17.55 6.57 20.3.805 1.237 1.032 2.25.504 2.25-1.288 0-13.887 8.578-17.336 11.802-3.449 3.225-3.48 5.478-.116 8.125 3.143 2.472 6.136 2.613 11.134.525zm-16.99-1.01c4.398-3.08 2.972-5.903-6.528-12.92-4.813-3.555-9.753-6.476-10.977-6.493-3.121-.042-5.683 4.17-4.905 8.063 1.865 9.326 15.465 16.214 22.41 11.35zm12.803-15.505c4.086-3.817 5.702-7.733 5.163-12.512-1.146-10.167-12-16.447-20.675-11.961-3.995 2.065-7.88 7.005-8.622 10.963-.88 4.69 2.452 11.914 6.735 14.601 4.682 2.938 13.691 2.373 17.399-1.091zm-15.393-4.976c-3.318-3.091-3.074-10.12.446-12.889 6.697-5.267 15.719.491 13.88 8.86-.37 1.686-1.637 3.74-2.816 4.566-3.103 2.173-8.89 1.903-11.51-.537zm-15.89-.211c1.965-1.461 7.702-17.82 7.702-21.96 0-6.246-8.579-5.86-13.47.606-5.233 6.921-5.17 16.382.139 20.558 3.047 2.397 3.407 2.448 5.63.796zm33.48-24.307c3.12-2.186 2.767-5.099-1.089-8.954-7.893-7.893-24.69-4.027-24.69 5.683 0 3.956 2.275 4.763 13.528 4.797 7.496.023 10.589-.363 12.25-1.526zm114.51 58.81c28.629-13.428 35.56-49.5 13.72-71.393-10.41-10.433-25.104-15.45-38.522-13.15-29.828 5.108-46.821 36.646-33.936 62.981 5.35 10.934 18.016 21.502 29.067 24.25 2.136.531 8.158.86 13.383.73 8.31-.205 10.35-.633 16.287-3.418zm-31.428-4.503c-21.836-7.658-31.615-32.38-21.216-53.634 7.068-14.448 24.33-23.096 40.438-20.259 17.22 3.033 28.9 14.467 32.008 31.33 3.114 16.903-6.004 34.305-21.753 41.515-8.25 3.778-20.457 4.211-29.477 1.048zm27.756-8.664c7.678-3.486 12.295-12.52 8.983-17.575-1.475-2.25-1.483-2.511-.075-2.511.864 0 2.675-1.191 4.023-2.647 1.974-2.13 2.453-3.7 2.453-8.05 0-2.971-.66-6.677-1.464-8.234-4.586-8.867-15.536-11.013-15.536-3.045 0 3.164 4.394 16.403 6.523 19.651 1.197 1.827 1.24 2.324.2 2.324-.728 0-4.226 2.084-7.773 4.631-12.627 9.066-14.12 11.518-9.316 15.297 3.244 2.551 6.616 2.596 11.982.16zm-17.576-.918c3.664-2.967 2.034-6.138-6.276-12.21-9.582-7.002-12.042-7.922-14.714-5.504-4.396 3.978-1.25 12.513 6.273 17.023 5.087 3.05 11.437 3.347 14.717.691zm11.062-14.438c12.776-8.535 5.628-28.2-9.625-26.48-10.753 1.211-16.68 13.405-10.846 22.31 4.283 6.536 13.973 8.51 20.47 4.17zm-13.366-4.98c-4.177-3.172-4.166-10.48.02-13.773 7.248-5.702 17.098 2.602 12.844 10.828-.84 1.624-2.255 3.232-3.145 3.573-2.704 1.038-7.974.697-9.72-.628zm-16.037-2c2.335-2.566 7.3-16.866 7.3-21.025 0-3.793-3.677-5.516-7.975-3.736-9.471 3.923-12.948 18.531-5.835 24.516 3.624 3.05 3.945 3.062 6.51.244zm33.352-23.802c2.108-2.108 1.959-4.88-.424-7.857-1.697-2.12-8.73-5.048-12.127-5.048-3.397 0-10.43 2.928-12.128 5.048-2.383 2.976-2.532 5.749-.424 7.857 1.808 1.808 3.298 2.052 12.552 2.052s10.743-.244 12.55-2.052zm-62.935 1.361c5.028-15.506 19.453-29.708 33.95-33.423 2.713-.696 4.934-1.544 4.934-1.887 0-.342-2.22-1.19-4.935-1.886-10.01-2.566-21.962-11.63-28.266-21.435-3.554-5.529-7.767-16.494-7.867-20.474-.08-3.21-.375-2.583-3.865 8.226-2.896 8.973-7.321 15.784-14.53 22.367-6.41 5.852-11.32 8.689-19.429 11.224-5.775 1.806-5.752 2.036.392 3.984 15.316 4.854 28.043 17.275 33.294 32.494 1.139 3.3 2.407 7.35 2.818 9 .727 2.916.759 2.93 1.122.5.206-1.375 1.277-5.285 2.382-8.69zm-47.916-44.425c28.24-5.947 43.916-37.054 31.416-62.345-4.658-9.425-11.845-16.555-21.492-21.321-7.39-3.65-7.738-3.718-19.076-3.688-10.757.028-11.994.24-18.048 3.082-18.298 8.592-29.421 28.816-26.137 47.521 4.405 25.091 28.82 41.914 53.337 36.75zm-17.155-5.977c-10.926-2.142-21.783-10.584-26.801-20.84-3.802-7.772-4.415-21.957-1.306-30.212 4.376-11.616 12.53-19.296 24.398-22.98 32.789-10.18 61.195 22.486 46.584 53.57-4.865 10.35-15.48 18.292-27.354 20.468-6.73 1.232-9.21 1.231-15.521-.005zm4.32-10.98c3.365-2.647 3.333-4.9-.115-8.125-3.418-3.195-16.044-11.803-17.314-11.803-.515 0-1.836.9-2.936 2-4.684 4.684-.57 13.557 8.5 18.339 4.168 2.197 8.75 2.038 11.865-.411zm20.76-.793c7.071-4.484 10.053-12.853 5.915-16.598-2.758-2.496-5.206-1.593-14.79 5.451-6.387 4.694-8.25 6.61-8.25 8.481 0 5.914 9.639 7.415 17.126 2.666zm-10.507-12.758c7.538-3.577 10.672-13.799 6.22-20.285-3.573-5.207-6.953-7.259-12.084-7.336-6.27-.095-10.71 2.684-13.614 8.519-2.722 5.469-2.4 9.855 1.047 14.237 4.88 6.203 11.776 8.023 18.431 4.865zm-11.984-6.45c-2.13-1.676-2.634-2.91-2.634-6.46 0-5.525 2.767-8.466 7.966-8.466 4.604 0 7.698 2.195 8.548 6.067 1.839 8.369-7.183 14.127-13.88 8.86zm31.658-.942c5.477-4.308 5.555-13.475.176-20.588-4.831-6.39-13.468-6.856-13.468-.727 0 3.962 5.143 19.108 7.261 21.38 2.27 2.438 2.857 2.432 6.031-.065zm-46.816-1.309c2.129-3.248 6.524-16.487 6.524-19.65 0-5.519-5.752-6.789-10.946-2.418-3.599 3.029-5.054 5.472-6.172 10.369-2.133 9.34 6.148 18.485 10.594 11.7zm33.642-24.037c1.496-3.282-1.029-7.894-5.475-10.004-8.77-4.161-21.643.205-21.643 7.34 0 4.5 1.486 5.026 14.221 5.026 11.454 0 11.855-.074 12.897-2.362zm104.082 63.236c16.554-3.515 30.964-17.613 34.74-33.986 2.254-9.78.481-21.668-4.632-31.062-3.754-6.899-13.018-15.32-21.02-19.111-6.425-3.043-7.407-3.215-18.34-3.215-11.335 0-11.695.07-19.145 3.752-17.876 8.835-28.419 28.583-25.02 46.863 4.738 25.47 28.753 41.997 53.417 36.76zm-17.155-5.967c-10.964-2.15-21.645-10.302-26.502-20.23-9.476-19.367-1.702-42.638 17.35-51.937 6.161-3.007 7.316-3.225 17.128-3.232 9.873-.008 10.93.193 17.171 3.266 33.286 16.386 26.412 65.284-10.152 72.218-6.086 1.154-8.752 1.139-14.995-.085zm4.374-11.023c4.072-3.203 3.04-5.658-4.92-11.691-9.652-7.319-12.046-8.507-14.497-7.195-4.106 2.197-3.818 8.69.618 13.963 5.552 6.598 13.893 8.782 18.8 4.923zm18.482.667c3.705-1.917 8.902-7.92 9.738-11.25.9-3.586-1.507-7.732-4.67-8.047-3.79-.377-19.97 11.924-19.97 15.181 0 4.961 8.648 7.35 14.902 4.116zm-6.152-15.373c6.298-4.485 7.954-14.074 3.47-20.092-8.57-11.497-26.72-6.122-26.72 7.914 0 5.501 2.117 9.08 7.593 12.839 4.201 2.884 11.087 2.593 15.657-.66zm-13.994-5.156c-2.963-2.33-3.932-6.219-2.542-10.204 1.203-3.453 3.502-4.818 8.11-4.818 5.204 0 8.131 2.88 8.131 7.999 0 7.535-7.9 11.585-13.699 7.023zm32.322-1.946c2.505-2.505 2.92-3.684 2.906-8.25-.02-6.708-3.16-12.585-8.16-15.282-4.758-2.565-8.823-1.095-8.823 3.19 0 4.259 5.647 20.534 7.627 21.982 2.488 1.82 3.162 1.648 6.45-1.64zm-47.66-.326c1.789-2.75 6.552-17.469 6.57-20.3.018-2.86-1.878-4.45-5.305-4.45-6.356 0-13.8 11.638-12.174 19.036 1.546 7.04 7.887 10.36 10.91 5.714zm33.746-24.21c.9-1.975.786-2.968-.576-5.047-6.323-9.651-23.838-8.256-27.003 2.151-1.32 4.34 1.434 5.355 14.508 5.355 11.724 0 11.972-.046 13.07-2.459zm-136.051-75.121c-25.278-6.798-42.054-32.76-38.235-59.17 3.017-20.859 17.957-37.809 38.623-43.816 6.958-2.023 20.466-2.259 28-.488 19.042 4.475 35.49 21.479 39.598 40.935l1.187 5.62 1.344-6.5c4.93-23.836 26.255-40.968 51.37-41.271 15.857-.192 28.31 4.673 39.096 15.27 14.823 14.564 19.72 36.641 12.526 56.462-5.788 15.945-18 27.484-34.477 32.575-8.06 2.49-23.373 2.67-31.213.368-18.892-5.549-33.446-20.992-37.372-39.655-1.201-5.71-1.376-5.99-2.024-3.25-5.468 23.112-17.667 36.713-38.467 42.888-6.794 2.017-22.513 2.034-29.956.032zm29.888-9.554c27.934-9.57 38.97-44.025 21.642-67.565-17.098-23.226-48.771-25.416-68.622-4.743-16.84 17.536-16.972 42.5-.322 60.484 12.069 13.035 30.394 17.616 47.302 11.824zm-26.714-5.316c-9.895-3.093-17.793-9.879-23.001-19.764-2.58-4.894-2.785-6.137-2.785-16.786 0-10.963.147-11.781 3.156-17.536 3.834-7.331 10.559-13.736 18.168-17.303 5.068-2.375 6.854-2.66 16.676-2.66 10.13 0 11.47.23 16.945 2.919 7.853 3.855 13.986 10.16 17.88 18.38 2.877 6.072 3.174 7.591 3.164 16.2-.009 8.185-.38 10.291-2.677 15.213-5 10.709-12.52 17.548-23.24 21.137-5.909 1.979-18.27 2.08-24.286.2zm9.091-10.483c3.265-3.265 1.465-6.154-8.032-12.892-4.788-3.396-9.31-6.175-10.048-6.175-1.089 0-1.066-.426.12-2.25 1.974-3.033 6.554-17.6 6.57-20.893.007-1.496-.673-2.906-1.57-3.25-7.66-2.94-15.648 5.045-15.648 15.642 0 4.006.511 5.435 2.802 7.826 1.542 1.61 3.404 2.925 4.139 2.925 1.034 0 .967.563-.3 2.496-2.454 3.747-1.104 8.811 3.607 13.522 6.057 6.057 14.028 7.381 18.36 3.05zm17.215 1.322c4.062-1.927 9.137-7.462 10.002-10.907.876-3.494-.27-7.237-2.597-8.483-2.434-1.303-4.75-.147-14.497 7.236-7.95 6.02-8.979 8.457-4.92 11.65 3.212 2.526 7.382 2.702 12.012.504zm-6.616-15.204c9.653-7.146 9.117-19.53-1.082-24.986-9.937-5.317-21.279 1.493-21.279 12.776 0 4.055.565 5.684 3.037 8.754 5.044 6.263 13.491 7.774 19.324 3.456zm-13.976-6.185c-1.988-1.987-2.664-7.108-1.38-10.455.342-.89 1.95-2.305 3.574-3.145 8.315-4.3 16.519 5.61 10.733 12.966-2.68 3.407-9.805 3.757-12.927.634zm33.393-.881c4.974-5.497 3.912-15.048-2.372-21.332-5.635-5.636-12.031-5.016-12.014 1.163.008 3.08 4.512 16.661 6.566 19.8 1.8 2.75 5.507 2.924 7.82.369zm-15.222-23.773c2.24-2.027 2.321-4.197.268-7.129-3.952-5.641-15.216-7.372-21.741-3.34-3.734 2.309-4.698 3.88-4.698 7.656 0 3.594 2.54 4.404 13.92 4.437 8.325.024 10.79-.303 12.25-1.624zm110.595 60.482c17.26-5.513 30.21-23.444 30.21-41.828 0-21.48-16.409-40.397-38.226-44.069-23.569-3.966-46.854 13.113-51.018 37.421-2.202 12.857 2.039 26.281 11.464 36.283 13.21 14.019 29.102 18.092 47.57 12.193zm-26.48-5.232c-22.04-7.128-32.865-31.673-23.403-53.065 2.817-6.367 11.023-14.664 17.851-18.048 7.496-3.715 21.275-4.668 29.504-2.04 11.025 3.52 20.206 12.386 24.393 23.557 2.57 6.856 2.31 19.996-.54 27.285-3.166 8.1-11.254 16.6-19.31 20.294-5.21 2.39-7.816 2.924-15.281 3.13-5.543.154-10.619-.274-13.214-1.113zm8.898-10.262c3.746-3.39 1.993-5.957-10.044-14.71-6.937-5.043-8.551-5.466-11.312-2.969-3.776 3.418-1.519 11.191 4.606 15.863 6.116 4.665 12.8 5.39 16.75 1.816zm20.359-.798c4.377-3.34 7.448-8.117 7.453-11.597.004-2.473-3.172-6.939-4.935-6.939-1.136 0-10.46 6.287-15.811 10.66-4.857 3.97-5.533 7.3-2 9.853 3.367 2.433 10.764 1.477 15.293-1.977zm-9.567-13.351c6.361-4.71 8.645-12.15 5.56-18.115-2.073-4.008-7.01-7.88-11-8.629-10.243-1.921-19.862 8.982-16.612 18.83 3.024 9.164 14.702 13.355 22.052 7.914zm-13.24-5.435c-3.905-2.965-4.2-10.116-.551-13.417 2.87-2.597 9.23-2.362 12.037.445 2.86 2.86 3.041 9.168.35 12.143-2.17 2.396-9.13 2.884-11.836.83zm-16.438-1c1.78-1.322 7.702-17.654 7.702-21.237 0-3.04-1.904-4.513-5.832-4.513-2.6 0-4.2.815-6.6 3.359-5.96 6.32-6.87 15.866-2.011 21.109 2.615 2.822 4.252 3.133 6.741 1.282zm49.247-1.204c1.962-1.962 2.455-3.474 2.455-7.532 0-6.415-1.848-10.866-5.941-14.31-5.264-4.43-11.06-3.254-11.06 2.243 0 3.475 4.902 18.143 6.785 20.303 2.122 2.434 4.872 2.185 7.761-.704zm-15.026-23.567c1.722-1.903 1.733-2.226.193-5.455-2.088-4.38-6.803-6.81-13.212-6.81-6.193 0-10.953 2.328-13.049 6.38-1.443 2.79-1.442 3.271.006 5.483 1.526 2.329 2.032 2.423 12.91 2.423 10.093 0 11.521-.219 13.152-2.021z" fill="#a55357"/><path d="M61.817 445.187c-27.652-4.75-49.424-22.798-58.507-48.5l-2.823-7.99-.265-162.744C-.074 43.909-.523 55.883 7.182 40.267c3.4-6.89 6.002-10.356 13.267-17.674 9.909-9.98 17.021-14.498 30.038-19.08l8-2.816h240l7.5 2.341c29.678 9.267 48.865 32.12 52.062 62.01.679 6.341.924 62.958.716 165.149-.354 174.537.347 159.025-7.956 176-3.377 6.902-5.864 10.207-13.24 17.585-7.66 7.663-10.57 9.814-18.582 13.744-17.936 8.796-6.734 8.117-137 8.3-63.525.09-117.602-.197-120.17-.639zm246.07-7.423c16.98-5.927 31.52-18.506 39.054-33.785 7.53-15.273 7.112-3.99 6.813-184.053l-.267-161.23-2.823-8c-6.438-18.244-17.782-30.925-34.896-39.007-15.77-7.448-6.854-6.992-136.781-6.992h-116.5L54.532 7c-20.01 5.793-35.156 18.218-43.515 35.697-6.97 14.574-6.53 2.39-6.53 181v162l2.902 8.854c7.169 21.873 25.166 38.671 47.827 44.64 6.99 1.842 11.858 1.908 125.77 1.71l118.5-.205 8.402-2.932zM111.193 400.64c-9.535-2.567-16.393-6.591-23.955-14.058-14.749-14.564-19.505-34.4-13.167-54.919 4.693-15.194 19.409-29.664 34.188-33.617 5.514-1.474 5.95-2.355 1.6-3.225-9.72-1.944-22.931-11.488-29.407-21.244-20.532-30.933-4.697-72.531 31.167-81.873 12.474-3.249 28.163-1.35 39.868 4.827 12.161 6.416 23.886 21.79 26.056 34.166 1.154 6.581 2.101 7.145 2.826 1.681.9-6.785 7.47-19.625 12.988-25.384 10.147-10.59 21.499-15.693 36.763-16.527 11.501-.629 17.552.57 27.685 5.485 16.948 8.22 27.574 24.518 28.847 44.245 1.56 24.181-13.896 47.341-35.912 53.81-3.162.93-5.75 1.915-5.75 2.19 0 .275 2.588 1.26 5.75 2.189 22.016 6.469 37.472 29.629 35.912 53.81-.686 10.636-3.397 18.59-9.286 27.25-10.694 15.724-27.893 23.75-48.162 22.476-14.399-.905-26.01-6.257-35.847-16.523-5.518-5.76-12.088-18.599-12.988-25.384-.725-5.464-1.672-4.9-2.826 1.682-.386 2.2-2.284 7.31-4.218 11.358-6.575 13.757-20.928 24.896-36.137 28.045-7.197 1.49-19.564 1.27-25.995-.46zm32.982-11.692c24.55-12.133 33.223-41.335 18.872-63.539-12.758-19.74-36.85-26.482-57.788-16.174-16.996 8.366-27.55 28.242-24.423 45.993 2.987 16.954 14.069 30.141 30.008 35.708 5.537 1.934 8.244 2.27 16.256 2.01 8.741-.281 10.288-.643 17.075-3.998zm-29.258-3.119c-9.962-2.686-20.853-11.935-25.169-21.374-1.78-3.896-2.183-6.662-2.218-15.258-.038-9.332.254-11.132 2.618-16.176 11.096-23.669 41.7-29.883 60.672-12.32 9.59 8.88 14.033 19.938 12.79 31.837-.736 7.04-4.903 16.63-9.503 21.87-9.167 10.44-25.343 15.155-39.19 11.421zm27.331-10.616c4.575-3.145 6.868-6.552 7.48-11.117.393-2.929.068-4.453-1.26-5.922-1.727-1.907-1.72-1.977.21-1.977 2.473 0 4.933-2.623 6.396-6.819 1.653-4.741-.462-12.378-4.663-16.831-3.013-3.195-3.8-3.521-7.73-3.204-3.655.295-4.306.084-3.949-1.28.794-3.033-2.492-7.548-6.726-9.243-9.762-3.905-21.018.387-21.018 8.016 0 4.844 2.226 5.585 15.592 5.194l11.41-.333v2.496c-.003 3.28 4.872 18.116 6.531 19.882 1.078 1.147.642 1.734-2.599 3.5-2.142 1.167-6.855 4.276-10.475 6.91-5.992 4.36-6.552 5.073-6.27 7.977.214 2.196 1.089 3.598 2.81 4.503 3.425 1.8 10.327.952 14.262-1.752zm-19.835.066c3.028-3.346 1.58-6.125-6.425-12.34-4.125-3.202-8.714-6.08-10.198-6.396-2.53-.54-2.608-.714-1.25-2.785 2.266-3.46 6.448-16.56 6.448-20.201 0-8.222-11.166-5.998-15.762 3.14-3.288 6.537-1.724 16.026 3.016 18.295 2.275 1.088 2.58 1.645 1.75 3.196-2.157 4.03-.514 10.428 3.645 14.192 5.545 5.017 15.472 6.55 18.776 2.899zm11.155-13.968c6.074-3.704 8.27-13.567 4.425-19.874-3.17-5.2-7.574-7.42-13.797-6.96-6.601.488-10.106 2.979-12.593 8.95-2.596 6.235-1.591 11.03 3.35 15.97 3.537 3.537 4.204 3.8 9.667 3.796 3.976-.003 6.86-.61 8.948-1.882zm-14.126-6.57c-4.046-4.045-3.24-10.57 1.617-13.082 4.196-2.17 6.748-1.797 10.006 1.46 3.625 3.626 3.726 6.969.334 11-3.346 3.977-8.343 4.237-11.957.623zm131.833 34.709c28.63-13.428 35.562-49.5 13.72-71.393-10.409-10.433-25.103-15.45-38.521-13.15-29.828 5.108-46.821 36.646-33.936 62.981 5.35 10.934 18.016 21.502 29.067 24.25 2.136.531 8.158.86 13.383.73 8.31-.205 10.35-.633 16.287-3.418zm-28.787-3.597c-6.915-2.294-12.107-5.42-16.812-10.126-18.424-18.424-13.207-49.128 10.349-60.913 15.844-7.926 33.232-4.655 45.46 8.553 17.638 19.05 11.54 48.962-12.251 60.095-5.387 2.52-8.19 3.172-14.701 3.416-4.826.18-9.646-.23-12.045-1.025zm24.268-9.204c9.019-3.769 13.668-12.529 9.675-18.23-1.452-2.073-1.423-2.222.427-2.222 3.487 0 6.13-4.63 6.13-10.734 0-10.095-5.151-16.7-12.553-16.098-3.753.305-4.042.154-3.648-1.905.3-1.566-.596-3.26-2.996-5.66-7.658-7.658-22.97-4.897-25.317 4.566-.537 2.163-.174 2.989 1.915 4.358 2.138 1.4 4.543 1.627 14.088 1.324l11.51-.366.013 2.507c.013 2.557 4.268 16.795 5.968 19.972.736 1.374.42 1.988-1.47 2.85-1.326.603-5.833 3.628-10.017 6.723-6.967 5.152-7.582 5.891-7.3 8.771.516 5.29 6.477 7.11 13.575 4.144zm-16.343-1.37c3.15-3.481 1.623-6.146-7.345-12.819-5.112-3.803-9.41-6.263-10.94-6.263-2.248 0-2.34-.137-.842-1.25 1.95-1.45 7.702-17.806 7.702-21.903 0-3.406-2.955-5.236-7.017-4.344-5.222 1.147-10.956 9.912-10.978 16.779-.01 3.4 2.904 8.72 5.402 9.857 2.006.914 2.318 1.505 1.552 2.937-2.624 4.903.454 12.264 6.962 16.65 4.452 3 12.935 3.195 15.504.356zm10.576-13.742c3.612-2.134 6.999-8.174 6.997-12.477-.004-8.01-6.78-14.863-14.696-14.863-14.272 0-20.481 16.49-9.755 25.907 3.034 2.664 4.293 3.093 9.083 3.093 3.386 0 6.66-.65 8.371-1.66zm-13.246-6.318c-6.871-5.405-1.325-16.405 7.315-14.507 6.292 1.382 8.488 9.132 3.955 13.957-2.922 3.111-7.717 3.345-11.27.55zm-45.64-23.713c5.03-15.506 19.454-29.708 33.95-33.423 2.714-.696 4.935-1.544 4.935-1.886 0-.343-2.22-1.191-4.935-1.887-10.01-2.566-21.962-11.63-28.266-21.435-3.554-5.529-7.767-16.494-7.867-20.474-.08-3.21-.375-2.583-3.865 8.226-2.896 8.973-7.321 15.784-14.53 22.367-6.41 5.852-11.32 8.689-19.429 11.224-5.775 1.806-5.752 2.036.392 3.984 15.316 4.854 28.043 17.275 33.294 32.495 1.139 3.3 2.407 7.35 2.818 9 .727 2.915.759 2.93 1.122.5.206-1.375 1.277-5.286 2.382-8.69zm-47.915-44.425c28.24-5.947 43.916-37.054 31.416-62.345-4.658-9.425-11.845-16.555-21.492-21.321-7.39-3.65-7.738-3.718-19.076-3.688-10.757.028-11.994.24-18.048 3.082-18.298 8.592-29.421 28.816-26.137 47.521 4.405 25.091 28.82 41.914 53.337 36.75zm-17.2-6.201c-11.824-2.688-21.744-10.637-26.84-21.508-2.353-5.02-2.66-6.888-2.654-16.175.006-9.422.289-11.077 2.757-16.112 3.454-7.046 11.949-15.18 19.43-18.605 14.536-6.655 33.869-2.518 44.426 9.506 4.6 5.238 8.767 14.828 9.503 21.87 1.243 11.898-3.2 22.956-12.79 31.835-9.155 8.476-21.827 11.918-33.832 9.189zm4.777-10.24c1.426-.999 2.223-2.594 2.223-4.45 0-2.505-1.233-3.776-9.156-9.444-5.035-3.602-9.465-6.55-9.842-6.55-.378 0 .817-4.317 2.655-9.593 1.838-5.277 3.342-10.79 3.342-12.25l-.001-2.656h13.14c11.27 0 13.292-.242 14.212-1.698 2.748-4.347-3.116-10.684-10.674-11.535-9.495-1.07-16.676 2.616-16.676 8.562 0 2.86-.096 2.914-4.354 2.434-3.954-.446-4.678-.165-7.903 3.06-5.907 5.907-6.935 16.492-2.119 21.814.927 1.025 2.526 1.863 3.554 1.863 1.766 0 1.778.136.217 2.519-2.029 3.096-1.387 8.28 1.534 12.38 4.22 5.928 15.001 8.939 19.848 5.544zm20.3-.717c6.43-4.333 9.754-12.283 6.974-16.678-.678-1.071-.167-1.908 1.954-3.198 2.535-1.542 4.983-6.626 4.983-10.35 0-3.145-2.491-9.004-5.085-11.958-5.087-5.793-12.92-5.646-12.888.243.019 3.506 4.432 17.722 6.464 20.823 1.458 2.225 1.438 2.392-.287 2.392-3.036 0-18.643 12.18-19.023 14.846-.872 6.12 9.912 8.595 16.909 3.88zm-9.318-13.721c6.705-4.088 9.058-12.373 5.591-19.68-4.188-8.826-17.154-10.455-23.99-3.014-4.5 4.899-5.231 10.363-2.203 16.466 3.859 7.778 13.352 10.648 20.602 6.228zm-11.26-5.12c-7.658-4.346-4.95-15.937 3.705-15.854 10.514.102 11.598 14.62 1.23 16.467-1.614.288-3.834.012-4.934-.612zm120.701 35.99c16.554-3.516 30.964-17.614 34.74-33.987 2.254-9.78.481-21.668-4.632-31.062-3.754-6.899-13.018-15.32-21.02-19.111-6.425-3.043-7.407-3.215-18.34-3.215-11.335 0-11.695.07-19.145 3.752-17.876 8.835-28.419 28.583-25.02 46.863 4.738 25.47 28.753 41.997 53.417 36.76zm-17.2-6.243c-7.297-1.592-15.183-6.022-19.976-11.222-17.847-19.362-12.022-49.463 11.75-60.725 6.092-2.885 7.621-3.185 16.226-3.185 8.597 0 10.136.301 16.2 3.174 23.867 11.306 29.952 41.086 12.293 60.16-5.902 6.374-13.475 10.645-21.613 12.188-6.258 1.187-7.842 1.145-14.88-.39zm4.777-10.19c2.458-1.72 2.9-5.2.973-7.648-1.363-1.73-16.137-12.42-18.062-13.07-.882-.296-.9-.763-.072-1.812 1.6-2.024 6.384-16.953 6.382-19.916l-.002-2.496 12.835.303c14.64.346 16.18-.286 14.549-5.972-1.28-4.465-5.307-7.078-11.727-7.61-9.354-.776-15.825 2.697-16.047 8.612-.103 2.762-.253 2.844-4.365 2.383-3.886-.437-4.561-.157-7.723 3.195-3.995 4.236-5.971 10.337-5.02 15.498.782 4.232 4.039 8.09 6.83 8.09 1.856 0 1.877.116.326 1.83-2.409 2.661-2.058 8.113.793 12.308 4.467 6.575 15.195 9.902 20.33 6.306zm21.957-2.097c4.832-3.887 7.201-10.029 5.553-14.396-1.056-2.796-.954-3.126 1.22-3.952 1.304-.496 2.848-1.794 3.432-2.884 1.4-2.615 1.36-12.663-.062-15.43-4.765-9.274-15.877-11.655-15.877-3.402 0 3.999 4.727 18.608 6.784 20.969 1.387 1.591 1.345 1.75-.467 1.75-1.095 0-4.653 1.869-7.905 4.153-11.553 8.117-13.395 10.999-9.665 15.12 2.792 3.085 12.065 2.032 16.987-1.928zm-10.632-12.615c12.603-8.42 6.92-26.961-8.264-26.961-5.448 0-8.609 1.703-12.277 6.616-2.859 3.83-2.854 12.387.01 16.291 4.624 6.305 14.3 8.215 20.53 4.054zm-12.34-5.255c-4.757-2.652-5.349-9.45-1.152-13.225 5.49-4.939 13.79-1.147 13.79 6.3 0 6.326-6.914 10.115-12.638 6.925zM110.1 148.616c-25.278-6.798-42.054-32.76-38.235-59.17 3.017-20.859 17.957-37.809 38.623-43.816 6.958-2.023 20.466-2.259 28-.488 19.042 4.475 35.49 21.479 39.598 40.935l1.187 5.62 1.344-6.5c4.93-23.836 26.255-40.968 51.37-41.271 15.857-.192 28.31 4.673 39.096 15.27 14.823 14.564 19.72 36.641 12.526 56.462-5.788 15.945-18 27.484-34.477 32.575-8.06 2.49-23.373 2.67-31.213.368-18.892-5.549-33.446-20.992-37.372-39.655-1.201-5.71-1.376-5.99-2.024-3.25-5.468 23.112-17.667 36.713-38.467 42.888-6.794 2.017-22.513 2.034-29.956.032zm29.888-9.554c27.934-9.57 38.97-44.025 21.642-67.565-17.098-23.226-48.771-25.416-68.622-4.743-16.84 17.536-16.972 42.5-.322 60.484 12.069 13.035 30.394 17.616 47.302 11.824zm-26.714-5.316c-9.895-3.093-17.793-9.879-23.001-19.764-2.58-4.894-2.785-6.137-2.785-16.785 0-10.964.147-11.782 3.156-17.537 3.834-7.331 10.559-13.736 18.168-17.303 5.068-2.375 6.854-2.66 16.676-2.66 10.13 0 11.47.23 16.945 2.919 7.853 3.855 13.986 10.16 17.88 18.38 2.877 6.072 3.174 7.591 3.164 16.2-.009 8.185-.38 10.291-2.677 15.213-5 10.709-12.52 17.548-23.24 21.137-5.909 1.979-18.27 2.08-24.286.2zm9.091-10.483c3.265-3.265 1.465-6.154-8.032-12.892-4.788-3.396-9.31-6.174-10.048-6.174-1.089 0-1.066-.427.12-2.25 1.974-3.034 6.554-17.6 6.57-20.894.007-1.496-.673-2.906-1.57-3.25-7.66-2.94-15.648 5.045-15.648 15.642 0 4.007.511 5.435 2.802 7.826 1.542 1.61 3.404 2.926 4.139 2.926 1.034 0 .967.562-.3 2.495-2.454 3.747-1.104 8.811 3.607 13.522 6.057 6.057 14.028 7.381 18.36 3.05zm17.215 1.322c4.062-1.927 9.137-7.462 10.002-10.907.876-3.494-.27-7.237-2.597-8.483-2.434-1.303-4.75-.147-14.497 7.236-7.95 6.02-8.979 8.457-4.92 11.65 3.212 2.526 7.382 2.702 12.012.504zm-6.616-15.204c9.653-7.146 9.117-19.53-1.082-24.986-9.937-5.317-21.279 1.493-21.279 12.776 0 4.055.565 5.684 3.037 8.754 5.044 6.263 13.491 7.774 19.324 3.456zm-13.976-6.184c-1.988-1.988-2.664-7.109-1.38-10.456.342-.89 1.95-2.305 3.574-3.145 8.315-4.3 16.519 5.61 10.733 12.966-2.68 3.407-9.805 3.757-12.927.635zm33.393-.882c4.974-5.497 3.912-15.048-2.372-21.332-5.635-5.636-12.031-5.016-12.014 1.164.008 3.08 4.512 16.66 6.566 19.8 1.8 2.748 5.507 2.923 7.82.368zm-15.222-23.773c2.24-2.027 2.321-4.197.268-7.129-3.952-5.641-15.216-7.372-21.741-3.34-3.734 2.309-4.698 3.88-4.698 7.656 0 3.594 2.54 4.404 13.92 4.437 8.325.024 10.79-.303 12.25-1.624zm110.595 60.482c17.26-5.513 30.21-23.444 30.21-41.827 0-21.481-16.409-40.398-38.226-44.07-23.569-3.966-46.854 13.113-51.018 37.421-2.202 12.857 2.039 26.281 11.464 36.283 13.21 14.019 29.102 18.092 47.57 12.193zm-26.48-5.232c-22.04-7.128-32.865-31.673-23.403-53.065 2.817-6.367 11.023-14.664 17.851-18.048 7.496-3.715 21.275-4.668 29.504-2.04 11.025 3.52 20.206 12.386 24.393 23.558 2.57 6.855 2.31 19.995-.54 27.284-3.166 8.1-11.254 16.6-19.31 20.294-5.21 2.39-7.816 2.924-15.281 3.13-5.543.154-10.619-.274-13.214-1.113zm8.898-10.262c3.746-3.39 1.993-5.957-10.044-14.71-6.937-5.043-8.551-5.466-11.312-2.969-3.776 3.418-1.519 11.191 4.606 15.863 6.116 4.665 12.8 5.39 16.75 1.816zm20.359-.798c4.377-3.34 7.448-8.117 7.453-11.597.004-2.473-3.172-6.938-4.935-6.938-1.136 0-10.46 6.286-15.811 10.66-4.857 3.97-5.533 7.3-2 9.852 3.367 2.433 10.764 1.477 15.293-1.977zm-9.567-13.351c6.361-4.71 8.645-12.15 5.56-18.115-2.073-4.008-7.01-7.88-11-8.629-10.243-1.921-19.862 8.982-16.612 18.83 3.024 9.164 14.702 13.355 22.052 7.914zm-13.24-5.434c-3.905-2.966-4.2-10.117-.551-13.418 2.87-2.597 9.23-2.362 12.037.445 2.86 2.86 3.042 9.168.35 12.143-2.17 2.396-9.13 2.884-11.836.83zm-16.438-1c1.78-1.323 7.702-17.655 7.702-21.238 0-3.04-1.904-4.512-5.832-4.512-2.6 0-4.2.814-6.6 3.358-5.96 6.32-6.87 15.866-2.01 21.109 2.614 2.822 4.251 3.133 6.74 1.283zm49.247-1.205c1.962-1.962 2.455-3.474 2.455-7.532 0-6.415-1.848-10.866-5.941-14.31-5.264-4.43-11.06-3.254-11.06 2.243 0 3.475 4.902 18.143 6.785 20.304 2.122 2.433 4.872 2.184 7.761-.705zm-15.026-23.567c1.722-1.903 1.733-2.225.193-5.455-2.088-4.38-6.803-6.81-13.212-6.81-6.193 0-10.953 2.328-13.049 6.38-1.443 2.79-1.442 3.271.006 5.483 1.526 2.329 2.032 2.424 12.91 2.424 10.093 0 11.521-.22 13.152-2.022z" fill="#666973"/><path d="M56.487 443.729c-23.14-5.047-43.549-22.2-51.55-43.325-5.104-13.475-5.014-9.997-4.693-181.77C.58 38.784-.148 55.103 8.268 38.697c3.074-5.994 6.25-10.147 12.66-16.558C30.423 12.646 39.71 7.116 53.015 3.035L60.487.742l113-.32c77.77-.22 115.593.022 121.319.774C326.042 5.3 350.53 27.36 356.437 56.712c1.443 7.172 1.578 24.474 1.328 169.985l-.278 162-2.933 8.4c-7.915 22.677-27.232 40.15-50.977 46.113-7.676 1.928-11.36 1.984-124.5 1.907-92.098-.063-117.85-.354-122.59-1.388zm246-3.81c3.3-.958 9.825-3.6 14.5-5.87 11.52-5.595 24.777-18.696 30.21-29.852 7.816-16.052 7.174-1.254 7.55-174 .22-101.858-.018-157.795-.7-164.169-1.818-16.999-7.767-29.518-19.627-41.307-8.275-8.225-16.813-13.513-27.933-17.3l-8-2.724-115.5-.29c-81.2-.204-117.424.04-121.977.819C36.905 9.35 16.648 26.157 7.647 49.5l-3.16 8.196-.28 162c-.313 181.545-.784 169.147 7.026 184.751 4.774 9.54 16.577 22.093 25.919 27.57 6.636 3.89 17.354 7.783 24.955 9.065 3.045.514 55.063.837 119.88.744 105.623-.151 114.965-.299 120.5-1.907zm-192-39.59c-26.677-7.665-43.583-34.797-38.092-61.132 4.094-19.635 18.36-35.753 36.342-41.062 2.337-.69 4.25-1.563 4.25-1.938 0-.376-1.913-1.249-4.25-1.939-12.589-3.716-26.223-15.437-31.785-27.322-4.175-8.92-6.284-19.632-5.462-27.74 2.856-28.193 25.65-49 53.68-49 24.537 0 46.087 16.744 52.312 40.645 1.693 6.5 2.505 7.818 2.505 4.068 0-1.442 1.057-5.535 2.35-9.096 7.865-21.669 27.7-35.617 50.65-35.617 14.827 0 27.49 5.283 38.103 15.897 11.289 11.289 16.622 25.213 15.553 40.603-1.366 19.658-11.969 35.528-29.648 44.376-4.532 2.269-9.088 4.124-10.124 4.124-1.037 0-1.884.45-1.884 1s.847 1 1.884 1c3.062 0 17.24 7.617 22.26 11.959 9.867 8.534 16.582 22.523 17.526 36.514 1.04 15.426-4.214 29.066-15.656 40.643-27.79 28.116-75.12 17.583-88.664-19.732-1.293-3.561-2.35-7.654-2.35-9.096 0-3.75-.812-2.433-2.505 4.068-4.926 18.912-20.192 34.205-39.048 39.116-7.635 1.989-20.386 1.835-27.947-.338zm31.5-9.964c10.964-4.295 20.743-14.048 25.236-25.168 1.822-4.51 2.226-7.483 2.243-16.5.02-10.595-.113-11.28-3.592-18.566-13.573-28.42-50.22-34.746-72.46-12.506-24.025 24.026-13.936 63.291 19.073 74.222 6.14 2.033 22.644 1.204 29.5-1.482zm-27.071-4.536c-9.962-2.686-20.853-11.935-25.169-21.374-1.78-3.896-2.183-6.662-2.218-15.258-.038-9.332.254-11.132 2.618-16.176 11.096-23.669 41.7-29.883 60.672-12.32 9.59 8.88 14.033 19.938 12.79 31.837-.736 7.04-4.903 16.63-9.503 21.87-9.167 10.44-25.343 15.155-39.19 11.421zm27.331-10.616c4.575-3.145 6.868-6.552 7.48-11.117.393-2.929.068-4.453-1.26-5.922-1.727-1.907-1.72-1.977.21-1.977 2.473 0 4.933-2.623 6.396-6.819 1.653-4.741-.462-12.378-4.663-16.831-3.013-3.195-3.8-3.521-7.73-3.204-3.655.295-4.306.084-3.949-1.28.794-3.033-2.492-7.548-6.726-9.243-9.762-3.905-21.018.387-21.018 8.016 0 4.844 2.226 5.585 15.592 5.194l11.41-.333v2.496c-.003 3.28 4.872 18.116 6.531 19.882 1.078 1.147.642 1.734-2.599 3.5-2.142 1.167-6.855 4.276-10.475 6.91-5.992 4.36-6.552 5.073-6.27 7.977.214 2.196 1.089 3.598 2.81 4.503 3.425 1.8 10.327.952 14.262-1.752zm-19.835.066c3.028-3.346 1.58-6.125-6.425-12.34-4.125-3.202-8.714-6.08-10.198-6.396-2.53-.54-2.608-.714-1.25-2.785 2.266-3.46 6.448-16.56 6.448-20.201 0-8.222-11.166-5.998-15.762 3.14-3.288 6.537-1.724 16.026 3.016 18.295 2.275 1.088 2.58 1.645 1.75 3.196-2.157 4.03-.514 10.428 3.645 14.192 5.545 5.017 15.472 6.55 18.776 2.899zm11.155-13.968c6.074-3.704 8.27-13.567 4.425-19.874-3.17-5.2-7.574-7.42-13.797-6.96-6.601.488-10.106 2.979-12.593 8.95-2.596 6.235-1.591 11.03 3.35 15.97 3.537 3.537 4.204 3.8 9.667 3.796 3.975-.003 6.86-.61 8.948-1.882zm-14.126-6.57c-4.046-4.045-3.24-10.57 1.617-13.082 4.196-2.17 6.748-1.797 10.006 1.46 3.625 3.626 3.726 6.969.334 11-3.346 3.977-8.343 4.237-11.957.623zm127.933 36.418c12.007-3.71 23.205-14.47 28.054-26.963 4.004-10.313 2.987-24.82-2.51-35.82-3.317-6.638-12.301-15.797-18.695-19.06-13.409-6.84-30.2-6.619-43.41.572-6.535 3.556-15.35 13.028-18.472 19.846-9.173 20.037-2.6 44.14 15.272 56.003 3.126 2.074 8.2 4.577 11.278 5.562 7.842 2.509 20.101 2.448 28.483-.14zm-24.887-5.306c-6.915-2.294-12.107-5.42-16.812-10.126-18.424-18.424-13.207-49.128 10.349-60.913 15.844-7.926 33.232-4.655 45.46 8.553 17.638 19.05 11.54 48.962-12.251 60.095-5.387 2.52-8.19 3.172-14.701 3.416-4.826.18-9.646-.23-12.045-1.025zm24.268-9.204c9.019-3.769 13.668-12.529 9.675-18.23-1.452-2.073-1.423-2.222.427-2.222 3.487 0 6.13-4.63 6.13-10.734 0-10.095-5.151-16.7-12.553-16.098-3.753.305-4.042.154-3.648-1.905.3-1.566-.596-3.26-2.996-5.66-7.658-7.658-22.97-4.897-25.317 4.566-.537 2.163-.174 2.989 1.915 4.358 2.138 1.4 4.543 1.627 14.088 1.324l11.51-.366.013 2.507c.013 2.557 4.268 16.795 5.968 19.972.736 1.374.42 1.988-1.47 2.85-1.326.603-5.833 3.628-10.017 6.723-6.967 5.152-7.582 5.891-7.3 8.771.516 5.29 6.477 7.11 13.575 4.144zm-16.343-1.37c3.15-3.481 1.623-6.146-7.345-12.819-5.112-3.803-9.41-6.263-10.94-6.263-2.248 0-2.34-.137-.842-1.25 1.95-1.45 7.702-17.806 7.702-21.903 0-3.406-2.955-5.236-7.017-4.344-5.222 1.147-10.956 9.912-10.978 16.779-.01 3.4 2.904 8.72 5.402 9.857 2.006.914 2.318 1.505 1.552 2.937-2.624 4.903.454 12.264 6.962 16.65 4.452 3 12.935 3.195 15.504.356zm10.576-13.742c3.612-2.134 6.999-8.174 6.997-12.477-.004-8.01-6.78-14.863-14.696-14.863-14.272 0-20.481 16.49-9.755 25.907 3.034 2.664 4.293 3.093 9.083 3.093 3.386 0 6.66-.65 8.371-1.66zm-13.246-6.318c-6.871-5.405-1.325-16.405 7.315-14.507 6.292 1.382 8.488 9.132 3.955 13.957-2.922 3.111-7.717 3.345-11.27.55zm-43.271-29.178c3.955-7.874 8.91-14.135 14.756-18.642 5.625-4.337 17.126-10.2 20.01-10.202.962 0 1.75-.45 1.75-1s-.848-1-1.885-1c-4.208 0-18.084-8.129-24.035-14.08-6.952-6.953-13.664-19.298-14.688-27.018-.362-2.733-.853-4.775-1.09-4.538-.238.238-1.09 3.248-1.892 6.69-2.118 9.08-7.002 17.536-14.41 24.952-6.497 6.504-16.206 12.285-22.872 13.618-3.997.8-3.997 1.952 0 2.751 14.847 2.97 32.86 20.709 36.68 36.125.545 2.2 1.316 5.35 1.714 7 .663 2.753.83 2.488 2.03-3.216.72-3.42 2.489-8.567 3.932-11.44zm-48.02-39.377c13.196-3.437 23.488-11.975 29.428-24.413 3.474-7.274 3.607-7.963 3.587-18.554-.017-9.018-.421-11.992-2.243-16.5-4.494-11.125-14.28-20.882-25.236-25.164-8.368-3.271-22.583-3.686-30.83-.9-16.382 5.534-27.2 18.058-30.227 34.99-2.53 14.16 1.995 28.165 12.485 38.633 11.598 11.576 27.46 15.965 43.037 11.908zm-19.464-5.784c-11.824-2.688-21.744-10.637-26.84-21.508-2.353-5.02-2.66-6.888-2.654-16.175.006-9.422.289-11.077 2.757-16.112 3.454-7.046 11.949-15.18 19.43-18.605 14.536-6.655 33.869-2.518 44.426 9.506 4.6 5.238 8.767 14.828 9.503 21.87 1.243 11.898-3.2 22.956-12.79 31.835-9.155 8.476-21.827 11.918-33.832 9.189zm4.777-10.24c1.426-.999 2.223-2.594 2.223-4.45 0-2.505-1.233-3.776-9.156-9.444-5.035-3.602-9.465-6.55-9.842-6.55-.378 0 .817-4.317 2.655-9.593 1.838-5.277 3.342-10.79 3.342-12.25l-.001-2.656h13.14c11.27 0 13.292-.242 14.212-1.698 2.748-4.347-3.116-10.684-10.674-11.535-9.495-1.07-16.676 2.616-16.676 8.562 0 2.86-.096 2.914-4.354 2.434-3.954-.446-4.678-.165-7.903 3.06-5.907 5.907-6.935 16.492-2.119 21.814.927 1.025 2.526 1.863 3.554 1.863 1.766 0 1.778.136.217 2.519-2.029 3.096-1.387 8.28 1.534 12.38 4.22 5.928 15.001 8.939 19.848 5.544zm20.3-.717c6.43-4.333 9.754-12.283 6.974-16.678-.678-1.071-.167-1.908 1.954-3.198 2.535-1.542 4.983-6.626 4.983-10.35 0-3.145-2.491-9.004-5.085-11.958-5.087-5.793-12.92-5.646-12.888.243.019 3.506 4.432 17.722 6.464 20.823 1.458 2.225 1.438 2.392-.287 2.392-3.036 0-18.643 12.18-19.023 14.846-.872 6.12 9.912 8.595 16.909 3.88zm-9.318-13.721c6.705-4.088 9.058-12.373 5.591-19.68-4.188-8.826-17.154-10.455-23.99-3.014-4.5 4.899-5.231 10.363-2.203 16.466 3.859 7.778 13.352 10.648 20.602 6.228zm-11.26-5.12c-7.658-4.346-4.95-15.937 3.705-15.854 10.514.102 11.598 14.62 1.23 16.467-1.614.288-3.834.012-4.934-.612zm120.541 36.107c8.176-1.55 15.454-5.369 21.833-11.453 29.52-28.158 10.006-76.54-30.873-76.54-13.952 0-27.735 6.376-35.312 16.334-14.08 18.503-12.208 44.712 4.282 59.978 11.545 10.69 24.849 14.567 40.07 11.68zm-17.04-6.36c-7.297-1.592-15.183-6.022-19.976-11.222-17.847-19.362-12.022-49.463 11.75-60.725 6.092-2.885 7.621-3.185 16.226-3.185 8.597 0 10.136.301 16.2 3.174 23.867 11.306 29.952 41.086 12.293 60.16-5.902 6.374-13.475 10.645-21.613 12.188-6.258 1.187-7.842 1.145-14.88-.39zm4.777-10.19c2.458-1.72 2.9-5.2.973-7.648-1.363-1.73-16.137-12.42-18.062-13.07-.882-.296-.9-.763-.072-1.812 1.6-2.024 6.384-16.953 6.382-19.916l-.002-2.496 12.835.303c14.64.346 16.18-.286 14.549-5.972-1.28-4.465-5.307-7.078-11.727-7.61-9.354-.776-15.825 2.697-16.047 8.612-.103 2.762-.253 2.844-4.365 2.383-3.886-.437-4.561-.157-7.723 3.195-3.995 4.236-5.971 10.337-5.02 15.498.782 4.232 4.039 8.09 6.83 8.09 1.856 0 1.877.116.326 1.83-2.409 2.661-2.058 8.113.793 12.308 4.467 6.575 15.195 9.902 20.33 6.306zm21.957-2.097c4.832-3.887 7.201-10.029 5.553-14.396-1.056-2.796-.954-3.126 1.22-3.952 1.304-.496 2.848-1.794 3.432-2.884 1.4-2.615 1.36-12.663-.062-15.43-4.765-9.274-15.877-11.655-15.877-3.402 0 3.999 4.727 18.608 6.784 20.969 1.387 1.591 1.345 1.75-.467 1.75-1.095 0-4.653 1.869-7.905 4.153-11.553 8.117-13.395 10.999-9.665 15.12 2.792 3.085 12.065 2.032 16.987-1.928zm-10.632-12.615c12.603-8.42 6.92-26.961-8.264-26.961-5.448 0-8.609 1.703-12.277 6.616-2.859 3.83-2.854 12.387.01 16.291 4.624 6.305 14.3 8.215 20.53 4.054zm-12.34-5.255c-4.757-2.652-5.349-9.45-1.152-13.225 5.49-4.939 13.79-1.147 13.79 6.3 0 6.326-6.914 10.115-12.638 6.925zM109.987 148.368c-23.93-8.005-38.39-27.28-38.39-51.171 0-29.564 23.397-53.133 52.89-53.28 15.162-.077 28.022 5.042 38.441 15.301 8.13 8.004 12.596 16.44 15.61 29.479.635 2.744.803 2.481 1.975-3.09 2.735-12.988 11.767-25.677 23.901-33.58 19.971-13.005 48.063-10.345 65.403 6.194 22.572 21.53 22.65 56.13.173 77.333-10.867 10.252-21.92 14.619-37.003 14.619-15.617 0-26.518-4.508-37.774-15.619-7.903-7.8-13.295-17.468-15.017-26.926-.861-4.729-.929-4.808-1.642-1.931-5.224 21.068-16.476 34.568-34.786 41.735-7.637 2.99-26.114 3.501-33.781.936zm27.483-8.353c9.923-2.545 21.151-10.926 26.217-19.57 10.793-18.417 7.542-41.477-7.859-55.735-26.59-24.618-69.107-9.94-75.047 25.909-3.055 18.437 7.164 38.026 24.206 46.401 9.946 4.888 21.094 5.916 32.483 2.995zm-25.261-6.733c-11.579-4.292-21.813-15.43-24.271-26.414-1.833-8.19-.876-19.117 2.269-25.907 3.38-7.298 10.633-14.564 18.292-18.325 5.473-2.687 6.892-2.94 16.503-2.94 9.858 0 10.932.205 17.172 3.275 29.074 14.301 28.438 55.457-1.067 69.043-7.7 3.545-21.162 4.136-28.898 1.268zm7.634-8.185c3.459-1.206 5.157-5.06 3.44-7.805-1.592-2.547-16.606-13.038-18.701-13.068-1.729-.025-1.764-.19-.38-1.777 1.87-2.145 6.785-16.818 6.785-20.254v-2.496h27v2.656c0 1.46 1.516 7.01 3.37 12.33 2.964 8.507 3.175 9.745 1.75 10.25-2.15.762-15.28 10.203-16.87 12.13-3.396 4.118.26 9.134 6.656 9.134 4.62 0 11.592-3.488 14.148-7.077 2.936-4.123 3.583-9.302 1.55-12.404-1.559-2.38-1.548-2.52.198-2.52 1.017 0 2.924-1.144 4.238-2.542 1.895-2.018 2.384-3.618 2.366-7.75-.04-9.751-6-17.203-13.156-16.45-2.795.293-3.25.03-3.25-1.882 0-1.222-1.128-3.562-2.507-5.2-6.789-8.069-25.493-5.02-25.493 4.154 0 3.141-.06 3.18-4.321 2.841-5.99-.476-10.1 3.03-12.26 10.456-2.123 7.306-.51 13.08 4.334 15.499 2.795 1.396 3.041 1.8 1.75 2.872-.827.686-1.503 2.565-1.503 4.175 0 5.875 4.95 11.978 11.655 14.369 4.766 1.7 5.296 1.72 9.201.359zm14.244-15.972c8.785-6.256 7.603-20.292-2.12-25.177-14.262-7.165-28.449 10.22-18.24 22.352 1.463 1.739 4.033 3.784 5.71 4.544 3.958 1.794 10.853.985 14.65-1.719zm-14.926-6.243c-4.24-4.512-2.085-11.827 4.132-14.027 5.058-1.79 11.587 4.646 10.224 10.078-1.567 6.241-10.018 8.566-14.356 3.95zm126.326 37.143c22.858-5.782 37.099-30.75 30.967-54.294-5.66-21.725-27.383-36.015-49.713-32.7-36.592 5.43-51.44 49.248-25.565 75.444 11.451 11.594 27.55 15.79 44.31 11.55zm-25.172-6.705c-15.64-5.803-25.434-19.439-25.59-35.623-.082-8.54 1.202-13.33 5.484-20.453 4.089-6.803 11.803-13.164 19.434-16.025 4.792-1.796 7.467-2.13 14.87-1.857 7.795.289 9.935.782 15.685 3.615 10.867 5.354 18.527 15.461 20.874 27.544 3.186 16.396-6.254 34.142-22.085 41.518-7.507 3.498-21.066 4.103-28.672 1.281zm9.856-9.79c3.706-3.354 2.357-5.957-6.414-12.382-4.527-3.316-9.233-6.28-10.459-6.588-2.079-.522-2.128-.714-.726-2.853 1.766-2.696 6.378-17.116 6.4-20.01.014-1.901.686-2 13.515-2h13.5v2.719c0 2.794 4.038 16.115 5.99 19.764.895 1.671.767 2.165-.697 2.695-.986.357-5.506 3.306-10.043 6.554-7.052 5.046-8.25 6.321-8.25 8.779 0 5.85 7.696 7.766 15.677 3.903 7.877-3.813 11.87-13.367 7.439-17.798l-2.116-2.116h2.427c6.487 0 8.946-12.275 4.11-20.525-2.757-4.707-7.047-7.024-11.394-6.154-2.538.507-2.798.324-2.411-1.7.696-3.644-3.892-8.22-9.618-9.594-8.736-2.096-18.252 2.296-18.498 8.536-.112 2.828-.273 2.924-4.366 2.586-3.727-.308-4.666.067-7.647 3.047-3.148 3.148-5.585 8.843-5.598 13.086-.01 3.356 2.89 8.713 5.317 9.818 2.138.975 2.305 1.427 1.405 3.812-4.155 11.007 13.873 24.19 22.457 16.42zm9.78-13.583c13.018-6.676 9.387-25.83-5.209-27.475-11.997-1.352-19.898 9.832-14.91 21.107 1.642 3.712 2.954 5.078 6.361 6.625 5.589 2.536 8.412 2.483 13.758-.257zm-12.641-7c-3.007-3.34-3.458-5.493-1.921-9.171 2.81-6.727 12.715-6.538 15.547.297 1.507 3.64.058 8.514-3.02 10.162-3.269 1.749-8.437 1.12-10.606-1.288z" fill="#871a1f"/><path d="M56.487 443.729c-23.14-5.047-43.549-22.2-51.55-43.325-5.104-13.475-5.014-9.997-4.693-181.77C.58 38.784-.148 55.103 8.268 38.697c3.074-5.994 6.25-10.147 12.66-16.558C30.423 12.646 39.71 7.116 53.015 3.035L60.487.742l113-.32c77.77-.22 115.593.022 121.319.774C326.042 5.3 350.53 27.36 356.437 56.712c1.443 7.172 1.578 24.474 1.328 169.985l-.278 162-2.933 8.4c-7.915 22.677-27.232 40.15-50.977 46.113-7.676 1.928-11.36 1.984-124.5 1.907-92.098-.063-117.85-.354-122.59-1.388zm246-3.81c3.3-.958 9.825-3.6 14.5-5.87 11.52-5.595 24.777-18.696 30.21-29.852 7.816-16.052 7.174-1.254 7.55-174 .22-101.858-.018-157.795-.7-164.169-1.818-16.999-7.767-29.518-19.627-41.307-8.275-8.225-16.813-13.513-27.933-17.3l-8-2.724-115.5-.29c-81.2-.204-117.424.04-121.977.819C36.905 9.35 16.648 26.157 7.647 49.5l-3.16 8.196-.28 162c-.313 181.545-.784 169.147 7.026 184.751 4.774 9.54 16.577 22.093 25.919 27.57 6.636 3.89 17.354 7.783 24.955 9.065 3.045.514 55.063.837 119.88.744 105.623-.151 114.965-.299 120.5-1.907zm-192-39.59c-26.677-7.665-43.583-34.797-38.092-61.132 4.094-19.635 18.36-35.753 36.342-41.062 2.337-.69 4.25-1.563 4.25-1.938 0-.376-1.913-1.249-4.25-1.939-12.589-3.716-26.223-15.437-31.785-27.322-4.175-8.92-6.284-19.632-5.462-27.74 2.856-28.193 25.65-49 53.68-49 24.537 0 46.087 16.744 52.312 40.645 1.693 6.5 2.505 7.818 2.505 4.068 0-1.442 1.057-5.535 2.35-9.096 7.865-21.669 27.7-35.617 50.65-35.617 14.827 0 27.49 5.283 38.103 15.897 11.289 11.289 16.622 25.213 15.553 40.603-1.366 19.658-11.969 35.528-29.648 44.376-4.532 2.269-9.088 4.124-10.124 4.124-1.037 0-1.884.45-1.884 1s.847 1 1.884 1c3.062 0 17.24 7.617 22.26 11.959 9.867 8.534 16.582 22.523 17.526 36.514 1.04 15.426-4.214 29.066-15.656 40.643-27.79 28.116-75.12 17.583-88.664-19.732-1.293-3.561-2.35-7.654-2.35-9.096 0-3.75-.812-2.433-2.505 4.068-4.926 18.912-20.192 34.205-39.048 39.116-7.635 1.989-20.386 1.835-27.947-.338zm31.5-9.964c10.964-4.295 20.743-14.048 25.236-25.168 1.822-4.51 2.226-7.483 2.243-16.5.02-10.595-.113-11.28-3.592-18.566-13.573-28.42-50.22-34.746-72.46-12.506-24.025 24.026-13.936 63.291 19.073 74.222 6.14 2.033 22.644 1.204 29.5-1.482zm105.387.794c12.007-3.71 23.205-14.47 28.054-26.962 4.004-10.314 2.987-24.82-2.51-35.821-3.317-6.638-12.301-15.797-18.695-19.06-13.409-6.84-30.2-6.619-43.41.572-6.535 3.556-15.35 13.028-18.472 19.846-9.173 20.037-2.6 44.14 15.272 56.003 3.126 2.074 8.2 4.577 11.278 5.562 7.842 2.509 20.101 2.449 28.483-.14zM184.47 326.04c3.955-7.874 8.91-14.135 14.756-18.642 5.625-4.337 17.126-10.2 20.01-10.202.962 0 1.75-.45 1.75-1s-.848-1-1.885-1c-4.208 0-18.084-8.129-24.035-14.08-6.952-6.953-13.664-19.298-14.688-27.018-.362-2.733-.853-4.775-1.09-4.538-.238.238-1.09 3.248-1.892 6.69-2.118 9.08-7.002 17.536-14.41 24.952-6.497 6.504-16.206 12.285-22.872 13.618-3.997.8-3.997 1.952 0 2.751 14.847 2.97 32.86 20.709 36.68 36.124.545 2.2 1.316 5.35 1.714 7 .663 2.754.83 2.49 2.03-3.215.72-3.42 2.489-8.567 3.932-11.44zm-48.02-39.377c13.196-3.437 23.488-11.975 29.428-24.413 3.474-7.274 3.607-7.963 3.587-18.554-.017-9.018-.421-11.992-2.243-16.5-4.494-11.125-14.28-20.882-25.236-25.164-8.368-3.271-22.583-3.686-30.83-.9-16.382 5.534-27.2 18.058-30.227 34.99-2.53 14.16 1.995 28.165 12.485 38.633 11.598 11.576 27.46 15.965 43.037 11.908zm105.576.525c8.176-1.55 15.454-5.369 21.833-11.453 29.52-28.158 10.006-76.54-30.873-76.54-13.952 0-27.735 6.376-35.312 16.334-14.08 18.503-12.208 44.712 4.282 59.978 11.545 10.69 24.849 14.567 40.07 11.68zm-132.04-138.82c-23.93-8.006-38.39-27.28-38.39-51.172 0-29.564 23.397-53.133 52.89-53.28 15.162-.077 28.022 5.042 38.441 15.301 8.13 8.004 12.596 16.44 15.61 29.479.634 2.744.803 2.481 1.975-3.09 2.735-12.988 11.767-25.677 23.901-33.58 19.971-13.005 48.063-10.345 65.403 6.194 22.572 21.53 22.65 56.13.173 77.333-10.867 10.252-21.92 14.619-37.003 14.619-15.617 0-26.518-4.508-37.774-15.619-7.903-7.8-13.295-17.468-15.017-26.926-.861-4.729-.929-4.808-1.642-1.931-5.224 21.068-16.476 34.568-34.786 41.735-7.637 2.99-26.114 3.501-33.781.936zm27.483-8.354c9.923-2.545 21.151-10.926 26.217-19.57 10.793-18.417 7.542-41.477-7.859-55.735-26.59-24.618-69.107-9.94-75.047 25.909-3.055 18.437 7.164 38.026 24.206 46.401 9.946 4.888 21.094 5.916 32.483 2.995zm-25.261-6.733c-11.579-4.292-21.813-15.43-24.271-26.414-1.833-8.19-.876-19.117 2.269-25.907 3.38-7.298 10.633-14.564 18.292-18.325 5.473-2.687 6.892-2.94 16.503-2.94 9.858 0 10.932.205 17.172 3.275 29.074 14.301 28.438 55.457-1.067 69.043-7.7 3.545-21.162 4.136-28.898 1.268zm7.634-8.185c3.459-1.206 5.157-5.06 3.44-7.805-1.592-2.547-16.606-13.038-18.701-13.068-1.729-.025-1.764-.19-.38-1.777 1.87-2.145 6.785-16.818 6.785-20.254v-2.496h27v2.656c0 1.46 1.516 7.01 3.37 12.33 2.964 8.507 3.175 9.745 1.75 10.25-2.15.762-15.28 10.203-16.87 12.13-3.396 4.118.26 9.134 6.656 9.134 4.62 0 11.592-3.488 14.148-7.077 2.936-4.123 3.583-9.302 1.55-12.404-1.559-2.38-1.548-2.52.198-2.52 1.017 0 2.924-1.144 4.238-2.542 1.895-2.018 2.384-3.618 2.366-7.75-.04-9.751-6-17.203-13.156-16.45-2.795.293-3.25.03-3.25-1.882 0-1.222-1.128-3.562-2.507-5.2-6.789-8.069-25.493-5.02-25.493 4.154 0 3.141-.06 3.18-4.321 2.841-5.99-.476-10.1 3.03-12.26 10.456-2.123 7.306-.51 13.08 4.334 15.499 2.795 1.396 3.041 1.8 1.75 2.872-.827.686-1.503 2.565-1.503 4.175 0 5.875 4.95 11.978 11.655 14.369 4.766 1.7 5.296 1.72 9.201.359zm14.244-15.972c8.785-6.256 7.603-20.292-2.12-25.177-14.262-7.165-28.449 10.22-18.24 22.352 1.463 1.739 4.033 3.784 5.71 4.544 3.958 1.794 10.853.985 14.65-1.719zm-14.926-6.243c-4.24-4.512-2.085-11.827 4.132-14.027 5.058-1.79 11.587 4.646 10.224 10.078-1.567 6.241-10.018 8.566-14.356 3.95zm126.326 37.143c22.858-5.782 37.099-30.75 30.967-54.294-5.66-21.725-27.383-36.015-49.713-32.7-36.592 5.43-51.44 49.248-25.565 75.444 11.451 11.594 27.55 15.79 44.31 11.55zm-25.172-6.705c-15.64-5.803-25.434-19.439-25.59-35.623-.082-8.54 1.202-13.33 5.484-20.453 4.089-6.803 11.803-13.164 19.434-16.025 4.792-1.796 7.467-2.13 14.87-1.857 7.795.289 9.935.782 15.685 3.615 10.867 5.354 18.527 15.461 20.874 27.544 3.186 16.396-6.254 34.142-22.085 41.518-7.507 3.498-21.066 4.103-28.672 1.281zm9.856-9.79c3.706-3.354 2.357-5.957-6.414-12.382-4.527-3.316-9.233-6.28-10.46-6.588-2.078-.522-2.127-.714-.725-2.853 1.766-2.696 6.378-17.116 6.4-20.01.014-1.901.686-2 13.515-2h13.5v2.719c0 2.794 4.038 16.115 5.99 19.764.895 1.671.767 2.165-.697 2.695-.986.357-5.506 3.306-10.043 6.554-7.052 5.046-8.25 6.321-8.25 8.779 0 5.85 7.696 7.766 15.677 3.903 7.877-3.813 11.87-13.367 7.439-17.798l-2.116-2.116h2.427c6.487 0 8.946-12.275 4.11-20.525-2.757-4.707-7.047-7.024-11.394-6.154-2.538.507-2.798.324-2.411-1.7.696-3.644-3.892-8.22-9.618-9.594-8.736-2.096-18.252 2.296-18.498 8.536-.112 2.828-.273 2.924-4.366 2.586-3.727-.308-4.666.067-7.647 3.047-3.148 3.148-5.585 8.843-5.598 13.086-.01 3.356 2.89 8.713 5.317 9.818 2.138.975 2.305 1.427 1.405 3.812-4.155 11.007 13.873 24.19 22.457 16.42zm9.78-13.583c13.018-6.676 9.387-25.83-5.209-27.475-11.997-1.352-19.898 9.832-14.91 21.107 1.642 3.712 2.954 5.078 6.361 6.625 5.589 2.536 8.412 2.483 13.758-.257zm-12.641-7c-3.007-3.34-3.458-5.493-1.921-9.171 2.81-6.727 12.715-6.538 15.547.297 1.507 3.64.058 8.514-3.02 10.162-3.269 1.749-8.437 1.12-10.606-1.288z" fill="#0f1938"/><path d="M54.987 443.162c-25.877-6.723-45.6-25.807-52.673-50.965-1.736-6.174-1.827-14.652-1.827-169 0-151.993.113-162.92 1.76-169C7.702 34.052 21.693 17.23 40.487 8.22c16.72-8.015 7.721-7.524 138-7.524 131.268 0 123.401-.453 140.43 8.071 19.376 9.7 34.208 29.169 37.986 49.862.748 4.099 1.084 54.912 1.084 164.292 0 176.74.394 166.506-7.015 181.775-8.827 18.189-23.386 30.587-44.485 37.882-5.926 2.048-7.476 2.077-125 2.303-115.123.221-119.245.165-126.5-1.72zm240.934-2.025c22.259-3.611 41.876-17.536 51.02-36.215 8.15-16.65 7.472-1.404 7.807-175.701.185-96.154-.072-158.798-.673-164.183-2.641-23.653-16.121-42.85-37.5-53.4-15.727-7.762-9.115-7.405-137.391-7.424-128.859-.02-121.384-.439-138.13 7.743-17.365 8.486-30.361 24.34-35.082 42.796-1.94 7.588-1.985 11.399-1.97 168.353.016 177.809-.393 166.574 6.565 180.678 9.492 19.238 29.283 33.692 51.183 37.38 7.364 1.24 226.519 1.215 234.171-.027z"/></svg>