<svg xmlns="http://www.w3.org/2000/svg" width="358.84" height="445.88"><path d="M61.75 444.977c-16.535-2.84-29.249-9.352-40.914-20.957-7.171-7.134-9.348-10.102-13.228-18.037C-.669 389.056-.177 401.385.14 218.986l.28-161.5 2.823-8C11.487 26.13 28.007 10.295 51.92 2.828l7.5-2.342h240l7.5 2.342c23.913 7.467 40.433 23.302 48.676 46.658l2.824 8 .28 161.5c.316 182.399.809 170.07-7.469 186.997-3.865 7.906-6.083 10.937-13.23 18.084-7.13 7.13-10.197 9.377-18.084 13.247-17.931 8.799-6.664 8.119-137.497 8.302-63.8.09-118.101-.198-120.67-.64zm245.66-7.315c18.463-6.524 32.043-18.452 40.565-35.63 6.224-12.543 5.914-3.166 5.93-179.402.016-178.114.465-165.716-6.52-180.144-6.592-13.62-17.5-24.238-31.965-31.117-15.384-7.317-6.81-6.883-136-6.883s-120.616-.434-136 6.883C28.966 18.243 18.086 28.829 11.424 42.5c-6.873 14.106-6.473 3.012-6.49 180.186-.01 111.227.317 161.82 1.07 165.5 1.927 9.417 9.259 23.065 16.534 30.777 9.765 10.352 19.798 16.292 33.882 20.06 6.675 1.785 12.467 1.863 125 1.667l118-.205 7.99-2.824zm-195.49-26.105c-8.445-2.345-16.389-6.973-22.618-13.176-26.268-26.162-17.273-69.876 17.268-83.915 4.696-1.908 5.434-2.498 3.833-3.06-24.827-8.712-39.332-31.668-35.71-56.516 6.106-41.898 58.074-58.759 87.766-28.476 6.413 6.54 11.629 15.64 13.293 23.19l.855 3.882 1.25-4.5c6.113-22.029 27.009-38 49.717-38h6.233l-4.817-5.024c-9.076-9.466-14.07-22.15-14.07-35.737v-7.34l-3.25 2.436c-19.882 14.906-49.55 12.315-67.409-5.888-9.347-9.528-14.264-21.122-14.317-33.765l-.024-5.818-3.097 2.318c-14.712 11.013-29.203 14.746-44.571 11.482-10.774-2.288-17.85-6.149-25.924-14.142-20.207-20.006-20.7-50.239-1.162-71.126 14.2-15.18 37.074-20.153 56.845-12.36 18.74 7.387 31.909 26.475 31.909 46.252v5.868l3.984-3.41c9.206-7.88 20.257-11.754 33.476-11.734 14.574.021 26.131 4.667 36.045 14.488 10.196 10.101 16.034 24.617 15.32 38.094l-.325 6.134 3.025-2.312c9.857-7.53 24.92-11.275 38.144-9.485 34.526 4.675 54.045 41.18 39.068 73.069-3.984 8.483-14.918 19.57-23.08 23.403-7.15 3.357-18.564 5.853-24.786 5.42l-4.628-.323 5.405 5.836c9.534 10.293 13.364 20.52 13.33 35.595-.032 15.033-4.882 26.26-15.903 36.822-3.953 3.788-14.141 9.594-20.575 11.726-1.592.527-.908 1.048 3.352 2.553 15.624 5.52 28.592 20.063 32.15 36.056.727 3.267 1.078 9.709.845 15.511-.36 8.943-.765 10.696-4.107 17.732-8.948 18.843-26.196 29.669-47.269 29.669-22.891 0-42.768-14.793-49.024-36.486l-1.726-5.986-1.377 5.381c-2.1 8.202-6.157 14.93-13.33 22.104-7.281 7.28-13.815 11.18-22.55 13.454-6.97 1.816-21.109 1.87-27.464.104zm22.885-8.63c21.54-4.967 36.109-26.568 32.206-47.752-4.136-22.444-26.277-38.264-47.962-34.269-14.187 2.614-24.692 10.37-30.81 22.748-3.235 6.545-3.766 8.642-4.133 16.311-.478 10.015 1.112 16.446 5.985 24.194 9.347 14.864 27.889 22.646 44.714 18.767zm-18.956-5.25c-10.067-2.844-18.312-9.786-23.644-19.905-2.534-4.81-2.785-6.231-2.785-15.786 0-11.587 1.222-15.159 8.081-23.62 16.611-20.491 49.63-15.977 61.645 8.427 2.935 5.962 3.27 7.533 3.243 15.172-.039 10.83-3.171 18.328-10.79 25.827-9.475 9.325-23.758 13.275-35.75 9.886zm5.848-10.248c4.193-2.937 2.908-5.858-5.224-11.871-9.34-6.908-11.805-7.644-14.06-4.2-3.223 4.917.536 12.374 7.928 15.732 5.012 2.276 8.445 2.379 11.356.34zm19.755-.909c5.999-3.516 8.873-10.04 6.433-14.6-1.742-3.255-5.679-2.3-13.325 3.23-8.025 5.804-8.603 6.443-8.625 9.536-.033 4.797 8.7 5.83 15.517 1.834zm-8.353-12.63c3.151-1.686 5.813-7.042 5.817-11.704.008-8.62-4.784-13.2-13.812-13.2-10.316 0-16.137 9.975-11.51 19.726 2.978 6.276 12.653 8.845 19.505 5.178zm-11.902-4.851c-3.821-2.36-4.976-5.95-3.253-10.11 3.477-8.394 15.976-5.893 15.976 3.197 0 6.632-7.01 10.441-12.723 6.913zm29.642-1.803c4.495-3.673 3.908-14.1-1.116-19.822-2.733-3.112-3.583-3.493-7.2-3.228-5.432.397-5.635 2.197-1.615 14.265 3.643 10.936 5.4 12.489 9.931 8.785zm-45.175-.5c1.562-1.974 6.256-16.969 6.256-19.984 0-3.57-3.838-4.69-8.48-2.477-6.764 3.225-9.791 16.439-4.983 21.752 2.005 2.216 5.725 2.582 7.207.709zm30.65-22.05c1.177-.86 1.664-2.284 1.442-4.217-1.021-8.87-21.629-10.42-24.88-1.87-1.468 3.862-1.16 5.37 1.294 6.356 3.578 1.438 20.084 1.238 22.144-.268zM242.92 401.09c20.277-7.704 31.47-30.566 25.054-51.177-4.782-15.366-17.377-26.146-33.96-29.067-17.457-3.075-36.458 7.128-44.366 23.825-3.003 6.34-3.228 7.552-3.228 17.363 0 10.166.135 10.823 3.735 18.109 5.539 11.213 14.832 18.95 26.79 22.304 7.146 2.005 18.715 1.4 25.975-1.357zm-26.5-4.142c-3.3-1.059-8.213-3.62-10.917-5.693-22.233-17.043-18.39-50.483 7.192-62.577 5.963-2.818 7.688-3.173 15.225-3.124 11.627.074 18.736 3.257 26.996 12.087 4.94 5.28 6.319 7.572 8.112 13.477 4.81 15.833-.832 32.021-14.35 41.173-9.827 6.653-21.007 8.268-32.258 4.657zm6.798-8.885c3.204-1.219 4.096-3.826 2.265-6.621-1.869-2.852-15.406-12.456-17.557-12.456-2.572 0-4.006 2.132-4.002 5.95.005 5.035 3.28 9.822 8.266 12.086 4.727 2.146 7.447 2.402 11.028 1.04zm19.717-.929c4.823-2.562 8.156-7.708 7.782-12.015-.344-3.972-2.47-5.7-5.892-4.785-3.91 1.045-16.373 10.962-16.708 13.295-.741 5.148 7.887 7.189 14.818 3.505zm-10.83-12.183c10.313-2.864 12.77-17.72 3.917-23.678-4.924-3.314-12.865-3.199-16.959.246-9.468 7.967-4.208 23.308 8.357 24.371.55.047 2.658-.376 4.686-.939zm-8.075-5.36c-2.61-1.447-5.019-5.14-5.075-7.778-.02-.92 1.13-3.058 2.554-4.75 5.083-6.04 14.744-2.718 14.744 5.071 0 2.295-.875 3.947-3.182 6.008-3.503 3.13-5.445 3.441-9.041 1.448zm29.435-3.06c4.452-4.451 2.815-16.16-2.903-20.773-2.771-2.235-9.481-2.355-10.314-.185-.335.873.598 5.48 2.074 10.24 4.196 13.536 6.301 15.56 11.143 10.718zm-45.047-.295c2.802-6.887 5.502-16.12 5.502-18.818 0-5.346-5.08-6.057-10.332-1.446-7.819 6.866-6.87 22.014 1.38 22.014 1.67 0 3.016-.683 3.45-1.75zm29.252-20.88c3.209-.86 3.1-6.222-.188-9.312-4.319-4.057-16.035-4.06-20.387-.007-2.758 2.57-3.034 8.578-.425 9.26 2.669.697 18.452.742 21 .059zm-58.763.63c1.193-3.575 3.496-8.584 5.119-11.132 5.822-9.14 17.735-18.51 27.18-21.381 3.44-1.045 3.846-1.403 2.214-1.946-5.505-1.83-14.548-6.715-19.108-10.322-6.092-4.82-12.588-14.183-14.885-21.456-.914-2.895-1.893-5.938-2.174-6.763-.288-.844-1.274.931-2.254 4.055-5.135 16.373-16.796 27.987-34.58 34.44-1.63.592-1.036 1.061 3.228 2.546 14.946 5.208 29.739 21.513 31.926 35.193.337 2.108.737 3.705.89 3.55.151-.156 1.251-3.209 2.444-6.784zm-42.447-43.552c25.445-6.626 38.606-35.465 26.81-58.745-1.405-2.77-4.753-7.363-7.441-10.206-13.043-13.79-32.87-16.881-50.126-7.814-8.191 4.305-13.885 10.357-18.173 19.317-2.898 6.056-3.11 7.25-3.11 17.5 0 10.358.188 11.384 3.217 17.574 8.857 18.1 29.285 27.462 48.823 22.374zm-21.254-4.899c-9.89-3.09-18.692-10.732-23.42-20.333-1.955-3.969-2.327-6.3-2.345-14.716-.019-8.774.306-10.698 2.649-15.697 3.555-7.583 10.409-14.243 18.605-18.079 5.794-2.711 7.737-3.117 14.7-3.068 15.104.106 27.088 7.616 33.75 21.151 2.928 5.946 3.274 7.555 3.264 15.172-.01 7.45-.4 9.338-3.11 15.021-8.107 17.007-27.103 25.86-44.093 20.55zm6.149-9.524c1.965-.747 2.565-1.676 2.565-3.969 0-2.46-.956-3.7-5.371-6.96-6.962-5.144-11.821-8.088-13.356-8.092-.675-.002-1.978 1.141-2.895 2.541-1.391 2.124-1.48 3.17-.54 6.31 2.436 8.13 11.96 13.073 19.597 10.17zm19.183-.648c6.029-2.86 9.87-10.729 7.447-15.255-2.168-4.052-6.9-2.31-17.815 6.559-4.601 3.738-5.6 7.433-2.5 9.239 2.653 1.545 9.035 1.276 12.868-.543zm-9.336-12.739c5.018-2.124 7.003-5.034 7.497-10.99.795-9.58-3.908-14.648-13.595-14.648-13.977 0-18.418 19.356-5.76 25.105 4.893 2.222 7.581 2.343 11.858.533zm-9.252-4.917c-7.943-4.02-5.327-15.721 3.515-15.721 7.983 0 11.454 9.299 5.378 14.411-3.425 2.882-5.254 3.151-8.893 1.31zm28.958-2.51c2.73-2.211 3.753-9.434 2.062-14.56-1.715-5.195-6.42-8.831-10.939-8.453-4.878.408-5.043 2.5-1.123 14.267 3.656 10.973 5.384 12.484 10 8.746zm-45.244-.461c1.562-1.974 6.256-16.969 6.256-19.984 0-3.602-3.533-4.556-8.371-2.26-6.962 3.303-9.993 16.12-5.092 21.535 2.005 2.216 5.725 2.582 7.207.709zm30.058-21.394c1.943-.52 2.256-1.178 2-4.204-.862-10.224-22.379-11.309-25.212-1.272-1.42 5.03.7 6.123 11.851 6.106 4.982-.008 10.095-.29 11.361-.63zm106.792 55.91c11.235-4.311 20.215-13.098 24.54-24.014 2.985-7.534 3.234-21.226.526-29.014-3.72-10.703-13.997-20.93-25.42-25.296-7.918-3.026-20.505-3.049-28.345-.05-8.465 3.237-14.699 7.835-19.542 14.415-20.895 28.383.14 68.072 35.147 66.314 4.602-.23 10.163-1.232 13.094-2.356zm-23.86-3.29c-10.05-2.538-19.178-10.07-23.947-19.758-3.018-6.13-3.287-7.454-3.287-16.197 0-8.335.338-10.21 2.717-15.054 11.324-23.058 40.053-28.647 58.666-11.414 8.495 7.864 11.617 15.106 11.617 26.947 0 7.934-.348 9.709-2.94 14.987-6.22 12.671-17.816 20.438-31.471 21.082-4.174.197-9.284-.07-11.355-.593zm5.214-9.948c2.208-1.182 3.196-3.488 2.392-5.584-.724-1.887-14.102-11.916-17.212-12.903-1.295-.411-2.83-.203-3.676.499-2.173 1.803-1.817 8.639.628 12.073 3.898 5.474 13.039 8.5 17.868 5.915zm19.067-.88c4.823-2.562 8.156-7.708 7.782-12.015-.344-3.972-2.47-5.7-5.892-4.785-3.91 1.045-16.373 10.962-16.708 13.295-.741 5.148 7.887 7.189 14.818 3.505zm-7.491-13.572c5.852-3.834 7.82-13.083 4.017-18.877-5.738-8.743-20.676-7.196-24.375 2.524-4.639 12.187 9.447 23.502 20.358 16.353zm-11.414-3.972c-2.61-1.446-5.019-5.138-5.075-7.777-.02-.92 1.13-3.058 2.554-4.75 4.474-5.318 12.328-3.64 14.72 3.145.99 2.811-1.318 7.731-4.368 9.308-3.445 1.782-4.728 1.794-7.831.074zm29.435-3.059c4.75-4.748 2.254-18.174-4-21.52-3.2-1.714-8.95-.943-9.366 1.256-.186.979.89 5.704 2.391 10.5 3.923 12.533 6.19 14.55 10.975 9.764zm-45.047-.295c2.815-6.918 5.502-16.127 5.502-18.858 0-3.625-2.303-5.041-6.25-3.844-10.743 3.257-13.085 24.452-2.702 24.452 1.67 0 3.016-.683 3.45-1.75zm29.304-20.894c1.943-.52 2.256-1.178 2-4.204-.411-4.882-5.18-8.152-11.885-8.152-8.512 0-12.917 2.898-12.917 8.498 0 2.355.522 3.492 1.75 3.813 2.696.704 18.464.738 21.052.045zm46.439-37.08c29.226-13.709 32.393-54.332 5.63-72.204-16.601-11.085-39.174-8.906-53.206 5.137-22.16 22.176-13.367 58.272 16.822 69.048 3.798 1.356 7.315 1.716 14.513 1.485 8.206-.263 10.418-.735 16.24-3.467zm-29.917-2.66c-5.89-1.92-10.442-4.935-15.132-10.023-16.616-18.027-11.793-45.857 9.995-57.67 6.05-3.28 6.752-3.423 16.828-3.423 9.866 0 10.929.203 17.198 3.287 27.331 13.444 26.776 52.918-.933 66.267-5.94 2.862-21.328 3.722-27.956 1.562zm25.217-9.496c5.737-2.606 9.459-7.356 9.459-12.074 0-4.82-2.07-6.791-5.492-5.232-3.618 1.649-16.291 11.05-16.798 12.462-1.026 2.856 2.997 6.52 7.29 6.639.825.022 3.318-.785 5.541-1.795zm-16.108-1.046c.958-1.059 1.589-2.72 1.402-3.693-.455-2.36-15.725-13.319-18.607-13.354-2.737-.033-4.756 3.735-3.877 7.237.825 3.287 4.334 7.573 8.06 9.845 4.115 2.51 10.735 2.492 13.022-.035zm10.092-13.09c3.654-2.258 6.475-7.334 6.475-11.65 0-4.233-3.19-9.43-7.062-11.507-9.023-4.839-19.925 1.435-19.934 11.473-.011 10.773 11.443 17.295 20.521 11.684zm-13.07-5.439c-5.393-5.392-1.59-14.545 6.045-14.545 4.876 0 8.5 3.623 8.5 8.5s-3.624 8.5-8.5 8.5c-2.48 0-4.351-.76-6.046-2.455zm-14.08-1.795c.781-1.238 2.674-6.155 4.205-10.928 3.103-9.669 2.635-11.822-2.568-11.822-5.553 0-11.012 7.164-11.012 14.45 0 8.2 6.053 13.56 9.375 8.3zm45.57.306c4.646-4.647 3.03-15.375-3.094-20.528-4.739-3.987-9.851-2.951-9.851 1.997 0 2.286 4.065 14.86 5.933 18.35 1.42 2.652 4.462 2.73 7.011.18zm-13.896-22.616c1.767-2.128.24-6.148-3.35-8.821-2.098-1.562-4.283-2.086-8.7-2.086-6.635 0-10.826 2.28-12.421 6.76-1.702 4.776.324 5.707 12.422 5.707 8.523 0 11.024-.324 12.05-1.56zm-89.483 12.467c15.683-2.89 27.896-13.566 32.9-28.76 1.338-4.061 1.662-7.563 1.343-14.5-.54-11.778-4.127-19.82-12.273-27.525-24.797-23.451-64.456-10.426-70.652 23.206-4.418 23.972 14.952 47.09 40.682 48.554 1.137.065 4.737-.374 8-.975zm-15.211-4.946c-10.89-2.156-20.598-10.019-25.693-20.81-2.78-5.886-3.133-7.628-3.078-15.151.083-11.361 2.741-18.195 9.946-25.575 12.792-13.103 32.62-15.12 47.938-4.878 10.32 6.9 15.47 16.918 15.508 30.165.03 10.417-2.448 17.372-8.646 24.265-9.402 10.458-22.178 14.714-35.975 11.984zm5.131-12.038c2.634-2.587 1.675-4.035-7.07-10.678-8.229-6.252-11.166-7.308-13.072-4.701-3.929 5.373 1.744 14.777 10.57 17.52 3.447 1.072 7.143.245 9.572-2.141zm17.16 1.006c7.112-3.443 10.77-12.37 6.725-16.415-2.039-2.039-2.56-1.828-12.24 4.955-9.337 6.542-10.28 8.146-6.639 11.278 3.256 2.8 6.64 2.851 12.154.182zm-6.836-13.955c5.849-3.566 7.82-11.79 4.234-17.67-3.975-6.518-10.732-8.602-17.41-5.369-5.771 2.794-8.113 7.12-7.38 13.631.444 3.94 1.231 5.49 4.133 8.15 3.004 2.753 4.354 3.283 8.348 3.28 3.013-.002 5.982-.745 8.075-2.022zm-13.636-5.288c-2.138-2.277-2.832-6.808-1.553-10.141.759-1.977 5.508-4.545 8.406-4.545 1.17 0 3.442 1.315 5.05 2.923 3.515 3.516 3.824 7.662.85 11.442-2.814 3.577-9.535 3.746-12.753.32zm-13.8-1.936c.782-1.238 2.675-6.155 4.206-10.928 2.326-7.248 2.57-8.936 1.48-10.25-2.906-3.501-10.006-.56-13.05 5.409-2.887 5.658-2.694 12.426.444 15.564 3.052 3.052 5.085 3.112 6.92.205zm46.353-.458c2.53-3.863 2.21-11.038-.7-15.747-4.102-6.638-13.052-8.192-13.012-2.26.02 2.98 4.586 17.53 6.057 19.301 1.93 2.327 5.701 1.69 7.655-1.294zm-14.728-21.791c.964-1.162.982-2.131.08-4.31-3.502-8.455-21.502-8.46-24.476-.006-1.851 5.266-.743 5.815 11.743 5.815 8.918 0 11.68-.328 12.653-1.5zm-81.715 15.203c25.824-12.763 31.37-46.146 11.048-66.495-7.39-7.4-16.279-11.42-26.566-12.016-18.519-1.072-33.79 7.955-41.582 24.58-2.402 5.126-2.684 6.882-2.684 16.727 0 9.936.269 11.574 2.777 16.93 3.674 7.845 8.49 13.57 14.847 17.65 8.693 5.578 14.056 7.008 24.988 6.663 8.773-.276 10.272-.629 17.172-4.039zm-30.44-2.042c-17.738-6.607-27.216-22.207-24.695-40.642 1.66-12.14 8.644-21.826 19.638-27.233 6.28-3.09 7.314-3.286 17.197-3.27 9.005.016 11.203.357 15.296 2.375 23.108 11.392 28.596 40.428 11.164 59.064-7.133 7.626-13.733 10.426-25.41 10.78-6.255.189-10.791-.18-13.19-1.074zm27.92-10.984c3.79-2.528 7.672-9.728 6.773-12.56-.338-1.066-1.286-2.494-2.106-3.175-1.937-1.608-4.097-.615-13.347 6.134-6.066 4.426-7.14 5.643-6.885 7.81.628 5.354 8.814 6.296 15.566 1.791zm-19.593.667c3.326-3.01 2.176-5.096-6.258-11.35-9.061-6.718-12.385-7.515-13.968-3.351-1.827 4.805 1.98 11.564 8.555 15.192 3.036 1.675 9.582 1.4 11.671-.491zm9.923-12.894c6.5-3.361 8.87-12.716 4.88-19.261-5.11-8.382-18.454-7.879-23.147.872-6.272 11.695 6.448 24.501 18.267 18.39zm-12.64-5.906c-5.392-5.392-1.588-14.545 6.046-14.545 4.876 0 8.5 3.623 8.5 8.5 0 2.48-.76 4.35-2.455 6.045-1.694 1.695-3.566 2.455-6.045 2.455-2.48 0-4.351-.76-6.046-2.455zm-14.239-1.295c2.08-2.386 7.008-17.655 6.608-20.473-.25-1.766-1.068-2.348-3.644-2.596-4.414-.423-7.912 2.018-10.241 7.147-2.87 6.32-2.543 11.221.985 14.749 3.397 3.397 4.22 3.55 6.292 1.173zm44.24 1.129c2.222-.853 4.545-5.638 4.545-9.361 0-9.768-11.346-19.235-15.362-12.818-.798 1.274-.481 3.527 1.264 9 4.452 13.959 5.12 14.88 9.553 13.179zm-12.406-23.939c1.772-2.134.237-6.151-3.376-8.838-3.927-2.92-13.452-2.902-17.396.035-3.569 2.657-5.09 6.68-3.327 8.803 1.026 1.236 3.527 1.56 12.05 1.56s11.024-.324 12.05-1.56z" fill="#c38c8f"/><path d="M59.673 444.406c-15.067-2.725-28.218-9.742-39.253-20.947-8.224-8.35-13.505-16.9-17.276-27.973l-2.724-8-.28-161C-.176 45.263-.636 57.074 7.396 40.442 12.61 29.645 21.704 19.259 31.728 12.65 40.293 7.004 46.452 4.33 56.42 1.928 64.08.082 69.29 0 179.42 0s115.339.082 123 1.928c9.968 2.402 16.127 5.076 24.691 10.722 10.025 6.609 19.118 16.995 24.332 27.792 8.033 16.632 7.572 4.82 7.257 186.044l-.28 161-2.725 8c-8.95 26.283-32.032 45.51-59.377 49.463-4.282.62-49.002.97-117.898.927-90.583-.057-112.425-.327-118.747-1.47zm247.247-6.261c23.497-8.465 38.873-24.29 44.968-46.287 2.004-7.23 2.032-9.56 2.032-168.892 0-180.065.544-166.201-7.14-181.893-3.174-6.483-5.867-10.154-11.74-16-11.573-11.522-23.952-17.77-39.722-20.05C286 3.676 72.84 3.676 63.522 5.023 47.806 7.294 35.51 13.493 23.85 25.02c-5.922 5.855-8.544 9.42-11.766 16C4.371 56.773 4.92 42.847 4.92 222.966c0 159.233.029 161.666 2.028 168.879 6.12 22.085 22.683 39.029 44.972 46.006 3.575 1.119 7.625 2.226 9 2.46 1.375.235 55.825.37 121 .3l118.5-.125 6.5-2.341zm-194.736-26.7c-7.971-2.147-14.478-5.837-21.092-11.96-11.928-11.044-16.465-21.353-16.5-37.499-.02-8.653.387-11.555 2.309-16.5 5.852-15.058 16.619-26.042 30.508-31.124 4.803-1.758 5.609-2.341 4.01-2.904-16.796-5.908-29.307-17.884-34.528-33.053-12.65-36.75 20.897-74.308 59.23-66.314 8.686 1.812 17.39 6.545 24.68 13.421 7.165 6.76 11.368 13.397 14.198 22.419.98 3.124 1.966 4.899 2.254 4.055.281-.825 1.26-3.868 2.174-6.763 6.138-19.433 27.17-34.168 48.85-34.222l5.858-.015-5.51-5.952c-9.087-9.815-13.671-21.46-13.693-34.786l-.012-7.237-5.578 3.568c-11.755 7.52-26.54 10.115-39.82 6.99-22.422-5.275-39.602-26.24-39.602-48.324v-6.378l-4.75 3.954c-17.44 14.516-42.19 15.734-61.237 3.015-16.5-11.018-25.389-31.078-22.206-50.114C45.94 50.538 67.247 32.589 92.92 32.6c27.491.013 50.933 22.848 50.988 49.668l.012 5.783 5.25-3.92c10.812-8.073 19.642-11.114 32.318-11.133 13.616-.02 24.868 4.447 34.611 13.74 11.235 10.717 15.963 21.177 16.184 35.81l.137 9.06 5.958-3.845c16.98-10.96 39.73-10.845 56.395.284 26.942 17.991 30.73 55.54 7.907 78.364-10.114 10.113-26.966 16.714-39.164 15.339l-4.212-.475 4.692 4.692c10.168 10.168 14.87 21.42 14.903 35.664.036 15.614-5.568 28.42-16.884 38.584-4.602 4.133-13.417 9.19-19.579 11.23-1.575.522-.764 1.153 3.944 3.066 20.664 8.399 32.54 25.725 32.54 47.475 0 15.31-5.833 28.45-16.944 38.17-12.414 10.859-30.196 15.399-46.028 11.75-17.26-3.976-33.21-19.454-38.074-36.945l-1.245-4.475-1.267 4.812c-4.403 16.727-18.683 30.896-36.374 36.093-6.652 1.953-19.652 1.98-26.804.053zm24.2-8.992c16.687-4.346 27.868-16.682 30.838-34.024 2.97-17.333-6.772-36.325-22.426-43.724-21.62-10.22-46.856-1.724-57.181 19.25-3.034 6.162-3.195 7.071-3.195 18.031 0 11.056.14 11.827 3.327 18.3 9 18.282 28.84 27.324 48.638 22.167zm-22.62-5.86c-19.233-6.87-28.95-26-22.98-45.234 5.284-17.025 18.958-26.188 37.544-25.16 9.955.551 18.007 4.26 24.468 11.268 6.99 7.584 8.624 12.229 8.624 24.519 0 9.47-.274 11.058-2.794 16.19-3.598 7.325-11.924 15-19.247 17.74-6.478 2.423-19.744 2.774-25.615.676zm25.877-8.714c7.65-3.703 11.638-12.63 7.624-17.064-1.551-1.714-1.53-1.829.345-1.829 4.557 0 7.984-7.784 6.254-14.208-1.222-4.538-6.242-10.578-9.462-11.386-3.479-.873-6.482 1.191-6.482 4.454 0 2.725 3.913 15.376 5.798 18.744.783 1.399-.332 2.559-6.404 6.66-4.044 2.733-8.46 5.994-9.812 7.248-2.457 2.276-2.463 2.277-4.271.277-3.032-3.353-15.58-11.789-17.535-11.789-1.758 0-1.753-.118.099-2.75 1.064-1.513 3.132-6.438 4.594-10.946 3.1-9.552 2.531-12.304-2.54-12.304-6.526 0-11.93 7.062-11.93 15.592 0 4.02.477 5.12 3.406 7.884 2.424 2.285 3.15 3.617 2.516 4.618-2.573 4.063.71 11.393 7 15.632 4.506 3.036 11.25 3.102 14.214.14 1.96-1.961 2.212-1.997 3.085-.437 2.142 3.828 7.432 4.402 13.5 1.464zm-7.76-13.373c11.787-6.095 9.44-23.666-3.484-26.09-5.07-.951-8.368.225-12.66 4.517-3.351 3.352-3.817 4.397-3.817 8.567 0 10.856 10.672 17.81 19.961 13.006zm-11.961-6.52c-2.818-2.818-2.716-9.255.188-11.961 4.954-4.615 13.812-.792 13.812 5.961 0 6.745-9.278 10.722-14 6zm17.435-23.928c2.209-2.44 1.398-5.193-2.493-8.468-7.687-6.467-22.942-2.391-22.942 6.13 0 3.606 2.017 4.266 13.045 4.266 9.243 0 10.875-.254 12.39-1.928zm101.03 58.395c12.738-3.318 22.12-11.148 27.85-23.244 2.954-6.235 3.185-7.488 3.185-17.275 0-10.185-.13-10.816-3.766-18.171-14.58-29.503-55.926-31.722-73.598-3.95-4.568 7.18-6.455 15.05-5.893 24.582.647 10.955 3.569 18.194 10.262 25.423 11.097 11.986 26.567 16.644 41.96 12.635zm-24.545-6.764c-14.778-6.202-22.463-17.97-22.358-34.242.044-6.833.517-9.033 3.15-14.659 3.69-7.885 9.4-13.728 17.128-17.523 5.098-2.503 6.703-2.779 16.16-2.779 9.444 0 11.066.278 16.126 2.764 22.219 10.916 27.254 41.356 9.738 58.872-6.574 6.574-13.61 9.299-24.864 9.63-8.106.238-10.32-.065-15.08-2.063zm28.11-7.953c7.561-3.82 11.534-13.043 7.398-17.179-2.307-2.307-3.489-2.002-10.015 2.583-8.498 5.97-11.413 8.908-11.413 11.501 0 2.456 3.949 5.234 7.538 5.305 1.12.022 4.042-.973 6.492-2.21zm-17.253-.307c4.407-3.086 2.47-6.098-9.19-14.289-3.252-2.285-6.592-4.154-7.421-4.154-2.378 0-5.166 3.08-5.166 5.705 0 9.508 14.38 17.92 21.777 12.738zm9.982-13.438c9.743-5.94 9.318-19.18-.78-24.253-6.709-3.371-13.843-1.201-18.044 5.489-4.077 6.493-.663 16.79 6.565 19.8 3.52 1.465 8.903 1.01 12.259-1.036zm-12.76-6.005c-3.057-3.058-2.726-9.283.636-11.927 5.606-4.41 13.365-.807 13.365 6.207 0 6.767-9.196 10.524-14 5.72zm-14.187-1.029c1.04-1.116 3.15-6.134 4.689-11.151 3.156-10.291 2.798-12.123-2.472-12.642-5.986-.59-12.03 7.38-12.03 15.867 0 3.208.642 4.75 2.924 7.032 3.464 3.464 4.384 3.583 6.89.894zm46.264-.554c7.307-7.785-2.456-26.754-11.621-22.578-3.13 1.426-3.111 3.526.123 13.654 3.766 11.795 6.68 14.057 11.498 8.924zm-14.648-21.988c.865-.865 1.572-2.26 1.572-3.1 0-2.674-6.395-8.125-10.418-8.88-7.465-1.4-16.582 3.523-16.582 8.956 0 3.714 2.447 4.531 13.678 4.565 7.95.023 10.523-.314 11.75-1.541zm-60.448 2.13c5.187-15.588 16.879-27.31 32.991-33.08 3.065-1.098 3.266-1.357 1.529-1.97-17.43-6.154-31.008-20.093-35.564-36.509l-1.249-4.5-.862 3.915c-3.398 15.425-17.376 30.342-34.301 36.606l-2.976 1.101 5.81 2.361c7.717 3.137 13.01 6.74 18.852 12.833 5.079 5.297 11.281 16.457 12.369 22.254.354 1.887.782 3.43.95 3.43.17 0 1.272-2.898 2.451-6.44zm-42.33-43.954c20.798-5.538 33.888-25.499 30.61-46.678-2.864-18.503-16.475-31.98-35.375-35.023-17.74-2.857-36.147 6.726-44.152 22.986-3.077 6.251-3.233 7.124-3.233 18.089 0 10.868.18 11.9 3.174 18.222 8.588 18.126 29.357 27.628 48.976 22.404zm-17.919-4.614c-10.865-1.893-20.831-9.386-25.736-19.35-8.153-16.561-2.883-36.94 12.05-46.591 18.985-12.271 44.402-5.34 54.028 14.734 3.088 6.44 3.84 19.949 1.503 26.987-5.626 16.937-23.677 27.385-41.845 24.22zm22.844-11.037c6.525-4.033 9.695-12.825 5.792-16.064-1.48-1.228-1.418-1.406.66-1.896 7.869-1.858 8.371-15.752.818-22.63-5.012-4.563-10.845-3.759-10.845 1.496 0 2.72 3.912 15.373 5.79 18.73.77 1.376-.259 2.493-5.675 6.159-3.638 2.463-8.027 5.816-9.752 7.451-2.175 2.062-3.362 2.61-3.87 1.79-1.236-2.001-16.753-12.99-18.342-12.99-2.466 0-5.151 3.131-5.151 6.007 0 3.466 3.618 8.82 7.922 11.72 4.384 2.954 11.252 3.099 14.055.296 1.97-1.97 1.987-1.968 4.576.621 2.172 2.172 3.239 2.513 6.495 2.076 2.142-.287 5.53-1.532 7.527-2.766zm-10.26-12.079c9.31-4.794 11.25-15.242 4.152-22.342-6.083-6.083-14.53-5.643-20.417 1.063-5.314 6.052-3.7 16.207 3.248 20.444 3.556 2.168 9.668 2.56 13.018.835zm-11.315-6.875c-2.02-2.02-2.755-8.324-1.235-10.6 2.587-3.875 9.35-4.375 12.78-.945 5.13 5.13 1.64 13.545-5.618 13.545-2.594 0-4.606-.679-5.927-2zm-14.646-.838c1.417-1.567 7.646-18.086 7.646-20.278 0-1.68-3.321-3.883-5.822-3.862-9.78.081-15.224 18.585-7.265 24.696 2.218 1.703 3.516 1.57 5.44-.556zm32.074-22.733c2.342-2.342 1.93-4.271-1.678-7.874-3.867-3.86-9.047-5.09-14.85-3.528-7.068 1.903-11.22 8.253-7.7 11.773 1.931 1.932 22.237 1.62 24.228-.371zm108.004 55.75c22.729-10.637 31.13-36.84 18.972-59.177-8.167-15.006-27.429-23.35-45.263-19.608-13.163 2.761-22.901 10.295-28.839 22.309-11.844 23.964 1.429 52.747 27.322 59.25 2.132.535 7.78.823 12.55.64 7.164-.275 9.82-.87 15.258-3.415zm-25.432-2.57c-14.334-3.187-23.952-12.452-27.565-26.554-3.275-12.785.708-26.307 10.41-35.337 7.895-7.349 12.7-9.138 24.655-9.181 8.951-.033 10.654.265 16.234 2.843 31.878 14.723 25.51 62.112-9.208 68.53-6.974 1.29-7.415 1.28-14.526-.3zm21.616-9.522c7.843-3.562 11.909-12.64 7.729-17.258-1.55-1.713-1.53-1.829.326-1.829 1.089 0 3.071-1.162 4.405-2.583 3.406-3.628 3.345-11.718-.127-16.79-3.43-5.012-8.025-7.37-11.382-5.84-1.585.723-2.567 1.984-2.567 3.297 0 2.42 4.554 17.695 5.907 19.812.661 1.036-.438 2.3-4.258 4.89-10.688 7.251-13.782 10.253-13.455 13.053.322 2.75 3.725 5.137 7.306 5.124 1.1-.004 3.852-.848 6.116-1.876zm-16.839-.644c4.407-3.086 2.47-6.098-9.19-14.289-6.721-4.722-8.819-5.09-11.03-1.931-2.155 3.075-1.949 5.9.717 9.855 4.828 7.165 14.06 10.178 19.503 6.365zm11.826-14.526c5.779-5.399 6.97-12.266 3.127-18.02-8.009-11.988-25.714-6.493-25.726 7.985-.003 3.86.53 4.915 4.489 8.874 4.423 4.423 4.578 4.486 10.007 4.036 4.031-.335 6.212-1.108 8.103-2.875zm-14.603-4.917c-1.321-1.321-2-3.333-2-5.927 0-7.258 8.415-10.749 13.545-5.618 3.094 3.093 3.283 8.278.416 11.356-2.706 2.905-9.143 3.007-11.961.189zm-15 0c2.692-1.44 8.84-20.44 7.373-22.784-1.806-2.885-6.667-2.681-10.37.434-6.636 5.584-8.115 15.392-3.08 20.427 3.268 3.268 3.454 3.327 6.078 1.923zm33.02-24.038c1.45-2.709.493-5.352-3.002-8.293-3.61-3.038-8.849-4.061-13.87-2.709-6.906 1.86-11.333 8.455-7.948 11.84.791.791 5.036 1.2 12.465 1.2 10.31 0 11.357-.173 12.355-2.038zm40.306-33.902c15.045-5.176 25.7-18.057 27.468-33.207 2.272-19.461-5.934-35.365-22.462-43.533-6.536-3.23-8.648-3.767-16.27-4.131-10.245-.49-17.986 1.334-25.236 5.947-22.101 14.064-26.073 44.788-8.253 63.84 5.484 5.862 9.343 8.423 16.65 11.053 7.288 2.623 20.528 2.637 28.103.03zm-27.598-5.433c-11.508-4.827-19.26-13.731-22.306-25.624-4.173-16.29 4.407-33.861 20.36-41.695 5.109-2.509 6.783-2.808 15.718-2.808 8.889 0 10.623.306 15.61 2.755 6.688 3.285 15.197 11.925 18.013 18.292 8.076 18.256.29 39.21-17.884 48.135-4.785 2.35-7.235 2.863-14.74 3.092-7.655.232-9.861-.089-14.77-2.147zm28.054-8.764c5.16-2.497 8.209-6.92 8.214-11.913.004-3.818-1.43-5.95-4.003-5.95-2.15 0-15.688 9.604-17.556 12.456-1.77 2.7-1.12 4.904 1.871 6.35 3.41 1.648 6.677 1.38 11.474-.943zm-17.378-.169c3.319-2.427 1.58-5.794-5.904-11.431-10.412-7.842-14.688-8.158-15.298-1.13-.373 4.307 2.96 9.453 7.782 12.015 4.049 2.152 10.846 2.428 13.42.546zm9.69-13.243c6.5-3.361 8.87-12.716 4.88-19.261-3.723-6.107-12.983-8.007-19.062-3.91-4.68 3.153-6.067 6.234-5.622 12.478.391 5.476 2.988 9.542 7.21 11.288 3.269 1.352 9.388 1.063 12.594-.595zm-12.64-5.906c-3.614-3.614-3.354-8.61.623-11.956 4.031-3.393 7.375-3.291 11 .334s3.727 6.968.334 11c-3.346 3.976-8.343 4.236-11.957.622zm-14.222-1.295c1.907-2.164 7.05-18.533 6.589-20.97-.417-2.198-6.166-2.969-9.367-1.256-6.253 3.347-8.749 16.773-4 21.521 2.904 2.904 4.678 3.088 6.778.705zm46.363-.357c2.786-3.082 2.578-12.258-.385-17.053-3.996-6.465-13.227-7.914-13.195-2.071.018 3.372 4.455 17.887 6.057 19.817 1.711 2.063 5.333 1.729 7.523-.693zm-14.546-22.453c3.106-3.741-2.599-10.168-9.894-11.146-4.925-.66-12.665 1.922-14.167 4.727-1.38 2.581-1.233 6.714.262 7.317.687.277 6.032.54 11.877.583 8.477.063 10.89-.237 11.922-1.48zm-88.936 12.555c12.834-2.395 24.395-11.189 30.192-22.963 3.033-6.16 3.195-7.075 3.195-18.011 0-10.868-.18-11.9-3.175-18.222-10.438-22.033-37.29-30.196-59.524-18.094-23.173 12.612-27.52 47.043-8.308 65.795 10.138 9.896 23.808 14.073 37.62 11.495zm-17.089-5.598c-10.93-2.937-19.906-10.605-24.842-21.222-2.203-4.738-2.637-7.078-2.63-14.175.008-7.166.447-9.458 2.8-14.605 3.528-7.717 11.24-15.408 19.148-19.097 5.176-2.414 7.238-2.798 15.021-2.798 8.175 0 9.647.308 15.685 3.28 7.487 3.687 14.168 10.378 17.912 17.94 2.032 4.106 2.367 6.261 2.374 15.28.008 10.068-.133 10.76-3.42 16.82-5.34 9.851-14.25 16.597-25.28 19.141-5.8 1.338-10.247 1.188-16.768-.564zm6.681-10.567c3.12-2.59 1.042-6.05-7.205-12.002-8.033-5.797-11.073-6.855-13.3-4.628-2.67 2.669-.738 10.194 3.631 14.147 4.638 4.197 13.277 5.468 16.874 2.483zm16.95.53c5.018-2.382 8.345-7.198 8.345-12.082 0-5.153-1.992-7.058-5.643-5.395-4.248 1.936-15.32 10.178-16.411 12.218-1.116 2.084.083 5.343 2.292 6.233 2.647 1.066 8.096.601 11.417-.975zm-6.27-14.448c8.328-6.551 7.162-19.013-2.166-23.14-6.912-3.057-13.728-1.265-17.269 4.542-3.805 6.24-1.85 16.048 3.812 19.12 4.19 2.274 12.418 1.999 15.623-.522zm-13.93-5.367c-3.346-3.345-3.314-8.39.072-11.57 7.862-7.386 19.34 3.48 12.02 11.379-3.286 3.546-8.653 3.63-12.093.191zm-10.538-10.419c3.773-11.457 3.553-13.406-1.571-13.925-5.926-.6-11.346 6.486-11.346 14.833 0 6.665 2.535 10.188 7 9.725 2.232-.231 2.866-1.37 5.917-10.633zm42.317 9.124c6.829-7.742-1.406-25.002-10.804-22.643-3.216.807-3.226 4.741-.035 13.968 3.642 10.533 3.574 10.425 6.557 10.425 1.506 0 3.433-.788 4.282-1.75zm-13.668-23.657c1.578-6.29-4.77-10.082-16.24-9.699-4.319.144-9.326 4.454-9.326 8.028 0 1.51.3 3.045.667 3.411.366.367 5.983.667 12.48.667 11.646 0 11.823-.034 12.419-2.407zm-82.493 16.645c25.124-12.124 31.433-45.816 12.39-66.173-9.011-9.635-19.231-13.56-33.525-12.876-7.623.364-9.734.9-16.27 4.13-8.68 4.29-15.062 10.71-19.373 19.489-2.589 5.272-2.795 6.578-2.795 17.692 0 10.876.247 12.527 2.635 17.62 4.783 10.2 14.155 18.537 24.774 22.038 4.273 1.409 7.947 1.774 15.59 1.548 8.848-.261 10.759-.66 16.574-3.468zm-31.295-3.177c-19.1-7.467-28.79-28.59-21.749-47.41 2.821-7.54 11.226-16.647 18.793-20.363 5.064-2.486 6.76-2.788 15.678-2.788 8.748 0 10.713.334 15.696 2.67 15.647 7.334 24.542 25.592 20.382 41.833-3.093 12.073-11.603 21.618-23.114 25.924-7.198 2.693-18.981 2.755-25.686.134zm26.8-8.957c6.957-3.16 10.62-9.82 8.488-15.43-1.572-4.135-4.769-3.365-13.952 3.362-7.185 5.263-8.2 6.38-7.927 8.727.329 2.828 3.683 5.213 7.313 5.2 1.1-.004 3.835-.84 6.078-1.86zm-17.512-.14c1.934-1.034 2.553-4.504 1.169-6.55-.405-.597-3.948-3.41-7.875-6.25-7.647-5.53-11.583-6.485-13.325-3.23-4.75 8.875 10.539 21.11 20.03 16.03zm13.599-16.295c2.812-3.069 3.333-4.387 3.32-8.404-.018-5.934-1.557-9.06-5.898-11.985-8.901-5.999-21.073.363-21.083 11.02-.01 8.681 5.985 14.072 14.91 13.41 4.706-.35 5.852-.878 8.75-4.041zm-15.742-3.592c-1.762-1.762-2.923-3.977-2.923-5.577 0-3.674 4.989-8.5 8.787-8.5 7.087 0 10.836 9.468 5.758 14.545-3.44 3.441-7.892 3.262-11.622-.468zm-15.559.337c1.827-.702 7.921-18.378 7.459-21.636-.258-1.82-1.049-2.339-3.935-2.58-7.172-.6-12.66 7.264-11.604 16.631.671 5.955 4.054 9.13 8.08 7.585zm47.1-1.373c4.803-5.309 1.889-18.474-4.796-21.662-4.825-2.301-8.668-1.243-8.668 2.387 0 3.015 4.694 18.01 6.256 19.984 1.482 1.873 5.201 1.507 7.207-.71zm-15.046-21.648c1.777-.682 2.09-4.574.593-7.372-.543-1.016-3.015-2.62-5.492-3.567-7.892-3.014-16.761-.28-18.941 5.838-1.686 4.734.356 5.708 11.962 5.708 5.663 0 11.008-.273 11.878-.607z" fill="#8c909e"/><path d="M59.673 444.406c-15.067-2.725-28.218-9.742-39.253-20.947-8.224-8.35-13.505-16.9-17.276-27.973l-2.724-8-.28-161C-.176 45.263-.636 57.074 7.396 40.442 12.61 29.645 21.704 19.259 31.728 12.65 40.293 7.004 46.452 4.33 56.42 1.928 64.08.082 69.29 0 179.42 0s115.339.082 123 1.928c9.968 2.402 16.127 5.076 24.691 10.722 10.025 6.609 19.118 16.995 24.332 27.792 8.033 16.632 7.572 4.82 7.257 186.044l-.28 161-2.725 8c-8.95 26.283-32.032 45.51-59.377 49.463-4.282.62-49.002.97-117.898.927-90.583-.057-112.425-.327-118.747-1.47zm247.247-6.261c23.497-8.465 38.873-24.29 44.968-46.287 2.004-7.23 2.032-9.56 2.032-168.892 0-180.065.544-166.201-7.14-181.893-3.174-6.483-5.867-10.154-11.74-16-11.573-11.522-23.952-17.77-39.722-20.05C286 3.676 72.84 3.676 63.522 5.023 47.806 7.294 35.51 13.493 23.85 25.02c-5.922 5.855-8.544 9.42-11.766 16C4.371 56.773 4.92 42.847 4.92 222.966c0 159.233.029 161.666 2.028 168.879 6.12 22.085 22.683 39.029 44.972 46.006 3.575 1.119 7.625 2.226 9 2.46 1.375.235 55.825.37 121 .3l118.5-.125 6.5-2.341zm-192.638-26.586c-18.22-4.16-32.504-17.588-37.767-35.505-2.268-7.72-2.087-21.264.39-29.285 4.805-15.558 17.188-27.96 32.714-32.763l5.604-1.734-6.279-2.12c-20.92-7.065-34.024-25.645-34.024-48.242 0-22.724 13.58-41.354 35-48.018 7.652-2.38 20.146-2.78 28.123-.898 11.94 2.815 24.14 11.494 30.844 21.94 3.389 5.282 7.033 15.061 7.033 18.875 0 3.643.826 2.264 2.504-4.179 5.974-22.935 24.952-37.727 48.496-37.798l8.5-.025-5.812-5.938c-9.847-10.06-16.052-27.305-14.22-39.522l.66-4.4-6.272 4.054c-6.327 4.089-15.545 7.348-23.884 8.445-12.547 1.65-29.579-4.192-39.46-13.536-10.05-9.506-14.958-19.845-16.139-33.999l-.654-7.84-4.079 3.491c-8.57 7.335-20.379 11.393-33.209 11.412-17.439.026-32.994-8.093-42.35-22.105-5.689-8.519-8.081-16.92-8.081-28.383 0-11.44 2.301-19.483 8.107-28.33 13.89-21.165 42.92-28.28 66.867-16.388 8.283 4.113 17.314 13.503 21.483 22.337 3.517 7.45 6.111 19.557 5.33 24.873l-.403 2.75 5.058-4.026c9.185-7.311 21.81-11.716 33.582-11.716 6.462 0 19.396 3.472 24.89 6.681 6.928 4.047 15.486 12.712 18.872 19.108 4.462 8.429 6.214 15.482 6.214 25.014v8.44l2.25-1.621c29.427-21.215 70.467-8.903 80.773 24.233 2.707 8.703 2.693 22.617-.032 31.44-6.44 20.851-25.648 34.659-48.263 34.693l-7.772.012 5.435 5.435c24.113 24.113 17.09 66.39-13.462 81.032-4.055 1.943-8.098 3.533-8.984 3.533-3.904 0-2.408 1.458 3.554 3.465 34.576 11.635 44.79 57.423 18.64 83.55-28.217 28.193-77.114 14-86.183-25.015l-1.278-5.5-1.245 6.098c-4.43 21.693-23.746 37.734-46.906 38.953-4.848.255-10.458-.132-14.165-.978zm28.817-11.269c16.699-7.832 25.582-22.59 24.62-40.901-1.112-21.197-17.757-37.81-39.22-39.15-18.573-1.158-33.595 7.957-41.81 25.372-2.904 6.154-3.245 7.82-3.257 15.875-.009 6.17.563 10.65 1.818 14.248 3.96 11.361 14.964 22.173 26.884 26.417 4.089 1.455 7.437 1.813 14.786 1.577 8.186-.263 10.424-.738 16.18-3.438zm-29.335-3.698c-19.233-6.87-28.95-25.998-22.98-45.233 5.284-17.025 18.958-26.188 37.544-25.16 9.955.551 18.007 4.26 24.468 11.268 6.99 7.584 8.624 12.229 8.624 24.519 0 9.47-.274 11.058-2.794 16.19-3.598 7.325-11.924 15-19.247 17.74-6.478 2.423-19.744 2.774-25.615.676zm25.877-8.713c7.65-3.703 11.638-12.63 7.624-17.064-1.551-1.714-1.53-1.829.345-1.829 4.557 0 7.984-7.784 6.254-14.208-1.222-4.538-6.242-10.578-9.462-11.386-3.479-.873-6.482 1.191-6.482 4.454 0 2.725 3.913 15.376 5.798 18.744.783 1.399-.332 2.559-6.404 6.66-4.044 2.733-8.46 5.994-9.812 7.248-2.457 2.276-2.463 2.277-4.271.277-3.032-3.353-15.58-11.789-17.535-11.789-1.758 0-1.753-.118.099-2.75 1.064-1.513 3.132-6.438 4.594-10.946 3.1-9.552 2.531-12.304-2.54-12.304-6.526 0-11.93 7.062-11.93 15.592 0 4.02.477 5.12 3.406 7.884 2.424 2.285 3.15 3.617 2.516 4.618-2.573 4.063.71 11.393 7 15.632 4.506 3.036 11.25 3.102 14.214.14 1.96-1.961 2.212-1.997 3.085-.437 2.142 3.828 7.432 4.402 13.5 1.464zm-7.76-13.373c11.787-6.095 9.44-23.666-3.484-26.09-5.07-.951-8.368.225-12.66 4.517-3.351 3.352-3.817 4.397-3.817 8.567 0 10.856 10.672 17.81 19.961 13.006zm-11.961-6.52c-2.818-2.818-2.716-9.255.188-11.961 4.954-4.615 13.812-.792 13.812 5.961 0 6.745-9.278 10.722-14 6zm17.435-23.928c2.209-2.44 1.398-5.193-2.493-8.468-7.687-6.467-22.942-2.391-22.942 6.13 0 3.606 2.017 4.266 13.045 4.266 9.243 0 10.875-.254 12.39-1.928zm103.764 58.031c7.424-2.554 12.359-5.822 18.12-12 19.051-20.424 12.585-53.145-13-65.79-6.509-3.217-8.641-3.76-16.159-4.112-7.004-.33-9.887.008-15.077 1.763-30.002 10.145-39.382 45.922-17.974 68.558 6.006 6.35 9.716 8.845 17.114 11.507 7.165 2.578 19.599 2.613 26.976.074zm-27.279-6.4c-14.778-6.202-22.463-17.97-22.358-34.242.044-6.833.517-9.033 3.15-14.659 3.69-7.885 9.4-13.728 17.128-17.523 5.098-2.503 6.703-2.779 16.16-2.779 9.444 0 11.066.278 16.126 2.764 22.219 10.916 27.254 41.356 9.738 58.872-6.574 6.574-13.61 9.299-24.864 9.63-8.106.238-10.32-.065-15.08-2.063zm28.11-7.953c7.561-3.82 11.534-13.043 7.398-17.179-2.307-2.307-3.489-2.002-10.015 2.583-8.498 5.97-11.413 8.908-11.413 11.501 0 2.456 3.949 5.234 7.538 5.305 1.12.022 4.042-.973 6.492-2.21zm-17.253-.307c4.407-3.086 2.47-6.098-9.19-14.289-3.252-2.285-6.592-4.154-7.421-4.154-2.378 0-5.166 3.08-5.166 5.705 0 9.508 14.38 17.92 21.777 12.738zm9.982-13.438c9.743-5.94 9.318-19.18-.78-24.253-6.709-3.371-13.843-1.201-18.044 5.489-4.077 6.493-.663 16.79 6.565 19.8 3.52 1.465 8.903 1.01 12.259-1.036zm-12.76-6.005c-3.057-3.058-2.726-9.283.636-11.927 5.606-4.41 13.365-.807 13.365 6.207 0 6.767-9.196 10.524-14 5.72zm-14.187-1.029c1.04-1.116 3.15-6.134 4.689-11.151 3.156-10.291 2.798-12.123-2.472-12.642-5.986-.59-12.03 7.38-12.03 15.867 0 3.208.642 4.75 2.924 7.032 3.464 3.464 4.384 3.583 6.89.894zm46.264-.554c7.307-7.785-2.456-26.754-11.621-22.578-3.13 1.426-3.111 3.526.123 13.654 3.766 11.795 6.68 14.057 11.498 8.924zm-14.648-21.988c.865-.865 1.572-2.26 1.572-3.1 0-2.674-6.395-8.125-10.418-8.88-7.465-1.4-16.582 3.523-16.582 8.956 0 3.714 2.447 4.531 13.678 4.565 7.95.023 10.523-.314 11.75-1.541zm-60.979 5.071c.99-5.606 5.866-15.162 10.503-20.584 5.315-6.216 13.713-11.815 21.806-14.538 3.693-1.243 6.045-2.462 5.228-2.709-6.452-1.95-12.245-4.463-16.492-7.156-10.241-6.497-19.03-19.244-21.572-31.294l-1.207-5.719-1.264 6.098c-3.774 18.215-17.34 32.013-37.424 38.066-.81.245 1.488 1.479 5.106 2.743 10.783 3.768 21.094 12.005 26.434 21.118 2.975 5.076 6.422 14.88 6.463 18.382.042 3.535 1.48.915 2.42-4.407zm-35.257-48.85c16.353-7.873 25.556-23.223 24.615-41.059-1.918-36.367-47.033-53.003-72.196-26.622-6.704 7.028-10.257 13.93-11.798 22.915-3.463 20.193 9.082 39.955 29.687 46.768 2.549.843 7.628 1.217 14 1.03 8.484-.248 10.863-.707 15.692-3.032zm-24.46-2.659c-10.866-1.893-20.832-9.386-25.737-19.35-8.153-16.561-2.883-36.94 12.05-46.591 18.985-12.271 44.402-5.34 54.028 14.734 3.088 6.44 3.84 19.949 1.503 26.987-5.626 16.937-23.677 27.385-41.845 24.22zm22.843-11.037c6.525-4.033 9.695-12.825 5.792-16.064-1.48-1.228-1.418-1.406.66-1.896 7.869-1.858 8.371-15.752.818-22.63-5.012-4.563-10.845-3.759-10.845 1.496 0 2.72 3.912 15.373 5.79 18.73.77 1.376-.259 2.493-5.675 6.159-3.638 2.463-8.027 5.816-9.752 7.451-2.175 2.062-3.362 2.61-3.87 1.79-1.236-2.001-16.753-12.99-18.342-12.99-2.466 0-5.151 3.131-5.151 6.007 0 3.466 3.618 8.82 7.922 11.72 4.384 2.954 11.252 3.099 14.055.296 1.97-1.97 1.987-1.968 4.576.621 2.172 2.172 3.239 2.513 6.495 2.076 2.142-.287 5.53-1.532 7.527-2.766zm-10.26-12.079c9.31-4.794 11.25-15.242 4.152-22.342-6.083-6.083-14.53-5.643-20.417 1.063-5.314 6.052-3.7 16.207 3.248 20.444 3.556 2.168 9.668 2.56 13.018.835zm-11.315-6.875c-2.02-2.02-2.755-8.324-1.235-10.6 2.587-3.875 9.35-4.375 12.78-.945 5.13 5.13 1.64 13.545-5.618 13.545-2.594 0-4.606-.679-5.927-2zm-14.646-.838c1.417-1.567 7.646-18.086 7.646-20.278 0-1.68-3.321-3.883-5.822-3.862-9.78.081-15.224 18.585-7.265 24.696 2.218 1.703 3.516 1.57 5.44-.556zm32.074-22.733c2.342-2.342 1.93-4.271-1.678-7.874-3.867-3.86-9.047-5.09-14.85-3.528-7.068 1.903-11.22 8.253-7.7 11.773 1.931 1.932 22.237 1.62 24.228-.371zm108.705 55.826c7.925-3.901 16.926-12.953 20.36-20.474 9.564-20.945.725-45.139-20.283-55.522-7.34-3.627-7.976-3.759-18.158-3.759-9.798 0-11.035.229-17.31 3.201-17.517 8.298-27.96 26.923-24.884 44.382 2.123 12.053 8.351 22.063 17.762 28.544 8.568 5.901 14.257 7.464 25.938 7.127 8.98-.26 10.756-.634 16.575-3.499zm-26.133-2.646c-14.334-3.187-23.952-12.452-27.565-26.554-3.275-12.785.708-26.307 10.41-35.337 7.895-7.349 12.7-9.138 24.655-9.181 8.951-.033 10.654.265 16.234 2.843 31.878 14.723 25.51 62.112-9.208 68.53-6.974 1.29-7.415 1.28-14.526-.3zm21.616-9.522c7.843-3.562 11.909-12.64 7.729-17.258-1.55-1.713-1.53-1.829.326-1.829 1.089 0 3.071-1.162 4.405-2.583 3.406-3.628 3.345-11.718-.127-16.79-3.43-5.012-8.025-7.37-11.382-5.84-1.585.723-2.567 1.984-2.567 3.297 0 2.42 4.554 17.695 5.907 19.812.661 1.036-.438 2.3-4.258 4.89-10.688 7.251-13.782 10.253-13.455 13.053.322 2.75 3.725 5.137 7.306 5.124 1.1-.004 3.852-.848 6.116-1.876zm-16.839-.644c4.407-3.086 2.47-6.098-9.19-14.289-6.721-4.722-8.819-5.09-11.03-1.931-2.155 3.075-1.949 5.9.717 9.855 4.828 7.165 14.06 10.178 19.503 6.365zm11.826-14.526c5.779-5.399 6.97-12.266 3.127-18.02-8.009-11.988-25.714-6.493-25.726 7.985-.003 3.86.53 4.915 4.489 8.874 4.423 4.423 4.578 4.486 10.007 4.036 4.031-.335 6.212-1.108 8.103-2.875zm-14.603-4.917c-1.321-1.321-2-3.333-2-5.927 0-7.258 8.415-10.749 13.545-5.618 3.094 3.093 3.283 8.278.416 11.356-2.706 2.905-9.143 3.007-11.961.189zm-15 0c2.692-1.44 8.84-20.44 7.373-22.784-1.806-2.885-6.667-2.681-10.37.434-6.636 5.584-8.115 15.392-3.08 20.427 3.268 3.268 3.454 3.327 6.078 1.923zm33.02-24.038c1.45-2.709.493-5.352-3.002-8.293-3.61-3.038-8.849-4.061-13.87-2.709-6.906 1.86-11.333 8.455-7.948 11.84.791.791 5.036 1.2 12.465 1.2 10.31 0 11.357-.173 12.355-2.038zm36.445-32.495c12.765-3.325 23.019-11.934 28.833-24.208 2.942-6.21 3.202-7.576 3.202-16.81 0-9.605-.168-10.391-3.76-17.659-13.037-26.38-46.152-32.646-67.22-12.72-9.135 8.64-13.52 18.533-13.52 30.506 0 6.794 2.834 17.215 5.955 21.902 10.55 15.84 29.266 23.48 46.51 18.99zm-21.965-6.466c-16.199-5.416-25.317-19.325-24.29-37.055.794-13.738 7.996-24.31 20.631-30.286 5.942-2.811 7.627-3.149 15.659-3.14 7.73.01 9.846.404 15 2.798 14.47 6.72 22.422 20.312 21.215 36.262-1.018 13.46-8.273 23.978-20.48 29.69-8.658 4.052-18.883 4.69-27.735 1.73zm9.559-9.845c1.52-1.857 1.615-1.842 3.784.593 1.949 2.187 2.84 2.44 7.15 2.026 5.582-.537 11.1-4.122 13.508-8.777 1.783-3.448 1.937-7.16.361-8.735-.85-.85-.218-2.005 2.5-4.569 3.22-3.036 3.637-3.99 3.634-8.312-.006-8.05-5.505-15.316-11.624-15.36-5.54-.04-6.036 1.907-3.002 11.767 1.474 4.791 3.582 9.948 4.685 11.461 1.925 2.641 1.93 2.75.132 2.75-2.019 0-14.496 8.404-17.545 11.817l-1.858 2.08-2.345-2.787c-1.289-1.532-5.683-5.041-9.765-7.799-5.852-3.953-7.235-5.345-6.541-6.584 1.798-3.213 5.853-16.321 5.86-18.942.008-3.18-3.03-5.243-6.454-4.384-5.838 1.465-11.374 11.394-9.994 17.925.83 3.925 4.144 7.674 6.784 7.674 1.856 0 1.876.116.326 1.829-4.043 4.467-.335 13.029 7.353 16.979 5.193 2.668 10.553 2.4 13.05-.652zm9.879-13.045c4.463-3.175 6.385-6.708 6.31-11.601-.122-8.116-5.888-13.5-14.463-13.506-3.834-.003-5.365.566-8.19 3.046-6.659 5.847-6.978 14.335-.763 20.289 5.021 4.811 11.842 5.518 17.106 1.772zm-11.574-4.28c-2.292-1.11-4.364-4.787-4.364-7.743 0-1 .932-3.004 2.072-4.453 1.662-2.112 2.92-2.635 6.345-2.635 5.31 0 7.983 2.57 7.983 7.68 0 6.194-6.292 9.932-12.036 7.15zm14.07-23.806c3.668-1.395 3.478-5.777-.412-9.504-6.017-5.764-19.585-4.169-22.447 2.64-2.574 6.12-.144 7.68 12.11 7.776 4.501.035 9.339-.376 10.75-.912zm-82.773 10.138c7.491-2.358 11.618-4.93 17.942-11.181 20.46-20.225 14.13-54.847-12.288-67.217-8.701-4.075-21.841-5.05-30.462-2.264-11.576 3.743-20.81 11.965-26.189 23.32-2.927 6.18-3.164 7.465-3.164 17.179 0 9.744.23 10.988 3.208 17.274 5.366 11.327 15.563 20.032 27.292 23.295 6.736 1.874 16.971 1.699 23.66-.406zm-25.931-6.525c-15.722-6.624-23.436-18.974-22.538-36.084.557-10.615 3.743-17.466 11.355-24.423 7.952-7.268 14.38-9.43 26.453-8.903 7.214.315 10.635.961 14.216 2.688 7.448 3.589 13.339 9.434 16.997 16.866 3.028 6.15 3.285 7.425 3.259 16.197-.025 8.421-.361 10.207-2.912 15.459-3.678 7.575-10.12 14.009-17.364 17.344-8.406 3.87-21.414 4.248-29.466.856zm28.935-8.46c2.995-1.602 7.216-6.857 7.992-9.949.415-1.652.063-3.65-.954-5.423-1.291-2.25-1.34-2.806-.246-2.806.751 0 2.53-1.385 3.954-3.077 4.564-5.424 2.997-14.877-3.352-20.22-1.767-1.487-4.108-2.703-5.202-2.703-3.024 0-5.857 1.861-5.857 3.848 0 2.436 5.684 19.066 7.1 20.772.886 1.068.808 1.38-.343 1.38-2.29 0-18.202 12.261-18.59 14.324-.43 2.288 2.356 5.457 5.187 5.901 2.661.418 7.503-.543 10.311-2.046zm-18.888.265c4.336-3.037 2.954-5.928-5.954-12.453-10.796-7.908-14.823-7.86-14.823.175 0 9.044 13.774 17.183 20.777 12.278zm9.153-12.907c5.041-2.607 8.07-7.172 8.07-12.162 0-5.676-2.035-9.615-6.344-12.277-6.927-4.282-16.08-1.565-19.959 5.923-5.758 11.119 7.163 24.24 18.233 18.516zm-11.476-6.99c-5.153-5.154-1.435-13.546 6-13.546 4.762 0 7.55 2.87 7.53 7.75-.017 4.312-.632 5.502-3.668 7.1-3.489 1.836-7.214 1.343-9.862-1.305zm-13.387-1.671c2.081-3.89 5.933-16.187 5.933-18.943 0-2.943-1.504-3.932-5.978-3.932-5.618 0-11.904 10.484-10.565 17.621 1.238 6.602 8.076 9.988 10.61 5.254zm29.999-20.91c3.056-1.636 2.508-6.304-1.096-9.336-5.984-5.036-15.14-4.66-20.649.85-6.56 6.56-3.304 9.521 10.467 9.521 5.139 0 10.214-.466 11.278-1.035zm-90.865 17.926c8.116-1.698 16.19-6.486 22.733-13.48 8.2-8.766 10.495-14.87 10.495-27.911 0-13.106-2.283-19.133-10.63-28.056-16.676-17.826-42.084-18.955-59.882-2.66-17.536 16.055-18.403 42.19-1.977 59.56 10.397 10.992 24.757 15.582 39.26 12.547zM83.666 118.9c-12.178-2.87-22.154-12.125-25.841-23.972C52.13 76.63 60.172 58.314 77.42 50.304c5.154-2.394 7.269-2.788 15-2.797 8.03-.01 9.717.328 15.651 3.135 12.865 6.086 19.832 16.348 20.646 30.41.53 9.139-1.298 16.328-5.927 23.317-7.845 11.843-24.416 17.998-39.124 14.531zm6.375-10.835c1.604-1.96 1.647-1.955 4 .565 2.055 2.201 3.02 2.487 7.087 2.103 9.748-.922 17.455-10.901 13.757-17.813-.57-1.064-2.071-1.934-3.338-1.934-2.259 0-11.577 5.963-16.753 10.722l-2.625 2.413-2.645-2.451c-1.455-1.349-5.899-4.65-9.875-7.335l-7.23-4.883 2.157-5.483c1.186-3.016 2.855-7.864 3.709-10.775 1.478-5.04 1.459-5.384-.407-7.25-2.651-2.651-5.206-2.462-8.917.661-4.298 3.617-6.041 7.424-6.041 13.196 0 5.605 2.8 10.185 6.227 10.185 1.954 0 1.98.113.428 1.829-3.986 4.404-.095 13.22 7.542 17.09 5.057 2.56 10.428 2.211 12.924-.84zm6.047-11.109c4.304-1.195 9.357-6.531 10.315-10.892.957-4.36-1.038-9.48-5.079-13.028-2.938-2.58-4.292-3.05-8.772-3.05-4.543 0-5.834.464-9.046 3.25-9.417 8.167-4.539 22.462 8.414 24.654.275.047 2.15-.374 4.168-.934zm-6.703-5.922c-3.225-1.307-4.864-3.948-4.759-7.666.17-6.028 4.962-9.307 10.79-7.383 4.74 1.564 6.628 6.439 4.394 11.344-1.75 3.838-6.197 5.42-10.425 3.705zm29.984-4.278c.853-1.218 1.55-4.184 1.55-6.591 0-8.333-5.23-15.179-11.599-15.179-5.505 0-5.92 2.351-2.374 13.424 4.08 12.736 7.662 15.143 12.423 8.346zm-17.15-19.693c3.272-1.245 3.995-3.608 2.177-7.123-2.266-4.382-6.7-6.25-13.638-5.749-4.741.343-6.404.963-8.84 3.296-3.977 3.811-4.087 7.935-.248 9.337 3.52 1.285 17.372 1.446 20.548.239z" fill="#a55357"/><path d="M59.673 444.406c-15.067-2.725-28.218-9.742-39.253-20.947-8.224-8.35-13.505-16.9-17.276-27.973l-2.724-8-.28-161C-.176 45.263-.636 57.074 7.396 40.442 12.61 29.645 21.704 19.259 31.728 12.65 40.293 7.004 46.452 4.33 56.42 1.928 64.08.082 69.29 0 179.42 0s115.339.082 123 1.928c9.968 2.402 16.127 5.076 24.691 10.722 10.025 6.609 19.118 16.995 24.332 27.792 8.033 16.632 7.572 4.82 7.257 186.044l-.28 161-2.725 8c-8.95 26.283-32.032 45.51-59.377 49.463-4.282.62-49.002.97-117.898.927-90.583-.057-112.425-.327-118.747-1.47zm247.247-6.261c23.497-8.465 38.873-24.29 44.968-46.287 2.004-7.23 2.032-9.56 2.032-168.892 0-180.065.544-166.201-7.14-181.893-3.174-6.483-5.867-10.154-11.74-16-11.573-11.522-23.952-17.77-39.722-20.05C286 3.676 72.84 3.676 63.522 5.023 47.806 7.294 35.51 13.493 23.85 25.02c-5.922 5.855-8.544 9.42-11.766 16C4.371 56.773 4.92 42.847 4.92 222.966c0 159.233.029 161.666 2.028 168.879 6.12 22.085 22.683 39.029 44.972 46.006 3.575 1.119 7.625 2.226 9 2.46 1.375.235 55.825.37 121 .3l118.5-.125 6.5-2.341zm-192.638-26.586c-18.22-4.16-32.504-17.588-37.767-35.505-2.268-7.72-2.087-21.264.39-29.285 4.805-15.558 17.188-27.96 32.714-32.763l5.604-1.734-6.279-2.12c-20.92-7.065-34.024-25.645-34.024-48.242 0-22.724 13.58-41.354 35-48.018 7.652-2.38 20.146-2.78 28.123-.898 11.94 2.815 24.14 11.494 30.844 21.94 3.389 5.282 7.033 15.061 7.033 18.875 0 3.643.826 2.264 2.504-4.179 5.974-22.935 24.952-37.727 48.496-37.798l8.5-.025-5.812-5.938c-9.847-10.06-16.052-27.305-14.22-39.522l.66-4.4-6.272 4.054c-6.327 4.089-15.545 7.348-23.884 8.445-12.547 1.65-29.579-4.192-39.46-13.536-10.05-9.506-14.958-19.845-16.139-33.999l-.654-7.84-4.079 3.491c-8.57 7.335-20.379 11.393-33.209 11.412-17.439.026-32.994-8.093-42.35-22.105-5.689-8.519-8.081-16.92-8.081-28.383 0-11.44 2.301-19.483 8.107-28.33 13.89-21.165 42.92-28.28 66.867-16.388 8.283 4.113 17.314 13.503 21.483 22.337 3.517 7.45 6.111 19.557 5.33 24.873l-.403 2.75 5.058-4.026c9.185-7.311 21.81-11.716 33.582-11.716 6.462 0 19.396 3.472 24.89 6.681 6.928 4.047 15.486 12.712 18.872 19.108 4.462 8.429 6.214 15.482 6.214 25.014v8.44l2.25-1.621c29.427-21.215 70.467-8.903 80.773 24.233 2.707 8.703 2.693 22.617-.032 31.44-6.44 20.851-25.648 34.659-48.263 34.693l-7.772.012 5.435 5.435c24.113 24.113 17.09 66.39-13.462 81.032-4.055 1.943-8.098 3.533-8.984 3.533-3.904 0-2.408 1.458 3.554 3.465 34.576 11.635 44.79 57.423 18.64 83.55-28.217 28.193-77.114 14-86.183-25.015l-1.278-5.5-1.245 6.098c-4.43 21.693-23.746 37.734-46.906 38.953-4.848.255-10.458-.132-14.165-.978zm28.817-11.269c16.699-7.832 25.582-22.59 24.62-40.901-1.112-21.197-17.757-37.81-39.22-39.15-18.573-1.158-33.595 7.957-41.81 25.372-2.904 6.154-3.245 7.82-3.257 15.875-.009 6.17.563 10.65 1.818 14.248 3.96 11.361 14.964 22.173 26.884 26.417 4.089 1.455 7.437 1.813 14.786 1.577 8.186-.263 10.424-.738 16.18-3.438zm-30.96-4.381c-7.563-2.987-16.22-11.348-19.818-19.141-2.494-5.4-2.897-7.476-2.872-14.782.024-7.053.48-9.474 2.68-14.218 3.492-7.532 10.366-14.737 17.513-18.356 5.241-2.654 6.706-2.926 15.778-2.926 8.748 0 10.713.334 15.696 2.67 7.267 3.406 14.227 10.367 17.634 17.633 2.339 4.991 2.669 6.936 2.66 15.697-.01 8.982-.294 10.538-2.786 15.286-3.955 7.535-8.733 12.415-15.936 16.275-5.659 3.033-7.192 3.388-15.768 3.654-7.755.24-10.47-.09-14.781-1.792zm27.28-7.813c2.2-1.015 5.05-2.986 6.333-4.38 2.722-2.957 3.891-9.51 2.245-12.586-.912-1.704-.868-2.144.213-2.144.749 0 2.437-1.146 3.753-2.546 1.921-2.045 2.376-3.572 2.316-7.776-.136-9.343-6.099-16.334-13.05-15.298-2.289.34-3.055.12-2.71-.78.266-.69.017-2.478-.55-3.973-1.195-3.142-7.806-6.571-12.734-6.605-6.807-.047-13.315 4.367-13.315 9.03 0 4.52 1.763 5.1 14.429 4.76l11.575-.312-.002 2.72c-.002 3.18 4.51 17.487 6.131 19.44.826.995.798 1.34-.108 1.34-1.78 0-17.082 10.984-17.758 12.747-.477 1.242-.846 1.158-2.171-.499-2.802-3.503-15.788-12.247-18.236-12.278-2.048-.027-2.134-.163-.652-1.027.987-.575 3.057-5.277 4.898-11.124 3.561-11.313 3.294-13.111-2.028-13.638-6.82-.674-12.069 5.896-12.074 15.114-.003 4.823.408 6.208 2.45 8.25 1.35 1.35 3.015 2.455 3.7 2.455.969 0 .98.267.046 1.2-1.83 1.83-1.42 7.947.752 11.242 4.298 6.52 14.629 9.64 19.836 5.994 2.062-1.445 2.434-1.406 4.857.5 3.225 2.537 6.627 2.587 11.855.174zm-7.064-13.646c3.892-1.847 7.566-7.97 7.561-12.6-.008-6.826-6.993-13.853-13.778-13.86-8.379-.01-14.22 5.747-14.2 13.996.014 5.671 1.601 8.827 5.894 11.72 3.989 2.688 9.8 2.985 14.523.744zm-12.26-6.778c-1.405-1.495-2.175-3.595-2.175-5.928 0-8.358 11.775-10.543 14.99-2.782 3.352 8.092-6.87 15.038-12.816 8.71zm121.024 34.417c7.424-2.554 12.359-5.822 18.12-12 19.051-20.424 12.585-53.145-13-65.79-6.509-3.217-8.641-3.76-16.159-4.112-7.004-.33-9.887.008-15.077 1.763-30.002 10.145-39.382 45.922-17.974 68.558 6.006 6.35 9.716 8.845 17.114 11.507 7.165 2.578 19.599 2.613 26.976.074zm-24.875-5.486c-8.452-2.757-17.02-10.161-21.137-18.268-11.664-22.961 4.61-50.89 30.412-52.194 27.048-1.366 45.842 24.153 36.337 49.338-2.733 7.24-10.936 15.906-18.436 19.474-6.169 2.936-20.557 3.809-27.176 1.65zm23.827-7.642c2.132-.593 5.15-2.672 7.25-4.998 2.955-3.27 3.599-4.751 3.599-8.28 0-2.363-.483-4.78-1.073-5.37-.765-.765-.314-1.264 1.566-1.736 1.746-.438 3.124-1.823 4.073-4.094 1.905-4.56 1.778-8.143-.462-13.076-4.244-9.343-15.104-11.785-15.104-3.396 0 2.634 3.87 14.995 5.857 18.708.888 1.66.667 2.163-1.36 3.086-4.8 2.187-16.499 11.378-16.56 13.011-.048 1.248-.28 1.133-.923-.456-.995-2.465-16.036-13.374-18.44-13.374-1.435 0-1.458-.258-.2-2.25.782-1.238 2.691-6.206 4.243-11.04 3.232-10.07 2.798-12.027-2.772-12.509-4.17-.36-7.879 2.243-10.218 7.173-3.142 6.62-1.282 16.649 3.361 18.122 1.607.51 1.81 1.013 1.011 2.505-2.486 4.646.48 11.383 6.923 15.725 4.494 3.03 11.975 3.15 14.612.236 1.642-1.814 1.942-1.862 2.74-.436 1.76 3.145 6.129 4.045 11.877 2.449zM235.5 374.1c5.957-3.634 8.099-12.516 4.593-19.053-3.443-6.42-11.737-8.786-18.89-5.392-9.307 4.416-9.894 18.938-.985 24.37 4.137 2.523 11.21 2.557 15.282.074zm-13.126-6.57c-4.96-4.96-1.445-13.545 5.546-13.545 4.11 0 8 3.889 8 8 0 4.111-3.89 8-8 8-1.949 0-3.998-.907-5.546-2.455zm17.346-22.745c2.038-2.038 1.333-5.82-1.638-8.791-5.268-5.269-17.741-4.902-22.109.65-2.3 2.925-2.658 6.336-.853 8.141 1.65 1.65 22.95 1.65 24.6 0zm-61.35 4.7c.989-5.606 5.865-15.162 10.502-20.584 5.315-6.216 13.713-11.815 21.806-14.538 3.693-1.243 6.045-2.462 5.228-2.709-6.452-1.95-12.245-4.463-16.492-7.156-10.241-6.497-19.03-19.244-21.572-31.294l-1.207-5.719-1.264 6.098c-3.774 18.215-17.34 32.013-37.424 38.066-.81.245 1.488 1.479 5.106 2.743 10.783 3.768 21.094 12.005 26.434 21.118 2.975 5.076 6.422 14.88 6.463 18.382.042 3.535 1.48.915 2.42-4.407zm-35.258-48.85c16.353-7.873 25.556-23.223 24.615-41.059-1.918-36.367-47.033-53.003-72.196-26.622-6.704 7.028-10.257 13.93-11.798 22.915-3.463 20.193 9.082 39.955 29.687 46.768 2.549.843 7.628 1.217 14 1.03 8.484-.248 10.863-.707 15.692-3.032zm-23.322-2.657c-10.119-1.733-18.676-7.18-24.342-15.493-12.685-18.614-5.526-43.578 15.297-53.34 4.897-2.295 6.978-2.66 15.175-2.66 8.387 0 10.17.329 15.217 2.808 7.534 3.7 14.29 10.405 17.602 17.472 2.351 5.017 2.68 6.95 2.67 15.72-.01 8.902-.305 10.56-2.695 15.107-3.47 6.604-7.023 10.774-12.16 14.27-7.883 5.366-17.848 7.643-26.764 6.116zm19.723-9.604c5.445-2.584 9.407-7.787 9.407-12.352 0-2.142-.655-4.55-1.456-5.35-1.273-1.273-1.112-1.523 1.296-2.005 7.977-1.595 7.077-18.625-1.26-23.848-2.06-1.29-4.164-1.768-6.353-1.441-2.04.305-3.039.112-2.653-.513 1.06-1.716-1.73-6.91-4.465-8.307-6.706-3.424-14.291-2.973-19.18 1.14-1.901 1.6-2.93 3.408-2.93 5.152 0 2.504-.256 2.663-3.76 2.33-7.11-.679-12.24 5.95-12.24 15.818 0 4.058.494 5.57 2.455 7.532 1.35 1.35 2.941 2.455 3.536 2.455.758 0 .772.577.045 1.934-2.767 5.17.882 13.375 7.305 16.423 4.46 2.116 11.461 2.133 13.782.032 1.645-1.488 1.985-1.45 4.464.5 3.206 2.522 7.379 2.696 12.007.5zm-15.294-6.709c-1.25-2.061-14.424-11.673-16.825-12.276-2.135-.536-2.138-.576-.358-4.222.988-2.025 2.829-7.282 4.09-11.682l2.294-8H137.922l-.001 3.075c-.001 3.412 4.322 16.905 6.105 19.053.76.916.787 1.372.08 1.372-1.552 0-14.319 8.753-16.887 11.577-1.69 1.858-2.387 2.114-3 1.103zm9.226-7.696c8.31-5.136 8.31-18.114 0-23.56-6.272-4.11-15.89-2.152-19.64 3.996-2.375 3.896-2.52 12.228-.268 15.443 4.223 6.03 13.66 7.983 19.909 4.121zm-13.35-6.298c-3.172-3.376-2.952-8.93.46-11.613 3.65-2.872 6.991-2.6 10.442.85 3.607 3.607 3.77 7.32.468 10.622-3.248 3.248-8.392 3.312-11.37.14zm125.958 32.569c7.925-3.901 16.926-12.953 20.36-20.474 9.564-20.945.725-45.139-20.283-55.522-7.34-3.627-7.976-3.759-18.158-3.759-9.798 0-11.035.229-17.31 3.201-17.517 8.298-27.96 26.923-24.884 44.382 2.123 12.053 8.351 22.063 17.762 28.544 8.568 5.901 14.257 7.464 25.938 7.127 8.98-.26 10.756-.634 16.575-3.499zm-24.483-2.304c-10.496-1.76-21.557-9.942-26.442-19.559-9.034-17.785-1.576-39.67 16.56-48.599 6.146-3.025 7.464-3.293 16.21-3.293 8.215 0 10.277.36 15.022 2.625 8.41 4.015 13.459 9.001 17.603 17.388 3.279 6.633 3.657 8.216 3.636 15.196-.035 11.233-2.854 18.08-10.652 25.879-8.763 8.763-19.91 12.38-31.937 10.363zm19.648-9.302c1.778-.743 4.689-3.009 6.467-5.035 2.6-2.96 3.235-4.549 3.235-8.09 0-2.423-.507-4.72-1.127-5.102-.68-.42.088-1.207 1.938-1.985 7.993-3.36 5.762-19.981-3.265-24.321-4.058-1.952-7.943-.47-8.366 3.189-.31 2.677 4.2 18.067 5.946 20.288.545.694-.002 1.485-1.5 2.167-4.705 2.144-16.627 11.527-16.662 13.113-.026 1.189-.372 1.02-1.287-.627-1.51-2.719-15.857-13.246-18.052-13.246-1.36 0-1.328-.413.246-3.25 3.223-5.804 6.654-18.693 5.477-20.573-1.42-2.268-6.938-2.676-9.906-.731-7.37 4.83-8.733 20.642-2.04 23.691 2.101.958 2.295 1.433 1.394 3.411-2.305 5.058 1.873 12.735 8.888 16.332 3.578 1.835 10.755 1.398 12.72-.775 1.677-1.853 1.768-1.841 4.11.5 2.735 2.735 6.862 3.1 11.784 1.044zm-5.597-14.609c11.547-7.04 5.892-26.04-7.75-26.04-7.736 0-13.951 6.2-13.951 13.918 0 8.42 5.625 14.075 14 14.075 2.703 0 5.778-.78 7.701-1.953zm-13.629-6.675c-1.14-1.449-2.072-3.944-2.072-5.545 0-3.436 3.927-7.82 7.004-7.82 2.87 0 7.62 2.577 8.375 4.545 3.252 8.474-7.81 15.807-13.307 8.82zm17.728-22.565c3.543-3.543-.64-9.872-7.798-11.8-8.398-2.26-18.002 2.126-18.002 8.223 0 4.187 1.668 4.777 13.5 4.777 7.3 0 11.51-.41 12.3-1.2zm36.665-33.333c12.765-3.325 23.019-11.934 28.833-24.208 2.942-6.21 3.202-7.576 3.202-16.81 0-9.605-.168-10.391-3.76-17.659-13.037-26.38-46.152-32.646-67.22-12.72-9.135 8.64-13.52 18.533-13.52 30.506 0 6.794 2.834 17.215 5.955 21.902 10.55 15.84 29.266 23.48 46.51 18.99zm-21.965-6.466c-16.199-5.416-25.317-19.325-24.29-37.055.794-13.738 7.996-24.31 20.631-30.286 5.942-2.811 7.627-3.149 15.659-3.14 7.73.01 9.846.404 15 2.798 14.47 6.72 22.422 20.312 21.215 36.262-1.018 13.46-8.273 23.978-20.48 29.69-8.658 4.052-18.883 4.69-27.735 1.73zm9.559-9.845c1.52-1.857 1.615-1.842 3.784.593 1.949 2.187 2.84 2.44 7.15 2.026 5.582-.537 11.1-4.122 13.508-8.777 1.783-3.448 1.937-7.16.361-8.735-.85-.85-.218-2.005 2.5-4.569 3.22-3.036 3.637-3.99 3.634-8.312-.006-8.05-5.505-15.316-11.624-15.36-5.54-.04-6.036 1.907-3.002 11.767 1.474 4.791 3.582 9.948 4.685 11.461 1.925 2.641 1.93 2.75.132 2.75-2.019 0-14.496 8.404-17.545 11.817l-1.858 2.08-2.345-2.787c-1.289-1.532-5.683-5.041-9.765-7.799-5.852-3.953-7.235-5.345-6.541-6.584 1.798-3.213 5.853-16.321 5.86-18.942.008-3.18-3.03-5.243-6.454-4.384-5.838 1.465-11.374 11.394-9.994 17.925.83 3.925 4.144 7.674 6.784 7.674 1.856 0 1.876.116.326 1.829-4.043 4.467-.335 13.029 7.353 16.979 5.193 2.668 10.553 2.4 13.05-.652zm9.879-13.045c4.463-3.175 6.385-6.708 6.31-11.601-.122-8.116-5.888-13.5-14.463-13.506-3.834-.003-5.365.566-8.19 3.046-6.659 5.847-6.978 14.335-.763 20.289 5.021 4.811 11.842 5.518 17.106 1.772zm-11.574-4.28c-2.292-1.11-4.364-4.787-4.364-7.743 0-1 .932-3.004 2.072-4.453 1.662-2.112 2.92-2.635 6.345-2.635 5.31 0 7.983 2.57 7.983 7.68 0 6.194-6.292 9.932-12.036 7.15zm14.07-23.806c3.668-1.395 3.478-5.777-.412-9.504-6.017-5.764-19.585-4.169-22.447 2.64-2.574 6.12-.144 7.68 12.11 7.776 4.501.035 9.339-.376 10.75-.912zm-82.773 10.138c7.491-2.358 11.618-4.93 17.942-11.181 20.46-20.225 14.13-54.847-12.288-67.217-8.701-4.075-21.841-5.05-30.462-2.264-11.576 3.743-20.81 11.965-26.189 23.32-2.927 6.18-3.164 7.465-3.164 17.179 0 9.744.23 10.988 3.208 17.274 5.366 11.327 15.563 20.032 27.292 23.295 6.736 1.874 16.971 1.699 23.66-.406zm-25.931-6.525c-15.722-6.624-23.436-18.974-22.538-36.084.557-10.615 3.743-17.466 11.355-24.423 7.952-7.268 14.38-9.43 26.453-8.903 7.214.315 10.635.961 14.216 2.688 7.448 3.589 13.339 9.434 16.997 16.866 3.028 6.15 3.285 7.425 3.259 16.197-.025 8.421-.361 10.207-2.912 15.459-3.678 7.575-10.12 14.009-17.364 17.344-8.406 3.87-21.414 4.248-29.466.856zm28.935-8.46c2.995-1.602 7.216-6.857 7.992-9.949.415-1.652.063-3.65-.954-5.423-1.291-2.25-1.34-2.806-.246-2.806.751 0 2.53-1.385 3.954-3.077 4.564-5.424 2.997-14.877-3.352-20.22-1.767-1.487-4.108-2.703-5.202-2.703-3.024 0-5.857 1.861-5.857 3.848 0 2.436 5.684 19.066 7.1 20.772.886 1.068.808 1.38-.343 1.38-2.29 0-18.202 12.261-18.59 14.324-.43 2.288 2.356 5.457 5.187 5.901 2.661.418 7.503-.543 10.311-2.046zm-18.888.265c4.336-3.037 2.954-5.928-5.954-12.453-10.796-7.908-14.823-7.86-14.823.175 0 9.044 13.774 17.183 20.777 12.278zm9.153-12.907c5.041-2.607 8.07-7.172 8.07-12.162 0-5.676-2.035-9.615-6.344-12.277-6.927-4.282-16.08-1.565-19.959 5.923-5.758 11.119 7.163 24.24 18.233 18.516zm-11.476-6.99c-5.153-5.154-1.435-13.546 6-13.546 4.762 0 7.55 2.87 7.53 7.75-.017 4.312-.632 5.502-3.668 7.1-3.489 1.836-7.214 1.343-9.862-1.305zm-13.387-1.671c2.081-3.89 5.933-16.187 5.933-18.943 0-2.943-1.504-3.932-5.978-3.932-5.618 0-11.904 10.484-10.565 17.621 1.238 6.602 8.076 9.988 10.61 5.254zm29.999-20.91c3.056-1.636 2.508-6.304-1.096-9.336-5.984-5.036-15.14-4.66-20.649.85-6.56 6.56-3.304 9.521 10.467 9.521 5.139 0 10.214-.466 11.278-1.035zm-90.865 17.926c8.116-1.698 16.19-6.486 22.733-13.48 8.2-8.766 10.495-14.87 10.495-27.911 0-13.106-2.283-19.133-10.63-28.056-16.676-17.826-42.084-18.955-59.882-2.66-17.536 16.055-18.403 42.19-1.977 59.56 10.397 10.992 24.757 15.582 39.26 12.547zM83.666 118.9c-12.178-2.87-22.154-12.125-25.841-23.972C52.13 76.63 60.172 58.314 77.42 50.304c5.154-2.394 7.269-2.788 15-2.797 8.03-.01 9.717.328 15.651 3.135 12.865 6.086 19.832 16.348 20.646 30.41.53 9.139-1.298 16.328-5.927 23.317-7.845 11.843-24.416 17.998-39.124 14.531zm6.375-10.835c1.604-1.96 1.647-1.955 4 .565 2.055 2.201 3.02 2.487 7.087 2.103 9.748-.922 17.455-10.901 13.757-17.813-.57-1.064-2.071-1.934-3.338-1.934-2.259 0-11.577 5.963-16.753 10.722l-2.625 2.413-2.645-2.451c-1.455-1.349-5.899-4.65-9.875-7.335l-7.23-4.883 2.157-5.483c1.186-3.016 2.855-7.864 3.709-10.775 1.478-5.04 1.459-5.384-.407-7.25-2.651-2.651-5.206-2.462-8.917.661-4.298 3.617-6.041 7.424-6.041 13.196 0 5.605 2.8 10.185 6.227 10.185 1.954 0 1.98.113.428 1.829-3.986 4.404-.095 13.22 7.542 17.09 5.057 2.56 10.428 2.211 12.924-.84zm6.047-11.109c4.304-1.195 9.357-6.531 10.315-10.892.957-4.36-1.038-9.48-5.079-13.028-2.938-2.58-4.292-3.05-8.772-3.05-4.543 0-5.834.464-9.046 3.25-9.417 8.167-4.539 22.462 8.414 24.654.275.047 2.15-.374 4.168-.934zm-6.703-5.922c-3.225-1.307-4.864-3.948-4.759-7.666.17-6.028 4.962-9.307 10.79-7.383 4.74 1.564 6.628 6.439 4.394 11.344-1.75 3.838-6.197 5.42-10.425 3.705zm29.984-4.278c.853-1.218 1.55-4.184 1.55-6.591 0-8.333-5.23-15.179-11.599-15.179-5.505 0-5.92 2.351-2.374 13.424 4.08 12.736 7.662 15.143 12.423 8.346zm-17.15-19.693c3.272-1.245 3.995-3.608 2.177-7.123-2.266-4.382-6.7-6.25-13.638-5.749-4.741.343-6.404.963-8.84 3.296-3.977 3.811-4.087 7.935-.248 9.337 3.52 1.285 17.372 1.446 20.548.239z" fill="#6a6d75"/><path d="M55.312 443.09c-25.919-6.373-46.065-25.863-52.42-50.713C.969 384.858.92 380.626.92 222.64.92 43.13.49 55.116 7.457 40.486c6.558-13.769 18.386-25.442 32.963-32.53 16.316-7.934 7.676-7.47 139-7.47 131.323 0 122.684-.464 139 7.47 14.543 7.072 26.312 18.67 33.021 32.545 6.849 14.163 6.448 2.838 6.464 182.505.015 161.259 0 162.578-2.053 169.984-5.635 20.334-18.935 35.922-38.432 45.042-15.58 7.29-8.994 6.962-138.698 6.88-107.185-.067-116.86-.21-123.41-1.821zm248-3.458c20.515-6.206 36.16-19.185 44.776-37.146 7.29-15.197 6.898-4.331 6.6-182.771l-.268-160.229-2.339-7c-7.25-21.701-23.894-38.093-46.578-45.87-6.01-2.06-7.49-2.09-122.89-2.382C68.128 3.944 65.637 3.978 57.251 5.97c-12.823 3.045-23.245 8.898-32.93 18.493-9.056 8.973-13.974 16.956-17.57 28.523l-2.331 7.5v162.5c0 181.7-.616 165.877 7.049 181.097 9.857 19.575 30.347 33.97 52.95 37.203 1.65.235 54.75.36 118 .278 107.192-.14 115.4-.27 120.892-1.932zM115.42 411.816c-13.984-2.648-28.922-14.053-35.221-26.892-4.292-8.749-5.606-15.488-5.036-25.838.573-10.428 2.586-16.5 8.359-25.224 6.315-9.541 14.194-15.6 25.361-19.502 3.566-1.246 5.82-2.465 5.01-2.71-19.62-5.913-32.895-18.748-37.44-36.199-1.894-7.272-1.96-19.273-.143-26.097 9.095-34.156 50.948-48.889 79.395-27.947 10.125 7.453 17.24 18.265 19.638 29.842l1.292 6.237 1.207-5.72c1.763-8.353 6.534-17.125 13.175-24.225 9.646-10.31 22.342-15.713 36.931-15.713h7.974l-5.78-5.78c-9.931-9.93-16.236-26.549-14.725-38.812.356-2.888.39-5.25.077-5.25s-2.828 1.623-5.59 3.606c-15.865 11.398-39.635 11.625-56.556.54-7.332-4.803-11.256-8.91-15.904-16.646-4.282-7.127-6.266-13.465-7.278-23.251l-.746-7.21-4.5 3.58c-15.967 12.703-37.967 15.019-55.976 5.893C57.56 122.73 46.65 109.16 43.31 96.618c-1.849-6.943-1.748-20.051.205-26.7 6.448-21.952 26.24-36.882 48.945-36.92 27.667-.047 50.404 21.966 50.85 49.23.06 3.709.266 6.746.456 6.75.191.004 2.284-1.697 4.652-3.782 5.877-5.172 14.29-9.107 23.584-11.029 24.468-5.06 50.47 10.444 57.909 34.524 1.38 4.47 2.009 9.317 2.009 15.49v8.983l3.142-2.645c4.42-3.718 11.468-7.118 18.574-8.96 26.704-6.92 54.048 8.94 61.818 35.856 1.298 4.495 1.602 8.397 1.259 16.127-.408 9.168-.823 10.974-4.107 17.89-8.798 18.525-26.221 29.554-46.69 29.554h-7.582l6.097 6.25c15.509 15.896 18.793 39.267 8.288 58.976-5.65 10.598-17.262 20.355-28.3 23.776-4.83 1.497-6.74 2.998-3.815 2.998 1.146 0 5.688 1.804 10.094 4.009 25.632 12.83 35.528 43.875 22.046 69.169-3.842 7.21-14.603 17.588-21.975 21.195-15.649 7.656-34.283 6.904-49.472-1.998-10.931-6.406-20.731-20.246-23.446-33.112l-1.216-5.763-1.272 6.138c-5.532 26.7-32.565 44.375-59.943 39.192zm28.837-11.675c8.565-4.217 15.608-11.266 19.836-19.854 3.19-6.48 3.326-7.235 3.313-18.28-.012-10.386-.278-12.088-2.696-17.274-3.085-6.615-11.149-15.595-17.177-19.128-7.145-4.187-14.914-5.897-24.675-5.43-7.623.364-9.734.9-16.27 4.13-29.043 14.354-31.69 54.434-4.816 72.923 7.387 5.083 14.181 6.798 25.706 6.49 9.074-.242 10.715-.592 16.78-3.577zm-32.118-4.232c-7.563-2.987-16.22-11.348-19.818-19.141-2.494-5.4-2.897-7.476-2.872-14.782.024-7.053.48-9.474 2.68-14.218 3.492-7.532 10.366-14.737 17.513-18.356 5.241-2.654 6.706-2.926 15.778-2.926 8.748 0 10.713.334 15.696 2.67 7.267 3.406 14.227 10.367 17.634 17.633 2.339 4.991 2.669 6.936 2.66 15.697-.01 8.982-.294 10.538-2.786 15.286-3.955 7.535-8.733 12.415-15.936 16.275-5.659 3.033-7.192 3.388-15.768 3.654-7.755.24-10.47-.09-14.781-1.792zm27.28-7.813c2.2-1.015 5.05-2.986 6.333-4.38 2.722-2.957 3.891-9.51 2.245-12.586-.912-1.704-.868-2.144.213-2.144.749 0 2.437-1.146 3.753-2.546 1.921-2.045 2.376-3.572 2.316-7.776-.136-9.343-6.099-16.334-13.05-15.298-2.289.34-3.055.12-2.71-.78.266-.69.017-2.478-.55-3.973-1.195-3.142-7.806-6.571-12.734-6.605-6.807-.047-13.315 4.367-13.315 9.03 0 4.52 1.763 5.1 14.429 4.76l11.575-.312-.002 2.72c-.002 3.18 4.51 17.487 6.131 19.44.826.995.798 1.34-.108 1.34-1.78 0-17.082 10.984-17.758 12.747-.477 1.242-.846 1.158-2.171-.499-2.802-3.503-15.788-12.247-18.236-12.278-2.048-.027-2.134-.163-.652-1.027.987-.575 3.057-5.277 4.898-11.124 3.561-11.313 3.294-13.111-2.028-13.638-6.82-.675-12.069 5.896-12.074 15.114-.003 4.823.408 6.208 2.45 8.25 1.35 1.35 3.015 2.455 3.7 2.455.969 0 .98.267.046 1.2-1.83 1.83-1.42 7.947.752 11.242 4.298 6.52 14.629 9.64 19.836 5.994 2.062-1.445 2.434-1.406 4.857.5 3.225 2.537 6.627 2.587 11.855.174zm-7.064-13.646c3.892-1.847 7.566-7.97 7.561-12.6-.008-6.826-6.993-13.853-13.778-13.86-8.379-.01-14.22 5.747-14.2 13.996.014 5.671 1.601 8.827 5.894 11.72 3.989 2.688 9.8 2.985 14.523.744zm-12.26-6.778c-1.405-1.495-2.175-3.595-2.175-5.928 0-8.358 11.775-10.543 14.99-2.782 3.352 8.092-6.87 15.038-12.816 8.71zm126.066 32.595c29.406-13.816 32.589-55.206 5.63-73.209-12.263-8.188-29.636-9.41-42.683-3-16.774 8.24-26.318 26.581-23.249 44.678 2.745 16.186 12.679 27.845 28.548 33.506 3.838 1.37 7.357 1.718 15.013 1.49 8.791-.262 10.815-.681 16.74-3.465zm-29.917-3.664c-8.452-2.757-17.02-10.161-21.137-18.268-11.664-22.961 4.61-50.89 30.412-52.194 27.048-1.366 45.842 24.153 36.337 49.338-2.733 7.24-10.936 15.906-18.436 19.474-6.169 2.936-20.557 3.809-27.176 1.65zm23.827-7.642c2.132-.593 5.15-2.672 7.25-4.998 2.955-3.27 3.599-4.751 3.599-8.28 0-2.363-.483-4.78-1.073-5.37-.765-.765-.314-1.264 1.566-1.736 1.746-.438 3.124-1.823 4.073-4.094 1.905-4.56 1.778-8.143-.462-13.076-4.244-9.343-15.104-11.785-15.104-3.396 0 2.634 3.87 14.995 5.857 18.708.888 1.66.667 2.163-1.36 3.086-4.8 2.187-16.499 11.378-16.56 13.011-.048 1.248-.28 1.133-.923-.456-.995-2.465-16.036-13.374-18.44-13.374-1.435 0-1.458-.258-.2-2.25.782-1.238 2.691-6.206 4.243-11.04 3.232-10.07 2.798-12.027-2.772-12.509-4.17-.36-7.879 2.243-10.218 7.173-3.142 6.62-1.282 16.649 3.361 18.122 1.607.51 1.81 1.013 1.011 2.505-2.486 4.646.48 11.383 6.923 15.725 4.494 3.03 11.975 3.15 14.612.236 1.642-1.814 1.942-1.862 2.74-.436 1.76 3.145 6.129 4.045 11.877 2.449zM235.5 374.1c5.957-3.634 8.099-12.516 4.593-19.053-3.443-6.42-11.737-8.786-18.89-5.392-9.307 4.416-9.894 18.938-.985 24.37 4.137 2.523 11.21 2.557 15.282.074zm-13.126-6.57c-4.96-4.96-1.445-13.545 5.546-13.545 4.11 0 8 3.889 8 8 0 4.111-3.89 8-8 8-1.949 0-3.998-.907-5.546-2.455zm17.346-22.745c2.038-2.038 1.333-5.82-1.638-8.791-5.268-5.269-17.741-4.902-22.109.65-2.3 2.925-2.658 6.336-.853 8.141 1.65 1.65 22.95 1.65 24.6 0zm-61.798 6.687c3.537-17.034 18.147-32.693 35.498-38.047 3.34-1.03 3.67-1.349 2-1.932-20.818-7.266-32.183-18.673-36.99-37.129-1.683-6.464-2.51-7.848-2.51-4.202 0 1.38-.902 5.132-2.005 8.336-5.075 14.751-17.778 27.126-32.832 31.984l-5.338 1.722 6.36 2.14c13.089 4.405 23.424 13.563 29.454 26.098 1.84 3.827 3.633 9.114 3.983 11.75.35 2.636.77 4.793.936 4.793.165 0 .815-2.48 1.444-5.513zm-33.761-51.202c8.72-4.103 15.922-11.297 20.066-20.044 2.988-6.31 3.193-7.445 3.193-17.741 0-13.858-2.132-19.829-10.19-28.532-20.552-22.198-56.78-17.19-69.919 9.665-7.65 15.635-4.717 34.62 7.336 47.507 9.205 9.84 17.34 13.018 32.273 12.606 9.378-.258 11.22-.628 17.24-3.46zm-24.37-2.292c-10.12-1.733-18.677-7.18-24.343-15.493-12.685-18.614-5.526-43.578 15.297-53.34 4.897-2.295 6.978-2.66 15.175-2.66 8.387 0 10.17.329 15.217 2.808 7.534 3.7 14.29 10.405 17.602 17.472 2.351 5.017 2.68 6.95 2.67 15.72-.01 8.902-.305 10.56-2.695 15.107-3.47 6.604-7.023 10.774-12.16 14.27-7.883 5.366-17.848 7.643-26.764 6.116zm19.722-9.604c5.445-2.584 9.407-7.787 9.407-12.352 0-2.142-.655-4.55-1.456-5.35-1.273-1.273-1.112-1.523 1.296-2.005 7.977-1.595 7.077-18.625-1.26-23.848-2.06-1.29-4.164-1.768-6.353-1.441-2.04.305-3.039.112-2.653-.513 1.06-1.716-1.73-6.91-4.465-8.307-6.706-3.424-14.291-2.973-19.18 1.14-1.901 1.6-2.93 3.408-2.93 5.152 0 2.504-.256 2.663-3.76 2.33-7.11-.679-12.24 5.95-12.24 15.818 0 4.058.494 5.57 2.455 7.532 1.35 1.35 2.941 2.455 3.536 2.455.758 0 .772.577.045 1.934-2.767 5.17.882 13.375 7.305 16.423 4.46 2.116 11.461 2.133 13.782.032 1.645-1.488 1.985-1.45 4.464.5 3.206 2.522 7.379 2.696 12.007.5zm-15.294-6.709c-1.25-2.061-14.424-11.673-16.825-12.276-2.135-.536-2.138-.576-.358-4.222.988-2.025 2.829-7.282 4.09-11.682l2.294-8H137.922l-.001 3.075c-.001 3.412 4.322 16.905 6.105 19.053.76.916.787 1.372.08 1.372-1.552 0-14.319 8.753-16.887 11.577-1.69 1.858-2.387 2.114-3 1.103zm9.226-7.696c8.31-5.136 8.31-18.114 0-23.56-6.272-4.11-15.89-2.152-19.64 3.996-2.375 3.896-2.52 12.228-.268 15.443 4.223 6.03 13.66 7.983 19.909 4.121zm-13.35-6.298c-3.172-3.376-2.952-8.93.46-11.613 3.65-2.872 6.991-2.6 10.442.85 3.607 3.607 3.77 7.32.468 10.622-3.248 3.248-8.392 3.312-11.37.14zM247.15 299.72c33.886-16.762 29.684-66.594-6.57-77.911-12.288-3.836-27.32-1.413-37.804 6.093-23.555 16.868-23.156 52.71.77 69.171 7.825 5.384 13.564 6.88 25.433 6.633 9.983-.208 10.973-.425 18.171-3.986zm-25.58-1.783c-10.496-1.76-21.557-9.942-26.442-19.559-9.034-17.785-1.576-39.67 16.56-48.599 6.146-3.025 7.464-3.293 16.21-3.293 8.215 0 10.277.36 15.022 2.625 8.41 4.015 13.459 9.001 17.603 17.388 3.279 6.633 3.657 8.216 3.636 15.196-.035 11.233-2.854 18.08-10.652 25.879-8.763 8.763-19.91 12.38-31.937 10.363zm19.648-9.302c1.778-.743 4.689-3.009 6.467-5.035 2.6-2.96 3.235-4.549 3.235-8.09 0-2.423-.507-4.72-1.127-5.102-.68-.42.088-1.207 1.938-1.985 7.993-3.36 5.762-19.981-3.265-24.321-4.058-1.952-7.943-.47-8.366 3.189-.31 2.677 4.2 18.067 5.946 20.288.545.694-.002 1.485-1.5 2.167-4.705 2.144-16.627 11.527-16.662 13.113-.026 1.189-.372 1.02-1.287-.627-1.51-2.719-15.857-13.246-18.052-13.246-1.36 0-1.328-.413.246-3.25 3.223-5.804 6.654-18.693 5.477-20.573-1.42-2.268-6.938-2.676-9.906-.731-7.37 4.83-8.733 20.642-2.04 23.691 2.101.958 2.295 1.433 1.394 3.411-2.305 5.058 1.873 12.735 8.888 16.332 3.578 1.835 10.755 1.398 12.72-.775 1.677-1.853 1.768-1.841 4.11.5 2.735 2.735 6.862 3.1 11.784 1.044zm-5.597-14.609c11.547-7.04 5.892-26.04-7.75-26.04-7.736 0-13.951 6.2-13.951 13.918 0 8.42 5.625 14.075 14 14.075 2.703 0 5.778-.78 7.701-1.953zm-13.629-6.675c-1.14-1.449-2.072-3.944-2.072-5.545 0-3.436 3.927-7.82 7.004-7.82 2.87 0 7.62 2.577 8.375 4.545 3.252 8.474-7.81 15.807-13.307 8.82zm17.728-22.565c3.543-3.543-.64-9.872-7.798-11.8-8.398-2.26-18.002 2.126-18.002 8.223 0 4.187 1.668 4.777 13.5 4.777 7.3 0 11.51-.41 12.3-1.2zm42.2-34.77c34.095-13.54 36.222-61.825 3.402-77.217-22.14-10.382-47.48-1.651-57.674 19.872-3.032 6.4-3.228 7.488-3.228 17.867 0 10.747.103 11.26 3.735 18.608 5.54 11.21 14.835 18.948 26.79 22.301 7.446 2.089 19.754 1.436 26.975-1.432zm-25.07-4.333c-10.037-2.847-18.67-10.05-23.613-19.697-2.535-4.95-2.817-6.501-2.817-15.5 0-9.49.175-10.322 3.423-16.313 8.29-15.29 24.945-22.898 41.08-18.765 11.459 2.936 19.912 9.908 24.896 20.532 2.2 4.69 2.6 6.94 2.6 14.567 0 8.157-.31 9.654-3.25 15.623-6.04 12.27-17.065 19.653-30.51 20.43-4.234.246-9.136-.119-11.81-.877zm6.365-9.947l2.205-2.25 2.214 2.25c3.038 3.087 9.765 3.076 14.364-.024 6.527-4.399 9.41-11.077 6.847-15.866-.9-1.682-.731-2.098 1.04-2.561 2.82-.738 5.035-5.26 5.035-10.281 0-8.647-5.38-15.376-11.846-14.817-5.722.495-6.042 2.389-2.318 13.75 1.824 5.564 4.035 10.455 4.974 11.002 1.425.832 1.285.99-.894 1.017-1.586.018-5.933 2.527-11.25 6.49-4.767 3.554-8.666 6.065-8.666 5.581 0-1.026-12.924-10.593-16.53-12.237-1.555-.708-2.143-1.519-1.604-2.211 1.546-1.987 6.134-16.557 6.134-19.48 0-3.907-2.17-5.491-6.429-4.692-5.427 1.018-10.543 8.699-10.566 15.861-.011 3.807 2.847 8.643 5.502 9.31 1.88.47 2.33.97 1.566 1.735-.59.59-1.073 2.992-1.073 5.338 0 10.045 14.97 18.54 21.295 12.085zm9.389-12.693c9.606-4.362 10.373-19.048 1.276-24.421-3.428-2.025-11.12-2.122-14.861-.187-8.21 4.245-9.219 17.347-1.768 22.96 5.26 3.963 9.298 4.396 15.353 1.648zm-9.664-5.317c-7.616-3.928-5.316-14.74 3.135-14.74 5.799 0 8.488 3.242 7.881 9.5-.443 4.565-6.624 7.505-11.016 5.24zm13.415-23.715c2.784-1.059 3.442-4.518 1.535-8.08-2.68-5.007-14.588-6.695-20.745-2.94-5.45 3.322-6.423 9.162-1.836 11.015 2.934 1.186 17.931 1.189 21.046.004zm-77.05 8.175c7.532-3.524 16.212-11.53 19.51-17.995 12.317-24.142.778-52.45-24.742-60.701-4.035-1.305-7.734-1.633-15.079-1.338-8.548.343-10.547.792-16.433 3.69-8.544 4.206-15.59 11.261-19.814 19.843-3.168 6.435-3.326 7.287-3.299 17.78.024 9.084.429 12.023 2.304 16.723 4.08 10.225 14.376 19.725 25.747 23.759 4.851 1.72 7.657 2.033 15.533 1.728 8.209-.317 10.584-.826 16.274-3.489zm-29.132-3.603c-25.14-8.193-33.586-39.726-15.886-59.318 1.978-2.19 6.417-5.484 9.864-7.322 5.285-2.817 7.566-3.41 14.533-3.775 10.139-.533 15.59.871 23.255 5.99 18.5 12.353 21.12 38.006 5.578 54.62-6.79 7.26-14.111 10.498-24.597 10.88-5.344.194-10.077-.205-12.747-1.075zm25.27-8.632c6.085-2.234 10.95-11.435 8.68-16.417-.9-1.978-.706-2.453 1.395-3.41 6.763-3.082 5.377-18.648-2.096-23.544-3.14-2.058-8.392-1.747-9.85.583-1.168 1.865 2.243 14.744 5.425 20.486 1.72 3.104 1.712 3.173-.412 3.716-2.738.7-15.772 10.061-16.957 12.179-.489.873-.617 2.668-.286 3.99.973 3.876 7.21 4.946 14.1 2.417zm-17.352-.62c2.61-2.362 2.261-5.575-.921-8.486-3.662-3.348-12.286-9.375-14.613-10.213-1.313-.472-1.574-1.035-.883-1.908 1.351-1.709 6.246-16.791 6.245-19.241-.001-1.9.559-1.98 11.542-1.66 12.752.372 14.459-.213 14.459-4.96 0-7.074-11.32-11.278-20.282-7.532-4.104 1.715-5.98 3.997-6.113 7.433-.098 2.531-.371 2.699-3.868 2.367-5.012-.476-8.422 1.89-10.944 7.59-3.6 8.14-.916 17.225 5.112 17.295 2.245.027 2.359.168.845 1.05-2.43 1.415-2.311 8.488.211 12.624 3.769 6.181 14.977 9.472 19.21 5.641zm9.34-12.785c4.736-1.98 7.48-6.809 7.485-13.175.003-3.677-.583-5.862-2.084-7.77-6.445-8.193-19.495-7.274-24.07 1.695-6.209 12.17 5.852 24.605 18.668 19.25zm-10.19-5.749c-4.707-2.275-5.3-10.311-.984-13.334 5.534-3.877 12.663-.068 12.663 6.765 0 6-5.942 9.343-11.679 6.57zm-73.781-6.363c12.216-3.181 21.564-10.834 27.225-22.288 3.632-7.348 3.735-7.86 3.735-18.608 0-10.366-.2-11.473-3.209-17.826-8.18-17.271-27.374-27.267-45.827-23.867-25.164 4.636-40.3 28.15-33.912 52.68 5.843 22.44 29.158 35.854 51.988 29.909zm-20.61-5.751c-10.4-2.95-19.029-10.412-23.795-20.577-2.237-4.77-2.635-6.984-2.635-14.641 0-8.177.307-9.645 3.287-15.697 5.338-10.844 14.617-17.677 27.177-20.013 7.082-1.317 15.688-.008 22.374 3.403 6.069 3.097 13.002 10.164 16.236 16.55 2.654 5.242 2.926 6.706 2.926 15.778s-.272 10.536-2.926 15.778c-3.592 7.093-10.833 14.035-18.116 17.37-6.645 3.042-17.756 3.97-24.529 2.049zm6.394-9.738l2.595-2.04 2.04 2.04c4.416 4.416 15.557 1.356 20.088-5.517 2.154-3.267 2.587-9.408.79-11.205-.884-.884-.538-1.4 1.44-2.152 3.495-1.33 4.723-3.95 4.723-10.085 0-5.66-.972-8.136-4.81-12.25-1.902-2.04-3.517-2.75-6.255-2.75-6.387 0-6.786 1.703-3.06 13.069 1.787 5.452 3.928 10.591 4.758 11.422 1.346 1.345 1.277 1.509-.635 1.509-2.36 0-17.998 10.741-17.998 12.362 0 .557-1.238-.129-2.75-1.524-3.993-3.682-15.809-11.838-17.15-11.838-.777 0-.684-.726.286-2.25 2.027-3.182 6.791-18.845 6.201-20.383-.376-.98.101-1.056 2.026-.324 3.215 1.222 17.498 1.245 20.685.034 3.025-1.15 3.927-3.353 2.699-6.585-1.464-3.851-6.657-6.484-12.797-6.488-8.098-.006-13.2 3.422-13.2 8.867 0 1.693-.504 1.928-3.25 1.518-7.042-1.05-12.75 5.977-12.75 15.698 0 4.049.508 5.825 2.174 7.599 1.196 1.273 2.787 2.314 3.535 2.314 1.036 0 1.114.462.326 1.934-2.951 5.515.643 13.132 7.935 16.816 5.522 2.79 9 2.849 12.354.21zm9.348-12.897c7.305-3.317 10.214-11.284 6.77-18.54-2.355-4.966-6.689-7.514-12.788-7.518-7.63-.006-12.074 3.489-13.72 10.788-1.548 6.863 2.004 13.375 8.566 15.702 5.232 1.855 6.218 1.817 11.172-.432zm-9.463-5.087c-5.746-2.36-5.74-12.008.01-14.425 5.534-2.327 10.174.165 11.361 6.102 1.111 5.554-5.8 10.612-11.371 8.323z" fill="#871a1f"/><path d="M55.312 443.09c-25.919-6.373-46.065-25.863-52.42-50.713C.969 384.858.92 380.626.92 222.64.92 43.13.49 55.116 7.457 40.486c6.558-13.769 18.386-25.442 32.963-32.53 16.316-7.934 7.676-7.47 139-7.47 131.323 0 122.684-.464 139 7.47 14.543 7.072 26.312 18.67 33.021 32.545 6.849 14.163 6.448 2.838 6.464 182.505.015 161.259 0 162.578-2.053 169.984-5.635 20.334-18.935 35.922-38.432 45.042-15.58 7.29-8.994 6.962-138.698 6.88-107.185-.067-116.86-.21-123.41-1.821zm248-3.458c20.515-6.206 36.16-19.185 44.776-37.146 7.29-15.197 6.898-4.331 6.6-182.771l-.268-160.229-2.339-7c-7.25-21.701-23.894-38.093-46.578-45.87-6.01-2.06-7.49-2.09-122.89-2.382C68.128 3.944 65.637 3.978 57.251 5.97c-12.823 3.045-23.245 8.898-32.93 18.493-9.056 8.973-13.974 16.956-17.57 28.523l-2.331 7.5v162.5c0 181.7-.616 165.877 7.049 181.097 9.857 19.575 30.347 33.97 52.95 37.203 1.65.235 54.75.36 118 .278 107.192-.14 115.4-.27 120.892-1.932zM115.42 411.816c-13.984-2.648-28.922-14.053-35.221-26.892-4.292-8.749-5.606-15.488-5.036-25.838.573-10.428 2.586-16.5 8.359-25.224 6.315-9.541 14.194-15.6 25.361-19.502 3.566-1.246 5.82-2.465 5.01-2.71-19.62-5.913-32.895-18.748-37.44-36.199-1.894-7.272-1.96-19.273-.143-26.097 9.095-34.156 50.948-48.889 79.395-27.947 10.125 7.453 17.24 18.265 19.638 29.842l1.292 6.237 1.207-5.72c1.763-8.353 6.534-17.125 13.175-24.225 9.646-10.31 22.342-15.713 36.931-15.713h7.974l-5.78-5.78c-9.931-9.93-16.236-26.549-14.725-38.812.356-2.888.39-5.25.077-5.25s-2.828 1.623-5.59 3.606c-15.865 11.398-39.635 11.625-56.556.54-7.332-4.803-11.256-8.91-15.904-16.646-4.282-7.127-6.266-13.465-7.278-23.251l-.746-7.21-4.5 3.58c-15.967 12.703-37.967 15.019-55.976 5.893C57.56 122.73 46.65 109.16 43.31 96.618c-1.849-6.943-1.748-20.051.205-26.7 6.448-21.952 26.24-36.882 48.945-36.92 27.667-.047 50.404 21.966 50.85 49.23.06 3.709.266 6.746.456 6.75.191.004 2.284-1.697 4.652-3.782 5.877-5.172 14.29-9.107 23.584-11.029 24.468-5.06 50.47 10.444 57.909 34.524 1.38 4.47 2.009 9.317 2.009 15.49v8.983l3.142-2.645c4.42-3.718 11.468-7.118 18.574-8.96 26.704-6.92 54.048 8.94 61.818 35.856 1.298 4.495 1.602 8.397 1.259 16.127-.408 9.168-.823 10.974-4.107 17.89-8.798 18.525-26.221 29.554-46.69 29.554h-7.582l6.097 6.25c15.509 15.896 18.793 39.267 8.288 58.976-5.65 10.598-17.262 20.355-28.3 23.776-4.83 1.497-6.74 2.998-3.815 2.998 1.146 0 5.688 1.804 10.094 4.009 25.632 12.83 35.528 43.875 22.046 69.169-3.842 7.21-14.603 17.588-21.975 21.195-15.649 7.656-34.283 6.904-49.472-1.998-10.931-6.406-20.731-20.246-23.446-33.112l-1.216-5.763-1.272 6.138c-5.532 26.7-32.565 44.375-59.943 39.192zm28.837-11.675c8.565-4.217 15.608-11.266 19.836-19.854 3.19-6.48 3.326-7.235 3.313-18.28-.012-10.386-.278-12.088-2.696-17.274-3.085-6.615-11.149-15.595-17.177-19.128-7.145-4.187-14.914-5.897-24.675-5.43-7.623.364-9.734.9-16.27 4.13-29.043 14.354-31.69 54.434-4.816 72.923 7.387 5.083 14.181 6.798 25.706 6.49 9.074-.242 10.715-.592 16.78-3.577zm101.904.126c29.406-13.816 32.589-55.206 5.63-73.209-12.263-8.188-29.636-9.41-42.683-3-16.774 8.24-26.318 26.581-23.249 44.678 2.745 16.186 12.679 27.845 28.548 33.506 3.838 1.37 7.357 1.718 15.013 1.49 8.791-.262 10.815-.681 16.74-3.465zm-68.239-48.794c3.537-17.034 18.147-32.693 35.498-38.047 3.34-1.03 3.67-1.349 2-1.932-20.818-7.266-32.183-18.673-36.99-37.129-1.683-6.464-2.51-7.848-2.51-4.202 0 1.38-.902 5.132-2.005 8.336-5.075 14.751-17.778 27.126-32.832 31.984l-5.338 1.722 6.36 2.14c13.089 4.405 23.424 13.563 29.454 26.098 1.84 3.827 3.633 9.114 3.983 11.75.35 2.636.77 4.793.936 4.793.165 0 .815-2.48 1.444-5.513zm-33.761-51.202c8.72-4.103 15.922-11.297 20.066-20.044 2.988-6.31 3.193-7.445 3.193-17.741 0-13.858-2.132-19.829-10.19-28.532-20.552-22.198-56.78-17.19-69.919 9.665-7.65 15.635-4.717 34.62 7.336 47.507 9.205 9.84 17.34 13.018 32.273 12.606 9.378-.258 11.22-.628 17.24-3.46zm102.99-.55c33.885-16.763 29.683-66.595-6.57-77.912-12.29-3.836-27.322-1.413-37.805 6.093-23.555 16.868-23.156 52.71.77 69.171 7.825 5.384 13.564 6.88 25.433 6.633 9.983-.208 10.973-.425 18.171-3.986zm34.769-89.706c34.095-13.539 36.222-61.824 3.402-77.216-22.14-10.382-47.48-1.651-57.674 19.872-3.032 6.4-3.228 7.488-3.228 17.867 0 10.747.103 11.26 3.735 18.608 5.54 11.21 14.835 18.948 26.79 22.301 7.446 2.089 19.754 1.436 26.975-1.432zm-25.07-4.332c-10.037-2.847-18.67-10.05-23.613-19.697-2.535-4.95-2.817-6.501-2.817-15.5 0-9.49.175-10.322 3.423-16.313 8.29-15.29 24.945-22.898 41.08-18.765 11.459 2.936 19.912 9.908 24.896 20.532 2.2 4.69 2.6 6.94 2.6 14.567 0 8.157-.31 9.654-3.25 15.623-6.04 12.27-17.065 19.653-30.51 20.43-4.234.246-9.136-.119-11.81-.877zm6.365-9.947l2.205-2.25 2.214 2.25c3.038 3.087 9.765 3.076 14.364-.024 6.527-4.399 9.41-11.077 6.847-15.866-.9-1.682-.731-2.098 1.04-2.561 2.82-.738 5.035-5.26 5.035-10.281 0-8.647-5.38-15.376-11.846-14.817-5.722.495-6.042 2.389-2.318 13.75 1.824 5.564 4.035 10.455 4.974 11.002 1.425.832 1.285.99-.894 1.017-1.586.018-5.933 2.527-11.25 6.49-4.767 3.554-8.666 6.065-8.666 5.581 0-1.026-12.924-10.593-16.53-12.237-1.555-.708-2.143-1.519-1.604-2.211 1.546-1.987 6.134-16.557 6.134-19.48 0-3.907-2.17-5.491-6.429-4.692-5.427 1.018-10.543 8.699-10.566 15.861-.011 3.807 2.847 8.643 5.502 9.31 1.88.47 2.33.97 1.566 1.735-.59.59-1.073 2.992-1.073 5.338 0 10.045 14.97 18.54 21.295 12.085zm9.389-12.693c9.606-4.362 10.373-19.048 1.276-24.421-3.428-2.025-11.12-2.122-14.861-.187-8.21 4.245-9.219 17.347-1.768 22.96 5.26 3.963 9.298 4.396 15.353 1.648zm-9.664-5.317c-7.616-3.928-5.316-14.74 3.135-14.74 5.799 0 8.488 3.242 7.881 9.5-.443 4.565-6.624 7.505-11.016 5.24zm13.415-23.715c2.784-1.059 3.442-4.518 1.535-8.08-2.68-5.007-14.588-6.695-20.745-2.94-5.45 3.322-6.423 9.162-1.836 11.015 2.934 1.186 17.931 1.189 21.046.004zm-77.05 8.175c7.532-3.524 16.212-11.53 19.51-17.995 12.317-24.142.778-52.45-24.742-60.701-4.035-1.305-7.734-1.633-15.079-1.338-8.548.343-10.547.792-16.433 3.69-8.544 4.206-15.59 11.261-19.814 19.843-3.168 6.435-3.326 7.287-3.299 17.78.024 9.084.429 12.023 2.304 16.723 4.08 10.225 14.376 19.725 25.747 23.759 4.851 1.72 7.657 2.033 15.533 1.728 8.209-.317 10.584-.826 16.274-3.489zm-29.132-3.603c-25.14-8.193-33.586-39.726-15.886-59.318 1.978-2.19 6.417-5.484 9.864-7.322 5.285-2.817 7.566-3.41 14.533-3.775 10.139-.533 15.59.871 23.255 5.99 18.5 12.353 21.12 38.006 5.578 54.62-6.79 7.26-14.111 10.498-24.597 10.88-5.344.194-10.077-.205-12.747-1.075zm25.27-8.632c6.085-2.234 10.95-11.435 8.68-16.417-.9-1.978-.706-2.453 1.395-3.41 6.763-3.082 5.377-18.648-2.096-23.544-3.14-2.058-8.392-1.747-9.85.583-1.168 1.865 2.243 14.744 5.425 20.486 1.72 3.104 1.712 3.173-.412 3.716-2.738.7-15.772 10.061-16.957 12.179-.489.873-.617 2.668-.286 3.99.973 3.876 7.21 4.946 14.1 2.417zm-17.352-.62c2.61-2.362 2.261-5.575-.921-8.486-3.662-3.348-12.286-9.375-14.613-10.213-1.313-.472-1.574-1.035-.883-1.908 1.351-1.709 6.246-16.791 6.245-19.241-.001-1.9.559-1.98 11.542-1.66 12.752.372 14.459-.213 14.459-4.96 0-7.074-11.32-11.278-20.282-7.532-4.104 1.715-5.98 3.997-6.113 7.433-.098 2.531-.371 2.699-3.868 2.367-5.012-.476-8.422 1.89-10.944 7.59-3.6 8.14-.916 17.225 5.112 17.295 2.245.027 2.359.168.845 1.05-2.43 1.415-2.311 8.488.211 12.624 3.769 6.181 14.977 9.472 19.21 5.641zm9.34-12.785c4.736-1.98 7.48-6.809 7.485-13.175.003-3.677-.583-5.862-2.084-7.77-6.445-8.193-19.495-7.274-24.07 1.695-6.209 12.17 5.852 24.605 18.668 19.25zm-10.19-5.749c-4.707-2.275-5.3-10.311-.984-13.334 5.534-3.877 12.663-.068 12.663 6.765 0 6-5.942 9.343-11.679 6.57zm-73.781-6.363c12.216-3.181 21.564-10.834 27.225-22.288 3.632-7.348 3.735-7.86 3.735-18.608 0-10.366-.2-11.473-3.209-17.826-8.18-17.271-27.374-27.267-45.827-23.867-25.164 4.636-40.3 28.15-33.912 52.68 5.843 22.44 29.158 35.854 51.988 29.909zm-20.61-5.751c-10.4-2.95-19.029-10.412-23.795-20.577-2.237-4.77-2.635-6.984-2.635-14.641 0-8.177.307-9.645 3.287-15.697 5.338-10.844 14.617-17.677 27.177-20.013 7.082-1.317 15.688-.008 22.374 3.403 6.069 3.097 13.002 10.164 16.236 16.55 2.654 5.242 2.926 6.706 2.926 15.778s-.272 10.536-2.926 15.778c-3.592 7.093-10.833 14.035-18.116 17.37-6.645 3.042-17.756 3.97-24.529 2.049zm6.394-9.738l2.595-2.04 2.04 2.04c4.416 4.416 15.557 1.356 20.088-5.517 2.154-3.267 2.587-9.408.79-11.205-.884-.884-.538-1.4 1.44-2.152 3.495-1.33 4.723-3.95 4.723-10.085 0-5.66-.972-8.136-4.81-12.25-1.902-2.04-3.517-2.75-6.255-2.75-6.387 0-6.786 1.703-3.06 13.069 1.787 5.452 3.928 10.591 4.758 11.422 1.346 1.345 1.277 1.509-.635 1.509-2.36 0-17.998 10.741-17.998 12.362 0 .557-1.238-.129-2.75-1.524-3.993-3.682-15.809-11.838-17.15-11.838-.777 0-.684-.726.286-2.25 2.027-3.182 6.791-18.845 6.201-20.383-.376-.98.101-1.056 2.026-.324 3.215 1.222 17.498 1.245 20.685.034 3.025-1.15 3.927-3.353 2.699-6.585-1.464-3.851-6.657-6.484-12.797-6.488-8.098-.006-13.2 3.422-13.2 8.867 0 1.693-.504 1.928-3.25 1.518-7.042-1.05-12.75 5.977-12.75 15.698 0 4.049.508 5.825 2.174 7.599 1.196 1.273 2.787 2.314 3.535 2.314 1.036 0 1.114.462.326 1.934-2.951 5.515.643 13.132 7.935 16.816 5.522 2.79 9 2.849 12.354.21zm9.348-12.897c7.305-3.317 10.214-11.284 6.77-18.54-2.355-4.966-6.689-7.514-12.788-7.518-7.63-.006-12.074 3.489-13.72 10.788-1.548 6.863 2.004 13.375 8.566 15.702 5.232 1.855 6.218 1.817 11.172-.432zm-9.463-5.087c-5.746-2.36-5.74-12.008.01-14.425 5.534-2.327 10.174.165 11.361 6.102 1.111 5.554-5.8 10.612-11.371 8.323z" fill="#0f1938"/><path d="M55.42 443.045C30.982 436.58 12.563 419.99 4.099 396.82l-2.68-7.335-.279-163.5C.893 81.241 1.04 61.678 2.413 55.443 8.607 27.324 33.24 5.4 63.563 1.017c9.244-1.336 222.47-1.336 231.713 0C325.6 5.4 350.233 27.324 356.427 55.443c1.374 6.235 1.52 25.798 1.272 170.543l-.28 163.5-2.678 7.335c-4 10.949-8.44 17.783-17.321 26.665-9.215 9.215-15.923 13.458-28.239 17.865l-8.761 3.135-119 .205c-113.001.195-119.353.112-126-1.646zm248-3.336c19.408-5.639 36.424-19.372 44.308-35.76 7.7-16.005 7.286-5.03 6.97-184.963-.269-153.446-.363-160.742-2.142-166-7.797-23.046-24.067-39.152-46.636-46.168l-7.5-2.332h-239l-8 2.808c-24.818 8.71-42.564 28.85-46.43 52.692-.707 4.356-1.058 58.209-1.063 163.292-.008 175.404-.43 164.808 7.19 180.67 6.902 14.366 22.166 27.891 37.974 33.647 11.528 4.198 13.165 4.247 133.329 4.048 106.054-.175 115.467-.326 121-1.934z"/></svg>