<svg xmlns="http://www.w3.org/2000/svg" width="358.415" height="445.917"><path d="M61.331 444.977c-16.561-2.845-29.247-9.35-40.96-21.003-7.307-7.269-9.324-10.035-13.154-18.037-2.488-5.198-5.13-11.926-5.87-14.951C.245 386.49 0 355.722 0 222.486 0 69.816.112 59.081 1.765 53.099 8.352 29.254 25.927 11.317 51 2.849l7-2.363L175.7.212c127.492-.296 124.083-.423 137.757 5.1 19.847 8.017 34.938 24.01 41.89 44.396L358 57.486l.27 161.48c.306 182.4.78 170.44-7.41 187.017-3.879 7.85-6.182 10.987-13.279 18.084-7.13 7.13-10.197 9.377-18.084 13.247-17.931 8.799-6.664 8.119-137.497 8.302-63.8.09-118.101-.198-120.67-.64zm245.66-7.315c18.462-6.524 32.042-18.452 40.565-35.63 6.223-12.543 5.913-3.15 5.93-179.566.014-159.806-.002-161.077-2.057-168.493C346.206 35.124 333.36 20.101 315 11.369c-15.384-7.317-6.81-6.883-136-6.883-108.036 0-116.446.122-122.5 1.777-20.282 5.544-37.173 18.99-45.519 36.238-6.848 14.151-6.45 3.042-6.466 180.525-.016 178.759-.544 165.21 7.038 180.7 8.354 17.066 24.755 30.136 44.269 35.278 6.869 1.81 12.26 1.883 125.178 1.687l118-.205 7.99-2.824zM105.142 379.47c-22.239-5.639-38.026-23.472-40.856-46.15-4.689-37.572 29.628-67.63 67.12-58.793 9.318 2.196 17.697 7.01 25.12 14.433 33.483 33.484 11.394 89.648-36.027 91.603-6.315.26-11.464-.106-15.357-1.093zm24.007-9.878c33.104-8.814 44.36-49.555 20.33-73.585-9.53-9.531-21.118-13.708-35.327-12.734-6.38.438-9.324 1.235-15.114 4.097-22.603 11.171-31.56 37.247-20.438 59.503 3.29 6.584 12.303 15.75 18.694 19.01 9.565 4.879 22.016 6.329 31.855 3.71zm-21.466-5.103c-19.137-5.381-30.773-23.463-28.026-43.55 1.177-8.603 5.22-16.16 12.008-22.445 8.106-7.505 14.653-9.937 26.834-9.968 8.617-.022 10.123.27 16.2 3.143 8.55 4.04 15.097 10.591 19.068 19.076 2.712 5.796 3.12 7.767 3.146 15.2.037 10.463-1.27 15.102-6.43 22.828-4.331 6.487-11.594 12.132-18.984 14.758-6.504 2.31-17.44 2.75-23.816.958zm25.947-11.087c3.386-1.729 7.69-6.85 8.513-10.133.929-3.7-.766-7.722-3.413-8.101-1.44-.207-5.004 1.635-10.073 5.208-9.508 6.7-10.557 7.883-9.772 11.014 1.101 4.387 8.199 5.356 14.745 2.012zm-19.09-.246c3.648-2.955 2.004-5.943-6.698-12.169-9.866-7.06-10.899-7.444-13.366-4.976-2.685 2.684-2.484 6.766.553 11.236 4.669 6.87 14.606 9.88 19.51 5.909zm12.562-15.252c4.055-3.789 5.68-7.722 5.145-12.464-.85-7.54-6.339-12.456-13.902-12.45-14.525.013-19.898 17.693-7.846 25.816 4.678 3.153 12.73 2.716 16.603-.902zm-15.148-4.372c-1.806-1.806-2.455-3.535-2.455-6.545 0-8.616 9.01-12.145 15.2-5.954 2.632 2.633 2.967 3.55 2.457 6.75-1.207 7.58-10.033 10.919-15.202 5.75zm32.294-1.082c4.572-3.202 4.835-13.461.496-19.386-2.605-3.557-7.913-6.134-10.604-5.146-3.139 1.15-3.16 4.987-.081 14.356 3.765 11.455 5.66 13.348 10.189 10.176zm-44.064-8.963c4.387-12.396 4.154-16.5-.935-16.5-5.145 0-9.666 4.734-11.874 12.434-1.915 6.675 1.882 13.962 6.967 13.373 2.373-.274 2.998-1.27 5.842-9.307zm29.84-15.594c1.087-1.089 1.38-2.44.922-4.261-1.64-6.534-13.398-9.751-21.162-5.79-6.583 3.358-7.614 9.994-1.785 11.49 1.1.282 6.147.432 11.216.334 6.922-.135 9.612-.576 10.808-1.773zM229 380.026c-25.615-5.54-43.547-27.535-43.485-53.34.034-14.317 5.473-27.2 15.958-37.796 16.713-16.892 41.503-20.66 63.968-9.726 8.436 4.106 18.46 14.13 22.82 22.822 14.806 29.509.352 65.663-30.351 75.923-7.608 2.542-22.055 3.6-28.91 2.117zm21.965-10.573c8.463-2.204 14.746-5.959 21.075-12.594 20.628-21.626 14.237-55.99-12.908-69.405-21.991-10.869-48.597-1.49-59.218 20.875-15.906 33.493 15.012 70.511 51.051 61.124zm-21.44-5.006c-7.663-2.149-12.94-5.493-18.821-11.929-21.401-23.416-6.22-61.551 25.562-64.216 12.285-1.03 21.823 2.345 30.906 10.935 16.177 15.3 15.796 40.842-.838 56.242-9.653 8.937-24.245 12.492-36.81 8.968zm26.707-11.64c3.75-2.277 6.847-6.296 7.812-10.14.826-3.293-1.733-7.681-4.48-7.681-2.271 0-17.513 11.101-18.963 13.812-1.246 2.327.244 4.656 3.899 6.098 3.137 1.237 7.55.452 11.732-2.088zm-19.954.622c4.3-3.012 2.462-6.039-8.278-13.634-8.237-5.824-9.369-6.238-11.583-4.234-1.128 1.02-1.917 3.051-1.917 4.932 0 9.39 14.524 18.017 21.778 12.936zm10.183-13.923c8.913-4.609 10.4-15.968 3.017-23.041-2.404-2.304-4.09-2.932-8.775-3.27-5.176-.375-6.146-.128-9.037 2.305-6.282 5.286-7.861 12.193-4.171 18.245 3.975 6.52 12.495 9.108 18.966 5.761zm-12.632-5.914c-6.123-5.266-2.086-15.606 6.092-15.606 1.834 0 4.484.924 5.944 2.073 2.145 1.687 2.635 2.904 2.635 6.545 0 8.501-8.31 12.46-14.671 6.988zm31.126-.227c4.52-1.735 5.905-11.794 2.532-18.404-3.322-6.512-10.07-9.32-13.692-5.699-1.368 1.369-1.195 2.573 1.68 11.644 3.843 12.127 5.312 14.058 9.48 12.459zm-45.16-4.129c3.031-7.111 6.015-18 5.384-19.645-1.458-3.8-7.277-3.16-11.726 1.288-7.167 7.167-5.549 22.107 2.395 22.107 1.763 0 2.747-.935 3.947-3.75zm30.14-20.225c1.787-.68 2.565-1.716 2.565-3.418 0-4.015-1.047-5.59-5.083-7.65-7.393-3.77-17.802-1.536-20.75 4.455-2.736 5.558.38 7.43 12.518 7.525 4.502.034 9.34-.376 10.75-.912zM106.5 171.49c-16.264-3.669-30.524-14.977-37.556-29.785-9.726-20.48-5.518-44.88 10.477-60.747 11.155-11.066 23.248-15.973 39.363-15.973 30.009 0 53.716 24.02 53.716 54.426 0 23.022-16.034 44.193-38.703 51.104-7.321 2.232-19.756 2.676-27.297.975zm21.913-10.046c3.528-.832 8.59-2.696 11.25-4.144 5.91-3.217 14.787-12.339 17.864-18.36 11.508-22.51 2.129-49.418-21.027-60.32-8.888-4.186-21.528-4.884-31.816-1.76-31.505 9.57-41.244 49.405-17.756 72.629 11.72 11.588 25.812 15.65 41.485 11.955zm-17.132-4.49c-30.483-5.135-42.819-43.255-21.198-65.5 12.44-12.801 34.203-15.125 49.64-5.301 6.322 4.023 10.44 8.9 14.17 16.785 2.773 5.862 3.09 7.488 3.035 15.547-.081 11.712-2.616 18.429-9.935 26.334-6.07 6.557-13.145 10.452-21.927 12.072-6.541 1.206-6.992 1.208-13.785.064zm3.758-12.002c3.477-2.885 1.762-5.653-7.694-12.417-5.036-3.603-9.613-6.55-10.172-6.55-1.963 0-4.673 3.336-4.673 5.754 0 5.463 5.408 12.045 12 14.606 2.237.87 8.87-.007 10.54-1.393zm20.89-1.345c5.744-4.381 7.937-10.2 5.536-14.688-1.6-2.99-5.093-2.318-11.552 2.22-11.494 8.075-13.062 10.366-9.665 14.12 2.592 2.864 10.909 1.988 15.68-1.652zm-11.449-12.374c13.514-6.79 8.566-26.581-6.646-26.581-14.5 0-19.144 20.248-6.116 26.67 4.276 2.107 8.45 2.078 12.762-.089zM114 126.881c-3.339-1.91-4.5-4.08-4.5-8.412 0-5.474 3.062-8.496 8.565-8.451 4.336.035 6.467 1.263 8.363 4.823 1.576 2.958.65 8.311-1.823 10.55-2.392 2.165-8.04 2.958-10.605 1.49zm32.254-4.642c3.36-5.13 1.412-15.043-3.909-19.888-4.998-4.551-10.845-3.76-10.845 1.468 0 3.908 5.582 19.388 7.497 20.788 2.201 1.61 5.317.593 7.257-2.368zm-48.92.497c2.135-4.1 6.166-17.056 6.166-19.818 0-2.894-1.509-3.932-5.714-3.932-6.14 0-12.846 12.765-10.268 19.547 2.44 6.42 7.527 8.598 9.816 4.203zm33.216-23.31c1.896-2.284.109-6.416-3.961-9.16-4.01-2.702-11.288-3.06-16.654-.817-4.054 1.694-6.864 6.867-5.309 9.773.82 1.533 2.496 1.764 12.787 1.764 9.508 0 12.097-.307 13.137-1.56zm101.95 72.9c-11.466-1.776-23.28-7.627-31.017-15.36-9.843-9.838-14.73-20.762-15.647-34.98-2.028-31.428 22.271-57 54.164-57 26.068 0 47.682 17.336 52.99 42.5 2.744 13.017 1.13 24.72-5.023 36.431-10.283 19.568-34.03 31.73-55.467 28.41zm16.2-10.455c8.642-1.817 15.835-5.776 22.372-12.313 13.455-13.455 16.87-32.004 9.042-49.104-5.3-11.578-14.812-19.952-26.798-23.592-10.421-3.166-22.935-2.41-31.957 1.928-19.74 9.494-29.68 30.104-24.364 50.516 2.117 8.128 4.96 13.223 10.851 19.453 6.31 6.67 12.177 10.197 20.654 12.413 7.737 2.022 13.039 2.206 20.2.7zm-17.2-5.252c-12.138-2.648-23.77-12.323-28.116-23.386-1.74-4.426-2.265-7.816-2.286-14.747-.025-7.987.317-9.737 3.04-15.547 7.36-15.711 20.926-23.756 38.354-22.747 23.202 1.343 39.608 21.76 35.94 44.725-2.669 16.701-15.462 29.295-32.611 32.104-6.953 1.139-7.3 1.129-14.321-.402zm3.398-10.768c2.791-1.272 3.914-3.352 3.108-5.756-.635-1.89-17.134-14.109-19.052-14.109-2.332 0-4.454 3.06-4.454 6.424 0 4.484 3.62 9.463 8.907 12.252 4.897 2.582 7.778 2.88 11.49 1.189zm20.558-.842c6.568-3.351 10.113-10.029 8.014-15.097-1.8-4.343-4.46-3.742-14.29 3.231-7.365 5.225-8.68 6.58-8.68 8.95 0 1.606.744 3.227 1.75 3.813 2.834 1.65 9.038 1.229 13.206-.897zm-9.572-13.41c1.825-.763 4.398-2.9 5.717-4.75 6.427-9.011-.365-22.196-11.435-22.196-15.207 0-20.094 19.698-6.595 26.581 4.138 2.11 7.871 2.22 12.313.365zm-10.364-4.897c-5.27-2.667-6.388-8.937-2.431-13.64 2.14-2.543 3.322-3.076 6.826-3.076 5.42 0 8.585 3.036 8.585 8.233 0 4.988-.795 6.61-4.071 8.304-3.445 1.781-5.654 1.826-8.91.179zm31.057-3.64c2.385-2.384 2.923-3.77 2.923-7.531 0-5.48-1.852-10.246-5.121-13.18-4.331-3.887-9.953-4.22-11.316-.668-.746 1.945 5.058 20.07 7.222 22.553 2.072 2.378 2.895 2.224 6.292-1.173zm-47.702-.326c.781-1.238 2.69-6.206 4.242-11.04 3.196-9.956 2.787-12.001-2.502-12.526-6.331-.628-13.241 10-11.732 18.044 1.274 6.79 7.143 10.034 9.992 5.522zm33.437-24.95c.692-5.997-4.598-9.8-13.632-9.8-8.219 0-15.806 7.13-12.205 11.47 1.098 1.323 3.348 1.542 13.422 1.31l12.103-.28.312-2.7z" fill="#c2c5cd"/><path d="M61.331 444.977c-16.561-2.845-29.247-9.35-40.96-21.003-7.307-7.269-9.324-10.035-13.154-18.037-2.488-5.198-5.13-11.926-5.87-14.951C.245 386.49 0 355.722 0 222.486 0 69.816.112 59.081 1.765 53.099 8.352 29.254 25.927 11.317 51 2.849l7-2.363L175.7.212c127.492-.296 124.083-.423 137.757 5.1 19.847 8.017 34.938 24.01 41.89 44.396L358 57.486l.27 161.48c.306 182.4.78 170.44-7.41 187.017-3.879 7.85-6.182 10.987-13.279 18.084-7.13 7.13-10.197 9.377-18.084 13.247-17.931 8.799-6.664 8.119-137.497 8.302-63.8.09-118.101-.198-120.67-.64zm245.66-7.315c18.462-6.524 32.042-18.452 40.565-35.63 6.223-12.543 5.913-3.15 5.93-179.566.014-159.806-.002-161.077-2.057-168.493C346.206 35.124 333.36 20.101 315 11.369c-15.384-7.317-6.81-6.883-136-6.883-108.036 0-116.446.122-122.5 1.777-20.282 5.544-37.173 18.99-45.519 36.238-6.848 14.151-6.45 3.042-6.466 180.525-.016 178.759-.544 165.21 7.038 180.7 8.354 17.066 24.755 30.136 44.269 35.278 6.869 1.81 12.26 1.883 125.178 1.687l118-.205 7.99-2.824zM109.5 380.296c-27.164-4.542-48.069-30.987-45.523-57.587 1.242-12.977 5.754-22.751 15.054-32.61 23.477-24.887 63.726-22.031 83.351 5.914 7.4 10.536 9.636 17.922 9.533 31.473-.068 8.97-.51 12.108-2.399 17-9.605 24.89-34.937 40.003-60.017 35.81zm25-12.206c24.54-9.516 35.091-38.402 22.814-62.466-2.694-5.281-10.273-13.236-15.566-16.338-18.301-10.725-43.037-7.346-56.667 7.74-8.47 9.376-12.837 24.17-10.787 36.542 2.93 17.68 14.973 31.188 32.205 36.121 6.578 1.884 21.167 1.05 28-1.6zm-25.5-3.45c-23.934-6.232-36.423-31.877-26.233-53.864 3.824-8.249 9.775-14.208 18.495-18.518 7.158-3.538 8.195-3.77 16.685-3.736 11.702.047 18.4 2.578 26.382 9.967 12.92 11.961 16.452 29.282 9.143 44.831-7.594 16.157-27.555 25.725-44.473 21.32zm25.269-11.383c8.27-3.839 11.332-18.271 3.877-18.271-3.315 0-18.534 10.96-19.309 13.905-1.682 6.393 6.239 8.634 15.432 4.366zm-19.599.074c3.607-3.264 2.34-5.888-5.72-11.849-6.313-4.669-11.195-7.496-12.945-7.496-.2 0-1.07.707-1.935 1.571-4.336 4.337.672 15.212 8.43 18.306 3.962 1.58 10.135 1.31 12.17-.532zm11.64-14.37c8.111-4.946 8.111-19.004 0-23.95-4.426-2.697-11.982-2.7-16.342-.005-3.306 2.043-6.469 8-6.469 12.185 0 3.958 3.923 10.507 7.288 12.166 4.524 2.231 11.505 2.053 15.522-.396zm-13.734-5.564c-7.453-6.271-.446-18.026 8.813-14.785 1.436.503 3.479 2.528 4.541 4.5 1.702 3.162 1.774 3.964.61 6.777-1.366 3.296-5.462 6.097-8.915 6.097-1.085 0-3.357-1.165-5.05-2.589zm31.672-.948c6.502-4.554 3.79-20.081-4.166-23.857-5.105-2.422-8.587-1.304-8.57 2.752.013 3.108 4.085 17.088 6.044 20.748 1.227 2.293 3.737 2.427 6.692.357zm-46.682-1.588c2.241-4.188 5.933-16.286 5.933-19.443 0-7.41-10.396-5.368-14.661 2.88-2.216 4.285-2.233 12.675-.031 16.034 2.221 3.392 7.07 3.684 8.759.529zm30.694-21.508c3.041-.815 3.906-4.7 1.772-7.958-4.88-7.447-21.635-6.956-25.289.741-1.51 3.184-.722 5.712 2.145 6.87 2.445.988 18.035 1.241 21.372.347zm99.515 70.122c-9.476-2.06-19.11-7.622-26.553-15.33-18.836-19.512-20.8-47.862-4.789-69.159 20.043-26.66 57.194-29.477 81.34-6.165 22.522 21.743 21.906 56.044-1.395 77.616-13.089 12.118-30.876 16.89-48.603 13.038zm22.61-9.549c22.165-5.11 37.149-27.616 33.306-50.027-3.788-22.088-21.335-36.913-43.692-36.913-12.913 0-24.292 4.794-32.692 13.774-22.401 23.949-11.202 64.18 20.216 72.623 6.43 1.727 16.669 1.97 22.861.543zm-19.268-5.052c-6.202-1.456-15.283-6.801-19.706-11.599-2.245-2.436-5.481-7.418-7.19-11.07-2.66-5.682-3.11-7.8-3.127-14.68-.024-9.73 1.978-16.146 7.183-23.015 11.73-15.482 30.87-20.557 47.746-12.66 24.675 11.547 30.61 43.098 11.669 62.039-9.787 9.786-23.78 13.989-36.575 10.985zm20.66-9.948c8.166-2.268 14.185-11.019 11.824-17.19-1.15-3.006-3.726-3.557-7.409-1.586-4.491 2.404-15.505 10.903-16.084 12.412-.816 2.127 1.042 5.343 3.706 6.417 2.917 1.175 3.555 1.17 7.962-.053zm-15.238-1.771c3.714-3.007 2.053-6.038-6.76-12.334-4.279-3.057-8.745-5.861-9.925-6.23-5.05-1.584-7.184 6.7-3.33 12.935 3.94 6.374 15.188 9.538 20.015 5.629zm10.686-13.843c3.861-1.832 7.214-7.692 7.252-12.675.033-4.23-2.907-9.637-6.398-11.765-4.203-2.563-12.067-2.496-16.39.14-8.16 4.974-8.025 19.054.23 24.088 3.84 2.342 10.619 2.436 15.306.212zm-11.838-4.826c-7.958-4.325-4.499-16.5 4.689-16.5 7.966 0 11.512 10.223 5.346 15.411-3.439 2.894-6.17 3.19-10.035 1.09zm31.658-2.955c4.403-4.403 2.935-16.093-2.667-21.224-3.623-3.318-10.346-3.574-11.344-.433-.61 1.925 4.857 20.589 6.698 22.862 1.595 1.97 4.64 1.468 7.313-1.205zm-44.86-8.045c3.594-10.16 4.12-14.977 1.732-15.893-3.157-1.212-6.326-.555-9.27 1.921-8.569 7.211-7.623 24.144 1.301 23.27 2.876-.28 3.234-.814 6.236-9.298zm27.1-14.107c3.262-.653 4.2-2.467 3.258-6.303-2.044-8.326-20.43-9.535-25.576-1.68-2.17 3.31-1.268 7.296 1.784 7.884 3.608.696 17.224.76 20.534.099zM108.841 171.948c-21.99-3.918-39.468-21.181-44.005-43.462-5.122-25.15 10.244-51.627 35.203-60.66 7.308-2.646 21.709-3.553 29.781-1.877 19.666 4.082 37.477 22.002 41.583 41.836 4.438 21.44-5.334 44.088-24.33 56.391-10.406 6.74-26.111 9.932-38.232 7.772zm17.768-9.983c12.112-2.297 23.615-10.115 29.599-20.117 12.151-20.313 5.87-48.004-13.693-60.353-7.739-4.885-15.541-6.744-26.606-6.34-9.264.34-10.711.676-17.658 4.11-17.347 8.573-27.091 27.383-23.963 46.26 4.15 25.048 27.316 41.182 52.321 36.44zm-16.943-5.493c-7.768-1.71-13.449-4.945-19.544-11.128-18.614-18.88-12.397-50.668 12.16-62.178 5.01-2.348 6.96-2.68 15.74-2.68 9.295 0 10.5.236 16.658 3.268 8.491 4.18 16.756 12.874 19.912 20.947 3.404 8.707 3.276 20.825-.302 28.52-3.432 7.384-7.105 12.15-12.588 16.337-8.819 6.734-20.958 9.354-32.036 6.914zm4.612-11.043c2.851-1.997 2.84-5.53-.027-8.15-4.311-3.937-15.89-11.293-17.778-11.293-2.308 0-3.972 2.844-3.972 6.786 0 9.006 14.75 17.58 21.777 12.657zm20.3-.717c6.484-4.369 9.41-11.078 6.887-15.792-1.81-3.38-5.668-2.285-14.56 4.134-7.192 5.193-8.405 6.484-8.405 8.95 0 3.608 2.135 4.912 8.102 4.952 3.17.02 5.653-.678 7.976-2.244zm-9.14-13.553c8.615-4.62 9.466-17.777 1.553-24.002-5.803-4.564-16.265-3.106-20.511 2.858-8.926 12.534 5.342 28.447 18.958 21.144zm-9.938-3.88c-6.191-2.263-8.106-10.278-3.545-14.838 4.975-4.976 13.788-1.911 15.167 5.274.532 2.773.122 3.727-2.901 6.75-3.363 3.363-5.412 4.024-8.72 2.815zm28.749-2.83c4.805-3.365 4.894-13.942.174-20.572-2.329-3.27-7.082-5.319-10.404-4.485-3.365.844-3.337 4.597.11 15.09 3.693 11.237 5.61 13.126 10.12 9.967zm-46.406-2.213c2.3-4.534 5.867-17.72 5.5-20.322-.284-2.014-.99-2.481-4.13-2.74-3.184-.263-4.325.224-7.16 3.06-7.71 7.71-6.44 22.752 1.921 22.752 1.695 0 2.914-.867 3.87-2.75zm32.97-23.382c1.602-2.544-.941-7.464-4.806-9.298-4.725-2.242-13.243-2.028-17.282.434-3.917 2.389-5.692 6.255-4.174 9.092.97 1.812 1.99 1.943 13.144 1.684 9.89-.229 12.278-.577 13.118-1.912zm100.45 73.157c-12.638-2.282-22.866-7.95-31.572-17.494-23.642-25.922-16.374-66.83 14.829-83.46 11.125-5.93 26.932-7.79 38.972-4.586 20.977 5.582 37.135 23.718 40.21 45.131 3.553 24.732-11.928 49.594-36.1 57.977-7.503 2.602-19.34 3.695-26.339 2.432zm24.454-12.005c24.603-9.205 35.568-37.589 23.8-61.61-3.825-7.804-11.985-15.553-20.758-19.709-6.436-3.048-7.332-3.201-18.759-3.201-11.414 0-12.328.155-18.723 3.185-22.94 10.867-32.095 36.855-21.141 60.01 5.166 10.92 17.867 20.626 30.472 23.288 6.475 1.367 18.779.405 25.109-1.963zm-22.566-3.05c-15.496-2.662-28.337-15.402-31.64-31.39-3.394-16.427 5.714-33.889 21.81-41.812 6.157-3.032 7.362-3.268 16.658-3.268 8.78 0 10.73.332 15.74 2.68 19.089 8.947 28.217 31.482 20.364 50.275-3.911 9.362-13.672 18.613-23.083 21.878-5.546 1.924-14.084 2.628-19.85 1.638zm3.127-11.527c4.342-3.042 2.955-5.927-6.008-12.492-8.966-6.567-12.004-7.831-14.283-5.94-2.536 2.104-1.902 9.342 1.134 12.95 5.26 6.252 14.346 8.852 19.157 5.482zm19.153.093c9.097-4.705 12.264-18.536 4.243-18.536-3.03 0-18.441 10.649-19.535 13.499-.717 1.867.712 5.074 2.6 5.835 2.646 1.066 9.979.605 12.692-.798zm-7.829-14.806c9.088-6.07 8.888-19.542-.361-24.385-4.54-2.377-12.054-2.24-15.495.284-5.907 4.33-7.864 12.885-4.419 19.31 3.666 6.835 13.675 9.2 20.275 4.791zm-13.175-5.504c-4.437-3.965-4.675-9.325-.571-12.856 6.073-5.224 14.644-1.473 14.644 6.41 0 4.534-2.887 7.847-7.67 8.804-2.495.5-3.703.054-6.403-2.358zm33.323-2.424c4.55-5.261.547-19.987-6.192-22.778-3.711-1.537-7.722-.659-8.523 1.867-.74 2.333 4.956 20.457 7.106 22.607 1.892 1.892 5.131 1.17 7.61-1.696zm-45.541-7.302c1.765-4.95 3.115-10.575 3-12.5-.182-3.047-.578-3.542-3.066-3.827-7.054-.806-12.418 4.875-13.275 14.059-.391 4.19-.065 5.945 1.593 8.58 1.76 2.797 2.586 3.263 5.312 3 3.095-.3 3.359-.681 6.436-9.312zm30.099-16.25c1.416-2.822-.142-6.559-3.748-8.989-6.394-4.308-19.336-2.34-21.921 3.334-2.916 6.399-1.145 7.405 13.026 7.405 10.203 0 11.881-.232 12.643-1.75z" fill="#bebebe"/><path d="M59.134 444.386c-26.019-4.7-47.297-23.173-56.326-48.9l-2.808-8v-163.5c0-133.137.249-164.521 1.338-169 .736-3.025 3.346-9.622 5.8-14.66 9.342-19.18 27.07-33.184 48.515-38.325C63.75.06 67.428 0 179 0 289.13 0 294.34.082 302 1.928c9.968 2.402 16.127 5.076 24.691 10.722 9.968 6.571 19.024 16.902 24.323 27.747 8.036 16.444 7.579 4.732 7.265 186.089l-.279 161-2.724 8c-6.992 20.532-22.422 36.807-42.707 45.05-13.372 5.434-13.968 5.458-134.45 5.36-91.373-.074-112.517-.342-118.985-1.51zm247.366-6.241c19.552-7.043 33.224-18.905 41.102-35.659 6.256-13.305 5.898-2.43 5.898-179.16 0-111.92-.332-162.863-1.084-166.54-.596-2.915-3.105-9.511-5.575-14.658-9.521-19.842-29.058-33.797-51.943-37.105-4.244-.614-48.875-1.005-116.017-1.017-93.699-.017-110.364.197-117.926 1.516-22.03 3.842-40.229 17.062-49.508 35.964C3.99 56.68 4.5 43.351 4.5 222.536c0 156.04.061 161.369 1.935 168.694 5.655 22.113 22.525 39.565 45.065 46.62 3.575 1.12 7.625 2.227 9 2.461 1.375.235 55.825.37 121 .3l118.5-.125 6.5-2.341zm-197-57.85c-27.163-4.541-48.068-30.986-45.522-57.586 1.242-12.977 5.754-22.751 15.054-32.61 23.477-24.887 63.726-22.031 83.351 5.914 7.4 10.536 9.636 17.922 9.533 31.473-.068 8.97-.51 12.108-2.399 17-9.605 24.89-34.937 40.003-60.017 35.81zm25-12.205c24.542-9.516 35.092-38.402 22.815-62.466-2.694-5.281-10.273-13.236-15.566-16.338-18.301-10.725-43.037-7.346-56.667 7.74-8.47 9.376-12.837 24.17-10.787 36.542 2.93 17.68 14.973 31.188 32.205 36.121 6.578 1.884 21.167 1.05 28-1.6zm-25.5-3.45c-23.933-6.232-36.422-31.877-26.232-53.864 3.824-8.249 9.775-14.208 18.495-18.518 7.158-3.538 8.195-3.77 16.685-3.736 11.702.047 18.4 2.578 26.382 9.967 12.92 11.961 16.452 29.282 9.143 44.831-7.594 16.157-27.555 25.725-44.473 21.32zm25.27-11.383c8.27-3.839 11.332-18.271 3.877-18.271-3.315 0-18.534 10.96-19.309 13.905-1.682 6.393 6.239 8.634 15.432 4.366zm-19.599.074c3.607-3.264 2.34-5.888-5.72-11.849-6.313-4.669-11.195-7.496-12.945-7.496-.2 0-1.07.707-1.935 1.571-4.336 4.337.672 15.212 8.43 18.306 3.962 1.58 10.135 1.31 12.17-.532zm11.64-14.37c8.111-4.946 8.111-19.004 0-23.95-4.426-2.697-11.982-2.7-16.342-.005-3.306 2.043-6.469 8-6.469 12.185 0 3.958 3.923 10.507 7.288 12.166 4.524 2.231 11.505 2.053 15.522-.396zm-13.734-5.564c-7.453-6.271-.446-18.026 8.813-14.785 1.436.503 3.479 2.528 4.541 4.5 1.702 3.162 1.774 3.964.609 6.777-1.365 3.296-5.46 6.097-8.914 6.097-1.085 0-3.357-1.165-5.05-2.589zm31.672-.948c6.502-4.554 3.79-20.081-4.166-23.857-5.105-2.422-8.587-1.304-8.57 2.752.013 3.108 4.085 17.088 6.044 20.748 1.227 2.293 3.737 2.427 6.692.357zm-46.682-1.588c2.241-4.188 5.933-16.286 5.933-19.443 0-7.41-10.396-5.368-14.661 2.88-2.216 4.285-2.233 12.675-.031 16.034 2.221 3.392 7.07 3.684 8.759.529zm30.694-21.508c3.041-.815 3.906-4.7 1.772-7.958-4.88-7.447-21.635-6.956-25.289.741-1.51 3.184-.722 5.712 2.145 6.87 2.445.988 18.035 1.241 21.372.347zm99.515 70.122c-9.476-2.06-19.11-7.622-26.553-15.33-18.836-19.512-20.8-47.862-4.789-69.159 20.043-26.66 57.194-29.477 81.34-6.165 22.522 21.743 21.906 56.044-1.395 77.616-13.089 12.118-30.876 16.89-48.603 13.038zm22.61-9.549c22.165-5.11 37.149-27.616 33.306-50.027-3.788-22.088-21.335-36.913-43.692-36.913-12.913 0-24.292 4.794-32.692 13.774-22.401 23.949-11.202 64.18 20.216 72.623 6.43 1.727 16.669 1.97 22.861.543zm-19.268-5.052c-6.202-1.456-15.283-6.801-19.706-11.599-2.245-2.436-5.481-7.418-7.19-11.07-2.66-5.682-3.11-7.8-3.127-14.68-.024-9.73 1.978-16.146 7.183-23.015 11.73-15.482 30.87-20.557 47.746-12.66 24.675 11.547 30.61 43.098 11.669 62.039-9.787 9.786-23.78 13.989-36.575 10.985zm20.66-9.948c8.166-2.268 14.185-11.019 11.824-17.19-1.15-3.005-3.726-3.557-7.409-1.586-4.491 2.404-15.505 10.903-16.084 12.412-.816 2.127 1.042 5.343 3.706 6.417 2.917 1.175 3.555 1.17 7.962-.053zm-15.238-1.771c3.714-3.007 2.053-6.038-6.76-12.334-4.279-3.057-8.745-5.861-9.925-6.23-5.05-1.584-7.184 6.7-3.33 12.935 3.94 6.374 15.188 9.538 20.015 5.629zm10.686-13.843c3.861-1.832 7.214-7.692 7.252-12.675.033-4.23-2.907-9.637-6.398-11.765-4.203-2.563-12.067-2.496-16.39.14-8.16 4.974-8.025 19.054.23 24.088 3.84 2.342 10.619 2.436 15.306.212zm-11.838-4.826c-7.958-4.325-4.499-16.5 4.689-16.5 7.966 0 11.512 10.223 5.346 15.411-3.439 2.894-6.17 3.19-10.035 1.09zm31.658-2.955c4.403-4.403 2.935-16.093-2.667-21.224-3.623-3.318-10.346-3.574-11.344-.433-.61 1.925 4.857 20.589 6.698 22.862 1.595 1.97 4.64 1.468 7.313-1.205zm-44.861-8.045c3.595-10.16 4.12-14.977 1.733-15.893-3.157-1.212-6.326-.555-9.27 1.921-8.569 7.211-7.623 24.144 1.301 23.27 2.876-.28 3.234-.814 6.236-9.298zm27.101-14.107c3.262-.653 4.2-2.467 3.258-6.303-2.044-8.326-20.43-9.535-25.576-1.68-2.17 3.31-1.268 7.296 1.784 7.884 3.608.696 17.224.76 20.534.099zM108.841 171.948c-21.99-3.918-39.468-21.181-44.005-43.462-5.122-25.15 10.244-51.627 35.203-60.66 7.308-2.646 21.709-3.553 29.781-1.877 19.666 4.082 37.477 22.002 41.583 41.836 4.438 21.44-5.334 44.088-24.33 56.391-10.406 6.74-26.111 9.932-38.232 7.772zm17.768-9.983c12.112-2.297 23.615-10.115 29.599-20.117 12.151-20.313 5.87-48.004-13.693-60.353-7.739-4.885-15.541-6.744-26.606-6.34-9.264.34-10.711.676-17.658 4.11-17.347 8.573-27.091 27.383-23.963 46.26 4.15 25.048 27.316 41.182 52.321 36.44zm-16.943-5.493c-7.768-1.71-13.449-4.945-19.544-11.128-18.614-18.88-12.397-50.668 12.16-62.178 5.01-2.348 6.96-2.68 15.74-2.68 9.295 0 10.5.236 16.658 3.268 8.491 4.18 16.756 12.874 19.912 20.947 3.404 8.707 3.276 20.825-.302 28.52-3.432 7.384-7.105 12.15-12.588 16.337-8.819 6.734-20.958 9.354-32.036 6.914zm4.612-11.043c2.851-1.997 2.84-5.53-.027-8.15-4.311-3.937-15.89-11.293-17.778-11.293-2.308 0-3.972 2.844-3.972 6.786 0 9.006 14.75 17.58 21.777 12.657zm20.3-.717c6.484-4.369 9.41-11.078 6.887-15.792-1.81-3.38-5.668-2.285-14.56 4.134-7.192 5.193-8.405 6.484-8.405 8.95 0 3.608 2.135 4.912 8.102 4.952 3.17.02 5.653-.678 7.976-2.244zm-9.14-13.553c8.615-4.62 9.466-17.777 1.553-24.002-5.803-4.564-16.265-3.106-20.511 2.858-8.926 12.534 5.342 28.447 18.958 21.144zm-9.938-3.88c-6.191-2.263-8.106-10.278-3.545-14.838 4.975-4.976 13.788-1.911 15.167 5.274.532 2.773.122 3.727-2.901 6.75-3.363 3.363-5.412 4.024-8.721 2.815zm28.749-2.83c4.805-3.365 4.894-13.942.174-20.572-2.329-3.27-7.082-5.319-10.404-4.485-3.365.844-3.337 4.597.11 15.09 3.693 11.237 5.61 13.126 10.12 9.967zm-46.406-2.213c2.3-4.534 5.867-17.72 5.5-20.322-.284-2.014-.99-2.481-4.13-2.74-3.184-.263-4.325.224-7.16 3.06-7.71 7.71-6.44 22.752 1.921 22.752 1.695 0 2.914-.867 3.869-2.75zm32.97-23.382c1.602-2.544-.941-7.464-4.806-9.298-4.725-2.242-13.243-2.028-17.282.434-3.917 2.389-5.692 6.255-4.174 9.092.97 1.812 1.99 1.943 13.144 1.684 9.89-.229 12.278-.577 13.118-1.912zm100.45 73.157c-12.638-2.282-22.866-7.95-31.572-17.494-23.642-25.922-16.374-66.83 14.829-83.46 11.125-5.93 26.932-7.79 38.972-4.586 20.977 5.582 37.135 23.718 40.21 45.131 3.553 24.732-11.928 49.594-36.1 57.977-7.503 2.602-19.34 3.695-26.339 2.432zm24.454-12.005c24.603-9.205 35.568-37.589 23.8-61.61-3.825-7.804-11.985-15.553-20.758-19.709-6.436-3.048-7.332-3.201-18.759-3.201-11.414 0-12.328.155-18.723 3.185-22.94 10.867-32.095 36.855-21.141 60.01 5.166 10.92 17.867 20.626 30.472 23.288 6.475 1.367 18.779.405 25.109-1.963zm-22.566-3.05c-15.496-2.662-28.337-15.402-31.64-31.39-3.394-16.427 5.714-33.889 21.81-41.812 6.157-3.032 7.362-3.268 16.658-3.268 8.78 0 10.73.332 15.74 2.68 19.089 8.947 28.217 31.482 20.364 50.275-3.911 9.362-13.672 18.613-23.083 21.878-5.546 1.924-14.084 2.628-19.85 1.638zm3.127-11.527c4.342-3.042 2.955-5.927-6.008-12.492-8.966-6.567-12.004-7.831-14.283-5.94-2.536 2.104-1.902 9.342 1.134 12.95 5.26 6.252 14.346 8.852 19.157 5.482zm19.153.093c9.097-4.705 12.264-18.536 4.243-18.536-3.03 0-18.441 10.649-19.535 13.499-.717 1.867.712 5.074 2.6 5.835 2.646 1.066 9.979.605 12.692-.798zm-7.829-14.806c9.088-6.07 8.888-19.542-.361-24.385-4.54-2.377-12.054-2.24-15.495.284-5.907 4.33-7.864 12.885-4.419 19.31 3.666 6.835 13.675 9.2 20.275 4.791zm-13.175-5.504c-4.437-3.965-4.675-9.325-.571-12.856 6.073-5.224 14.644-1.473 14.644 6.41 0 4.534-2.887 7.847-7.67 8.804-2.495.5-3.703.054-6.403-2.358zm33.323-2.424c4.55-5.261.547-19.987-6.192-22.778-3.711-1.537-7.722-.659-8.523 1.867-.74 2.333 4.956 20.457 7.106 22.607 1.892 1.892 5.131 1.17 7.609-1.696zm-45.541-7.302c1.765-4.95 3.115-10.575 3-12.5-.182-3.047-.578-3.542-3.066-3.827-7.054-.806-12.418 4.875-13.275 14.059-.391 4.19-.065 5.945 1.593 8.58 1.76 2.797 2.586 3.263 5.312 3 3.095-.3 3.359-.681 6.436-9.312zm30.099-16.25c1.416-2.822-.142-6.559-3.748-8.989-6.394-4.308-19.336-2.34-21.921 3.334-2.916 6.399-1.145 7.405 13.026 7.405 10.203 0 11.881-.232 12.643-1.75z" fill="#878c9b"/><path d="M59.134 444.386c-26.019-4.7-47.297-23.173-56.326-48.9l-2.808-8v-163.5c0-133.137.249-164.521 1.338-169 .736-3.025 3.346-9.622 5.8-14.66 9.342-19.18 27.07-33.184 48.515-38.325C63.75.06 67.428 0 179 0 289.13 0 294.34.082 302 1.928c9.968 2.402 16.127 5.076 24.691 10.722 9.968 6.571 19.024 16.902 24.323 27.747 8.036 16.444 7.579 4.732 7.265 186.089l-.279 161-2.724 8c-6.992 20.532-22.422 36.807-42.707 45.05-13.372 5.434-13.968 5.458-134.45 5.36-91.373-.074-112.517-.342-118.985-1.51zm247.366-6.241c19.552-7.043 33.224-18.905 41.102-35.659 6.256-13.305 5.898-2.43 5.898-179.16 0-111.92-.332-162.863-1.084-166.54-.596-2.915-3.105-9.511-5.575-14.658-9.521-19.842-29.058-33.797-51.943-37.105-4.244-.614-48.875-1.005-116.017-1.017-93.699-.017-110.364.197-117.926 1.516-22.03 3.842-40.229 17.062-49.508 35.964C3.99 56.68 4.5 43.351 4.5 222.536c0 156.04.061 161.369 1.935 168.694 5.655 22.113 22.525 39.565 45.065 46.62 3.575 1.12 7.625 2.227 9 2.461 1.375.235 55.825.37 121 .3l118.5-.125 6.5-2.341zm-205.9-60.671c-22.23-7.75-36.1-27.147-36.1-50.488 0-18.705 8.87-35.115 24.428-45.19 8.642-5.598 17.126-7.997 28.572-8.081 15.706-.116 28.498 4.93 38.92 15.351 10.127 10.127 15.318 22.977 15.318 37.92 0 22.603-12.388 40.971-33.566 49.767-5.181 2.152-8.099 2.623-18.172 2.932-10.867.333-12.699.125-19.4-2.211zm29.4-7.671c15.88-3.971 29.752-19.508 32.525-36.43 4.698-28.668-21.997-55.14-50.91-50.483-21.953 3.536-38.115 22.233-38.115 44.096 0 29.338 27.392 50.096 56.5 42.817zm-25.278-6.732c-14.524-5.381-24.001-18.168-25.01-33.742-1.154-17.83 9.937-34.133 26.494-38.946 8.304-2.414 21.2-1.608 28.47 1.78 7.932 3.696 14.216 9.843 18.074 17.68 3.044 6.182 3.25 7.27 3.25 17.143 0 9.873-.206 10.961-3.25 17.144-3.866 7.853-10.163 14.003-18.075 17.654-7.768 3.583-22.092 4.2-29.953 1.287zm8.31-8.534c1.908-.797 3.468-1.962 3.468-2.589s1.385.025 3.077 1.45c3.873 3.258 8.184 3.34 14.016.264 7.757-4.092 11.458-13.2 7.252-17.847-1.553-1.716-1.527-1.829.411-1.829 3.427 0 7.244-5.491 7.244-10.42 0-8.888-7.852-17.838-14.243-16.234-1.443.362-2.912 1.568-3.265 2.679-.628 1.978 3.343 15.628 6.18 21.243 1.258 2.49 1.22 2.832-.387 3.405-2.445.873-15.37 10.17-17.577 12.644l-1.792 2.008-1.455-2.077c-1.918-2.738-16.958-13.248-18.959-13.248-1.318 0-1.254-.43.405-2.75 1.082-1.513 3.192-6.748 4.69-11.635 3.104-10.129 2.702-11.942-2.752-12.414-11.221-.97-17.757 19.925-7.986 25.533 2.71 1.555 2.806 1.83 1.65 4.709-1.665 4.148-.373 8.327 3.836 12.407 2.87 2.781 9.053 5.944 11.937 6.106.43.024 2.343-.608 4.25-1.405zm11.483-14.801c2.548-1.291 5.253-3.667 6.349-5.576 7.09-12.352-6.451-26.761-19.09-20.314-10.887 5.554-11.034 20.168-.261 25.865 5.378 2.844 7.433 2.848 13.002.025zm-12.942-7.385c-5.48-6.967 1.1-16.113 9.579-13.315 3.954 1.305 5.348 3.49 5.348 8.384 0 5.031-2.823 7.566-8.427 7.566-3.592 0-4.819-.497-6.5-2.635zm17.993-23.4c2.884-1.544 2.482-6.073-.816-9.191-6.042-5.713-16.573-5.605-22.408.23-3.18 3.18-3.617 6.078-1.27 8.425 1.228 1.228 3.858 1.571 12.065 1.571 5.772 0 11.365-.466 12.429-1.035zm95.625 69.534c-16.914-4.65-31.606-18.772-36.706-35.282-2.512-8.134-2.702-23.412-.39-31.286 5.23-17.804 18.762-31.193 36.905-36.513 8.47-2.484 22.951-2.27 31.572.467 17.017 5.4 30.87 19.946 35.475 37.246 2.151 8.082 1.86 21.328-.647 29.514-5.393 17.6-19.442 31.22-37.031 35.902-6.63 1.765-22.68 1.738-29.178-.048zm27.856-9.056c6.545-1.79 16.022-7.955 20.802-13.531 2.08-2.427 5.21-7.337 6.958-10.912 3.006-6.15 3.177-7.119 3.185-18 .01-10.787-.183-11.903-3.078-18-11.967-25.202-43.515-34.41-65.67-19.168-23.16 15.935-26.713 47.517-7.617 67.709 11.465 12.122 28.394 16.558 45.42 11.902zm-26.247-6.305c-9.96-3.442-17.953-10.792-22.53-20.718-1.904-4.127-2.27-6.616-2.27-15.441 0-9.849.208-10.943 3.25-17.123 3.858-7.836 10.142-13.983 18.075-17.68 7.268-3.387 20.165-4.193 28.47-1.779 20.06 5.832 31.263 27.942 24.7 48.748-3.626 11.496-11.826 19.838-23.552 23.96-7.03 2.47-19.045 2.486-26.143.033zm9.884-9.805c3.682-3.331 2.348-5.89-6.434-12.345-4.537-3.335-9.283-6.326-10.546-6.646-2.037-.516-2.134-.766-.856-2.212.792-.897 2.843-6.038 4.557-11.426 3.694-11.611 3.275-13.704-2.744-13.704-6.582 0-12.161 7.537-12.161 16.43 0 4.665 2.587 8.987 6.034 10.08 1.817.578 1.857.808.474 2.782-2.114 3.018-1.889 5.383.978 10.273 4.591 7.836 15.557 11.421 20.698 6.768zm17.098 1.32c5.14-2.152 10.718-9 10.718-13.156 0-3.28-2.724-7.497-4.843-7.497-1.008 0-14.71 9.421-17.907 12.314-2.964 2.68-2.843 5.075.385 7.613 3.043 2.394 7.063 2.645 11.647.726zm-7.686-14.557c11.034-5.011 11.281-20.473.42-26.244-4.363-2.319-8.517-2.351-12.996-.1-10.88 5.466-10.73 21.3.25 26.284 5.269 2.392 7.171 2.4 12.326.06zm-12.557-7.285c-2.2-2.36-2.715-7.68-1.047-10.797.546-1.02 2.485-2.346 4.31-2.948 8.662-2.86 15.215 6.194 9.625 13.3-2.769 3.52-9.797 3.763-12.888.445zm33.826-1.168c3.116-3.316 3.766-8.703 1.702-14.106-1.89-4.948-7.547-10.537-10.667-10.537-3.308 0-5.9 1.91-5.9 4.348 0 2.811 5.53 19.38 7.1 21.272 1.742 2.099 5.296 1.652 7.765-.977zm-15.8-22.678c4.911-2.628-.102-10.82-7.907-12.922-5.294-1.426-11.559.09-15.408 3.73-3.184 3.011-3.684 7.584-1 9.147 2.3 1.34 21.83 1.376 24.316.045zM103 170.119c-18.621-5.35-33.704-21.348-37.537-39.813-1.676-8.072-.769-22.473 1.876-29.78 4.496-12.42 13.625-22.909 25.264-29.025 26.501-13.926 59.8-3.906 73.066 21.985 4.63 9.037 6.221 15.974 6.077 26.5-.331 24.113-16.347 44.363-39.95 50.51-7.557 1.97-21.256 1.79-28.796-.377zm28.41-9.028c31.972-9.95 42.04-49.937 18.501-73.477-22.03-22.03-58.256-15.955-72.117 12.092-3.3 6.677-3.753 8.522-4.083 16.645-.715 17.555 6.614 31.214 21.929 40.872 9.038 5.7 24.509 7.373 35.77 3.868zm-24.41-5.45c-11.264-3.733-19.062-10.473-23.898-20.655-2.786-5.865-3.085-7.428-3.063-16 .03-11.604 2.435-18.53 8.952-25.779 18.364-20.425 52.75-15.6 64.108 8.997 2.618 5.67 2.901 7.305 2.901 16.782 0 9.399-.285 11.08-2.716 16.03-4.27 8.694-8.984 13.465-17.427 17.638-6.667 3.295-8.535 3.759-16.196 4.019-5.302.18-10.212-.22-12.66-1.032zm24.782-9.002c1.77-.741 4.906-3.217 6.968-5.503 2.962-3.282 3.75-4.964 3.75-7.998 0-5.109-2.907-7.971-6.454-6.355-4.02 1.832-17.546 12.191-17.546 13.439 0 .636-1.462-.224-3.25-1.911-5.254-4.96-15.999-12.325-17.98-12.325-1.75 0-1.746-.12.096-2.75 1.06-1.513 3.187-6.971 4.728-12.13l2.801-9.381-2.384-1.931c-5.904-4.78-16.011 4.505-16.011 14.71 0 4.72 2.474 9.332 5.657 10.542 2.098.797 2.342 1.236 1.352 2.43-2.227 2.683-1.432 8.415 1.712 12.352 5.646 7.07 15.24 9.422 20.038 4.914 2.257-2.12 2.444-2.144 3.4-.436 1.985 3.547 7.767 4.575 13.123 2.333zm-6.117-15.403c6.738-3.966 9.402-14.311 5.16-20.038-6.92-9.342-18.922-9.443-25.144-.212-1.953 2.897-2.284 4.432-1.924 8.91.385 4.799.9 5.847 4.55 9.25 3.666 3.42 4.677 3.84 9.25 3.84 3.09 0 6.318-.697 8.108-1.75zm-13.71-6.705c-6.122-6.121-.188-15.963 8.478-14.06 3.875.851 6.067 3.945 6.067 8.563 0 7.385-9.186 10.857-14.545 5.497zm33.453-.947c7.136-7.596.124-25.245-9.695-24.4-5.788.498-6.11 2.362-2.375 13.759 4.41 13.451 7.155 15.872 12.07 10.641zm-15.842-22.633c2.814-1.506 2.488-6.138-.654-9.28-5.914-5.914-16.291-6.006-22.102-.195-3.855 3.855-4.209 6.767-1.087 8.953 2.617 1.834 20.655 2.228 23.843.522zm96.209 69.496c-18.404-4.957-34.117-20.79-38.196-38.489-1.59-6.9-1.306-21.844.533-28.04 6.43-21.672 24.48-36.44 47.112-38.543 25.694-2.388 50.357 14.63 56.745 39.153 1.96 7.528 1.96 20.388 0 27.916-4.768 18.307-19.745 33.222-38.113 37.958-7.486 1.93-21.002 1.952-28.081.045zm27.954-9.521c13.601-4.47 24.841-15.776 28.871-29.044 1.704-5.61 2.052-8.831 1.715-15.877-.368-7.707-.896-9.8-4.121-16.324-10.97-22.196-36.868-31.545-59.14-21.349-6.157 2.82-15.487 11.058-19.27 17.018-12.666 19.952-6.381 47.74 13.712 60.634 10.954 7.028 25.973 8.97 38.233 4.942zM229 155.64c-11.31-3.748-19.303-10.457-24.088-20.217-2.655-5.414-2.912-6.866-2.912-16.459 0-9.865.204-10.936 3.274-17.172 14.286-29.018 56.327-28.407 70.052 1.018 2.304 4.939 2.65 6.973 2.66 15.675.013 9.127-.256 10.568-3.08 16.5-3.942 8.279-10.166 14.493-18.389 18.359-5.355 2.517-7.964 3.097-15 3.335-5.169.174-10.09-.234-12.517-1.039zm24.269-9.203c6.692-2.796 11.231-8.567 11.231-14.28 0-1.61-.7-3.508-1.554-4.217-1.36-1.13-1.17-1.452 1.537-2.59 3.067-1.29 6.023-6.249 6.011-10.083-.024-7.616-6.585-16.282-12.327-16.282-3.773 0-5.667 1.508-5.667 4.512 0 2.547 5.544 19.233 6.955 20.933.723.871.104 1.65-2.227 2.805-5.98 2.962-17.218 12.183-17.532 14.385-.373 2.613 4.03 6.365 7.471 6.365 1.319 0 4.064-.696 6.102-1.548zm-16.598-1.107c2.477-2.241 2.302-5.572-.42-8.017-4.989-4.478-15.633-11.328-17.605-11.328-3.03 0-5.48 4.205-4.65 7.983.805 3.665 4.767 8.596 8.961 11.154 3.854 2.35 11.224 2.462 13.714.208zm13.022-16.184c3.665-3.419 4.16-4.431 4.517-9.25.312-4.21-.053-6.135-1.645-8.67-5.721-9.11-17.31-9.68-24.446-1.2-2.09 2.483-2.618 4.158-2.612 8.286.012 9.107 5.603 14.655 14.782 14.666 4.756.006 5.703-.38 9.404-3.832zm-16.019-4.475c-2.58-2.747-2.89-8.22-.645-11.424 2.074-2.96 7.416-3.859 11.228-1.888 3.34 1.727 4.243 3.379 4.243 7.753 0 6.958-9.992 10.704-14.826 5.559zm-15.243-.617c2.339-2.339 8.279-20.36 7.435-22.558-1.074-2.799-4.136-3.742-8.005-2.465-5.238 1.728-9.36 8.656-9.36 15.727 0 4.614.416 5.797 2.922 8.304 3.44 3.44 4.422 3.578 7.008.992zm32.847-23.626c3.12-2.186 2.767-5.098-1.088-8.953-5.728-5.728-15.908-5.725-22.093.008-3.402 3.153-3.586 8.169-.347 9.47 4.005 1.61 21.021 1.23 23.528-.525z" fill="#7f7f7f"/><path d="M54.892 443.09c-26.368-6.483-47.315-27.222-52.845-52.317C.602 384.217.47 367.039.721 219.486l.279-164 2.707-7.298C12.312 24.988 30.79 8.513 55.27 2.217 61.464.624 71.32.486 179 .486c131.323 0 122.684-.464 139 7.47 14.544 7.072 26.312 18.67 33.021 32.545 6.849 14.163 6.448 2.836 6.464 182.525.016 180.751.534 167.098-6.917 182.46-7.27 14.988-17.746 25.145-33.568 32.546-15.58 7.29-8.994 6.962-138.697 6.88-107.186-.067-116.86-.21-123.411-1.821zm248-3.458c23.589-7.136 40.429-22.88 48.285-45.146l2.823-8 .279-160c.313-179.624.733-168.597-7.038-184.5-3.308-6.771-5.891-10.246-12.7-17.084-7.09-7.122-10.163-9.382-18.044-13.272-16.191-7.993-9.25-7.607-137.3-7.627C51.356 3.983 58.411 3.6 42 11.473c-16.284 7.81-29.407 22.661-35.244 39.882L4 59.486v163c0 182.157-.608 166.393 6.995 181.49 9.619 19.1 29.143 33.229 51.08 36.964 2.709.462 56.675.757 119.925.657 107.136-.17 115.403-.305 120.892-1.965zM100.6 377.474c-22.232-7.75-36.101-27.147-36.101-50.488 0-18.705 8.87-35.115 24.428-45.19 8.642-5.598 17.126-7.997 28.572-8.081 15.706-.116 28.498 4.93 38.92 15.351 10.127 10.127 15.318 22.977 15.318 37.92 0 22.603-12.388 40.971-33.566 49.767-5.181 2.152-8.099 2.623-18.172 2.932-10.867.333-12.699.125-19.4-2.211zM130 369.803c15.88-3.971 29.752-19.508 32.525-36.43 4.698-28.668-21.997-55.14-50.91-50.483-21.953 3.536-38.115 22.233-38.115 44.096 0 29.338 27.392 50.096 56.5 42.817zm-25.278-6.732c-14.524-5.381-24.001-18.168-25.01-33.742-1.154-17.83 9.937-34.133 26.494-38.946 8.304-2.414 21.2-1.608 28.47 1.78 7.932 3.696 14.216 9.843 18.074 17.68 3.044 6.182 3.25 7.27 3.25 17.143 0 9.873-.206 10.961-3.25 17.144-3.866 7.853-10.163 14.003-18.075 17.654-7.768 3.583-22.092 4.2-29.953 1.287zm8.31-8.534c1.908-.797 3.468-1.962 3.468-2.589s1.385.025 3.077 1.45c3.873 3.258 8.184 3.34 14.016.264 7.757-4.092 11.458-13.2 7.252-17.847-1.553-1.716-1.527-1.829.411-1.829 3.427 0 7.244-5.491 7.244-10.42 0-8.888-7.852-17.838-14.243-16.234-1.443.362-2.912 1.568-3.265 2.679-.628 1.978 3.343 15.628 6.18 21.243 1.258 2.49 1.22 2.832-.387 3.405-2.445.873-15.37 10.17-17.577 12.644l-1.792 2.008-1.455-2.077c-1.918-2.738-16.958-13.248-18.959-13.248-1.318 0-1.254-.43.405-2.75 1.082-1.513 3.192-6.748 4.69-11.635 3.104-10.129 2.702-11.942-2.752-12.414-11.221-.97-17.757 19.925-7.986 25.533 2.71 1.555 2.806 1.83 1.65 4.709-1.665 4.148-.373 8.327 3.836 12.407 2.87 2.781 9.053 5.944 11.937 6.106.43.024 2.343-.608 4.25-1.405zm11.483-14.801c2.548-1.291 5.253-3.667 6.349-5.576 7.09-12.352-6.451-26.761-19.09-20.314-10.887 5.554-11.034 20.168-.261 25.865 5.378 2.844 7.433 2.848 13.002.025zm-12.942-7.385c-5.48-6.967 1.1-16.113 9.579-13.315 3.954 1.305 5.348 3.49 5.348 8.384 0 5.031-2.823 7.566-8.427 7.566-3.592 0-4.819-.497-6.5-2.635zm17.993-23.4c2.884-1.544 2.482-6.073-.816-9.191-6.042-5.713-16.573-5.605-22.408.23-3.18 3.18-3.617 6.078-1.27 8.425 1.228 1.228 3.858 1.571 12.065 1.571 5.772 0 11.365-.466 12.429-1.035zm95.625 69.534c-16.914-4.65-31.606-18.772-36.706-35.282-2.512-8.134-2.702-23.412-.39-31.286 5.23-17.804 18.762-31.193 36.905-36.513 8.47-2.484 22.951-2.27 31.572.467 17.017 5.4 30.87 19.946 35.475 37.246 2.151 8.082 1.86 21.328-.647 29.514-5.393 17.6-19.442 31.22-37.031 35.902-6.63 1.765-22.68 1.738-29.178-.048zm27.856-9.056c6.545-1.79 16.022-7.955 20.802-13.531 2.08-2.427 5.21-7.337 6.958-10.912 3.006-6.15 3.177-7.119 3.185-18 .01-10.787-.183-11.903-3.078-18-11.967-25.202-43.515-34.41-65.67-19.168-23.16 15.935-26.713 47.517-7.617 67.709 11.465 12.122 28.394 16.558 45.42 11.902zm-26.247-6.305c-9.96-3.442-17.953-10.792-22.53-20.718-1.904-4.127-2.27-6.616-2.27-15.441 0-9.849.208-10.943 3.25-17.123 3.858-7.836 10.142-13.983 18.075-17.68 7.268-3.387 20.165-4.193 28.47-1.779 20.06 5.832 31.263 27.942 24.7 48.748-3.626 11.496-11.826 19.838-23.552 23.96-7.03 2.47-19.045 2.486-26.143.033zm9.884-9.805c3.682-3.331 2.348-5.89-6.434-12.345-4.537-3.335-9.283-6.326-10.546-6.646-2.037-.516-2.134-.766-.856-2.212.792-.897 2.843-6.038 4.557-11.426 3.694-11.611 3.275-13.704-2.744-13.704-6.582 0-12.161 7.537-12.161 16.43 0 4.665 2.587 8.987 6.034 10.08 1.817.578 1.857.808.474 2.782-2.114 3.018-1.889 5.383.978 10.273 4.591 7.836 15.557 11.421 20.698 6.768zm17.098 1.32c5.14-2.152 10.718-9 10.718-13.156 0-3.28-2.724-7.497-4.843-7.497-1.008 0-14.71 9.421-17.907 12.314-2.964 2.68-2.843 5.075.385 7.613 3.043 2.394 7.063 2.645 11.647.726zm-7.686-14.557c11.034-5.011 11.281-20.473.42-26.244-4.363-2.319-8.517-2.351-12.996-.1-10.88 5.466-10.73 21.3.25 26.284 5.269 2.392 7.171 2.4 12.326.06zm-12.557-7.285c-2.2-2.36-2.715-7.68-1.047-10.797.546-1.02 2.485-2.346 4.31-2.948 8.662-2.86 15.215 6.194 9.625 13.3-2.769 3.52-9.797 3.763-12.888.445zm33.826-1.168c3.116-3.316 3.766-8.703 1.702-14.106-1.89-4.948-7.547-10.537-10.667-10.537-3.308 0-5.9 1.91-5.9 4.348 0 2.811 5.53 19.38 7.1 21.272 1.742 2.099 5.296 1.652 7.765-.977zm-15.8-22.678c4.911-2.628-.102-10.82-7.907-12.922-5.294-1.426-11.559.09-15.408 3.73-3.184 3.011-3.684 7.584-1 9.147 2.3 1.34 21.829 1.376 24.316.045zM103 170.119c-18.621-5.35-33.704-21.348-37.537-39.813-1.676-8.072-.769-22.473 1.876-29.78 4.496-12.42 13.625-22.909 25.264-29.025 26.501-13.926 59.8-3.906 73.066 21.985 4.63 9.037 6.221 15.974 6.077 26.5-.331 24.113-16.347 44.363-39.95 50.51-7.557 1.97-21.256 1.79-28.796-.377zm28.409-9.028c31.973-9.95 42.041-49.937 18.502-73.477-22.03-22.03-58.256-15.955-72.117 12.092-3.3 6.677-3.753 8.522-4.083 16.645-.715 17.555 6.614 31.214 21.929 40.872 9.038 5.7 24.509 7.373 35.769 3.868zM107 155.641c-11.264-3.733-19.062-10.473-23.898-20.655-2.786-5.865-3.085-7.428-3.063-16 .03-11.604 2.435-18.53 8.952-25.779 18.364-20.425 52.75-15.6 64.108 8.997 2.618 5.67 2.901 7.305 2.901 16.782 0 9.399-.285 11.08-2.716 16.03-4.27 8.694-8.984 13.465-17.427 17.638-6.667 3.295-8.535 3.759-16.196 4.019-5.302.18-10.212-.22-12.661-1.032zm24.782-9.002c1.77-.741 4.906-3.217 6.968-5.503 2.962-3.282 3.75-4.964 3.75-7.998 0-5.109-2.907-7.971-6.454-6.355-4.02 1.832-17.546 12.191-17.546 13.439 0 .636-1.462-.224-3.25-1.911-5.254-4.96-16-12.325-17.98-12.325-1.75 0-1.746-.12.096-2.75 1.06-1.513 3.187-6.971 4.728-12.13l2.801-9.381-2.384-1.931c-5.904-4.78-16.011 4.505-16.011 14.71 0 4.72 2.474 9.332 5.657 10.542 2.098.797 2.342 1.236 1.352 2.43-2.227 2.683-1.432 8.415 1.712 12.352 5.646 7.07 15.24 9.422 20.038 4.914 2.257-2.12 2.444-2.144 3.4-.436 1.985 3.547 7.767 4.575 13.123 2.333zm-6.117-15.403c6.738-3.966 9.402-14.311 5.16-20.038-6.92-9.342-18.922-9.443-25.144-.212-1.953 2.897-2.284 4.432-1.924 8.91.385 4.799.9 5.847 4.55 9.25 3.666 3.42 4.677 3.84 9.25 3.84 3.09 0 6.318-.697 8.108-1.75zm-13.71-6.705c-6.122-6.121-.188-15.963 8.478-14.06 3.875.851 6.067 3.945 6.067 8.563 0 7.385-9.186 10.857-14.545 5.497zm33.453-.947c7.136-7.596.124-25.245-9.695-24.4-5.788.498-6.11 2.362-2.375 13.759 4.41 13.451 7.155 15.872 12.07 10.641zm-15.842-22.633c2.814-1.506 2.488-6.138-.654-9.28-5.914-5.914-16.291-6.006-22.102-.195-3.855 3.855-4.209 6.767-1.087 8.953 2.617 1.834 20.655 2.228 23.843.522zm96.209 69.496c-18.404-4.957-34.117-20.79-38.196-38.489-1.59-6.9-1.306-21.844.533-28.04 6.43-21.672 24.48-36.44 47.112-38.543 25.694-2.388 50.357 14.63 56.745 39.153 1.96 7.528 1.96 20.388 0 27.916-4.768 18.307-19.745 33.222-38.113 37.958-7.486 1.93-21.002 1.952-28.081.045zm27.954-9.521c13.601-4.47 24.841-15.776 28.871-29.044 1.704-5.61 2.052-8.831 1.715-15.877-.368-7.707-.896-9.8-4.121-16.324-10.97-22.196-36.868-31.545-59.14-21.349-6.157 2.82-15.487 11.058-19.27 17.018-12.666 19.952-6.381 47.74 13.712 60.634 10.954 7.028 25.973 8.97 38.233 4.942zM229 155.64c-11.31-3.748-19.303-10.457-24.088-20.217-2.655-5.414-2.912-6.866-2.912-16.459 0-9.865.204-10.936 3.274-17.172 14.286-29.018 56.327-28.407 70.052 1.018 2.304 4.939 2.65 6.973 2.66 15.675.013 9.127-.256 10.568-3.08 16.5-3.942 8.279-10.166 14.493-18.389 18.359-5.355 2.517-7.964 3.097-15 3.335-5.169.174-10.09-.234-12.517-1.039zm24.269-9.203c6.692-2.796 11.231-8.567 11.231-14.28 0-1.61-.7-3.508-1.554-4.217-1.36-1.13-1.17-1.452 1.537-2.59 3.067-1.29 6.023-6.249 6.011-10.083-.024-7.616-6.585-16.282-12.327-16.282-3.773 0-5.667 1.508-5.667 4.512 0 2.547 5.544 19.233 6.955 20.933.723.871.104 1.65-2.227 2.805-5.98 2.962-17.218 12.183-17.532 14.385-.373 2.613 4.03 6.365 7.471 6.365 1.319 0 4.064-.696 6.102-1.548zm-16.598-1.107c2.477-2.241 2.302-5.572-.421-8.017-4.988-4.478-15.632-11.328-17.604-11.328-3.03 0-5.48 4.205-4.65 7.983.805 3.665 4.767 8.596 8.961 11.154 3.854 2.35 11.224 2.462 13.714.208zm13.022-16.184c3.665-3.419 4.16-4.431 4.517-9.25.312-4.21-.053-6.135-1.645-8.67-5.721-9.11-17.31-9.68-24.446-1.2-2.09 2.483-2.618 4.158-2.612 8.286.012 9.107 5.603 14.655 14.782 14.666 4.756.006 5.703-.38 9.404-3.832zm-16.019-4.475c-2.58-2.747-2.89-8.22-.645-11.424 2.074-2.96 7.416-3.859 11.228-1.888 3.34 1.727 4.243 3.379 4.243 7.753 0 6.958-9.992 10.704-14.826 5.559zm-15.243-.617c2.339-2.339 8.279-20.36 7.435-22.558-1.074-2.799-4.136-3.742-8.005-2.465-5.238 1.728-9.361 8.656-9.361 15.727 0 4.614.417 5.797 2.923 8.304 3.44 3.44 4.422 3.578 7.008.992zm32.847-23.626c3.12-2.186 2.767-5.098-1.088-8.953-5.728-5.728-15.908-5.725-22.093.008-3.402 3.153-3.586 8.169-.347 9.47 4.005 1.61 21.021 1.23 23.528-.525z" fill="#4b526a"/><path d="M56.864 443.503c-24.35-5.336-44.562-23.076-53.185-46.682L1 389.486l-.28-163.5C.474 81.241.62 61.678 1.994 55.443 7.75 29.306 28.804 8.98 57.5 1.853 61.991.736 84.37.485 179.5.485H296l8 2.313c26.149 7.56 44.613 25.577 51.432 50.183 2.052 7.405 2.068 8.73 2.053 169.484-.016 180.91.5 167.798-7.235 183.52-3.336 6.781-5.907 10.219-12.716 17-9.753 9.714-16.334 13.915-28.773 18.365l-8.76 3.135-118.5.18c-96.054.147-119.663-.074-124.637-1.163zM303 439.709c19.414-5.64 36.433-19.378 44.302-35.76 7.624-15.87 7.2-5.147 7.18-181.67-.018-174.446.331-164.784-6.481-179.13-8.372-17.628-23.272-30.367-42.5-36.335L298 4.486H59l-8 2.807C31.69 14.067 18.294 25.859 9.85 43.514 3.23 57.356 3.5 49.707 3.5 223.116c0 175.804-.43 165.125 7.277 180.87 7.057 14.415 22.254 27.921 37.77 33.566 11.675 4.247 13.094 4.29 133.452 4.091 106.054-.175 115.467-.326 121-1.934zm-199.388-61.304c-17.73-4.768-32.914-20.169-37.528-38.063-8.689-33.702 17.097-66.786 51.916-66.61 14.56.075 25.892 4.392 36.339 13.846 11.398 10.315 17.313 23.371 17.353 38.301.013 4.734-.503 10.857-1.145 13.606-4.083 17.486-18.921 32.981-36.902 38.537-7.671 2.37-21.966 2.553-30.033.383zm29.888-9.549c25.005-8.589 36.61-37.551 24.789-61.87-8.311-17.098-28.113-27.221-47.112-24.084-15.06 2.487-26.944 11.37-33.56 25.084-3.515 7.288-3.617 7.827-3.617 19.052 0 11.315.076 11.706 3.718 19.074 10.227 20.693 33.788 30.3 55.782 22.744zm-26.714-5.274c-10.373-3.357-19.442-11.413-24.115-21.42-2.283-4.889-2.65-6.994-2.65-15.176 0-8.2.365-10.283 2.67-15.218 3.537-7.576 10.882-15.26 18.293-19.136 5.685-2.973 6.621-3.146 17.016-3.146 10.068 0 11.492.241 16.8 2.848 7.403 3.635 14.725 10.957 18.355 18.355 2.578 5.253 2.845 6.783 2.845 16.297 0 9.613-.246 10.986-2.912 16.25-3.95 7.8-10.75 14.443-18.588 18.159-5.449 2.583-7.874 3.12-15 3.316-5.099.141-10.186-.31-12.714-1.129zm8.778-10.446c1.528-1.868 1.615-1.858 3.855.47 4.41 4.581 14.118 2.519 20.075-4.266 2.366-2.694 3.006-4.36 3.006-7.817 0-2.661-.62-5.014-1.571-5.966-1.429-1.428-1.337-1.571 1.014-1.571 1.845 0 3.155-.932 4.568-3.25 5.285-8.668-1.349-23.75-10.446-23.75-3.677 0-5.565 1.53-5.565 4.512 0 2.62 5.562 19.256 7.03 21.024.808.974.582 1.452-.912 1.926-1.092.347-5.932 3.573-10.755 7.168-7.171 5.347-8.958 6.278-9.815 5.115-1.636-2.22-16.685-12.745-18.223-12.745-1.163 0-1.159-.427.024-2.75.77-1.513 2.68-6.706 4.245-11.54 3.28-10.136 2.842-12.027-2.893-12.517-4.692-.401-8.08 1.89-10.652 7.206-3.705 7.652-2.28 16.446 3.045 18.803 2.072.917 2.521 1.557 1.747 2.49-1.544 1.86-1.262 7.593.544 11.085 4.08 7.892 17.265 11.767 21.678 6.373zm10.788-13.889c4.718-3.522 6.533-6.928 6.533-12.261 0-14.633-18.966-20.3-27.115-8.102-3.88 5.809-2.731 14.66 2.52 19.412 4.417 3.997 13.352 4.467 18.062.951zm-14.397-6.716c-5.088-5.088-1.348-13.945 5.888-13.945 7.447 0 11.215 7.878 6.584 13.765-2.84 3.611-8.954 3.7-12.472.18zm18.345-23.745c2.95-2.95.828-8.903-4.08-11.451-6.699-3.478-17.358-1.7-21.438 3.576-1.811 2.342-1.549 6.82.468 7.995 2.539 1.479 23.552 1.378 25.05-.12zm93.142 68.913c-13.972-4.764-25.042-14.042-31.15-26.108-4.309-8.512-5.768-14.737-5.768-24.605 0-15.56 4.534-26.551 15.476-37.512 11.151-11.17 22.36-15.738 38.5-15.686 40.225.128 65.632 42.883 46.719 78.616-6.38 12.054-19.761 22.535-33.26 26.05-8.85 2.306-22.532 1.967-30.517-.755zm32.058-8.994c11.075-4.055 20.112-12.463 25.299-23.54 5.696-12.164 4.844-29.253-2.044-41.007-3.822-6.522-11.826-13.865-18.668-17.128-32.946-15.71-69.594 10.593-64.535 46.318 3.982 28.116 32.99 45.225 59.948 35.357zm-27.055-5.112c-11.21-4.31-19.09-11.345-23.645-21.107-2.48-5.314-2.8-7.143-2.8-16 0-8.964.295-10.6 2.845-15.797 3.63-7.398 10.96-14.728 18.358-18.358 5.304-2.603 6.733-2.845 16.797-2.845 10.172 0 11.434.22 16.766 2.92 7.19 3.641 15.006 11.79 18.538 19.327 2.341 4.996 2.694 7.002 2.678 15.253-.015 8.166-.392 10.303-2.68 15.218-3.694 7.935-10.738 15.133-18.595 19.001-5.645 2.78-7.704 3.238-15.605 3.478-5.921.18-10.344-.201-12.657-1.09zm6.652-9.083c3.148-1.316 3.499-1.832 3.218-4.74-.27-2.792-1.528-4.164-8.734-9.523-4.631-3.444-9.276-6.261-10.322-6.261-1.685 0-1.732-.17-.41-1.491.82-.82 2.89-5.998 4.602-11.507 3.687-11.868 3.266-14.002-2.764-14.002-2.058 0-4.748.705-5.978 1.566-6.222 4.358-8.49 18.243-3.754 22.98 1.35 1.35 3.16 2.454 4.023 2.454 1.407 0 1.4.257-.067 2.496-3.565 5.44 1.84 15.085 10.089 18.002 5.108 1.806 5.831 1.808 10.097.026zm20.873-.806c7.32-4.145 10.956-13.38 6.995-17.757-1.408-1.555-1.28-1.748 1.544-2.313 7.539-1.508 7.842-15.997.488-23.351-5.287-5.288-12.554-4.323-12.455 1.653.036 2.168 4.138 15.203 6.317 20.074.498 1.114-1.113 2.705-5.978 5.904-9.556 6.282-13.38 9.89-13.38 12.619 0 5.416 9.333 7.213 16.47 3.171zm-7.737-14.279c5.717-3.745 8.031-13.126 4.787-19.4-4.788-9.26-17.359-10.542-24.427-2.492-2.708 3.084-3.093 4.255-3.093 9.411 0 4.939.436 6.406 2.7 9.098 1.486 1.765 4.073 3.831 5.75 4.591 3.634 1.647 10.858 1.036 14.283-1.208zm-14.66-7.074c-6.71-8.53 5.49-19.225 12.557-11.01 5.034 5.854 1.316 13.645-6.512 13.645-3.1 0-4.428-.578-6.045-2.635zm18.727-23.565c1.537-1.537 1.492-5.84-.082-7.875-2.73-3.53-6.859-5.258-12.547-5.253-8.83.008-14.171 3.612-14.171 9.562 0 4.205 1.65 4.766 14 4.766 7.689 0 12.004-.405 12.8-1.2zM104.706 170.429c-9.727-2.618-16.376-6.565-24.286-14.418-11.145-11.064-15.885-22.108-15.908-37.065-.024-14.882 5.301-27.57 15.98-38.078 20.809-20.475 52.927-20.886 74.402-.952 22.2 20.607 22.632 54.996.964 76.73-6.76 6.78-16.973 12.342-26.157 14.243-7.167 1.484-18.553 1.274-24.995-.46zm32.082-11.184c4.008-1.883 9.18-5.472 12.632-8.764 25.954-24.756 12.773-68.576-22.72-75.539-22.253-4.365-44.868 8.97-51.338 30.274-3.102 10.21-2.34 23.013 1.908 32.091 5.293 11.312 14.128 19.243 26.086 23.418 5.582 1.948 8.242 2.27 16.644 2.014 8.799-.269 10.816-.689 16.788-3.494zM106 154.993c-21.842-7.324-32.396-31.673-22.705-52.383 13.858-29.614 55.97-29.388 70.095.376 2.273 4.79 2.61 6.792 2.61 15.5 0 8.757-.333 10.71-2.68 15.718-3.684 7.86-10.777 15.143-18.403 18.898-8.428 4.148-19.938 4.901-28.917 1.89zm27.53-9.257c5.672-2.865 8.97-7.718 8.97-13.198 0-2.284-.483-4.635-1.073-5.225-.764-.765-.338-1.258 1.482-1.715 4.984-1.25 7.226-10.764 4.227-17.94-.75-1.796-2.81-4.482-4.577-5.969-4.947-4.162-12.059-3.378-12.059 1.33 0 2.413 5.795 20.015 7.112 21.602.865 1.042.803 1.365-.261 1.365-1.405 0-13.451 8.38-17.572 12.222-2.216 2.068-2.224 2.068-4 .08-3.343-3.745-16.02-12.302-18.223-12.302-1.944 0-2.027-.172-.715-1.483 2.056-2.057 7.975-20.2 7.359-22.557-.42-1.607-.2-1.763 1.332-.943 2.44 1.306 21.574 1.264 24.034-.052 2.968-1.589 2.519-6.534-.903-9.956-7.14-7.14-25.163-3.283-25.163 5.383 0 2.233-.326 2.434-3.25 1.997-7.059-1.053-13.682 7.017-13.728 16.726-.024 4.947 2.442 9.263 5.923 10.368 1.714.544 1.762.853.508 3.27-2.525 4.867.954 12.421 7.384 16.035 5.005 2.813 12.378 2.997 15 .374 1.785-1.784 1.919-1.769 4.557.5 3.458 2.975 7.866 3.003 13.636.088zm-7.334-14.706c4.564-2.783 6.524-6.306 6.608-11.88.217-14.353-16.218-20.475-26.221-9.767-3.197 3.423-4.039 11.854-1.645 16.484 3.522 6.81 14.273 9.422 21.258 5.163zm-13.67-6.019c-4.387-4.386-3.43-10.818 2.068-13.904 5.152-2.892 11.906 1.427 11.906 7.613 0 6.98-9.161 11.105-13.975 6.291zm114.201 45.59c-13.626-3.459-27.655-14.271-33.882-26.115-4.72-8.977-6.345-15.657-6.345-26.076 0-11.208 2.332-19.55 7.827-27.996 19.045-29.277 58.932-33.763 83.403-9.38 11.36 11.319 16.411 24.617 15.536 40.903-1.157 21.528-14.895 39.855-35.347 47.152-7.488 2.672-23.552 3.45-31.192 1.511zm33.047-11.906a45.461 45.461 0 0 0 20.988-21.45c2.657-5.675 3.229-8.233 3.568-15.946.534-12.178-1.969-20.754-8.599-29.46-23.941-31.436-74.638-18.532-80.128 20.395-3.128 22.18 9.563 42.153 31.397 49.411 2.63.874 7.666 1.221 14.699 1.013 9.978-.296 11.196-.563 18.075-3.963zm-30.345-3.076c-10.292-2.775-19.921-11.117-24.769-21.458-2.324-4.96-2.66-6.936-2.66-15.675 0-9.041.282-10.574 2.94-15.987 7.54-15.356 24.77-24.451 40.93-21.605 13.005 2.291 23.386 10.134 28.944 21.867 2.908 6.137 3.18 7.555 3.127 16.225-.05 8.014-.463 10.38-2.64 15.125-7.905 17.232-27.556 26.446-45.872 21.508zm25.792-9.74c7.714-3.734 12.032-13.998 7.708-18.322-1.429-1.428-1.4-1.571.325-1.571 2.939 0 6.352-4.369 6.96-8.91 1.142-8.511-5.26-18.09-12.09-18.09-3.713 0-5.63 1.52-5.611 4.45.018 2.832 4.78 17.551 6.57 20.3 1.2 1.845 1.219 2.25.104 2.25-1.77 0-17.787 11.427-18.963 13.53-1.335 2.385-.088 5.99 2.504 7.24 3.551 1.711 7.757 1.416 12.493-.877zm-18.655.072c1.956-1.047 2.626-5.38 1.169-7.569-1.536-2.307-16.624-12.396-18.54-12.396-1.836 0-1.874-.148-.449-1.75.856-.963 3.032-6.428 4.835-12.145l3.279-10.395-2.291-1.855c-3.004-2.433-5.047-2.34-9.171.415-4.376 2.923-6.894 8.011-6.896 13.933 0 5.855 1.486 9.243 4.706 10.71 1.871.852 2.288 1.562 1.683 2.86-2.706 5.8 1.029 14.214 7.789 17.545 3.765 1.856 10.998 2.193 13.886.647zm11.636-14.924c4.25-2.592 6.298-6.83 6.298-13.03 0-4.514-.43-5.55-3.815-9.179-3.268-3.503-4.54-4.16-8.86-4.575-9.764-.938-16.314 4.698-16.321 14.043-.01 9.264 5.349 14.693 14.496 14.693 3.199 0 6.153-.704 8.202-1.953zm-14.247-6.496c-3.614-3.613-3.354-8.61.622-11.956 4.032-3.393 7.375-3.291 11 .334 5.639 5.64 2.296 14.077-5.577 14.077-2.48 0-4.35-.76-6.045-2.455zm17.61-23.58c2.763-1.479 2.53-6.462-.443-9.434-5.532-5.532-17.5-5.806-22.785-.522-3.306 3.307-3.854 8.3-1.087 9.91 2.3 1.34 21.829 1.377 24.316.046z" fill="#0f1938"/><path d="M56.864 443.503c-24.35-5.336-44.562-23.076-53.185-46.682L1 389.486l-.28-163.5C.474 81.241.62 61.678 1.994 55.443 7.75 29.306 28.804 8.98 57.5 1.853 61.991.736 84.37.485 179.5.485H296l8 2.313c26.149 7.56 44.613 25.577 51.432 50.183 2.052 7.405 2.068 8.73 2.053 169.484-.016 180.91.5 167.798-7.235 183.52-3.336 6.781-5.907 10.219-12.716 17-9.753 9.714-16.334 13.915-28.773 18.365l-8.76 3.135-118.5.18c-96.054.147-119.663-.074-124.637-1.163zM303 439.709c19.414-5.64 36.433-19.378 44.302-35.76 7.624-15.87 7.2-5.147 7.18-181.67-.018-174.446.331-164.784-6.481-179.13-8.372-17.628-23.272-30.367-42.5-36.335L298 4.486H59l-8 2.807C31.69 14.067 18.294 25.859 9.85 43.514 3.23 57.356 3.5 49.707 3.5 223.116c0 175.804-.43 165.125 7.277 180.87 7.057 14.415 22.254 27.921 37.77 33.566 11.675 4.247 13.094 4.29 133.452 4.091 106.054-.175 115.467-.326 121-1.934z"/></svg>