<svg xmlns="http://www.w3.org/2000/svg" height="445.771" width="358.791"><path d="M60.42 445.204c-18.643-3.875-34.844-13.266-45.044-26.11-2.508-3.158-6.3-9.342-8.425-13.742-7.56-15.648-7.127-3.837-6.812-185.5l.28-162.5 2.816-8c6.247-17.745 19.289-32.685 35.71-40.906C56.03-.106 48.056.352 179.92.352c130.841 0 121.776-.493 138.5 7.525 18.794 9.01 32.785 25.83 38.24 45.975 1.647 6.08 1.76 17.03 1.76 169.5 0 155.184-.088 163.31-1.837 169.483-7.271 25.648-26.605 44.225-53.073 50.994-7.73 1.977-10.544 2.02-124.5 1.907-64.124-.064-117.49-.303-118.59-.532zm244-6.217c20.225-6.833 34.643-18.775 42.919-35.548 6.957-14.102 6.55-2.923 6.566-180.177.014-156.931-.025-160.245-1.989-167.923-4.9-19.159-18.643-35.292-37.497-44.02-14.513-6.72-9.261-6.47-135.197-6.45-127.993.02-121.07-.363-137.303 7.598-12.513 6.138-24.61 17.905-30.209 29.385-7.897 16.194-7.29 1.136-7.29 181 0 131.14.246 161.506 1.346 166 .74 3.025 3.356 9.7 5.813 14.834 9.158 19.136 28.535 33.338 50.578 37.07 2.904.491 56.809.824 120.262.743l115-.147 7-2.365zm-198.388-59.716c-13.902-3.738-27.033-14.587-33.34-27.544-15.208-31.24.432-66.693 33.727-76.457 8.728-2.56 23.083-2.317 31.5.532 16.947 5.736 29.872 18.6 35.146 34.978 3.19 9.907 2.995 24.145-.468 34.015-5.964 16.999-18.927 29.195-36.61 34.444-6.793 2.017-22.512 2.034-29.955.032zm29.887-10.554c19.591-6.711 32.337-27.629 29.096-47.75-3.105-19.284-17.7-33.844-37.229-37.138-19.046-3.212-38.459 7.383-47.152 25.735-3.016 6.369-3.215 7.47-3.215 17.84 0 10.738.106 11.265 3.718 18.574 10.158 20.553 33.22 30.126 54.782 22.739zm-26.714-4.316c-23.16-7.238-34.034-34.224-22.492-55.823 3.361-6.291 10.896-13.222 17.988-16.546 5.116-2.398 6.877-2.68 16.718-2.68 10.148 0 11.464.228 16.988 2.94 7.607 3.735 14.332 10.448 18.023 17.992 3.669 7.499 4.614 20.189 2.137 28.708-3.24 11.148-13.308 21.27-25.076 25.21-5.908 1.978-18.269 2.08-24.286.199zm9.066-11.456c1.18-1.18 1.629-2.579 1.23-3.834-.725-2.288-17.15-14.26-19.561-14.26-2.547 0-4.02 2.109-4.02 5.75 0 10.9 15.33 19.365 22.35 12.344zm16.93 1.53c6.838-2.926 11.33-10.4 9.49-15.793-1.804-5.287-3.767-4.806-15.35 3.76-8.612 6.37-9.517 8.071-5.93 11.157 2.99 2.57 7.114 2.877 11.79.876zm-6.367-15.409c4.435-3.31 6.419-6.877 6.419-11.538 0-15.01-19.971-19.947-26.854-6.638-3.994 7.724.566 17.97 9.02 20.273 3.259.887 8.776-.126 11.415-2.097zm-13.652-4.743c-2.63-1.842-3.928-7.715-2.432-11 1.467-3.218 6.683-5.808 10.027-4.979 4.576 1.136 7.142 4.372 7.142 9.008 0 5.483-3.049 8.5-8.592 8.5-2.18 0-4.945-.688-6.145-1.529zm-14.531-3.588c.688-1.44 2.45-6.485 3.914-11.211 3.03-9.77 2.52-11.672-3.122-11.672-9.073 0-15.106 15.59-8.89 22.975 3.148 3.742 6.283 3.706 8.098-.093zm47.656 1.24c4.315-4.767 3.2-14.37-2.346-20.2-3.211-3.376-4.412-4.009-7.102-3.743-5.212.515-5.576 2.355-2.448 12.405 1.525 4.903 3.4 9.927 4.164 11.165 1.702 2.753 5.416 2.933 7.732.374zm-15.033-24.32c1.628-2.587-.35-6.897-4.197-9.143-8.312-4.854-22.017-.494-22.126 7.04-.05 3.522 2.685 4.29 14.362 4.037 8.99-.196 11.08-.534 11.961-1.934zm89.337 71.696c-8.355-2.297-15.72-6.562-22.695-13.141-30.381-28.66-17.902-79.092 22.503-90.94 8.47-2.484 22.952-2.27 31.573.466 24.999 7.935 41.13 33.827 37.124 59.59-3.253 20.923-19.108 38.691-39.328 44.073-6.63 1.765-22.68 1.738-29.177-.048zm26.792-9.702c10.901-2.737 22.734-12.522 27.764-22.96 13.016-27.011-3.676-58.303-33.584-62.957-17.539-2.729-37.701 7.513-45.715 23.221-17.481 34.265 13.697 72.196 51.535 62.696zm-25.184-5.603c-32.247-11.49-35.078-56.363-4.505-71.414 6.309-3.106 7.25-3.28 17.684-3.28 9.845 0 11.627.284 16.697 2.66 11.534 5.407 19.59 16.091 21.83 28.95 2.92 16.763-6.02 33.953-21.527 41.4-7.897 3.79-22.047 4.58-30.179 1.684zm9.885-10.861c3.306-2.992 2.143-5.04-6.435-11.346-9.554-7.022-12.45-8.117-14.405-5.444-2.39 3.27-1.64 8.051 1.897 12.079 5.994 6.827 14.317 8.897 18.943 4.71zm20.313-.462c7.083-4.831 9.499-14.197 4.37-16.942-1.821-.975-3.146-.413-9.738 4.128-10.273 7.079-11.13 7.89-11.13 10.541 0 5.647 9.611 6.971 16.498 2.273zm-10.806-12.818c3.033-1.377 4.79-3.076 6.358-6.15 7-13.72-9.19-26.897-21.506-17.504-8.334 6.357-6.74 19.335 2.915 23.72 5.091 2.314 7.014 2.303 12.233-.066zm-12.59-5.951c-2.803-2.804-3.511-7.41-1.682-10.946 3.469-6.708 14.157-6 16.498 1.094 1.276 3.866.724 6.206-2.24 9.5-2.654 2.947-9.781 3.146-12.576.352zm-14.739-2.352c2.226-3.555 6.817-18.46 6.46-20.973-.267-1.886-1.027-2.329-4.425-2.578-3.62-.264-4.467.116-7.205 3.234-5.97 6.8-6.685 16.46-1.52 20.523 3.341 2.63 4.946 2.58 6.69-.206zm48.565-.385c2.447-3.111 2.768-9.765.708-14.694-1.716-4.108-7.053-8.671-10.14-8.671-1.983 0-5.496 2.25-5.496 3.52 0 1.207 5.46 17.433 6.64 19.73 1.847 3.597 5.509 3.648 8.288.115zm-15.465-22.97c3.284-3.285-1.292-9.464-8.432-11.387-5.521-1.487-12.306.343-15.545 4.19-2.887 3.433-3.092 5.052-.914 7.23 2.307 2.307 22.578 2.28 24.89-.034zm-85.188-31.934c-9.024-2.43-17.362-7.341-24.359-14.346-26.089-26.116-18.671-70.028 14.584-86.345 7.824-3.839 14.26-5.246 24-5.246s16.177 1.407 24 5.246c21.58 10.588 33.649 34.187 29.57 57.815-3.516 20.357-19.545 37.657-39.773 42.926-7.09 1.846-21.072 1.822-28.022-.05zm27.87-10.436c15.805-4.912 27.166-18.135 30.055-34.983 4.967-28.967-21.914-55.479-50.863-50.165-24.383 4.476-40.553 26.738-36.517 50.273 4.607 26.871 31.14 43.012 57.325 34.875zm-24.645-4.37c-15.466-5.126-24.877-15.875-27.642-31.572-4.494-25.517 19.339-48.742 45.227-44.074 37.576 6.775 44.545 57.167 10.133 73.27-5.555 2.6-8.12 3.176-15.2 3.414-5.17.175-10.09-.233-12.518-1.038zm24.185-9.719c5.367-2.028 11.315-9.27 11.315-13.776 0-1.066-.847-2.985-1.882-4.264-2.348-2.9-3.864-2.317-14.567 5.599-5.758 4.258-7.55 6.154-7.55 7.987 0 4.603 6.37 6.84 12.684 4.454zm-16.513-1.591c3.796-3.436 2.42-5.462-9.299-13.691-7.175-5.04-10.222-5.74-11.837-2.72-2.523 4.713.403 11.423 6.886 15.792 4.128 2.782 11.505 3.102 14.25.619zm10.984-14.12c1.46-.85 3.652-3.317 4.869-5.482 3.908-6.954 1.246-15.248-6.096-18.992-8.88-4.528-19.278.982-20.612 10.923-1.56 11.633 11.356 19.647 21.84 13.55zm-13.832-5.475c-2.952-3.28-3.518-5.631-2.267-9.42 1.095-3.318 5.113-6.33 8.443-6.33 3.331 0 7.35 3.012 8.444 6.33 2.056 6.229-1.88 11.67-8.444 11.67-3.038 0-4.694-.603-6.176-2.25zm-15.423-1.13c1.57-1.891 7.1-18.461 7.1-21.273 0-1.252-.891-2.754-1.98-3.336-6.539-3.5-16.301 8.35-14.553 17.666.703 3.75 4.475 8.323 6.865 8.323.782 0 1.938-.621 2.568-1.38zm49.027-1.255c4.197-5.336 1.72-17.746-4.335-21.713-3.25-2.13-8.22-2.14-9.407-.019-.503.9-.586 3.037-.185 4.75 1.06 4.525 4.647 15.09 5.95 17.525 1.57 2.933 5.45 2.67 7.977-.543zm-15.465-22.97c3.199-3.2-1.204-9.71-7.76-11.475-5.861-1.579-11.581-.242-15.429 3.606-3.631 3.632-4.046 5.558-1.702 7.902 2.307 2.307 22.578 2.28 24.89-.034zm-83.257-33.952c-9.769-2.63-16.369-6.557-24.23-14.418-11.096-11.096-15.976-22.71-15.976-38.025 0-14.827 5.265-27.36 15.965-38 21.584-21.467 56.166-21.062 77.374.905 16.22 16.8 19.85 39.988 9.548 60.977-7.316 14.905-21.075 25.79-36.686 29.02-7.198 1.49-19.564 1.272-25.995-.459zm32.982-12.691c17.874-8.834 28.121-27.745 24.933-46.014-4.872-27.923-33.293-44.503-59.486-34.703-33.71 12.613-38.765 58.63-8.57 78.006 8.182 5.25 15.018 7.004 26.048 6.68 8.773-.256 10.263-.603 17.075-3.97zm-31.688-2.725c-26.913-8.927-35.226-44.143-15.157-64.212 19.127-19.127 52.045-13.419 63.497 11.01 2.377 5.07 2.66 6.847 2.656 16.675-.005 10.384-.181 11.337-3.147 17.016-3.866 7.404-11.582 14.786-19.01 18.187-7.782 3.562-20.351 4.14-28.839 1.324zm27.117-9.94c7.838-3.56 12.4-13.499 8.148-17.751-2.158-2.158-5.037-.951-14.182 5.946-9.184 6.928-9.868 8.156-6.277 11.278 3.345 2.908 6.745 3.054 12.31.527zm-18.668-.06c2.192-1.173 3.197-3.484 2.408-5.54-.837-2.182-16.815-13.487-19.062-13.487-2.884 0-4.295 2.011-4.295 6.123 0 8.829 13.28 17.009 20.949 12.905zm14.02-16.777c4.879-4.902 5.838-9.639 3.17-15.668-2.39-5.403-5.787-7.76-11.945-8.29-11.335-.974-19.09 11.667-13.102 21.356 2.796 4.524 6.318 6.264 12.776 6.312 4.896.036 5.696-.29 9.1-3.71zm-15.055-2.532c-4.666-3.582-5.104-9.682-.99-13.795 3.267-3.267 6.644-3.715 11.005-1.46 3.255 1.683 4.071 3.32 4.071 8.164 0 4.858-3.678 8.383-8.704 8.341-2.088-.017-4.51-.58-5.382-1.25zm-16.573-2.202c1.591-1.591 7.66-18.854 7.66-21.79 0-.973-1.17-2.302-2.599-2.953-2.17-.989-3.199-.862-6.25.772-7.994 4.28-10.781 17.936-4.724 23.146 3.148 2.708 3.922 2.816 5.913.825zm47.115.863c4.09-1.57 5.785-10.475 3.18-16.708-2.87-6.868-11.45-11.009-14.7-7.093-1.099 1.324-.777 3.215 2 11.75 4.2 12.91 4.917 13.817 9.52 12.05zm-14.39-24.414c3.047-1.63 2.51-6.303-1.07-9.316-7.895-6.643-23.996-2.6-23.996 6.024 0 1.225.788 2.686 1.75 3.247 2.3 1.34 20.83 1.375 23.316.045zm91.209 70.496c-19.86-5.35-35.96-22.806-39.3-42.614-4.114-24.39 7.317-47.015 29.18-57.755 19.808-9.73 41.956-7.243 59.466 6.679 6.264 4.98 13.421 15.514 16.463 24.229 3.27 9.37 3.314 24.845.096 34.19-6.005 17.445-20.226 30.688-37.824 35.226-7.486 1.93-21.002 1.951-28.081.045zm27.49-10.31c11.951-3.72 21.627-12.213 26.808-23.528 7.733-16.892 4.711-35.135-8.033-48.496-11.482-12.038-27.273-16.692-42.86-12.632-8.276 2.156-13.312 5.013-19.881 11.279-19.73 18.818-17.85 49.797 4.032 66.445 11.001 8.37 26.608 11.079 39.935 6.931zm-24.265-4.496c-10.46-3.467-19.334-10.49-23.452-18.561-7.889-15.464-5.784-32.784 5.46-44.928 11.903-12.857 30.163-16.454 46.027-9.067 6.242 2.907 15.383 11.96 18.21 18.035 9.27 19.922.995 43.01-18.724 52.237-5.345 2.501-7.985 3.086-15.003 3.322-5.17.175-10.09-.233-12.518-1.038zm25.042-10.535c7.798-3.542 12.243-11.748 9.024-16.66-2.489-3.798-3.649-3.402-15.377 5.25-6.29 4.64-7.268 5.769-7 8.07.327 2.81 3.692 5.196 7.311 5.183 1.1 0 3.819-.833 6.042-1.843zm-17.37-.775c2.446-2.214 2.305-4.569-.422-7.017-4.798-4.308-15.597-11.328-17.427-11.328-7.36 0-4.927 11.98 3.6 17.726 4.127 2.782 11.504 3.102 14.249.619zm12.233-15.395c10.304-9.048 4.497-24.96-9.105-24.946-10.555.01-17.458 11.603-12.336 20.717 2.955 5.257 6.405 7.22 12.752 7.252 4.408.022 5.752-.445 8.689-3.023zm-15.076-4.344c-3.425-2.946-3.887-9.227-.919-12.507 4.212-4.654 12.714-3.442 15.048 2.145 3.896 9.324-6.485 16.937-14.13 10.362zm-16.03-.856c1.838-1.366 7.701-17.705 7.701-21.46 0-3.613-3.87-4.92-8.319-2.809-8.3 3.939-11.227 17.063-5.16 23.13 2.732 2.733 3.446 2.873 5.778 1.139zm49.247-1.205c1.962-1.962 2.454-3.474 2.454-7.54 0-8.958-5.252-16.005-11.93-16.005-4.968 0-5.487 2.571-2.459 12.19 4.569 14.51 6.727 16.563 11.935 11.355zm-15.568-23.522c4.544-4.545-3.462-11.996-12.912-12.018-6.55-.015-13.983 6.528-12.55 11.045.762 2.401 2.194 2.697 13.734 2.834 8.473.1 10.01-.143 11.728-1.861z" fill="#edc5c7"/><path d="M60.42 445.204c-18.643-3.875-34.844-13.266-45.044-26.11-2.508-3.158-6.3-9.342-8.425-13.742-7.56-15.648-7.127-3.837-6.812-185.5l.28-162.5 2.816-8c6.247-17.745 19.289-32.685 35.71-40.906C56.03-.106 48.056.352 179.92.352c130.841 0 121.776-.493 138.5 7.525 18.794 9.01 32.785 25.83 38.24 45.975 1.647 6.08 1.76 17.03 1.76 169.5 0 155.184-.088 163.31-1.837 169.483-7.271 25.648-26.605 44.225-53.073 50.994-7.73 1.977-10.544 2.02-124.5 1.907-64.124-.064-117.49-.303-118.59-.532zm244-6.217c20.225-6.833 34.643-18.775 42.919-35.548 6.957-14.102 6.55-2.923 6.566-180.177.014-156.931-.025-160.245-1.989-167.923-4.9-19.159-18.643-35.292-37.497-44.02-14.513-6.72-9.261-6.47-135.197-6.45-127.993.02-121.07-.363-137.303 7.598-12.513 6.138-24.61 17.905-30.209 29.385-7.897 16.194-7.29 1.136-7.29 181 0 131.14.246 161.506 1.346 166 .74 3.025 3.356 9.7 5.813 14.834 9.158 19.136 28.535 33.338 50.578 37.07 2.904.491 56.809.824 120.262.743l115-.147 7-2.365zm-198.5-60.023c-9.519-3.08-16.271-7.176-23.11-14.015-20.789-20.788-21.287-53.152-1.144-74.27 10.97-11.502 23.564-17.065 38.753-17.12 15.41-.056 28.413 5.21 39.004 15.793 17.113 17.1 20.722 42.162 9.2 63.877-6.22 11.725-20.163 22.684-33.168 26.071-8.077 2.104-22.505 1.94-29.536-.336zm27.5-9.284c11.163-2.824 22.844-12.521 27.865-23.135 15.158-32.041-11.764-68.303-46.676-62.867-22.442 3.494-37.69 21.163-37.69 43.674 0 29.748 26.816 49.837 56.5 42.328zm-25.278-5.742c-10.47-3.881-17.958-10.99-23.019-21.85-2.271-4.875-2.674-7.095-2.688-14.788-.015-8.47.227-9.543 3.757-16.685 4.292-8.685 9.831-14.193 18.606-18.503 5.056-2.482 6.68-2.76 16.137-2.76 9.836 0 10.941.21 17.105 3.241 7.935 3.903 14.955 11.051 18.7 19.04 2.346 5.008 2.68 6.962 2.68 15.719s-.334 10.71-2.68 15.718c-3.727 7.95-10.769 15.139-18.614 19-5.614 2.765-7.747 3.245-15.605 3.513-7.136.244-10.242-.112-14.38-1.645zm7.634-9.186c3.57-1.245 5.132-5.004 3.098-7.455-2.367-2.852-16.748-12.445-18.657-12.445-2.987 0-4.298 2.047-4.298 6.714 0 3.478.63 5 3.25 7.842 1.788 1.94 5.05 4.164 7.25 4.942 4.939 1.746 5.44 1.767 9.357.402zm23.015-2.197c5.247-3.472 8.002-10.139 5.935-14.359-2.028-4.139-5.55-3.446-14.111 2.777-10.566 7.68-11.424 9.15-7.58 12.995 2.869 2.868 10.293 2.203 15.756-1.413zm-8.9-13.683c8.526-6.07 6.985-20.633-2.607-24.641-10.922-4.564-21.252 3.032-20.122 14.794 1.04 10.817 13.678 16.292 22.729 9.847zm-15.383-6.097c-3.146-3.74-3.28-6.774-.457-10.363 3.051-3.88 6.243-4.848 10.336-3.138 9.14 3.819 6.575 16.578-3.333 16.578-3.19 0-4.458-.596-6.546-3.077zm-14.226-1.173c2.226-3.555 6.817-18.46 6.46-20.973-.262-1.848-1.044-2.337-4.149-2.592-4.96-.408-8.323 1.83-10.735 7.143-2.285 5.032-2.465 10.754-.46 14.631 2.35 4.542 6.622 5.403 8.884 1.79zm48.565-.385c4.333-5.509 1.39-18.599-4.915-21.859-3.761-1.945-7.911-1.644-9.365.678-1.084 1.732.136 6.717 4.543 18.566 1.73 4.651 2.279 5.25 4.809 5.25 1.894 0 3.553-.888 4.928-2.635zm-16.51-21.972c1.001-.384 1.582-1.82 1.582-3.911 0-9.006-17.119-12.454-24.615-4.958-2.573 2.573-3.113 6.347-1.185 8.276 1.26 1.26 21.209 1.748 24.219.593zm88.582 69.331c-39.2-13.414-50.638-60.645-21.609-89.224 21.83-21.491 55.066-21.286 76.61.472 7.73 7.808 11.347 14.157 14.021 24.613 2.34 9.145 2.453 14.51.506 23.702-4.16 19.626-19.863 36.18-39.07 41.182-8.833 2.3-22.536 1.966-30.458-.745zm30.5-9.439c7.317-2.28 12.612-5.653 18.266-11.631 24.453-25.856 10.15-67.802-25.145-73.746-31.58-5.318-58.146 23.618-50.088 54.557 6.526 25.052 31.731 38.689 56.967 30.82zm-25-4.63c-11.403-3.78-21.61-13.114-25.555-23.37-3.027-7.87-3.128-19.706-.232-27.004 4.502-11.341 13.893-20.278 25.057-23.842 8.053-2.57 20.999-1.658 28.4 2.002 24.668 12.201 29.917 43.947 10.328 62.472-7.864 7.438-14.89 10.407-25.498 10.774-5.17.179-10.066-.226-12.5-1.032zm6.101-10.133c3.002-1.254 3.488-1.897 3.218-4.25-.248-2.155-2.185-4.164-8.703-9.022-10.79-8.044-15.116-8.187-15.116-.5 0 6.265 3.985 11.412 10.684 13.801 4.906 1.75 5.666 1.747 9.917-.029zm20.805-.789c7.426-4.246 10.61-12.022 6.833-16.687-1.76-2.173-2.233-2.29-4.844-1.195-1.592.668-6.045 3.569-9.895 6.447-5.482 4.098-7.072 5.869-7.335 8.168-.223 1.948.261 3.372 1.44 4.234 2.743 2.006 9.421 1.538 13.801-.967zm-7.406-14.56c8.538-6.2 7.402-19.591-2.07-24.422-6.656-3.393-14.382-1.23-18.749 5.249-4.466 6.626-1.649 16.337 5.89 20.304 4.122 2.169 11.114 1.64 14.93-1.131zm-14.644-5.544c-5.9-5.074-1.83-15.03 6.144-15.03 7.822 0 11.615 9.377 6.046 14.946-3.259 3.259-8.458 3.295-12.19.084zm-15.156-1.38c2.165-2.507 6.982-17.842 6.612-21.046-.247-2.142-.908-2.771-3.182-3.031-4.798-.549-7.508.687-10.084 4.596-3.102 4.709-4.13 10.93-2.582 15.621 1.791 5.428 6.27 7.3 9.236 3.86zm47.4.985c2.104-1.404 3.4-5.13 3.4-9.767 0-8.615-5.139-15.467-11.6-15.467-5.536 0-5.97 2.399-2.466 13.61 1.652 5.285 3.523 10.235 4.157 11 1.238 1.491 4.712 1.825 6.51.624zm-13.652-25.136c1.52-2.839-.455-7.376-4.163-9.566-4.342-2.565-13.411-2.518-17.881.092-3.922 2.29-5.956 7.403-3.92 9.856.999 1.203 3.728 1.52 13.104 1.52 10.614 0 11.948-.198 12.86-1.902zm-85.256-31.599c-26.892-7.393-44.389-34.278-39.759-61.092 3.697-21.41 21.115-39.372 42.567-43.896 8.802-1.856 13.199-1.856 22 0 21.453 4.524 38.87 22.486 42.568 43.896 4.67 27.045-12.984 53.897-40.199 61.14-6.599 1.757-20.704 1.732-27.177-.048zm32.567-12.222c23.2-10.916 32.19-37.466 20.539-60.652-8.896-17.703-30.49-27.242-50.104-22.134-12.906 3.362-22.997 11.202-28.49 22.134-12.597 25.067-1.253 53.17 25.283 62.63 3.875 1.381 7.398 1.72 15.513 1.494 9.38-.261 11.221-.631 17.259-3.472zm-29.973-2.67c-14.097-4.598-24.86-16.943-27.414-31.444-2.772-15.737 6.396-33.254 21.192-40.494 23.928-11.706 51.374 2.539 56.051 29.092 2.823 16.024-7.051 33.727-22.862 40.99-6.947 3.19-20.097 4.096-26.967 1.855zm26.313-10.513c5.52-2.506 8.898-7.396 8.9-12.88.003-8.072-4.097-7.912-15.429.601-5.629 4.229-7.648 6.367-7.877 8.339-.63 5.442 6.691 7.444 14.406 3.94zm-18.533-.13c1.936-1.035 2.551-4.492 1.17-6.568-1.6-2.401-16.664-12.396-18.685-12.396-3.121 0-4.55 1.9-4.55 6.052 0 4.563 3.345 9.631 7.984 12.096 3.816 2.028 11.035 2.447 14.081.817zm11.434-14.847c6.06-3.404 8.277-12.69 4.506-18.876-9.4-15.418-32.623-3.616-25.66 13.04 3.253 7.783 12.933 10.453 21.154 5.836zm-12.75-4.197c-2.67-1.556-4.88-6.554-4.162-9.415.805-3.204 5.879-7.505 8.854-7.505 2.886 0 7.423 3.513 8.627 6.679 1.146 3.016-1.025 8.692-3.918 10.24-2.516 1.347-7.089 1.347-9.4 0zm-16.323-3.17c2.124-3.247 6.558-16.766 6.566-20.022.011-4.276-4.062-5.75-8.797-3.184-5.126 2.778-7.626 7.592-7.664 14.757-.028 5.208.284 6.14 2.774 8.283 3.492 3.006 5.235 3.047 7.12.166zm47.174 1.484c3.468-2.316 4.533-11.586 2.02-17.598-1.856-4.443-6.13-7.636-10.22-7.636-5.531 0-5.923 2.335-2.3 13.704 1.716 5.388 3.576 10.358 4.132 11.046 1.112 1.372 4.636 1.64 6.368.484zm-14.1-24.878c3.483-3.482-.337-9.383-7.33-11.326-5.487-1.524-8.282-1.265-13.196 1.22-3.4 1.72-4.672 3.047-5.394 5.63-1.451 5.193.598 6.12 13.54 6.12 8.628 0 11.06-.323 12.38-1.644zm-84-34.223c-9.104-2.616-16.316-6.954-23.498-14.133-11.555-11.55-16.612-24.592-15.706-40.5.834-14.648 5.72-25.394 16.299-35.846 28.147-27.811 75.925-16.163 89.194 21.744 3.308 9.45 3.452 23.002.349 32.674-5.579 17.386-20.91 31.768-38.842 36.439-7.499 1.953-20.29 1.78-27.797-.378zm28.408-10.028c12.05-3.75 21.045-11.507 26.256-22.642 15.78-33.723-12.948-70.008-49.365-62.349-21.855 4.597-35.71 22.949-34.616 45.848.351 7.34.953 9.792 3.95 16.104 5.53 11.645 14.66 19.494 27.366 23.53 6.172 1.96 19.32 1.716 26.41-.49zm-23.98-4.473c-6.573-1.772-12.795-5.713-18.283-11.58-21.009-22.46-8.761-58.01 22.075-64.077 16.21-3.19 34.331 6.259 42.02 21.908 2.48 5.05 2.76 6.677 2.76 16.117 0 8.803-.367 11.295-2.27 15.42-8.207 17.796-27.807 27.199-46.301 22.212zm24.354-9.992c7.262-3.07 11.949-11.299 9.429-16.557-.675-1.407-2.066-2.72-3.092-2.918-2.133-.41-18.237 10.251-19.748 13.075-3.104 5.8 5.319 9.82 13.41 6.4zm-16.85-1.566c.959-1.059 1.587-2.746 1.397-3.75-.54-2.85-16.376-14.324-19.768-14.324-3.158 0-4.062 1.431-4.062 6.434 0 4.177 3.521 9.342 7.985 11.714 4.709 2.502 12.151 2.464 14.448-.074zm10.6-13.591c3.86-1.996 6.315-6.884 6.336-12.615.037-10.616-10.378-16.816-20.879-12.428-9.065 3.787-10.151 17.961-1.875 24.471 3.248 2.555 11.994 2.86 16.418.572zm-14.11-6.406c-1.607-1.608-2.923-3.88-2.923-5.05 0-5.194 4.88-10.027 10.124-10.027 3.361 0 7.876 5.323 7.876 9.286 0 7.974-9.316 11.552-15.076 5.79zm-15.022-.457c1.57-1.891 7.1-18.461 7.1-21.273 0-2.866-3.243-4.673-6.934-3.862-7.561 1.66-12.567 14.78-8.58 22.488 1.949 3.77 6.337 5.15 8.414 2.647zm49.027-1.255c3.973-5.051 1.607-17.776-4.042-21.733-1.282-.898-4.022-1.632-6.089-1.632-3.157 0-3.857.393-4.375 2.455-.64 2.553 3.62 17.147 6.216 21.295 1.922 3.07 5.71 2.894 8.29-.385zm-16.51-21.972c2.286-.877 2.052-6.924-.36-9.336-5.09-5.09-17.153-5.116-22.22-.049-3.218 3.218-3.725 7.375-1.088 8.911 1.881 1.096 21.048 1.479 23.669.473zm91.691 70.087c-23.214-6.509-39.21-25.698-40.776-48.918-1.064-15.76 4.255-29.39 16.057-41.145 8.158-8.126 16.37-12.641 27.11-14.906 8.802-1.856 13.199-1.856 22 0 28.291 5.966 47.247 33.348 42.514 61.41-3.157 18.716-17.502 35.744-35.514 42.158-7.942 2.827-23.781 3.535-31.39 1.401zm33.205-12.79c22.415-11.079 30.922-37.303 19.484-60.065-8.689-17.29-29.193-26.706-48.998-22.5-24.573 5.218-39.648 29.842-33.267 54.34 3.132 12.025 11.451 22.452 22.296 27.948 7.527 3.814 11.485 4.542 22.895 4.213 9.445-.273 10.784-.573 17.59-3.937zm-28.814-1.567c-6.462-1.696-12.733-5.231-17.828-10.049-23.47-22.198-11.507-60.181 20.84-66.16 25.071-4.636 48.981 19.202 44.453 44.318-2.356 13.07-12.159 25.398-23.718 29.83-6.153 2.36-18.522 3.433-23.747 2.061zm26.362-12.413c4.805-3.18 7.559-8.656 6.688-13.3-1.054-5.615-4.312-5.59-12.556.095-9.206 6.347-10.994 8.132-10.994 10.977 0 5.861 9.48 7.113 16.862 2.228zm-20.433.718c1.673-1.672 2.013-4.219.806-6.032-.404-.607-4.29-3.644-8.634-6.75-10.89-7.785-14.607-7.61-14.597.686.005 4.396 3.204 9.203 7.704 11.578 4.67 2.465 12.499 2.74 14.721.518zm11.382-14.454c3.522-2.147 6.19-7.158 6.19-11.626 0-1.494-.92-4.617-2.045-6.94-6.208-12.824-26.956-7.93-26.956 6.358 0 8.62 5.715 14.226 14.5 14.226 3.255 0 6.156-.704 8.31-2.018zm-13.06-4.054c-2.671-1.556-4.88-6.554-4.163-9.415.805-3.204 5.879-7.505 8.854-7.505 2.886 0 7.423 3.513 8.627 6.679 1.146 3.016-1.025 8.692-3.918 10.24-2.516 1.347-7.089 1.347-9.4 0zm-16.333-3.17c1.86-2.858 6.553-17.519 6.57-20.522.008-1.482-.89-2.682-2.586-3.455-2.172-.99-3.19-.863-6.206.771-5.126 2.778-7.626 7.592-7.664 14.757-.028 5.208.284 6.14 2.774 8.283 3.492 3.007 5.238 3.047 7.112.166zm48.51-.385c2.47-3.14 2.802-10.684.694-15.73-1.838-4.398-6.135-7.635-10.134-7.635-5.81 0-6.145 1.765-2.515 13.26 1.779 5.632 3.693 10.802 4.253 11.49 1.71 2.097 5.499 1.415 7.702-1.385zm-15.427-23.009c2.041-2.041 1.259-6.141-1.64-8.595-8.003-6.774-24.86-2.969-24.86 5.612 0 3.775 2.43 4.563 14.178 4.596 8.602.024 10.998-.289 12.322-1.613z" fill="#bebebe"/><path d="M54.92 443.825c-23.632-6.115-43.65-24.388-51.568-47.072l-2.933-8.401-.278-161.5C-.17 47.77-.48 57.007 6.346 42.368 16.91 19.708 38.453 4.222 64.1.852c5.725-.753 43.404-.994 120.82-.774l112.5.32 7.472 2.292c13.554 4.158 22.561 9.576 32.587 19.602 6.913 6.912 10.033 10.956 13.162 17.06 8.403 16.392 7.678.176 8.021 179.42.328 171.412.423 167.78-4.729 181.383-7.073 18.68-24.68 35.077-45.514 42.389l-8 2.808-119 .207c-114.91.2-119.257.14-126.5-1.734zm241-3.038c15.662-2.53 27.593-8.624 39.039-19.94 5.714-5.649 8.606-9.534 11.699-15.713 7.833-15.65 7.357-3.137 7.042-185.282l-.28-162.5-2.754-7.13c-4.421-11.45-7.61-16.365-16.18-24.942-8.972-8.977-15.212-12.92-27.067-17.105l-8-2.823h-240l-8 2.724c-26.452 9.009-43.414 29.8-46.548 57.055-.716 6.233-.956 59.607-.74 164.72.299 145.626.432 155.882 2.1 161.5 3.23 10.894 8.57 20.211 16.244 28.343 10.569 11.199 23.015 17.992 37.93 20.703 9.146 1.662 225.422 2.02 235.514.39zm-190-61.823c-9.519-3.08-16.271-7.176-23.11-14.015-20.789-20.788-21.287-53.152-1.144-74.27 10.97-11.502 23.564-17.065 38.753-17.12 15.41-.056 28.413 5.21 39.004 15.793 17.113 17.1 20.722 42.162 9.2 63.877-6.22 11.725-20.163 22.684-33.168 26.071-8.077 2.104-22.505 1.94-29.536-.336zm27.5-9.284c11.163-2.824 22.844-12.521 27.865-23.135 15.158-32.041-11.764-68.303-46.676-62.867-22.442 3.494-37.69 21.163-37.69 43.674 0 29.748 26.816 49.837 56.5 42.328zm-25.278-5.742c-10.47-3.881-17.958-10.99-23.019-21.85-2.271-4.875-2.674-7.095-2.688-14.788-.015-8.47.227-9.543 3.757-16.685 4.292-8.685 9.831-14.193 18.606-18.503 5.056-2.482 6.68-2.76 16.137-2.76 9.836 0 10.941.21 17.105 3.241 7.935 3.903 14.955 11.051 18.7 19.04 2.346 5.008 2.68 6.962 2.68 15.719s-.334 10.71-2.68 15.718c-3.727 7.95-10.769 15.139-18.614 19-5.614 2.765-7.747 3.245-15.605 3.513-7.136.244-10.242-.112-14.38-1.645zm7.634-9.186c3.57-1.245 5.132-5.004 3.098-7.455-2.367-2.852-16.748-12.445-18.657-12.445-2.987 0-4.298 2.047-4.298 6.714 0 3.478.63 5 3.25 7.842 1.788 1.94 5.05 4.164 7.25 4.942 4.939 1.746 5.44 1.767 9.357.402zm23.015-2.197c5.247-3.472 8.002-10.139 5.935-14.359-2.028-4.139-5.55-3.446-14.111 2.777-10.566 7.68-11.424 9.15-7.58 12.995 2.869 2.868 10.293 2.203 15.756-1.413zm-8.9-13.683c8.526-6.07 6.985-20.633-2.607-24.641-10.922-4.564-21.252 3.032-20.122 14.794 1.04 10.817 13.678 16.292 22.729 9.847zm-15.383-6.097c-3.146-3.74-3.28-6.774-.457-10.363 3.051-3.88 6.243-4.848 10.336-3.138 9.14 3.819 6.575 16.578-3.333 16.578-3.19 0-4.458-.596-6.546-3.077zm-14.226-1.173c2.226-3.555 6.817-18.46 6.46-20.973-.262-1.848-1.044-2.337-4.149-2.592-4.96-.408-8.323 1.83-10.735 7.143-2.285 5.032-2.465 10.754-.46 14.631 2.35 4.542 6.622 5.403 8.884 1.79zm48.565-.385c4.333-5.509 1.39-18.599-4.915-21.859-3.761-1.945-7.911-1.644-9.365.678-1.084 1.732.136 6.717 4.543 18.566 1.73 4.651 2.279 5.25 4.809 5.25 1.894 0 3.553-.888 4.928-2.635zm-16.51-21.972c1.001-.384 1.582-1.82 1.582-3.911 0-9.006-17.119-12.454-24.615-4.958-2.573 2.573-3.113 6.347-1.185 8.276 1.26 1.26 21.209 1.748 24.219.593zm88.582 69.331c-39.2-13.414-50.638-60.645-21.609-89.224 21.83-21.491 55.066-21.286 76.61.472 7.73 7.808 11.347 14.157 14.021 24.613 2.34 9.145 2.453 14.51.506 23.702-4.16 19.626-19.863 36.18-39.07 41.182-8.833 2.3-22.536 1.966-30.458-.745zm30.5-9.439c7.317-2.28 12.612-5.653 18.266-11.631 24.453-25.856 10.15-67.802-25.145-73.746-31.58-5.318-58.146 23.618-50.088 54.557 6.526 25.052 31.731 38.689 56.967 30.82zm-25-4.63c-11.403-3.78-21.61-13.114-25.555-23.37-3.027-7.87-3.128-19.706-.232-27.004 4.502-11.341 13.893-20.278 25.057-23.842 8.053-2.57 20.999-1.658 28.4 2.002 24.668 12.201 29.917 43.947 10.328 62.472-7.864 7.438-14.89 10.407-25.498 10.774-5.17.179-10.066-.226-12.5-1.032zm6.101-10.133c3.002-1.254 3.488-1.897 3.218-4.25-.248-2.155-2.185-4.164-8.703-9.022-10.79-8.044-15.116-8.187-15.116-.5 0 6.265 3.985 11.412 10.684 13.801 4.906 1.75 5.666 1.747 9.917-.029zm20.805-.789c7.426-4.246 10.61-12.022 6.833-16.687-1.76-2.173-2.233-2.29-4.844-1.195-1.592.668-6.045 3.569-9.895 6.447-5.482 4.098-7.072 5.869-7.335 8.168-.223 1.948.261 3.372 1.44 4.234 2.743 2.006 9.421 1.538 13.801-.967zm-7.406-14.56c8.538-6.2 7.402-19.591-2.07-24.422-6.656-3.393-14.382-1.23-18.749 5.249-4.466 6.626-1.649 16.337 5.89 20.304 4.122 2.169 11.114 1.64 14.93-1.131zm-14.644-5.544c-5.9-5.074-1.83-15.03 6.144-15.03 7.822 0 11.615 9.377 6.046 14.946-3.259 3.259-8.458 3.295-12.19.084zm-15.156-1.38c2.165-2.507 6.982-17.842 6.612-21.046-.247-2.142-.908-2.771-3.182-3.031-4.798-.549-7.508.687-10.084 4.596-3.102 4.709-4.13 10.93-2.582 15.621 1.791 5.428 6.27 7.3 9.236 3.86zm47.4.985c2.104-1.404 3.4-5.13 3.4-9.767 0-8.615-5.139-15.467-11.6-15.467-5.536 0-5.97 2.399-2.466 13.61 1.652 5.285 3.523 10.235 4.157 11 1.238 1.491 4.712 1.825 6.51.624zm-13.652-25.136c1.52-2.839-.455-7.376-4.163-9.566-4.342-2.565-13.411-2.518-17.881.092-3.922 2.29-5.956 7.403-3.92 9.856.999 1.203 3.728 1.52 13.104 1.52 10.614 0 11.948-.198 12.86-1.902zm-85.256-31.599c-26.892-7.393-44.389-34.278-39.759-61.092 3.697-21.41 21.115-39.372 42.567-43.896 8.802-1.856 13.199-1.856 22 0 21.453 4.524 38.87 22.486 42.568 43.896 4.67 27.045-12.984 53.897-40.199 61.14-6.599 1.757-20.704 1.732-27.177-.048zm32.567-12.222c23.2-10.916 32.19-37.466 20.539-60.652-8.896-17.703-30.49-27.242-50.104-22.134-12.906 3.362-22.997 11.202-28.49 22.134-12.597 25.067-1.253 53.17 25.283 62.63 3.875 1.381 7.398 1.72 15.513 1.494 9.38-.261 11.221-.631 17.259-3.472zm-29.973-2.67c-14.097-4.598-24.86-16.943-27.414-31.444-2.772-15.737 6.396-33.254 21.192-40.494 23.928-11.706 51.374 2.539 56.051 29.092 2.823 16.024-7.051 33.727-22.862 40.99-6.947 3.19-20.097 4.096-26.967 1.855zm26.313-10.513c5.52-2.506 8.898-7.396 8.9-12.88.003-8.072-4.097-7.912-15.429.601-5.629 4.229-7.648 6.367-7.877 8.339-.63 5.442 6.691 7.444 14.406 3.94zm-18.533-.13c1.936-1.035 2.551-4.492 1.17-6.568-1.6-2.401-16.664-12.396-18.685-12.396-3.121 0-4.55 1.9-4.55 6.052 0 4.563 3.345 9.631 7.984 12.096 3.816 2.028 11.035 2.447 14.081.817zm11.434-14.847c6.06-3.404 8.277-12.69 4.506-18.876-9.4-15.418-32.623-3.616-25.66 13.04 3.253 7.783 12.933 10.453 21.154 5.836zm-12.75-4.197c-2.67-1.556-4.88-6.554-4.162-9.415.805-3.204 5.879-7.505 8.854-7.505 2.886 0 7.423 3.513 8.627 6.679 1.146 3.016-1.025 8.692-3.918 10.24-2.516 1.347-7.089 1.347-9.4 0zm-16.323-3.17c2.124-3.247 6.558-16.766 6.566-20.022.011-4.276-4.062-5.75-8.797-3.184-5.126 2.778-7.626 7.592-7.664 14.757-.028 5.208.284 6.14 2.774 8.283 3.492 3.006 5.235 3.047 7.12.166zm47.174 1.484c3.468-2.316 4.533-11.586 2.02-17.598-1.856-4.443-6.13-7.636-10.22-7.636-5.531 0-5.923 2.335-2.3 13.704 1.716 5.388 3.576 10.358 4.132 11.046 1.112 1.372 4.636 1.64 6.368.484zm-14.1-24.878c3.483-3.482-.337-9.383-7.33-11.326-5.487-1.524-8.282-1.265-13.196 1.22-3.4 1.72-4.672 3.047-5.394 5.63-1.451 5.193.598 6.12 13.54 6.12 8.628 0 11.06-.323 12.38-1.644zm-84-34.223c-9.104-2.616-16.316-6.954-23.498-14.133-11.555-11.55-16.612-24.592-15.706-40.5.834-14.648 5.72-25.394 16.299-35.846 28.147-27.811 75.925-16.163 89.194 21.744 3.308 9.45 3.452 23.002.349 32.674-5.579 17.386-20.91 31.768-38.842 36.439-7.499 1.953-20.29 1.78-27.797-.378zm28.408-10.028c12.05-3.75 21.045-11.507 26.256-22.642 15.78-33.723-12.948-70.008-49.365-62.349-21.855 4.597-35.71 22.949-34.616 45.848.351 7.34.953 9.792 3.95 16.104 5.53 11.645 14.66 19.494 27.366 23.53 6.172 1.96 19.32 1.716 26.41-.49zm-23.98-4.473c-6.573-1.772-12.795-5.713-18.283-11.58-21.009-22.46-8.761-58.01 22.075-64.077 16.21-3.19 34.331 6.259 42.02 21.908 2.48 5.05 2.76 6.677 2.76 16.117 0 8.803-.367 11.295-2.27 15.42-8.207 17.796-27.807 27.199-46.301 22.212zm24.354-9.992c7.262-3.07 11.949-11.299 9.429-16.557-.675-1.407-2.066-2.72-3.092-2.918-2.133-.41-18.237 10.251-19.748 13.075-3.104 5.8 5.319 9.82 13.41 6.4zm-16.85-1.566c.959-1.059 1.587-2.746 1.397-3.75-.54-2.85-16.376-14.324-19.768-14.324-3.158 0-4.062 1.431-4.062 6.434 0 4.177 3.521 9.342 7.985 11.714 4.709 2.502 12.151 2.464 14.448-.074zm10.6-13.591c3.86-1.996 6.315-6.884 6.336-12.615.037-10.616-10.378-16.816-20.879-12.428-9.065 3.787-10.151 17.961-1.875 24.471 3.248 2.555 11.994 2.86 16.418.572zm-14.11-6.406c-1.607-1.608-2.923-3.88-2.923-5.05 0-5.194 4.88-10.027 10.124-10.027 3.361 0 7.876 5.323 7.876 9.286 0 7.974-9.316 11.552-15.076 5.79zm-15.022-.457c1.57-1.891 7.1-18.461 7.1-21.273 0-2.866-3.243-4.673-6.934-3.862-7.561 1.66-12.567 14.78-8.58 22.488 1.949 3.77 6.337 5.15 8.414 2.647zm49.027-1.255c3.973-5.051 1.607-17.776-4.042-21.733-1.282-.898-4.022-1.632-6.089-1.632-3.157 0-3.857.393-4.375 2.455-.64 2.553 3.62 17.147 6.216 21.295 1.922 3.07 5.71 2.894 8.29-.385zm-16.51-21.972c2.286-.877 2.052-6.924-.36-9.336-5.09-5.09-17.153-5.116-22.22-.049-3.218 3.218-3.725 7.375-1.088 8.911 1.881 1.096 21.048 1.479 23.669.473zm91.691 70.087c-23.214-6.509-39.21-25.698-40.776-48.918-1.064-15.76 4.255-29.39 16.057-41.145 8.158-8.126 16.37-12.641 27.11-14.906 8.802-1.856 13.199-1.856 22 0 28.291 5.966 47.247 33.348 42.514 61.41-3.157 18.716-17.502 35.744-35.514 42.158-7.942 2.827-23.781 3.535-31.39 1.401zm33.205-12.79c22.415-11.079 30.922-37.303 19.484-60.065-8.689-17.29-29.193-26.706-48.998-22.5-24.573 5.218-39.648 29.842-33.267 54.34 3.132 12.025 11.451 22.452 22.296 27.948 7.527 3.814 11.485 4.542 22.895 4.213 9.445-.273 10.784-.573 17.59-3.937zm-28.814-1.567c-6.462-1.696-12.733-5.231-17.828-10.049-23.47-22.198-11.507-60.181 20.84-66.16 25.071-4.636 48.981 19.202 44.453 44.318-2.356 13.07-12.159 25.398-23.718 29.83-6.153 2.36-18.522 3.433-23.747 2.061zm26.362-12.413c4.805-3.18 7.559-8.656 6.688-13.3-1.054-5.615-4.312-5.59-12.556.095-9.206 6.347-10.994 8.132-10.994 10.977 0 5.861 9.48 7.113 16.862 2.228zm-20.433.718c1.673-1.672 2.013-4.219.806-6.032-.404-.607-4.29-3.644-8.634-6.75-10.89-7.785-14.607-7.61-14.597.686.005 4.396 3.204 9.203 7.704 11.578 4.67 2.465 12.499 2.74 14.721.518zm11.382-14.454c3.522-2.147 6.19-7.158 6.19-11.626 0-1.494-.92-4.617-2.045-6.94-6.208-12.824-26.956-7.93-26.956 6.358 0 8.62 5.715 14.226 14.5 14.226 3.255 0 6.156-.704 8.31-2.018zm-13.06-4.054c-2.671-1.556-4.88-6.554-4.163-9.415.805-3.204 5.879-7.505 8.854-7.505 2.886 0 7.423 3.513 8.627 6.679 1.146 3.016-1.025 8.692-3.918 10.24-2.516 1.347-7.089 1.347-9.4 0zm-16.333-3.17c1.86-2.858 6.553-17.519 6.57-20.522.008-1.482-.89-2.682-2.586-3.455-2.172-.99-3.19-.863-6.206.771-5.126 2.778-7.626 7.592-7.664 14.757-.028 5.208.284 6.14 2.774 8.283 3.492 3.007 5.238 3.047 7.112.166zm48.51-.385c2.47-3.14 2.802-10.684.694-15.73-1.838-4.398-6.135-7.635-10.134-7.635-5.81 0-6.145 1.765-2.515 13.26 1.779 5.632 3.693 10.802 4.253 11.49 1.71 2.097 5.499 1.415 7.702-1.385zm-15.427-23.009c2.041-2.041 1.259-6.141-1.64-8.595-8.003-6.774-24.86-2.969-24.86 5.612 0 3.775 2.43 4.563 14.178 4.596 8.602.024 10.998-.289 12.322-1.613z" fill="#dc8c8f"/><path d="M54.92 443.825c-23.632-6.115-43.65-24.388-51.568-47.072l-2.933-8.401-.278-161.5C-.17 47.77-.48 57.007 6.346 42.368 16.91 19.708 38.453 4.222 64.1.852c5.725-.753 43.404-.994 120.82-.774l112.5.32 7.472 2.292c13.554 4.158 22.561 9.576 32.587 19.602 6.913 6.912 10.033 10.956 13.162 17.06 8.403 16.392 7.678.176 8.021 179.42.328 171.412.423 167.78-4.729 181.383-7.073 18.68-24.68 35.077-45.514 42.389l-8 2.808-119 .207c-114.91.2-119.257.14-126.5-1.734zm241-3.038c15.662-2.53 27.593-8.624 39.039-19.94 5.714-5.649 8.606-9.534 11.699-15.713 7.833-15.65 7.357-3.137 7.042-185.282l-.28-162.5-2.754-7.13c-4.421-11.45-7.61-16.365-16.18-24.942-8.972-8.977-15.212-12.92-27.067-17.105l-8-2.823h-240l-8 2.724c-26.452 9.009-43.414 29.8-46.548 57.055-.716 6.233-.956 59.607-.74 164.72.299 145.626.432 155.882 2.1 161.5 3.23 10.894 8.57 20.211 16.244 28.343 10.569 11.199 23.015 17.992 37.93 20.703 9.146 1.662 225.422 2.02 235.514.39zm-184-60.626c-10.33-1.727-23.157-8.504-30.154-15.931-16.553-17.572-19.14-45.702-6.061-65.92 16.65-25.74 52.136-32.248 77.427-14.2 31.582 22.536 28.187 72.096-6.176 90.153-10.513 5.525-23.846 7.77-35.037 5.898zm20.32-9.804c8.12-2.115 12.662-4.67 19.4-10.906 10.27-9.508 14.901-21.155 14.021-35.257-1.445-23.164-21.136-41.288-44.902-41.33-26.515-.047-48.28 25.01-44.025 50.685 4.366 26.349 30.112 43.422 55.506 36.808zm-20.82-5.85c-11.337-2.954-20.097-10.061-25.193-20.438-2.56-5.213-2.808-6.687-2.808-16.717 0-9.832.284-11.605 2.67-16.697 3.544-7.56 10.406-14.235 18.63-18.122 6.078-2.872 7.583-3.164 16.2-3.142 12.888.033 19.259 2.544 27.588 10.873 6.945 6.945 10.302 14.21 11.14 24.103 1.391 16.447-9.051 33.036-24.442 38.828-6.234 2.346-17.444 2.964-23.786 1.312zm25.366-10.45c4.11-1.885 9.133-8.558 9.133-12.133 0-3.332-2.579-7.072-4.876-7.072-.97 0-5.681 2.778-10.469 6.175-9.365 6.643-11.177 9.485-8.169 12.81 2.902 3.206 7.712 3.28 14.38.22zm-19.032.198c4.94-3.46 1.93-7.573-12.756-17.434-5.288-3.551-5.444-3.566-8.04-.78-3.538 3.797-2.155 9.524 3.622 15.003 5.099 4.836 12.8 6.275 17.174 3.211zm10.925-14.398c12.746-7.772 7.308-26.989-7.642-27.002-8.751-.01-16.196 8.433-14.66 16.62.698 3.724 5.71 10.09 8.988 11.418 3.711 1.503 9.945 1.018 13.314-1.036zm-13.125-6.078c-2.126-1.672-2.635-2.914-2.635-6.427 0-3.514.51-4.755 2.635-6.428 5.28-4.153 12.759-1.824 13.914 4.335.703 3.75-1.432 8.95-4.093 9.972-3.134 1.202-7.214.599-9.82-1.452zm32.607-1.441c3.164-3.164 4.078-7.587 2.657-12.862-1.514-5.624-4.54-9.576-8.642-11.29-3.048-1.274-3.724-1.258-5.851.136-3.134 2.053-3.046 4.252.604 15.092 3.95 11.73 6.445 13.711 11.232 8.924zm-48.026-.236c1.928-2.212 6.784-16.864 6.784-20.468 0-2.893-2.35-4.782-5.949-4.782-1.144 0-3.688 1.473-5.653 3.274-6.22 5.7-7.594 16.536-2.773 21.864 2.12 2.342 5.602 2.394 7.59.112zm31.784-22.54c7.223-3.64-1.152-13.71-11.402-13.71-7.513 0-13.598 4.292-13.598 9.59 0 2.628.522 3.434 2.75 4.247 3.998 1.46 19.275 1.373 22.25-.127zm91.162 69.257c-17.862-4.678-30.717-16.849-36.874-34.91-2.638-7.736-3.084-22.494-.925-30.557 6.255-23.358 27.562-39.5 52.137-39.5s45.895 16.222 51.97 39.541c1.96 7.528 1.96 20.39 0 27.917-7.394 28.385-37.065 45.17-66.308 37.51zm25.159-8.462c3.157-.823 7.606-2.448 9.887-3.61 5.023-2.564 14.193-11.037 17.387-16.067 9.26-14.584 8.386-35.745-2.047-49.5-5.439-7.172-9.641-10.53-18.328-14.645-6.285-2.978-7.43-3.183-17.72-3.183-10.64 0-11.255.122-18.821 3.735-9.77 4.665-17.272 12.056-21.82 21.5-2.823 5.86-3.314 8.056-3.671 16.422-.343 8.026-.041 10.772 1.787 16.266 7.29 21.907 31.086 34.88 53.346 29.082zm-21.09-5.991c-7.456-2.099-10.879-4.068-16.798-9.667-3.263-3.085-6.25-7.21-8.058-11.125-2.56-5.54-2.875-7.318-2.875-16.222 0-9.147.27-10.569 3.155-16.659 3.919-8.271 9.9-14.22 18.345-18.244 5.93-2.825 7.38-3.097 16.5-3.092 8.757 0 10.716.34 15.753 2.696 8.043 3.762 15.85 11.449 19.373 19.076 2.56 5.543 2.874 7.317 2.874 16.244 0 9.3-.235 10.5-3.274 16.671-4.145 8.42-12.011 15.832-19.979 18.825-7.431 2.792-18.138 3.433-25.016 1.497zm21.988-8.558c6.87-1.908 12.781-8.65 12.781-14.578 0-3.127-2.537-6.378-4.977-6.378-1.734 0-16.512 10.408-18.866 13.287-1.221 1.494-1.562 1.384-3.74-1.204-1.318-1.566-5.968-5.235-10.335-8.152-7.784-5.201-7.913-5.356-6.618-7.868.727-1.41 2.553-6.514 4.057-11.344 2.632-8.45 2.667-8.854.952-10.75-5.4-5.967-16.473 3.47-16.473 14.04 0 5.662 2.398 9.92 5.99 10.638l2.902.581-2.05 2.773c-7.07 9.563 13.252 24.996 21.74 16.509 2.117-2.118 2.58-2.25 3.103-.889.338.88 2.01 2.208 3.715 2.95 3.802 1.656 3.327 1.632 7.82.385zm-4.46-15.95c5.21-3.177 7.422-7.572 6.959-13.828-.336-4.537-.936-5.864-4.072-9-3.49-3.49-4.015-3.678-10.234-3.678-6.414 0-6.64.09-10.483 4.211-3.567 3.824-3.929 4.708-3.929 9.615 0 4.024.552 6.106 2.162 8.152 5.072 6.448 13.321 8.354 19.598 4.527zm-13.304-6.46c-5.393-5.394-1.589-14.546 6.045-14.546 4.877 0 8.5 3.623 8.5 8.5 0 7.634-9.152 11.438-14.545 6.045zm33.025-.935c6.427-6.427 2.548-21.314-6.364-24.421-3.34-1.164-7.41.38-7.914 3.004-.479 2.484 4.778 18.51 6.997 21.33 2.44 3.103 4.243 3.125 7.28.088zm-16.48-22.901c4.978-2.51 3.47-8.41-2.993-11.707-9.37-4.78-22.96.301-21.834 8.164.496 3.458 4.368 4.803 13.827 4.803 4.848 0 9.575-.541 11-1.26zm-80-32.825c-8.61-1.378-21.256-8.117-27.903-14.868-10.247-10.407-15.104-22.466-15.085-37.449.021-15.859 4.401-26.867 14.988-37.67 10.492-10.704 23.07-15.898 38.5-15.898s28.01 5.194 38.5 15.899c10.466 10.678 14.967 21.831 14.989 37.14.03 21.52-10.433 38.703-29.133 47.844-11.583 5.662-21.681 7.112-34.856 5.002zm19.114-8.89c13.34-2.49 26.009-12.625 32.135-25.708 2.67-5.704 3.242-8.252 3.58-15.964.49-11.163-1.353-17.945-7.284-26.79-17.544-26.169-56.655-26.009-74.292.303-5.84 8.714-7.576 15.226-7.079 26.558.51 11.62 4.117 19.914 12.466 28.667 10.718 11.236 25.041 15.814 40.474 12.933zm-17.114-6.378c-7.504-1.658-12.186-4.08-18.008-9.315-13.572-12.202-15.943-34.375-5.347-49.998 4.127-6.085 8.216-9.412 16.12-13.116 5.027-2.356 6.971-2.688 15.735-2.688s10.71.332 15.736 2.688c7.903 3.704 11.993 7.031 16.12 13.116 9.95 14.672 8.557 35.156-3.264 47.98-5.091 5.524-13.758 10.206-21.525 11.629-7.107 1.302-8.45 1.276-15.567-.296zm6.05-11.43c1.538-1.9 1.611-1.889 3.792.56 1.973 2.215 2.829 2.445 7.619 2.048 10.656-.884 18.608-11.192 14.523-18.827-.847-1.582-.531-2.15 1.891-3.404 3.025-1.563 5.142-5.905 5.103-10.463-.05-5.916-5.656-14.015-10.777-15.57-2.828-.858-7.2 1.755-7.2 4.304 0 2.991 5.87 19.364 7.646 21.326 1.562 1.726 1.542 1.839-.329 1.839-2.156 0-11.783 6.405-17.137 11.401-2.914 2.72-3.465 2.908-4.5 1.54-1.774-2.345-15.868-12.62-18.33-13.363-3.114-.94-6.72 3.824-5.92 7.822 2.031 10.159 18.162 17.526 23.618 10.788zm9.71-13.182c12.791-7.799 7.616-27.172-7.26-27.172-8.348 0-14.503 6.065-14.496 14.285.01 11.341 12.325 18.637 21.756 12.887zm-11.444-4.966c-4.583-1.944-5.754-8.941-2.243-13.404 1.672-2.126 2.914-2.635 6.427-2.635 3.514 0 4.756.509 6.428 2.635 2.531 3.218 2.68 8.4.322 11.284-1.975 2.417-7.643 3.516-10.934 2.12zm-17.194-2.65c.979-.885 3.198-6.086 4.932-11.557 3.02-9.532 3.078-10.029 1.394-11.89-5.505-6.083-16.448 3.276-16.448 14.068 0 8.537 5.461 13.597 10.122 9.38zm34.233-24.586c2.828-4.493-3.264-10.8-11.164-11.559-8.669-.833-16.19 3.437-16.19 9.19 0 4.12 1.722 4.64 14.371 4.345 9.922-.233 12.093-.563 12.983-1.976zm-80.355-32.856c-7.099-1.216-20.335-7.73-26.205-12.897-18.011-15.854-22.511-43.784-10.655-66.134 5.431-10.238 16.789-19.87 28.4-24.082 7.305-2.65 22.564-3.577 30.79-1.87 9.09 1.888 19.384 7.58 26.17 14.473 23.96 24.336 19.655 64.242-8.927 82.753-10.573 6.847-26.572 9.983-39.573 7.757zm18.11-8.968c28.904-5.482 45.006-36.252 32.62-62.335-8.205-17.275-23.58-26.327-43.26-25.466-8.208.36-10.078.819-16.75 4.116-8.801 4.35-17.119 12.629-21.063 20.966-15.304 32.351 13.305 69.385 48.453 62.72zm-16.11-6.314c-11.742-2.64-21.213-9.974-26.685-20.665-2.583-5.048-2.815-6.407-2.815-16.516 0-10.431.175-11.37 3.287-17.697 3.811-7.748 10.051-13.804 18.213-17.677 4.844-2.299 6.754-2.61 16-2.61 9.455 0 11.12.286 16.723 2.874 7.63 3.525 15.318 11.334 19.071 19.373 2.326 4.982 2.687 7.042 2.696 15.375.01 9.264-.139 9.916-3.99 17.457-2.945 5.769-5.359 8.938-9.156 12.02-9.113 7.4-22.212 10.568-33.344 8.066zm4.366-10.738c3.365-2.647 3.333-4.9-.116-8.124-3.449-3.225-16.048-11.803-17.336-11.803-.528 0-.274-1.046.563-2.324 2.129-3.249 6.523-16.488 6.523-19.651 0-8.09-10.962-5.8-15.65 3.267-2.063 3.988-2.037 12.01.048 15.191.895 1.367 2.74 2.764 4.099 3.105 2.297.577 2.367.77.987 2.739-3.867 5.521.742 14.272 9.524 18.08 4.837 2.098 8.265 1.953 11.358-.48zm19.809-.182c7.407-4.527 10.974-12.713 7.305-16.768-2.84-3.138-5.395-2.349-14.73 4.545-6.861 5.068-8.75 6.992-8.75 8.914 0 5.508 9.42 7.435 16.175 3.309zm-9.556-13.369c6.88-3.265 10.346-12.677 7.029-19.091-2.215-4.284-6.865-7.916-11.167-8.723-8.747-1.64-18.566 8.135-16.93 16.856 1.828 9.746 12.226 15.154 21.068 10.958zm-10.303-5.383c-4.563-1.839-5.97-10.339-2.316-13.993 2.949-2.948 9.376-2.716 12.546.454 6.797 6.798-1.082 17.225-10.23 13.539zm29.568-1.624c7.735-5.418 5.393-19.717-4.066-24.825-4.746-2.562-8.818-1.094-8.818 3.18 0 4.16 4.966 18.46 7.301 21.026 2.445 2.686 2.606 2.704 5.583.62zm-12.765-25.73c1.496-3.282-1.029-7.894-5.476-10.004-8.769-4.162-21.643.204-21.643 7.34 0 4.5 1.487 5.025 14.222 5.025 11.454 0 11.855-.073 12.897-2.362zm91.881 71.8c-19.415-4.184-34.85-18.46-40.404-37.37-1.821-6.201-2.097-21.18-.516-28.041 1.783-7.74 6.843-16.873 12.987-23.44 16.13-17.243 42.97-21.676 64.73-10.69 26.1 13.174 36.244 47.667 21.68 73.712-7.293 13.038-20.685 22.675-35.977 25.885-8.534 1.792-13.99 1.779-22.5-.056zm20.201-8.554c13.556-2.851 25.294-12.038 31.547-24.689 3.682-7.45 3.752-7.81 3.752-19.144 0-10.958-.163-11.887-3.185-18.052-8.714-17.784-24.077-26.801-43.983-25.815-7.432.368-9.941.97-15.832 3.796-9.224 4.427-17.494 12.674-21.778 21.717-3.05 6.44-3.222 7.416-3.222 18.354 0 11.334.071 11.694 3.753 19.144 9.22 18.657 29.352 28.811 48.948 24.69zm-16.08-6.013c-11.644-1.934-22.82-10.622-27.907-21.697-3.63-7.904-4.254-20.316-1.422-28.343 4.24-12.02 12.472-20.171 24.064-23.828 21.627-6.821 44.044 4.667 49.671 25.458 6.164 22.77-7.704 44.765-30.56 48.474-3.557.577-6.917 1-7.467.94-.55-.06-3.42-.512-6.38-1.004zm2.93-10.398c1.622-.839 2.95-2.025 2.95-2.636 0-.611 1.186.076 2.636 1.525 5.05 5.05 15.966 2.318 21.084-5.276 2.355-3.496 2.947-8.482 1.314-11.066-.697-1.102-.067-2.195 2.478-4.292 2.232-1.84 3.643-4.042 4.08-6.368 1.945-10.368-9.499-23.376-15.66-17.8-1.063.962-1.933 2.495-1.933 3.406 0 2.89 5.913 19.279 7.647 21.194 1.562 1.727 1.541 1.839-.342 1.839-2.203 0-16.833 9.995-19.434 13.276-1.622 2.046-1.633 2.047-2.266.054-.51-1.607-11.498-10.291-17.364-13.723-3.534-2.068-8.157 3.83-6.715 8.57 1.238 4.07 5.249 8.502 9.678 10.695 5.096 2.522 7.861 2.663 11.846.602zM243.9 132.1c13.639-6.852 8.768-27.582-6.48-27.582-8.19 0-14.5 6.334-14.5 14.554 0 7.838 6.808 14.777 14.5 14.777 1.65 0 4.565-.787 6.48-1.749zm-10.48-5.403c-5.111-2.795-6.24-9.862-2.186-13.67 3.455-3.247 9.882-3.012 12.613.46 3.566 4.533 2.64 10.502-2 12.902-3.333 1.724-5.682 1.81-8.428.308zm-17.137-2.695c.92-1.017 3.045-6.236 4.721-11.598 2.895-9.262 2.961-9.844 1.326-11.65-5.522-6.103-16.41 3.23-16.41 14.065 0 8.538 6.075 13.922 10.363 9.183zm33.991-24.347c1.48-2.35-.181-6.598-3.563-9.115-3.381-2.518-12.577-3.434-16.82-1.676-5.663 2.345-8.786 8.773-5.743 11.817.868.868 4.728 1.147 13.143.95 9.922-.233 12.093-.563 12.983-1.976z" fill="#cb5258"/><path d="M54.92 443.825c-23.632-6.115-43.65-24.388-51.568-47.072l-2.933-8.401-.278-161.5C-.17 47.77-.48 57.007 6.346 42.368 16.91 19.708 38.453 4.222 64.1.852c5.725-.753 43.404-.994 120.82-.774l112.5.32 7.472 2.292c13.554 4.158 22.561 9.576 32.587 19.602 6.913 6.912 10.033 10.956 13.162 17.06 8.403 16.392 7.678.176 8.021 179.42.328 171.412.423 167.78-4.729 181.383-7.073 18.68-24.68 35.077-45.514 42.389l-8 2.808-119 .207c-114.91.2-119.257.14-126.5-1.734zm241-3.038c15.662-2.53 27.593-8.624 39.039-19.94 5.714-5.649 8.606-9.534 11.699-15.713 7.833-15.65 7.357-3.137 7.042-185.282l-.28-162.5-2.754-7.13c-4.421-11.45-7.61-16.365-16.18-24.942-8.972-8.977-15.212-12.92-27.067-17.105l-8-2.823h-240l-8 2.724c-26.452 9.009-43.414 29.8-46.548 57.055-.716 6.233-.956 59.607-.74 164.72.299 145.626.432 155.882 2.1 161.5 3.23 10.894 8.57 20.211 16.244 28.343 10.569 11.199 23.015 17.992 37.93 20.703 9.146 1.662 225.422 2.02 235.514.39zm-187.356-61.452c-26.926-6.828-44.85-33.244-40.702-59.983 3.236-20.85 19.65-38.668 40.518-43.982 33.022-8.41 66.54 17.682 66.54 51.797 0 22.64-14.114 42.505-35.822 50.42-8.525 3.109-22.103 3.886-30.534 1.748zm23.855-8.843c20.139-5.379 33.5-22.531 33.5-43.003 0-25.014-19.533-44.667-44.355-44.625-13.542.023-23.975 4.46-33.184 14.115-22.963 24.074-11.538 64.636 20.644 73.29 6.858 1.845 16.966 1.941 23.395.223zm-20.5-6.014c-11.499-3.166-20.192-10.207-25.219-20.426-3.08-6.26-3.28-7.314-3.272-17.185.008-9.859.206-10.895 3.182-16.603 4.036-7.74 12.463-15.534 20.063-18.555 4.463-1.775 7.757-2.29 14.746-2.308 8.05-.021 9.708.31 15.701 3.138 8.529 4.024 15.082 10.574 19.12 19.112 2.828 5.98 3.17 7.67 3.17 15.7 0 7.993-.347 9.729-3.093 15.5-8.118 17.063-27.204 26.36-44.398 21.627zm21.22-8.67c9.032-2.509 15.26-12.455 11.821-18.88-.766-1.432-.454-2.023 1.552-2.937 5.652-2.575 6.759-13.31 2.094-20.316-4.964-7.454-14.694-8.513-14.68-1.598.008 3.658 4.293 17.049 6.567 20.525 1.321 2.018 1.303 2.25-.174 2.25-1.608 0-12.674 7.31-17.15 11.328-2.692 2.418-2.906 5.79-.5 7.886 3.283 2.86 5.26 3.189 10.47 1.742zm-15.442-1.513c2.454-1.72 2.905-5.233.972-7.577-1.65-2.002-14.754-11.379-17.043-12.196-1.512-.54-1.608-.986-.615-2.842 1.884-3.519 5.877-17.077 5.893-20.008.015-2.546.178-2.634 3.259-1.75 4.702 1.348 18.832 1.114 21.756-.36 5.003-2.522 2.97-9.572-3.545-12.294-9.123-3.812-21.455.633-21.455 7.733 0 2.577-.238 2.753-2.994 2.202-4.56-.912-8.753 1.361-11.66 6.322-4.883 8.332-2.728 19.338 3.943 20.137 2.563.308 2.57.331.65 2.25-8.426 8.427 10.817 25.403 20.839 18.383zm13.91-16.665c2.907-2.906 3.678-4.527 4.064-8.542.928-9.662-4.895-16.24-14.37-16.233-9.075.01-14.818 5.595-14.799 14.398.021 9.511 5.996 14.96 15.718 14.336 5.084-.326 6.245-.816 9.388-3.959zm-16.233-4.233c-5.188-5.188-1.6-14.545 5.577-14.545 3.982 0 8.968 4.726 8.968 8.5 0 1.6-1.16 3.814-2.923 5.577-3.73 3.73-8.181 3.909-11.622.468zm109.821 45.943c-18.26-3.968-35.058-20.038-39.743-38.023-2.001-7.684-1.97-21.61.063-28.534 6.435-21.908 25.612-37.207 48.404-38.618 16.45-1.018 31.104 4.753 42.358 16.683 10.135 10.743 14.619 21.94 14.619 36.504 0 15.113-4.65 26.314-15.4 37.1-13.725 13.77-31.387 18.998-50.3 14.888zm22.613-8.549c12.775-2.945 24.69-12.605 30.39-24.638 3.072-6.485 3.221-7.359 3.221-18.801 0-11.398-.158-12.335-3.164-18.68-7.622-16.087-23.015-25.82-40.836-25.82-17.97 0-33.143 9.582-40.815 25.776-3.031 6.4-3.185 7.303-3.185 18.776 0 11.897.048 12.148 3.726 19.59 5.704 11.542 15.876 20.05 27.799 23.255 6.43 1.728 16.668 1.97 22.864.542zm-18.657-6c-10.914-2.151-21.979-11.102-27.122-21.94-2.272-4.788-2.61-6.792-2.61-15.5 0-8.714.339-10.721 2.636-15.62 10.14-21.625 36.853-29.388 56.486-16.414 10.165 6.717 16.152 16.905 17.092 29.084 1.977 25.595-20.862 45.44-46.482 40.39zm23.87-10.509c4.763-2.432 8.9-8.12 8.883-12.215-.008-2.043-.417-4.35-.909-5.126-.647-1.023-.024-1.996 2.266-3.534 6.33-4.254 5.928-15.661-.791-22.442-2.727-2.75-4.125-3.386-7.454-3.386-3.52 0-4.097-.301-4.097-2.141 0-5.204-6.356-9.586-13.902-9.586-7.632 0-14.098 4.164-14.098 9.079 0 2.584-.203 2.703-3.798 2.22-7.118-.954-13.202 6.665-13.202 16.534 0 5.982 2.79 10.151 6.823 10.197 2.222.025 2.393.197 1.006 1.006-2.837 1.655-3.236 6.495-.926 11.228 2.654 5.437 7.777 8.902 14.053 9.506 4.19.402 5.241.124 7.296-1.931l2.401-2.4 1.667 2.21c2.632 3.488 8.838 3.817 14.782.781zm-17.102-6.362c0-1.054-15.498-12.377-18.362-13.416-1.329-.482-1.576-1.03-.86-1.914 1.553-1.92 7.375-20.898 6.839-22.296-.37-.962.353-1.013 3.203-.223 2.024.56 8.068.809 13.43.552 9.469-.453 9.75-.405 9.75 1.693 0 2.682 5.653 19.588 7 20.935.65.65.033 1.388-1.8 2.159-3.648 1.534-17.2 11.434-17.2 12.565 0 .482-.45.877-1 .877s-1-.42-1-.932zm8.584-7.675c4.696-2.228 7.417-7.005 7.413-13.011-.007-8.946-5.487-14.382-14.497-14.382-8.973 0-14.489 5.44-14.496 14.3-.002 2.64.655 6.072 1.46 7.628 3.306 6.394 12.754 8.96 20.12 5.465zm-11.084-5.601c-3.126-1.793-4.433-4.013-4.468-7.588-.071-7.43 8.96-10.94 14.332-5.568 3.581 3.581 3.479 7.675-.287 11.44-3.069 3.07-6.229 3.636-9.577 1.716zm-66.5-58.359c-10.363-2.244-18.594-6.853-26.519-14.85-10.814-10.914-15.446-22.03-15.469-37.123-.022-15.07 5.048-27.409 15.598-37.958 10.99-10.991 25.475-16.292 41.682-15.253 10.255.657 18.278 3.443 26.958 9.361 14.761 10.064 22.766 25.5 22.739 43.85-.023 15.094-4.655 26.21-15.47 37.123-8.056 8.13-16.206 12.626-27.019 14.906-8.536 1.8-13.992 1.786-22.5-.056zm22.307-8.925c13.47-3.509 23.76-11.803 29.758-23.987 3.336-6.778 3.435-7.326 3.435-19 0-11.45-.151-12.342-3.201-18.78a45.793 45.793 0 0 0-21.172-21.523c-7.423-3.67-7.682-3.718-19.575-3.718-11.485 0-12.37.15-18.81 3.201a45.793 45.793 0 0 0-21.524 21.172c-3.67 7.426-3.718 7.68-3.718 19.596 0 11.733.097 12.27 3.436 19.052 9.442 19.181 31.063 29.277 51.371 23.987zm-18.037-5.512c-19.559-4.092-32.316-20.792-31.042-40.637.876-13.65 9.62-26.124 22.554-32.174 5.002-2.34 6.974-2.675 15.74-2.68 9.284-.01 10.504.233 16.604 3.236 30.702 15.114 28.264 59.331-3.896 70.678-5.532 1.952-14.705 2.676-19.96 1.577zm4.026-11.246l2.204-2.25 2.215 2.25c1.657 1.684 3.367 2.25 6.8 2.25 5.576 0 9.184-1.754 13.337-6.484 2.512-2.861 3.148-4.476 3.148-7.992 0-2.423-.487-4.707-1.083-5.076-.642-.396.183-1.438 2.025-2.559 3.958-2.407 5.386-6.124 4.689-12.208-1.024-8.928-7.938-15.825-14.273-14.235-2.063.518-2.358.236-2.358-2.253 0-5.143-6.168-9.193-14-9.193-7.65 0-14 4.06-14 8.95 0 2.413-.278 2.576-3.819 2.238-7.204-.687-13.18 6.86-13.18 16.645 0 5.442 2.786 10.167 5.995 10.167 1.737 0 1.755.192.301 3.106-5.183 10.392 13.945 24.864 21.999 16.644zm1.704-5.524c0-1.24-13.54-11.604-17.542-13.428-1.554-.708-2.13-1.51-1.583-2.205 1.48-1.885 7.337-20.6 6.846-21.877-.353-.918 2.818-1.216 12.905-1.216h13.372l.013 2.5c.021 3.924 5.838 20.362 7.697 21.75 1.507 1.125 1.449 1.25-.587 1.25-2.231 0-13.017 6.962-18.37 11.859-1.513 1.383-2.75 1.998-2.75 1.367zm10.236-8.794c3.954-2.943 5.765-6.743 5.76-12.087-.006-8.7-5.904-14.668-14.496-14.668-8.608 0-14.49 5.966-14.496 14.705-.005 5.906 2.654 10.682 7.253 13.03 4.218 2.153 12.449 1.649 15.979-.98zm-14.312-6.355c-3.73-3.73-3.91-8.182-.469-11.623 5.188-5.188 14.545-1.6 14.545 5.577 0 3.982-4.726 8.969-8.5 8.969-1.6 0-3.814-1.161-5.576-2.923zm-60.16-58.11c-12.39-2.086-22.83-7.852-31.567-17.431-9.403-10.309-13.598-21.477-13.537-36.036.166-39.402 41.96-64.459 78.21-46.89 7.438 3.606 19.91 16.056 23.43 23.39 13.2 27.502 2.617 58.654-24.417 71.87-11.26 5.504-20.753 7.01-32.12 5.097zm19.15-9.509c13.18-3.106 23.51-11.468 29.74-24.072 6.045-12.232 5.777-27.781-.698-40.474-3.574-7.005-11.664-14.659-19.685-18.623-6.846-3.384-8.456-3.766-17.353-4.124-7.918-.318-11.144.012-16.742 1.713-20.677 6.28-34.152 28.362-30.28 49.622 4.703 25.83 29.43 41.99 55.018 35.958zm-17.133-5.489c-11.84-1.994-23.492-10.851-28.592-21.733-2.385-5.089-2.688-6.922-2.682-16.236.006-9.406.291-11.081 2.74-16.075 3.726-7.6 10.888-14.604 18.753-18.339 5.917-2.81 7.397-3.086 16.5-3.086 8.861 0 10.631.31 15.538 2.722 11.315 5.562 18.595 14.277 21.545 25.795 5.458 21.302-8.751 42.781-31.016 46.888-6.5 1.2-6.063 1.197-12.786.064zm3.719-10.969c.825-.685 1.5-2.535 1.5-4.111 0-2.36-1.104-3.677-6.25-7.456-3.437-2.524-7.842-5.522-9.79-6.662l-3.54-2.074 3.29-9.442c1.81-5.193 3.29-10.638 3.29-12.099l-.002-2.656h13.14c11.27 0 13.293-.242 14.213-1.697 1.613-2.552-.317-6.864-4.262-9.522-2.482-1.673-4.82-2.281-8.769-2.281-9.154 0-14.32 3.315-14.32 9.191 0 2.13-.364 2.294-4.375 1.975-3.895-.31-4.765.04-7.904 3.18-5.884 5.884-6.903 16.48-2.096 21.792.927 1.024 2.541 1.862 3.587 1.862 1.766 0 1.79.159.345 2.222-1.933 2.76-1.984 6.06-.146 9.577 1.793 3.432 6.357 7.78 9.59 9.133 3.092 1.296 10.478.745 12.499-.932zm20.904-1.359c5.85-4.462 8.13-10.908 5.556-15.716-.87-1.626-.634-2.099 1.44-2.887 4.371-1.662 6.393-8.38 4.565-15.168-1.35-5.018-7.65-11.87-10.913-11.87-3.701 0-6.052 1.86-6.052 4.792 0 4.213 5.662 20.487 7.627 21.924 1.592 1.164 1.508 1.284-.89 1.284-1.693 0-5.63 2.249-10.941 6.25-8.906 6.71-10.365 9.358-7.128 12.935 2.74 3.027 11.843 2.188 16.736-1.544zM127.899 132.1c7.068-3.55 9.875-11.875 6.626-19.65-3.845-9.203-17.551-10.98-24.413-3.165-4.324 4.925-5.006 10.375-2.035 16.276 3.864 7.676 12.132 10.403 19.822 6.54zm-10.48-5.415c-3.22-1.913-4.434-4.089-4.468-8.01-.05-5.824 6.349-9.533 12.424-7.202 1.938.744 4.544 5.49 4.544 8.273 0 5.046-8.109 9.548-12.5 6.94zm111.264 45.191c-21.179-3.823-37.94-18.976-43.31-39.156-1.918-7.202-1.847-21.167.142-27.937 3.974-13.528 14.233-26.439 25.905-32.597 21.237-11.206 47.276-7.447 63.956 9.233 27.854 27.854 16.93 75.095-20.355 88.026-7.502 2.602-19.34 3.695-26.338 2.431zm24.347-10.974c13.024-4.949 23.159-15.541 27.014-28.234 3.157-10.396 2.431-22.904-1.863-32.075-4.39-9.375-11.777-16.898-21.135-21.523-7.423-3.67-7.682-3.718-19.575-3.718-11.485 0-12.37.15-18.81 3.201-7.553 3.578-16.47 11.424-20.082 17.673-4.595 7.945-5.912 13.937-5.502 25.023.341 9.204.718 10.908 3.796 17.16 6.033 12.257 18.016 21.652 31.155 24.426 6.45 1.362 18.854.403 25.002-1.933zm-22.11-4.03c-13.965-2.432-25.342-12.142-30.101-25.69-2.862-8.146-2.305-19.594 1.34-27.548 3.637-7.935 10.666-15.118 18.634-19.04 6.1-3.004 7.323-3.242 16.626-3.242 9.304 0 10.527.238 16.626 3.241 7.93 3.904 14.952 11.056 18.694 19.04 2.318 4.946 2.68 7.003 2.68 15.219-.001 10.175-1.5 15.021-7.203 23.28-7.299 10.57-23.797 17.09-37.297 14.74zm3.295-11.27l2.204-2.25 2.215 2.25c1.657 1.684 3.367 2.25 6.8 2.25 8.413 0 15.364-5.747 16.229-13.416.324-2.875.056-5.121-.723-6.06-1.028-1.239-.804-1.656 1.323-2.465 8.685-3.302 6.275-22.075-3.346-26.06-4.462-1.848-8.392-.374-8.818 3.306-.43 3.72 5.552 21.435 7.651 22.66 1.402.818 1.265.979-.852 1.004-2.323.028-13.333 7.247-18.729 12.28-1.237 1.155-2.25 1.574-2.25.932 0-1.267-13.3-11.45-17.39-13.313-2.334-1.064-2.42-1.336-1.177-3.758 2.047-3.987 6.7-19.322 6.232-20.536-.285-.74 3.444-.97 12.01-.742 13.582.364 15.325-.18 15.325-4.78 0-2.734-2.61-5.829-6.684-7.927-2.653-1.367-11.262-1.476-14.654-.187-3.611 1.373-6.662 5.06-6.662 8.05 0 2.375-.303 2.575-3.367 2.217-7.64-.892-13.633 6.43-13.633 16.656 0 4.22.475 5.704 2.455 7.684 1.35 1.35 3.16 2.455 4.023 2.455 1.407 0 1.4.257-.067 2.495-3.425 5.228 1.081 14.006 9.048 17.625 5.575 2.533 10.121 2.402 12.837-.37zm9.635-13.214c5.33-2.757 8.07-7.126 8.066-12.863-.005-6.886-2.692-11.209-8.59-13.818-7.527-3.33-15.325-.782-18.927 6.183-1.967 3.805-1.88 11.476.17 14.947 3.561 6.027 13.067 8.764 19.281 5.55zm-9.574-5.506c-5.45-2.254-6.995-9.483-2.902-13.576 5.128-5.128 14.545-1.603 14.545 5.445 0 5.657-6.555 10.235-11.643 8.13z" fill="#7b7b7b"/><path d="M62.42 444.85c-29.23-4.396-53.068-25.577-60.21-53.498C.526 384.767.42 374.78.42 222.852v-161.5l2.303-7.955C10.249 27.402 31.257 7.96 57.868 2.362 64.033 1.066 81.19.852 179.027.852c127.307 0 122.048-.268 137.621 7.006 20.084 9.381 34.015 25.943 39.342 46.768 1.867 7.302 1.929 12.734 1.912 168.136-.014 133.469-.253 161.7-1.411 167.167-5.828 27.49-29.21 49.251-58.572 54.51-6.003 1.075-29.747 1.325-119 1.253-61.325-.049-113.75-.428-116.5-.842zm240.09-4.998c20.839-5.267 37.265-18.677 45.935-37.5 6.336-13.756 5.974-2.888 5.974-179.5 0-151.59-.108-161.895-1.774-167.928-5.255-19.03-18.385-34.776-36.272-43.498-15.352-7.486-7.358-7.074-137.454-7.074-131.114 0-120.913-.574-138 7.764-12.015 5.863-23.934 17.738-29.847 29.736-7.557 15.335-7.116 4.118-7.135 181.302-.02 176.04-.392 165.755 6.533 180.198 6.656 13.88 17.05 24.149 31.95 31.566 14.192 7.065 8.224 6.766 136.59 6.854 112.41.077 115.807.024 123.5-1.92zm-193.946-60.517c-26.926-6.828-44.85-33.244-40.702-59.983 3.236-20.85 19.65-38.668 40.518-43.982 33.022-8.41 66.54 17.682 66.54 51.797 0 22.64-14.114 42.505-35.822 50.42-8.525 3.109-22.103 3.886-30.534 1.748zm23.855-8.843c20.139-5.379 33.5-22.531 33.5-43.003 0-25.014-19.533-44.667-44.355-44.625-13.542.023-23.975 4.46-33.184 14.115-22.963 24.074-11.538 64.636 20.644 73.29 6.858 1.845 16.966 1.941 23.395.223zm-20.5-6.014c-11.499-3.166-20.192-10.207-25.219-20.426-3.08-6.26-3.28-7.314-3.272-17.185.008-9.859.206-10.895 3.182-16.603 4.036-7.74 12.463-15.534 20.063-18.555 4.463-1.775 7.757-2.29 14.746-2.308 8.05-.021 9.708.31 15.701 3.138 8.529 4.024 15.082 10.574 19.12 19.112 2.828 5.98 3.17 7.67 3.17 15.7 0 7.993-.347 9.729-3.093 15.5-8.118 17.063-27.204 26.36-44.398 21.627zm21.22-8.67c9.032-2.509 15.26-12.455 11.821-18.88-.766-1.432-.454-2.023 1.552-2.937 5.652-2.575 6.759-13.31 2.094-20.316-4.964-7.454-14.694-8.513-14.68-1.598.008 3.658 4.293 17.049 6.567 20.525 1.321 2.018 1.303 2.25-.174 2.25-1.608 0-12.674 7.31-17.15 11.328-2.692 2.418-2.906 5.79-.5 7.886 3.283 2.86 5.26 3.189 10.47 1.742zm-15.442-1.513c2.454-1.72 2.905-5.233.972-7.577-1.65-2.002-14.754-11.379-17.043-12.196-1.512-.54-1.608-.986-.615-2.842 1.884-3.519 5.877-17.077 5.893-20.008.015-2.546.178-2.634 3.259-1.75 4.702 1.348 18.832 1.114 21.756-.36 5.003-2.522 2.97-9.572-3.545-12.294-9.123-3.812-21.455.633-21.455 7.733 0 2.577-.238 2.753-2.994 2.202-4.56-.912-8.753 1.361-11.66 6.322-4.883 8.332-2.728 19.338 3.943 20.137 2.563.308 2.57.331.65 2.25-8.426 8.427 10.817 25.403 20.839 18.383zm13.91-16.665c2.907-2.906 3.678-4.527 4.064-8.542.928-9.662-4.895-16.24-14.37-16.233-9.075.01-14.818 5.595-14.799 14.398.021 9.511 5.996 14.96 15.718 14.336 5.084-.326 6.245-.816 9.388-3.959zm-16.233-4.233c-5.188-5.188-1.6-14.545 5.577-14.545 3.982 0 8.968 4.726 8.968 8.5 0 1.6-1.16 3.814-2.923 5.577-3.73 3.73-8.181 3.909-11.622.468zm109.821 45.943c-18.26-3.968-35.058-20.038-39.743-38.023-2.001-7.684-1.97-21.61.063-28.534 6.435-21.908 25.612-37.207 48.404-38.618 16.45-1.018 31.104 4.753 42.358 16.683 10.135 10.743 14.619 21.94 14.619 36.504 0 15.113-4.65 26.314-15.4 37.1-13.725 13.77-31.387 18.998-50.3 14.888zm22.613-8.549c12.775-2.945 24.69-12.605 30.39-24.638 3.072-6.485 3.221-7.359 3.221-18.801 0-11.398-.158-12.335-3.164-18.68-7.622-16.087-23.015-25.82-40.836-25.82-17.97 0-33.143 9.582-40.815 25.776-3.031 6.4-3.185 7.303-3.185 18.776 0 11.897.048 12.148 3.726 19.59 5.704 11.542 15.876 20.05 27.799 23.255 6.43 1.728 16.668 1.97 22.864.542zm-18.657-6c-10.914-2.151-21.979-11.102-27.122-21.94-2.272-4.788-2.61-6.792-2.61-15.5 0-8.714.339-10.721 2.636-15.62 10.14-21.625 36.853-29.388 56.486-16.414 10.165 6.717 16.152 16.905 17.092 29.084 1.977 25.595-20.862 45.44-46.482 40.39zm23.87-10.509c4.763-2.432 8.9-8.12 8.883-12.215-.008-2.043-.417-4.35-.909-5.126-.647-1.023-.024-1.996 2.266-3.534 6.33-4.254 5.928-15.661-.791-22.442-2.727-2.75-4.125-3.386-7.454-3.386-3.52 0-4.097-.301-4.097-2.141 0-5.204-6.356-9.586-13.902-9.586-7.632 0-14.098 4.164-14.098 9.079 0 2.584-.203 2.703-3.798 2.22-7.118-.954-13.202 6.665-13.202 16.534 0 5.982 2.79 10.151 6.823 10.197 2.222.025 2.393.197 1.006 1.006-2.837 1.655-3.236 6.495-.926 11.228 2.654 5.437 7.777 8.902 14.053 9.506 4.19.402 5.241.124 7.296-1.931l2.401-2.4 1.667 2.21c2.632 3.488 8.838 3.817 14.782.781zm-17.102-6.362c0-1.054-15.498-12.377-18.362-13.416-1.329-.482-1.576-1.03-.86-1.914 1.553-1.92 7.375-20.898 6.839-22.296-.37-.962.353-1.013 3.203-.223 2.024.56 8.068.809 13.43.552 9.469-.453 9.75-.405 9.75 1.693 0 2.682 5.653 19.588 7 20.935.65.65.033 1.388-1.8 2.159-3.648 1.534-17.2 11.434-17.2 12.565 0 .482-.45.877-1 .877s-1-.42-1-.932zm8.584-7.675c4.696-2.228 7.417-7.005 7.413-13.011-.007-8.946-5.487-14.382-14.497-14.382-8.973 0-14.489 5.44-14.496 14.3-.002 2.64.655 6.072 1.46 7.628 3.306 6.394 12.754 8.96 20.12 5.465zm-11.084-5.601c-3.126-1.793-4.433-4.013-4.468-7.588-.071-7.43 8.96-10.94 14.332-5.568 3.581 3.581 3.479 7.675-.287 11.44-3.069 3.07-6.229 3.636-9.577 1.716zm-66.5-58.359c-10.363-2.244-18.594-6.853-26.519-14.85-10.814-10.914-15.446-22.03-15.469-37.123-.022-15.07 5.048-27.409 15.598-37.958 10.99-10.991 25.475-16.292 41.682-15.253 10.255.657 18.278 3.443 26.958 9.361 14.761 10.064 22.766 25.5 22.739 43.85-.023 15.094-4.655 26.21-15.47 37.123-8.056 8.13-16.206 12.626-27.019 14.906-8.536 1.8-13.992 1.786-22.5-.056zm22.307-8.925c13.47-3.509 23.76-11.803 29.758-23.987 3.336-6.778 3.435-7.326 3.435-19 0-11.45-.151-12.342-3.201-18.78a45.793 45.793 0 0 0-21.172-21.523c-7.423-3.67-7.682-3.718-19.575-3.718-11.485 0-12.37.15-18.81 3.201a45.793 45.793 0 0 0-21.524 21.172c-3.67 7.426-3.718 7.68-3.718 19.596 0 11.733.097 12.27 3.436 19.052 9.442 19.181 31.063 29.277 51.371 23.987zm-18.037-5.512c-19.559-4.092-32.316-20.792-31.042-40.637.876-13.65 9.62-26.124 22.554-32.174 5.002-2.34 6.974-2.675 15.74-2.68 9.284-.01 10.504.233 16.604 3.236 30.702 15.114 28.264 59.331-3.896 70.678-5.532 1.952-14.705 2.676-19.96 1.577zm4.026-11.246l2.204-2.25 2.215 2.25c1.657 1.684 3.367 2.25 6.8 2.25 5.576 0 9.184-1.754 13.337-6.484 2.512-2.861 3.148-4.476 3.148-7.992 0-2.423-.487-4.707-1.083-5.076-.642-.396.183-1.438 2.025-2.559 3.958-2.407 5.386-6.124 4.689-12.208-1.024-8.928-7.938-15.825-14.273-14.235-2.063.518-2.358.236-2.358-2.253 0-5.143-6.168-9.193-14-9.193-7.65 0-14 4.06-14 8.95 0 2.413-.278 2.576-3.819 2.238-7.204-.687-13.18 6.86-13.18 16.645 0 5.442 2.786 10.167 5.995 10.167 1.737 0 1.755.192.301 3.106-5.183 10.392 13.945 24.864 21.999 16.644zm1.704-5.524c0-1.24-13.54-11.604-17.542-13.428-1.554-.708-2.13-1.51-1.583-2.205 1.48-1.885 7.337-20.6 6.846-21.877-.353-.918 2.818-1.216 12.905-1.216h13.372l.013 2.5c.021 3.924 5.838 20.362 7.697 21.75 1.507 1.125 1.449 1.25-.587 1.25-2.231 0-13.017 6.962-18.37 11.859-1.513 1.383-2.75 1.998-2.75 1.367zm10.236-8.794c3.954-2.943 5.765-6.743 5.76-12.087-.006-8.7-5.904-14.668-14.496-14.668-8.608 0-14.49 5.966-14.496 14.705-.005 5.906 2.654 10.682 7.253 13.03 4.218 2.153 12.449 1.649 15.979-.98zm-14.312-6.355c-3.73-3.73-3.91-8.182-.469-11.623 5.188-5.188 14.545-1.6 14.545 5.577 0 3.982-4.726 8.969-8.5 8.969-1.6 0-3.814-1.161-5.576-2.923zm-60.16-58.11c-12.39-2.086-22.83-7.852-31.567-17.431-9.403-10.309-13.598-21.477-13.537-36.036.166-39.402 41.96-64.459 78.21-46.89 7.438 3.606 19.91 16.056 23.43 23.39 13.2 27.502 2.617 58.654-24.417 71.87-11.26 5.504-20.753 7.01-32.12 5.097zm19.15-9.509c13.18-3.106 23.51-11.468 29.74-24.072 6.045-12.232 5.777-27.781-.698-40.474-3.574-7.005-11.664-14.659-19.685-18.623-6.846-3.384-8.456-3.766-17.353-4.124-7.918-.318-11.144.012-16.742 1.713-20.677 6.28-34.152 28.362-30.28 49.622 4.703 25.83 29.43 41.99 55.018 35.958zm-17.133-5.489c-11.84-1.994-23.492-10.851-28.592-21.733-2.385-5.089-2.688-6.922-2.682-16.236.006-9.406.291-11.081 2.74-16.075 3.726-7.6 10.888-14.604 18.753-18.339 5.917-2.81 7.397-3.086 16.5-3.086 8.861 0 10.631.31 15.538 2.722 11.315 5.562 18.595 14.277 21.545 25.795 5.458 21.302-8.751 42.781-31.016 46.888-6.5 1.2-6.063 1.197-12.786.064zm3.719-10.969c.825-.685 1.5-2.535 1.5-4.111 0-2.36-1.104-3.677-6.25-7.456-3.437-2.524-7.842-5.522-9.79-6.662l-3.54-2.074 3.29-9.442c1.81-5.193 3.29-10.638 3.29-12.099l-.002-2.656h13.14c11.27 0 13.293-.242 14.213-1.697 1.613-2.552-.317-6.864-4.262-9.522-2.482-1.673-4.82-2.281-8.769-2.281-9.154 0-14.32 3.315-14.32 9.191 0 2.13-.364 2.294-4.375 1.975-3.895-.31-4.765.04-7.904 3.18-5.884 5.884-6.903 16.48-2.096 21.792.927 1.024 2.541 1.862 3.587 1.862 1.766 0 1.79.159.345 2.222-1.933 2.76-1.984 6.06-.146 9.577 1.793 3.432 6.357 7.78 9.59 9.133 3.092 1.296 10.478.745 12.499-.932zm20.904-1.359c5.85-4.462 8.13-10.908 5.556-15.716-.87-1.626-.634-2.099 1.44-2.887 4.371-1.662 6.393-8.38 4.565-15.168-1.35-5.018-7.65-11.87-10.913-11.87-3.701 0-6.052 1.86-6.052 4.792 0 4.213 5.662 20.487 7.627 21.924 1.592 1.164 1.508 1.284-.89 1.284-1.693 0-5.63 2.249-10.941 6.25-8.906 6.71-10.365 9.358-7.128 12.935 2.74 3.027 11.843 2.188 16.736-1.544zM127.899 132.1c7.068-3.55 9.875-11.875 6.626-19.65-3.845-9.203-17.551-10.98-24.413-3.165-4.324 4.925-5.006 10.375-2.035 16.276 3.864 7.676 12.132 10.403 19.822 6.54zm-10.48-5.415c-3.22-1.913-4.434-4.089-4.468-8.01-.05-5.824 6.349-9.533 12.424-7.202 1.938.744 4.544 5.49 4.544 8.273 0 5.046-8.109 9.548-12.5 6.94zm111.264 45.191c-21.179-3.823-37.94-18.976-43.31-39.156-1.918-7.202-1.847-21.167.142-27.937 3.974-13.528 14.233-26.439 25.905-32.597 21.237-11.206 47.276-7.447 63.956 9.233 27.854 27.854 16.93 75.095-20.355 88.026-7.502 2.602-19.34 3.695-26.338 2.431zm24.347-10.974c13.024-4.949 23.159-15.541 27.014-28.234 3.157-10.396 2.431-22.904-1.863-32.075-4.39-9.375-11.777-16.898-21.135-21.523-7.423-3.67-7.682-3.718-19.575-3.718-11.485 0-12.37.15-18.81 3.201-7.553 3.578-16.47 11.424-20.082 17.673-4.595 7.945-5.912 13.937-5.502 25.023.341 9.204.718 10.908 3.796 17.16 6.033 12.257 18.016 21.652 31.155 24.426 6.45 1.362 18.854.403 25.002-1.933zm-22.11-4.03c-13.965-2.432-25.342-12.142-30.101-25.69-2.862-8.146-2.305-19.594 1.34-27.548 3.637-7.935 10.666-15.118 18.634-19.04 6.1-3.004 7.323-3.242 16.626-3.242 9.304 0 10.527.238 16.626 3.241 7.93 3.904 14.952 11.056 18.694 19.04 2.318 4.946 2.68 7.003 2.68 15.219-.001 10.175-1.5 15.021-7.203 23.28-7.299 10.57-23.797 17.09-37.297 14.74zm3.295-11.27l2.204-2.25 2.215 2.25c1.657 1.684 3.367 2.25 6.8 2.25 8.413 0 15.364-5.747 16.229-13.416.324-2.875.056-5.121-.723-6.06-1.028-1.239-.804-1.656 1.323-2.465 8.685-3.302 6.275-22.075-3.346-26.06-4.462-1.848-8.392-.374-8.818 3.306-.43 3.72 5.552 21.435 7.651 22.66 1.402.818 1.265.979-.852 1.004-2.323.028-13.333 7.247-18.729 12.28-1.237 1.155-2.25 1.574-2.25.932 0-1.267-13.3-11.45-17.39-13.313-2.334-1.064-2.42-1.336-1.177-3.758 2.047-3.987 6.7-19.322 6.232-20.536-.285-.74 3.444-.97 12.01-.742 13.582.364 15.325-.18 15.325-4.78 0-2.734-2.61-5.829-6.684-7.927-2.653-1.367-11.262-1.476-14.654-.187-3.611 1.373-6.662 5.06-6.662 8.05 0 2.375-.303 2.575-3.367 2.217-7.64-.892-13.633 6.43-13.633 16.656 0 4.22.475 5.704 2.455 7.684 1.35 1.35 3.16 2.455 4.023 2.455 1.407 0 1.4.257-.067 2.495-3.425 5.228 1.081 14.006 9.048 17.625 5.575 2.533 10.121 2.402 12.837-.37zm9.635-13.214c5.33-2.757 8.07-7.126 8.066-12.863-.005-6.886-2.692-11.209-8.59-13.818-7.527-3.33-15.325-.782-18.927 6.183-1.967 3.805-1.88 11.476.17 14.947 3.561 6.027 13.067 8.764 19.281 5.55zm-9.574-5.506c-5.45-2.254-6.995-9.483-2.902-13.576 5.128-5.128 14.545-1.603 14.545 5.445 0 5.657-6.555 10.235-11.643 8.13z" fill="#ba1920"/><path d="M62.42 444.85c-29.23-4.396-53.068-25.577-60.21-53.498C.526 384.767.42 374.78.42 222.852v-161.5l2.303-7.955C10.249 27.402 31.257 7.96 57.868 2.362 64.033 1.066 81.19.852 179.027.852c127.307 0 122.048-.268 137.621 7.006 20.084 9.381 34.015 25.943 39.342 46.768 1.867 7.302 1.929 12.734 1.912 168.136-.014 133.469-.253 161.7-1.411 167.167-5.828 27.49-29.21 49.251-58.572 54.51-6.003 1.075-29.747 1.325-119 1.253-61.325-.049-113.75-.428-116.5-.842zm240.09-4.998c20.839-5.267 37.265-18.677 45.935-37.5 6.336-13.756 5.974-2.888 5.974-179.5 0-151.59-.108-161.895-1.774-167.928-5.255-19.03-18.385-34.776-36.272-43.498-15.352-7.486-7.358-7.074-137.454-7.074-131.114 0-120.913-.574-138 7.764-12.015 5.863-23.934 17.738-29.847 29.736-7.557 15.335-7.116 4.118-7.135 181.302-.02 176.04-.392 165.755 6.533 180.198 6.656 13.88 17.05 24.149 31.95 31.566 14.192 7.065 8.224 6.766 136.59 6.854 112.41.077 115.807.024 123.5-1.92z" fill="#010101"/></svg>