<svg xmlns="http://www.w3.org/2000/svg" width="358.006" height="445.45"><path d="M59.081 444.42c-14.98-2.939-28.144-9.9-38.575-20.398-8.914-8.972-13.346-15.797-17.32-26.68l-2.68-7.334L.24 225.226C-.052 42.36-.458 54.19 6.598 39.893c6.947-14.072 18.282-25.247 32.908-32.44C55.68-.503 46.11.008 179.006.008c132.982 0 122.849-.545 139.5 7.493 18.674 9.014 32.463 25.811 37.565 45.762 1.874 7.326 1.935 12.66 1.935 169.245 0 157.543-.05 161.877-1.969 169.376-5.56 21.739-21.457 39.565-43.066 48.294-13.424 5.422-10.33 5.302-134.465 5.203-63.25-.051-116.991-.483-119.425-.96z" fill="#fefefe"/><path d="M59.081 444.42c-14.98-2.939-28.144-9.9-38.575-20.398-8.914-8.972-13.346-15.797-17.32-26.68l-2.68-7.334L.24 225.226C-.052 42.36-.458 54.19 6.598 39.893c6.947-14.072 18.282-25.247 32.908-32.44C55.68-.503 46.11.008 179.006.008c132.982 0 122.849-.545 139.5 7.493 18.674 9.014 32.463 25.811 37.565 45.762 1.874 7.326 1.935 12.66 1.935 169.245 0 157.543-.05 161.877-1.969 169.376-5.56 21.739-21.457 39.565-43.066 48.294-13.424 5.422-10.33 5.302-134.465 5.203-63.25-.051-116.991-.483-119.425-.96zm242.425-5.198c3.3-.95 10.147-3.76 15.215-6.246 15.957-7.828 27.727-21.336 33.961-38.978l2.824-7.99v-163c0-155.231-.088-163.283-1.833-168.94-7.384-23.927-25.675-41.552-49.423-47.626-7.265-1.858-12.142-1.934-123.244-1.934-111.79 0-115.94.066-123.377 1.968-22.487 5.751-41.039 22.76-48.34 44.317l-2.783 8.215-.279 160c-.304 174.312-.484 168.064 5.236 181 9.443 21.35 30.915 37.313 54.352 40.404 3.68.486 57.316.805 119.19.71 103.248-.16 112.994-.316 118.5-1.9z" fill="#bfbfbf"/><path d="M58.006 443.954c-27.535-5.91-48.711-25.387-55.932-51.442C.022 385.107.006 383.764.006 222.508s.016-162.6 2.068-170.004c5.504-19.86 21.295-37.99 40.479-46.475C57-.36 48.628.008 179.506.008h119l9.049 3.163c12.803 4.476 20.746 9.45 29.95 18.752 8.904 8.998 13.338 15.846 17.322 26.75l2.679 7.335.264 163.78c.296 183.065.788 169.895-6.932 185.531-7.141 14.464-22.243 28.433-37.396 34.59-14.074 5.718-11.317 5.606-135.144 5.52-93.344-.066-114.96-.331-120.292-1.475zm243.5-4.732c3.3-.95 10.147-3.76 15.215-6.246 15.957-7.828 27.727-21.336 33.961-38.978l2.824-7.99v-163c0-155.231-.088-163.283-1.833-168.94-7.384-23.927-25.675-41.552-49.423-47.626-7.265-1.858-12.142-1.934-123.244-1.934-111.79 0-115.94.066-123.377 1.968-22.487 5.751-41.039 22.76-48.34 44.317l-2.783 8.215-.279 160c-.304 174.312-.484 168.064 5.236 181 9.443 21.35 30.915 37.313 54.352 40.404 3.68.486 57.316.805 119.19.71 103.248-.16 112.994-.316 118.5-1.9z" fill="#bebebe"/><path d="M58.006 443.954c-27.535-5.91-48.711-25.387-55.932-51.442C.022 385.107.006 383.764.006 222.508s.016-162.6 2.068-170.004c5.504-19.86 21.295-37.99 40.479-46.475C57-.36 48.628.008 179.506.008h119l9.049 3.163c12.803 4.476 20.746 9.45 29.95 18.752 8.904 8.998 13.338 15.846 17.322 26.75l2.679 7.335.264 163.78c.296 183.065.788 169.895-6.932 185.531-7.141 14.464-22.243 28.433-37.396 34.59-14.074 5.718-11.317 5.606-135.144 5.52-93.344-.066-114.96-.331-120.292-1.475zm244-4.777c19.312-5.16 36.999-19.252 44.771-35.67 7.203-15.214 6.729-2.426 6.729-181.5v-162l-2.341-7.5c-3.301-10.576-7.503-17.993-14.558-25.698-7.431-8.115-17.945-15.149-28.33-18.953l-7.771-2.847-118.5-.297c-131.723-.33-124.879-.643-139.663 6.383-13.83 6.573-24.64 17.209-31.417 30.913-7.288 14.738-6.885 4.174-6.885 180.5 0 174.841-.326 165.588 6.315 179.471 10.287 21.503 29.52 35.246 53.843 38.475 3.469.46 56.932.752 118.807.648 103.296-.172 113.032-.33 119-1.925z" fill="#7f7f7f"/><path d="M63.199 444.455c-9.191-1.222-16.705-3.615-25.193-8.025-17.626-9.156-29.667-23.816-35.665-43.422C.592 387.29.506 379.245.506 222.508v-164.5l2.902-8.855c6.96-21.234 23.478-37.471 46.598-45.803l6.5-2.342L175.944.734C292.63.467 295.567.507 303.444 2.466c13.464 3.35 23.728 9.156 33.692 19.06 7.31 7.268 9.321 10.024 13.153 18.03 2.488 5.199 5.13 11.927 5.87 14.952 1.101 4.495 1.347 35.263 1.347 168.5 0 155.131-.089 163.314-1.836 169.5-5.366 18.993-19.423 35.957-36.766 44.37-17.724 8.597-7.916 8.004-135.898 8.222-62.425.107-116.338-.183-119.807-.645zm235.599-4.475c4.564-.905 11.583-3.408 17.208-6.136 8.144-3.95 10.784-5.907 18.5-13.721 6.954-7.043 9.853-10.867 12.751-16.822 7.16-14.708 6.718-2.817 6.734-180.833.017-178.95.562-165.12-7.135-180.96-3.351-6.896-5.756-10.108-12.74-17.019-9.253-9.155-17.01-13.905-29.61-18.133l-7-2.348-115-.282c-129.836-.319-123.734-.635-140 7.257-18.637 9.042-31.996 25.035-36.93 44.215-1.432 5.56-1.567 22.81-1.332 169.5l.262 163.31 2.223 6.5c6.207 18.142 21.602 34.396 39.45 41.648 12.942 5.26 10.045 5.144 131.619 5.251 97.882.087 114.34-.107 121-1.427z" fill="#404040"/><path d="M63.461 444.425c-8.535-.997-21.216-5.352-29.102-9.994-3.199-1.883-9.466-7.033-13.928-11.445-6.702-6.628-8.916-9.669-12.74-17.5C-.492 388.73.006 400.582.006 222.508c0-174.975-.32-166 6.442-180.5C15.623 22.335 33.067 7.99 54.474 2.516 62.116.56 65.44.508 179.006.508c112.59 0 116.948.069 124.339 1.958 25.592 6.546 45.64 26.073 52.4 51.042 1.647 6.08 1.76 17.053 1.76 170v163.5l-2.724 8c-3.813 11.198-9.117 19.8-17.296 28.053-11.924 12.033-26.761 19.17-44.453 21.386-10.122 1.267-218.709 1.247-229.57-.022zm235.337-4.445c4.564-.905 11.583-3.408 17.208-6.136 8.144-3.95 10.784-5.907 18.5-13.722 6.954-7.042 9.853-10.866 12.751-16.82 7.16-14.71 6.718-2.818 6.734-180.834.017-178.95.562-165.12-7.135-180.96-3.351-6.896-5.756-10.108-12.74-17.019-9.253-9.155-17.01-13.905-29.61-18.133l-7-2.348-115-.282c-129.836-.319-123.734-.635-140 7.257-18.637 9.042-31.996 25.035-36.93 44.215-1.432 5.56-1.567 22.81-1.332 169.5l.262 163.31 2.223 6.5c6.207 18.142 21.602 34.396 39.45 41.648 12.942 5.26 10.045 5.143 131.619 5.251 97.882.087 114.34-.107 121-1.427z" fill="#3f3f3f"/><path d="M63.461 444.425c-8.535-.997-21.216-5.352-29.102-9.994-3.199-1.883-9.466-7.033-13.928-11.445-6.702-6.628-8.916-9.669-12.74-17.5C-.492 388.73.006 400.582.006 222.508c0-174.975-.32-166 6.442-180.5C15.623 22.335 33.067 7.99 54.474 2.516 62.116.56 65.44.508 179.006.508c112.59 0 116.948.069 124.339 1.958 25.592 6.546 45.64 26.073 52.4 51.042 1.647 6.08 1.76 17.053 1.76 170v163.5l-2.724 8c-3.813 11.198-9.117 19.8-17.296 28.053-11.924 12.033-26.761 19.17-44.453 21.386-10.122 1.267-218.709 1.247-229.57-.022zm243.045-6.142c21.257-7.239 37.816-23.427 44.776-43.775l2.224-6.5.28-162.5c.246-143.608.099-163.314-1.268-169.5-5.186-23.48-24.02-42.767-49.012-50.193-5.579-1.657-14.078-1.803-120.959-2.07C59.08 3.438 60.295 3.396 46.702 8.509c-14.507 5.458-28.947 18.58-35.76 32.5-7.447 15.212-6.936 1.88-6.936 181.16 0 111.92.332 162.862 1.084 166.54.596 2.915 3.105 9.51 5.575 14.658 7.253 15.115 21.51 27.963 37.389 33.695 12.099 4.367 10.603 4.321 133.452 4.13l117-.183 8-2.725z"/></svg>