<svg xmlns="http://www.w3.org/2000/svg" height="445.709" width="358.817"><path d="M59.763 444.825c-27.737-4.74-50.973-25.93-57.828-52.735C.06 384.765 0 379.43 0 222.846 0 65.205.05 60.973 1.972 53.456 8.29 28.752 27.698 9.626 54 2.185 60.144.447 66.983.346 179 .346c132.894 0 123.325-.51 139.5 7.445 19.07 9.38 32.692 25.822 38.167 46.07 1.629 6.025 1.777 17.523 2.082 161.985.198 93.86-.05 159.307-.625 165.104-1.779 17.921-7.717 30.42-20.624 43.41-8.654 8.71-17.788 14.201-31 18.636l-7 2.35-117.5.144c-64.625.08-119.631-.22-122.237-.665zm233.1-4.021c23.463-2.942 44.096-17.19 54.08-37.343 7.548-15.236 7.124-3.809 6.825-183.886L353.5 58.346l-2.68-7.335c-3.917-10.725-8.378-17.665-16.82-26.168-8.736-8.8-19.474-14.921-31.623-18.028C294.939 4.912 290.789 4.846 179 4.846c-111.047 0-115.983.077-123.234 1.932-23.658 6.05-42.218 23.945-49.41 47.638C4.661 60 4.54 69.566 4.257 218.783c-.339 179.357-.759 168.688 7.284 184.9 10.075 20.306 30.594 34.448 53.959 37.186 9.987 1.17 217.983 1.111 227.362-.065zm-38.22-99.988c-4.119-1.231-5.915-3.156-13.071-14.009-3.518-5.335-9.136-12.629-12.484-16.208-3.349-3.58-6.088-7.075-6.088-7.768 0-.98 3.17-1.141 14.25-.725 22.985.865 32.353 5.148 39.851 18.22 5.303 9.244 3.197 14.423-7.466 18.357-6.788 2.505-11.503 3.175-14.992 2.133zm-105.998-4.977l-3.678-3.229 8.267-5.083c10.105-6.214 24.532-20.213 28.055-27.224 2.613-5.197 6.203-16.299 5.499-17.002-.219-.219-4.639.076-9.823.655-5.183.579-11.552.903-14.153.721l-4.728-.331-2.15 6c-3.733 10.423-15.511 33.796-19.695 39.084-4.824 6.096-8.512 7.836-15.241 7.19-6.346-.61-12.318-4.549-25.245-16.65l-9.747-9.124h-5.543c-3.48 0-6.923-.708-9.253-1.902C62.72 304.592 53 294.648 53 290.316c0-2.368 2.506-4.078 3.536-2.412 1.614 2.612 9.196 5.281 14.964 5.268 10.042-.023 31.158-7.188 58.084-19.707 6.645-3.09 12.833-5.619 13.75-5.619.916 0 1.666-.618 1.666-1.374 0-2.036-2.854-9.753-4.582-12.391l-1.505-2.298-6.707 3.56c-3.688 1.96-10.482 6.923-15.097 11.032-8.118 7.227-8.558 7.47-13.5 7.467-3.293 0-6.241-.694-8.295-1.946-3.543-2.16-5.952-5.825-4.657-7.082.464-.45 4.903-2.597 9.865-4.773 4.962-2.175 16.262-7.58 25.11-12.011l16.09-8.056 1.583-6.286c.871-3.458 1.496-6.374 1.39-6.48-.108-.108-5.03-.519-10.941-.915l-10.747-.72-7.89 7.538c-21.253 20.306-53.311 41.992-65.438 44.267-3.198.6-3.679.44-3.679-1.224 0-2.438 3.062-5.258 21.5-19.804 8.836-6.97 22.12-18.959 32.323-29.172l17.324-17.339-11.99-12.746c-19.608-20.844-21.771-23.874-20.99-29.395.223-1.575 1.102-2.461 2.662-2.682 3.62-.513 20.296 11.004 31.315 21.628l9.644 9.298 3.456-4.298c12.514-15.56 20.632-32.798 15.446-32.798-.72 0-6.683 1.765-13.25 3.921-17.187 5.644-18.769 5.841-21.885 2.725-1.405-1.405-2.555-3.18-2.555-3.943 0-.784 2.933-2.539 6.75-4.037 10.468-4.11 18.215-9.784 31.506-23.074 13.751-13.75 20.163-18.57 25.693-19.312 3.148-.422 4.052-.117 5.415 1.83 1.84 2.627 2.2 12.756.683 19.29-.886 3.822-.78 4.04 5.228 10.75 3.373 3.768 6.45 6.85 6.84 6.85 1.165 0 8.57-12.307 11.2-18.616 3.346-8.024 4.729-15.087 5.239-26.754.338-7.744.881-10.598 2.52-13.25 1.15-1.859 2.524-3.38 3.056-3.38 2.354 0 14.023 15.683 15.822 21.265 1.163 3.609 1.015 4.129-3.554 12.5-2.622 4.804-6.694 12.273-9.05 16.598-4.945 9.08-8.39 13.83-13.308 18.354l-3.497 3.216 3.465 3.784a884.016 884.016 0 0 0 8.419 9.007l4.953 5.224 4.834-7.224c2.933-4.382 5.673-10.076 6.965-14.474 1.17-3.987 2.562-7.25 3.091-7.25 1.528 0 9.828 6.44 14.56 11.294 3.426 3.517 4.26 5.043 4 7.325-.3 2.62-.75 2.93-4.963 3.414-4.932.567-9.178 3.081-17.203 10.186l-4.837 4.281 16.337 17.223c8.985 9.473 28.978 29.37 44.43 44.214 26.432 25.395 32.158 31.65 34.42 37.6.98 2.575-.572 3.496-2.564 1.522-1.54-1.527-29.083-13.977-40.259-18.198-27.292-10.31-32.053-14.67-51.733-47.361-28.436-47.236-46.214-75.513-47.458-75.486-.275.01-1.776 3.333-3.336 7.394-5.768 15.02-21.983 39.45-37.617 56.678l-7.454 8.213 3.907-.733c5.512-1.034 11.063-4.06 17.899-9.754 4.999-4.165 6.444-4.869 9.468-4.613 2.772.234 4.078 1.06 5.85 3.699 1.256 1.869 2.283 4.416 2.283 5.661 0 2.674-4.54 6.783-9.456 8.561-2.724.985-3.905 2.292-5.57 6.162-1.162 2.702-1.97 5.052-1.794 5.223.176.17 4.37-1.436 9.32-3.571 4.95-2.135 10.184-4.301 11.631-4.814 2.303-.817 2.78-1.784 3.821-7.768 3.082-17.695 3.853-34.146 1.983-42.261-1.278-5.543-.233-6.871 4.019-5.11 3.474 1.439 12.452 11.326 14.013 15.432 2.885 7.588.031 18.372-10.88 41.118l-6.828 14.231 6.12-1.407c9.794-2.252 12.104-3.208 19.31-7.986 6.05-4.01 7.315-4.47 11.32-4.112 5.631.504 9.74 2.472 12.253 5.868 3.783 5.114-1.516 8.853-15.662 11.052l-7.226 1.123.345 8.6c.19 4.73.579 10.48.864 12.779l.518 4.179 3.7-.58c6.016-.941 24.374-4.987 28.74-6.333 5.446-1.68 9.883-.679 17.555 3.96 4.95 2.993 6.404 4.405 6.404 6.217 0 3.247-3.635 3.75-27.61 3.82-10.786.032-21.666.34-24.177.684l-4.566.626-.612 7.624c-1.447 18.02-4.983 28.506-11.966 35.489-6.74 6.74-21.407 12.84-34.158 14.205-5.847.626-6.235.524-9.766-2.577zm-25.627-22.006c4.388-3.125 11.316-12.776 15.5-21.594 1.915-4.035 3.482-7.807 3.482-8.384 0-1.243-2.19-.757-14.486 3.213-9.806 3.166-14.698 5.808-27.344 14.767l-8.33 5.902 6.32 3.19c13.049 6.587 18.753 7.254 24.858 2.906zm65.52-39.192c.912-.911 3.146-11.783 4.018-19.545l.702-6.25h-9.56c-9.484 0-9.58.024-11.7 3.002-2.036 2.86-5.75 5.58-6.54 4.79-.204-.204.735-3.953 2.086-8.332 1.35-4.378 2.456-8.046 2.456-8.15 0-.251-11.97 3.884-19.25 6.65-5.674 2.155-7.384 4.476-4.2 5.698 3.907 1.499 10.11 12.267 11.927 20.702l.616 2.86 14.382-.372c7.91-.204 14.689-.679 15.064-1.053z" fill="#c2c6c1"/><path d="M59.763 444.825c-27.737-4.74-50.973-25.93-57.828-52.735C.06 384.765 0 379.43 0 222.846 0 65.205.05 60.973 1.972 53.456 8.29 28.752 27.698 9.626 54 2.185 60.144.447 66.983.346 179 .346c132.894 0 123.325-.51 139.5 7.445 19.07 9.38 32.692 25.822 38.167 46.07 1.629 6.025 1.777 17.523 2.082 161.985.198 93.86-.05 159.307-.625 165.104-1.779 17.921-7.717 30.42-20.624 43.41-8.654 8.71-17.788 14.201-31 18.636l-7 2.35-117.5.144c-64.625.08-119.631-.22-122.237-.665zm233.1-4.021c23.463-2.942 44.096-17.19 54.08-37.343 7.548-15.236 7.124-3.809 6.825-183.886L353.5 58.346l-2.68-7.335c-3.917-10.725-8.378-17.665-16.82-26.168-8.736-8.8-19.474-14.921-31.623-18.028C294.939 4.912 290.789 4.846 179 4.846c-111.047 0-115.983.077-123.234 1.932-23.658 6.05-42.218 23.945-49.41 47.638C4.661 60 4.54 69.566 4.257 218.783c-.339 179.357-.759 168.688 7.284 184.9 10.075 20.306 30.594 34.448 53.959 37.186 9.987 1.17 217.983 1.111 227.362-.065zm-37.605-99.702c-3.19-.56-7.35-5.055-13.732-14.847-3.051-4.681-8.468-11.62-12.037-15.42-3.569-3.8-6.489-7.378-6.489-7.95 0-1.57 20.328-1.253 28.335.444 10.031 2.125 16.734 5.539 20.872 10.63 8.79 10.813 9.777 15.285 4.477 20.269-4.645 4.369-15.621 7.89-21.426 6.874zM149 335.887c-3.305-2.983-3.394-3.226-1.595-4.35 23.603-14.756 33.815-25.86 38.136-41.468.956-3.453 1.543-6.472 1.304-6.71-.238-.24-4.688.018-9.889.572-5.2.554-11.627.873-14.28.71l-4.824-.295-1.793 5c-6.537 18.231-16.793 37.157-23.471 43.312-3.864 3.561-5.183 4.187-8.816 4.178-6.867-.016-13.348-3.874-25.772-15.343l-11.5-10.615-5.434-.016c-6.792-.02-12.382-2.624-19.399-9.037-6.428-5.876-9.692-11.354-7.857-13.189.993-.994 1.593-.993 2.968 0 7.86 5.693 17.648 6.086 32.396 1.3 11.423-3.705 31.05-11.67 40.566-16.46 3.718-1.872 8.707-3.987 11.087-4.7 4.221-1.264 4.312-1.38 3.685-4.722-.811-4.321-4.6-12.21-5.865-12.21-2.417 0-14.332 7.703-19.936 12.889-8.49 7.855-10.552 9.11-14.966 9.11-4.23 0-9.627-1.938-11.4-4.094-3.226-3.924-2.38-4.633 15.155-12.705 9.35-4.305 20.812-9.823 25.471-12.263l8.471-4.437 1.845-6.351c1.014-3.493 1.702-6.493 1.529-6.667-.174-.173-5.115-.636-10.98-1.03l-10.664-.714-9.336 8.396c-31.242 28.095-65.98 49.516-67.606 41.689-.242-1.163 4.807-5.789 16.46-15.084 21.224-16.928 34.67-29.07 45.75-41.315l8.715-9.63-2.328-2.627c-1.28-1.444-6.986-7.553-12.68-13.575C89.358 179.908 84 172.902 84 169.703c0-2.72 1.66-4.86 3.774-4.86 3.01 0 23.154 14.921 31.381 23.245l8.655 8.756 4.96-6.75c11.244-15.302 16.93-26.26 15.527-29.92-.775-2.018-2.49-1.704-17.54 3.214-7.788 2.546-14.74 4.279-15.804 3.94-3.102-.984-6.175-5.512-4.836-7.126.62-.747 1.702-1.358 2.404-1.358s5.377-2.053 10.39-4.563c8.124-4.067 10.88-6.266 25.37-20.25 9.898-9.553 17.885-16.42 20.425-17.561 8.574-3.853 11.95.181 11.023 13.169-.302 4.237-.834 8.417-1.182 9.287-.43 1.075 1.511 3.898 6.052 8.802l6.684 7.22 2.912-4.302c4.015-5.93 7.73-13.27 9.879-19.516 2.051-5.963 4.344-23.583 3.74-28.751-.317-2.721.242-4.197 2.7-7.125l3.1-3.693 5.733 6.892c3.153 3.79 6.898 9.266 8.323 12.168l2.592 5.278-2.918 5.722c-9.027 17.705-17.294 31.152-22.442 36.504l-5.598 5.819 7.854 8.7c4.32 4.785 8.228 8.826 8.687 8.98.928.311 6.834-8.24 9.898-14.332 1.092-2.171 2.541-6.31 3.221-9.198.68-2.888 1.573-5.25 1.987-5.25 1.36 0 13.66 9.748 16.382 12.984 4.483 5.328 3.08 9.016-3.433 9.016-2.735 0-4.98.978-8.612 3.75C226.001 185.683 223 188.346 223 189.5c0 1.298 44.948 46.81 72.527 73.438 12.718 12.28 18.847 18.95 20.812 22.655 1.532 2.887 2.6 5.25 2.374 5.25-.226 0-6.892-3.094-14.812-6.875-7.92-3.78-20.926-9.441-28.901-12.58-28.403-11.174-31.344-13.924-52.48-49.065-18.852-31.346-32.756-53.907-40.006-64.916-5.314-8.069-7.502-10.196-7.523-7.314-.005.687-2.41 6.2-5.343 12.25-6.904 14.24-18.955 32.059-31.447 46.5-5.472 6.325-9.564 11.647-9.094 11.827.47.18 3.32-.39 6.335-1.267 3.732-1.085 7.854-3.503 12.919-7.577 8.471-6.815 11.377-7.447 15.21-3.311 5.447 5.876 4.145 9.928-4.609 14.347-3.279 1.655-5.962 3.211-5.962 3.458 0 .247-.865 2.644-1.922 5.326l-1.923 4.878 11.173-4.832c6.144-2.658 11.676-4.836 12.291-4.84 1.225-.01 1.725-2.323 3.892-18.01 1.667-12.068 1.921-27.004.542-31.813-1.094-3.816-.47-6.186 1.628-6.186 2.164 0 13.23 10.912 15.424 15.21 3.957 7.749 2.151 15.432-9.655 41.078-5.268 11.443-6.812 15.666-5.61 15.342.913-.245 4.969-1.222 9.013-2.171 5.418-1.271 9.302-3.042 14.757-6.727 6.908-4.667 7.707-4.96 11.914-4.384 5.714.783 9.994 2.986 12.126 6.24 1.601 2.444 1.571 2.645-.74 4.957-2.336 2.335-15.375 6.455-20.43 6.455-2.145 0-2.191.248-1.796 9.75.612 14.756.978 16.356 3.613 15.796 1.211-.257 7.352-1.415 13.646-2.574 6.293-1.158 12.985-2.751 14.872-3.54 1.886-.787 4.736-1.432 6.332-1.432 3.43 0 15.546 5.885 18.224 8.852 4.609 5.106-.154 6.12-28.871 6.15-10.45.011-20.654.293-22.676.628l-3.676.607-.636 7.632c-1.428 17.116-4.547 26.729-11.003 33.91-6.987 7.77-21.325 14.196-35.172 15.762-5.563.629-6.001.512-9.337-2.5zm-28.08-20.5c5.03-2.6 12.068-11.618 17.145-21.967 2.717-5.54 4.494-10.221 3.947-10.403-1.504-.502-20.837 5.707-26.14 8.394-3.581 1.815-21.874 14.11-23.7 15.931-.618.616 8.644 5.588 13.99 7.512 6.449 2.32 10.987 2.484 14.758.534zM187 274.96c2.275-.626 2.65-1.54 4.154-10.15.91-5.206 1.698-10.896 1.75-12.645l.096-3.182-9.576-.318-9.576-.319-1.944 3.15c-1.79 2.902-3.763 4.35-5.926 4.35-.472 0 .245-3.245 1.594-7.212 1.35-3.967 2.335-7.548 2.19-7.959-.144-.41-4.537.762-9.762 2.604-13.805 4.869-15 5.399-15 6.652 0 .624 2.21 3.553 4.91 6.508 4.566 4.995 7.104 9.945 8.54 16.657l.588 2.75 12.731-.1c7.002-.055 13.856-.409 15.231-.787z" fill="#bebebe"/><path d="M57.667 444.23c-25.617-5.542-46.68-24.316-54.841-48.884l-2.326-7v-331l2.756-8.13C10.543 27.714 28.498 10.753 52.5 2.696l7-2.35 115-.283c78.567-.194 117.21.058 121.977.794 23.715 3.663 44.3 18.555 54.583 39.489 8.054 16.395 7.44 1.342 7.44 182.5 0 181.173.614 166.12-7.447 182.5-8.957 18.2-25.763 31.986-46.553 38.187-5.6 1.67-13.819 1.802-123 1.982-99.99.164-117.993-.022-123.833-1.286zm245.477-5.086c20.463-5.788 35.772-18.385 44.385-36.522 6.782-14.281 6.436-4.615 6.436-179.776 0-176.357.404-165.78-6.897-180.5-6.984-14.08-16.637-23.717-30.568-30.516-15.2-7.419-7.646-7.055-140.241-6.754L57.5 5.346l-8.416 3.24C27.93 16.734 13.29 32.067 6.832 52.847l-2.332 7.5v325l2.34 7.5c3.664 11.738 7.875 18.714 16.656 27.598 11.596 11.733 24.465 18.225 40.227 20.295 3.727.49 57.402.818 119.277.729 112.046-.16 112.53-.17 120.144-2.324zm-47.886-98.042c-3.19-.56-7.35-5.055-13.732-14.847-3.051-4.681-8.468-11.62-12.037-15.42-3.569-3.8-6.489-7.378-6.489-7.95 0-1.57 20.328-1.253 28.335.444 10.031 2.125 16.734 5.539 20.872 10.63 8.79 10.813 9.777 15.285 4.477 20.269-4.645 4.369-15.621 7.89-21.426 6.874zM149 335.887c-3.305-2.983-3.394-3.226-1.595-4.35 23.603-14.756 33.815-25.86 38.136-41.468.956-3.453 1.543-6.472 1.304-6.71-.238-.24-4.688.018-9.889.572-5.2.554-11.627.873-14.28.71l-4.824-.295-1.793 5c-6.537 18.231-16.793 37.157-23.471 43.312-3.864 3.561-5.183 4.187-8.816 4.178-6.867-.016-13.348-3.874-25.772-15.343l-11.5-10.615-5.434-.016c-6.792-.02-12.382-2.624-19.399-9.037-6.428-5.876-9.692-11.354-7.857-13.189.993-.994 1.593-.993 2.968 0 7.86 5.693 17.648 6.086 32.396 1.3 11.423-3.705 31.05-11.67 40.566-16.46 3.718-1.872 8.707-3.987 11.087-4.7 4.221-1.264 4.312-1.38 3.685-4.722-.811-4.321-4.6-12.21-5.865-12.21-2.417 0-14.332 7.703-19.936 12.889-8.49 7.855-10.552 9.11-14.966 9.11-4.23 0-9.627-1.938-11.4-4.094-3.226-3.924-2.38-4.633 15.155-12.705 9.35-4.305 20.812-9.823 25.471-12.263l8.471-4.437 1.845-6.351c1.014-3.493 1.702-6.493 1.529-6.667-.174-.173-5.115-.636-10.98-1.03l-10.664-.714-9.336 8.396c-31.242 28.095-65.98 49.516-67.606 41.689-.242-1.163 4.807-5.789 16.46-15.084 21.224-16.928 34.67-29.07 45.75-41.315l8.715-9.63-2.328-2.627c-1.28-1.444-6.986-7.553-12.68-13.575C89.358 179.908 84 172.902 84 169.703c0-2.72 1.66-4.86 3.774-4.86 3.01 0 23.154 14.921 31.381 23.245l8.655 8.756 4.96-6.75c11.244-15.302 16.93-26.26 15.527-29.92-.775-2.018-2.49-1.704-17.54 3.214-7.788 2.546-14.74 4.279-15.804 3.94-3.102-.984-6.175-5.512-4.836-7.126.62-.747 1.702-1.358 2.404-1.358s5.377-2.053 10.39-4.563c8.124-4.067 10.88-6.266 25.37-20.25 9.898-9.553 17.885-16.42 20.425-17.561 8.574-3.853 11.95.181 11.023 13.169-.302 4.237-.834 8.417-1.182 9.287-.43 1.075 1.511 3.898 6.052 8.802l6.684 7.22 2.912-4.302c4.015-5.93 7.73-13.27 9.879-19.516 2.051-5.963 4.344-23.583 3.74-28.751-.317-2.721.242-4.197 2.7-7.125l3.1-3.693 5.733 6.892c3.153 3.79 6.898 9.266 8.323 12.168l2.592 5.278-2.918 5.722c-9.027 17.705-17.294 31.152-22.442 36.504l-5.598 5.819 7.854 8.7c4.32 4.785 8.228 8.826 8.687 8.98.928.311 6.834-8.24 9.898-14.332 1.092-2.171 2.541-6.31 3.221-9.198.68-2.888 1.573-5.25 1.987-5.25 1.36 0 13.66 9.748 16.382 12.984 4.483 5.328 3.08 9.016-3.433 9.016-2.735 0-4.98.978-8.612 3.75C226.001 185.683 223 188.346 223 189.5c0 1.298 44.948 46.81 72.527 73.438 12.718 12.28 18.847 18.95 20.812 22.655 1.532 2.887 2.6 5.25 2.374 5.25-.226 0-6.892-3.094-14.812-6.875-7.92-3.78-20.926-9.441-28.901-12.58-28.403-11.174-31.344-13.924-52.48-49.065-18.852-31.346-32.756-53.907-40.006-64.916-5.314-8.069-7.502-10.196-7.523-7.314-.005.687-2.41 6.2-5.343 12.25-6.904 14.24-18.955 32.059-31.447 46.5-5.472 6.325-9.564 11.647-9.094 11.827.47.18 3.32-.39 6.335-1.267 3.732-1.085 7.854-3.503 12.919-7.577 8.471-6.815 11.377-7.447 15.21-3.311 5.447 5.876 4.145 9.928-4.609 14.347-3.279 1.655-5.962 3.211-5.962 3.458 0 .247-.865 2.644-1.922 5.326l-1.923 4.878 11.173-4.832c6.144-2.658 11.676-4.836 12.291-4.84 1.225-.01 1.725-2.323 3.892-18.01 1.667-12.068 1.921-27.004.542-31.813-1.094-3.816-.47-6.186 1.628-6.186 2.164 0 13.23 10.912 15.424 15.21 3.957 7.749 2.151 15.432-9.655 41.078-5.268 11.443-6.812 15.666-5.61 15.342.913-.245 4.969-1.222 9.013-2.171 5.418-1.271 9.302-3.042 14.757-6.727 6.908-4.667 7.707-4.96 11.914-4.384 5.714.783 9.994 2.986 12.126 6.24 1.601 2.444 1.571 2.645-.74 4.957-2.336 2.335-15.375 6.455-20.43 6.455-2.145 0-2.191.248-1.796 9.75.612 14.756.978 16.356 3.613 15.796 1.211-.257 7.352-1.415 13.646-2.574 6.293-1.158 12.985-2.751 14.872-3.54 1.886-.787 4.736-1.432 6.332-1.432 3.43 0 15.546 5.885 18.224 8.852 4.609 5.106-.154 6.12-28.871 6.15-10.45.011-20.654.293-22.676.628l-3.676.607-.636 7.632c-1.428 17.116-4.547 26.729-11.003 33.91-6.987 7.77-21.325 14.196-35.172 15.762-5.563.629-6.001.512-9.337-2.5zm-28.08-20.5c5.03-2.6 12.068-11.618 17.145-21.967 2.717-5.54 4.494-10.221 3.947-10.403-1.504-.502-20.837 5.707-26.14 8.394-3.581 1.815-21.874 14.11-23.7 15.931-.618.616 8.644 5.588 13.99 7.512 6.449 2.32 10.987 2.484 14.758.534zM187 274.96c2.275-.626 2.65-1.54 4.154-10.15.91-5.206 1.698-10.896 1.75-12.645l.096-3.182-9.576-.318-9.576-.319-1.944 3.15c-1.79 2.902-3.763 4.35-5.926 4.35-.472 0 .245-3.245 1.594-7.212 1.35-3.967 2.335-7.548 2.19-7.959-.144-.41-4.537.762-9.762 2.604-13.805 4.869-15 5.399-15 6.652 0 .624 2.21 3.553 4.91 6.508 4.566 4.995 7.104 9.945 8.54 16.657l.588 2.75 12.731-.1c7.002-.055 13.856-.409 15.231-.787z" fill="#868f85"/><path d="M57.667 444.23c-25.617-5.542-46.68-24.316-54.841-48.884l-2.326-7v-331l2.756-8.13C10.543 27.714 28.498 10.753 52.5 2.696l7-2.35 115-.283c78.567-.194 117.21.058 121.977.794 23.715 3.663 44.3 18.555 54.583 39.489 8.054 16.395 7.44 1.342 7.44 182.5 0 181.173.614 166.12-7.447 182.5-8.957 18.2-25.763 31.986-46.553 38.187-5.6 1.67-13.819 1.802-123 1.982-99.99.164-117.993-.022-123.833-1.286zm245.477-5.086c20.463-5.788 35.772-18.385 44.385-36.522 6.782-14.281 6.436-4.615 6.436-179.776 0-176.357.404-165.78-6.897-180.5-6.984-14.08-16.637-23.717-30.568-30.516-15.2-7.419-7.646-7.055-140.241-6.754L57.5 5.346l-8.416 3.24C27.93 16.734 13.29 32.067 6.832 52.847l-2.332 7.5v325l2.34 7.5c3.664 11.738 7.875 18.714 16.656 27.598 11.596 11.733 24.465 18.225 40.227 20.295 3.727.49 57.402.818 119.277.729 112.046-.16 112.53-.17 120.144-2.324zm-51.334-99.953c-1.48-.955-5.497-6.035-8.926-11.29-3.43-5.255-9.08-12.516-12.56-16.135-3.478-3.62-6.324-7.4-6.324-8.402 0-1.697.843-1.78 12.25-1.213 19.884.99 30.08 4.556 36.664 12.825 9.05 11.365 8.76 17.283-1.088 22.208-7.256 3.629-16.124 4.518-20.016 2.007zm-103.27-3.837c-1.63-1.33-2.754-2.573-2.5-2.76.253-.187 4.275-2.794 8.937-5.794 16.449-10.583 27.762-24.408 31.378-38.343l1.528-5.89-6.692.633c-3.68.347-10.629.635-15.441.639-7.236.01-8.75.275-8.75 1.558 0 2.181-7.282 19.127-13.156 30.614-8.789 17.188-15.053 22.184-24.864 19.83-6.03-1.446-10.57-4.65-23.271-16.421-9.61-8.905-9.874-9.068-14.22-8.737-3.139.24-5.964-.374-9.708-2.11-9.251-4.287-19.672-15.24-18.186-19.114.832-2.167 1.68-2.044 5.961.86 7.407 5.027 15.505 4.667 33.652-1.492 6.76-2.295 19.267-7.318 27.792-11.164 8.525-3.845 17.585-7.646 20.134-8.445l4.635-1.455-.936-4.163c-1.058-4.71-4.73-11.754-6.127-11.754-2.767 0-14.036 7.377-20.91 13.688-5.544 5.089-8.94 7.436-11.437 7.904-6.395 1.2-15.359-2.97-15.359-7.143 0-.854 1.686-2.24 3.75-3.081 2.062-.842 13.504-6.279 25.425-12.082l21.675-10.553 1.734-6.407c1.038-3.833 1.37-6.763.825-7.292-.5-.487-5.46-1.002-11.02-1.145l-10.112-.26-10.388 9.326c-19.413 17.426-37.575 30.512-52.316 37.695C51.484 276.925 46 278.034 46 275.445c0-.77 7.312-7.224 16.25-14.34 20.289-16.156 35.935-30.33 46.627-42.242 8.15-9.081 8.238-9.234 6.443-11.307-1.001-1.156-7.137-7.751-13.636-14.656C89.01 179.436 84 172.77 84 169.375c0-2.369 1.74-4.529 3.647-4.529 3.058 0 23.428 15.022 31.568 23.28l8.714 8.84 6.561-8.81c6.622-8.892 14.523-23.16 14.495-26.176-.042-4.443-1.232-4.42-15.668.297-15.32 5.008-19.17 5.494-21.662 2.74-2.918-3.224-1.992-4.78 4.18-7.03 9.545-3.48 17.768-9.57 33.13-24.532 7.995-7.786 16.178-14.933 18.186-15.882 4.572-2.162 9.199-2.215 10.934-.125 1.501 1.81 1.835 11.455.636 18.43-.776 4.517-.758 4.555 5.5 11.67 3.454 3.927 6.678 7.042 7.166 6.923 1.882-.459 10.635-16.493 13.167-24.118 2.063-6.214 2.777-10.712 3.19-20.088.496-11.252.718-12.31 3.235-15.394l2.703-3.311 5.544 6.893c6.536 8.129 9.779 13.9 9.761 17.378-.007 1.383-2.019 6.115-4.471 10.515-2.453 4.4-6.61 12.028-9.238 16.952-2.871 5.38-7.045 11.28-10.46 14.787l-5.684 5.836 8.118 8.963c4.465 4.929 8.452 8.962 8.86 8.962 1.69 0 10.844-15.349 12.352-20.71.896-3.185 1.831-6.384 2.078-7.111.338-.994 1.256-.764 3.704.924 7.157 4.939 13.546 10.982 14.793 13.99 1.175 2.838 1.116 3.32-.553 4.541-1.028.751-3.391 1.366-5.253 1.366-3.294 0-7.183 2.53-18.021 11.722l-3.288 2.789 21.914 22.494c12.052 12.372 31.895 31.945 44.094 43.495C307.924 274.274 318 285.626 318 289.225c0 .632-5.796-1.637-12.88-5.043-7.084-3.407-19.347-8.746-27.25-11.866-7.904-3.12-17.519-7.314-21.367-9.32-11.973-6.245-15.873-11.144-37.938-47.66-20.933-34.64-36-58.71-40.275-64.34l-2.544-3.349-3.797 9.07c-7.249 17.312-19.125 35.321-36.268 54.997-8.888 10.2-8.978 10.357-5.607 9.66 5.954-1.233 13.24-5.05 18.914-9.91 3.018-2.584 6.54-4.963 7.827-5.286 5-1.255 9.717 4.143 9.012 10.31-.27 2.354-1.36 3.387-6.18 5.858-5.711 2.928-8.106 5.826-10.067 12.185-.62 2.014.29 1.789 11.623-2.869 6.763-2.78 12.451-5.192 12.64-5.36.188-.17 1.231-5.403 2.319-11.632 1.56-8.942 1.902-14.637 1.62-27.074-.345-15.189-.286-15.75 1.637-15.75 3.272 0 14.236 12.006 15.605 17.088 2.02 7.506-2.127 21.083-13.22 43.267-2.71 5.42-4.696 10.086-4.413 10.37.283.282 3.798-.279 7.812-1.248 7.45-1.798 12.685-4.198 20.959-9.607 4.522-2.958 4.826-3.014 10.189-1.901 9.53 1.978 13.85 7.887 8.385 11.468-2.223 1.457-10.522 3.772-18.06 5.039l-3.823.642.701 12.691c.386 6.98.882 12.892 1.103 13.137.732.813 25.744-4.147 31.254-6.197 5.14-1.913 5.665-1.933 10.52-.402 6.01 1.894 14.368 6.967 15.245 9.251.339.883-.012 2.001-.78 2.488-.768.486-9.496.94-19.396 1.01-9.9.07-22.275.415-27.5.766l-9.5.638-.68 10.255c-1.081 16.29-5.333 27.976-12.454 34.228-7.608 6.68-24.706 13.053-34.826 12.981-3.814-.027-5.76-.625-8-2.456zm-30.066-18.508c2.527 0 11.51-9.202 15.926-16.315 4.224-6.803 9.093-17.525 8.314-18.305-.491-.49-18.622 5.223-24.306 7.66-5.777 2.476-26.46 17.068-25.77 18.182.28.455 3.632 2.4 7.447 4.32 7.18 3.617 13.437 5.546 15.747 4.856.732-.219 1.921-.398 2.642-.398zm70.726-41.8c1-1 4.888-25.25 4.22-26.328-.296-.48-4.761-.872-9.922-.872-9.244 0-9.41.043-11.058 2.832-1.738 2.943-5.256 5.686-6.148 4.793-.282-.282.436-3.326 1.597-6.763 2.73-8.084 2.712-9.172-.139-8.342-6.01 1.75-19.515 6.866-21.615 8.188l-2.366 1.49 4.512 4.65c5.174 5.335 8.382 11.194 9.312 17.01.393 2.453 1.287 4.24 2.277 4.547 2.354.73 28.468-.343 29.33-1.205z" fill="#7f7f7f"/><path d="M63.318 444.768c-16.32-1.942-30.242-8.811-42.448-20.942-7.31-7.267-9.32-10.022-13.153-18.029-2.488-5.198-5.13-11.926-5.87-14.951C.745 386.35.5 355.582.5 222.346v-163l2.342-7.5c3.9-12.491 8.777-20.649 17.643-29.513C29.56 13.262 37.868 8.032 49.5 4.07l8-2.724 119-.296c133.875-.334 125.27-.776 142 7.296 18.042 8.704 30.736 23.417 36.668 42.5l2.332 7.5v329l-2.332 7.5c-7.382 23.746-25.744 41.164-50.881 48.262l-7.787 2.199-113 .158c-62.15.087-116.232-.227-120.182-.697zm243.182-6.237c23.603-8.307 39.825-25.395 46.216-48.685 1.677-6.112 1.784-16.082 1.784-167 0-179.127.535-165.266-6.968-180.5-6.682-13.567-17.143-23.7-32.032-31.026-16.036-7.892-9.994-7.58-140-7.258l-115 .284-7 2.349c-12.608 4.23-20.356 8.976-29.6 18.133-6.777 6.711-9.465 10.26-12.674 16.731-7.793 15.714-7.322 3.285-7.007 184.787l.281 162 2.205 5.775c4.446 11.646 8.605 18.113 17.256 26.828 7.17 7.224 10.062 9.344 18.039 13.228 16.301 7.936 9.003 7.553 140 7.35l116.5-.181 8-2.815zm-54.69-99.34c-1.48-.955-5.497-6.035-8.926-11.29-3.43-5.255-9.08-12.516-12.56-16.135-3.478-3.62-6.324-7.4-6.324-8.402 0-1.697.843-1.78 12.25-1.213 19.884.99 30.08 4.556 36.664 12.825 9.05 11.365 8.76 17.283-1.088 22.208-7.256 3.629-16.124 4.518-20.016 2.007zm-103.27-3.837c-1.63-1.33-2.754-2.573-2.5-2.76.253-.187 4.275-2.794 8.937-5.794 16.449-10.583 27.762-24.408 31.378-38.343l1.528-5.89-6.692.633c-3.68.347-10.629.635-15.441.639-7.236.01-8.75.275-8.75 1.558 0 2.181-7.282 19.127-13.156 30.614-8.789 17.188-15.053 22.184-24.864 19.83-6.03-1.446-10.57-4.65-23.271-16.421-9.61-8.905-9.874-9.068-14.22-8.737-3.139.24-5.964-.374-9.708-2.11-9.251-4.287-19.672-15.24-18.186-19.114.832-2.167 1.68-2.044 5.961.86 7.407 5.027 15.505 4.668 33.652-1.492 6.76-2.295 19.267-7.318 27.792-11.164 8.525-3.845 17.585-7.646 20.134-8.445l4.635-1.455-.936-4.163c-1.058-4.71-4.73-11.754-6.127-11.754-2.767 0-14.036 7.377-20.91 13.688-5.544 5.089-8.94 7.436-11.437 7.904-6.395 1.2-15.359-2.97-15.359-7.143 0-.854 1.686-2.24 3.75-3.081 2.062-.842 13.504-6.279 25.425-12.082l21.675-10.553 1.734-6.407c1.038-3.833 1.37-6.763.825-7.292-.5-.487-5.46-1.002-11.02-1.145l-10.112-.26-10.388 9.326c-19.413 17.426-37.575 30.512-52.316 37.695C51.484 276.925 46 278.034 46 275.445c0-.77 7.312-7.224 16.25-14.34 20.289-16.156 35.935-30.33 46.627-42.242 8.15-9.081 8.238-9.234 6.443-11.307-1.001-1.156-7.137-7.751-13.636-14.656C89.01 179.436 84 172.77 84 169.375c0-2.369 1.74-4.529 3.647-4.529 3.058 0 23.428 15.022 31.568 23.28l8.714 8.84 6.561-8.81c6.622-8.892 14.523-23.16 14.495-26.176-.042-4.443-1.232-4.42-15.668.297-15.32 5.008-19.17 5.494-21.662 2.74-2.918-3.224-1.992-4.78 4.18-7.03 9.545-3.48 17.768-9.57 33.13-24.532 7.995-7.786 16.178-14.933 18.186-15.882 4.572-2.162 9.199-2.215 10.934-.125 1.501 1.81 1.835 11.455.636 18.43-.776 4.517-.758 4.555 5.5 11.67 3.454 3.927 6.678 7.042 7.166 6.923 1.882-.459 10.635-16.493 13.167-24.118 2.063-6.214 2.777-10.712 3.19-20.088.496-11.252.718-12.31 3.235-15.394l2.703-3.311 5.544 6.893c6.536 8.129 9.779 13.9 9.761 17.378-.007 1.383-2.019 6.115-4.471 10.515-2.453 4.4-6.61 12.028-9.238 16.952-2.871 5.38-7.045 11.28-10.46 14.787l-5.684 5.836 8.118 8.963c4.465 4.929 8.452 8.962 8.86 8.962 1.69 0 10.844-15.349 12.352-20.71.896-3.185 1.831-6.384 2.078-7.111.338-.994 1.256-.764 3.704.924 7.157 4.939 13.546 10.982 14.793 13.99 1.175 2.838 1.116 3.32-.553 4.541-1.028.751-3.391 1.366-5.253 1.366-3.294 0-7.183 2.53-18.021 11.722l-3.288 2.789 21.914 22.494c12.052 12.372 31.895 31.945 44.094 43.495C307.924 274.274 318 285.626 318 289.225c0 .632-5.796-1.637-12.88-5.043-7.084-3.407-19.347-8.746-27.25-11.866-7.904-3.12-17.519-7.314-21.367-9.32-11.973-6.245-15.873-11.144-37.938-47.66-20.933-34.64-36-58.71-40.275-64.34l-2.544-3.349-3.797 9.07c-7.249 17.312-19.125 35.321-36.268 54.997-8.888 10.2-8.978 10.357-5.607 9.66 5.954-1.233 13.24-5.05 18.914-9.91 3.018-2.584 6.54-4.963 7.827-5.286 5-1.255 9.717 4.143 9.012 10.31-.27 2.354-1.36 3.387-6.18 5.858-5.711 2.928-8.106 5.826-10.067 12.185-.62 2.014.29 1.789 11.623-2.869 6.763-2.78 12.451-5.192 12.64-5.36.188-.17 1.231-5.403 2.319-11.632 1.56-8.942 1.902-14.637 1.62-27.074-.345-15.189-.286-15.75 1.637-15.75 3.272 0 14.236 12.006 15.605 17.088 2.02 7.506-2.127 21.083-13.22 43.267-2.71 5.42-4.696 10.086-4.413 10.37.283.282 3.798-.279 7.812-1.248 7.45-1.798 12.685-4.198 20.959-9.607 4.522-2.958 4.826-3.014 10.189-1.901 9.53 1.978 13.85 7.887 8.385 11.468-2.223 1.457-10.522 3.772-18.06 5.039l-3.823.642.701 12.691c.386 6.98.882 12.892 1.103 13.137.732.813 25.744-4.147 31.254-6.197 5.14-1.913 5.665-1.933 10.52-.402 6.01 1.894 14.368 6.967 15.245 9.251.339.883-.012 2.001-.78 2.488-.768.486-9.496.94-19.396 1.01-9.9.07-22.275.415-27.5.766l-9.5.638-.68 10.255c-1.081 16.29-5.333 27.976-12.454 34.228-7.608 6.68-24.706 13.053-34.826 12.981-3.814-.027-5.76-.625-8-2.456zm-30.066-18.508c2.527 0 11.51-9.202 15.926-16.315 4.224-6.803 9.093-17.525 8.314-18.305-.491-.49-18.622 5.223-24.306 7.66-5.777 2.476-26.46 17.068-25.77 18.182.28.455 3.632 2.4 7.447 4.32 7.18 3.617 13.437 5.546 15.747 4.856.732-.219 1.921-.398 2.642-.398zm70.726-41.8c1-1 4.888-25.25 4.22-26.328-.296-.48-4.761-.872-9.922-.872-9.244 0-9.41.043-11.058 2.832-1.738 2.943-5.256 5.686-6.148 4.793-.282-.282.436-3.326 1.597-6.763 2.73-8.084 2.712-9.172-.139-8.342-6.01 1.75-19.515 6.866-21.615 8.188l-2.366 1.49 4.512 4.65c5.174 5.335 8.382 11.194 9.312 17.01.393 2.453 1.287 4.24 2.277 4.547 2.354.73 28.468-.343 29.33-1.205z" fill="#485447"/><path d="M63.66 444.714c-26.395-3.391-49.371-20.986-58.59-44.868-1.592-4.125-3.406-11.1-4.032-15.5-.822-5.787-1.046-51.836-.81-166.5.366-176.9-.25-162.002 7.348-177.523 6.91-14.116 18.193-24.995 33.778-32.57C56.425.428 49.684.75 182 1.063l118.5.283 8 2.808c18.851 6.616 33.872 19.484 41.96 35.948 8.034 16.353 7.542 4.377 7.523 183.06-.02 178.62.497 166.223-7.618 182.662-3.837 7.774-6.137 10.921-12.79 17.5-4.462 4.412-10.73 9.563-13.928 11.445-8.37 4.927-20.448 8.918-30.459 10.065-10.81 1.239-219.804 1.13-229.527-.12zm241.84-5.717c24.125-8.094 40.56-24.88 47.162-48.168 1.75-6.171 1.838-14.255 1.838-167.983 0-153.676-.089-161.815-1.836-168C346.359 32.531 329.24 14.815 306.5 7.07l-8-2.724H180c-111.46 0-118.886.108-125 1.817-20.126 5.624-37.005 19.62-45.168 37.453-6.192 13.527-5.887 3.607-5.597 181.95l.265 162.78 2.68 7.335c8.496 23.26 26.858 39.252 51.32 44.695 4.843 1.078 28.558 1.3 123 1.153l117-.183 7-2.349zM252.286 338.88c-1.873-1.142-5.992-6.186-9.873-12.092-3.663-5.572-9.304-12.959-12.536-16.414-3.233-3.455-5.877-6.787-5.877-7.404 0-1.417 11.827-1.464 21.5-.086 9.476 1.35 16.448 3.453 20.503 6.186 4.721 3.183 11.694 12.019 12.883 16.327 1.792 6.49-1.17 9.935-11.642 13.538-7.05 2.425-10.913 2.411-14.958-.055zm-103.282-3.53c-1.29-1.372-2.15-2.69-1.913-2.927.237-.237 4.02-2.774 8.406-5.637 9.415-6.147 20.264-16.334 24.614-23.112 2.772-4.32 8.464-19.585 7.618-20.431-.183-.183-7.12-.054-15.418.286l-15.085.62-1.165 3.89c-2.261 7.546-13.216 30.394-17.86 37.247-6.059 8.942-8.988 11.08-15.057 10.993-6.803-.1-12.863-3.82-25.96-15.936l-11.287-10.444-4.28.587c-3.423.47-5.406.036-9.886-2.157-9.274-4.541-20.238-16.574-17.55-19.262.77-.77 2.214-.325 5.064 1.561 10.292 6.81 28.787 2.566 68.755-15.778 6.875-3.156 13.69-6.02 15.145-6.363 2.533-.599 2.606-.8 1.722-4.738-.913-4.061-3.179-9.226-5.11-11.647-1.496-1.874-11.275 3.714-20.389 11.65-11.043 9.615-12.575 10.441-17.893 9.644-4.52-.678-10.475-4.642-10.475-6.973 0-.685 5.737-3.863 12.75-7.061 7.012-3.198 18.451-8.658 25.42-12.132l12.669-6.316 1.507-5.284c2.868-10.052 3.667-9.212-9.346-9.825l-11.5-.542-8.066 7.638c-16.71 15.822-38.491 31.723-54.376 39.696C52.193 276.543 46 278.03 46 275.973c0-1.284 6.918-7.301 21.99-19.127 13.472-10.571 37.451-32.972 45.195-42.222 2.93-3.5 3.897-5.372 3.245-6.285-.512-.716-6.7-7.47-13.754-15.008-18.85-20.148-21.668-24.813-16.62-27.515 1.766-.945 3.502-.14 12.25 5.672 5.607 3.725 14.59 11.03 19.961 16.233 9.26 8.97 9.843 9.36 11.22 7.543 15.844-20.92 22.587-34.4 18.478-36.94-.57-.352-7.29 1.422-14.932 3.941-15.562 5.13-18.164 5.45-21.033 2.581-2.255-2.255-2.652-5-.722-5 1.973 0 15.273-6.595 20.365-10.098 2.506-1.724 10.024-8.655 16.707-15.4 6.682-6.747 14.376-13.67 17.096-15.384 5.43-3.424 10.54-4.045 12.622-1.536 1.48 1.784 1.798 10.186.696 18.418l-.737 5.5 6.5 7 6.501 7 2.486-3c1.367-1.65 4.535-7.05 7.039-12 5.132-10.146 7.355-20.03 7.412-32.946.03-6.88.381-8.446 2.613-11.667l2.578-3.72 3.222 3.667C224.68 105.128 229 112.072 229 115.967c0 1.898-3.286 8.154-17.536 33.386-1.245 2.203-4.613 6.356-7.485 9.229l-5.222 5.222 6.027 6.77c3.315 3.725 7.31 7.99 8.88 9.477l2.851 2.705 5.141-7.705c3.189-4.778 5.958-10.467 7.291-14.976l2.15-7.271 5.743 4.419c6.035 4.644 13.16 11.982 13.16 13.555 0 2.114-3.367 4.068-7.012 4.068-3.23 0-5.091.983-11.263 5.948-4.066 3.271-7.905 6.564-8.53 7.317-1.545 1.862 23.102 27.833 60.844 64.11 20.537 19.742 29.316 28.861 31.312 32.529 1.526 2.803 2.589 5.096 2.362 5.096-.226 0-6.892-3.086-14.812-6.857-7.92-3.771-20.997-9.415-29.058-12.54-25.429-9.86-30.334-14.293-47.772-43.174-22.335-36.994-38.45-63.05-44.369-71.737l-6-8.807-2.698 6.936c-7.256 18.648-24.647 44.702-41.322 61.904-2.786 2.874-4.808 5.482-4.495 5.795.719.72 9.465-1.388 12.898-3.107 1.422-.711 5.022-3.274 8-5.693 9.406-7.642 11.886-8.114 15.889-3.026 4.25 5.404 2.155 9.69-6.689 13.677-3.289 1.484-4.384 2.756-6.253 7.264-1.245 3.006-2.031 5.7-1.745 5.985.285.286 2.25-.339 4.366-1.388 2.116-1.049 7.525-3.367 12.021-5.152 4.496-1.784 8.417-3.876 8.714-4.649 2.034-5.301 3.805-25.297 3.426-38.681-.396-13.942-.315-14.75 1.47-14.75 2.216 0 11.944 9.646 14.411 14.29 3.983 7.494 1.46 17.517-11.1 44.113-3.092 6.547-5.392 12.133-5.112 12.414.28.28 4.405-.452 9.165-1.627 6.597-1.628 10.513-3.356 16.474-7.27l7.82-5.134 5.087 1.221c5.731 1.375 10.971 5.224 10.971 8.059 0 3.275-6.735 6.057-20.323 8.394l-3.824.658.701 12.691c.386 6.98.875 12.884 1.087 13.12.728.813 24.87-3.818 31.573-6.056l6.707-2.24 8.527 4.226c9.3 4.608 11.9 7.35 8.63 9.099-1.089.583-8.255 1.044-16.262 1.046-7.874 0-19.99.294-26.924.647l-12.607.643-.618 10.103c-.98 16.012-4.683 26.619-11.768 33.704-6.908 6.909-24.823 13.899-35.619 13.899-3.965 0-5.39-.49-7.276-2.496zm-25.537-21.286c2.182-1.521 6.25-6.13 9.04-10.241 4.948-7.29 11.292-20.51 10.314-21.489-.658-.658-17.996 4.627-24.646 7.513-2.93 1.271-10.263 5.81-16.297 10.086l-10.97 7.775 4.796 2.82c6.894 4.052 17.228 7.443 20.796 6.822 1.65-.286 4.785-1.766 6.967-3.286zm60.033-38.075l6-.642 1.612-8.066c.886-4.436 1.931-10.624 2.322-13.75l.71-5.684h-10.505c-9.325 0-10.57.207-11.089 1.842-.66 2.08-5.297 6.745-6.002 6.039-.254-.253.626-3.982 1.954-8.287l2.415-7.827-2.818.563c-5.665 1.133-23.04 8.075-23.553 9.41-.301.785 1.575 3.476 4.377 6.278 4.73 4.73 9.077 13.324 9.077 17.946 0 1.04.787 2.095 1.75 2.347 2.572.672 16.831.57 23.75-.17z" fill="#003800"/><path d="M63.66 444.714c-26.395-3.391-49.371-20.986-58.59-44.868-1.592-4.125-3.406-11.1-4.032-15.5-.822-5.787-1.046-51.836-.81-166.5.366-176.9-.25-162.002 7.348-177.523 6.91-14.116 18.193-24.995 33.778-32.57C56.425.428 49.684.75 182 1.063l118.5.283 8 2.808c18.851 6.616 33.872 19.484 41.96 35.948 8.034 16.353 7.542 4.377 7.523 183.06-.02 178.62.497 166.223-7.618 182.662-3.837 7.774-6.137 10.921-12.79 17.5-4.462 4.412-10.73 9.563-13.928 11.445-8.37 4.927-20.448 8.918-30.459 10.065-10.81 1.239-219.804 1.13-229.527-.12zm241.84-5.717c24.125-8.094 40.56-24.88 47.162-48.168 1.75-6.171 1.838-14.255 1.838-167.983 0-153.676-.089-161.815-1.836-168C346.359 32.531 329.24 14.815 306.5 7.07l-8-2.724H180c-111.46 0-118.886.108-125 1.817-20.126 5.624-37.005 19.62-45.168 37.453-6.192 13.527-5.887 3.607-5.597 181.95l.265 162.78 2.68 7.335c8.496 23.26 26.858 39.252 51.32 44.695 4.843 1.078 28.558 1.3 123 1.153l117-.183 7-2.349z"/></svg>