<svg xmlns="http://www.w3.org/2000/svg" height="445.847" width="359.174"><path d="M58.005 444.458c-3.575-.774-8.525-2.148-11-3.053-18.014-6.587-35.194-23.175-42.103-40.651C-.098 388.109.005 391.847.005 223c0-177.776-.464-166.573 7.566-182.84 8.448-17.115 23.002-29.582 42.434-36.35l9.5-3.31h240l9.5 3.31c25.825 8.995 43.793 28.924 48.564 53.863 2.128 11.12 2.146 319.439.02 330.553-4.99 26.08-25.032 47.41-52.084 55.432-5.584 1.656-14.144 1.794-123.5 1.993-97.849.178-118.587-.022-124-1.193zm244-4.796c25.113-6.74 44.926-26.275 50.459-49.75 1.316-5.581 1.511-27.204 1.511-166.912 0-178.128.437-166.362-6.723-181-5.42-11.08-18.675-24.103-30.247-29.72-16.096-7.813-8.083-7.41-140.5-7.076l-118 .296-7.31 2.71c-11.628 4.313-18.088 8.516-27.216 17.706C17.584 32.354 14.533 36.375 11.771 42c-7.175 14.616-6.736 2.837-6.736 181 0 139.708.195 161.33 1.51 166.912 4.381 18.583 18.218 35.548 35.96 44.09 8.828 4.25 13.734 5.743 22.888 6.965 3.362.449 56.512.731 118.112.628 103.02-.174 112.521-.329 118.5-1.933zm-125.994-66.916c-5.004-11.313-6.983-37.081-6.996-91.125l-.01-39.88-6.25.66c-12.45 1.313-17.107 2.644-19.944 5.699-2.135 2.299-3.551 2.9-6.83 2.9-3.707 0-4.729-.597-9.845-5.75-7.951-8.01-22.845-26.032-36.053-43.628-12.137-16.17-15.078-21.094-15.078-25.25 0-5.552 2.258-15.534 3.634-16.062 3.153-1.21 8.521 2.677 20.866 15.107l13 13.09 27.77-9.368 27.768-9.368-.598-5.136c-2.237-19.185-3.51-22.651-11.47-31.237-12.698-13.695-15.836-20.075-13.816-28.096C144.08 97.678 158.336 87 166.595 87c4.739 0 13.556 6.197 26.277 18.466 9.871 9.52 14.089 14.9 15.935 20.321 1.474 4.328.47 6.773-5.953 14.489-5.515 6.625-8.2 11.844-9.296 18.06-.598 3.393-.466 3.776 1.135 3.308 18.099-5.299 39.163-9.814 46.372-9.941 10.726-.19 15.337 3.438 37.872 29.797 14.365 16.801 14.371 17.046.568 20.508-5.5 1.379-11.614 3.508-13.587 4.73-4.99 3.093-11.902 10.679-22.8 25.023-5.125 6.744-10.949 13.606-12.943 15.25-3.368 2.777-4.204 2.989-11.76 2.989-7.533 0-8.414-.222-11.91-3-2.8-2.225-4.837-3.003-7.888-3.014-2.261-.01-5.195-.303-6.52-.657l-2.407-.645.668 21.408c1.588 50.92 1.878 83.49.795 89.207-.604 3.19-2.828 9.714-4.942 14.5-2.973 6.73-4.344 8.774-6.05 9.024-1.768.259-2.589-.547-4.15-4.077zm-15.756-141.889l8.75-1.217v-21.32c0-16.703-.278-21.32-1.285-21.32-4.801 0-45.986 8.938-47.317 10.268-.29.29 3.44 5.425 8.287 11.41 4.848 5.986 10.84 13.915 13.315 17.622 3.908 5.852 4.829 6.675 7 6.257 1.375-.265 6.437-1.03 11.25-1.7zm59.93-15.628c10.424-15.862 15.01-24.318 16.746-30.881 1.296-4.9.166-8.867-2.793-9.806-1.797-.57-12.617 1.398-34.633 6.298l-8 1.781-.628 10.44c-.345 5.741-.682 16.157-.75 23.145l-.122 12.706 7.25.346c3.987.19 8.6.425 10.25.522 2.814.167 3.602-.738 12.68-14.551z" fill="#e0c5c6"/><path d="M58.005 444.458c-3.575-.774-8.525-2.148-11-3.053-18.014-6.587-35.194-23.175-42.103-40.651C-.098 388.109.005 391.847.005 223c0-177.776-.464-166.573 7.566-182.84 8.448-17.115 23.002-29.582 42.434-36.35l9.5-3.31h240l9.5 3.31c25.825 8.995 43.793 28.924 48.564 53.863 2.128 11.12 2.146 319.439.02 330.553-4.99 26.08-25.032 47.41-52.084 55.432-5.584 1.656-14.144 1.794-123.5 1.993-97.849.178-118.587-.022-124-1.193zm244-4.796c25.113-6.74 44.926-26.275 50.459-49.75 1.316-5.581 1.511-27.204 1.511-166.912 0-178.128.437-166.362-6.723-181-5.42-11.08-18.675-24.103-30.247-29.72-16.096-7.813-8.083-7.41-140.5-7.076l-118 .296-7.31 2.71c-11.628 4.313-18.088 8.516-27.216 17.706C17.584 32.354 14.533 36.375 11.771 42c-7.175 14.616-6.736 2.837-6.736 181 0 139.708.195 161.33 1.51 166.912 4.381 18.583 18.218 35.548 35.96 44.09 8.828 4.25 13.734 5.743 22.888 6.965 3.362.449 56.512.731 118.112.628 103.02-.174 112.521-.329 118.5-1.933zm-125.274-65.865c-5.535-11.801-6.844-26.33-7.44-82.547l-.52-49.25h-2.633c-1.448 0-6.831.685-11.962 1.517-8.21 1.332-9.63 1.87-11.839 4.496-1.944 2.31-3.336 2.983-6.17 2.984-3.291 0-4.523-.888-12.162-8.766-12.114-12.494-40.265-48.07-46.73-59.054-2.207-3.752-2.46-5.063-1.921-10 .962-8.82 2.466-13.181 4.548-13.181 3.622 0 13.407 8.447 26.3 22.703l5.61 6.203 27.847-9.31 27.846-9.31-.29-5.893c-.419-8.47-2.09-17.277-4.154-21.893-.984-2.2-4.902-7.39-8.707-11.533-11.31-12.316-14.16-18.238-12.23-25.412 1.968-7.32 16.707-18.555 24.34-18.555 7.364 0 35.015 24.347 41.17 36.249 2.79 5.396 2.106 8.047-3.961 15.357-6.334 7.631-9.082 12.85-10.159 19.29-.714 4.274-.669 4.378 1.628 3.733 8.83-2.477 26.965-6.86 35.504-8.58 13.065-2.631 17.492-1.815 26.296 4.85 5.175 3.916 33.063 36.843 33.063 39.036 0 2.11-2.127 2.987-13.47 5.558-12.114 2.746-16.349 6.37-32.864 28.128-4.225 5.566-9.909 12.203-12.631 14.75l-4.95 4.629h-8.007c-7.37 0-8.27-.227-11.293-2.85-2.682-2.329-4.552-2.967-10.188-3.478l-6.902-.625.658 21.226c1.585 51.133 1.883 81.425.866 87.856-1.21 7.642-8.818 24.205-11.333 24.668-1.005.185-2.197-.946-3.16-3zm-15.976-142.933l8.25-1.265v-21.3c0-20.708-.056-21.299-2.022-21.299-3.234 0-35.999 6.777-42.183 8.725l-5.635 1.775 8.968 11c4.932 6.05 11.074 14.073 13.65 17.83 4.345 6.335 4.902 6.792 7.703 6.314 1.66-.283 6.731-1.084 11.269-1.78zm60.09-16.17c15.589-23.662 19.707-34.147 15.188-38.666-2.683-2.683-4.53-2.497-28.055 2.825l-16.473 3.727-.628 10.46c-.345 5.753-.682 16.178-.75 23.166l-.122 12.706 7.25.346c3.987.19 8.658.434 10.378.543 2.988.19 3.584-.491 13.212-15.106z" fill="#bebebe"/><path d="M58.37 444.519c-14.476-3.177-26.664-9.876-37.34-20.526-8.626-8.606-13.906-17.057-17.8-28.493l-2.725-8v-329l2.724-8C7.145 39.001 12.43 30.565 21.08 22 32.412 10.781 43.65 4.763 59.213 1.578 65.963.196 80.884 0 179.375 0c121.49 0 120.28-.048 133.62 5.34 9.98 4.031 17.035 8.737 24.984 16.667 8.627 8.606 13.907 17.057 17.802 28.493l2.724 8 .28 161c.313 179.988.695 169.568-6.77 185-8.904 18.406-24.403 31.57-45.51 38.651l-7 2.349-117.5.183c-95.3.148-118.66-.072-123.635-1.164zm235.497-3.561c28.622-3.589 51.818-23.536 58.628-50.418 2.275-8.979 2.282-326.056.008-335.08-5.878-23.321-25.17-42.366-49.121-48.491C295.943 5.066 291.792 5 179.505 5 67.218 5 63.067 5.066 55.628 6.969c-21.93 5.608-39.027 21.01-47.5 42.79L5.505 56.5 5.24 220.419c-.295 182.895-.824 168.74 6.888 184.47 9.164 18.697 30 33.196 51.73 36 9.896 1.277 219.874 1.34 230.01.07zm-117.136-67.16c-5.535-11.802-6.844-26.33-7.44-82.548l-.52-49.25h-2.633c-1.448 0-6.831.685-11.962 1.517-8.21 1.332-9.63 1.87-11.839 4.496-1.944 2.31-3.336 2.983-6.17 2.984-3.291 0-4.523-.888-12.162-8.766-12.114-12.494-40.265-48.07-46.73-59.054-2.207-3.752-2.46-5.063-1.921-10 .962-8.82 2.466-13.181 4.548-13.181 3.622 0 13.407 8.447 26.3 22.703l5.61 6.203 27.847-9.31 27.846-9.31-.29-5.893c-.419-8.47-2.09-17.277-4.154-21.893-.984-2.2-4.902-7.39-8.707-11.533-11.31-12.316-14.16-18.238-12.23-25.412 1.968-7.32 16.707-18.555 24.34-18.555 7.364 0 35.015 24.347 41.17 36.249 2.79 5.396 2.106 8.047-3.961 15.357-6.334 7.631-9.082 12.85-10.159 19.29-.714 4.274-.669 4.378 1.628 3.733 8.83-2.477 26.965-6.86 35.504-8.58 13.065-2.631 17.492-1.815 26.296 4.85 5.175 3.916 33.063 36.843 33.063 39.036 0 2.11-2.127 2.987-13.47 5.558-12.114 2.746-16.349 6.37-32.864 28.128-4.225 5.566-9.909 12.203-12.631 14.75l-4.95 4.629h-8.007c-7.37 0-8.27-.227-11.293-2.85-2.682-2.329-4.552-2.967-10.188-3.478l-6.902-.625.658 21.226c1.585 51.133 1.883 81.425.866 87.856-1.21 7.642-8.818 24.205-11.333 24.668-1.005.185-2.197-.946-3.16-3zm-15.976-142.934l8.25-1.265v-21.3c0-20.708-.056-21.299-2.022-21.299-3.234 0-35.999 6.777-42.183 8.725l-5.635 1.775 8.968 11c4.932 6.05 11.074 14.073 13.65 17.83 4.345 6.335 4.902 6.792 7.703 6.314 1.66-.283 6.731-1.084 11.269-1.78zm60.09-16.17c15.589-23.662 19.707-34.147 15.188-38.666-2.683-2.683-4.53-2.497-28.055 2.825l-16.473 3.727-.628 10.46c-.345 5.753-.682 16.178-.75 23.166l-.122 12.706 7.25.346c3.987.19 8.658.434 10.378.543 2.988.19 3.584-.491 13.212-15.106z" fill="#c38c8f"/><path d="M58.37 444.519c-14.476-3.177-26.664-9.876-37.34-20.526-8.626-8.606-13.906-17.057-17.8-28.493l-2.725-8v-329l2.724-8C7.145 39.001 12.43 30.565 21.08 22 32.412 10.781 43.65 4.763 59.213 1.578 65.963.196 80.884 0 179.375 0c121.49 0 120.28-.048 133.62 5.34 9.98 4.031 17.035 8.737 24.984 16.667 8.627 8.606 13.907 17.057 17.802 28.493l2.724 8 .28 161c.313 179.988.695 169.568-6.77 185-8.904 18.406-24.403 31.57-45.51 38.651l-7 2.349-117.5.183c-95.3.148-118.66-.072-123.635-1.164zm235.497-3.561c28.622-3.589 51.818-23.536 58.628-50.418 2.275-8.979 2.282-326.056.008-335.08-5.878-23.321-25.17-42.366-49.121-48.491C295.943 5.066 291.792 5 179.505 5 67.218 5 63.067 5.066 55.628 6.969c-21.93 5.608-39.027 21.01-47.5 42.79L5.505 56.5 5.24 220.419c-.295 182.895-.824 168.74 6.888 184.47 9.164 18.697 30 33.196 51.73 36 9.896 1.277 219.874 1.34 230.01.07zm-117.291-68.073c-5.288-13.214-6.987-34.66-6.955-87.772l.026-43.387-8.571.628c-11.226.822-15.864 2.213-19.165 5.746-4.646 4.974-8.993 3.583-18.037-5.774-9.97-10.315-33.605-40.08-43.688-55.021-3.652-5.41-4.181-6.892-4.181-11.7 0-7.159 1.833-15.605 3.387-15.605 3.83 0 14.311 8.886 26.919 22.82l5.718 6.32 27.983-9.32 27.982-9.32.002-3.5c.002-5.471-2.601-20.142-4.26-24.006-.825-1.922-5.133-7.496-9.573-12.388-11.51-12.68-14.198-19.523-10.826-27.544 2.908-6.916 18.778-16.89 24.92-15.661 1.703.34 6.28 3.03 10.172 5.976 16.895 12.79 29.262 26.858 30.28 34.445.464 3.463-.014 4.448-5.458 11.237-7.351 9.168-9.19 12.675-9.932 18.943l-.58 4.895 6.383-1.95c11.049-3.377 37.355-8.947 42.251-8.947 9.692 0 14.82 3.687 30.532 21.95 15.881 18.46 18.079 21.286 18.09 23.262.01 1.743-1.187 2.189-12.99 4.83-11.74 2.625-17.037 6.976-31.332 25.729-14.37 18.853-16.926 21.194-23.92 21.916-7.404.764-12.492-.308-15.167-3.194-1.804-1.946-3.61-2.503-10-3.082l-7.8-.707.603 12.398c.332 6.819 1.107 28.148 1.723 47.398 1.38 43.148.764 51.568-4.666 63.708-5.61 12.542-7.116 13.56-9.87 6.677zm-17.015-141.51l10.7-1.744-.453-21.308c-.25-11.719-.654-21.507-.898-21.752-1.085-1.084-45.006 8.2-48.495 10.252-.737.433 2.497 5.242 8.969 13.34 5.567 6.963 11.696 15.173 13.621 18.243 1.925 3.07 4.03 5.387 4.678 5.147.648-.24 5.993-1.22 11.878-2.178zm60.564-15.276c15.686-23.354 20.608-35.427 16.358-40.123-2.547-2.815-5.589-2.57-26.65 2.146l-18.674 4.18-.542 8.1c-.298 4.454-.777 14.894-1.064 23.2l-.521 15.101 9.736.98c5.355.538 10.187.925 10.737.859.55-.066 5.329-6.566 10.62-14.443z" fill="#7b7b7b"/><path d="M64.005 444.957c-27.063-3.25-49.497-20.72-59.311-46.184L1.505 390.5 1.24 225.581C.946 42.1.447 56.023 7.876 40.5 16.87 21.707 33.63 8.286 54.789 2.935 62.38 1.015 65.929.968 182.052 1.23l119.453.27 8 2.808c21.75 7.633 36.868 22.315 45.18 43.875l2.82 7.317v335l-3.189 8.273c-10.086 26.171-32.164 42.976-60.811 46.287-9.624 1.113-220.167 1.017-229.5-.103zm242.5-6.181c21.516-7.328 38.323-23.704 45.218-44.061l2.782-8.215v-327l-2.824-7.99c-8.592-24.315-28.205-41.263-53.308-46.067-11.216-2.146-226.52-2.146-237.736 0C35.534 10.247 15.92 27.195 7.329 51.51L4.505 59.5v326l2.886 8.806c7.691 23.464 27.066 40.65 52.114 46.224 4.843 1.078 28.472 1.3 122.5 1.153l116.5-.183 8-2.724zm-129.93-65.891c-5.287-13.214-6.986-34.66-6.954-87.772l.026-43.387-8.571.628c-11.226.822-15.864 2.213-19.165 5.746-4.646 4.974-8.993 3.583-18.037-5.774-9.97-10.315-33.605-40.08-43.688-55.021-3.652-5.41-4.181-6.892-4.181-11.7 0-7.159 1.833-15.605 3.387-15.605 3.83 0 14.311 8.886 26.919 22.82l5.718 6.32 27.983-9.32 27.982-9.32.002-3.5c.002-5.471-2.601-20.142-4.26-24.006-.825-1.922-5.133-7.496-9.573-12.388-11.51-12.68-14.198-19.523-10.826-27.544 2.908-6.916 18.778-16.89 24.92-15.661 1.703.34 6.28 3.03 10.172 5.976 16.895 12.79 29.262 26.858 30.28 34.445.464 3.463-.014 4.448-5.458 11.237-7.351 9.168-9.19 12.675-9.932 18.943l-.58 4.895 6.383-1.95c11.049-3.377 37.355-8.947 42.251-8.947 9.692 0 14.82 3.687 30.532 21.95 15.881 18.46 18.079 21.286 18.09 23.262.01 1.743-1.187 2.189-12.99 4.83-11.74 2.625-17.037 6.976-31.332 25.729-14.37 18.853-16.926 21.194-23.92 21.916-7.404.764-12.492-.308-15.167-3.194-1.804-1.946-3.61-2.503-10-3.082l-7.8-.707.603 12.398c.332 6.819 1.107 28.148 1.723 47.398 1.38 43.148.764 51.568-4.666 63.708-5.61 12.542-7.116 13.56-9.87 6.677zm-17.014-141.51l10.7-1.744-.453-21.308c-.25-11.719-.654-21.507-.898-21.752-1.085-1.084-45.006 8.2-48.495 10.252-.737.433 2.497 5.242 8.969 13.34 5.567 6.963 11.696 15.173 13.621 18.243 1.925 3.07 4.03 5.387 4.678 5.147.648-.24 5.993-1.22 11.878-2.178zm60.564-15.276c15.686-23.354 20.608-35.427 16.358-40.123-2.547-2.815-5.589-2.57-26.65 2.146l-18.674 4.18-.542 8.1c-.298 4.454-.777 14.894-1.064 23.2l-.521 15.101 9.736.98c5.355.538 10.187.925 10.737.859.55-.066 5.329-6.566 10.62-14.443z" fill="#a55357"/><path d="M64.005 444.957c-27.063-3.25-49.497-20.72-59.311-46.184L1.505 390.5 1.24 225.581C.946 42.1.447 56.023 7.876 40.5 16.87 21.707 33.63 8.286 54.789 2.935 62.38 1.015 65.929.968 182.052 1.23l119.453.27 8 2.808c21.75 7.633 36.868 22.315 45.18 43.875l2.82 7.317v335l-3.189 8.273c-10.086 26.171-32.164 42.976-60.811 46.287-9.624 1.113-220.167 1.017-229.5-.103zm242.5-6.181c21.516-7.328 38.323-23.704 45.218-44.061l2.782-8.215v-327l-2.824-7.99c-8.592-24.315-28.205-41.263-53.308-46.067-11.216-2.146-226.52-2.146-237.736 0C35.534 10.247 15.92 27.195 7.329 51.51L4.505 59.5v326l2.886 8.806c7.691 23.464 27.066 40.65 52.114 46.224 4.843 1.078 28.472 1.3 122.5 1.153l116.5-.183 8-2.724zM177.602 374.75c-5.967-9.262-9.33-52.78-8.074-104.5l.686-28.25-5.854.037c-3.22.02-8.925.63-12.678 1.357-5.45 1.055-7.4 1.953-9.694 4.463-3.46 3.788-6.295 3.975-11.072.729-6.73-4.573-34.688-38.585-50.063-60.904-4.287-6.223-4.848-7.645-4.848-12.284 0-6.765 1.997-15.398 3.562-15.398 2.543 0 13.304 9.024 22.629 18.976l9.69 10.343 28.056-9.41 28.055-9.409.004-4.119c.006-6.189-2.817-21.133-4.67-24.72-.897-1.739-4.949-6.76-9.004-11.16-14.485-15.718-15.865-24.709-5.202-33.896 5.811-5.008 11.587-8.31 15.911-9.1 3.048-.557 4.416-.056 10 3.659 8.406 5.593 29.154 26.135 31.862 31.546 1.159 2.316 2.107 5.24 2.106 6.5 0 1.308-2.501 5.349-5.83 9.42-6.933 8.483-9.347 13.23-9.961 19.585l-.456 4.715 6.874-2.005c12.143-3.541 37.296-8.925 41.651-8.915 9.318.022 16.566 5.782 35.851 28.49 11.892 14.003 13.479 16.294 12.184 17.589-.591.59-5.416 2.15-10.72 3.464-13.82 3.422-19.392 7.746-32.509 25.222-16.323 21.748-18.893 23.725-29.932 23.022-5.44-.346-6.77-.815-8.712-3.073-2.013-2.34-3.29-2.748-10.475-3.347l-8.183-.683.603 12.403c.332 6.822 1.112 28.153 1.734 47.403 1.433 44.35.855 51.108-5.544 64.896-2.452 5.282-4.924 9.604-5.493 9.604-.57 0-1.687-1.012-2.484-2.25zm-18.597-143.217c5.225-.839 9.897-1.527 10.382-1.529.904 0 .382-42.574-.534-43.489-1.217-1.217-47.225 8.568-49.194 10.463-.466.448 2.829 5.249 7.32 10.668 4.493 5.42 10.695 13.57 13.783 18.112 3.9 5.735 6.093 8.112 7.179 7.78.86-.264 5.839-1.166 11.064-2.005zm61.454-15.283c15.192-23.181 19.77-34.225 16.624-40.104-1.675-3.13-6.372-2.81-27.2 1.854-9.824 2.2-18.052 4-18.285 4-.63 0-1.457 12.49-2.024 30.616l-.505 16.116 9.218.98c5.07.54 9.958 1.05 10.862 1.135 1.088.101 4.91-4.832 11.31-14.597z" fill="#871a1f"/><path d="M64.815 444.975C47.42 442.9 34.23 436.384 21.483 423.57c-10.31-10.365-15.358-18.87-18.506-31.18-1.923-7.518-1.972-11.722-1.957-169.3C1.036 42.69.522 55.74 8.24 40c3.375-6.88 5.893-10.225 13.217-17.554 7.667-7.673 10.496-9.758 18.547-13.674C56.866.572 49.185 1 179.505 1 309.71 1 302.016.575 318.973 8.713c8.126 3.9 10.753 5.837 18.532 13.665 10.346 10.413 15.369 18.879 18.528 31.232 1.923 7.517 1.972 11.749 1.972 169.39 0 157.642-.05 161.873-1.972 169.39-3.186 12.457-8.154 20.838-18.476 31.17-10.23 10.239-19.776 15.893-33.265 19.702l-7.787 2.199-112.5.156c-61.875.086-115.51-.203-119.19-.642zm234.517-4.41c27.671-5.295 50.277-27.884 54.604-54.565.706-4.356 1.056-58.17 1.061-163.162.008-175.358.397-165.501-7.124-180.838-3.324-6.778-5.91-10.246-12.768-17.117-7.25-7.264-10.092-9.335-18.1-13.19C300.289 3.647 306.595 4 179.505 4s-120.784-.353-137.5 7.693c-8 3.85-10.86 5.934-18.114 13.19-6.998 7-9.377 10.211-12.684 17.117-7.626 15.926-7.202 5.282-7.202 180.87 0 171.974-.208 165.678 5.895 178.719 3.83 8.186 6.977 12.733 13.363 19.31 9.355 9.633 22.834 17.046 35.636 19.597 10.2 2.032 229.84 2.095 240.433.069z"/></svg>