<svg xmlns="http://www.w3.org/2000/svg" height="445.79" width="358.834"><path d="M56.466 444.38c-20.922-4.555-39.726-19.075-48.978-37.816C-.567 390.247-.077 402.822.22 220.093L.485 57.35l2.755-8.131C10.614 27.465 29.354 9.945 53.012 2.688L60.485.395l113-.32c76.288-.215 115.645.029 121.142.75 33.827 4.444 59.111 29.09 63.43 61.828.662 5.017.91 62.7.71 165.697-.344 177.33.363 161.423-7.93 178.5-3.39 6.978-5.764 10.127-13.268 17.591-10.417 10.362-20.162 15.927-33.994 19.414-7.687 1.938-11.195 1.992-124.5 1.915-92.179-.063-117.85-.354-122.61-1.39zm246.019-4.803c20.173-5.875 35.62-18.36 44.466-35.94 7.566-15.038 7.129-3.245 6.815-183.787l-.281-161.5-2.68-7.335c-3.865-10.581-8.362-17.637-16.336-25.632-8.144-8.165-16.731-13.477-27.984-17.31l-8-2.723-115.5-.29c-81.314-.204-117.424.039-122 .82-25.677 4.386-47.927 24.695-54.747 49.97-1.637 6.069-1.753 17.171-1.753 167.5 0 181.406-.68 165.58 7.807 182 4.816 9.318 15.877 21.017 24.884 26.32 6.599 3.886 17.316 7.783 24.93 9.065 3.034.51 55.28.836 119.879.747 105.746-.145 114.958-.291 120.5-1.905zm-141-44.887c-20.773-13.83-48.971-25.332-74.052-30.208-12.052-2.344-17.994-3.051-34.329-4.088-7.548-.48-9.255-1.632-6.66-4.5 2.12-2.342 9.103-5.094 20.73-8.169 10.349-2.737 36.274-3.377 39.191-.968.937.774 1.342 1.77.898 2.214-.443.444-6.2 1.304-12.792 1.912-6.593.608-12.349 1.46-12.792 1.892-.443.432 1.656 1.075 4.666 1.43 8.525 1.001 35.078 7.99 46.14 12.142 11.484 4.312 25.11 10.963 34.13 16.659l6.234 3.937 4.818-3.451c2.65-1.899 9.543-5.945 15.318-8.992 22.223-11.724 40.214-18.024 59.032-20.672 4.657-.655 9.143-1.4 9.968-1.656.825-.256-3-2.39-8.5-4.741-7.665-3.278-10-4.72-10-6.179 0-1.72.77-1.893 8-1.806 6.784.082 9.443.671 17.5 3.882 14.475 5.768 20.933 9.281 22.209 12.081.789 1.732.817 2.814.094 3.538-.574.573-7.964 1.693-16.423 2.489-43.973 4.135-67.997 12.84-96.218 34.859-3.211 2.505-6.361 4.517-7 4.47-.64-.046-5.212-2.78-10.162-6.075zm7.5-18.006c-9.407-6.833-23.219-14.613-29.847-16.814-3.491-1.159-10.371-2.705-15.29-3.436-4.918-.731-9.075-1.5-9.238-1.707-.163-.208-1.514-11.852-3.003-25.877-3.472-32.713-3.046-30.739-6.52-30.229-4.806.706-4.717-2.31.174-5.877 11.955-8.718 18.9-10.08 37.733-7.393 18.77 2.677 33.173 1.747 53.49-3.454 20.837-5.334 29.59-5.955 43.5-3.082 13.151 2.716 19 5.172 19 7.978 0 1.86-.608 2.057-6.39 2.057-5.812 0-6.439.204-6.902 2.25-.28 1.237-2.43 14.696-4.78 29.908l-4.27 27.659-11.58 3.695c-6.367 2.032-14.727 5.157-18.577 6.945-7.077 3.285-19.862 11.967-26.753 18.166-2.064 1.857-4.09 3.338-4.5 3.29-.411-.046-3.222-1.882-6.247-4.08zm7.417-6.7c.295-.477-.298-1.622-1.317-2.544-1.547-1.4-1.943-1.442-2.399-.255-.888 2.315 2.457 4.835 3.716 2.798zm-11.572-10.251c-2.188-1.65-4.845-1.054-4.845 1.086 0 1.5 4.46 2.817 5.828 1.721 1.067-.856.875-1.406-.983-2.807zm23.54.854c1.799-1.344 1.737-1.514-1.35-3.713l-3.237-2.304-2.338 2.89-2.337 2.89 2.156 1.668c2.19 1.694 3.195 1.492 7.106-1.43zm-33.385-7.872c0-.414-1.007-1.457-2.238-2.32-2.089-1.462-2.354-1.416-3.978.694-2.297 2.984-2.25 3.2.966 4.41 2.17.818 3.013.713 4-.498.687-.843 1.25-1.872 1.25-2.286zm20.619-5.004c-2.048-1.688-2.218-1.65-5.046 1.142l-2.927 2.89 2.336 1.89c2.325 1.884 2.348 1.879 5.046-1.141l2.71-3.034-2.119-1.747zm24.8 1.889l3.586-4.25-3.194-2.733c-3.05-2.61-3.28-2.654-5.11-1-1.054.953-2.797 2.967-3.873 4.476l-1.955 2.743 2.813 2.475c1.548 1.362 3.114 2.49 3.48 2.507.368.017 2.281-1.881 4.253-4.218zm-58.494-7.665c-3.094-2.575-4.174-2.573-6.515.014-1.88 2.077-1.868 2.124 1.09 4.483l2.989 2.383 2.43-2.43 2.431-2.43-2.425-2.02zm24.075-1.085c0-.488-1.013-1.603-2.25-2.479-2.124-1.502-2.377-1.446-4.5 1-1.238 1.424-2.25 2.99-2.25 3.478s1.012 1.603 2.25 2.479c2.123 1.502 2.376 1.446 4.5-1 1.237-1.424 2.25-2.99 2.25-3.478zm58.615 3.332l5.29-1.668-3.702-2.804c-2.037-1.543-3.987-2.817-4.335-2.833-.347-.015-1.87 1.596-3.383 3.58-2.22 2.91-2.484 3.78-1.369 4.486 1.784 1.13 1.366 1.172 7.499-.761zm-37.208-5.237l3.813-3.905-2.641-1.73c-1.453-.953-2.74-1.553-2.86-1.335-.12.218-1.794 2.11-3.72 4.206-3.387 3.686-3.437 3.854-1.558 5.238 2.644 1.948 2.649 1.947 6.966-2.474zm-58.228-6.645c-2.641-2.3-2.707-2.305-4.627-.416-1.929 1.898-1.925 1.94.43 4.446l2.377 2.53 2.25-2.113 2.25-2.114-2.68-2.333zm83.733 2.329l2.381-2.721-2.396-1.996c-1.319-1.098-2.876-2.01-3.46-2.03-1.173-.036-7.048 5.752-6.364 6.271l3.348 2.54c1.607 1.217 3.188 1.863 3.515 1.435.327-.428 1.666-2.003 2.976-3.5zm-57.912-2.852c0-.383-1.171-1.465-2.602-2.402-2.534-1.66-2.678-1.632-5.561 1.13l-2.96 2.836 2.79 2.223 2.788 2.224 2.772-2.656c1.525-1.461 2.773-2.97 2.773-3.355zm21.002-1.08l3.338-4.154-2.33-1.887c-2.32-1.879-2.347-1.872-5.671 1.35-3.921 3.8-4.132 5.175-1.117 7.287 1.223.856 2.272 1.557 2.333 1.557.06 0 1.612-1.87 3.447-4.153zm56.028-3.058l.777-4.29-2.93 3.495c-2.693 3.21-2.793 3.594-1.227 4.74 2.166 1.583 2.437 1.266 3.38-3.945zm-32.512-1.993l2.696-3.205-2.317-1.876c-2.308-1.868-2.329-1.862-5.036 1.454-2.502 3.065-2.592 3.47-1.135 5.08 2.151 2.378 2.68 2.245 5.792-1.453zm-59.33-.476c2.62-2.511 2.693-2.794 1.149-4.5-2.253-2.49-3.507-2.297-6.693 1.029l-2.73 2.85 2.293 1.598c2.986 2.081 2.747 2.12 5.98-.977zm26.812-6.862c0-.631-.912-1.973-2.026-2.982-1.983-1.794-2.108-1.751-6.005 2.054l-3.98 3.886 2.755 2.22 2.756 2.218 3.25-3.123c1.787-1.718 3.25-3.64 3.25-4.273zm56.856-1.429c-3.051-2.542-2.983-2.553-6.42 1.053l-2.936 3.082 2.877 2.307 2.878 2.307 2.979-3.392 2.979-3.393-2.357-1.964zm-94.55-5.79c-2.81-2.263-5.282-2.314-10.806-.223-1.827.691-1.615 1.116 2.435 4.887l4.434 4.13 3.371-3.266 3.37-3.267-2.805-2.26zm59.004 5.958c2.086-2.176 2.418-3.07 1.487-4-1.77-1.77-4.19-1.463-7.215.916-2.554 2.01-2.603 2.207-.98 4 2.309 2.55 3.55 2.382 6.708-.916zm-36.373-3.631l2.287-2.434-3.623-.68c-2.42-.453-4.152-.24-5.215.642-1.436 1.192-1.375 1.496.622 3.113 2.848 2.307 3.195 2.27 5.93-.641zm59.312-.827l2.487-3.26-2.313-1.745c-2.27-1.712-2.364-1.68-4.989 1.763-2.195 2.877-2.452 3.776-1.432 5.005 1.89 2.278 3.515 1.819 6.247-1.763zm22.018-2.49c.867-.962 1.875-2.945 2.24-4.405.544-2.183.26-2.784-1.598-3.373-1.806-.574-2.822-.04-5.061 2.656l-2.802 3.373 2.088 1.75c1.148.962 2.418 1.75 2.822 1.75.403 0 1.443-.788 2.31-1.75zm-41.02-9.138c17.71-6.533 22.495-7.488 34.611-6.904 10.59.51 11.142.3 11.142-4.244 0-2.637-4.877-3.349-18.372-2.682-9.712.48-12.72 1.1-23.628 4.874l-12.5 4.324-15 .01c-9.61.01-19.705-.68-28.092-1.907-9.848-1.441-14.432-1.689-18.5-1l-5.408.918-.314 4.378c-.311 4.345-.292 4.374 2.5 3.696 1.547-.376 7.764-.913 13.814-1.194 9.228-.428 12.852-.113 22.5 1.955 17.69 3.792 21.566 3.56 37.247-2.224zm28.265.067c-.795-.795-2.514 1.01-1.904 1.997.416.672.931.57 1.462-.29.452-.73.65-1.499.442-1.707zm-59.512-19.3c-6.762-2.688-10.436-9.999-7.991-15.9 2.544-6.143 12.789-12.13 17.952-10.491 1.465.465 2.006-.063 2.535-2.472.37-1.685 1.773-4.37 3.117-5.968 2.778-3.302 10.324-6.56 13.357-5.766 1.787.467 2.03.058 2.03-3.425 0-5.18 2.152-9.17 6.343-11.76 9.027-5.58 20.657.73 20.657 11.206 0 7.013-8.015 14.311-14.635 13.326-2.65-.394-3.062-.185-2.66 1.353.262 1-.408 3.817-1.488 6.259-2.353 5.32-7.554 8.898-13.245 9.11-3.604.136-3.961.394-3.967 2.864-.007 3.374-5.279 9.584-9.708 11.434-3.738 1.562-8.713 1.655-12.297.23zm-45.5-8.49c-22.478-6.076-24.877-6.526-37.821-7.08-13.935-.599-16.68-1.389-16.68-4.803 0-2.127 9.811-10.16 16.98-13.903 14.62-7.635 30.345-10.133 45.067-7.16 9.287 1.877 23.328 7.976 26.43 11.482 1.974 2.23 1.973 2.24-.34 6.258-3.236 5.624-6.22 14.648-5.075 15.355 2.54 1.57-.432 6.648-3.746 6.401-.448-.033-11.615-2.98-24.815-6.55zm20.877-5.139c1.362-4.66 2.544-13.729 1.875-14.395-.414-.413-2.378-1.43-4.364-2.259l-3.613-1.508-.637 6.103c-1.053 10.066-.837 12.61 1.112 13.12 3.578.935 5.129.642 5.627-1.061zm-16.892-4.5c.287-1.237 1.133-5.251 1.88-8.92 1.322-6.5 1.303-6.684-.754-7.236-1.161-.312-3.638-.573-5.504-.58l-3.392-.014.642 6.146c.354 3.381.643 7.398.643 8.927 0 2.635 1.026 3.462 4.73 3.81.678.065 1.467-.896 1.755-2.133zm-16.472-7c.008-2.887.291-6.286.63-7.552.564-2.103.37-2.246-2.263-1.657-6.566 1.47-6.38 1.27-6.38 6.882 0 5.085.124 5.328 3.25 6.33 1.787.574 3.587 1.089 4 1.145.412.056.756-2.26.763-5.148zm-16.834-1.16l.398-3.41-5.039 2.621-5.038 2.621 3.5.657c1.925.362 4.013.717 4.64.79.628.071 1.32-1.403 1.539-3.279zm217.82 12.265c-4.124-.967-13.124-2.732-20-3.922-13.986-2.42-27.062-2.25-37.22.486-3.147.847-6.343 1.302-7.104 1.01-1.04-.4-1.533-3.92-1.99-14.23-.892-20.102-4.088-31.211-11.263-39.154-4.88-5.4-16.644-13.15-33.922-22.344-7.7-4.097-15.475-8.293-17.278-9.325-3.286-1.88-5.242-5.846-3.6-7.297.483-.426 12.128-1.4 25.878-2.165 46.864-2.607 52.805-1.949 62.623 6.936 8.555 7.742 11.333 13.531 11.357 23.671.03 11.91-3.637 18.898-16.68 31.79-7.524 7.437-9.843 10.339-9.588 12 .184 1.204.774 2.075 1.311 1.935.537-.14 4.352-1.455 8.477-2.922 10.787-3.837 24.133-3.93 32-.222 3.025 1.426 7.881 4.745 10.791 7.375 5.75 5.197 14.56 16.09 14.035 17.353-.18.431-3.701-.01-7.826-.975zM254.64 222.03c4.886-5.968 9.718-15.22 9.169-17.558-.439-1.87-20.823 21.778-20.823 24.157 0 1.038.286 2.173.637 2.524 1.06 1.06 6.09-3.106 11.017-9.123zm6.346-30.953c0-1.938-7.52-9.643-8.698-8.915-.559.346-4.704 6.467-9.212 13.604l-8.197 12.977 1.65 3.19 1.65 3.19 11.403-11.37c6.272-6.254 11.404-11.959 11.404-12.676zm-28.171-1.382c4.03-5.552 7.566-10.713 7.857-11.47.411-1.073-.78-1.376-5.406-1.376h-5.934l-4.5 9.778-4.501 9.777 2.077 1.678c1.143.923 2.303 1.685 2.578 1.693.275.01 3.798-4.528 7.829-10.08zm-17.933-5.596l3.132-6.25-4.764.015c-6.134.02-7.302.845-7.941 5.611-.49 3.66-.306 4.02 2.826 5.525 1.843.885 3.41 1.55 3.482 1.479.072-.072 1.541-2.943 3.265-6.38zm-18.125-4.062c.26-.783-.911-1.176-3.438-1.153-3.826.035-3.828.038-1.333 1.463 2.763 1.577 4.172 1.486 4.77-.31zm113.146 58.03c-4.519-4.038-5.171-10.574-1.492-14.947 5.342-6.349 13.76-6.405 19.042-.127 2.87 3.41 3.252 7.564 1.084 11.757-3.432 6.636-13.01 8.34-18.634 3.317zm-221.346-5.79c-.864-.864-1.57-1.876-1.568-2.25.02-3.541 14.256-18.45 23.038-24.127 8.938-5.776 14.72-7.422 23.875-6.794 9.515.652 20.132 4.23 35.084 11.82 17.85 9.065 21.191 11.422 20.814 14.692l-.314 2.731-20.5.61c-11.275.336-23.425 1.104-27 1.708-8.468 1.43-32.151 3.173-43.179 3.178-6.56 0-9.062-.38-10.25-1.567zm20.813-9.178c-1.27-5.34-1.783-5.45-5.88-1.255l-3.91 4.005h5.222c5.188 0 5.218-.018 4.568-2.75zm20.616-4.125c0-7.896-.938-12.125-2.69-12.125-2.688 0-11.415 4.284-10.99 5.395.232.608 1.237 3.693 2.234 6.855l1.81 5.75h9.636v-5.875zm21.656 2.512c.086-.075.465-2.21.842-4.742l.685-4.604-3.842-1.524c-2.113-.838-5.362-1.851-7.22-2.253l-3.379-.73.688 5.858c1.15 9.791 1.016 9.62 6.913 8.826 2.836-.382 5.227-.756 5.313-.831zm18.26-1.014c-.229-.207-2.329-1.342-4.666-2.52l-4.25-2.144v2.52c0 2.334.345 2.521 4.666 2.521 2.567 0 4.48-.17 4.25-.377zm-100.68 6.38c-4.075-2.485-6.756-7.795-5.82-11.526 3.092-12.32 23.131-12.097 26.24.291 1.514 6.03-5.643 13.225-13.156 13.225-2.233 0-5.442-.88-7.263-1.99zm204.353-3.08c-3.507-4.167-3.393-8.273.334-12 1.607-1.608 3.88-2.923 5.05-2.923 3.823 0 7.811 2.817 8.973 6.339 3.05 9.24-8.164 15.944-14.357 8.584zm-84.984-6.879c-4.961-4.955-20.97-13.179-39.967-20.532-18.016-6.973-25.488-11.808-31.24-20.214-6.61-9.66-8.783-16.242-8.845-26.798-.045-7.548.334-9.787 2.348-13.877 4.813-9.778 20.524-21.623 28.68-21.623 6.775 0 5.49 3.525-3.12 8.56-3.517 2.057-6.158 4.122-5.869 4.59.29.467 3.65.85 7.467.85 6.348 0 6.94-.176 6.94-2.066 0-4.807 4.55-7.993 6.692-4.684.445.688.86 6.875.921 13.75.086 9.516.638 14.41 2.312 20.5 4.67 16.995 9.864 24.952 29.59 45.334 10.03 10.362 13.486 14.577 13.486 16.443 0 2.356-1.655 3.766-4.332 3.69-.643-.018-2.92-1.783-5.063-3.923zm-21.733-22.892c-7.824-10.537-11.296-14.601-12.245-14.332-.62.176-3.756 1.494-6.97 2.928l-5.842 2.608 12.842 5.207c7.064 2.864 13.01 5.259 13.215 5.322.204.063-.246-.716-1-1.733zm-22.23-19.56l7.142-2.684-1.01-3.293-1.01-3.292-11.843 4.575-11.843 4.574 2.56 2.672c2.372 2.477 2.789 2.579 5.71 1.401 1.734-.698 6.366-2.478 10.294-3.954zm-9.392-14.231c9.57-2.196 11.75-3.025 11.75-4.47 0-.975-.338-1.96-.75-2.188-.99-.547-28.208 1.921-28.908 2.621-.298.298.001 2.187.665 4.198 1 3.028 1.574 3.56 3.35 3.095 1.178-.308 7.43-1.774 13.893-3.256zm9.75-19.861v-4.5h-9.375c-12.668 0-15.392.648-17.169 4.084-.8 1.55-1.456 3.289-1.456 3.866 0 .683 4.891 1.05 14 1.05h14v-4.5zM291.8 216.782c-4.066-3.035-5.358-7.988-3.246-12.439 3.3-6.956 11.06-8.513 16.895-3.39 2.93 2.572 3.535 3.782 3.535 7.065 0 5.003-1.287 7.41-4.98 9.32-4.003 2.07-8.99 1.843-12.204-.556zM41.283 206.89c-6.93-4.227-8.12-11.419-2.773-16.766 3.26-3.26 3.885-3.49 8.347-3.061 5.66.544 9.436 3 11.664 7.583 4.713 9.697-7.355 18.27-17.238 12.244zm53.472-3.007c-7.376-5.802-5.503-16.54 3.48-19.943 5.183-1.963 12.219 2.562 13.349 8.586 1.285 6.851-3.863 13.323-10.6 13.323-2.194 0-4.759-.81-6.23-1.966zm-25.37-6.434c-3.852-3.851-4.412-7.742-1.834-12.728 1.888-3.652 7.461-6.244 11.51-5.355 4.388.964 7.928 5.807 7.901 10.81-.052 9.855-10.622 14.229-17.577 7.273zm208.256 1.268c-1.014-.59-2.483-2.601-3.263-4.47-1.228-2.938-1.227-3.86.009-6.817 3.25-7.779 13.297-7.549 16.581.38 1.499 3.617.05 8.202-3.344 10.579-2.43 1.702-7.341 1.863-9.983.328zm26.73-3.152c-6.999-6.415-4.987-17.191 3.836-20.55 4.773-1.816 8.248-.896 12.437 3.293 2.767 2.768 3.34 4.088 3.334 7.691-.017 11.28-11.58 16.922-19.607 9.566zm-251.1-14.899c-3.687-.981-7.759-5.86-8.733-10.463-1.476-6.969 4.978-14.275 11.368-12.871 1.527.335 4.307 2.189 6.177 4.119 3.006 3.1 3.402 4.13 3.402 8.849 0 8.008-5.032 12.279-12.214 10.366zm227.904-3.843c-3.878-2.364-6.565-7.992-5.698-11.937 1.464-6.669 10.253-10.771 16.336-7.626 8.207 4.244 7.95 16.094-.435 20.073-4.233 2.009-6.237 1.908-10.203-.51zm-204.15-9.593c-7.957-6.696-8-17.03-.1-23.678 7.561-6.361 18.613-.843 19.824 9.9 1.373 12.183-11.19 20.96-19.723 13.778zm135.097-27.131c-.514-.962-2.1-3.946-3.526-6.63l-2.592-4.88 3.99.535c2.195.294 4.168.24 4.385-.12.217-.36.713-5.605 1.103-11.655l.708-11-5.353 5.14c-4.968 4.772-14.446 10.1-15.713 8.833-1.003-1.003 2.977-7.17 11.06-17.138 10.615-13.091 10.718-13.302 5.84-12-3.513.938-4.203.777-7.516-1.75-3.713-2.831-5.848-6.66-5.3-9.506.167-.869 2.098-2.145 4.29-2.838 2.193-.692 5.94-1.982 8.326-2.866 4.246-1.574 4.325-1.686 3.666-5.197-.37-1.974-1.76-4.88-3.09-6.46-2.623-3.118-3.794-6.51-3.241-9.389.275-1.432 1.869-2.062 7.338-2.904 3.843-.591 7.978-1.402 9.188-1.801 3.305-1.092 8.001 1.742 8.783 5.3.79 3.596-.475 6.199-3.906 8.035-3.269 1.75-3.745 7.041-.633 7.041 1.07 0 3.16 1.045 4.644 2.323 2.319 1.994 2.607 2.823 2.038 5.856-.545 2.904-1.388 3.86-4.731 5.368-3.705 1.671-4.016 2.097-3.482 4.769.323 1.614.587 3.328.587 3.809 0 .481.9.875 2 .875 3.076 0 6 3.557 6 7.3 0 4.167-1.552 5.74-4.987 5.053l-2.695-.54-.638 13.327c-.726 15.177-1.197 16.278-9.25 21.61-5.685 3.765-6.046 3.84-7.293 1.5zm63.218-2.737c-4.41-1.862-10.462-7.569-14.976-14.124l-3.842-5.578-1.5 2.345c-2.965 4.63-8.687 9.042-17.389 13.405-14.404 7.223-15.222 5.874-3.71-6.118 13.595-14.16 16.763-23.707 17.731-53.443.777-23.85 2.244-27.31 9.124-21.52 4.734 3.983 5.623 7.298 4.363 16.272-.598 4.261-1.364 11.573-1.704 16.248-.339 4.675-1.03 10.7-1.535 13.389l-.918 4.889 5.61 6.944c3.087 3.82 8.374 8.948 11.751 11.395 12.151 8.808 16.64 12.712 16.64 14.473 0 2.828-1.528 3.103-7.536 1.357-5.006-1.456-5.784-1.468-7.285-.118-1.436 1.293-2.134 1.32-4.824.184zm-32.475-40.519c-4.039-2.363-7.43-12.278-5.75-16.816.903-2.441 4.944-2.998 6.669-.92 1.448 1.745 4.169 9.791 4.186 12.381.022 3.235-3.111 6.522-5.105 5.355zm21.12-5.215c0-.745 3.037-5.096 6.75-9.668 3.712-4.573 7.461-9.506 8.33-10.962 2.12-3.55 4.364-3.796 7.356-.804 3.758 3.758 4.277 7.266 1.512 10.21-1.263 1.345-2.61 2.445-2.992 2.445-.382 0-4.241 1.982-8.575 4.404-9.36 5.23-12.381 6.298-12.381 4.375z" fill="#c38c8f"/><path d="M54.985 443.815c-26.252-6.82-46.595-26.921-53.008-52.375-1.949-7.739-1.992-11.386-1.975-168C.022 46.842-.308 56.257 6.34 42.378 17.419 19.248 38.372 4.238 64.343.826c5.496-.722 44.702-.966 120.642-.75l112.5.32 7.472 2.292c13.425 4.118 22.55 9.609 32.61 19.621 7.4 7.365 9.854 10.616 13.245 17.54 8.327 17.004 7.673 1.367 7.673 183.5 0 153.707-.094 162.333-1.823 168.5-6.931 24.717-24.83 42.956-50.677 51.643-5.213 1.751-11.724 1.86-124.5 2.06-115.093.205-119.247.148-126.5-1.737zm248.5-4.326c20.236-6.035 35.459-18.578 44.085-36.325 6.717-13.82 6.378-4.27 6.397-180.404.017-155.592-.032-159.784-1.954-167.301-6.446-25.202-28.203-45.168-54.028-49.578-4.577-.782-40.824-1.025-122.5-.821l-116 .29-8 2.724C29.006 15.729 12.56 32.76 6.32 54.85c-1.748 6.185-1.836 14.353-1.836 169v162.5l2.724 8c6.8 19.965 20.35 34.309 39.853 42.187 13.005 5.253 10.71 5.169 134.923 4.947 107.711-.192 115.904-.327 121.5-1.995zm-141.917-45.126c-31.424-20.398-66.763-31.716-105.814-33.886-4.801-.267-9.17-.757-9.706-1.088-3.609-2.23 5.29-7.292 19.632-11.166 8.345-2.254 11.977-2.666 24.393-2.761 11.198-.086 14.984.215 16.292 1.295.937.774 1.334 1.778.882 2.23-.452.453-6.434 1.308-13.292 1.901-6.859.593-12.833 1.437-13.276 1.876-.443.438 1.807 1.101 5 1.473 7.059.82 27.351 5.734 38.004 9.201 13.22 4.304 28.468 11.161 38.743 17.426 5.4 3.292 9.97 5.986 10.157 5.986.187 0 3.485-2.035 7.329-4.522 8.002-5.176 29.245-15.901 39.573-19.978 8.946-3.532 27.042-8.096 35.764-9.02 3.72-.394 6.957-1.03 7.193-1.412.237-.383-3.567-2.388-8.454-4.457-12.966-5.49-14.54-8.611-4.342-8.611 9.804 0 36.98 10.795 40.76 16.19 2.519 3.597.157 4.917-10.575 5.909-26.893 2.486-44.512 5.69-58.306 10.602-11.64 4.144-27.75 13.041-38.708 21.378-5.683 4.323-10.557 7.863-10.832 7.866-.275 0-4.963-2.891-10.417-6.432zm4.345-20.186c-16.75-11.454-28.282-15.98-47.983-18.83l-3.554-.515-2.784-26.741c-1.53-14.708-2.978-27.465-3.217-28.349-.292-1.081-1.206-1.46-2.795-1.155-7.317 1.398-1.218-6.329 8.903-11.28 7.235-3.54 13.337-3.978 27.432-1.967 19.193 2.737 34.362 1.797 55.07-3.413 19.421-4.887 26.832-5.723 37-4.176 21.023 3.2 33.869 11.099 18.05 11.099-5.226 0-5.889.234-6.362 2.25-.291 1.237-2.457 14.694-4.814 29.905l-4.284 27.655-7.545 2.17c-18.949 5.447-33.65 13.083-47.617 24.731l-6.071 5.064-9.429-6.448zm10.613-4.394c1.05-1.7-2.751-4.004-4.379-2.653-1.106.918-1.029 1.344.439 2.417 2.162 1.581 3.074 1.636 3.94.236zm-10.002-6.996c.749-1.213-2.265-4.937-3.994-4.937-.63 0-1.697.551-2.371 1.226-.968.968-.747 1.594 1.05 2.977 2.615 2.013 4.374 2.256 5.315.734zm20.622-1.053l2.97-2.115-2.24-2.385c-2.828-3.01-3.97-2.993-6.881.105-2.271 2.417-2.286 2.548-.52 4.5 2.283 2.523 2.997 2.512 6.671-.105zm-32.68-6.864c1.73-1.912 1.71-2.046-.595-3.967-3.034-2.527-3.097-2.523-5.809.364l-2.27 2.417 2.846 1.543c3.663 1.985 3.711 1.982 5.828-.357zm21.519-7.037c-3.012-2.333-3.773-2.168-6.432 1.393l-2.053 2.75 2.492 1.896c2.491 1.895 2.495 1.895 5.493-1.103l3-3-2.5-1.936zm24.75 1.857c1.787-2.231 3.247-4.346 3.243-4.699-.004-.353-1.536-1.683-3.405-2.955l-3.398-2.314-4.09 4.314-4.09 4.314 3.207 2.75c1.764 1.512 3.674 2.726 4.245 2.698.57-.028 2.5-1.877 4.288-4.108zm-58.95-8.049c-1.815-1.505-3.586-2.75-3.935-2.765-.35-.015-1.402 1.144-2.34 2.575-1.659 2.532-1.63 2.68 1.076 5.504l2.78 2.903 2.86-2.74 2.859-2.738-3.3-2.739zm22.666 2.243l2.841-2.965-2.404-2.001c-3.096-2.579-3.032-2.588-6.37.897l-2.84 2.965 2.403 2.001c3.096 2.579 3.032 2.588 6.37-.897zm60.13.395c2.972-.864 5.404-1.74 5.404-1.946 0-.205-1.879-1.675-4.174-3.265l-4.174-2.892-2.932 3.34c-2.806 3.195-3.13 6.334-.656 6.334.62 0 3.56-.707 6.532-1.571zm-37.251-4.806c3.419-4.172 3.502-4.451 1.791-6-.986-.893-2.274-1.623-2.861-1.623-1.09 0-7.275 6.551-7.275 7.706 0 .914 3.175 4.294 4.034 4.294.399 0 2.338-1.97 4.31-4.377zm-57.999-7.328l-2.792-2.226-2.348 2.206-2.348 2.206 2.694 2.318 2.695 2.317 2.445-2.297 2.446-2.298-2.792-2.226zm83.277 3.131l2.726-3.573-2.925-2.39c-1.608-1.316-3.208-2.408-3.556-2.427-.347-.02-1.886 1.61-3.42 3.621l-2.79 3.658 2.92 2.337c1.607 1.286 3.236 2.34 3.62 2.343.385 0 1.926-1.603 3.425-3.569zm-59.23-.758l2.107-2.831-2.88-2.482-2.879-2.482-2.87 2.75c-3.46 3.315-3.526 4.005-.621 6.448 2.888 2.428 4.535 2.105 7.144-1.403zm23.154-3.722l3.953-4.053-2.5-1.924c-3.444-2.652-4.034-2.495-7.829 2.075l-3.328 4.008 2.328 1.94c1.28 1.068 2.575 1.956 2.876 1.974.3.018 2.326-1.79 4.5-4.02zm55.52-2.778c.312-2.293.312-4.144 0-4.113-.312.03-1.624 1.393-2.917 3.028-1.927 2.439-2.124 3.243-1.1 4.478 1.96 2.36 3.4 1.143 4.017-3.393zm-89.099-5.606c-.017-.584-1.08-1.824-2.36-2.754-2.26-1.641-2.425-1.593-5.54 1.621l-3.211 3.313 2.74 2.155 2.739 2.155 2.832-2.713c1.557-1.493 2.818-3.192 2.8-3.777zm56.227 3.75c3.36-3.218 3.492-4.402.687-6.154-1.903-1.188-2.465-.986-5.529 1.984l-3.41 3.306 2.278 1.753c2.905 2.236 2.677 2.27 5.974-.889zm-34.284-4.455l3.41-4.106-2.41-1.854c-1.326-1.019-2.657-1.863-2.958-1.875-.301-.012-2.247 1.718-4.325 3.846l-3.778 3.869 2.71 2.131c1.49 1.172 2.986 2.123 3.325 2.114.338-.01 2.15-1.866 4.026-4.125zm61.062-2.92c.015-.308-1.288-1.533-2.895-2.721l-2.92-2.16-3.137 3.573-3.137 3.572 3.303 2.437 3.303 2.437 2.728-3.288c1.5-1.808 2.74-3.54 2.755-3.85zm-38.296-.187c3.35-3.723 3.648-4.792 1.727-6.197-2.262-1.654-6.982-.211-8.483 2.594-.834 1.559-.586 2.315 1.27 3.862 2.933 2.444 3.057 2.438 5.486-.26zm-57.92-7.508c-2.209-2.352-4.604-2.496-10.905-.654-2.485.726-1.213 3.556 2.962 6.589l3.686 2.677 3.244-3.118 3.245-3.119-2.232-2.375zm22.168 2.862c1.806-2.536 1.866-2.97.487-3.5-2.539-.974-5.919-.698-7.205.589-.924.924-.705 1.713.974 3.5 2.777 2.955 3.255 2.906 5.744-.589zm60.075-6.104l-2.5-1.922-3.429 3.406-3.428 3.406 2.428 1.999 2.429 1.999 3.5-3.484 3.5-3.483-2.5-1.921zm22.287.678c3.395-6.543-.477-9.222-5.6-3.874-3.263 3.405-3.295 3.869-.437 6.25 2.906 2.421 3.712 2.104 6.037-2.376zm-43.547-6.796c19.008-7.274 22.433-8.02 35.26-7.684l11.5.302.31-3.216c.41-4.24-1.372-4.66-17.104-4.046-11.077.433-13.409.881-25.206 4.84-12.95 4.344-13.056 4.36-27.5 4.377-9.153.011-19.308-.688-27.537-1.895-9.863-1.447-14.366-1.687-18.5-.987l-5.463.927-.314 4.378c-.311 4.345-.292 4.374 2.5 3.696 1.547-.376 7.764-.904 13.814-1.173 9.199-.409 12.8-.09 22 1.941 17.014 3.759 23.261 3.507 36.24-1.46zm30.336-.69c-.628-.21-1.902-.09-2.831.267-1.425.547-1.464.787-.25 1.537.893.553 1.965.451 2.83-.267.962-.798 1.04-1.275.251-1.537zm-64.676-22.592c-2.964-2.965-3.4-4.044-3.4-8.424 0-8.488 6.608-14.176 16.468-14.176 4.032 0 4.532-.249 4.535-2.25.01-6.228 6.95-11.75 14.764-11.75 3.767 0 3.824-.057 3.435-3.395-1.37-11.741 13.89-18.927 22.706-10.691 8.437 7.881 2.29 22.086-9.556 22.086-4.33 0-4.352.019-4.352 3.595 0 7.26-6.628 13.405-14.46 13.405-3.004 0-3.54.34-3.544 2.25-.005 3.287-3.495 8.473-7.237 10.755-2.346 1.43-5.038 1.988-9.61 1.99-5.89 0-6.595-.241-9.75-3.395zm-36.4-4.2c-26.6-7.079-33.385-8.323-45.595-8.366-8.652-.03-10.343-.308-11.83-1.951-2.393-2.644-1.056-4.8 6.493-10.475 13.054-9.814 25.854-14.038 42.432-14.005 9.375.02 12.181.43 19 2.783 9.544 3.293 18.101 8 19.585 10.773.828 1.547.711 2.408-.508 3.755-2.636 2.913-6.496 15.48-5.37 17.49.71 1.271.503 2.258-.772 3.667-.96 1.06-2.013 1.896-2.34 1.857-.328-.04-9.82-2.527-21.095-5.527zm18.41-15.603l.698-4.702-4.151-2.117c-2.283-1.165-4.282-1.974-4.442-1.798-.16.176-.694 4.46-1.186 9.521l-.896 9.202 3.533.86c3.434.834 3.565.758 4.64-2.702.609-1.96 1.42-5.677 1.804-8.264zm-17.354-2.018c1.795-9.796 1.804-9.78-5.138-9.78-4.447 0-4.358-.303-3.27 11.204.466 4.948 1.054 6.82 2.242 7.145 3.937 1.078 4.556.218 6.166-8.569zm-17.832-2.03c.247-3.987.405-7.33.35-7.429-.055-.099-2.119.25-4.587.776l-4.487.956.342 5.469c.323 5.167.517 5.52 3.5 6.384 1.737.503 3.444.955 3.795 1.004.35.05.84-3.172 1.087-7.16zm-17.035.75c.225-1.924.162-3.492-.14-3.482-.302.01-2.775 1.327-5.494 2.928l-4.945 2.91 3.945.404c2.17.223 4.458.48 5.085.572.628.092 1.325-1.406 1.55-3.331zm215.81 11.9c-22.522-5.655-43.06-6.714-55.824-2.878-7.552 2.27-8.175 1.507-8.175-10.013 0-16.684-3.931-32.971-9.97-41.307-3.698-5.105-18.002-14.56-38.03-25.137-17.406-9.192-20.047-11.18-18.38-13.828.914-1.454 3.348-1.846 14.985-2.408 7.642-.37 21.629-1.229 31.082-1.91 15.607-1.123 18.043-1.071 26.5.562 6.052 1.168 10.166 2.537 11.751 3.909 12.123 10.495 15.577 16.638 15.528 27.61-.027 6.043-.553 8.57-2.705 13-3.368 6.939-11.918 17.299-18.568 22.5-3.751 2.935-5.124 4.688-5.153 6.584-.022 1.42.177 2.8.442 3.066.266.265 4.428-.876 9.25-2.537 7.25-2.496 10.326-3.016 17.768-3 10.076.02 13.735 1.324 22.657 8.076 4.87 3.685 16.843 17.456 16.843 19.37 0 .518-.113.893-.25.833-.138-.059-4.525-1.181-9.75-2.493zm-43.53-49.9c3.399-5.248 5.945-11.756 5.326-13.612-.2-.603-4.962 4.237-10.58 10.756-7.265 8.428-10.215 12.598-10.215 14.437 0 1.422.311 2.898.692 3.279 1.012 1.012 11.01-9.042 14.777-14.86zm-6.373-15.61l9.869-10.612-2.7-3.463c-1.484-1.905-3.686-4.208-4.892-5.118-2.17-1.637-2.286-1.51-10.784 11.92-4.724 7.466-8.59 13.945-8.59 14.398 0 .453.782 2.184 1.736 3.847 2.086 3.635 1.161 4.295 15.36-10.973zm-18.158-13.11c4.434-5.897 8.062-10.96 8.062-11.25 0-.291-2.844-.53-6.319-.53h-6.318l-4.696 9.736-4.695 9.735 2.264 1.74c1.245.959 2.573 1.64 2.952 1.516.378-.125 4.316-5.05 8.75-10.947zm-19.418-3.53c1.615-3.162 3.097-6.087 3.292-6.5.195-.412-2.142-.75-5.194-.75-5.99 0-7.08.88-7.766 6.262-.278 2.176.283 3.167 2.648 4.677 1.65 1.053 3.243 1.948 3.541 1.988.298.04 1.864-2.514 3.479-5.676zm-17.75-5.062c.261-.783-.91-1.175-3.437-1.152-3.826.035-3.828.038-1.333 1.462 2.763 1.578 4.172 1.486 4.77-.31zm114.583 58.886c-4.141-2.525-5.95-7.736-4.358-12.558 1.66-5.033 5.296-7.515 11.005-7.515 5.709 0 9.344 2.482 11.005 7.515 2.412 7.308-3.039 14.477-11.005 14.477-1.925 0-4.916-.863-6.647-1.919zm-222.735-6.917c-1.82-2.036-1.823-2.196-.076-4.88 3.192-4.907 13.775-15.374 20.174-19.955 3.42-2.447 8.82-5.371 12-6.497 13.24-4.69 32.768.75 59.79 16.654 8.712 5.127 9.584 5.909 9.304 8.34l-.31 2.682-21 .645c-11.55.355-25.95 1.351-32 2.214-6.05.862-18.875 1.868-28.5 2.235-16.958.647-17.559.602-19.382-1.438zm20.856-9.406c-1.088-5.163-2.136-5.47-5.972-1.752-1.926 1.866-3.502 3.756-3.502 4.198 0 .442 2.285.804 5.08.804h5.079l-.685-3.25zm20.37-6a1393.63 1393.63 0 0 0-.765-9c-.143-1.349-4.492-.746-8.83 1.223-2.337 1.06-4.25 2.128-4.25 2.372 0 .244.919 3.416 2.04 7.05l2.041 6.605h10.451l-.686-8.25zm21.794 4.934c.096-.101.492-2.314.88-4.917.788-5.303 1.111-5.018-9.159-8.068l-4.976-1.478.88 6.64c1.309 9.862 1.012 9.492 6.986 8.7 2.868-.38 5.293-.775 5.389-.877zm15.362-3.184c-5.677-3.04-6-3.04-6 0 0 2.354.304 2.497 5.25 2.454l5.25-.045-4.5-2.41zm-96.67 8.563c-2.293-1.042-4.655-2.802-5.25-3.913-1.368-2.557-1.396-8.692-.05-11.206 1.547-2.892 6.315-4.944 11.486-4.944 8.025 0 12.424 3.747 12.462 10.615.028 5.197-2.803 8.964-7.774 10.345-4.995 1.387-6.03 1.301-10.874-.897zm204.305-2.136c-2.138-1.682-2.635-2.908-2.635-6.5 0-5.773 2.508-8.427 7.96-8.427 5.185 0 8.04 2.923 8.04 8.234 0 7.498-7.54 11.275-13.365 6.693zm-84.491-7.28c-4.886-5.04-16.45-11.22-34.986-18.7-23.462-9.465-25.33-10.397-30.942-15.443-6.387-5.742-10.752-12.571-13.896-21.738-4.938-14.401-1.798-26.56 9.532-36.915 9.583-8.757 23.148-13.954 23.148-8.867 0 1.355-2.063 3.287-6.5 6.09-3.575 2.258-6.5 4.514-6.5 5.015 0 .5 3.282.91 7.293.91h7.293l.957-3.165c1.233-4.079 3.709-5.7 5.912-3.871 1.362 1.13 1.518 2.654.968 9.442-.797 9.835.586 19.49 4.568 31.876 4.275 13.299 9.84 21.007 31.259 43.305 5.362 5.583 9.75 10.795 9.75 11.582 0 1.7-1.95 3.832-3.504 3.832-.607 0-2.566-1.509-4.352-3.352zm-25.858-27.48c-2.632-3.209-5.686-7.064-6.786-8.568l-2-2.734-7 3.2-7 3.2 3 1.345c4.706 2.111 22.912 9.245 23.786 9.321.433.038-1.367-2.556-4-5.765zm-14.97-17.074c2.307-.897 2.693-1.503 2.13-3.344-1.434-4.686-1.559-4.687-13.404-.102-6.302 2.439-11.702 4.681-12 4.983-.298.302.767 1.596 2.368 2.875l2.91 2.326 7.59-2.822c4.174-1.552 8.857-3.314 10.407-3.916zm-13.733-12.659c11.712-2.646 12.069-2.805 11.617-5.168-.404-2.114-.882-2.369-3.583-1.91-1.715.292-7.167.807-12.117 1.146-15.3 1.046-15.888 1.357-13.312 7.012.868 1.904 1.745 2.479 3.25 2.129 1.134-.264 7.5-1.708 14.145-3.209zm9.417-19.934v-4.5l-10.75.015c-12.202.017-14.988.96-16.933 5.735l-1.323 3.25h29.006v-4.5zm148.475 77.104c-6.845-2.983-7.32-14.208-.75-17.725 1.376-.737 4.34-1.291 6.584-1.233 10.492.276 13.378 15.827 3.572 19.245-4.02 1.402-5.643 1.352-9.406-.287zM41.947 206.6c-3.525-1.778-4.756-3.101-5.863-6.3-1.2-3.473-1.2-4.472 0-7 1.943-4.092 7.699-6.766 12.595-5.85 10.956 2.046 14.279 16.006 4.757 19.984-4.587 1.917-6.277 1.794-11.49-.834zm53.813-2.31c-3.623-1.965-4.775-4.367-4.775-9.952 0-6.363 3.933-10.488 10-10.488s10 4.125 10 10.488c0 5.677-1.173 8.033-4.98 10.001-3.632 1.878-6.722 1.864-10.245-.048zm-23.563-4.908c-4.484-2.002-6.656-7.173-5.232-12.46 1.266-4.7 4.597-7.072 9.929-7.072 5.677 0 9.136 3.225 9.803 9.14.452 4.012.164 4.959-2.348 7.719-3.412 3.748-7.654 4.68-12.152 2.673zm206.187-.96c-3.41-1.485-4.4-3.22-4.4-7.72 0-4.135 1.408-6.364 4.943-7.829 5.896-2.442 12.058 1.336 12.058 7.395 0 4.797-.824 6.439-4.072 8.119-3.426 1.771-4.529 1.776-8.529.035zm27.915-1.523c-4.166-2.54-5.32-4.878-5.292-10.734.023-5.09 1.748-8.197 5.662-10.198 3.19-1.632 9.517-1.365 12.199.513 2.533 1.774 5.117 7.045 5.117 10.436 0 3.844-3.059 8.734-6.479 10.356-4.39 2.083-7.34 1.985-11.207-.373zM50.747 179.284c-5.307-2.88-7.406-11.355-4.3-17.363 1.674-3.236 3.325-4.071 8.043-4.071 7.144 0 12.549 8.372 10.446 16.181-1.711 6.354-7.923 8.653-14.189 5.253zm228.16-4.358c-2.393-2.393-2.922-3.766-2.922-7.576 0-3.81.53-5.184 2.923-7.577 2.442-2.442 3.736-2.923 7.863-2.923 3.95 0 5.447.506 7.465 2.524 7.178 7.177 2.343 18.476-7.905 18.476-3.64 0-5.059-.559-7.423-2.924zm-199.851-6.793c-5.364-2.79-7.357-6.253-7.357-12.783 0-6.623 2.025-10.06 7.545-12.806 12.833-6.385 23.59 12.1 13.347 22.934-3.942 4.17-8.794 5.121-13.535 2.655zm130.679-32.777c-1.513-2.993-2.75-5.701-2.75-6.02 0-.317 1.536-.289 3.414.063 4.718.885 5.586-1.164 5.586-13.197v-9.778l-4.75 4.59c-4.462 4.313-14.946 10.473-16.01 9.409-.831-.832 4.672-9.406 11.17-17.402 3.429-4.22 6.998-8.844 7.932-10.277l1.698-2.605-4.77.453c-5.79.55-9.495-1.865-11.315-7.377-1.438-4.359-1.3-4.477 8.795-7.492 7.16-2.139 7.25-2.207 7.25-5.578 0-2.24-.99-4.683-2.88-7.105-2.948-3.778-4.526-8.956-3.305-10.84.377-.581 3.385-1.36 6.685-1.73 3.3-.371 7.707-.939 9.794-1.262 5.05-.782 7.706 1.532 7.706 6.715 0 3.185-.511 4.079-3.33 5.821-2.851 1.762-3.266 2.502-2.878 5.142.33 2.253.861 2.926 1.97 2.5.836-.32 2.581.113 3.879.963 1.82 1.194 2.359 2.449 2.359 5.503 0 3.61-.351 4.136-4 5.997-3.634 1.854-4 2.398-4 5.94 0 3.501.3 3.967 2.93 4.545 3.886.853 5.321 2.77 5.457 7.283l.113 3.732-4.178-.08-4.177-.082-.323 13.762c-.355 15.171-1.313 17.86-7.412 20.805-1.6.773-3.06 1.786-3.244 2.25-.183.465-1.308.833-2.5.818-1.608-.02-2.875-1.428-4.916-5.467zm80.994 2.905c-1.55-1.55-8.833-2.373-10.698-1.208-3.89 2.429-12.57-3.667-19.267-13.529l-4.113-6.057-1.583 2.44c-2.891 4.456-8.494 8.87-16.411 12.929-6.997 3.587-12.672 5.108-12.672 3.394 0-.34 3.766-4.577 8.369-9.414 8.954-9.41 11.588-13.827 14.671-24.608 2.098-7.337 4.2-32.146 3.295-38.892-.295-2.203-.024-5.909.603-8.236 1.008-3.744 1.473-4.23 4.05-4.23 2.118 0 3.596.899 5.43 3.304 3.027 3.968 3.21 6.087 1.695 19.696-.643 5.775-1.617 14.72-2.164 19.877l-.995 9.378 3.958 5.122c4.731 6.122 8.86 10.11 15.588 15.052 14.713 10.81 16.96 13.412 12.918 14.964-1.94.744-1.948.744-2.674.018zm-50.216-43.727c-3.567-5.444-4.749-15.279-1.965-16.347 3.301-1.267 6.019 1.251 7.347 6.807 1.747 7.308 1.205 11.268-1.597 11.667-1.437.204-2.734-.525-3.785-2.127zm23.493-2.96c.011-.673 3.611-5.7 8-11.169 4.388-5.47 7.979-10.307 7.979-10.75 0-.443 1.107-.805 2.46-.805 4.566 0 9.143 7.363 6.532 10.509-1.294 1.559-17.529 10.608-22.242 12.397-2.073.787-2.745.742-2.73-.181z" fill="#8c948b"/><path d="M59.485 444.386C31.498 439.145 9.578 419.028 2.24 391.85.6 385.777.485 374.656.485 222.85c0-153.98.095-162.841 1.816-169C9.161 29.303 26.648 11.66 52.01 3.697l7.475-2.347h241l8.76 3.134c11.151 3.99 18.406 8.32 26.577 15.866 8.28 7.645 15.396 18.51 18.907 28.869l2.756 8.13.264 162.744c.295 181.208.692 170.064-6.596 185.257-8.816 18.378-25.006 31.604-46.668 38.123-5.618 1.69-13.4 1.819-122 2.015-92.161.166-117.439-.06-123-1.102zm242.876-4.505c24.017-6.142 43.552-25.19 50.287-49.031 1.748-6.185 1.837-14.31 1.837-167.5 0-180.201.574-165.77-7.228-181.5-2.83-5.707-5.878-9.66-12.746-16.532-9.965-9.971-17.7-14.688-30.543-18.627l-7.483-2.295-112-.329c-80.12-.235-114.264 0-119.952.811C48.056 7.24 34.33 14.15 22.985 25.795c-7.555 7.754-12.07 14.953-15.821 25.22l-2.68 7.335-.28 161.5c-.314 180.27-.748 168.433 6.733 183.646 8.86 18.017 25.122 31.12 45.048 36.295 7.217 1.875 11.854 1.95 123.09 2.003 111.797.053 115.842-.01 123.286-1.913zm-139.998-45.184c-32.737-21.412-70.208-33.33-110.369-35.105-11.773-.52-5.297-6.02 12.61-10.71 18.656-4.887 44.937-4.977 41.95-.144-.378.611-2.497 1.112-4.708 1.112-5.7 0-23.095 2.093-24.734 2.977-.774.417 1.77 1.05 5.832 1.45 8.645.852 30.903 6.225 44.04 10.631 11.907 3.994 29.63 12.312 38.628 18.13l6.873 4.443 6.5-4.404c9.36-6.343 34.744-18.566 47.101-22.68 9.808-3.266 30.626-7.547 36.698-7.547 3.865 0 1.833-1.341-8.3-5.477-13.883-5.668-15.124-8.14-3.951-7.869 7.182.175 15.995 2.818 28.406 8.52 9.358 4.3 12.046 6.28 12.046 8.874 0 2.46-1.95 2.969-15.5 4.038-41.022 3.237-68.788 12.884-93.794 32.585-4.417 3.48-8.801 6.329-9.74 6.329-.94 0-5.255-2.32-9.588-5.153zm6.534-18.694c-17.289-12.287-29.706-17.794-45.612-20.229l-8.18-1.252-.553-3.586c-.751-4.87-5.567-49.487-5.567-51.576 0-1.322-.604-1.537-2.905-1.031-1.749.384-3.184.187-3.605-.495-1.767-2.86 10.999-11.038 20.364-13.047 4.229-.907 7.742-.73 19.53.979 22.341 3.238 28.149 2.868 54.216-3.46 24.579-5.966 32.458-6.167 50.686-1.298 13.287 3.55 16.024 8.339 4.391 7.684l-6.09-.342-4.683 29.805c-2.575 16.393-4.844 29.918-5.043 30.056-.199.137-5.761 1.997-12.361 4.132-16.085 5.203-25 9.856-37.291 19.463-5.66 4.424-10.65 8.044-11.088 8.044-.437 0-3.231-1.731-6.209-3.847zm7.629-6.22c1.01-1.633-2.747-4.007-4.3-2.718-.952.79-.984 1.389-.131 2.417 1.356 1.634 3.516 1.78 4.43.301zm-11.013-9.902c-2.152-2.378-3.832-2.576-5.439-.64-.915 1.104-.577 1.819 1.628 3.44 2.396 1.762 2.982 1.85 4.216.639 1.243-1.221 1.19-1.678-.405-3.44zm22.389-2.755c-3.4-2.86-3.714-2.845-7.036.337l-2.728 2.614 2.609 2.245 2.61 2.244 3.625-2.581 3.626-2.582-2.706-2.277zm-33.746-1.931c2.413-2.184 2.316-2.796-.766-4.816-2.494-1.633-2.689-1.612-5 .56-1.323 1.242-2.405 2.593-2.405 3.002 0 .59 3.886 2.448 5.921 2.83.232.043 1.244-.666 2.25-1.576zm21.927-7.435c-2.876-2.367-3.833-2.149-6.537 1.485l-2.061 2.77 2.427 1.97 2.427 1.972 3.073-3.11 3.073-3.112-2.402-1.975zm27.86-2.472c.038-.971-5.203-5.438-6.382-5.438-.277 0-2.316 1.912-4.532 4.25l-4.027 4.25 3.741 3.213 3.742 3.213 3.707-4.213c2.04-2.317 3.727-4.691 3.75-5.275zm-62.097-3.688c-4.031-3.374-4.22-3.379-6.336-.149-1.659 2.532-1.63 2.68 1.076 5.504l2.78 2.903 2.883-2.754 2.882-2.754-3.285-2.75zm22.697 2.189l2.932-3.06-2.495-1.918c-3.218-2.472-3.116-2.49-6.553 1.1l-2.933 3.06 2.495 1.917c3.218 2.472 3.116 2.49 6.554-1.1zm64.954-1.118c.32-.32-1.284-1.951-3.562-3.627l-4.142-3.046-2.904 3.308c-3.165 3.605-3.457 4.591-1.834 6.214.76.76 2.633.586 6.466-.6 2.968-.918 5.657-1.93 5.976-2.25zm-42.048-3.343l3.705-4.521-2.335-1.954-2.334-1.954-4.33 4.501-4.329 4.5 2.33 1.942c1.28 1.068 2.612 1.956 2.958 1.974.346.018 2.297-2.001 4.335-4.488zm-58.118-7.183l-2.792-2.226-2.348 2.206-2.348 2.206 2.694 2.318 2.695 2.317 2.445-2.297 2.446-2.298-2.792-2.226zm83.065 3.628c1.424-1.692 2.589-3.462 2.589-3.932 0-.84-5.285-4.991-6.354-4.991-.3 0-1.788 1.63-3.309 3.624l-2.764 3.624 2.963 2.37c1.63 1.305 3.261 2.374 3.625 2.377.363 0 1.826-1.38 3.25-3.072zm-59.017-1.255l2.106-2.831-2.884-2.486-2.883-2.485-3.376 3.272-3.376 3.272 2.76 2.273c3.412 2.812 4.959 2.607 7.653-1.015zm22.814-3.371c2.085-2.037 3.792-3.977 3.792-4.312 0-.335-1.284-1.559-2.854-2.72l-2.854-2.109-3.802 4.55-3.803 4.549 2.406 1.85c1.324 1.018 2.613 1.86 2.865 1.872.251.012 2.164-1.644 4.25-3.68zm55.803.953c.006-.963.291-3.55.634-5.75l.624-4-3.486 3.96-3.486 3.96 2.101 1.756c2.683 2.243 3.599 2.261 3.613.073zm-90.687-11.972l-2.787-2.222-3.326 3.222-3.327 3.222 2.692 2.316 2.69 2.317 3.423-3.317 3.422-3.316-2.787-2.222zm58.531 5.37l3.248-3.35-2.658-1.742c-2.627-1.722-2.699-1.703-6.105 1.598l-3.447 3.34 2.164 1.753c2.87 2.324 3.034 2.285 6.798-1.599zm-34.944-3.79l3.41-4.107-2.41-1.854c-1.326-1.019-2.657-1.863-2.958-1.875-.301-.012-2.247 1.718-4.325 3.846l-3.778 3.869 2.71 2.131c1.49 1.172 2.986 2.123 3.325 2.114.338-.01 2.15-1.866 4.026-4.125zm58.751.518l2.764-3.625-2.963-2.394-2.963-2.395-3.37 3.635-3.37 3.636 2.87 2.347c1.578 1.291 3.184 2.364 3.569 2.384.384.02 1.943-1.595 3.463-3.588zm-35.467-4.064c3.318-3.179 3.488-4.405.838-6.06-2.516-1.57-6.469-.176-8.091 2.856-1.017 1.899-.852 2.456 1.189 4.025 3.007 2.313 2.758 2.347 6.064-.82zm-58.267-7.224c-2.482-2.067-5.49-2.428-9.928-1.194-3.59.999-3.087 3.46 1.44 7.059l3.942 3.131 3.487-3.487 3.488-3.488-2.429-2.021zm22 3.277c2.769-3.521 2.635-4.05-1.178-4.652-2.32-.367-3.8.016-5.173 1.336-1.893 1.823-1.886 1.88.5 3.867 3.129 2.605 3.387 2.58 5.85-.551zm60.143-6.476l-2.428-2-3.572 3.595-3.571 3.594 2.5 1.922 2.5 1.92 3.5-3.516 3.5-3.516-2.429-2zm21.86 2.206c1.138-1.597 2.069-4.072 2.069-5.5 0-3.705-3.55-3.424-7.712.61l-3.307 3.205 2.76 2.259c3.542 2.9 3.73 2.883 6.19-.574zm-36.431-2.095c.34-.55.141-1-.441-1-.583 0-1.06.45-1.06 1s.2 1 .442 1 .719-.45 1.059-1zm-5-6.423c16.92-6.488 26.014-8.231 36.475-6.992 8.847 1.047 8.746 1.092 9.24-4.082l.285-2.996-8-.864c-10.76-1.161-20.834.367-36.405 5.52-12.318 4.078-12.881 4.167-25.595 4.056-7.15-.062-16.375-.613-20.5-1.224-11.955-1.77-27.161-2.321-30.297-1.1-2.574 1.004-2.743 1.39-2.119 4.848.939 5.2.974 5.227 5.174 3.978 6.862-2.04 24.58-1.262 37.242 1.637 14.909 3.413 19.264 3.061 34.5-2.78zm28.5.923c1.063-1.281.77-1.5-2-1.5-2.771 0-3.063.219-2 1.5.684.825 1.584 1.5 2 1.5.415 0 1.315-.675 2-1.5zm-64.6-23.9c-2.964-2.965-3.4-4.044-3.4-8.424 0-8.488 6.608-14.176 16.468-14.176 4.032 0 4.532-.249 4.535-2.25.01-6.228 6.95-11.75 14.764-11.75 3.767 0 3.824-.057 3.435-3.395-1.37-11.741 13.89-18.927 22.706-10.691 8.437 7.881 2.29 22.086-9.556 22.086-4.33 0-4.352.019-4.352 3.595 0 7.26-6.628 13.405-14.46 13.405-3.004 0-3.54.34-3.544 2.25-.005 3.287-3.495 8.473-7.237 10.755-2.346 1.43-5.038 1.988-9.61 1.99-5.89 0-6.595-.241-9.75-3.395zm-40.9-5.637c-20.84-5.641-32.065-7.603-47-8.217-5.707-.234-6.016-.379-6.312-2.953-.267-2.308.616-3.39 6-7.358 18.246-13.446 39.487-17.86 59.701-12.405 9.192 2.48 21.467 8.875 21.962 11.44.194 1.003-.539 3.445-1.628 5.426-2.847 5.182-4.585 11.002-4.659 15.604-.06 3.715-.278 4.014-3.064 4.208-1.65.115-12.9-2.47-25-5.745zm21.023-3.213c.253-.688 1.074-4.537 1.825-8.554l1.363-7.303-3.816-1.947c-2.098-1.07-4.263-1.946-4.81-1.946-1.064 0-1.64 2.834-2.583 12.71l-.592 6.209 3.295.95c4.531 1.307 4.795 1.3 5.318-.12zm-15.058-13.114c.903-4.874 1.505-8.986 1.338-9.137-.167-.15-2.666-.591-5.553-.98l-5.25-.707v8.971c0 5.97.418 9.311 1.25 9.986 1.594 1.295 5.05 2.06 5.912 1.308.364-.318 1.4-4.566 2.303-9.44zm-18.101.724c1.465-10.687 1.162-11.19-5.614-9.308-4.044 1.123-4.313 1.911-3.117 9.143.615 3.724.756 3.818 6.98 4.655.614.082 1.401-1.938 1.75-4.49zm-16.364-1.86c0-1.925-.338-3.496-.75-3.491-1.042.013-11.25 5.92-11.25 6.51 0 .265 2.7.48 6 .48h6v-3.5zm217 11.898c-21.501-5.395-43.394-6.898-55.664-3.82-9.492 2.38-9.265 2.614-9.789-10.078-.777-18.834-4.574-33.446-10.585-40.732-3.847-4.664-21.34-16.437-33.367-22.455-5.002-2.504-12.16-6.334-15.904-8.511-6.008-3.494-6.773-4.274-6.5-6.631l.309-2.671 17-.61c9.35-.336 24.227-.965 33.06-1.4 11.898-.584 17.857-.45 23 .518 17.572 3.308 28.752 20.418 24.919 38.138-1.836 8.484-10.945 21.18-20.334 28.34-4.359 3.325-5.145 4.428-5.145 7.219 0 1.812.2 3.295.443 3.295.244 0 4.617-1.399 9.718-3.108 8.368-2.804 10.208-3.069 18.807-2.713 8.253.341 10.259.792 14.95 3.357 5.972 3.265 15.453 12.235 20.152 19.066 3.305 4.804 3.187 4.868-5.07 2.796zM251.149 226.1c3.57-3.713 7.655-8.775 9.077-11.25 2.46-4.286 5.098-11.995 4.356-12.736-.272-.273-14.065 15.183-21.182 23.736-1.247 1.498-.825 7 .537 7 .396 0 3.641-3.038 7.212-6.75zm9.744-36.422c-.521-.974-2.597-3.372-4.612-5.33-2.922-2.837-3.901-3.299-4.83-2.278-2.12 2.327-16.466 25.66-16.466 26.78 0 .605.743 2.536 1.651 4.293l1.652 3.193 11.776-12.444c9.676-10.225 11.607-12.76 10.829-14.214zm-26.925-.927c4.484-6.104 7.952-11.3 7.706-11.545-.246-.246-3.089-.54-6.318-.652l-5.871-.204-4.83 9.976-4.83 9.976 2.19 1.774c1.205.975 2.553 1.774 2.996 1.774.442 0 4.473-4.995 8.957-11.099zm-18.998-3.873c1.658-3.284 3.015-6.438 3.015-7.009 0-1.09-10.943-.316-12.129.858-.346.343-.928 2.305-1.293 4.361-.614 3.455-.415 3.89 2.629 5.746 1.81 1.105 3.624 2.01 4.028 2.012.405 0 2.092-2.684 3.75-5.968zm-17.985-4.028c1.002-1.873.765-1.998-3.715-1.959l-4.785.042 3.5 1.917c1.925 1.054 3.596 1.935 3.715 1.958.118.023.696-.858 1.285-1.958zm114.353 58.073c-4.141-2.525-5.95-7.736-4.358-12.558 1.66-5.033 5.296-7.515 11.005-7.515 5.709 0 9.344 2.482 11.005 7.515 2.412 7.308-3.039 14.477-11.005 14.477-1.925 0-4.916-.863-6.647-1.919zm-222.803-6.992c-1.627-2.632.984-6.794 9.755-15.555 7.24-7.232 10.884-10.017 17.143-13.105 7.346-3.624 8.56-3.914 16-3.83 12.292.142 26.707 5.475 49.308 18.244 8.123 4.59 10.51 7.298 8.343 9.465-.7.7-7.54 1.17-18.849 1.296-10.272.114-22.385.89-28.75 1.842-14.418 2.156-51.914 3.32-52.95 1.643zm20.307-5.972c1.268-.803.91-5.916-.592-8.453-.524-.886-9.265 7.182-9.265 8.552 0 1.065 8.148.984 9.857-.1zm21.937-1.6c.162-.146-.063-4.258-.501-9.137l-.797-8.872-2.913.313c-3.4.366-10.583 3.829-10.583 5.102 0 .48.93 3.884 2.066 7.564l2.066 6.69 5.184-.698c2.851-.384 5.316-.817 5.478-.962zm21.084-3.357c.464-.909 1.1-3.32 1.412-5.357l.57-3.704-5.39-2.017c-7.261-2.717-10.472-3.463-10.463-2.433.012 1.347 2.008 13.744 2.393 14.859.585 1.696 10.519.53 11.478-1.348zm20.122.364c0-.499-9.52-5.516-10.467-5.516-.293 0-.533 1.35-.533 3 0 2.97.055 3 5.5 3 3.025 0 5.5-.218 5.5-.484zm-101.67 5.547c-2.293-1.042-4.655-2.802-5.25-3.913-1.368-2.557-1.396-8.692-.05-11.206 1.547-2.892 6.315-4.944 11.486-4.944 8.025 0 12.424 3.747 12.462 10.615.028 5.197-2.803 8.964-7.774 10.345-4.995 1.387-6.03 1.301-10.874-.897zm204.305-2.136c-2.138-1.682-2.635-2.908-2.635-6.5 0-5.773 2.508-8.427 7.96-8.427 5.185 0 8.04 2.923 8.04 8.234 0 7.498-7.54 11.275-13.365 6.693zm-86.42-8.858c-5.537-5.043-18.477-11.689-36.26-18.622-18.361-7.158-22.444-9.283-28.78-14.98-3.82-3.434-6.283-6.9-9.121-12.836-8.926-18.666-7.505-31.319 4.901-43.636 6.321-6.274 13.742-10.604 19.852-11.58 3.844-.615 4.193-.49 4.193 1.503 0 1.399-1.106 2.782-3.1 3.878-1.705.937-4.968 3.054-7.25 4.704l-4.15 3 8 .599c4.4.33 8.164.465 8.366.3.2-.164.67-1.783 1.04-3.599.573-2.8 1.106-3.3 3.511-3.3h2.835l.221 14.5c.418 27.407 5.865 38.258 34 67.736 11.971 12.542 13.558 15.522 8.518 16-1.706.16-3.842-.995-6.776-3.667zm-20.876-22.32c-1.68-1.787-4.98-5.848-7.334-9.023-4.76-6.419-4.655-6.403-13.355-2.03-2.667 1.341-4.554 2.733-4.194 3.093.558.558 26.212 10.96 27.49 11.145.245.036-.928-1.397-2.607-3.184zm-24.84-17.776c4.95-1.828 9.167-3.448 9.37-3.602.501-.376-.649-4.561-1.691-6.156-.65-.996-3.408-.28-12.234 3.176-6.268 2.454-11.54 4.895-11.717 5.425-.42 1.26 4.82 5.373 6.205 4.87.587-.214 5.118-1.885 10.068-3.713zm-7.711-15.036c12.559-2.95 13.252-3.24 12.626-5.28-.365-1.186-.796-2.309-.959-2.494-.617-.703-30.455 2.232-30.455 2.995 0 2.283 3.325 8.66 4.333 8.308.642-.224 7.146-1.812 14.455-3.529zm10.212-19.937v-5h-24.96l-2.02 3.96c-1.111 2.178-2.02 4.428-2.02 5 0 .672 5.13 1.04 14.5 1.04h14.5v-5zm148.475 76.604c-6.845-2.983-7.32-14.208-.75-17.725 1.376-.737 4.34-1.291 6.584-1.233 10.492.276 13.378 15.827 3.572 19.245-4.02 1.402-5.643 1.352-9.406-.287zM41.947 206.6c-3.525-1.778-4.756-3.101-5.863-6.3-1.2-3.473-1.2-4.472 0-7 1.943-4.092 7.699-6.766 12.595-5.85 10.956 2.046 14.279 16.006 4.757 19.984-4.587 1.917-6.277 1.794-11.49-.834zm53.813-2.31c-3.623-1.965-4.775-4.367-4.775-9.952 0-6.363 3.933-10.488 10-10.488s10 4.125 10 10.488c0 5.677-1.173 8.033-4.98 10.001-3.632 1.878-6.722 1.864-10.245-.048zm-23.563-4.908c-4.484-2.002-6.656-7.173-5.232-12.46 1.266-4.7 4.597-7.072 9.929-7.072 5.677 0 9.136 3.225 9.803 9.14.452 4.012.164 4.959-2.348 7.719-3.412 3.748-7.654 4.68-12.152 2.673zm206.187-.96c-3.41-1.485-4.4-3.22-4.4-7.72 0-4.135 1.408-6.364 4.943-7.829 5.896-2.442 12.058 1.336 12.058 7.395 0 4.797-.824 6.439-4.072 8.119-3.426 1.771-4.529 1.776-8.529.035zm27.915-1.523c-4.166-2.54-5.32-4.878-5.292-10.734.023-5.09 1.748-8.197 5.662-10.198 3.19-1.632 9.517-1.365 12.199.513 2.533 1.774 5.117 7.045 5.117 10.436 0 3.844-3.059 8.734-6.479 10.356-4.39 2.083-7.34 1.985-11.207-.373zM50.747 179.284c-5.307-2.88-7.406-11.355-4.3-17.363 1.674-3.236 3.325-4.071 8.043-4.071 7.144 0 12.549 8.372 10.446 16.181-1.711 6.354-7.923 8.653-14.189 5.253zm228.16-4.358c-2.393-2.393-2.922-3.766-2.922-7.576 0-3.81.53-5.184 2.923-7.577 2.442-2.442 3.736-2.923 7.863-2.923 3.95 0 5.447.506 7.465 2.524 7.178 7.177 2.343 18.476-7.905 18.476-3.64 0-5.059-.559-7.423-2.924zm-199.851-6.793c-5.364-2.79-7.357-6.253-7.357-12.783 0-6.623 2.025-10.06 7.545-12.806 12.833-6.385 23.59 12.1 13.347 22.934-3.942 4.17-8.794 5.121-13.535 2.655zm130.679-32.777c-1.513-2.993-2.75-5.701-2.75-6.02 0-.317 1.536-.289 3.414.063 4.718.885 5.586-1.164 5.586-13.197v-9.778l-4.75 4.59c-4.462 4.313-14.946 10.473-16.01 9.409-.831-.832 4.672-9.406 11.17-17.402 3.429-4.22 6.998-8.844 7.932-10.277l1.698-2.605-4.77.453c-5.79.55-9.495-1.865-11.315-7.377-1.438-4.359-1.3-4.477 8.795-7.492 7.16-2.139 7.25-2.207 7.25-5.578 0-2.24-.99-4.683-2.88-7.105-2.948-3.778-4.526-8.956-3.305-10.84.377-.581 3.385-1.36 6.685-1.73 3.3-.371 7.707-.939 9.794-1.262 5.05-.782 7.706 1.532 7.706 6.715 0 3.185-.511 4.079-3.33 5.821-2.851 1.762-3.266 2.502-2.878 5.142.33 2.253.861 2.926 1.97 2.5.836-.32 2.581.113 3.879.963 1.82 1.194 2.359 2.449 2.359 5.503 0 3.61-.351 4.136-4 5.997-3.634 1.854-4 2.398-4 5.94 0 3.501.3 3.967 2.93 4.545 3.886.853 5.321 2.77 5.457 7.283l.113 3.732-4.178-.08-4.177-.082-.323 13.762c-.355 15.171-1.313 17.86-7.412 20.805-1.6.773-3.06 1.786-3.244 2.25-.183.465-1.308.833-2.5.818-1.608-.02-2.875-1.428-4.916-5.467zm80.994 2.905c-1.55-1.55-8.833-2.373-10.698-1.208-3.89 2.429-12.57-3.667-19.267-13.529l-4.113-6.057-1.583 2.44c-2.891 4.456-8.494 8.87-16.411 12.929-6.997 3.587-12.672 5.108-12.672 3.394 0-.34 3.766-4.577 8.369-9.414 8.954-9.41 11.588-13.827 14.671-24.608 2.098-7.337 4.2-32.146 3.295-38.892-.295-2.203-.024-5.909.603-8.236 1.008-3.744 1.473-4.23 4.05-4.23 2.118 0 3.596.899 5.43 3.304 3.027 3.968 3.21 6.087 1.695 19.696-.643 5.775-1.617 14.72-2.164 19.877l-.995 9.378 3.958 5.122c4.731 6.122 8.86 10.11 15.588 15.052 14.713 10.81 16.96 13.412 12.918 14.964-1.94.744-1.948.744-2.674.018zm-50.216-43.727c-3.567-5.444-4.749-15.279-1.965-16.347 3.301-1.267 6.019 1.251 7.347 6.807 1.747 7.308 1.205 11.268-1.597 11.667-1.437.204-2.734-.525-3.785-2.127zm23.493-2.96c.011-.673 3.611-5.7 8-11.169 4.388-5.47 7.979-10.307 7.979-10.75 0-.443 1.107-.805 2.46-.805 4.566 0 9.143 7.363 6.532 10.509-1.294 1.559-17.529 10.608-22.242 12.397-2.073.787-2.745.742-2.73-.181z" fill="#a55357"/><path d="M59.485 444.386C31.498 439.145 9.578 419.028 2.24 391.85.6 385.777.485 374.656.485 222.85c0-153.98.095-162.841 1.816-169C9.161 29.303 26.648 11.66 52.01 3.697l7.475-2.347h241l8.76 3.134c11.151 3.99 18.406 8.32 26.577 15.866 8.28 7.645 15.396 18.51 18.907 28.869l2.756 8.13.264 162.744c.295 181.208.692 170.064-6.596 185.257-8.816 18.378-25.006 31.604-46.668 38.123-5.618 1.69-13.4 1.819-122 2.015-92.161.166-117.439-.06-123-1.102zm242.876-4.505c24.017-6.142 43.552-25.19 50.287-49.031 1.748-6.185 1.837-14.31 1.837-167.5 0-180.201.574-165.77-7.228-181.5-2.83-5.707-5.878-9.66-12.746-16.532-9.965-9.971-17.7-14.688-30.543-18.627l-7.483-2.295-112-.329c-80.12-.235-114.264 0-119.952.811C48.056 7.24 34.33 14.15 22.985 25.795c-7.555 7.754-12.07 14.953-15.821 25.22l-2.68 7.335-.28 161.5c-.314 180.27-.748 168.433 6.733 183.646 8.86 18.017 25.122 31.12 45.048 36.295 7.217 1.875 11.854 1.95 123.09 2.003 111.797.053 115.842-.01 123.286-1.913zm-139.998-45.184c-32.737-21.412-70.208-33.33-110.369-35.105-11.773-.52-5.297-6.02 12.61-10.71 18.656-4.887 44.937-4.977 41.95-.144-.378.611-2.497 1.112-4.708 1.112-5.7 0-23.095 2.093-24.734 2.977-.774.417 1.77 1.05 5.832 1.45 8.645.852 30.903 6.225 44.04 10.631 11.907 3.994 29.63 12.312 38.628 18.13l6.873 4.443 6.5-4.404c9.36-6.343 34.744-18.566 47.101-22.68 9.808-3.266 30.626-7.547 36.698-7.547 3.865 0 1.833-1.341-8.3-5.477-13.883-5.668-15.124-8.14-3.951-7.869 7.182.175 15.995 2.818 28.406 8.52 9.358 4.3 12.046 6.28 12.046 8.874 0 2.46-1.95 2.969-15.5 4.038-41.022 3.237-68.788 12.884-93.794 32.585-4.417 3.48-8.801 6.329-9.74 6.329-.94 0-5.255-2.32-9.588-5.153zm6.534-18.694c-17.289-12.287-29.706-17.794-45.612-20.229l-8.18-1.252-.553-3.586c-.751-4.87-5.567-49.487-5.567-51.576 0-1.322-.604-1.537-2.905-1.031-1.749.384-3.184.187-3.605-.495-1.767-2.86 10.999-11.038 20.364-13.047 4.229-.907 7.742-.73 19.53.979 22.341 3.238 28.149 2.868 54.216-3.46 24.579-5.966 32.458-6.167 50.686-1.298 13.287 3.55 16.024 8.339 4.391 7.684l-6.09-.342-4.683 29.805c-2.575 16.393-4.844 29.918-5.043 30.056-.199.137-5.761 1.997-12.361 4.132-16.085 5.203-25 9.856-37.291 19.463-5.66 4.424-10.65 8.044-11.088 8.044-.437 0-3.231-1.731-6.209-3.847zm7.629-6.22c1.01-1.633-2.747-4.007-4.3-2.718-.952.79-.984 1.389-.131 2.417 1.356 1.634 3.516 1.78 4.43.301zm-11.013-9.902c-2.152-2.378-3.832-2.576-5.439-.64-.915 1.104-.577 1.819 1.628 3.44 2.396 1.762 2.982 1.85 4.216.639 1.243-1.221 1.19-1.678-.405-3.44zm22.389-2.755c-3.4-2.86-3.714-2.845-7.036.337l-2.728 2.614 2.609 2.245 2.61 2.244 3.625-2.581 3.626-2.582-2.706-2.277zm-33.746-1.931c2.413-2.184 2.316-2.796-.766-4.816-2.494-1.633-2.689-1.612-5 .56-1.323 1.242-2.405 2.593-2.405 3.002 0 .59 3.886 2.448 5.921 2.83.232.043 1.244-.666 2.25-1.576zm21.927-7.435c-2.876-2.367-3.833-2.149-6.537 1.485l-2.061 2.77 2.427 1.97 2.427 1.972 3.073-3.11 3.073-3.112-2.402-1.975zm27.86-2.472c.038-.971-5.203-5.438-6.382-5.438-.277 0-2.316 1.912-4.532 4.25l-4.027 4.25 3.741 3.213 3.742 3.213 3.707-4.213c2.04-2.317 3.727-4.691 3.75-5.275zm-62.097-3.688c-4.031-3.374-4.22-3.379-6.336-.149-1.659 2.532-1.63 2.68 1.076 5.504l2.78 2.903 2.883-2.754 2.882-2.754-3.285-2.75zm22.697 2.189l2.932-3.06-2.495-1.918c-3.218-2.472-3.116-2.49-6.553 1.1l-2.933 3.06 2.495 1.917c3.218 2.472 3.116 2.49 6.554-1.1zm64.954-1.118c.32-.32-1.284-1.951-3.562-3.627l-4.142-3.046-2.904 3.308c-3.165 3.605-3.457 4.591-1.834 6.214.76.76 2.633.586 6.466-.6 2.968-.918 5.657-1.93 5.976-2.25zm-42.048-3.343l3.705-4.521-2.335-1.954-2.334-1.954-4.33 4.501-4.329 4.5 2.33 1.942c1.28 1.068 2.612 1.956 2.958 1.974.346.018 2.297-2.001 4.335-4.488zm-58.118-7.183l-2.792-2.226-2.348 2.206-2.348 2.206 2.694 2.318 2.695 2.317 2.445-2.297 2.446-2.298-2.792-2.226zm83.065 3.628c1.424-1.692 2.589-3.462 2.589-3.932 0-.84-5.285-4.991-6.354-4.991-.3 0-1.788 1.63-3.309 3.624l-2.764 3.624 2.963 2.37c1.63 1.305 3.261 2.374 3.625 2.377.363 0 1.826-1.38 3.25-3.072zm-59.017-1.255l2.106-2.831-2.884-2.486-2.883-2.485-3.376 3.272-3.376 3.272 2.76 2.273c3.412 2.812 4.959 2.607 7.653-1.015zm22.814-3.371c2.085-2.037 3.792-3.977 3.792-4.312 0-.335-1.284-1.559-2.854-2.72l-2.854-2.109-3.802 4.55-3.803 4.549 2.406 1.85c1.324 1.018 2.613 1.86 2.865 1.872.251.012 2.164-1.644 4.25-3.68zm55.803.953c.006-.963.291-3.55.634-5.75l.624-4-3.486 3.96-3.486 3.96 2.101 1.756c2.683 2.243 3.599 2.261 3.613.073zm-90.687-11.972l-2.787-2.222-3.326 3.222-3.327 3.222 2.692 2.316 2.69 2.317 3.423-3.317 3.422-3.316-2.787-2.222zm58.531 5.37l3.248-3.35-2.658-1.742c-2.627-1.722-2.699-1.703-6.105 1.598l-3.447 3.34 2.164 1.753c2.87 2.324 3.034 2.285 6.798-1.599zm-34.944-3.79l3.41-4.107-2.41-1.854c-1.326-1.019-2.657-1.863-2.958-1.875-.301-.012-2.247 1.718-4.325 3.846l-3.778 3.869 2.71 2.131c1.49 1.172 2.986 2.123 3.325 2.114.338-.01 2.15-1.866 4.026-4.125zm58.751.518l2.764-3.625-2.963-2.394-2.963-2.395-3.37 3.635-3.37 3.636 2.87 2.347c1.578 1.291 3.184 2.364 3.569 2.384.384.02 1.943-1.595 3.463-3.588zm-35.467-4.064c3.318-3.179 3.488-4.405.838-6.06-2.516-1.57-6.469-.176-8.091 2.856-1.017 1.899-.852 2.456 1.189 4.025 3.007 2.313 2.758 2.347 6.064-.82zm-58.267-7.224c-2.482-2.067-5.49-2.428-9.928-1.194-3.59.999-3.087 3.46 1.44 7.059l3.942 3.131 3.487-3.487 3.488-3.488-2.429-2.021zm22 3.277c2.769-3.521 2.635-4.05-1.178-4.652-2.32-.367-3.8.016-5.173 1.336-1.893 1.823-1.886 1.88.5 3.867 3.129 2.605 3.387 2.58 5.85-.551zm60.143-6.476l-2.428-2-3.572 3.595-3.571 3.594 2.5 1.922 2.5 1.92 3.5-3.516 3.5-3.516-2.429-2zm21.86 2.206c1.138-1.597 2.069-4.072 2.069-5.5 0-3.705-3.55-3.424-7.712.61l-3.307 3.205 2.76 2.259c3.542 2.9 3.73 2.883 6.19-.574zm-36.431-2.095c.34-.55.141-1-.441-1-.583 0-1.06.45-1.06 1s.2 1 .442 1 .719-.45 1.059-1zm-5-6.423c16.92-6.488 26.014-8.231 36.475-6.992 8.847 1.047 8.746 1.092 9.24-4.082l.285-2.996-8-.864c-10.76-1.161-20.834.367-36.405 5.52-12.318 4.078-12.881 4.167-25.595 4.056-7.15-.062-16.375-.613-20.5-1.224-11.955-1.77-27.161-2.321-30.297-1.1-2.574 1.004-2.743 1.39-2.119 4.848.939 5.2.974 5.227 5.174 3.978 6.862-2.04 24.58-1.262 37.242 1.637 14.909 3.413 19.264 3.061 34.5-2.78zm28.5.923c1.063-1.281.77-1.5-2-1.5-2.771 0-3.063.219-2 1.5.684.825 1.584 1.5 2 1.5.415 0 1.315-.675 2-1.5zm-62.686-22.45c-3.985-2.43-5.315-4.869-5.31-9.735.007-7.97 7.36-14.245 16.746-14.293 3.824-.02 4.25-.265 4.25-2.446 0-2.897 4.133-8.077 8.07-10.112 1.556-.806 4.661-1.464 6.9-1.464 3.816 0 4.03-.152 3.454-2.447-.886-3.53 1.258-9.108 4.571-11.896 8.549-7.193 21.65-1.214 21.412 9.773-.158 7.308-5.65 12.551-13.157 12.563-4.154.01-4.25.083-4.25 3.359 0 6.733-7.405 13.642-14.625 13.646-2.691 0-3.211.43-3.742 3.086-.87 4.354-4.018 8.396-8.015 10.292-4.715 2.238-12.35 2.084-16.304-.327zm-42.814-7.087c-20.84-5.641-32.065-7.603-47-8.217-5.707-.234-6.016-.379-6.312-2.953-.267-2.308.616-3.39 6-7.358 18.246-13.446 39.487-17.86 59.701-12.405 9.192 2.48 21.467 8.875 21.962 11.44.194 1.003-.539 3.445-1.628 5.426-2.847 5.182-4.585 11.002-4.659 15.604-.06 3.715-.278 4.014-3.064 4.208-1.65.115-12.9-2.47-25-5.745zm21.023-3.213c.253-.688 1.074-4.537 1.825-8.554l1.363-7.303-3.816-1.947c-2.098-1.07-4.263-1.946-4.81-1.946-1.064 0-1.64 2.834-2.583 12.71l-.592 6.209 3.295.95c4.531 1.307 4.795 1.3 5.318-.12zm-15.058-13.114c.903-4.874 1.505-8.986 1.338-9.137-.167-.15-2.666-.591-5.553-.98l-5.25-.707v8.971c0 5.97.418 9.311 1.25 9.986 1.594 1.295 5.05 2.06 5.912 1.308.364-.318 1.4-4.566 2.303-9.44zm-18.101.724c1.465-10.687 1.162-11.19-5.614-9.308-4.044 1.123-4.313 1.911-3.117 9.143.615 3.724.756 3.818 6.98 4.655.614.082 1.401-1.938 1.75-4.49zm-16.364-1.86c0-1.925-.338-3.496-.75-3.491-1.042.013-11.25 5.92-11.25 6.51 0 .265 2.7.48 6 .48h6v-3.5zm217 11.898c-21.501-5.395-43.394-6.898-55.664-3.82-9.492 2.38-9.265 2.614-9.789-10.078-.777-18.834-4.574-33.446-10.585-40.732-3.847-4.664-21.34-16.437-33.367-22.455-5.002-2.504-12.16-6.334-15.904-8.511-6.008-3.494-6.773-4.274-6.5-6.631l.309-2.671 17-.61c9.35-.336 24.227-.965 33.06-1.4 11.898-.584 17.857-.45 23 .518 17.572 3.308 28.752 20.418 24.919 38.138-1.836 8.484-10.945 21.18-20.334 28.34-4.359 3.325-5.145 4.428-5.145 7.219 0 1.812.2 3.295.443 3.295.244 0 4.617-1.399 9.718-3.108 8.368-2.804 10.208-3.069 18.807-2.713 8.253.341 10.259.792 14.95 3.357 5.972 3.265 15.453 12.235 20.152 19.066 3.305 4.804 3.187 4.868-5.07 2.796zM251.149 226.1c3.57-3.713 7.655-8.775 9.077-11.25 2.46-4.286 5.098-11.995 4.356-12.736-.272-.273-14.065 15.183-21.182 23.736-1.247 1.498-.825 7 .537 7 .396 0 3.641-3.038 7.212-6.75zm9.744-36.422c-.521-.974-2.597-3.372-4.612-5.33-2.922-2.837-3.901-3.299-4.83-2.278-2.12 2.327-16.466 25.66-16.466 26.78 0 .605.743 2.536 1.651 4.293l1.652 3.193 11.776-12.444c9.676-10.225 11.607-12.76 10.829-14.214zm-26.925-.927c4.484-6.104 7.952-11.3 7.706-11.545-.246-.246-3.089-.54-6.318-.652l-5.871-.204-4.83 9.976-4.83 9.976 2.19 1.774c1.205.975 2.553 1.774 2.996 1.774.442 0 4.473-4.995 8.957-11.099zm-18.998-3.873c1.658-3.284 3.015-6.438 3.015-7.009 0-1.09-10.943-.316-12.129.858-.346.343-.928 2.305-1.293 4.361-.614 3.455-.415 3.89 2.629 5.746 1.81 1.105 3.624 2.01 4.028 2.012.405 0 2.092-2.684 3.75-5.968zm-17.985-4.028c1.002-1.873.765-1.998-3.715-1.959l-4.785.042 3.5 1.917c1.925 1.054 3.596 1.935 3.715 1.958.118.023.696-.858 1.285-1.958zm117 59.346c-.825-.328-2.716-1.728-4.202-3.112-9.46-8.81 2.359-22.859 14.117-16.778 3.623 1.873 6.27 7.365 5.473 11.354-1.202 6.008-9.779 10.766-15.388 8.536zm-225.45-8.265c-1.627-2.632.984-6.794 9.755-15.555 7.24-7.232 10.884-10.017 17.143-13.105 7.346-3.624 8.56-3.914 16-3.83 12.292.142 26.707 5.475 49.308 18.244 8.123 4.59 10.51 7.298 8.343 9.465-.7.7-7.54 1.17-18.849 1.296-10.272.114-22.385.89-28.75 1.842-14.418 2.156-51.914 3.32-52.95 1.643zm20.307-5.972c1.268-.803.91-5.916-.592-8.453-.524-.886-9.265 7.182-9.265 8.552 0 1.065 8.148.984 9.857-.1zm21.937-1.6c.162-.146-.063-4.258-.501-9.137l-.797-8.872-2.913.313c-3.4.366-10.583 3.829-10.583 5.102 0 .48.93 3.884 2.066 7.564l2.066 6.69 5.184-.698c2.851-.384 5.316-.817 5.478-.962zm21.084-3.357c.464-.909 1.1-3.32 1.412-5.357l.57-3.704-5.39-2.017c-7.261-2.717-10.472-3.463-10.463-2.433.012 1.347 2.008 13.744 2.393 14.859.585 1.696 10.519.53 11.478-1.348zm20.122.364c0-.499-9.52-5.516-10.467-5.516-.293 0-.533 1.35-.533 3 0 2.97.055 3 5.5 3 3.025 0 5.5-.218 5.5-.484zm-99.667 6.386c-4.455-1.29-8.333-6.213-8.333-10.58 0-2.673.82-4.342 3.4-6.922 3.071-3.072 3.95-3.4 9.1-3.4 5.149 0 6.028.328 9.1 3.4 4.318 4.318 4.609 9.009.835 13.494-2.081 2.474-8.164 5.394-10.435 5.01-.275-.046-1.925-.497-3.667-1.002zm202.121-3.357c-3.322-3.322-3.39-9.318-.14-12.371 3.376-3.171 8.93-2.951 11.613.46 6.45 8.2-4.164 19.22-11.473 11.911zm-86.239-8.476c-5.537-5.043-18.477-11.689-36.26-18.622-18.361-7.158-22.444-9.283-28.78-14.98-3.82-3.434-6.283-6.9-9.121-12.836-8.926-18.666-7.505-31.319 4.901-43.636 6.321-6.274 13.742-10.604 19.852-11.58 3.844-.615 4.193-.49 4.193 1.503 0 1.399-1.106 2.782-3.1 3.878-1.705.937-4.968 3.054-7.25 4.704l-4.15 3 8 .599c4.4.33 8.164.465 8.366.3.2-.164.67-1.783 1.04-3.599.573-2.8 1.106-3.3 3.511-3.3h2.835l.221 14.5c.418 27.407 5.865 38.258 34 67.736 11.971 12.542 13.558 15.522 8.518 16-1.706.16-3.842-.995-6.776-3.667zm-20.876-22.32c-1.68-1.787-4.98-5.848-7.334-9.023-4.76-6.419-4.655-6.403-13.355-2.03-2.667 1.341-4.554 2.733-4.194 3.093.558.558 26.212 10.96 27.49 11.145.245.036-.928-1.397-2.607-3.184zm-24.84-17.776c4.95-1.828 9.167-3.448 9.37-3.602.501-.376-.649-4.561-1.691-6.156-.65-.996-3.408-.28-12.234 3.176-6.268 2.454-11.54 4.895-11.717 5.425-.42 1.26 4.82 5.373 6.205 4.87.587-.214 5.118-1.885 10.068-3.713zm-7.711-15.036c12.559-2.95 13.252-3.24 12.626-5.28-.365-1.186-.796-2.309-.959-2.494-.617-.703-30.455 2.232-30.455 2.995 0 2.283 3.325 8.66 4.333 8.308.642-.224 7.146-1.812 14.455-3.529zm10.212-19.937v-5h-24.96l-2.02 3.96c-1.111 2.178-2.02 4.428-2.02 5 0 .672 5.13 1.04 14.5 1.04h14.5v-5zm149.388 77.066c-3.278-1.397-6.388-6.011-6.388-9.479 0-6.561 6.64-11.354 13.214-9.539 4.574 1.263 6.835 3.902 7.483 8.732.447 3.333.09 4.423-2.335 7.112-3.077 3.416-8.213 4.777-11.974 3.174zM43.485 207.438c-9.957-4.425-10.525-16.83-.893-19.49 5.048-1.394 8.97-.363 12.97 3.41 2.787 2.628 3.423 3.97 3.423 7.223 0 4.75-3.318 8.682-8.14 9.646-3.925.785-3.783.8-7.36-.79zm53.888-2.53c-6.34-2.676-8.568-12.415-3.974-17.372 6.635-7.16 17.586-2.835 17.586 6.944 0 7.405-7.38 13.057-13.612 10.427zm-24.888-5.61c-5.08-2.69-7.142-7.976-5.058-12.964 4.91-11.75 22.094-6.085 18.964 6.253-1.567 6.175-8.552 9.546-13.906 6.71zm206.857-.418c-5.402-2.235-6.906-9.119-2.987-13.675 4.85-5.638 14.63-2.12 14.63 5.263 0 5.939-6.416 10.574-11.643 8.412zm28.095-1.436c-4.252-1.852-6.452-5.657-6.452-11.16 0-3.937.511-5.146 3.4-8.034 10.062-10.063 24.891 3.348 17.007 15.38-1.511 2.307-6.999 5.26-9.625 5.18-.705-.022-2.654-.636-4.33-1.366zM49.341 177.538c-3.032-2.78-3.693-4.14-4.108-8.455-.453-4.711-.239-5.397 2.552-8.188 4.44-4.44 9.323-4.255 13.832.526 4.904 5.2 5.04 12.324.318 16.679-4.124 3.803-8.02 3.63-12.594-.562zm231.754-1.084c-4.845-2.685-6.434-9.144-3.6-14.624 1.899-3.672 4.316-4.98 9.201-4.98 4.774 0 8.066 2.223 9.944 6.716 3.845 9.204-6.586 17.854-15.545 12.888zm-202.076-8.315c-9.927-5.125-9.678-20.742.41-25.701 3.532-1.737 4.26-1.783 7.94-.5 7.693 2.681 11.246 11.437 7.801 19.225-3.269 7.39-9.846 10.23-16.151 6.976zm132.926-29.54c-.544-1.237-1.85-3.6-2.902-5.25-2.703-4.241-2.538-4.6 1.798-3.906 3.451.551 3.922.369 4.486-1.739.347-1.295.637-6.613.644-11.817l.014-9.462-4.75 4.655c-2.613 2.56-7 5.673-9.75 6.919-2.75 1.245-5.338 2.433-5.75 2.64-2.754 1.383 4.009-9.07 12.804-19.79 3.384-4.124 6.681-8.506 7.327-9.735 1.115-2.124 1.044-2.186-1.419-1.25-6.12 2.327-11.709.033-14.149-5.806-1.87-4.479-1.04-5.315 8.155-8.198l7.532-2.363V69.75c0-2.561-.81-4.71-2.56-6.79-5.369-6.38-4.923-12.11.943-12.11 1.806 0 5.821-.51 8.923-1.133 4.842-.972 5.997-.898 8.167.523 4.634 3.036 2.658 10.47-3.4 12.793-.454.174-.602 1.799-.33 3.61.282 1.87.985 3.116 1.627 2.882.621-.225 2.367.302 3.88 1.173 2.232 1.285 2.75 2.291 2.75 5.347 0 3.384-.404 3.97-4 5.805-3.617 1.845-4 2.408-4 5.875 0 3.47.31 3.924 3.25 4.766 3.81 1.09 6.244 5.254 5.29 9.052-.587 2.34-.959 2.495-4.59 1.915l-3.95-.632v12.777c0 15.005-1.146 18.168-8.118 22.418-5.453 3.324-6.675 3.413-7.922.579zm79.04-.678c-3.024-1.643-8.898-2.152-10.84-.94-3.98 2.487-12.727-3.99-19.826-14.683l-3.586-5.401-2.817 3.889c-3.299 4.553-9.39 8.946-18.155 13.093-6.124 2.897-9.794 3.732-9.759 2.22.01-.412 3.581-4.316 7.937-8.675 9.027-9.035 12.027-13.951 14.997-24.578 2.245-8.031 4.268-32.137 3.36-40.027-.657-5.708 1.71-11.97 4.527-11.97 5.063 0 9.554 8.259 8.091 14.878-.44 1.993-1.29 9.698-1.89 17.123-.598 7.425-1.47 15.142-1.936 17.15-.826 3.559-.658 3.857 6.693 11.846 4.148 4.507 10.953 10.588 15.123 13.512 4.17 2.924 8.68 6.49 10.024 7.925 2.127 2.27 2.257 2.792 1 4.03-.892.88-2.016 1.112-2.943.608zm-49.732-43.288c-4.531-4.826-5.531-16.783-1.404-16.783 3.73 0 7.601 8.334 6.967 15.002-.404 4.25-2.59 4.95-5.563 1.781zm22.732-2.705c0-.52 2.812-4.414 6.25-8.652 3.437-4.237 7.269-9.217 8.514-11.065 3.366-4.996 6.732-4.206 10.137 2.378.929 1.797.838 2.73-.461 4.711-.89 1.36-2.519 2.757-3.618 3.106-1.1.35-4.547 2.147-7.661 3.996-7.118 4.225-13.161 6.763-13.161 5.526z" fill="#696e68"/><path d="M63.485 445.135c-23.85-3.298-46.037-19.063-55.992-39.785-7.577-15.774-7.008-.993-7.008-182 0-182.104-.65-166.513 7.654-183.455 3.323-6.776 5.852-10.15 12.745-17 9.827-9.764 16.399-13.96 28.84-18.41l8.76-3.135h240l7.5 2.341c20.945 6.54 35.74 18.905 45.06 37.659 7.313 14.712 6.904 3.957 6.923 182.09.017 156.614-.026 160.261-1.975 168-5.548 22.02-22.496 40.989-43.872 49.105-13.907 5.28-12.966 5.244-133.635 5.12-61.6-.063-113.35-.302-115-.53zm239.09-5.291c24.765-6.28 43.553-24.635 50.15-48.994 1.646-6.08 1.76-16.963 1.76-168 0-153.677-.09-161.815-1.837-168-5.995-21.22-22.004-38.52-42.604-46.038-13.833-5.049-15.242-5.098-136.06-4.745l-112.5.329-7.483 2.295c-12.532 3.843-20.6 8.71-30.076 18.14-9.797 9.75-14.817 18.308-17.968 30.628-1.923 7.517-1.972 11.709-1.955 167.3.02 178.141-.436 166.582 7.18 182.026 8.148 16.526 25.23 30.123 44.032 35.05 6.943 1.818 12.51 1.907 123.36 1.96 113.004.053 116.301 0 124-1.951zm-142.09-46.546c-30.471-19.604-65.206-30.91-102-33.201-9.593-.598-12-1.044-12-2.228 0-6.362 40.688-15.31 55.026-12.101 6.413 1.435 6.885 3.45.896 3.831-8.852.564-23.994 2.471-25.265 3.182-.803.45 1.187 1.029 4.855 1.412 16.165 1.69 47.262 10.634 64.142 18.449 7.357 3.406 15.983 8.273 23.846 13.453 2.432 1.603 2.686 1.524 9.405-2.931 8.083-5.36 28.693-15.81 40.034-20.301 9.592-3.797 25.15-7.645 37.726-9.33l9.27-1.241-11.245-4.86c-11.048-4.775-13.06-6.045-11.715-7.39 1.505-1.506 13.625-.208 20.917 2.24 11.45 3.843 25.323 11.096 26.138 13.664.917 2.89-.606 3.672-8.498 4.363-13.75 1.205-32.382 3.594-39.802 5.104-20.803 4.232-42.176 13.886-58.994 26.648-5.645 4.284-10.82 7.762-11.5 7.73-.68-.034-5.736-2.955-11.236-6.493zm5.682-19.376c-16.574-11.476-29.242-16.676-45.32-18.6-6.663-.798-5.506 3.258-9.467-33.166-2.53-23.274-2.873-25.121-4.495-24.253-1.857.994-4.9.307-4.9-1.105 0-1.92 11.904-9.166 18.195-11.076l6.77-2.057 15.767 2.207c21.43 3 30.174 2.432 54.268-3.523 21.586-5.335 30.012-5.835 44.605-2.643 16.961 3.71 22.898 8.644 10.401 8.644h-6.493l-4.681 29.84c-2.575 16.414-4.828 29.93-5.007 30.036-.179.107-4.375 1.463-9.325 3.015-20.38 6.387-29.65 11.236-43.877 22.947-3.783 3.114-7.158 5.624-7.5 5.578-.343-.046-4.366-2.676-8.94-5.844zm10.604-3.259c.915-.915.811-1.6-.455-3-3.127-3.455-6.6-1.07-3.546 2.437 1.8 2.065 2.413 2.151 4.001.563zm-11.42-11.502c-2.59-2.065-2.93-2.11-4.582-.616-2.36 2.135-2.272 2.545.96 4.507 2.56 1.552 2.869 1.552 4.582 0 1.77-1.602 1.735-1.744-.96-3.894zm23.467 1.9l2.334-1.846-3.666-2.797-3.666-2.796-2.874 3.364-2.873 3.364 2.642 2.185c2.777 2.298 3.5 2.166 8.103-1.474zm-33.733-6.398c1.021-1.909.808-2.475-1.678-4.457l-2.848-2.271-2.674 3.203-2.675 3.204 2.638 1.172c4.007 1.782 5.95 1.554 7.237-.851zm20.42-1.834l2.893-3.02-2.495-2.496-2.495-2.495-3.37 3.477-3.37 3.477 2.408 2.006c3.106 2.585 3.032 2.596 6.428-.949zm25.728-10.75l-3.748-3.269-4.25 4.617c-2.338 2.539-4.234 4.91-4.214 5.27.02.359 1.708 1.924 3.75 3.478l3.714 2.825 4.248-4.825 4.248-4.825-3.748-3.27zM142.5 347.1c1.331-1.512 2.432-2.974 2.445-3.25.014-.274-1.573-1.588-3.527-2.918l-3.551-2.42-2.692 2.72-2.691 2.717 3.5 2.924c1.925 1.608 3.634 2.936 3.798 2.95.164.016 1.387-1.21 2.718-2.722zm22.053-2.752c2.238-2.934 2.463-3.754 1.383-5.054-3.041-3.665-4.71-3.627-7.608.171l-2.765 3.627 2.766 2.379c1.521 1.309 2.943 2.38 3.16 2.38.216 0 1.595-1.577 3.064-3.503zm61.374.028c1.894-.653 3.576-1.602 3.737-2.107.235-.738-5.009-4.908-7.812-6.213-.347-.161-2.09 1.549-3.873 3.8-3.109 3.926-3.165 4.151-1.369 5.503 1.858 1.398 2.664 1.313 9.317-.983zm-103.943-.026c0-.825-.436-1.5-.969-1.5-.533 0-.71.675-.393 1.5.317.825.753 1.5.969 1.5.216 0 .393-.675.393-1.5zm65.875-4.873l4.291-4.372-3.16-2.25c-1.738-1.238-3.464-1.858-3.836-1.378-.372.48-2.25 2.586-4.173 4.68l-3.497 3.806 2.5 1.921c1.375 1.057 2.744 1.932 3.041 1.944.298.012 2.473-1.946 4.834-4.35zm28.083-7.795c.023-.368-1.566-1.662-3.53-2.876l-3.573-2.208-3.427 3.322c-1.886 1.827-3.428 3.612-3.428 3.967 0 .354 1.656 1.822 3.68 3.262l3.68 2.618 3.278-3.708c1.803-2.04 3.297-4.01 3.32-4.377zm-85.787 5.513c2.382-2.155 2.306-3.126-.421-5.401-2.892-2.413-4.027-2.4-6.26.067-1.766 1.952-1.751 2.083.52 4.5 2.751 2.929 3.704 3.058 6.161.834zm25.829-5.353c0-.339-1.394-1.646-3.098-2.906l-3.097-2.29-3.47 3.352-3.47 3.352 3.274 2.746 3.275 2.745 3.293-3.191c1.81-1.756 3.293-3.47 3.293-3.808zm21.665-7.738l-3.07-2.265-3.797 3.708c-2.09 2.04-3.798 4.26-3.798 4.934 0 .673 1.202 2.17 2.67 3.325l2.672 2.1 4.196-4.768 4.197-4.77-3.07-2.264zm54.693 5.996c1.257-7.608.869-8.101-2.963-3.76l-3.522 3.99 2.174 1.76c3.077 2.491 3.61 2.245 4.31-1.99zm-31.865-10.01l-2.83-2.434-3.298 3.847-3.298 3.847 2.662 2.37 2.662 2.37 3.466-3.782 3.467-3.782-2.83-2.435zm-59.796 5.569l3.292-3.191-2.169-2.309c-2.873-3.059-3.829-2.927-7.692 1.058l-3.263 3.368 2.817 2.1c1.55 1.156 3.021 2.116 3.27 2.133.249.017 1.934-1.404 3.745-3.159zm-20.593-1.105c-1.284-1.284-2.586-.292-1.635 1.246.368.595 1.127.8 1.687.454.683-.423.666-.982-.052-1.7zm45.806-9.27l-3.314-2.445-3.798 3.708c-2.09 2.04-3.798 4.09-3.798 4.554 0 .465 1.237 1.939 2.75 3.275l2.75 2.43 4.362-4.539 4.362-4.538-3.314-2.445zm58.044 6.965l3.161-3.6-3.274-2.416-3.275-2.416-3.533 3.576-3.533 3.576 3 2.436c1.65 1.34 3.29 2.437 3.646 2.44.356 0 2.07-1.615 3.808-3.596zm-33.735-9.705c-1.988-2.201-5.653-1.541-9.05 1.63l-2.332 2.176 3.166 2.643 3.165 2.644 3.342-3.644c3.125-3.406 3.236-3.76 1.71-5.45zm-60.338 3.929l3.273-3.377-2.982-2.123c-1.64-1.168-4.12-2.123-5.512-2.123-3.714 0-7.66 1.74-7.66 3.378 0 1.519 6.778 7.532 8.554 7.589.58.018 2.526-1.487 4.327-3.344zm22.514-2.513c3.03-3.163 2.823-3.538-2.478-4.492-2.798-.504-3.958-.23-5.302 1.255-1.64 1.811-1.594 1.998.967 4.014 3.417 2.687 3.503 2.677 6.813-.777zm59.297-.877l3.027-3.766-2.298-1.734c-3.208-2.42-3.945-2.224-7.08 1.887l-2.762 3.62 2.321 1.88c3.103 2.513 3.3 2.458 6.792-1.887zm22.015-2.483c1.13-1.237 2.256-3.712 2.5-5.5.42-3.059.265-3.25-2.63-3.25-2.307 0-3.763.86-5.818 3.435l-2.74 3.435 2.625 2.065c3.278 2.579 3.545 2.57 6.063-.185zm-36.207-2.75c.34-.55.141-1-.441-1-.583 0-1.06.45-1.06 1s.2 1 .442 1 .719-.45 1.059-1zm-3.325-6.828c16.498-6.243 25.333-7.828 35.825-6.427 4.125.55 7.55.946 7.61.878.062-.068.395-1.978.742-4.245l.63-4.121-8.976-.702c-11.917-.933-18.103-.07-32.864 4.586-6.797 2.143-15.347 4.32-19 4.836-7.061.998-26.16-.05-37.778-2.074-6.371-1.11-23.708-.892-24.913.312-.33.331-.287 2.695.096 5.253.53 3.528 1.054 4.515 2.173 4.086 3.977-1.526 16.404-2.698 22.235-2.098 3.6.371 11.495 1.748 17.545 3.06 15.5 3.36 20.063 2.943 36.675-3.344zm27.186 1.328c.435-1.134-.178-1.5-2.515-1.5-2.634 0-2.907.222-1.846 1.5.684.825 1.816 1.5 2.515 1.5.699 0 1.53-.675 1.846-1.5zM158.3 279.9c-3.985-2.43-5.315-4.868-5.31-9.734.007-7.97 7.36-14.245 16.746-14.294 3.824-.02 4.25-.264 4.25-2.445 0-2.897 4.133-8.078 8.07-10.113 1.556-.805 4.661-1.464 6.9-1.464 3.816 0 4.03-.151 3.454-2.447-.886-3.529 1.258-9.107 4.571-11.895 8.549-7.194 21.65-1.215 21.412 9.772-.158 7.308-5.65 12.552-13.157 12.564-4.154.01-4.25.083-4.25 3.358 0 6.733-7.405 13.643-14.625 13.647-2.691 0-3.211.43-3.742 3.085-.87 4.354-4.018 8.397-8.015 10.293-4.715 2.237-12.35 2.084-16.304-.327zm-38.314-6.107c-26.546-7.103-30.37-7.847-44.652-8.688-11.319-.666-12.867-.971-13.177-2.594-.452-2.36 2.822-5.855 10.199-10.891 19.127-13.058 44.377-15.49 65.2-6.281 7.518 3.325 12.43 7.103 12.43 9.562 0 1.072-.405 1.95-.899 1.95-1.474 0-6.08 14.217-5.832 18 .203 3.083-.067 3.523-2.27 3.696-1.374.108-10.824-2.031-21-4.754zm17.56-8.452c2.729-12.357 2.888-11.3-2.059-13.702-2.451-1.192-4.74-1.884-5.083-1.54-.847.847-2.596 16.847-2.008 18.377.47 1.225 3.813 2.237 6.568 1.988.922-.083 1.895-2.014 2.581-5.123zm-16.128-8.042c.99-5.253 1.634-9.702 1.433-9.887-.2-.185-2.728-.654-5.615-1.043l-5.25-.707v9.51c0 9.466.013 9.516 2.75 10.516 1.512.552 3.23 1.04 3.816 1.083.587.043 1.876-4.219 2.866-9.472zm-18.068-.088c.35-2.552.636-5.984.636-7.628 0-2.945-.06-2.978-4.155-2.324-5.429.868-5.845 1.19-5.845 4.526 0 5.705 1.162 8.943 3.364 9.375 5.097.998 5.344.836 6-3.95zm-16.364-2.423v-4.062l-5.018 2.73c-8.07 4.393-8.275 5.395-1.105 5.395h6.123v-4.063zm221.873 13.603c-.252-.253-7.19-1.824-15.416-3.491-17.403-3.528-34.88-4.132-44.796-1.55-9.845 2.565-9.266 3.183-10.053-10.745-1.155-20.426-5.006-34.301-11.415-41.12-5.363-5.707-16.56-13.12-32.693-21.642-20.618-10.893-22.614-12.23-22.297-14.947l.297-2.545 17.5-.614c9.625-.338 24.317-.968 32.65-1.402 11.282-.586 17.085-.443 22.73.56 7.086 1.259 8.002 1.727 14.038 7.175 8.374 7.557 11.71 14.094 11.698 22.918-.016 11.645-5.23 21.15-18.22 33.218-7 6.502-7.896 7.739-7.896 10.883v3.548l7.75-3.104c6.99-2.8 8.828-3.108 18.75-3.143 9.793-.035 11.542.235 15.942 2.46 5.854 2.962 15.117 11.27 20.039 17.975 1.935 2.636 3.519 5.07 3.519 5.41 0 .718-1.457.826-2.127.156zm-53.234-46.482c2.402-3.057 5.21-7.358 6.24-9.558 2.33-4.979 3.682-10.873 2.378-10.369-.524.203-5.728 5.818-11.565 12.48-10.15 11.582-10.586 12.268-10.024 15.732l.588 3.622 4.007-3.174c2.205-1.746 5.974-5.676 8.376-8.733zm6.36-30.775c0-1.468-8.232-10.291-9.578-10.267-.507.01-4.839 6.318-9.627 14.018l-8.706 14 2.105 3.568 2.105 3.569 11.85-11.82c6.519-6.501 11.852-12.382 11.852-13.068zm-20-13.33c0-.878-5.202-1.953-9.452-1.953-3.064 0-3.403.42-7.876 9.75-2.571 5.362-4.674 10.208-4.673 10.768.001.56 1.216 1.755 2.7 2.656l2.7 1.638 8.3-11.078c4.566-6.093 8.302-11.395 8.302-11.781zm-26.77 6.797c1.79-3.438 3.419-6.616 3.617-7.062.409-.918-11.993.211-12.993 1.183-.356.346-.934 2.429-1.285 4.629-.578 3.626-.378 4.154 2.147 5.658 1.532.912 3.34 1.7 4.02 1.75.68.05 2.702-2.721 4.493-6.158zm-17.23-5.699c0-.311-2.118-.397-4.706-.191l-4.708.374 3.458 1.822c3.183 1.679 3.556 1.694 4.707.192.687-.897 1.25-1.885 1.25-2.197zm116 61.295c-.824-.328-2.715-1.728-4.2-3.112-9.461-8.81 2.358-22.859 14.116-16.778 3.623 1.873 6.27 7.365 5.473 11.354-1.202 6.008-9.779 10.766-15.388 8.536zM88.378 231.43c-1-2.608 1.372-6.185 9.66-14.561 9.09-9.19 17.475-14.488 26.415-16.695 6.219-1.534 7.177-1.528 14.84.104 9.733 2.073 23.761 7.743 36.216 14.64 12.246 6.78 15.283 9.294 13.923 11.527-.929 1.524-3.241 1.757-19.5 1.962-11.01.138-22.679.895-28.946 1.877-5.775.904-19.826 1.918-31.225 2.253-18.988.557-20.78.464-21.383-1.107zm20.23-5.177c1.954-.525 2.042-.901 1.1-4.737-.562-2.291-1.189-4.363-1.393-4.604-.482-.568-9.33 8.105-9.33 9.146 0 .91 6.47 1.04 9.623.195zm22.155-1.847c.172-.172.003-4.418-.376-9.435-.493-6.537-1.062-9.121-2.007-9.121-.726 0-3.811.932-6.857 2.071-6.374 2.385-6.48 2.75-3.408 11.846l2.13 6.306 5.102-.677c2.806-.372 5.243-.818 5.416-.99zm20.592-2.605c.979-.89 2.661-9.093 2.064-10.06-.56-.906-14.408-5.25-14.964-4.694-.257.257.048 4.114.678 8.57l1.146 8.104 5.103-.565c2.807-.31 5.495-.92 5.973-1.355zm20.63-.743c0-.436-2.474-2.006-5.5-3.49l-5.5-2.697v6.979h5.5c3.026 0 5.5-.357 5.5-.792zm-99.666 6.694c-4.455-1.29-8.333-6.213-8.333-10.58 0-2.673.82-4.342 3.4-6.922 3.071-3.072 3.95-3.4 9.1-3.4 5.149 0 6.028.328 9.1 3.4 4.318 4.318 4.609 9.009.835 13.494-2.081 2.474-8.164 5.394-10.435 5.01-.275-.046-1.925-.497-3.667-1.002zm202.121-3.357c-3.322-3.322-3.39-9.318-.14-12.371 3.376-3.171 8.93-2.951 11.613.46 6.45 8.2-4.164 19.22-11.473 11.911zm-85.255-7.928c-4.97-4.997-15.919-10.836-33.7-17.97-20.842-8.363-23.105-9.441-29.155-13.889-9.977-7.335-17.622-22.555-17.71-35.258-.062-9.054 3.092-16.152 10.352-23.298 5.496-5.41 17.546-12.202 21.648-12.202 4.355 0 2.874 3.555-2.884 6.926-6.202 3.63-9.268 5.905-8.677 6.437.235.211 3.922.599 8.195.861 7.713.474 7.772.459 8.334-2.123.31-1.431.738-3.164.95-3.851.502-1.63 5.422-1.63 5.531 0 .046.687.023 6.2-.05 12.25-.107 8.774.371 12.977 2.364 20.77 4.586 17.938 10.001 26.127 32.363 48.944 8.14 8.307 11.3 12.185 10.86 13.332-.341.89-.62 1.805-.62 2.035 0 .23-1.013.404-2.25.387-1.238-.018-3.735-1.525-5.55-3.35zM167.05 193.1c-1.721-2.063-4.969-6.29-7.217-9.392l-4.089-5.641-6.63 3.041c-3.646 1.673-7.002 3.37-7.457 3.77-.676.594 24.803 11.521 27.675 11.869.466.056-.561-1.585-2.282-3.647zm-25.065-16.833c5.225-1.963 9.779-3.872 10.12-4.243.34-.371-.01-2.163-.777-3.983-1.611-3.816-.58-3.948-16.157 2.077l-10.314 3.989 2.751 2.871c1.513 1.58 3.23 2.868 3.814 2.864.584 0 5.338-1.613 10.563-3.575zm-9-14.905c16.012-3.66 15.19-3.327 14.417-5.843-.366-1.193-.8-2.322-.963-2.508-.164-.186-7.114.22-15.446.903-15.059 1.235-15.145 1.256-14.57 3.545 1.234 4.918 2.55 7.336 3.78 6.943.705-.226 6.457-1.593 12.782-3.04zm12.607-17.094c-.334-.87-.607-3.12-.607-5v-3.418h-12.477c-11.841 0-12.551.114-13.933 2.25-.8 1.237-1.76 3.487-2.131 5l-.676 2.75h15.215c13.464 0 15.146-.183 14.609-1.582zm148.78 73.648c-3.277-1.397-6.387-6.011-6.387-9.479 0-6.561 6.64-11.354 13.214-9.539 4.574 1.263 6.835 3.902 7.483 8.732.447 3.333.09 4.423-2.335 7.112-3.077 3.416-8.213 4.777-11.974 3.174zM43.486 207.438c-9.957-4.425-10.525-16.83-.893-19.49 5.048-1.394 8.97-.363 12.97 3.41 2.787 2.628 3.423 3.97 3.423 7.223 0 4.75-3.318 8.682-8.14 9.646-3.925.785-3.783.8-7.36-.79zm53.888-2.53c-6.34-2.676-8.568-12.415-3.974-17.372 6.635-7.16 17.586-2.835 17.586 6.944 0 7.405-7.38 13.057-13.612 10.427zm-24.888-5.61c-5.08-2.69-7.142-7.976-5.058-12.964 4.91-11.75 22.094-6.085 18.964 6.253-1.567 6.175-8.552 9.546-13.906 6.71zm206.857-.418c-5.402-2.235-6.906-9.119-2.987-13.675 4.85-5.638 14.63-2.12 14.63 5.263 0 5.939-6.416 10.574-11.643 8.412zm28.095-1.436c-4.252-1.852-6.452-5.657-6.452-11.16 0-3.937.511-5.146 3.4-8.034 10.062-10.063 24.891 3.348 17.007 15.38-1.511 2.307-6.999 5.26-9.625 5.18-.705-.022-2.654-.636-4.33-1.366zM49.341 177.538c-3.032-2.78-3.693-4.14-4.108-8.455-.453-4.711-.239-5.397 2.552-8.188 4.44-4.44 9.323-4.255 13.832.526 4.904 5.2 5.04 12.324.318 16.679-4.124 3.803-8.02 3.63-12.594-.562zm231.754-1.084c-4.845-2.685-6.434-9.144-3.6-14.624 1.899-3.672 4.316-4.98 9.201-4.98 4.774 0 8.066 2.223 9.944 6.716 3.845 9.204-6.586 17.854-15.545 12.888zm-202.076-8.315c-9.927-5.125-9.678-20.742.41-25.701 3.532-1.737 4.26-1.783 7.94-.5 7.693 2.681 11.246 11.437 7.801 19.225-3.269 7.39-9.846 10.23-16.151 6.976zm132.926-29.54c-.544-1.237-1.85-3.6-2.902-5.25-2.703-4.241-2.538-4.6 1.798-3.906 3.451.551 3.922.369 4.486-1.739.347-1.295.637-6.613.644-11.817l.014-9.462-4.75 4.655c-2.613 2.56-7 5.673-9.75 6.919-2.75 1.245-5.338 2.433-5.75 2.64-2.754 1.383 4.009-9.07 12.804-19.79 3.384-4.124 6.681-8.506 7.327-9.735 1.115-2.124 1.044-2.186-1.419-1.25-6.12 2.327-11.709.033-14.149-5.806-1.87-4.479-1.04-5.315 8.155-8.198l7.532-2.363V69.75c0-2.561-.81-4.71-2.56-6.79-5.369-6.38-4.923-12.11.943-12.11 1.806 0 5.821-.51 8.923-1.133 4.842-.972 5.997-.898 8.167.523 4.634 3.036 2.658 10.47-3.4 12.793-.454.174-.602 1.799-.33 3.61.282 1.87.985 3.116 1.627 2.882.621-.225 2.367.302 3.88 1.173 2.232 1.285 2.75 2.291 2.75 5.347 0 3.384-.404 3.97-4 5.805-3.617 1.845-4 2.408-4 5.875 0 3.47.31 3.924 3.25 4.766 3.81 1.09 6.244 5.254 5.29 9.052-.587 2.34-.959 2.495-4.59 1.915l-3.95-.632v12.777c0 15.005-1.146 18.168-8.118 22.418-5.453 3.324-6.675 3.413-7.922.579zm79.04-.678c-3.024-1.643-8.898-2.152-10.84-.94-3.98 2.487-12.727-3.99-19.826-14.683l-3.586-5.401-2.817 3.889c-3.299 4.553-9.39 8.946-18.155 13.093-6.124 2.897-9.794 3.732-9.759 2.22.01-.412 3.581-4.316 7.937-8.675 9.027-9.035 12.027-13.951 14.997-24.578 2.245-8.031 4.268-32.137 3.36-40.027-.657-5.708 1.71-11.97 4.527-11.97 5.063 0 9.554 8.259 8.091 14.878-.44 1.993-1.29 9.698-1.89 17.123-.598 7.425-1.47 15.142-1.936 17.15-.826 3.559-.658 3.857 6.693 11.846 4.148 4.507 10.953 10.588 15.123 13.512 4.17 2.924 8.68 6.49 10.024 7.925 2.127 2.27 2.257 2.792 1 4.03-.892.88-2.016 1.112-2.943.608zm-49.732-43.288c-4.531-4.826-5.531-16.783-1.404-16.783 3.73 0 7.601 8.334 6.967 15.002-.404 4.25-2.59 4.95-5.563 1.781zm22.732-2.705c0-.52 2.812-4.414 6.25-8.652 3.437-4.237 7.269-9.217 8.514-11.065 3.366-4.996 6.732-4.206 10.137 2.378.929 1.797.838 2.73-.461 4.711-.89 1.36-2.519 2.757-3.618 3.106-1.1.35-4.547 2.147-7.661 3.996-7.118 4.225-13.161 6.763-13.161 5.526z" fill="#871a1f"/><path d="M63.485 445.135c-23.85-3.298-46.037-19.063-55.992-39.785-7.577-15.774-7.008-.993-7.008-182 0-182.104-.65-166.513 7.654-183.455 3.323-6.776 5.852-10.15 12.745-17 9.827-9.764 16.399-13.96 28.84-18.41l8.76-3.135h240l7.5 2.341c20.945 6.54 35.74 18.905 45.06 37.659 7.313 14.712 6.904 3.957 6.923 182.09.017 156.614-.026 160.261-1.975 168-5.548 22.02-22.496 40.989-43.872 49.105-13.907 5.28-12.966 5.244-133.635 5.12-61.6-.063-113.35-.302-115-.53zm239.09-5.291c24.765-6.28 43.553-24.635 50.15-48.994 1.646-6.08 1.76-16.963 1.76-168 0-153.677-.09-161.815-1.837-168-5.995-21.22-22.004-38.52-42.604-46.038-13.833-5.049-15.242-5.098-136.06-4.745l-112.5.329-7.483 2.295c-12.532 3.843-20.6 8.71-30.076 18.14-9.797 9.75-14.817 18.308-17.968 30.628-1.923 7.517-1.972 11.709-1.955 167.3.02 178.141-.436 166.582 7.18 182.026 8.148 16.526 25.23 30.123 44.032 35.05 6.943 1.818 12.51 1.907 123.36 1.96 113.004.053 116.301 0 124-1.951zm-142.09-46.546c-30.471-19.604-65.206-30.91-102-33.201-9.593-.598-12-1.044-12-2.228 0-6.362 40.688-15.31 55.026-12.101 6.413 1.435 6.885 3.45.896 3.831-8.852.564-23.994 2.471-25.265 3.182-.803.45 1.187 1.029 4.855 1.412 16.165 1.69 47.262 10.634 64.142 18.449 7.357 3.406 15.983 8.273 23.846 13.453 2.432 1.603 2.686 1.524 9.405-2.931 8.083-5.36 28.693-15.81 40.034-20.301 9.592-3.797 25.15-7.645 37.726-9.33l9.27-1.241-11.245-4.86c-11.048-4.775-13.06-6.045-11.715-7.39 1.505-1.506 13.625-.208 20.917 2.24 11.45 3.843 25.323 11.096 26.138 13.664.917 2.89-.606 3.672-8.498 4.363-13.75 1.205-32.382 3.594-39.802 5.104-20.803 4.232-42.176 13.886-58.994 26.648-5.645 4.284-10.82 7.762-11.5 7.73-.68-.034-5.736-2.955-11.236-6.493zm5.682-19.376c-16.574-11.476-29.242-16.676-45.32-18.6-6.663-.798-5.506 3.258-9.467-33.166-2.53-23.274-2.873-25.121-4.495-24.253-1.857.994-4.9.307-4.9-1.105 0-1.92 11.904-9.166 18.195-11.076l6.77-2.057 15.767 2.207c21.43 3 30.174 2.432 54.268-3.523 21.586-5.335 30.012-5.835 44.605-2.643 16.961 3.71 22.898 8.644 10.401 8.644h-6.493l-4.681 29.84c-2.575 16.414-4.828 29.93-5.007 30.036-.179.107-4.375 1.463-9.325 3.015-20.38 6.387-29.65 11.236-43.877 22.947-3.783 3.114-7.158 5.624-7.5 5.578-.343-.046-4.366-2.676-8.94-5.844zm10.604-3.259c.915-.915.811-1.6-.455-3-3.127-3.455-6.6-1.07-3.546 2.437 1.8 2.065 2.413 2.151 4.001.563zm-11.42-11.502c-2.59-2.065-2.93-2.11-4.582-.616-2.36 2.135-2.272 2.545.96 4.507 2.56 1.552 2.869 1.552 4.582 0 1.77-1.602 1.735-1.744-.96-3.894zm23.467 1.9l2.334-1.846-3.666-2.797-3.666-2.796-2.874 3.364-2.873 3.364 2.642 2.185c2.777 2.298 3.5 2.166 8.103-1.474zm-33.733-6.398c1.021-1.909.808-2.475-1.678-4.457l-2.848-2.271-2.674 3.203-2.675 3.204 2.638 1.172c4.007 1.782 5.95 1.554 7.237-.851zm20.42-1.834l2.893-3.02-2.495-2.496-2.495-2.495-3.37 3.477-3.37 3.477 2.408 2.006c3.106 2.585 3.032 2.596 6.428-.949zm25.728-10.75l-3.748-3.269-4.25 4.617c-2.338 2.539-4.234 4.91-4.214 5.27.02.359 1.708 1.924 3.75 3.478l3.714 2.825 4.248-4.825 4.248-4.825-3.748-3.27zM142.5 347.1c1.331-1.512 2.432-2.974 2.445-3.25.014-.274-1.573-1.588-3.527-2.918l-3.551-2.42-2.692 2.72-2.691 2.717 3.5 2.924c1.925 1.608 3.634 2.936 3.798 2.95.164.016 1.387-1.21 2.718-2.722zm22.053-2.752c2.238-2.934 2.463-3.754 1.383-5.054-3.041-3.665-4.71-3.627-7.608.171l-2.765 3.627 2.766 2.379c1.521 1.309 2.943 2.38 3.16 2.38.216 0 1.595-1.577 3.064-3.503zm61.374.028c1.894-.653 3.576-1.602 3.737-2.107.235-.738-5.009-4.908-7.812-6.213-.347-.161-2.09 1.549-3.873 3.8-3.109 3.926-3.165 4.151-1.369 5.503 1.858 1.398 2.664 1.313 9.317-.983zm-103.943-.026c0-.825-.436-1.5-.969-1.5-.533 0-.71.675-.393 1.5.317.825.753 1.5.969 1.5.216 0 .393-.675.393-1.5zm65.875-4.873l4.291-4.372-3.16-2.25c-1.738-1.238-3.464-1.858-3.836-1.378-.372.48-2.25 2.586-4.173 4.68l-3.497 3.806 2.5 1.921c1.375 1.057 2.744 1.932 3.041 1.944.298.012 2.473-1.946 4.834-4.35zm28.083-7.795c.023-.368-1.566-1.662-3.53-2.876l-3.573-2.208-3.427 3.322c-1.886 1.827-3.428 3.612-3.428 3.967 0 .354 1.656 1.822 3.68 3.262l3.68 2.618 3.278-3.708c1.803-2.04 3.297-4.01 3.32-4.377zm-85.787 5.513c2.382-2.155 2.306-3.126-.421-5.401-2.892-2.413-4.027-2.4-6.26.067-1.766 1.952-1.751 2.083.52 4.5 2.751 2.929 3.704 3.058 6.161.834zm25.829-5.353c0-.339-1.394-1.646-3.098-2.906l-3.097-2.29-3.47 3.352-3.47 3.352 3.274 2.746 3.275 2.745 3.293-3.191c1.81-1.756 3.293-3.47 3.293-3.808zm21.665-7.738l-3.07-2.265-3.797 3.708c-2.09 2.04-3.798 4.26-3.798 4.934 0 .673 1.202 2.17 2.67 3.325l2.672 2.1 4.196-4.768 4.197-4.77-3.07-2.264zm54.693 5.996c1.257-7.608.869-8.101-2.963-3.76l-3.522 3.99 2.174 1.76c3.077 2.491 3.61 2.245 4.31-1.99zm-31.865-10.01l-2.83-2.434-3.298 3.847-3.298 3.847 2.662 2.37 2.662 2.37 3.466-3.782 3.467-3.782-2.83-2.435zm-59.796 5.569l3.292-3.191-2.169-2.309c-2.873-3.059-3.829-2.927-7.692 1.058l-3.263 3.368 2.817 2.1c1.55 1.156 3.021 2.116 3.27 2.133.249.017 1.934-1.404 3.745-3.159zm-20.593-1.105c-1.284-1.284-2.586-.292-1.635 1.246.368.595 1.127.8 1.687.454.683-.423.666-.982-.052-1.7zm45.806-9.27l-3.314-2.445-3.798 3.708c-2.09 2.04-3.798 4.09-3.798 4.554 0 .465 1.237 1.939 2.75 3.275l2.75 2.43 4.362-4.539 4.362-4.538-3.314-2.445zm58.044 6.965l3.161-3.6-3.274-2.416-3.275-2.416-3.533 3.576-3.533 3.576 3 2.436c1.65 1.34 3.29 2.437 3.646 2.44.356 0 2.07-1.615 3.808-3.596zm-33.735-9.705c-1.988-2.201-5.653-1.541-9.05 1.63l-2.332 2.176 3.166 2.643 3.165 2.644 3.342-3.644c3.125-3.406 3.236-3.76 1.71-5.45zm-60.338 3.929l3.273-3.377-2.982-2.123c-1.64-1.168-4.12-2.123-5.512-2.123-3.714 0-7.66 1.74-7.66 3.378 0 1.519 6.778 7.532 8.554 7.589.58.018 2.526-1.487 4.327-3.344zm22.514-2.513c3.03-3.163 2.823-3.538-2.478-4.492-2.798-.504-3.958-.23-5.302 1.255-1.64 1.811-1.594 1.998.967 4.014 3.417 2.687 3.503 2.677 6.813-.777zm59.297-.877l3.027-3.766-2.298-1.734c-3.208-2.42-3.945-2.224-7.08 1.887l-2.762 3.62 2.321 1.88c3.103 2.513 3.3 2.458 6.792-1.887zm22.015-2.483c1.13-1.237 2.256-3.712 2.5-5.5.42-3.059.265-3.25-2.63-3.25-2.307 0-3.763.86-5.818 3.435l-2.74 3.435 2.625 2.065c3.278 2.579 3.545 2.57 6.063-.185zm-36.207-2.75c.34-.55.141-1-.441-1-.583 0-1.06.45-1.06 1s.2 1 .442 1 .719-.45 1.059-1zm-3.325-6.828c16.498-6.243 25.333-7.828 35.825-6.427 4.125.55 7.55.946 7.61.878.062-.068.395-1.978.742-4.245l.63-4.121-8.976-.702c-11.917-.933-18.103-.07-32.864 4.586-6.797 2.143-15.347 4.32-19 4.836-7.061.998-26.16-.05-37.778-2.074-6.371-1.11-23.708-.892-24.913.312-.33.331-.287 2.695.096 5.253.53 3.528 1.054 4.515 2.173 4.086 3.977-1.526 16.404-2.698 22.235-2.098 3.6.371 11.495 1.748 17.545 3.06 15.5 3.36 20.063 2.943 36.675-3.344zm27.186 1.328c.435-1.134-.178-1.5-2.515-1.5-2.634 0-2.907.222-1.846 1.5.684.825 1.816 1.5 2.515 1.5.699 0 1.53-.675 1.846-1.5zm-101.361-28.557c-26.546-7.103-30.37-7.847-44.652-8.688-11.319-.666-12.867-.971-13.177-2.594-.452-2.36 2.822-5.855 10.199-10.891 19.127-13.058 44.377-15.49 65.2-6.281 7.518 3.325 12.43 7.103 12.43 9.562 0 1.072-.405 1.95-.899 1.95-1.474 0-6.08 14.217-5.832 18 .203 3.083-.067 3.523-2.27 3.696-1.374.108-10.824-2.031-21-4.754zm17.56-8.452c2.729-12.357 2.888-11.3-2.059-13.702-2.451-1.192-4.74-1.884-5.083-1.54-.847.847-2.596 16.847-2.008 18.377.47 1.225 3.813 2.237 6.568 1.988.922-.083 1.895-2.014 2.581-5.123zm-16.128-8.042c.99-5.253 1.634-9.702 1.433-9.887-.2-.185-2.728-.654-5.615-1.043l-5.25-.707v9.51c0 9.466.013 9.516 2.75 10.516 1.512.552 3.23 1.04 3.816 1.083.587.043 1.876-4.219 2.866-9.472zm-18.068-.088c.35-2.552.636-5.984.636-7.628 0-2.945-.06-2.978-4.155-2.324-5.429.868-5.845 1.19-5.845 4.526 0 5.705 1.162 8.943 3.364 9.375 5.097.998 5.344.836 6-3.95zm-16.364-2.423v-4.062l-5.018 2.73c-8.07 4.393-8.275 5.395-1.105 5.395h6.123v-4.063zm221.873 13.603c-.252-.253-7.19-1.824-15.416-3.491-17.403-3.528-34.88-4.132-44.796-1.55-9.845 2.565-9.266 3.183-10.053-10.745-1.155-20.426-5.006-34.301-11.415-41.12-5.363-5.707-16.56-13.12-32.693-21.642-20.618-10.893-22.614-12.23-22.297-14.947l.297-2.545 17.5-.614c9.625-.338 24.317-.968 32.65-1.402 11.282-.586 17.085-.443 22.73.56 7.086 1.259 8.002 1.727 14.038 7.175 8.374 7.557 11.71 14.094 11.698 22.918-.016 11.645-5.23 21.15-18.22 33.218-7 6.502-7.896 7.739-7.896 10.883v3.548l7.75-3.104c6.99-2.8 8.828-3.108 18.75-3.143 9.793-.035 11.542.235 15.942 2.46 5.854 2.962 15.117 11.27 20.039 17.975 1.935 2.636 3.519 5.07 3.519 5.41 0 .718-1.457.826-2.127.156zm-53.234-46.482c2.402-3.057 5.21-7.358 6.24-9.558 2.33-4.979 3.682-10.873 2.378-10.369-.524.203-5.728 5.818-11.565 12.48-10.15 11.582-10.586 12.268-10.024 15.732l.588 3.622 4.007-3.174c2.205-1.746 5.974-5.676 8.376-8.733zm6.36-30.775c0-1.468-8.232-10.291-9.578-10.267-.507.01-4.839 6.318-9.627 14.018l-8.706 14 2.105 3.568 2.105 3.569 11.85-11.82c6.519-6.501 11.852-12.382 11.852-13.068zm-20-13.33c0-.878-5.202-1.953-9.452-1.953-3.064 0-3.403.42-7.876 9.75-2.571 5.362-4.674 10.208-4.673 10.768.001.56 1.216 1.755 2.7 2.656l2.7 1.638 8.3-11.078c4.566-6.093 8.302-11.395 8.302-11.781zm-26.77 6.797c1.79-3.438 3.419-6.616 3.617-7.062.409-.918-11.993.211-12.993 1.183-.356.346-.934 2.429-1.285 4.629-.578 3.626-.378 4.154 2.147 5.658 1.532.912 3.34 1.7 4.02 1.75.68.05 2.702-2.721 4.493-6.158zm-17.23-5.699c0-.311-2.118-.397-4.706-.191l-4.708.374 3.458 1.822c3.183 1.679 3.556 1.694 4.707.192.687-.897 1.25-1.885 1.25-2.197zM88.378 231.43c-1-2.608 1.372-6.185 9.66-14.561 9.09-9.19 17.475-14.488 26.415-16.695 6.219-1.534 7.177-1.528 14.84.104 9.733 2.073 23.761 7.743 36.216 14.64 12.246 6.78 15.283 9.294 13.923 11.527-.929 1.524-3.241 1.757-19.5 1.962-11.01.138-22.679.895-28.946 1.877-5.775.904-19.826 1.918-31.225 2.253-18.988.557-20.78.464-21.383-1.107zm20.23-5.177c1.954-.525 2.042-.901 1.1-4.737-.562-2.291-1.189-4.363-1.393-4.604-.482-.568-9.33 8.105-9.33 9.146 0 .91 6.47 1.04 9.623.195zm22.155-1.847c.172-.172.003-4.418-.376-9.435-.493-6.537-1.062-9.121-2.007-9.121-.726 0-3.811.932-6.857 2.071-6.374 2.385-6.48 2.75-3.408 11.846l2.13 6.306 5.102-.677c2.806-.372 5.243-.818 5.416-.99zm20.592-2.605c.979-.89 2.661-9.093 2.064-10.06-.56-.906-14.408-5.25-14.964-4.694-.257.257.048 4.114.678 8.57l1.146 8.104 5.103-.565c2.807-.31 5.495-.92 5.973-1.355zm20.63-.743c0-.436-2.474-2.006-5.5-3.49l-5.5-2.697v6.979h5.5c3.026 0 5.5-.357 5.5-.792zm17.2-4.59c-4.97-4.998-15.919-10.837-33.7-17.971-20.842-8.363-23.105-9.441-29.155-13.889-9.977-7.335-17.622-22.555-17.71-35.258-.062-9.054 3.092-16.152 10.352-23.298 5.496-5.41 17.546-12.202 21.648-12.202 4.355 0 2.874 3.555-2.884 6.926-6.202 3.63-9.268 5.905-8.677 6.437.235.211 3.922.599 8.195.861 7.713.474 7.772.459 8.334-2.123.31-1.431.738-3.164.95-3.851.502-1.63 5.422-1.63 5.531 0 .046.687.023 6.2-.05 12.25-.107 8.774.371 12.977 2.364 20.77 4.586 17.938 10.001 26.127 32.363 48.944 8.14 8.307 11.3 12.185 10.86 13.332-.341.89-.62 1.805-.62 2.035 0 .23-1.013.404-2.25.387-1.238-.018-3.735-1.525-5.55-3.35zM167.05 193.1c-1.721-2.063-4.969-6.29-7.217-9.392l-4.089-5.641-6.63 3.041c-3.646 1.673-7.002 3.37-7.457 3.77-.676.594 24.803 11.521 27.675 11.869.466.056-.561-1.585-2.282-3.647zm-25.065-16.833c5.225-1.963 9.779-3.872 10.12-4.243.34-.371-.01-2.163-.777-3.983-1.611-3.816-.58-3.948-16.157 2.077l-10.314 3.989 2.751 2.871c1.513 1.58 3.23 2.868 3.814 2.864.584 0 5.338-1.613 10.563-3.575zm-9-14.905c16.012-3.66 15.19-3.327 14.417-5.843-.366-1.193-.8-2.322-.963-2.508-.164-.186-7.114.22-15.446.903-15.059 1.235-15.145 1.256-14.57 3.545 1.234 4.918 2.55 7.336 3.78 6.943.705-.226 6.457-1.593 12.782-3.04zm12.607-17.094c-.334-.87-.607-3.12-.607-5v-3.418h-12.477c-11.841 0-12.551.114-13.933 2.25-.8 1.237-1.76 3.487-2.131 5l-.676 2.75h15.215c13.464 0 15.146-.183 14.609-1.582z" fill="#0e1f0b"/><path d="M63.485 445.135c-23.85-3.298-46.037-19.063-55.992-39.785-7.577-15.774-7.008-.993-7.008-182 0-182.104-.65-166.513 7.654-183.455 3.323-6.776 5.852-10.15 12.745-17 9.827-9.764 16.399-13.96 28.84-18.41l8.76-3.135h240l7.5 2.341c20.945 6.54 35.74 18.905 45.06 37.659 7.313 14.712 6.904 3.957 6.923 182.09.017 156.614-.026 160.261-1.975 168-5.548 22.02-22.496 40.989-43.872 49.105-13.907 5.28-12.966 5.244-133.635 5.12-61.6-.063-113.35-.302-115-.53zm239.09-5.291c24.765-6.28 43.553-24.635 50.15-48.994 1.646-6.08 1.76-16.963 1.76-168 0-153.677-.09-161.815-1.837-168-5.995-21.22-22.004-38.52-42.604-46.038-13.833-5.049-15.242-5.098-136.06-4.745l-112.5.329-7.483 2.295c-12.532 3.843-20.6 8.71-30.076 18.14-9.797 9.75-14.817 18.308-17.968 30.628-1.923 7.517-1.972 11.709-1.955 167.3.02 178.141-.436 166.582 7.18 182.026 8.148 16.526 25.23 30.123 44.032 35.05 6.943 1.818 12.51 1.907 123.36 1.96 113.004.053 116.301 0 124-1.951z"/></svg>