<svg xmlns="http://www.w3.org/2000/svg" height="445.925" width="358.792"><path d="M55.27 444.076C30.431 437.968 11.85 420.981 3.2 396.471l-2.824-8v-164c0-133.555.249-165.02 1.339-169.5 2.187-8.988 9.629-23.07 15.791-29.88 9.94-10.984 23.504-19.124 38.14-22.889C61.841.61 71.697.472 179.377.472s117.537.137 123.73 1.73c21.52 5.535 39.143 19.49 48.325 38.27 7.99 16.338 7.538 4.679 7.224 186.5l-.279 161.5-2.714 8c-6.602 19.456-19.45 33.735-38.286 42.546-15.58 7.289-8.994 6.962-138.697 6.88-107.185-.068-116.86-.21-123.41-1.822zm248.107-4.485c24.739-7.456 42.866-25.63 48.953-49.08 1.365-5.258 1.547-24.879 1.547-166.7 0-111.56-.331-162.363-1.084-166.04-.596-2.915-3.121-9.544-5.61-14.732-3.754-7.82-5.923-10.828-12.688-17.593-6.648-6.648-9.919-9.029-17.64-12.84-16.172-7.983-9.22-7.599-137.478-7.61-110.722-.01-114.24.047-122.376 1.997-19.36 4.642-36.693 18.135-44.947 34.99-7.725 15.776-7.177 1.933-7.177 181.038 0 156.692.049 160.82 1.976 168.354 6.608 25.84 29.767 45.927 57.524 49.896 1.65.236 54.75.361 118 .279 107.809-.141 115.376-.264 121-1.959zm-145.5-45.77c-10.525-6.995-35.533-19.076-48-23.188-18.294-6.035-44.586-10.662-60.582-10.662-8.278 0-10.373-1.539-6.807-4.998 2.769-2.685 18.266-7.81 28.764-9.514 15.9-2.578 31.625-1.587 31.625 1.994 0 1.623-3.178 2.487-9.209 2.505-2.59.01-8.215.543-12.5 1.19l-7.79 1.178 8.907 1.304c12.172 1.783 34.64 7.58 46.384 11.967 10.755 4.019 28.327 12.645 35.085 17.224l4.376 2.966 4.624-3.277c12.74-9.028 39.153-21.816 53.875-26.083 7.153-2.073 16.057-3.921 29.206-6.061 3.336-.543 3.125-.703-6-4.536a2001.934 2001.934 0 0 1-10.757-4.542c-.714-.312-1.16-1.3-.99-2.192.44-2.315 9.989-2.646 17.816-.618 7.754 2.01 26.752 10.272 29.164 12.684.995.995 1.81 2.692 1.81 3.77 0 2.547-3.68 3.436-20.5 4.957-38.516 3.481-66.293 14.045-92 34.988-2.75 2.24-5.9 4.04-7 4-1.1-.04-5.376-2.315-9.5-5.056zm3.5-20.441c-16.968-11.606-26.1-15.515-41.636-17.824-4.918-.732-9.178-1.565-9.466-1.853-.288-.288-1.843-11.708-3.456-25.378-3.975-33.68-3.397-31.087-6.812-30.586-4.968.73-4.643-2.224.67-6.094 11.947-8.7 18.39-9.891 38.7-7.154 18.686 2.518 28.497 1.726 51.5-4.157 16.324-4.174 19.736-4.73 29-4.722 16.251.014 34 4.914 34 9.385 0 1.76-.694 1.974-6.42 1.974-6.204 0-6.44.093-6.974 2.75-.304 1.513-2.136 13.55-4.07 26.75-1.934 13.2-3.76 25.43-4.058 27.178-.522 3.063-.947 3.312-11.76 6.886-19.635 6.49-28.453 11.297-42.34 23.077-3.475 2.948-6.893 5.332-7.597 5.3-.705-.034-4.88-2.523-9.28-5.532zm9.525-6.879c-.988-1.19-1.612-1.287-2.668-.41-1.156.959-1.094 1.354.382 2.445 2.27 1.676 4.05.092 2.286-2.035zm-9.355-6.037c.185-.555-.6-1.593-1.745-2.308-1.672-1.044-2.379-1.053-3.593-.045-1.337 1.11-1.301 1.41.309 2.586 1.999 1.462 4.504 1.345 5.03-.234zm21.08-.436c1.238-1.033 2.25-2.058 2.25-2.279 0-.22-1.323-1.38-2.941-2.576l-2.941-2.175-2.227 3.127c-2.154 3.025-2.166 3.172-.368 4.487 2.435 1.78 3.515 1.679 6.227-.584zm-32.95-6.257c1.704-1.703 1.516-2.363-1.178-4.128-2.232-1.462-2.52-1.409-4.652.86l-2.273 2.42 2.402.961c3.274 1.31 4.3 1.29 5.701-.113zm21.236-7.208c-2-2-2-2-5.052.924l-3.052 2.924 2.284 1.725c2.205 1.666 2.38 1.633 5.052-.924 2.768-2.65 2.768-2.65.768-4.65zm24.97 1.252l3.34-4.156-2.923-2.339c-1.607-1.286-3.169-2.34-3.47-2.344-.3 0-2.274 1.764-4.385 3.927l-3.84 3.93 2.887 2.538c1.587 1.395 3.373 2.551 3.968 2.569.595.017 2.586-1.839 4.423-4.125zm-58.479-2.525c1.734-2.646 1.72-2.71-1.108-4.965l-2.864-2.284-2.288 2.15-2.288 2.149 2.698 2.816c3.322 3.467 3.661 3.475 5.85.134zm22.417-3.24l2.038-2.86-2.672-1.752c-2.635-1.726-2.704-1.71-4.956 1.114l-2.284 2.865 2.11 2.246c2.387 2.54 2.911 2.394 5.764-1.613zm62.086-.31l3.243-1.322-4.16-2.753-4.158-2.752-2.446 2.78c-5.282 6.001-1.826 7.862 7.521 4.048zm-38.217-9.954c-2.288-1.769-2.352-1.743-6.035 2.449l-3.722 4.236 2.214 1.857c2.199 1.843 2.24 1.826 6.035-2.45l3.82-4.304-2.312-1.788zm-58.41 3.294c1.63-1.803 1.574-1.989-1.214-3.974-2.91-2.073-2.934-2.073-4.712-.109-1.716 1.896-1.715 2.053.023 3.974 2.26 2.497 3.717 2.524 5.902.109zm84.597-4.909c0-.713-5.217-4.2-6.285-4.2-.263 0-1.648 1.536-3.08 3.412l-2.602 3.412 3.234 2.087 3.233 2.087 2.75-3.015c1.513-1.658 2.75-3.36 2.75-3.783zm-62.01 3.31c2.271-2.416 2.286-2.547.52-4.5-2.38-2.629-3.349-2.538-6.65.625l-2.75 2.634 2.195 1.832c2.926 2.443 3.919 2.355 6.686-.59zm24.4-10.121l-2.575-2.112-3.763 4.034-3.763 4.034 2.492 2.143 2.492 2.143 3.845-4.065 3.846-4.066-2.575-2.111zm54.61 4.693c0-1.605.266-3.742.591-4.75.326-1.01-.777-.263-2.461 1.668-2.766 3.172-2.897 3.618-1.4 4.75 2.52 1.907 3.27 1.524 3.27-1.668zm-31.487-8.696c-2.552-1.866-2.72-1.822-5.98 1.58l-2.84 2.965 2.32 1.88c2.314 1.872 2.332 1.867 5.358-1.58 2.923-3.33 2.966-3.511 1.142-4.845zm-60.046 4.65l2.84-2.966-2.403-1.966-2.404-1.966-3.19 3.07-3.19 3.069 2.19 1.828c2.857 2.385 2.845 2.388 6.157-1.07zm24.445-3.924l3.08-3.888-2.623-1.718c-2.592-1.698-2.665-1.676-6.246 1.944l-3.623 3.662 2.361 1.944c1.299 1.07 2.723 1.944 3.166 1.944.443 0 2.191-1.75 3.885-3.888zm61.061-3.146c.015-.294-1.253-1.29-2.819-2.216-2.798-1.653-2.894-1.63-5.75 1.367l-2.904 3.047 3 2.423 3 2.422 2.723-3.254c1.498-1.79 2.736-3.495 2.75-3.789zm-37.41-1.04c2.86-2.994 2.886-3.112.99-4.505-2.343-1.72-5.453-.966-7.692 1.865-1.539 1.946-1.508 2.182.5 3.86 2.807 2.346 2.793 2.349 6.202-1.22zm-59.183-.8l2.754-2.875-2.701-2.125c-3.135-2.466-2.824-2.422-7.683-1.073-4.609 1.28-4.722 2.65-.509 6.17 4.107 3.432 4.766 3.424 8.14-.098zm22.521-2.52c1.238-1.317 1.878-2.622 1.425-2.9-1.918-1.173-6.166-1.083-7.667.162-1.473 1.223-1.418 1.511.611 3.205 2.86 2.386 2.959 2.378 5.631-.467zm59.433-1.432l2.708-2.826-2.043-1.849c-2.003-1.813-2.11-1.784-5.487 1.49-3.163 3.065-3.304 3.446-1.728 4.644 2.514 1.91 3.542 1.68 6.55-1.459zm24.19-7.408c.511-2.04.22-2.712-1.403-3.227-1.525-.484-2.819.195-5.06 2.655l-3.01 3.306 2.643 2.172 2.642 2.171 1.77-2.25c.974-1.238 2.061-3.41 2.417-4.827zm-44.684-3.678c17.243-6.909 24.03-8.4 35.838-7.875 10.748.478 11.322.266 11.322-4.17 0-2.279-3.648-3.047-14.375-3.028-9.375.017-15.788 1.38-31.125 6.612-10.615 3.622-11.471 3.752-24.5 3.716-7.425-.02-19.44-.857-26.7-1.86-9.885-1.364-14.655-1.59-19-.902l-5.8.92v4c0 3.442.28 3.954 2 3.672 1.1-.18 7.625-.53 14.5-.775 10.645-.381 14.207-.081 24 2.021 15.366 3.3 20.704 2.932 33.84-2.331zm29.66.912c.345-.557-.403-.993-1.69-.984-1.858.012-2.016.204-.81.984 1.861 1.203 1.757 1.203 2.5 0zm49.952-10.095c12.233-12.968 19.929-24.788 19.357-29.73-.253-2.196-1.113-2.93-4.803-4.096-5.483-1.734-15.727-.666-32.833 3.424-13.839 3.31-16.555 2.776-9.603-1.883 34.942-23.424 67.569-30.97 80.543-18.627 3.542 3.369 3.887 4.159 3.887 8.886 0 10.477-6.962 18.997-24.38 29.837-11.158 6.944-34.978 19.284-37.222 19.284-1.045 0 .79-2.575 5.054-7.095zM77.763 279.221c-.586-1.512-1.965-6.575-3.066-11.25-1.1-4.675-2.146-8.998-2.324-9.607-.422-1.443-3.243-1.966-21.123-3.913-8.18-.891-15.26-2-15.735-2.463-3.388-3.308 8.25-6.28 22.912-5.852 6.299.185 11.452.149 11.452-.079-.001-.227-1.167-6.977-2.592-15-3.454-19.45-2.636-24.085 4.253-24.085 1.88 0 5.087.863 7.127 1.919 5.981 3.094 30.021 22.667 38.782 31.576 11.17 11.359 27.565 33.548 24.742 33.487-1.018-.022-37.615-28.205-45.262-34.856-6.178-5.374-12.839-10.126-14.191-10.126-.473 0-.86 4.44-.86 9.866v9.866l9.75 3.115c9.704 3.1 20.22 8.566 21.005 10.918.625 1.878-5.666 1.48-18.506-1.171l-11.25-2.323-.009 6.114c-.02 14.538-2.372 20.924-5.105 13.865zm79.446-4.5c-3.915-3.987-13.527-14.675-21.36-23.75s-20.873-23.7-28.979-32.5c-18.525-20.112-22.639-24.899-26.166-30.445-3.132-4.926-3.426-6.057-1.577-6.05 2.226.01 9.256 5.254 28.579 21.326 17.965 14.945 23.418 20.575 31.153 32.17 6.56 9.832 14.075 18.5 16.042 18.5 2.193 0 3.848-4.54 2.374-6.509-6.504-8.685-6.898-9.68-6.898-17.416 0-4.166.36-8.976.8-10.687.786-3.065.735-3.12-3.416-3.677-6.052-.812-11.941-5.307-14.248-10.873-2.487-6-1.612-10.752 2.9-15.746l3.423-3.789-1.637-4.168c-1.585-4.034-1.752-4.147-5.23-3.537-5.95 1.044-12.164 4.199-15.742 7.992l-3.38 3.584 2.265 4.07c2.058 3.7 9.837 10.902 12.988 12.026.703.25 1.052.705.776 1.01-.275.305-4.1-.832-8.5-2.528-6.525-2.516-9.117-4.205-14.072-9.168-3.341-3.347-7.391-8.335-9-11.085-2.493-4.26-2.922-6.036-2.897-12 .046-10.904 5.484-18.864 17.292-25.314l5.321-2.907-4.133-.661c-4.047-.647-4.393-.46-16.572 8.99-8.25 6.401-12.438 10.297-12.438 11.571 0 5.78-6.023 11.155-12.5 11.155-10.725 0-16.374-11.851-9.423-19.768 3.639-4.145 8.405-5.387 13.815-3.601 3.57 1.177 4.054 1.029 13.406-4.111 5.336-2.934 9.702-5.593 9.702-5.909 0-.316-3.262-1.047-7.25-1.623-6.936-1.002-7.359-.946-9.778 1.29-5.935 5.487-13.445 5.18-18.439-.755-6.633-7.883.854-20.192 11.255-18.504 3.594.584 8.765 4.662 9.718 7.665.396 1.247 2.725 1.98 9.261 2.917 4.804.688 9.858 1.463 11.233 1.72 2.174.408 1.914-.06-2-3.589-3.837-3.46-4.963-3.971-7.647-3.47-6.826 1.276-15.353-5.164-15.353-11.596 0-5.938 5.752-11 12.5-11 7.643 0 13 4.895 13 11.878 0 3.597.775 5.876 3.379 9.933 1.858 2.896 3.561 5.083 3.784 4.86.223-.223-.092-2.602-.7-5.288-3.32-14.65 5.584-29.128 20.875-33.943 6.6-2.079 19.079-1.547 27.162 1.157 10.42 3.484 24.81 15.093 29.83 24.063.933 1.667 1.19 1.584 3.26-1.046 4.975-6.326 12.699-6.758 18.425-1.032l3.286 3.286 8.85-7.04c10.627-8.452 18.19-15.606 23.531-22.255l3.957-4.928-2.32-1.287c-1.275-.708-3.444-1.31-4.819-1.337-3.824-.077-11.348-2.564-11.792-3.898-.567-1.7 1.854-5.095 13.098-18.373 6.148-7.26 10.664-11.75 11.82-11.75 1.027 0 3.612 1.575 5.743 3.5 4.14 3.74 8.047 4.512 10.131 2 3.165-3.812 11 .232 11 5.677 0 1.59-2.623 6.082-6.968 11.936-3.833 5.163-6.842 9.837-6.688 10.387.155.55 7.117 4.413 15.47 8.584 8.354 4.171 16.876 8.91 18.938 10.53 2.061 1.62 4.986 3.73 6.498 4.689 3.237 2.052 3.467 3.739.834 6.122-1.503 1.36-2.353 1.502-3.935.655-2.535-1.357-7.83-1.406-8.649-.08-.34.55-1.71 1-3.044 1-3.18 0-20.194-8.913-28.504-14.931l-6.548-4.743-7.695 7.26c-6.189 5.838-10.195 8.522-20.453 13.703-7.015 3.543-13.957 6.727-15.426 7.076-1.89.448-2.854 1.469-3.299 3.494-1.493 6.8-10.281 10.908-16.597 7.758-4.13-2.06-3.934-2.127-3.934 1.345 0 2.644.455 3.079 4.25 4.064 2.338.606 5.625 1.463 7.306 1.904 2.482.651 3.571.358 5.806-1.564 7.271-6.255 18.638.126 18.638 10.462 0 13.643-20.322 15.69-23.661 2.383-.46-1.833-2.274-3.214-7.087-5.396-3.557-1.613-6.535-2.794-6.617-2.624-.78 1.605-3.804 10.643-3.948 11.798-.139 1.108 2.028 1.924 8.486 3.193 31.8 6.253 43.171 31.318 19.104 42.112-11.627 5.214-24.922 5.706-34.777 1.287-4.655-2.088-13.321-9.092-12.395-10.019.227-.226 3.108.222 6.404.998 8.404 1.976 21.784 1.87 26.165-.21 3.89-1.845 6.823-5.614 6.013-7.724-.557-1.452-12.661-3.976-24.843-5.18l-6.656-.659-1.964 4.357c-1.08 2.396-3.318 5.626-4.973 7.177-2.858 2.68-2.984 3.132-2.511 9.019.476 5.936.342 6.4-3.187 11.024-3.171 4.154-3.755 5.755-4.187 11.481-.526 6.96 1.203 15.178 3.342 15.891 1.806.602 3.307-6.192 3.981-18.019.676-11.867 1.367-12.664 5.124-5.915 4.472 8.032 4.689 14.687 1.257 38.535-3.632 25.231-5.132 30.663-8.467 30.663-.634 0-4.356-3.262-8.271-7.25zm-.786-69.204c4.526-4.526 2.969-9.221-3.723-11.223-5.751-1.72-6.482-1.663-8.823.677-4.714 4.715-.571 13 6.5 13 2.48 0 4.351-.76 6.046-2.454zm7.531-23.469c4.965-4.965 3.066-12.884-3.618-15.09-6.588-2.174-12.489 2.093-12.427 8.986.041 4.561 1.545 6.348 6.468 7.687 6.023 1.638 6.423 1.571 9.577-1.583zm45.923-4.599c0-5.965-12.794-15.575-22.718-17.063-4.797-.719-4.32.583-6.211-16.915-.595-5.5-1.652-12.475-2.35-15.5l-1.269-5.5-5.302 4.958c-6.513 6.091-7.02 7.022-9.285 17.027-2.498 11.044-2.501 11.029 2.663 13.529 5.084 2.461 8.633 6.64 10.449 12.305.94 2.932 1.607 3.665 2.874 3.157 7.09-2.841 20.296-.924 27.15 3.941 1.924 1.367 3.612 2.507 3.75 2.534.137.027.25-1.086.25-2.473zm-92.82-2.07c1.694-.876 6.931-1.889 11.639-2.25l8.56-.658.835-3.233c1.183-4.582 7.478-10.806 12.419-12.28l4.133-1.233-1.41-6.127c-2.971-12.908-7.581-18.924-17.738-23.15l-3.883-1.614.457 7.89c.315 5.439 1.168 9.36 2.747 12.62 1.26 2.603 2.126 4.856 1.926 5.007-.2.151-1.94.899-3.865 1.66-7.179 2.843-15.112 12.234-19.023 22.523-1.093 2.875-.848 2.94 3.203.845zm48.075-54.596l6.998-5.188-2.245-1.819c-3.362-2.722-12.182-4.947-18.26-4.607l-5.382.302 5.378 8.25c2.959 4.538 5.634 8.25 5.945 8.25.312 0 3.716-2.334 7.566-5.188zm97.29-52.312c2.084-3.025 3.49-5.798 3.126-6.162-1.039-1.039-5.182 1.226-9.685 5.295l-4.122 3.724 2.318 1.286c3.66 2.031 4.344 1.692 8.363-4.143zm-75.963 206.591c-1.51-1.67-1.642-3.272-1.045-12.75.938-14.9 2.874-24.484 6.173-30.563 5.84-10.763 26.972-28.522 42.69-35.877 11.31-5.293 25.183-5.946 35.6-1.676l3.5 1.434-7 2.312c-17.319 5.72-33.077 15.58-46.5 29.095-11.218 11.297-17.191 20.724-23.084 36.434-5.403 14.406-6.586 15.732-10.334 11.591zm17.418-10.076c0-3.206 17.036-26.934 25.68-35.769 15.306-15.641 37.616-24.216 59.958-23.043 6.676.35 9.39 1.029 14.831 3.707 7.01 3.452 17.785 12.754 20.838 17.991l1.806 3.1-3.806-.037c-2.094-.02-6.507-.687-9.807-1.484-11.668-2.818-32.092-1.276-45.834 3.46-3.209 1.106-14.909 7.137-26 13.402-18.61 10.513-35.89 19.658-37.143 19.658-.288 0-.523-.443-.523-.985zm63.475-122.249c-2.69-1.45-15.475-14.852-15.475-16.221 0-.605.7-2.1 1.557-3.322 2.413-3.446 8.684-3.027 15.488 1.034 6.576 3.925 8.181 7.874 5.656 13.917-1.857 4.446-4.447 6.091-7.226 4.592zm-6.799-24.423c-.371-.372-.676-1.85-.676-3.287 0-1.649-1.105-3.58-3-5.243-7.456-6.542.6-13.608 10.03-8.797 6.961 3.551 7.77 9.518 1.706 12.583-1.78.9-4.169 2.487-5.31 3.527-1.14 1.041-2.378 1.589-2.75 1.217z" fill="#c38c8f"/><path d="M57.241 444.488c-20.81-4.56-40.342-19.557-49.446-37.966-8.02-16.22-7.327-.158-7.7-178.55-.246-117.086-.027-161.495.82-167C5.668 30.104 31.168 5.678 63.521 1.001c9.243-1.336 222.47-1.336 231.713 0 28.259 4.085 51.428 23.118 60.49 49.691l2.653 7.778.271 160.98c.306 181.78.774 169.952-7.384 186.465-3.872 7.835-6.134 10.902-13.277 18-9.836 9.774-16.405 13.968-28.848 18.42l-8.762 3.135-118.5.181c-96.053.146-119.662-.074-124.636-1.164zm246.136-4.793c25.416-7.385 44.995-27.664 49.456-51.224.826-4.365 1.055-50.262.84-168.5l-.296-162.5-2.223-6.5c-6.845-20.008-22.912-35.655-43.999-42.847l-7.778-2.653h-240l-8 2.808c-11.041 3.875-20.282 9.58-27.71 17.109-7.415 7.514-11.929 14.67-15.61 24.749l-2.68 7.334-.264 163.419c-.296 182.413-.83 168.198 6.925 184.081 6.868 14.066 21.47 26.957 36.887 32.566 11.675 4.248 13.095 4.291 133.452 4.092 106.054-.176 115.467-.326 121-1.934zm-144.53-45.588c-31.612-20.271-67.508-31.93-104.152-33.829-6.425-.333-12.229-.943-12.896-1.355-4.004-2.475 4.908-7.455 20.751-11.597 7.993-2.089 12.363-2.595 23.413-2.712 10.543-.11 13.978.181 15.34 1.305 1.672 1.379 1.671 1.509-.026 2.75-.98.716-4.377 1.302-7.55 1.302-3.172 0-9.274.53-13.559 1.178l-7.79 1.177 8.77 1.284c28.144 4.123 60.625 15.434 79.641 27.736l7.085 4.583 8.403-5.477c10.96-7.144 34.573-18.64 46.34-22.56 5.12-1.706 15.233-4.196 22.474-5.534s13.305-2.572 13.475-2.742c.17-.17-3.935-1.988-9.12-4.04-13.706-5.425-15.346-8.605-4.438-8.605 7.39 0 21.023 4.352 32.303 10.31 13.922 7.354 12.97 10.159-3.975 11.695-44.64 4.05-69.466 12.65-95.708 33.158-4.813 3.76-9.313 6.83-10 6.82-.688-.01-4.639-2.19-8.78-4.847zm2.53-21.2c-16.547-11.086-29.203-16.25-43.161-17.608-3.39-.33-6.674-.917-7.3-1.304-.667-.412-2.382-11.456-4.135-26.614-3.74-32.342-3.223-30.003-6.62-29.952-4.25.064-3.44-2.375 2.216-6.673 10.186-7.74 17.877-9.043 37-6.272 19.198 2.781 26.753 2.141 53.784-4.554 20.473-5.071 25.858-5.575 37.716-3.528 16.129 2.785 23.868 5.866 22.657 9.021-.445 1.16-2.101 1.548-6.606 1.548-5.425 0-6.06.22-6.496 2.25-.266 1.238-2.091 13.275-4.056 26.75-1.966 13.475-3.823 25.916-4.128 27.646-.53 3.008-.995 3.284-10.712 6.343-18.24 5.742-28.758 11.373-43.33 23.194-3.944 3.2-7.32 5.81-7.5 5.8-.18-.01-4.379-2.73-9.329-6.047zm9.438-6.692c-1.62-1.135-2.375-1.202-3.272-.292-1.714 1.74 2.105 4.483 4.024 2.89 1.112-.922.978-1.386-.752-2.598zm-9.022-4.641c.92-1.109.59-1.847-1.594-3.565-2.623-2.063-2.817-2.08-4.064-.376-1.127 1.543-.993 2.034.967 3.542 2.775 2.136 3.217 2.174 4.69.399zm20.906-6.234l-3.211-2.37-2.868 2.748-2.869 2.748 2.624 2.257L179 362.98l3.456-2.635 3.455-2.636-3.211-2.37zm-33.29-5.333c-2.233-2.468-3.317-2.54-5.703-.38-2.466 2.231-2.312 3.023.921 4.746 2.502 1.333 2.925 1.294 4.687-.433 1.884-1.845 1.886-1.954.095-3.933zm21.396 1.33c2.647-3.366 2.61-3.74-.535-5.423-2.437-1.304-2.77-1.205-5.119 1.525l-2.512 2.921 2.23 1.806c2.927 2.37 3.48 2.293 5.936-.83zm24.822-2.744c3.76-4.996 3.85-5.429 1.5-7.278-4.516-3.554-4.88-3.5-8.821 1.31l-3.78 4.611 3.426 2.841c1.884 1.562 3.65 2.839 3.925 2.837.275 0 1.963-1.947 3.75-4.321zm-57.743-3.129c2.31-2.459 2.319-2.536.425-4.017-4.367-3.413-5.064-3.496-7.507-.895l-2.352 2.503 2.964 2.422c3.692 3.018 3.623 3.018 6.47-.013zm22.53-7.453c-2.462-2.72-3.648-2.577-6.913.831l-2.75 2.87 2.813 2.076 2.813 2.076 2.941-2.907c2.88-2.845 2.902-2.949 1.095-4.946zm61.442 3.75l3.468-1.414-3.956-2.688c-2.175-1.478-4.247-2.688-4.604-2.688-1.346 0-5.968 7.06-5.315 8.116.798 1.29 5.448.698 10.407-1.325zm-39.01-3.988l3.469-4.029-2.399-1.942-2.398-1.942-4.013 4.013c-3.943 3.943-3.981 4.05-2.166 6.056 2.523 2.788 3.49 2.51 7.507-2.156zm-58.521-6.6l-2.695-2.318-2.306 2.166-2.306 2.167 2.68 2.318 2.68 2.317 2.32-2.167 2.32-2.166-2.693-2.318zm24.206 2.174l2.325-3.015-3.105-2.296-3.105-2.295-3.134 3.176-3.135 3.176 3 2.434c3.542 2.873 4.098 2.782 7.154-1.18zm59.593.168l2.747-3.311-3.356-2.56-3.355-2.56-3.391 3.522-3.392 3.52 3 2.418c3.813 3.072 4.412 2.993 7.747-1.029zm-35.874-10.407l-2.802-2.41-3.803 4.387-3.803 4.386 2.767 2.283 2.768 2.283 3.837-4.26 3.838-4.26-2.802-2.409zm54.967 3.363l.62-5-3.122 3.426-3.123 3.425 2.284 1.85c1.257 1.017 2.383 1.726 2.502 1.574.12-.15.497-2.525.839-5.275zm-31.847-7.684c-1.45-1.14-2.947-1.678-3.329-1.194-.381.483-1.806 2.146-3.166 3.695l-2.472 2.817 2.487 1.925 2.487 1.926 3.315-3.548 3.314-3.548-2.636-2.073zm-59.113 5.31l2.754-2.875-2.739-2.155-2.739-2.154-3.38 3.277-3.382 3.277 2.164 1.752c2.96 2.396 4.122 2.218 7.322-1.122zm25.159-9.083c-2.52-2.784-3.376-2.607-7.662 1.578l-3.708 3.62 2.666 2.327 2.665 2.326 3.944-3.905c3.873-3.835 3.91-3.94 2.095-5.946zm59.242 1.799c-.183-.55-1.514-1.716-2.958-2.592-2.528-1.534-2.718-1.486-5.192 1.33-3.267 3.717-3.252 4.57.12 6.673 2.71 1.691 2.79 1.672 5.556-1.348 1.544-1.685 2.657-3.513 2.474-4.063zm-93.812-4.788c-.017-.304-1.125-1.35-2.462-2.322-1.844-1.341-3.425-1.608-6.554-1.108-5.74.918-6.148 2.995-1.377 7.001l3.918 3.29 3.253-3.154c1.79-1.734 3.24-3.402 3.222-3.707zm56.88 3.863c1.902-2.406 2.117-3.253 1.128-4.445-1.795-2.163-4.497-1.8-7.67 1.031l-2.807 2.503 2.361 1.997c3.111 2.632 4.182 2.466 6.989-1.086zm-36.873-3.39c2.433-2.59 2.334-2.733-2.669-3.83-1.332-.291-2.83.223-3.813 1.31-1.505 1.664-1.458 1.905.665 3.392 2.953 2.068 3.07 2.05 5.817-.873zm59.423-1.16l2.9-3.633-2.4-1.87c-2.398-1.87-2.399-1.87-5.69 1.848l-3.291 3.717 2.291 1.764c1.26.97 2.516 1.773 2.791 1.785.275.012 1.805-1.613 3.4-3.61zm22.612-3.617c2.543-4.17 2.517-6.447-.082-7.272-2.17-.689-5.263 1.41-7.08 4.804-.744 1.392-.438 2.243 1.343 3.728 3.11 2.592 3.526 2.501 5.82-1.26zm-41.307-8.093c16.303-6.55 23.419-8.063 34.76-7.386 9.935.593 10.536.347 10.536-4.307 0-2.615-4.882-3.354-17.879-2.703-9.161.458-12.613 1.189-25.12 5.315-14.4 4.75-14.59 4.783-27.5 4.719-7.15-.036-18.377-.846-24.948-1.8-11.173-1.624-22.873-1.65-25.448-.059-.608.376-1.105 2.509-1.105 4.74 0 3.924.091 4.035 2.75 3.382 1.513-.372 7.925-.897 14.25-1.168 9.742-.416 13.335-.104 23.5 2.04 16.316 3.443 21.773 3.025 36.204-2.773zm27.796 1.343c.34-.55-.335-1-1.5-1s-1.84.45-1.5 1c.34.55 1.015 1 1.5 1 .485 0 1.16-.45 1.5-1zm46.125-5.25c1.086-1.237 4.587-5.14 7.78-8.671 11.779-13.025 17.789-24.731 14.643-28.521-3.03-3.651-17.981-2.854-37.338 1.992-15.985 4.001-16.726 3.056-3.853-4.907 12.366-7.65 25.645-14.164 36.447-17.882 7.86-2.704 10.65-3.171 19.196-3.213 8.58-.04 10.69.291 14.848 2.339 5.744 2.828 8.652 7.08 8.627 12.613-.044 9.57-7.79 18.647-25.127 29.445-10.218 6.365-34.345 19.055-36.226 19.055-.534 0-.082-1.012 1.003-2.25zM77.48 277.771c-.881-2.365-2.43-7.878-3.442-12.252-2.178-9.415-.69-8.668-21.933-11.012-8.1-.894-15.29-1.816-15.977-2.05-2.29-.775-1.29-2.44 2.5-4.162 2.929-1.33 6.783-1.717 17.589-1.764l13.838-.06-.507-3c-.28-1.65-1.484-8.596-2.676-15.436-2.948-16.903-1.98-21.064 4.902-21.064 4.497 0 9.491 3.187 26.235 16.741 13.224 10.705 25.648 23.026 33.034 32.76 5.45 7.18 12.126 17.5 11.323 17.5-.803 0-40.106-30.517-44.988-34.93-5.795-5.24-10.671-8.739-13.285-9.534l-2.286-.694.286 10.192.285 10.193 7.5 2.2c8.687 2.548 18.66 7.423 21.405 10.463 1.904 2.107 1.902 2.11-1.64 2.11-3.164 0-20.516-3.183-25.015-4.589-1.553-.485-1.756.274-1.807 6.77-.115 14.564-2.396 19.524-5.341 11.618zm80.918-2.05c-3.336-3.437-13.191-14.483-21.9-24.547-8.708-10.063-21.758-24.688-28.999-32.5-23.66-25.523-30.944-34.767-28.558-36.241 1.493-.923 6.682 2.893 27.323 20.094 20.667 17.224 23.705 20.331 32.637 33.387 3.553 5.193 8.599 11.718 11.213 14.5 4.574 4.866 4.81 4.984 6.26 3.116 2.123-2.739 1.873-5.385-.847-8.964-5.912-7.78-7.079-14.562-4.16-24.186.82-2.7 1.492-4.909 1.495-4.909l-4.098-.235c-9.077-.52-15.886-7.405-15.886-16.065 0-4.782 1.084-7.444 4.557-11.2 2.121-2.292 2.218-2.853 1.172-6.75-1.314-4.891-2.33-5.15-10.58-2.701-5.03 1.493-14.149 8.667-14.149 11.13 0 2.093 6.237 9.53 10.529 12.554 2.442 1.722 4.282 3.29 4.088 3.484-.69.69-11.282-3.753-15.834-6.64-5.148-3.265-12.114-11.478-14.907-17.577-2.447-5.343-2.45-15.64-.005-21.02 2.347-5.167 10.881-12.838 16.795-15.096 3.765-1.438 4.264-1.897 2.722-2.502-5.236-2.056-7.684-1-20.062 8.656-9.834 7.67-12.31 10.115-12.881 12.715-1.449 6.595-5.343 9.747-12.041 9.747-4.916 0-8.856-2.325-10.769-6.357-2.156-4.544-2.057-7.437.391-11.453 2.927-4.8 7.931-6.64 14.065-5.168 4.793 1.15 4.9 1.12 14.344-3.986 5.233-2.83 9.74-5.51 10.017-5.957.276-.446-2.876-1.357-7.005-2.023l-7.506-1.21-3.505 3.077c-5.752 5.05-14.621 4.02-18.488-2.148-2.907-4.637-2.087-10.367 2.006-14.025 4.281-3.825 11.528-3.898 15.97-.16 1.692 1.423 3.076 3.197 3.076 3.94 0 .744.439 1.623.975 1.954 1.436.888 23.034 4.262 22.977 3.59-.026-.315-2.162-2.261-4.745-4.324-4.027-3.214-5.418-3.75-9.73-3.75-7.02 0-11.695-3.378-12.887-9.312-1.774-8.838 8.34-15.25 17.812-11.293 4.542 1.898 6.598 5.172 6.598 10.508 0 3.536.856 5.772 4.137 10.807 2.276 3.493 4.276 6.211 4.445 6.042.17-.17-.107-2.095-.613-4.28-4.495-19.389 4.929-34.008 24.214-37.561 17.178-3.165 38.965 6.47 49.994 22.11 3.572 5.064 4.37 5.732 4.957 4.146 1.232-3.33 5.856-6.167 10.05-6.167 4.762 0 9.45 2.268 10.313 4.99.351 1.105 1.043 2.01 1.537 2.01 3.246 0 32.814-27.109 35.94-32.951 1.01-1.886.759-2.263-2.39-3.578-1.936-.809-4.514-1.47-5.73-1.47-4.303 0-8.854-2.291-8.854-4.457 0-1.149 4.707-7.678 10.667-14.8 9.62-11.492 10.984-12.744 13.897-12.744 2.439 0 3.982.857 6.302 3.5 3.54 4.03 4.885 4.271 8.407 1.5 3.243-2.55 5.783-2.53 9.093.073 4.464 3.512 3.476 6.488-6.787 20.461l-4.92 6.7 2.174 1.633c2.544 1.911 9.655 5.615 20.167 10.506 6.778 3.154 15.588 8.833 20.273 13.07 1.388 1.255 1.543 2.033.715 3.58-1.172 2.19-4.049 2.55-7.144.894-1.494-.8-2.839-.747-5.13.202-1.706.707-4.14 1.2-5.408 1.095-3.305-.274-16.573-7.14-26.03-13.469l-8.104-5.425-7.609 7.342c-6.489 6.261-9.554 8.29-20.835 13.79-7.275 3.547-14.336 6.584-15.69 6.749-1.92.234-2.62 1.069-3.172 3.784-.39 1.916-1.938 4.541-3.44 5.834-2.693 2.316-6.437 2.578-14.926 1.043-1.628-.294-2 .185-2 2.577 0 2.813.309 3.015 7.268 4.767l7.267 1.83 3.036-2.245c3.494-2.584 9.358-2.97 13.275-.873 2.932 1.57 5.654 6.641 5.654 10.534 0 12.864-19.397 15.968-23.075 3.691-1.07-3.57-1.806-4.217-7.592-6.676-3.525-1.498-6.541-2.553-6.703-2.345-.99 1.272-4.803 13.038-4.367 13.474.291.292 4.29 1.18 8.884 1.973 14.589 2.519 27.974 11.206 30.893 20.05 1.499 4.542.69 10.923-1.813 14.295-6.363 8.576-27.145 13.674-40.727 9.991-5.002-1.356-12.858-6.275-14.831-9.288l-1.493-2.278 5.162 1.446c2.84.795 9.437 1.506 14.662 1.58 10.835.155 14.987-1.466 18.302-7.141l1.873-3.206-2.809-1.068c-2.937-1.117-18.693-3.597-26.275-4.136-4.373-.31-4.42-.279-5.813 3.878-.778 2.32-3.05 5.675-5.091 7.516-3.474 3.132-3.634 3.538-2.768 7.025 1.154 4.653-.618 11.058-3.992 14.432-3.428 3.428-4.344 13.667-1.958 21.877 1.54 5.294 1.86 5.73 3.035 4.123 1.805-2.47 3.496-12.866 3.496-21.496 0-3.943.431-7.168.958-7.168 1.901 0 5.94 8.64 7.054 15.092 1.17 6.778 1.136 7.226-2.504 31.908-2.936 19.911-4.968 27-7.74 27-.65 0-3.911-2.813-7.248-6.25zm-1.474-70.299c4.58-4.874 1.876-10.785-5.432-11.881-5.392-.809-7.307-.062-9.191 3.58-1.957 3.785-.275 7.673 4.31 9.965 3.968 1.983 7.41 1.427 10.313-1.664zm7.33-23.321c6.06-6.326 1.35-16.13-7.75-16.13-3.32 0-8.328 4.371-9.116 7.954-.88 4.005 1.77 8.85 5.259 9.62 1.502.33 3.181.751 3.731.935 2.884.962 5.406.2 7.877-2.38zm45.624-4.652c0-5.481-15.376-17.435-22.5-17.492-3.528-.028-4.246-1.335-4.942-8.986-.84-9.252-3.525-24.979-4.606-26.991-.627-1.167-2.2-.077-7.218 5-6.266 6.34-6.456 6.689-8.151 14.991-.955 4.675-1.956 9.287-2.226 10.25-.347 1.237.333 2.048 2.326 2.77 1.55.562 3.908 1.575 5.241 2.251 2.934 1.488 8.076 9.295 8.076 12.261 0 2.076.306 2.127 10.25 1.7 10.178-.437 10.296-.415 16.75 3.067 3.575 1.93 6.613 3.551 6.75 3.605.138.053.25-1.039.25-2.426zm-90.5-2.651c1.65-.53 6.488-.993 10.75-1.028 6.938-.056 7.75-.262 7.75-1.97 0-3.073 3.725-9.499 6.728-11.606 1.525-1.07 4.486-2.501 6.58-3.18 3.575-1.16 3.77-1.43 3.18-4.39-1.65-8.283-4.776-15.642-8.097-19.062-3.614-3.721-13.13-9.184-14.176-8.138-.323.323-.56 3.45-.527 6.95.042 4.563.765 7.905 2.55 11.805l2.49 5.44-4.336 2.3c-7.608 4.037-16.288 14.59-18.879 22.954-.641 2.07-.487 2.297 1.122 1.645 1.026-.415 3.215-1.19 4.865-1.72zm49.386-56.69l3.386-2.807-3.013-2.146c-5.152-3.668-18.788-6.42-21.902-4.418-.771.495.68 3.554 4.46 9.396l5.603 8.661 4.04-2.94c2.222-1.617 5.564-4.203 7.426-5.747zm94.075-50.079c6.123-9.015 2.757-9.077-7.616-.138-4.067 3.503-4.11 3.606-2 4.795 3.902 2.199 5.479 1.435 9.616-4.657zm-76.396 207.014c-1.601-1.77-1.654-3.087-.644-15.946 1.765-22.463 4.835-29.23 19.356-42.675 8.035-7.44 23.728-18.247 31.034-21.373 10.176-4.354 24.484-4.65 34.028-.704l3.161 1.307-5.766 1.692c-21.06 6.181-45.744 23.616-58.224 41.127-5.051 7.088-10.525 17.82-13.007 25.5-2.47 7.645-5.299 13-6.868 13-.729 0-2.11-.868-3.07-1.928zm17.435-9.789c0-1.238 7.024-12.316 12.86-20.283 16.12-22.008 32.747-33.428 54.64-37.532 13.855-2.597 23.501-1.76 32.83 2.85 7.316 3.616 15.812 10.859 20.561 17.529l2.246 3.153h-3.121c-1.716 0-6.34-.732-10.274-1.627-9.644-2.193-28.01-1.462-39.742 1.583-9.187 2.384-14.448 4.957-43.5 21.28-19.295 10.84-26.5 14.388-26.5 13.047zm55.948-129.533c-5.075-5.309-6.933-7.976-6.939-9.964-.017-5.354 6.156-6.235 14.624-2.09 6.592 3.229 7.74 5.067 7.13 11.417-1.002 10.434-5.276 10.618-14.815.637zm1.052-20.177c0-1.49-1.132-3.325-2.932-4.75-3.698-2.93-4.818-6.93-2.569-9.179 2.163-2.162 9.095-2.027 13.001.254 2.452 1.432 3.056 2.508 3.306 5.89.285 3.852.076 4.235-3 5.52-1.818.76-3.923 2.127-4.678 3.037-1.944 2.345-3.128 2.052-3.128-.772z" fill="#8e958d"/><path d="M57.241 444.488c-20.81-4.56-40.342-19.557-49.446-37.966-8.02-16.22-7.327-.158-7.7-178.55-.246-117.086-.027-161.495.82-167C5.668 30.104 31.168 5.678 63.521 1.001c9.243-1.336 222.47-1.336 231.713 0 28.259 4.085 51.428 23.118 60.49 49.691l2.653 7.778.271 160.98c.306 181.78.774 169.952-7.384 186.465-3.872 7.835-6.134 10.902-13.277 18-9.836 9.774-16.405 13.968-28.848 18.42l-8.762 3.135-118.5.181c-96.053.146-119.662-.074-124.636-1.164zm246.136-4.793c25.416-7.385 44.995-27.664 49.456-51.224.826-4.365 1.055-50.262.84-168.5l-.296-162.5-2.223-6.5c-6.845-20.008-22.912-35.655-43.999-42.847l-7.778-2.653h-240l-8 2.808c-11.041 3.875-20.282 9.58-27.71 17.109-7.415 7.514-11.929 14.67-15.61 24.749l-2.68 7.334-.264 163.419c-.296 182.413-.83 168.198 6.925 184.081 6.868 14.066 21.47 26.957 36.887 32.566 11.675 4.248 13.095 4.291 133.452 4.092 106.054-.176 115.467-.326 121-1.934zm-145.5-46.344c-10.312-6.775-33.378-18.146-45.036-22.203-20.891-7.268-41.11-10.733-70.714-12.118-2.128-.1-1.378-2.744 1.27-4.48 3.598-2.357 18.747-7.128 27.036-8.514 8.453-1.413 24.859-1.868 28.694-.796 1.513.423 2.75 1.34 2.75 2.036 0 .895-3.866 1.636-13.161 2.522-15.345 1.463-18.732 2.61-10.756 3.64 27.9 3.603 64.267 16.1 84.484 29.033l5.541 3.544 7.696-5.08c9.75-6.435 33-17.855 44.595-21.904 9.286-3.244 31.084-8.06 36.477-8.06 1.718 0 3.121-.337 3.117-.75-.004-.412-4.55-2.55-10.101-4.75-10.051-3.982-12.444-5.85-9.787-7.643 1.984-1.34 12.26-.14 19.895 2.323 10.576 3.411 24.688 10.368 25.997 12.815 1.707 3.188.334 4.042-8.13 5.058-4.052.487-13.442 1.618-20.867 2.514-32.307 3.897-57.192 13.817-79.896 31.851-4.558 3.62-8.808 6.574-9.445 6.564-.637-.01-4.984-2.531-9.659-5.602zm7.5-17.994c-18.039-12.643-30.696-18.2-46.74-20.52l-8.433-1.22-1.164-10.072c-.64-5.54-2.135-18.306-3.322-28.368l-2.158-18.295-2.746.603c-3.777.83-4.648-1.128-1.835-4.122 3.126-3.327 14.944-9.126 20.207-9.915 2.35-.353 7.855-.141 12.233.47 27.318 3.815 32.82 3.5 61.781-3.532 18.42-4.474 19.611-4.636 30.177-4.13 11.612.558 26.286 4.072 29.21 6.996 2.67 2.67.537 3.919-6.072 3.556l-6.138-.337-4.463 30.185-4.464 30.185-4.536 1.14c-8.362 2.098-25.4 8.979-32 12.921-3.595 2.148-10.461 7.092-15.258 10.987-4.797 3.895-8.847 7.058-9 7.027-.153-.03-2.529-1.632-5.279-3.56zm5.9-9.083c-2.193-1.604-3.075-1.637-3.993-.15-1.13 1.826 2.602 4.085 4.352 2.633 1.215-1.008 1.162-1.37-.36-2.483zm-9.484-4.7c.919-1.108.596-1.842-1.557-3.535-2.488-1.957-2.85-2.003-4.288-.538-1.43 1.456-1.359 1.773.79 3.535 2.812 2.306 3.524 2.381 5.055.538zm20.749-1.16l3.352-2.557-3.085-2.597-3.086-2.596-3.1 3.1-3.1 3.1 2.427 2.02c3.038 2.53 2.62 2.56 6.592-.47zm-33.112-10.58c-3.074-2.418-3.742-2.355-6.536.62l-2.332 2.481 3.408 1.443c3.156 1.335 3.57 1.29 5.618-.62l2.21-2.06-2.368-1.864zm21.133 1.963c2.946-2.768 2.92-4.2-.116-6.188-2.333-1.529-2.535-1.468-5.041 1.51-2.472 2.938-2.52 3.204-.915 4.978 2.184 2.413 3.24 2.36 6.072-.3zm25.564-3.62l3.75-4.697-2.25-1.783c-5.04-3.993-5.311-3.966-9.321.927l-3.78 4.612 3.426 2.841c1.884 1.562 3.65 2.831 3.925 2.82.275-.013 2.188-2.136 4.25-4.72zm-58.303-2.65l2.296-2.443-2.871-2.525c-1.58-1.388-3.13-2.539-3.447-2.556-.317-.017-1.667 1.133-3 2.557l-2.425 2.589 3 2.406c3.694 2.963 3.638 2.963 6.447-.027zm22.222-8.106l-2.669-2.315-3.305 3.183-3.306 3.182 2.787 2.222 2.787 2.222 3.188-3.09 3.187-3.089-2.669-2.315zm64.128 3.571c.82-.735-5.422-6.02-7.111-6.02-.522 0-2.2 1.64-3.729 3.645-2.586 3.39-2.659 3.733-1.045 4.914 1.416 1.035 2.597.984 6.412-.278 2.572-.851 5.035-1.868 5.473-2.26zm-106.297 2.538c0-.242-.45-.719-1-1.059-.55-.34-1-.141-1 .441 0 .583.45 1.06 1 1.06s1-.199 1-.442zm66.275-11.914l-2.428-1.91-4.426 4.343-4.425 4.343 2.752 2.209 2.752 2.209 4.102-4.642 4.102-4.642-2.429-1.91zm-57.306 1.431c-.017-.317-1.176-1.41-2.575-2.43-2.504-1.824-2.583-1.817-4.99.446l-2.448 2.298 2.772 2.226 2.772 2.227 2.25-2.096c1.238-1.152 2.236-2.354 2.219-2.67zm80.782-5.335l-3.198-2.76-3.526 3.577-3.527 3.576 3.485 2.952 3.484 2.952 3.24-3.769 3.24-3.769-3.198-2.76zm-59.038 5.558l2.385-3.093-3.144-2.239-3.144-2.238-3.155 3.196-3.155 3.197 3 2.434c3.553 2.882 4.094 2.788 7.213-1.257zm26.256-8.177c-.017-.342-1.222-1.49-2.677-2.552l-2.646-1.93-3.844 4.43-3.844 4.43 2.736 2.387 2.736 2.387 3.785-4.265c2.082-2.346 3.771-4.545 3.754-4.887zm52.406 3.753c.344-1.718.612-4.08.596-5.25-.026-1.907-.341-1.782-3.07 1.22-2.903 3.192-2.962 3.43-1.316 5.25 2.377 2.626 3.066 2.404 3.79-1.22zm-90.95-9.691l-2.691-2.317-3.422 3.316-3.423 3.317 2.787 2.222 2.787 2.222 3.326-3.222 3.327-3.222-2.691-2.316zm59.232-.24c-1.36-1.069-2.685-1.944-2.946-1.944-.26 0-1.727 1.645-3.26 3.655l-2.788 3.654 2.392 1.936 2.391 1.937 3.342-3.646 3.341-3.647-2.472-1.944zm-35.382 1.576l3.775-4.292-3.119-1.974-3.118-1.975-3.845 4.11-3.845 4.111 2.689 2.214c1.479 1.218 2.913 2.188 3.188 2.156.275-.032 2.199-1.99 4.275-4.35zm57.92.793c3.524-3.376 3.513-4.413-.075-7.066l-2.88-2.129-3.05 3.797-3.052 3.797 2.681 2.089c3.4 2.648 3.078 2.673 6.377-.488zM184.49 310.86c-1.808-1.465-2.438-1.512-4.674-.356-1.421.735-3.213 2.094-3.982 3.02-1.233 1.486-1.053 1.96 1.517 4.009l2.914 2.324 3.158-3.653 3.157-3.652-2.09-1.692zm-59.613-.905c-2.561-1.986-5.587-2.315-10-1.088-3.622 1.008-3.074 3.566 1.5 7.004l4 3.007 3.5-3.492 3.5-3.492-2.5-1.939zm22.367 2.157l2.74-2.86-3.757-.61c-2.73-.443-4.251-.164-5.562 1.022-1.685 1.525-1.694 1.754-.14 3.47 2.27 2.51 3.517 2.32 6.719-1.022zm59.032-.773l2.9-3.633-2.4-1.86c-2.393-1.853-2.407-1.85-5.79 1.773l-3.39 3.632 2.39 1.838c1.315 1.012 2.616 1.849 2.891 1.861.275.012 1.805-1.613 3.4-3.61zm22.529-3.002c1.14-1.449 2.072-3.924 2.072-5.5 0-2.327-.433-2.865-2.313-2.865-2.144 0-7.687 4.611-7.687 6.395 0 .878 4.124 4.52 5.178 4.572.372.018 1.61-1.152 2.75-2.602zm-40.662-8.637c15.9-6.316 24.997-8.093 35.666-6.968 8.867.935 8.785.973 9.283-4.26l.285-3-8-.67c-11.217-.942-20.379.444-35.196 5.326-15.22 5.014-26.1 5.909-45.058 3.708-13.865-1.61-32.716-1.797-34.171-.34-.575.576-.751 2.694-.403 4.843.608 3.741.693 3.807 4.224 3.257 12.259-1.91 22.708-1.673 34.104.773 17.3 3.712 24.418 3.229 39.266-2.669zm27.734.772c1.053-1.268.84-1.5-1.377-1.5-2.535 0-3.335.955-1.956 2.334 1.035 1.035 1.979.799 3.333-.834zm48.492-7.77c10.021-11.303 16.937-20.467 19.259-25.517 2.279-4.958 2.33-5.44.827-7.734-.881-1.346-2.778-2.742-4.214-3.102-4.91-1.233-20.854.488-32.828 3.542-6.622 1.69-12.346 2.67-12.82 2.197-1.104-1.104 12.714-9.665 26.784-16.594 19.608-9.656 36.941-13.071 48.824-9.621 16.412 4.765 14.942 22.25-3.002 35.72-10.195 7.651-31.123 19.516-43.644 24.742l-3.822 1.595 4.636-5.229zM77 275.22c-1.078-3.712-2.517-9.329-3.197-12.481-.783-3.633-1.82-5.897-2.83-6.181-1.555-.438-11.579-1.726-27.425-3.525-8.363-.95-9.985-1.61-7.642-3.117 3.82-2.457 10.25-3.441 22.038-3.374l12.567.07-2.273-12.57c-2.75-15.203-3-23.29-.79-25.5 3.832-3.831 9.706-1.214 26.25 11.698 12.97 10.123 26.212 22.59 33.463 31.506 5.842 7.182 14.716 20.08 14.716 21.386 0 .978-28.722-21.099-43.21-33.213-5.891-4.926-11.866-9.482-13.277-10.125-4.126-1.88-4.74-.27-3.957 10.39l.695 9.472 5.125 1.275c11.687 2.907 26.4 10.574 24.318 12.673-.444.447-6.969-.422-14.5-1.932-7.532-1.509-14.031-2.734-14.444-2.723-.412.012-.75 4.484-.75 9.94 0 15.113-1.688 17.304-4.877 6.331zm80.923 0c-3.053-3.162-12.566-13.85-21.14-23.75-8.573-9.9-22.243-25.2-30.378-34-16.09-17.405-27.528-31.208-27.528-33.223 0-3.669 5.513.025 28.05 18.793 19.157 15.952 21.09 17.946 31.455 32.43 11.136 15.561 15.746 20.367 17.856 18.616 2.884-2.394 2.921-6.107.09-8.939-6.578-6.577-7.703-14.497-3.932-27.677.5-1.748.049-2.03-3.582-2.235-9.123-.516-15.937-7.384-15.937-16.065 0-4.782 1.084-7.444 4.557-11.2 2.121-2.292 2.218-2.853 1.172-6.75-1.314-4.891-2.33-5.15-10.58-2.701-5.03 1.493-14.149 8.667-14.149 11.13 0 2.093 6.237 9.53 10.529 12.554 2.442 1.722 4.282 3.29 4.088 3.484-.69.69-11.282-3.753-15.834-6.64-5.148-3.265-12.114-11.478-14.907-17.577-2.447-5.343-2.45-15.64-.005-21.02 2.347-5.167 10.881-12.838 16.795-15.096 3.765-1.438 4.264-1.897 2.722-2.502-5.236-2.056-7.684-1-20.062 8.656-9.834 7.67-12.31 10.115-12.881 12.715-1.449 6.595-5.343 9.747-12.041 9.747-4.916 0-8.856-2.325-10.769-6.357-2.156-4.544-2.057-7.437.391-11.453 2.927-4.8 7.931-6.64 14.065-5.168 4.793 1.15 4.9 1.12 14.344-3.986 5.233-2.83 9.74-5.51 10.017-5.957.276-.446-2.876-1.357-7.005-2.023l-7.506-1.21-3.505 3.077c-5.752 5.05-14.621 4.02-18.488-2.148-2.907-4.637-2.087-10.367 2.006-14.025 4.282-3.825 11.528-3.898 15.97-.16 1.692 1.423 3.076 3.197 3.076 3.94 0 .744.439 1.623.975 1.954 1.436.888 23.034 4.262 22.977 3.59-.026-.315-2.162-2.261-4.745-4.324-4.027-3.214-5.418-3.75-9.73-3.75-7.02 0-11.695-3.378-12.887-9.312-1.774-8.838 8.34-15.25 17.812-11.293 4.542 1.898 6.598 5.172 6.598 10.508 0 3.536.856 5.772 4.137 10.807 2.276 3.493 4.276 6.211 4.445 6.042.17-.17-.107-2.095-.613-4.28-4.495-19.389 4.929-34.008 24.214-37.561 17.178-3.165 38.965 6.47 49.994 22.11 3.572 5.064 4.37 5.732 4.957 4.146 1.232-3.33 5.856-6.167 10.05-6.167 4.762 0 9.45 2.268 10.313 4.99.351 1.105 1.043 2.01 1.537 2.01 3.246 0 32.814-27.109 35.94-32.951 1.01-1.886.759-2.263-2.39-3.578-1.936-.809-4.514-1.47-5.73-1.47-4.303 0-8.854-2.291-8.854-4.457 0-1.149 4.707-7.678 10.667-14.8 9.62-11.492 10.984-12.744 13.897-12.744 2.439 0 3.982.857 6.302 3.5 3.54 4.03 4.885 4.271 8.407 1.5 3.243-2.55 5.783-2.53 9.093.073 4.464 3.512 3.476 6.488-6.787 20.461l-4.92 6.7 2.174 1.633c2.544 1.911 9.655 5.615 20.167 10.506 6.778 3.154 15.588 8.833 20.273 13.07 1.388 1.255 1.543 2.033.715 3.58-1.172 2.19-4.049 2.55-7.144.894-1.494-.8-2.839-.747-5.13.202-1.706.707-4.14 1.2-5.408 1.095-3.305-.274-16.573-7.14-26.03-13.469l-8.104-5.425-7.609 7.342c-6.489 6.261-9.554 8.29-20.835 13.79-7.275 3.547-14.336 6.584-15.69 6.749-1.92.234-2.62 1.069-3.172 3.784-.39 1.916-1.938 4.541-3.44 5.834-2.693 2.316-6.437 2.578-14.926 1.043-1.628-.294-2 .185-2 2.577 0 2.813.309 3.015 7.268 4.767l7.267 1.83 3.036-2.245c3.494-2.584 9.358-2.97 13.275-.873 2.932 1.57 5.654 6.641 5.654 10.534 0 12.864-19.397 15.968-23.075 3.691-1.07-3.57-1.806-4.217-7.592-6.676-3.525-1.498-6.541-2.553-6.703-2.345-.99 1.272-4.803 13.038-4.367 13.474.291.292 4.29 1.18 8.884 1.973 14.589 2.519 27.974 11.206 30.893 20.05 1.499 4.542.69 10.923-1.813 14.295-6.363 8.576-27.145 13.674-40.727 9.991-5.002-1.356-12.858-6.275-14.831-9.288l-1.493-2.278 5.162 1.446c2.84.795 9.437 1.506 14.662 1.58 10.835.155 14.987-1.466 18.302-7.141l1.873-3.206-2.809-1.068c-2.937-1.117-18.693-3.597-26.275-4.136-4.373-.31-4.42-.279-5.813 3.878-.778 2.32-3.05 5.675-5.091 7.516-3.474 3.132-3.634 3.538-2.768 7.025 1.186 4.78-.648 11.103-4.245 14.64-2.53 2.486-2.673 3.14-2.654 12.128.023 10.59 1.548 16.019 3.942 14.032 1.714-1.423 3.193-8.576 4.087-19.777.363-4.54 1.068-7.992 1.57-7.682 2.479 1.532 5.127 9.253 5.615 16.371.553 8.072-3.44 39.557-6.316 49.806-1.994 7.104-4.12 7.01-11.372-.5zm-1-69.799c4.58-4.874 1.876-10.785-5.432-11.881-5.392-.809-7.307-.062-9.191 3.58-1.957 3.785-.275 7.673 4.31 9.965 3.968 1.983 7.41 1.427 10.313-1.664zm7.33-23.321c6.06-6.326 1.35-16.13-7.75-16.13-3.32 0-8.328 4.371-9.116 7.954-.88 4.005 1.77 8.85 5.259 9.62 1.502.33 3.181.751 3.731.935 2.884.962 5.406.2 7.877-2.38zm45.624-4.652c0-5.481-15.376-17.435-22.5-17.492-3.528-.028-4.246-1.335-4.942-8.986-.84-9.252-3.525-24.979-4.606-26.991-.627-1.167-2.2-.077-7.218 5-6.266 6.34-6.456 6.689-8.151 14.991-.955 4.675-1.956 9.287-2.226 10.25-.347 1.237.333 2.048 2.326 2.77 1.55.562 3.908 1.575 5.241 2.251 2.934 1.488 8.076 9.295 8.076 12.261 0 2.076.306 2.127 10.25 1.7 10.178-.437 10.296-.415 16.75 3.067 3.575 1.93 6.613 3.551 6.75 3.605.138.053.25-1.039.25-2.426zm-90.5-2.651c1.65-.53 6.488-.993 10.75-1.028 6.938-.056 7.75-.262 7.75-1.97 0-3.073 3.725-9.499 6.728-11.606 1.525-1.07 4.486-2.501 6.58-3.18 3.575-1.16 3.77-1.43 3.18-4.39-1.65-8.283-4.776-15.642-8.097-19.062-3.614-3.721-13.13-9.184-14.176-8.138-.323.323-.56 3.45-.527 6.95.042 4.563.765 7.905 2.55 11.805l2.49 5.44-4.336 2.3c-7.608 4.037-16.288 14.59-18.879 22.954-.641 2.07-.487 2.297 1.122 1.645 1.026-.415 3.215-1.19 4.865-1.72zm49.386-56.69l3.386-2.807-3.013-2.146c-5.152-3.668-18.788-6.42-21.902-4.418-.771.495.68 3.554 4.46 9.396l5.603 8.661 4.04-2.94c2.222-1.617 5.564-4.203 7.426-5.747zm94.075-50.079c6.123-9.015 2.757-9.077-7.616-.138-4.067 3.503-4.11 3.606-2 4.795 3.902 2.199 5.48 1.435 9.616-4.657zm-75.99 207.406c-.969-1.166-1.114-4.6-.605-14.25.816-15.478 1.872-21.105 5.262-28.052 7.015-14.372 35.539-36.302 52.259-40.178 6.127-1.42 19.73-.834 25 1.078l3.385 1.229-7.386 2.704c-16.914 6.192-29.864 14.145-42.187 25.91-13.722 13.1-20.852 23.924-26.6 40.384-1.689 4.834-3.542 9.671-4.12 10.75-1.259 2.353-3.267 2.524-5.009.425zm19.435-14.714c5.198-8.77 15.231-22.229 21.869-29.336 14.1-15.099 28.945-22.213 51.144-24.51 10.877-1.125 17.708-.065 26.105 4.048 7.943 3.891 22.135 17.723 20.185 19.673-.31.31-4.533-.267-9.386-1.281-15.95-3.333-37.283-1.642-51.262 4.063-3.058 1.249-13.953 7.04-24.21 12.87-19.83 11.271-34.113 18.723-35.885 18.723-.593 0 .055-1.912 1.44-4.25zm53.542-125c-5.075-5.309-6.933-7.976-6.939-9.964-.017-5.354 6.156-6.235 14.624-2.09 6.592 3.229 7.74 5.067 7.13 11.417-1.002 10.434-5.276 10.618-14.815.637zm1.052-20.177c0-1.49-1.132-3.325-2.932-4.75-3.698-2.93-4.818-6.93-2.568-9.179 2.162-2.162 9.094-2.027 13 .254 2.452 1.432 3.056 2.508 3.306 5.89.285 3.852.076 4.235-3 5.52-1.818.76-3.923 2.127-4.678 3.037-1.944 2.345-3.128 2.052-3.128-.772z" fill="#a55357"/><path d="M57.241 444.488c-20.81-4.56-40.342-19.557-49.446-37.966-8.02-16.22-7.327-.158-7.7-178.55-.246-117.086-.027-161.495.82-167C5.668 30.104 31.168 5.678 63.521 1.001c9.243-1.336 222.47-1.336 231.713 0 28.259 4.085 51.428 23.118 60.49 49.691l2.653 7.778.271 160.98c.306 181.78.774 169.952-7.384 186.465-3.872 7.835-6.134 10.902-13.277 18-9.836 9.774-16.405 13.968-28.848 18.42l-8.762 3.135-118.5.181c-96.053.146-119.662-.074-124.636-1.164zm246.136-4.793c25.416-7.385 44.995-27.664 49.456-51.224.826-4.365 1.055-50.262.84-168.5l-.296-162.5-2.223-6.5c-6.845-20.008-22.912-35.655-43.999-42.847l-7.778-2.653h-240l-8 2.808c-11.041 3.875-20.282 9.58-27.71 17.109-7.415 7.514-11.929 14.67-15.61 24.749l-2.68 7.334-.264 163.419c-.296 182.413-.83 168.198 6.925 184.081 6.868 14.066 21.47 26.957 36.887 32.566 11.675 4.248 13.095 4.291 133.452 4.092 106.054-.176 115.467-.326 121-1.934zm-145.5-46.344c-10.312-6.775-33.378-18.146-45.036-22.203-20.891-7.268-41.11-10.733-70.714-12.118-2.128-.1-1.378-2.744 1.27-4.48 3.598-2.357 18.747-7.128 27.036-8.514 8.453-1.413 24.859-1.868 28.694-.796 1.513.423 2.75 1.34 2.75 2.036 0 .895-3.866 1.636-13.161 2.522-15.345 1.463-18.732 2.61-10.756 3.64 27.9 3.603 64.267 16.1 84.484 29.033l5.541 3.544 7.696-5.08c9.75-6.435 33-17.855 44.595-21.904 9.286-3.244 31.084-8.06 36.477-8.06 1.718 0 3.121-.337 3.117-.75-.004-.412-4.55-2.55-10.101-4.75-10.051-3.982-12.444-5.85-9.787-7.643 1.984-1.34 12.26-.14 19.895 2.323 10.576 3.411 24.688 10.368 25.997 12.815 1.707 3.188.334 4.042-8.13 5.058-4.052.487-13.442 1.618-20.867 2.514-32.307 3.897-57.192 13.817-79.896 31.851-4.558 3.62-8.808 6.574-9.445 6.564-.637-.01-4.984-2.531-9.659-5.602zm7.5-17.994c-18.039-12.643-30.696-18.2-46.74-20.52l-8.433-1.22-1.164-10.072c-.64-5.54-2.135-18.306-3.322-28.368l-2.158-18.295-2.746.603c-3.777.83-4.648-1.128-1.835-4.122 3.126-3.327 14.944-9.126 20.207-9.915 2.35-.353 7.855-.141 12.233.47 27.318 3.815 32.82 3.5 61.781-3.532 18.42-4.474 19.611-4.636 30.177-4.13 11.612.558 26.286 4.072 29.21 6.996 2.67 2.67.537 3.919-6.072 3.556l-6.138-.337-4.463 30.185-4.464 30.185-4.536 1.14c-8.362 2.098-25.4 8.979-32 12.921-3.595 2.148-10.461 7.092-15.258 10.987-4.797 3.895-8.847 7.058-9 7.027-.153-.03-2.529-1.632-5.279-3.56zm5.9-9.083c-2.193-1.604-3.075-1.637-3.993-.15-1.13 1.826 2.602 4.085 4.352 2.633 1.215-1.008 1.162-1.37-.36-2.483zm-9.484-4.7c.919-1.108.596-1.842-1.557-3.535-2.488-1.957-2.85-2.003-4.288-.538-1.43 1.456-1.359 1.773.79 3.535 2.812 2.306 3.524 2.381 5.055.538zm20.749-1.16l3.352-2.557-3.085-2.597-3.086-2.596-3.1 3.1-3.1 3.1 2.427 2.02c3.038 2.53 2.62 2.56 6.592-.47zm-33.112-10.58c-3.074-2.418-3.742-2.355-6.536.62l-2.332 2.481 3.408 1.443c3.156 1.335 3.57 1.29 5.618-.62l2.21-2.06-2.368-1.864zm21.133 1.963c2.946-2.768 2.92-4.2-.116-6.188-2.333-1.529-2.535-1.468-5.041 1.51-2.472 2.938-2.52 3.204-.915 4.978 2.184 2.413 3.24 2.36 6.072-.3zm25.564-3.62l3.75-4.697-2.25-1.783c-5.04-3.993-5.311-3.966-9.321.927l-3.78 4.612 3.426 2.841c1.884 1.562 3.65 2.831 3.925 2.82.275-.013 2.188-2.136 4.25-4.72zm-58.303-2.65l2.296-2.443-2.871-2.525c-1.58-1.388-3.13-2.539-3.447-2.556-.317-.017-1.667 1.133-3 2.557l-2.425 2.589 3 2.406c3.694 2.963 3.638 2.963 6.447-.027zm22.222-8.106l-2.669-2.315-3.305 3.183-3.306 3.182 2.787 2.222 2.787 2.222 3.188-3.09 3.187-3.089-2.669-2.315zm64.128 3.571c.82-.735-5.422-6.02-7.111-6.02-.522 0-2.2 1.64-3.729 3.645-2.586 3.39-2.659 3.733-1.045 4.914 1.416 1.035 2.597.984 6.412-.278 2.572-.851 5.035-1.868 5.473-2.26zm-106.297 2.538c0-.242-.45-.719-1-1.059-.55-.34-1-.141-1 .441 0 .583.45 1.06 1 1.06s1-.199 1-.442zm66.275-11.914l-2.428-1.91-4.426 4.343-4.425 4.343 2.752 2.209 2.752 2.209 4.102-4.642 4.102-4.642-2.429-1.91zm-57.306 1.431c-.017-.317-1.176-1.41-2.575-2.43-2.504-1.824-2.583-1.817-4.99.446l-2.448 2.298 2.772 2.226 2.772 2.227 2.25-2.096c1.238-1.152 2.236-2.354 2.219-2.67zm80.782-5.335l-3.198-2.76-3.526 3.577-3.527 3.576 3.485 2.952 3.484 2.952 3.24-3.769 3.24-3.769-3.198-2.76zm-59.038 5.558l2.385-3.093-3.144-2.239-3.144-2.238-3.155 3.196-3.155 3.197 3 2.434c3.553 2.882 4.094 2.788 7.213-1.257zm26.256-8.177c-.017-.342-1.222-1.49-2.677-2.552l-2.646-1.93-3.844 4.43-3.844 4.43 2.736 2.387 2.736 2.387 3.785-4.265c2.082-2.346 3.771-4.545 3.754-4.887zm52.406 3.753c.344-1.718.612-4.08.596-5.25-.026-1.907-.341-1.782-3.07 1.22-2.903 3.192-2.962 3.43-1.316 5.25 2.377 2.626 3.066 2.404 3.79-1.22zm-90.95-9.691l-2.691-2.317-3.422 3.316-3.423 3.317 2.787 2.222 2.787 2.222 3.326-3.222 3.327-3.222-2.691-2.316zm59.232-.24c-1.36-1.069-2.685-1.944-2.946-1.944-.26 0-1.727 1.645-3.26 3.655l-2.788 3.654 2.392 1.936 2.391 1.937 3.342-3.646 3.341-3.647-2.472-1.944zm-35.382 1.576l3.775-4.292-3.119-1.974-3.118-1.975-3.845 4.11-3.845 4.111 2.689 2.214c1.479 1.218 2.913 2.188 3.188 2.156.275-.032 2.199-1.99 4.275-4.35zm57.92.793c3.524-3.376 3.513-4.413-.075-7.066l-2.88-2.129-3.05 3.797-3.052 3.797 2.681 2.089c3.4 2.648 3.078 2.673 6.377-.488zM184.49 310.86c-1.808-1.465-2.438-1.512-4.674-.356-1.421.735-3.213 2.094-3.982 3.02-1.233 1.486-1.053 1.96 1.517 4.009l2.914 2.324 3.158-3.653 3.157-3.652-2.09-1.692zm-59.613-.905c-2.561-1.986-5.587-2.315-10-1.088-3.622 1.008-3.074 3.566 1.5 7.004l4 3.007 3.5-3.492 3.5-3.492-2.5-1.939zm22.367 2.157l2.74-2.86-3.757-.61c-2.73-.443-4.251-.164-5.562 1.022-1.685 1.525-1.694 1.754-.14 3.47 2.27 2.51 3.517 2.32 6.719-1.022zm59.032-.773l2.9-3.633-2.4-1.86c-2.393-1.853-2.407-1.85-5.79 1.773l-3.39 3.632 2.39 1.838c1.315 1.012 2.616 1.849 2.891 1.861.275.012 1.805-1.613 3.4-3.61zm22.529-3.002c1.14-1.449 2.072-3.924 2.072-5.5 0-2.327-.433-2.865-2.313-2.865-2.144 0-7.687 4.611-7.687 6.395 0 .878 4.124 4.52 5.178 4.572.372.018 1.61-1.152 2.75-2.602zm-40.662-8.637c15.9-6.316 24.997-8.093 35.666-6.968 8.867.935 8.785.973 9.283-4.26l.285-3-8-.67c-11.217-.942-20.379.444-35.196 5.326-15.22 5.014-26.1 5.909-45.058 3.708-13.865-1.61-32.716-1.797-34.171-.34-.575.576-.751 2.694-.403 4.843.608 3.741.693 3.807 4.224 3.257 12.259-1.91 22.708-1.673 34.104.773 17.3 3.712 24.418 3.229 39.266-2.669zm27.734.772c1.053-1.268.84-1.5-1.377-1.5-2.535 0-3.335.955-1.956 2.334 1.035 1.035 1.979.799 3.333-.834zm48.492-7.77c10.021-11.303 16.937-20.467 19.259-25.517 2.279-4.958 2.33-5.44.827-7.734-.881-1.346-2.778-2.742-4.214-3.102-4.91-1.233-20.854.488-32.828 3.542-6.622 1.69-12.346 2.67-12.82 2.197-1.104-1.104 12.714-9.665 26.784-16.594 19.608-9.656 36.941-13.071 48.824-9.621 16.412 4.765 14.942 22.25-3.002 35.72-10.195 7.651-31.123 19.516-43.644 24.742l-3.822 1.595 4.636-5.229zM77 275.22c-1.078-3.712-2.517-9.329-3.197-12.481-.783-3.633-1.82-5.897-2.83-6.181-1.555-.438-11.579-1.726-27.425-3.525-8.363-.95-9.985-1.61-7.642-3.117 3.82-2.457 10.25-3.441 22.038-3.374l12.567.07-2.273-12.57c-2.75-15.203-3-23.29-.79-25.5 3.832-3.831 9.706-1.214 26.25 11.698 12.97 10.123 26.212 22.59 33.463 31.506 5.842 7.182 14.716 20.08 14.716 21.386 0 .978-28.722-21.099-43.21-33.213-5.891-4.926-11.866-9.482-13.277-10.125-4.126-1.88-4.74-.27-3.957 10.39l.695 9.472 5.125 1.275c11.687 2.907 26.4 10.574 24.318 12.673-.444.447-6.969-.422-14.5-1.932-7.532-1.509-14.031-2.734-14.444-2.723-.412.012-.75 4.484-.75 9.94 0 15.113-1.688 17.304-4.877 6.331zm80.923 0c-3.053-3.162-12.566-13.85-21.14-23.75-8.573-9.9-22.243-25.2-30.378-34-16.09-17.405-27.528-31.208-27.528-33.223 0-3.669 5.513.025 28.05 18.793 19.157 15.952 21.09 17.946 31.455 32.43 11.136 15.561 15.746 20.367 17.856 18.616 2.884-2.394 2.921-6.107.09-8.939-6.577-6.576-7.709-14.554-3.928-27.677.503-1.745.045-2.036-3.602-2.283-12.103-.822-19.28-12.334-14.271-22.89.907-1.912 2.696-4.162 3.975-5 2.188-1.434 2.238-1.692.85-4.375-.811-1.569-1.475-3.55-1.475-4.402 0-4.217-14.51.317-20.436 6.385-3.678 3.767-3.796 4.089-2.58 7.024.7 1.691 3.797 5.382 6.881 8.2 6.06 5.539 5.24 5.754-4.53 1.189-6.063-2.832-15.994-12.948-19.186-19.542-2.997-6.19-2.89-14.672.272-21.462 2.63-5.649 9.134-11.494 16.462-14.793 3.579-1.612 4.008-2.077 2.473-2.68-5.367-2.111-7.91-1.055-20.103 8.347-10.478 8.08-12.088 9.717-13.036 13.262-1.673 6.256-5.264 9.02-11.717 9.02-6.17 0-9.678-2.481-11.558-8.177-3.031-9.184 6.521-17.663 15.618-13.862l3.633 1.518 10.904-6.077c5.997-3.342 10.903-6.216 10.903-6.386 0-.17-3.888-.861-8.64-1.536-7.738-1.098-8.737-1.057-9.55.397-.5.893-2.214 2.298-3.81 3.123-6.173 3.193-13.643.879-16.483-5.107-1.9-4.002-1.904-5.744-.022-9.382 2.214-4.282 5.321-6.01 10.805-6.01 4.006 0 5.321.487 7.527 2.788 1.47 1.534 3.123 3.58 3.673 4.547.733 1.289 3.537 2.15 10.5 3.223 5.225.806 10.625 1.698 12 1.983 2.085.431 1.67-.229-2.5-3.974-4.489-4.032-5.51-4.495-10-4.533-11.51-.097-17.933-10.333-11.171-17.801 3.398-3.754 8.794-4.84 14.057-2.83 5.501 2.1 7.614 5.174 7.614 11.073 0 3.743.824 5.786 4.655 11.547 2.56 3.85 4.794 6.861 4.963 6.692.17-.17-.35-2.497-1.154-5.171-7.338-24.383 12.65-43.789 39.318-38.173 4.004.844 10.295 3.018 13.98 4.831 7.712 3.796 18.169 13.116 21.944 19.559l2.595 4.428 1.274-3.03c2.973-7.07 13.461-8.112 18.925-1.88l3 3.42 5-3.94c12.156-9.579 21.128-17.73 26.119-23.727 2.96-3.557 5.381-6.808 5.381-7.224 0-1.276-5.739-3.809-8.629-3.809-4.444 0-9.37-2.2-9.37-4.185 0-1.544 18.645-25.036 21.469-27.05 2.38-1.696 5.92-.631 9.095 2.735 3.785 4.014 5.591 4.31 9.163 1.5 3.395-2.67 5.843-2.52 8.914.55 3.467 3.468 2.782 5.561-5.668 17.31-6.359 8.843-6.79 9.75-5.203 10.975.951.734 7.354 4.048 14.23 7.365 14.893 7.187 28 16.034 28 18.9 0 2.665-2.575 3.456-6.56 2.015-2.667-.965-3.968-.921-6.707.223-2.758 1.153-4.06 1.192-6.918.21-4.854-1.669-15.898-7.882-24.52-13.794l-7.203-4.94-7.293 7.178c-6.213 6.115-9.34 8.203-21.11 14.093-7.598 3.804-14.912 6.915-16.252 6.915-2.059 0-2.438.482-2.438 3.1 0 2.194-.93 3.968-3.192 6.08-2.876 2.687-3.696 2.936-8.25 2.513-2.782-.258-5.958-.632-7.058-.831-1.628-.294-2 .185-2 2.576 0 2.815.307 3.015 7.308 4.777 7.186 1.81 7.349 1.807 9.797-.118 8.265-6.501 20.277.073 19.01 10.403-.693 5.644-6.042 10.5-11.565 10.5-4.78 0-10.555-4.47-11.534-8.93-.502-2.282-1.778-3.363-6.446-5.458-3.2-1.436-6.266-2.612-6.81-2.612-.546 0-2.06 2.813-3.366 6.25-1.305 3.438-2.511 6.537-2.68 6.888-.168.35 3.856 1.402 8.941 2.337 30.591 5.622 43.437 28.973 22.153 40.267-11.693 6.205-28.492 7.004-38.036 1.81-2.801-1.525-6.548-4.273-8.325-6.107l-3.233-3.335 4.893 1.485c7.356 2.232 19.476 2.922 24.856 1.416 4.545-1.273 10.537-6.61 10.537-9.386 0-1.587-6.518-3.11-21.936-5.128-6.29-.823-11.578-1.497-11.75-1.497-.173 0-.314.693-.314 1.54 0 2.752-3.944 9.36-6.884 11.533-2.624 1.94-2.783 2.402-1.86 5.41 1.451 4.726.129 10.01-3.555 14.205-3.129 3.564-3.2 3.861-3.18 13.23.022 10.672 1.54 16.107 3.941 14.114 1.714-1.423 3.193-8.576 4.087-19.777.363-4.539 1.068-7.992 1.57-7.682 2.479 1.533 5.127 9.253 5.615 16.372.553 8.071-3.44 39.557-6.316 49.805-1.994 7.105-4.12 7.011-11.372-.5zm-3.649-67.642c4.441-1.856 6.213-6.528 4.057-10.697-1.063-2.055-2.252-2.91-4.045-2.91-1.397 0-3.44-.483-4.541-1.072-2.555-1.367-6.52 1.03-7.957 4.808-1.922 5.054 1.248 9.051 8.872 11.184.155.043 1.781-.547 3.614-1.313zm12.091-27.924c1.802-4.313.87-8.205-2.683-11.195-7.26-6.109-18.339.25-16.334 9.376.817 3.721 2.146 4.85 7.67 6.508 5.478 1.646 9.373.035 11.347-4.69zm43.63-.934c.652-6.871-8.47-14.999-20.485-18.251l-6.294-1.704-1.201-11.647c-1.166-11.307-3.296-22.639-4.477-23.82-.916-.916-10.58 7.615-12.22 10.789-1.087 2.1-5.44 20.002-5.44 22.368 0 .146 1.41.547 3.133.892 4.743.949 11.64 8.35 12.439 13.35.641 4.01.696 4.057 3.782 3.172 8.07-2.315 20.515-.407 26.5 4.062 3.103 2.318 4.102 2.503 4.264.79zm-85.823-4.716c2.98-.485 7.177-.646 9.327-.358 3.907.524 3.91.522 5.098-3.917 1.392-5.203 7.659-11.484 12.406-12.434 1.675-.335 3.26-1.164 3.52-1.843.648-1.69-2.377-13.035-4.678-17.546-2.7-5.29-9.075-10.329-15.623-12.346-1.896-.584-2.237-.185-2.826 3.302-.724 4.283 1.54 15.024 3.94 18.685 1.29 1.97 1.1 2.24-3.003 4.233-6.82 3.313-12.098 8.752-15.936 16.423-4.43 8.857-4.52 10.113-.582 8.148 1.616-.806 5.377-1.862 8.357-2.347zm40.759-52.576c3.82-3.049 6.946-5.999 6.946-6.556 0-.557-2.376-2.1-5.28-3.43-5.628-2.576-19.005-4.436-20.026-2.784-.54.873 9.883 18.312 10.945 18.312.257 0 3.594-2.494 7.415-5.542zm97.966-52.987c2.34-3.592 4.001-6.783 3.693-7.092-1.092-1.091-4.75.801-10.325 5.343l-5.642 4.595 3.377 1.8c1.858.99 3.662 1.818 4.01 1.841.348.023 2.547-2.896 4.887-6.487zm-76.05 206.993c-.968-1.166-1.113-4.6-.604-14.25.816-15.478 1.872-21.105 5.262-28.052 7.015-14.372 35.539-36.302 52.259-40.178 6.127-1.42 19.73-.834 25 1.078l3.385 1.229-7.386 2.704c-16.914 6.192-29.864 14.145-42.187 25.91-13.722 13.1-20.852 23.924-26.6 40.384-1.689 4.834-3.542 9.671-4.12 10.75-1.259 2.353-3.267 2.524-5.009.425zm19.436-14.714c5.198-8.77 15.231-22.229 21.869-29.336 14.1-15.099 28.945-22.213 51.144-24.51 10.877-1.125 17.708-.065 26.105 4.048 7.943 3.891 22.135 17.723 20.185 19.673-.31.31-4.533-.267-9.386-1.281-15.95-3.333-37.283-1.642-51.262 4.063-3.058 1.249-13.953 7.04-24.21 12.87-19.83 11.271-34.113 18.723-35.885 18.723-.593 0 .055-1.912 1.44-4.25zm59.259-119.632c-1.56-1.029-3.653-3.213-4.651-4.855-.999-1.642-3.21-3.979-4.915-5.192-1.976-1.407-3.099-3.067-3.099-4.582 0-2.656 3.368-5.5 6.473-5.467 2.8.03 10.557 3.661 13.277 6.215 2.998 2.814 3.087 9.43.178 13.128-2.458 3.126-3.5 3.233-7.263.753zm-4.665-25.58c0-1.545-1.163-3.655-2.921-5.302-5.588-5.232-4.89-9.049 1.816-9.948 3.027-.406 5.15-.04 7.687 1.326 5.03 2.707 6.059 8.49 1.918 10.777-1.1.607-3.462 2.14-5.25 3.408l-3.25 2.303v-2.565z" fill="#6e716d"/><path d="M61.708 444.962c-16.28-2.796-29.296-9.401-40.33-20.468-8.888-8.913-13.326-15.751-17.321-26.688l-2.68-7.335-.279-164C.786 43.151.344 55.223 7.911 40.184c8.924-17.734 23.79-30.022 44.002-36.369l7.464-2.344h240l7.5 2.342c24.879 7.768 42.333 25.342 48.975 49.31 1.996 7.201 2.025 9.68 2.01 169.828-.016 181.443.5 168.282-7.224 184.02-3.313 6.749-5.934 10.27-12.72 17.084-7.119 7.15-10.132 9.362-18.043 13.244-17.932 8.8-6.664 8.119-137.498 8.302-63.8.09-118.1-.198-120.669-.639zm245.67-6.307c23.515-8.277 41.272-27.95 45.933-50.891 1.383-6.805 1.564-26.136 1.549-165-.02-173.893.33-164.286-6.482-178.629-8.787-18.504-25.548-32.16-46.5-37.887-6.054-1.655-14.464-1.777-122.5-1.777-130.134 0-120.892-.504-137 7.471-14.787 7.32-25.05 17.714-32.15 32.558-6.62 13.84-6.35 6.244-6.35 179.101 0 174.898-.405 164.69 7.131 180.056 8.59 17.511 25.567 31.161 45.19 36.333 6.87 1.81 12.26 1.883 125.178 1.686l118-.205 8-2.816zM158.327 393.3c-32.58-20.67-67.826-31.862-106.151-33.706-10.42-.501-12.026-1.037-10.098-3.372 5.186-6.28 39.706-13.62 53.569-11.39 10.795 1.737 8.203 3.475-7.394 4.958-17.105 1.627-18.775 2.512-7.756 4.109 11.502 1.666 36.546 8.038 47.36 12.048 11.79 4.373 24.19 10.301 32.908 15.735 5.955 3.712 7.701 4.386 9 3.475 12.198-8.556 38.944-22.149 52.528-26.696 9.696-3.246 22.803-6.157 31.89-7.083 3.743-.381 6.443-1.033 6-1.449-.444-.416-5.42-2.657-11.057-4.98-5.637-2.323-10.25-4.808-10.25-5.521 0-3.684 13.207-2.34 25.677 2.615 7.765 3.084 21.323 9.672 21.323 10.36 0 .223.271 1.111.602 1.974.896 2.336-2.495 3.237-17.146 4.556-41.058 3.696-69.37 14.077-94.16 34.526-3.677 3.032-6.96 5.513-7.295 5.513-.335 0-4.633-2.552-9.55-5.672zm3.55-20.428c-16.62-11.468-29.473-16.672-45.555-18.446l-6.054-.668-3.363-28.838c-3.112-26.678-3.496-28.768-5.124-27.897-1.842.986-4.905.316-4.905-1.072 0-1.264 9.331-7.797 14.151-9.908 6.224-2.726 12.35-3.367 20.168-2.108 13.96 2.247 26.974 3.026 35.117 2.1 4.46-.506 16.628-3.037 27.042-5.624 18.177-4.514 19.357-4.68 29.479-4.15 10.922.573 24.651 3.569 28.796 6.285 1.995 1.307 2.174 1.81 1.104 3.099-.997 1.201-2.491 1.4-6.818.911l-5.542-.627-4.498 30.143-4.499 30.143-13.5 4.697c-7.425 2.583-16.2 6.086-19.5 7.784-6.513 3.35-20.53 13.494-24.424 17.674-1.333 1.431-2.683 2.55-3 2.485-.317-.065-4.4-2.757-9.076-5.983zm10.6-4.062c.407-.659-.273-1.964-1.57-3.014-2.162-1.75-2.358-1.758-3.555-.122-1.047 1.433-.982 1.947.38 2.983 2.083 1.585 3.825 1.641 4.744.153zm-10.8-7.038c1.724-1.724 1.516-2.362-1.385-4.263-2.439-1.598-2.696-1.593-4.555.089-1.954 1.769-1.952 1.797.335 3.556 2.73 2.1 3.984 2.239 5.604.618zm20.88-1.05c1.818-1.237 3.309-2.557 3.313-2.932.009-.864-5.498-4.818-6.71-4.818-.5 0-1.953 1.415-3.231 3.144l-2.324 3.143 2.386 1.834c2.978 2.29 2.63 2.31 6.567-.37zm-32.205-7c1.506-2.132 1.443-2.368-1.193-4.495-1.53-1.234-3.008-2.222-3.283-2.194-.275.028-1.528 1.353-2.784 2.945l-2.285 2.894 2.785 1.51c3.807 2.065 4.912 1.957 6.76-.66zm20.745-2.175l2.72-3.282-2.477-2.327-2.477-2.327-2.993 2.868c-1.647 1.577-2.994 3.274-2.994 3.77 0 .917 4.085 4.69 5 4.618.275-.021 1.725-1.516 3.22-3.32zm25.068-3.015c2.041-2.442 3.711-4.67 3.711-4.95 0-.279-1.595-1.725-3.544-3.212l-3.545-2.703-3.537 3.403c-5.678 5.461-5.817 6.267-1.6 9.269 2.037 1.448 3.95 2.633 4.253 2.633.302 0 2.22-1.998 4.262-4.44zm-58.321-2.73l2.344-3.17-2.906-2.325c-3.588-2.87-4.193-2.883-7.105-.147l-2.33 2.188 3.211 3.312c1.766 1.822 3.488 3.312 3.827 3.312.338 0 1.67-1.426 2.959-3.17zm22.413-3.262l2.618-3.432-2.904-2.068c-1.597-1.137-3.148-2.068-3.448-2.068-.3 0-1.745 1.574-3.211 3.496l-2.667 3.496 2.366 1.971c3.276 2.729 4.242 2.543 7.246-1.395zm-42.923 1.501c.316-.512.118-1.213-.441-1.559-.56-.345-1.017.073-1.017.931 0 1.757.6 2.015 1.458.628zm102.114-.702c2.71-.898 5.274-1.94 5.696-2.317.422-.377-1.292-2.165-3.81-3.973-2.519-1.809-4.682-3.128-4.808-2.932-.126.195-1.699 2.087-3.495 4.204-3.083 3.632-3.165 3.926-1.46 5.218 2.282 1.731 2.031 1.738 7.877-.2zm-34.741-11.53c-3.366-2.588-4.185-2.33-8.215 2.587l-3.625 4.424 2.755 2.17 2.754 2.17 4.33-4.78 4.33-4.778-2.33-1.793zm-58.939 3.779l2.24-2.385-2.97-2.115c-3.674-2.617-4.388-2.628-6.671-.105-1.767 1.952-1.751 2.083.52 4.5 2.91 3.098 4.053 3.115 6.881.105zm85.102-5.532c-.007-.625-6.268-5.084-7.138-5.084-.287 0-1.923 1.745-3.637 3.877l-3.115 3.877 3.698 2.665 3.698 2.665 3.25-3.709c1.788-2.04 3.247-3.97 3.244-4.291zm-62.5 3.923l2.868-2.993-2.355-2.507c-3.03-3.226-3.735-3.162-7.718.698l-3.307 3.206 2.76 2.258c3.611 2.957 4.344 2.895 7.752-.662zm23.797-4.504l3.79-4.309-3.12-2.222-3.12-2.222-3.92 3.828c-2.157 2.106-3.92 4.227-3.92 4.715 0 1.156 4.206 4.659 5.5 4.58.55-.034 2.705-2 4.79-4.37zm55.084-.628c.344-1.718.613-4.306.598-5.75l-.026-2.625-2.947 3.5c-3.452 4.102-3.59 4.832-1.25 6.608 2.537 1.926 2.931 1.738 3.625-1.733zm-91.32-4.431l3.445-3.557-2.5-1.92c-1.375-1.058-2.978-1.932-3.563-1.944-1.197-.025-6.437 5.161-6.437 6.372 0 .817 4.086 4.514 5.054 4.572.305.018 2.105-1.567 4-3.523zm59.402-.14l2.956-3.55-2.317-1.877c-3.047-2.468-3.154-2.444-7.058 1.585l-3.355 3.46 2.409 2.006c3.218 2.68 3.909 2.528 7.365-1.623zm-80 .765c.317-.512.119-1.213-.44-1.559-.56-.345-1.017.073-1.017.931 0 1.757.6 2.015 1.458.628zm45.256-4.773l3.38-4.094-3.144-2.238-3.144-2.239-4.152 4.19-4.153 4.192 2.86 2.493c1.573 1.372 3.336 2.335 3.917 2.142.58-.194 2.577-2.195 4.436-4.446zm58.635.136c2.73-3.423 2.771-3.628 1-5.017-4.424-3.468-4.915-3.456-8.446.204l-3.402 3.526 2.806 2.428c3.716 3.215 4.674 3.08 8.042-1.141zm-34.382-9.458c-2.819-2.126-6.573-1.113-9.197 2.482-1.699 2.327-1.67 2.41 1.5 4.457l3.231 2.086 3.391-3.639 3.392-3.638-2.317-1.748zm-60.09 4.655l3.268-3.372-3.19-2.495c-2.808-2.199-3.67-2.388-7.234-1.587-4.934 1.108-5.72 1.561-5.72 3.298 0 1.224 7.538 7.527 9.001 7.527.334 0 2.078-1.517 3.875-3.371zm22.614-2.618c1.576-1.644 2.613-3.242 2.305-3.55-.308-.307-2.462-.649-4.788-.76-5.661-.269-7.546 2.206-3.956 5.194 3.15 2.621 3.07 2.632 6.44-.884zm59.444-1.588l3.14-3.577-2.627-2.066-2.627-2.066-3.602 3.602c-3.534 3.534-3.567 3.64-1.755 5.643 2.572 2.842 3.86 2.577 7.47-1.536zm21.773-2.673c1.131-1.237 2.257-3.712 2.502-5.5.42-3.07.275-3.246-2.632-3.177-2.217.052-3.85 1.005-5.847 3.41l-2.771 3.34 2.655 2.088c3.311 2.605 3.573 2.598 6.093-.16zm-35.707-2.75c0-.55-.198-1-.44-1-.243 0-.72.45-1.06 1-.34.55-.141 1 .441 1 .583 0 1.06-.45 1.06-1zm-5.218-5.904c19.292-7.44 25.248-8.596 37.218-7.227 4.125.471 7.55.806 7.611.744.061-.062.393-1.958.738-4.214l.627-4.1-8.738-.604c-11.957-.826-20.54.49-35.238 5.405-14.656 4.9-25.638 5.902-43 3.92-14.794-1.69-29.323-2.37-33.581-1.57l-3.626.68.697 4.685c.384 2.577.768 4.75.854 4.829.086.079 3.306-.528 7.156-1.347 8.36-1.78 20.792-1.177 33.5 1.625 4.675 1.031 11.777 1.92 15.782 1.977 6.455.09 8.725-.455 20-4.803zm29.218-.218c0-.483-1.35-.878-3-.878-3.416 0-3.768.718-1.252 2.557 1.755 1.284 4.252.298 4.252-1.679zm47.58-7.06c11.65-12.194 19.597-23.408 20.867-29.444.753-3.578-1.003-5.973-5.14-7.012-4.758-1.194-20.75.521-32.807 3.519-6.6 1.64-12.326 2.665-12.724 2.276-.982-.956 17.498-12.05 29.224-17.543 27.539-12.9 47.767-13.503 55.747-1.662 4.086 6.063 2.038 13.988-5.817 22.509-6.41 6.954-29.544 21.401-46.758 29.2l-7.672 3.476 5.08-5.318zM78.372 278.61c-.88-2.106-2.531-7.823-3.67-12.705-1.414-6.063-2.586-9.036-3.697-9.378-.895-.276-7.477-1.185-14.627-2.02-21.977-2.57-21.752-2.527-20.544-3.982 2.176-2.622 10.392-4.055 22.772-3.97 11.9.08 12.213.026 11.732-2-1.853-7.811-4.46-24.83-4.46-29.122 0-9.782 5.714-10.921 16.612-3.311 13.604 9.5 31.526 25.037 39.908 34.599 7.733 8.821 20.817 27.142 18.305 25.63-3.349-2.014-36.973-28.36-44.825-35.121-8.592-7.4-12.3-9.358-14.174-7.485-.661.662-.775 4.393-.32 10.472l.709 9.443 7.711 2.229c11.642 3.364 26.648 12.082 20.795 12.082-.795 0-6.97-1.125-13.72-2.5-6.752-1.375-12.889-2.5-13.638-2.5-1.06 0-1.366 2.273-1.378 10.25-.018 12.155-1.11 15.09-3.491 9.39zm78.91-4.863c-3.902-4.002-13.331-14.476-20.953-23.276-7.622-8.8-20.446-23.2-28.497-32-21.67-23.685-28.954-32.383-28.954-34.576 0-3.087 4.81.33 30.442 21.627 17.091 14.2 21.583 19.035 31.542 33.95 5.45 8.16 12.047 15.5 13.933 15.5 1.634 0 4.083-3.698 4.083-6.166 0-.589-1.294-2.545-2.877-4.348-1.582-1.802-3.68-5.378-4.66-7.947-1.55-4.057-1.632-5.482-.62-10.855.64-3.402 1.41-7.085 1.71-8.185.475-1.74.003-2.037-3.632-2.283-12.103-.822-19.28-12.334-14.271-22.89.907-1.912 2.696-4.162 3.975-5 2.188-1.434 2.238-1.692.85-4.375-.811-1.569-1.475-3.55-1.475-4.402 0-4.217-14.51.317-20.436 6.385-3.678 3.767-3.796 4.089-2.58 7.024.7 1.691 3.797 5.382 6.881 8.2 6.06 5.539 5.24 5.754-4.53 1.189-6.063-2.832-15.994-12.948-19.186-19.542-2.997-6.19-2.89-14.672.272-21.462 2.63-5.649 9.134-11.494 16.462-14.793 3.579-1.612 4.008-2.077 2.473-2.68-5.367-2.111-7.91-1.055-20.103 8.347-10.478 8.08-12.088 9.717-13.036 13.262-1.673 6.256-5.264 9.02-11.717 9.02-6.17 0-9.678-2.481-11.558-8.177-3.031-9.184 6.521-17.663 15.618-13.862l3.633 1.518 10.904-6.077c5.997-3.342 10.903-6.216 10.903-6.386 0-.17-3.888-.861-8.64-1.536-7.738-1.098-8.737-1.057-9.55.397-.5.893-2.214 2.298-3.81 3.123-6.173 3.193-13.643.879-16.483-5.107-1.9-4.002-1.904-5.744-.022-9.382 2.214-4.282 5.321-6.01 10.805-6.01 4.006 0 5.321.487 7.527 2.788 1.47 1.534 3.123 3.58 3.673 4.547.733 1.289 3.537 2.15 10.5 3.223 5.225.806 10.625 1.698 12 1.983 2.085.431 1.67-.229-2.5-3.974-4.489-4.032-5.51-4.495-10-4.533-11.51-.097-17.933-10.333-11.171-17.801 3.398-3.754 8.794-4.84 14.057-2.83 5.5 2.1 7.614 5.174 7.614 11.073 0 3.743.824 5.786 4.655 11.547 2.56 3.85 4.794 6.861 4.963 6.692.17-.17-.35-2.497-1.154-5.171-7.338-24.383 12.65-43.789 39.318-38.173 4.004.844 10.295 3.018 13.98 4.831 7.712 3.796 18.169 13.116 21.944 19.559l2.595 4.428 1.274-3.03c2.973-7.07 13.461-8.112 18.925-1.88l3 3.42 5-3.94c12.156-9.579 21.128-17.73 26.119-23.727 2.96-3.557 5.381-6.808 5.381-7.224 0-1.276-5.739-3.809-8.629-3.809-4.444 0-9.37-2.2-9.37-4.185 0-1.544 18.645-25.036 21.469-27.05 2.38-1.696 5.92-.631 9.095 2.735 3.785 4.014 5.591 4.31 9.163 1.5 3.395-2.67 5.843-2.52 8.914.55 3.467 3.468 2.782 5.561-5.668 17.31-6.359 8.843-6.79 9.75-5.203 10.975.951.734 7.354 4.048 14.23 7.365 14.893 7.187 28 16.034 28 18.9 0 2.665-2.575 3.456-6.56 2.015-2.667-.965-3.968-.921-6.707.223-2.758 1.153-4.06 1.192-6.918.21-4.854-1.669-15.898-7.882-24.52-13.794l-7.203-4.94-7.293 7.178c-6.213 6.115-9.34 8.203-21.11 14.093-7.598 3.804-14.912 6.915-16.252 6.915-2.059 0-2.438.482-2.438 3.1 0 2.194-.93 3.968-3.192 6.08-2.876 2.687-3.696 2.936-8.25 2.513-2.782-.258-5.958-.632-7.058-.831-1.628-.294-2 .185-2 2.576 0 2.815.307 3.015 7.308 4.777 7.186 1.81 7.349 1.807 9.797-.118 8.265-6.501 20.277.073 19.01 10.403-.693 5.644-6.042 10.5-11.565 10.5-4.78 0-10.555-4.47-11.534-8.93-.502-2.282-1.778-3.363-6.446-5.458-3.2-1.436-6.266-2.612-6.81-2.612-.546 0-2.06 2.813-3.366 6.25-1.305 3.438-2.511 6.537-2.68 6.888-.168.35 3.856 1.402 8.941 2.337 30.591 5.622 43.437 28.973 22.153 40.267-11.693 6.205-28.492 7.004-38.036 1.81-2.801-1.525-6.548-4.273-8.325-6.107l-3.233-3.335 4.893 1.485c7.356 2.232 19.476 2.922 24.856 1.416 4.545-1.273 10.537-6.61 10.537-9.386 0-1.587-6.518-3.11-21.936-5.128-6.29-.823-11.578-1.497-11.75-1.497-.173 0-.314.693-.314 1.54 0 2.752-3.944 9.36-6.884 11.533-2.624 1.94-2.783 2.402-1.86 5.41 1.469 4.785.153 9.84-3.791 14.56-3.351 4.011-3.465 4.422-3.465 12.584 0 5.106.573 9.807 1.45 11.905 3.104 7.432 5.222 3.085 6.789-13.935 1.08-11.745 1.12-11.873 2.919-9.65 2.612 3.225 4.842 11.509 4.843 17.985 0 7.582-4.834 40.392-6.86 46.564-.902 2.748-2.316 5.122-3.14 5.276-.826.153-4.694-2.995-8.596-6.996zm-3.007-66.168c4.441-1.856 6.213-6.528 4.057-10.697-1.063-2.055-2.252-2.91-4.045-2.91-1.397 0-3.44-.483-4.541-1.072-2.555-1.367-6.52 1.03-7.957 4.808-1.922 5.054 1.248 9.051 8.872 11.184.155.043 1.781-.547 3.614-1.313zm12.091-27.924c1.802-4.313.87-8.205-2.683-11.195-7.26-6.109-18.339.25-16.334 9.376.817 3.721 2.146 4.85 7.67 6.508 5.478 1.646 9.373.035 11.347-4.69zm43.63-.934c.652-6.871-8.47-14.999-20.485-18.251l-6.294-1.704-1.201-11.647c-1.166-11.307-3.296-22.639-4.477-23.82-.916-.916-10.58 7.615-12.22 10.789-1.087 2.1-5.44 20.002-5.44 22.368 0 .146 1.41.547 3.133.892 4.743.949 11.64 8.35 12.439 13.35.641 4.01.696 4.057 3.782 3.172 8.07-2.315 20.515-.407 26.5 4.062 3.103 2.318 4.101 2.503 4.264.79zm-85.823-4.716c2.98-.485 7.177-.646 9.327-.358 3.907.524 3.91.522 5.098-3.917 1.392-5.203 7.659-11.484 12.406-12.434 1.675-.335 3.26-1.164 3.52-1.843.648-1.69-2.377-13.035-4.678-17.546-2.7-5.29-9.075-10.329-15.623-12.346-1.896-.584-2.237-.185-2.826 3.302-.724 4.283 1.54 15.024 3.94 18.685 1.29 1.97 1.1 2.24-3.003 4.233-6.82 3.313-12.098 8.752-15.936 16.423-4.43 8.857-4.52 10.113-.582 8.148 1.616-.806 5.377-1.862 8.357-2.347zm40.759-52.576c3.82-3.049 6.946-5.999 6.946-6.556 0-.557-2.376-2.1-5.28-3.43-5.628-2.576-19.005-4.436-20.026-2.784-.54.873 9.883 18.312 10.945 18.312.257 0 3.594-2.494 7.415-5.542zm97.966-52.987c2.34-3.592 4.001-6.783 3.693-7.092-1.092-1.091-4.75.801-10.325 5.343l-5.642 4.595 3.377 1.8c1.858.99 3.662 1.818 4.01 1.841.348.023 2.547-2.896 4.887-6.487zm-75.49 206.561c-1.656-1.829-1.774-3.246-1.186-14.28.823-15.478 2.793-23.834 7.181-30.467 9.205-13.916 33.405-32.254 48.407-36.682 6.998-2.065 16.871-2.042 24.353.057l5.915 1.66-8.85 3.175c-14.807 5.313-25.777 11.753-38.135 22.39-13.513 11.63-21.996 24.176-29.294 43.324-4.661 12.23-5.796 13.692-8.392 10.823zm17.47-10.81c0-1.715 12.062-19.233 18.77-27.26 15.554-18.616 31.406-27.31 54.488-29.884 15.378-1.715 26.342 1.507 36.937 10.853 5.407 4.77 11.302 11.906 10.499 12.71-.301.3-4.518-.283-9.37-1.297-15.634-3.267-35.954-1.821-50.404 3.585-2.98 1.115-15.095 7.478-26.92 14.14-20.904 11.777-32.392 17.931-33.471 17.931-.29 0-.529-.35-.529-.779zm60.665-123.104c-1.56-1.029-3.653-3.213-4.651-4.855-.999-1.642-3.21-3.979-4.915-5.192-1.976-1.407-3.099-3.067-3.099-4.582 0-2.656 3.368-5.5 6.473-5.467 2.8.03 10.557 3.661 13.277 6.215 2.998 2.814 3.087 9.43.178 13.128-2.458 3.126-3.5 3.233-7.263.753zm-4.665-25.58c0-1.545-1.163-3.655-2.921-5.302-5.588-5.232-4.89-9.049 1.816-9.948 3.027-.406 5.15-.04 7.687 1.326 5.03 2.707 6.059 8.49 1.918 10.777-1.1.607-3.462 2.14-5.25 3.408l-3.25 2.303v-2.565z" fill="#871a1f"/><path d="M61.708 444.962c-16.28-2.796-29.296-9.401-40.33-20.468-8.888-8.913-13.326-15.751-17.321-26.688l-2.68-7.335-.279-164C.786 43.151.344 55.223 7.911 40.184c8.924-17.734 23.79-30.022 44.002-36.369l7.464-2.344h240l7.5 2.342c24.879 7.768 42.333 25.342 48.975 49.31 1.996 7.201 2.025 9.68 2.01 169.828-.016 181.443.5 168.282-7.224 184.02-3.313 6.749-5.934 10.27-12.72 17.084-7.119 7.15-10.132 9.362-18.043 13.244-17.932 8.8-6.664 8.119-137.498 8.302-63.8.09-118.1-.198-120.669-.639zm245.67-6.307c23.515-8.277 41.272-27.95 45.933-50.891 1.383-6.805 1.564-26.136 1.549-165-.02-173.893.33-164.286-6.482-178.629-8.787-18.504-25.548-32.16-46.5-37.887-6.054-1.655-14.464-1.777-122.5-1.777-130.134 0-120.892-.504-137 7.471-14.787 7.32-25.05 17.714-32.15 32.558-6.62 13.84-6.35 6.244-6.35 179.101 0 174.898-.405 164.69 7.131 180.056 8.59 17.511 25.567 31.161 45.19 36.333 6.87 1.81 12.26 1.883 125.178 1.686l118-.205 8-2.816zM158.327 393.3c-32.58-20.67-67.826-31.862-106.151-33.706-10.42-.501-12.026-1.037-10.098-3.372 5.186-6.28 39.706-13.62 53.569-11.39 10.795 1.737 8.203 3.475-7.394 4.958-17.105 1.627-18.775 2.512-7.756 4.109 11.502 1.666 36.546 8.038 47.36 12.048 11.79 4.373 24.19 10.301 32.908 15.735 5.955 3.712 7.701 4.386 9 3.475 12.198-8.556 38.944-22.149 52.528-26.696 9.696-3.246 22.803-6.157 31.89-7.083 3.743-.381 6.443-1.033 6-1.449-.444-.416-5.42-2.657-11.057-4.98-5.637-2.323-10.25-4.808-10.25-5.521 0-3.684 13.207-2.34 25.677 2.615 7.765 3.084 21.323 9.672 21.323 10.36 0 .223.271 1.111.602 1.974.896 2.336-2.495 3.237-17.146 4.556-41.058 3.696-69.37 14.077-94.16 34.526-3.677 3.032-6.96 5.513-7.295 5.513-.335 0-4.633-2.552-9.55-5.672zm3.55-20.428c-16.62-11.468-29.473-16.672-45.555-18.446l-6.054-.668-3.363-28.838c-3.112-26.678-3.496-28.768-5.124-27.897-1.842.986-4.905.316-4.905-1.072 0-1.264 9.331-7.797 14.151-9.908 6.224-2.726 12.35-3.367 20.168-2.108 13.96 2.247 26.974 3.026 35.117 2.1 4.46-.506 16.628-3.037 27.042-5.624 18.177-4.514 19.357-4.68 29.479-4.15 10.922.573 24.651 3.569 28.796 6.285 1.995 1.307 2.174 1.81 1.104 3.099-.997 1.201-2.491 1.4-6.818.911l-5.542-.627-4.498 30.143-4.499 30.143-13.5 4.697c-7.425 2.583-16.2 6.086-19.5 7.784-6.513 3.35-20.53 13.494-24.424 17.674-1.333 1.431-2.683 2.55-3 2.485-.317-.065-4.4-2.757-9.076-5.983zm10.6-4.062c.407-.659-.273-1.964-1.57-3.014-2.162-1.75-2.358-1.758-3.555-.122-1.047 1.433-.982 1.947.38 2.983 2.083 1.585 3.825 1.641 4.744.153zm-10.8-7.038c1.724-1.724 1.516-2.362-1.385-4.263-2.439-1.598-2.696-1.593-4.555.089-1.954 1.769-1.952 1.797.335 3.556 2.73 2.1 3.984 2.239 5.604.618zm20.88-1.05c1.818-1.237 3.309-2.557 3.313-2.932.009-.864-5.498-4.818-6.71-4.818-.5 0-1.953 1.415-3.231 3.144l-2.324 3.143 2.386 1.834c2.978 2.29 2.63 2.31 6.567-.37zm-32.205-7c1.506-2.132 1.443-2.368-1.193-4.495-1.53-1.234-3.008-2.222-3.283-2.194-.275.028-1.528 1.353-2.784 2.945l-2.285 2.894 2.785 1.51c3.807 2.065 4.912 1.957 6.76-.66zm20.745-2.175l2.72-3.282-2.477-2.327-2.477-2.327-2.993 2.868c-1.647 1.577-2.994 3.274-2.994 3.77 0 .917 4.085 4.69 5 4.618.275-.021 1.725-1.516 3.22-3.32zm25.068-3.015c2.041-2.442 3.711-4.67 3.711-4.95 0-.279-1.595-1.725-3.544-3.212l-3.545-2.703-3.537 3.403c-5.678 5.461-5.817 6.267-1.6 9.269 2.037 1.448 3.95 2.633 4.253 2.633.302 0 2.22-1.998 4.262-4.44zm-58.321-2.73l2.344-3.17-2.906-2.325c-3.588-2.87-4.193-2.883-7.105-.147l-2.33 2.188 3.211 3.312c1.766 1.822 3.488 3.312 3.827 3.312.338 0 1.67-1.426 2.959-3.17zm22.413-3.262l2.618-3.432-2.904-2.068c-1.597-1.137-3.148-2.068-3.448-2.068-.3 0-1.745 1.574-3.211 3.496l-2.667 3.496 2.366 1.971c3.276 2.729 4.242 2.543 7.246-1.395zm-42.923 1.501c.316-.512.118-1.213-.441-1.559-.56-.345-1.017.073-1.017.931 0 1.757.6 2.015 1.458.628zm102.114-.702c2.71-.898 5.274-1.94 5.696-2.317.422-.377-1.292-2.165-3.81-3.973-2.519-1.809-4.682-3.128-4.808-2.932-.126.195-1.699 2.087-3.495 4.204-3.083 3.632-3.165 3.926-1.46 5.218 2.282 1.731 2.031 1.738 7.877-.2zm-34.741-11.53c-3.366-2.588-4.185-2.33-8.215 2.587l-3.625 4.424 2.755 2.17 2.754 2.17 4.33-4.78 4.33-4.778-2.33-1.793zm-58.939 3.779l2.24-2.385-2.97-2.115c-3.674-2.617-4.388-2.628-6.671-.105-1.767 1.952-1.751 2.083.52 4.5 2.91 3.098 4.053 3.115 6.881.105zm85.102-5.532c-.007-.625-6.268-5.084-7.138-5.084-.287 0-1.923 1.745-3.637 3.877l-3.115 3.877 3.698 2.665 3.698 2.665 3.25-3.709c1.788-2.04 3.247-3.97 3.244-4.291zm-62.5 3.923l2.868-2.993-2.355-2.507c-3.03-3.226-3.735-3.162-7.718.698l-3.307 3.206 2.76 2.258c3.611 2.957 4.344 2.895 7.752-.662zm23.797-4.504l3.79-4.309-3.12-2.222-3.12-2.222-3.92 3.828c-2.157 2.106-3.92 4.227-3.92 4.715 0 1.156 4.206 4.659 5.5 4.58.55-.034 2.705-2 4.79-4.37zm55.084-.628c.344-1.718.613-4.306.598-5.75l-.026-2.625-2.947 3.5c-3.452 4.102-3.59 4.832-1.25 6.608 2.537 1.926 2.931 1.738 3.625-1.733zm-91.32-4.431l3.445-3.557-2.5-1.92c-1.375-1.058-2.978-1.932-3.563-1.944-1.197-.025-6.437 5.161-6.437 6.372 0 .817 4.086 4.514 5.054 4.572.305.018 2.105-1.567 4-3.523zm59.402-.14l2.956-3.55-2.317-1.877c-3.047-2.468-3.154-2.444-7.058 1.585l-3.355 3.46 2.409 2.006c3.218 2.68 3.909 2.528 7.365-1.623zm-80 .765c.317-.512.119-1.213-.44-1.559-.56-.345-1.017.073-1.017.931 0 1.757.6 2.015 1.458.628zm45.256-4.773l3.38-4.094-3.144-2.238-3.144-2.239-4.152 4.19-4.153 4.192 2.86 2.493c1.573 1.372 3.336 2.335 3.917 2.142.58-.194 2.577-2.195 4.436-4.446zm58.635.136c2.73-3.423 2.771-3.628 1-5.017-4.424-3.468-4.915-3.456-8.446.204l-3.402 3.526 2.806 2.428c3.716 3.215 4.674 3.08 8.042-1.141zm-34.382-9.458c-2.819-2.126-6.573-1.113-9.197 2.482-1.699 2.327-1.67 2.41 1.5 4.457l3.231 2.086 3.391-3.639 3.392-3.638-2.317-1.748zm-60.09 4.655l3.268-3.372-3.19-2.495c-2.808-2.199-3.67-2.388-7.234-1.587-4.934 1.108-5.72 1.561-5.72 3.298 0 1.224 7.538 7.527 9.001 7.527.334 0 2.078-1.517 3.875-3.371zm22.614-2.618c1.576-1.644 2.613-3.242 2.305-3.55-.308-.307-2.462-.649-4.788-.76-5.661-.269-7.546 2.206-3.956 5.194 3.15 2.621 3.07 2.632 6.44-.884zm59.444-1.588l3.14-3.577-2.627-2.066-2.627-2.066-3.602 3.602c-3.534 3.534-3.567 3.64-1.755 5.643 2.572 2.842 3.86 2.577 7.47-1.536zm21.773-2.673c1.131-1.237 2.257-3.712 2.502-5.5.42-3.07.275-3.246-2.632-3.177-2.217.052-3.85 1.005-5.847 3.41l-2.771 3.34 2.655 2.088c3.311 2.605 3.573 2.598 6.093-.16zm-35.707-2.75c0-.55-.198-1-.44-1-.243 0-.72.45-1.06 1-.34.55-.141 1 .441 1 .583 0 1.06-.45 1.06-1zm-5.218-5.904c19.292-7.44 25.248-8.596 37.218-7.227 4.125.471 7.55.806 7.611.744.061-.062.393-1.958.738-4.214l.627-4.1-8.738-.604c-11.957-.826-20.54.49-35.238 5.405-14.656 4.9-25.638 5.902-43 3.92-14.794-1.69-29.323-2.37-33.581-1.57l-3.626.68.697 4.685c.384 2.577.768 4.75.854 4.829.086.079 3.306-.528 7.156-1.347 8.36-1.78 20.792-1.177 33.5 1.625 4.675 1.031 11.777 1.92 15.782 1.977 6.455.09 8.725-.455 20-4.803zm29.218-.218c0-.483-1.35-.878-3-.878-3.416 0-3.768.718-1.252 2.557 1.755 1.284 4.252.298 4.252-1.679zm47.58-7.06c11.65-12.194 19.597-23.408 20.867-29.444.753-3.578-1.003-5.973-5.14-7.012-4.758-1.194-20.75.521-32.807 3.519-6.6 1.64-12.326 2.665-12.724 2.276-.982-.956 17.498-12.05 29.224-17.543 27.539-12.9 47.767-13.503 55.747-1.662 4.086 6.063 2.038 13.988-5.817 22.509-6.41 6.954-29.544 21.401-46.758 29.2l-7.672 3.476 5.08-5.318zM78.372 278.61c-.88-2.106-2.531-7.823-3.67-12.705-1.414-6.063-2.586-9.036-3.697-9.378-.895-.276-7.477-1.185-14.627-2.02-21.977-2.57-21.752-2.527-20.544-3.982 2.176-2.622 10.392-4.055 22.772-3.97 11.9.08 12.213.026 11.732-2-1.853-7.811-4.46-24.83-4.46-29.122 0-9.782 5.714-10.921 16.612-3.311 13.604 9.5 31.526 25.037 39.908 34.599 7.733 8.821 20.817 27.142 18.305 25.63-3.349-2.014-36.973-28.36-44.825-35.121-8.592-7.4-12.3-9.358-14.174-7.485-.661.662-.775 4.393-.32 10.472l.709 9.443 7.711 2.229c11.642 3.364 26.648 12.082 20.795 12.082-.795 0-6.97-1.125-13.72-2.5-6.752-1.375-12.889-2.5-13.638-2.5-1.06 0-1.366 2.273-1.378 10.25-.018 12.155-1.11 15.09-3.491 9.39zm78.91-4.863c-3.902-4.002-13.331-14.476-20.953-23.276-7.622-8.8-20.446-23.2-28.497-32-21.67-23.685-28.954-32.383-28.954-34.576 0-3.087 4.81.33 30.442 21.627 17.091 14.2 21.583 19.035 31.542 33.95 5.45 8.16 12.047 15.5 13.933 15.5 1.634 0 4.083-3.698 4.083-6.166 0-.589-1.294-2.545-2.877-4.348-1.582-1.802-3.695-5.42-4.695-8.038-1.713-4.484-1.726-5.204-.222-12.355 2.396-11.4 3.245-13.094 6.555-13.094h2.81l-.393 9.776c-.293 7.303.001 10.717 1.164 13.5 3.217 7.7 5.312 3.545 6.897-13.679 1.08-11.745 1.12-11.873 2.919-9.65 2.612 3.225 4.842 11.509 4.843 17.985 0 7.582-4.834 40.392-6.86 46.564-.902 2.748-2.316 5.122-3.14 5.276-.826.153-4.694-2.995-8.596-6.996zm30.125 1.256c-1.655-1.829-1.773-3.246-1.185-14.28.823-15.478 2.793-23.834 7.181-30.467 9.205-13.916 33.405-32.254 48.407-36.682 6.998-2.065 16.871-2.042 24.353.057l5.915 1.66-8.85 3.175c-14.807 5.313-25.777 11.753-38.135 22.39-13.513 11.63-21.996 24.176-29.294 43.324-4.661 12.23-5.796 13.692-8.392 10.823zm17.471-10.81c0-1.715 12.062-19.233 18.77-27.26 15.554-18.616 31.406-27.31 54.488-29.884 15.378-1.715 26.342 1.507 36.937 10.853 5.407 4.77 11.302 11.906 10.499 12.71-.301.3-4.518-.283-9.37-1.297-15.634-3.267-35.954-1.821-50.404 3.585-2.98 1.115-15.095 7.478-26.92 14.14-20.904 11.777-32.392 17.931-33.471 17.931-.29 0-.529-.35-.529-.779z" fill="#0e1f0b"/><path d="M59.732 444.422C36.63 440.2 17.41 425.6 7.274 404.573c-6.842-14.191-6.485-3.52-6.176-184.602l.28-163.5 2.706-7.298C12.814 25.635 31.737 8.81 56.03 2.986c8.099-1.94 11.775-2 123.347-2 110.13 0 115.34.081 123 1.927 9.972 2.403 16.128 5.077 24.704 10.73 12.232 8.065 22.346 21.063 27.617 35.494l2.68 7.334.264 164.419c.293 181.95.728 169.072-6.213 183.771-6.944 14.703-18.024 25.88-32.969 33.254-16.136 7.963-7.152 7.455-136.083 7.693-94.866.175-116.338-.033-122.645-1.186zm247.139-5.304c22.714-8.234 37.17-22.355 44.683-43.647l2.823-8 .28-160.5c.312-180.23.736-169.114-7.052-185-3.273-6.676-5.89-10.216-12.197-16.5-11.99-11.943-24.174-18.156-40.133-20.463-9.317-1.347-222.478-1.347-231.796 0C37.33 8.788 15.461 26.771 7.133 51.341l-2.756 8.13v163.5c0 155.716.088 163.783 1.834 169.44 7.027 22.771 23.44 39.431 45.753 46.444 3.527 1.108 7.538 2.207 8.913 2.442 1.375.234 55.825.37 121 .3l118.5-.126 6.494-2.353z"/></svg>