<svg xmlns="http://www.w3.org/2000/svg" height="445.806" width="358.496"><path d="M56.484 444.382c-21.05-4.591-39.51-18.79-48.953-37.654C-.633 390.42-.112 403.705.204 219.85l.28-163.5 2.333-6.5c4.085-11.387 9-19.016 18.077-28.058C30.42 12.302 39.737 6.76 53.012 2.688L60.484.395l113-.32c76.289-.215 115.646.029 121.143.75 30.73 4.038 54.654 24.766 62.137 53.84 1.593 6.188 1.72 18.713 1.72 168.685 0 182.133.654 166.497-7.672 183.5-5.854 11.952-18.648 24.734-30.828 30.796-17.505 8.713-8.847 8.214-140.91 8.124-92.097-.063-117.85-.354-122.59-1.388zm246-4.805c3.3-.961 9.825-3.61 14.5-5.888 11.999-5.844 23.962-17.795 29.87-29.84 7.622-15.54 7.191-4.069 6.895-183.757l-.265-160.742-2.33-7c-6.954-20.89-23.156-36.95-44.67-44.276l-8-2.724h-239l-8 2.823C40.2 12.156 33.68 16.163 25.008 24.45c-8.67 8.283-13.923 16.518-17.8 27.9l-2.724 8-.3 157.5c-.218 113.62.015 159.716.833 165.45 4.172 29.223 27.215 52.406 57.088 57.436 3.035.51 55.281.836 119.88.747 105.745-.145 114.958-.291 120.5-1.905zm-141.941-47.292c-33.505-22.015-64.698-32.437-107.867-36.04-6.267-.522-6.784-.74-6.5-2.731.396-2.777 5.602-5.332 17.294-8.486 7.007-1.89 12.355-2.536 24.014-2.9 15.333-.477 20.5.305 20.5 3.103 0 1.098-2.276 1.592-9.75 2.117-5.362.376-12 1-14.75 1.386l-5 .702 7.98 1.316c25.803 4.258 58.938 16.714 78.238 29.412l7.941 5.224 3.92-2.863c5.539-4.044 31.584-16.818 42.092-20.643 10.723-3.904 27.256-7.761 37.076-8.651 3.99-.362 7.253-.953 7.253-1.315 0-.361-4.05-2.392-9.003-4.513-13.24-5.67-14.542-8.553-3.864-8.553 7.424 0 17.343 3.212 30.86 9.996 7.96 3.994 10.101 5.528 10.624 7.61.844 3.366-.477 4.149-8.085 4.788-3.317.278-11.882 1.008-19.032 1.62-35.092 3.01-59.292 11.734-83.69 30.173-4.23 3.197-8.28 5.805-9 5.797-.72-.01-5.783-2.956-11.251-6.549zm4.269-20.326c-16.908-11.852-29.033-17.015-43.913-18.699-3.253-.368-5.92-.948-5.926-1.29-.006-.341-1.126-12.545-2.489-27.12-1.362-14.575-2.482-27.21-2.488-28.077-.008-1.167-.76-1.467-2.893-1.154-7.818 1.147-2.758-5.504 8.21-10.793 8.377-4.04 13.279-4.422 27.194-2.12 24.65 4.076 29.477 3.87 57.558-2.458 19.803-4.463 29.726-4.812 43.306-1.523 12.009 2.908 17.613 5.46 17.613 8.023 0 1.784-.753 2.043-6.681 2.306l-6.682.296-5.272 29.5c-2.9 16.225-5.292 29.567-5.318 29.65-.026.083-2.409.708-5.297 1.39-9.096 2.15-25.013 7.987-31.315 11.485-3.337 1.852-10.219 6.54-15.294 10.42-5.075 3.88-9.545 7.03-9.934 7-.389-.03-5.06-3.107-10.38-6.836zm11.602-3.996c.302-.488-.14-1.459-.983-2.158-1.19-.988-1.798-1.004-2.73-.072-.933.933-.868 1.41.292 2.143 1.878 1.187 2.728 1.209 3.421.087zm-9.83-7.275c.408-.66-.272-1.964-1.57-3.015-1.839-1.49-2.578-1.614-3.762-.63-1.274 1.057-1.174 1.464.74 3.014 2.583 2.091 3.603 2.231 4.593.63zm21.292-.897c1.316-1.095 2.216-2.093 2-2.216-.215-.124-1.577-1.268-3.026-2.542l-2.635-2.316-2.209 3.102c-1.776 2.494-1.97 3.388-.992 4.566 1.653 1.992 4.001 1.789 6.862-.594zm-31.892-8.981c0-.402-1.07-1.432-2.378-2.29-2.228-1.459-2.52-1.408-4.597.803l-2.218 2.361 2.847 1.5c2.547 1.342 3.03 1.335 4.596-.072.963-.865 1.75-1.9 1.75-2.302zm22-2.907c0-.315-.96-1.172-2.134-1.905-1.897-1.185-2.42-1.049-4.69 1.221-2.504 2.504-2.518 2.595-.691 4.613l1.863 2.059 2.826-2.708c1.555-1.49 2.826-2.965 2.826-3.28zm22.46 1.197c1.917-2.063 3.499-4.184 3.513-4.713.015-.53-1.21-1.96-2.723-3.181l-2.75-2.22-4.232 4.124-4.233 4.122 3.233 2.768c1.778 1.523 3.339 2.787 3.469 2.809.13.022 1.805-1.647 3.723-3.71zm-58.49-9.57l-3.175-2.836-2.478 2.328-2.479 2.328 3.28 2.738 3.279 2.738 2.373-2.23 2.373-2.23-3.174-2.836zm22.87 2.247l2.34-2.961-2.34-1.926c-2.336-1.923-2.344-1.922-5.267.963l-2.927 2.89 2.427 2.02c3.055 2.543 2.968 2.558 5.767-.986zm62.881.989l2.508-.954-3.752-2.981c-2.063-1.64-3.892-2.981-4.063-2.981-1.123 0-5.451 7.13-4.885 8.046.73 1.18 5.509.65 10.192-1.13zm-39.88-4.974c2.715-3.27 3.112-4.294 2.127-5.482-1.86-2.24-3.238-1.792-7.315 2.384l-3.754 3.844 2.3 1.603c1.266.882 2.526 1.62 2.801 1.638.275.019 2.003-1.775 3.84-3.987zm25.43-3.426l2.771-3.339-2.656-2.089c-3.395-2.67-3.463-2.66-6.92.947l-2.908 3.036 2.971 2.428c1.634 1.336 3.196 2.412 3.471 2.392.275-.02 1.747-1.538 3.271-3.375zm-83.1-.171c2.413-2.183 2.316-2.796-.755-4.809-2.435-1.595-2.696-1.592-4.516.054-1.904 1.723-1.9 1.78.26 4.079 2.61 2.778 2.679 2.787 5.012.676zm23.83-6.364c-3.196-2.476-3.349-2.464-6.695.525l-2.806 2.507 2.997 2.478 2.997 2.477 3.003-3.025 3.003-3.024-2.5-1.938zm23.377 1.144l3.783-3.875-2.992-2.13-2.993-2.132-3.477 4.186-3.476 4.185 2.139 1.787c1.176.983 2.385 1.802 2.686 1.82.3.018 2.25-1.71 4.33-3.841zm55.994-3.115l.674-3.49-2.932 3.49c-2.727 3.246-2.819 3.616-1.316 5.297 1.559 1.743 1.639 1.743 2.258 0 .353-.994.946-3.378 1.316-5.297zm-32.33-6.385l-2.154-2.125-3.086 3.425-3.087 3.425 2.367 1.916 2.366 1.916 2.874-3.216 2.873-3.216-2.153-2.125zm-59.575 3.41l2.841-2.966-2.404-1.978-2.404-1.977-2.94 2.903c-2.88 2.842-2.903 2.946-1.096 4.943 2.384 2.634 2.63 2.596 6.003-.926zm82.867-6.866l-2.633-2.331-3.1 3.136-3.1 3.136 2.934 2.556 2.935 2.556 2.798-3.361 2.798-3.361-2.632-2.331zm-57.546-1.896l-2.195-2.336-3.976 3.975-3.976 3.976 2.43 1.99 2.43 1.988 3.74-3.628 3.742-3.628-2.195-2.337zm22.714 1.725c2.772-2.893 2.807-3.052.98-4.389-2.172-1.588-4.047-1.152-7.183 1.668l-2.202 1.98 2.202 1.838c2.872 2.398 2.851 2.401 6.203-1.097zm-56.502-5.002c0-.422-1.175-1.537-2.612-2.478-1.963-1.287-3.702-1.548-7-1.054-5.427.814-5.592 2.375-.67 6.324l3.717 2.982 3.283-2.504c1.805-1.377 3.282-2.849 3.282-3.27zm79.502 1.002c2.802-2.925 2.826-3.04.937-4.468-2.611-1.976-2.648-1.966-6.001 1.544-2.857 2.99-2.884 3.113-.996 4.5 2.604 1.913 2.755 1.874 6.06-1.576zm-59.622-.37c1.96-2.088 2.032-2.448.593-3-2.556-.981-5.96-.74-7.212.51-.852.853-.587 1.6 1.05 2.967 2.812 2.348 2.924 2.338 5.57-.478zm84.12-6.803c0-4.103-4.086-3.917-7.106.324l-2.243 3.15 2.326 1.883c2.29 1.854 2.361 1.849 4.674-.324 1.39-1.307 2.35-3.36 2.35-5.033zm-47.5-3.494c21.158-7.671 32.16-9.504 44.671-7.442l4.67.77.645-3.432c.354-1.888.378-3.697.053-4.022-.324-.325-6.99-.594-14.814-.599-13.873-.01-14.509.087-25.725 3.857-10.197 3.427-12.86 3.913-23.5 4.29-8.1.288-15.899-.128-24-1.281-14.986-2.133-26.493-2.884-31.058-2.027-3.428.643-3.497.748-2.844 4.357.367 2.033.774 3.826.904 3.983.13.157 4.25-.249 9.155-.902 9.478-1.262 15.606-.577 36.343 4.062 11.836 2.648 14.148 2.501 25.5-1.614zm32 .669c.34-.55-.11-1-1-1s-1.34.45-1 1c.34.55.79 1 1 1 .21 0 .66-.45 1-1zm-65.954-23.906c-1.462-.571-2.399-2.76-3.719-8.68-2.438-10.939-2.373-12.414.551-12.414 1.308 0 2.812.562 3.343 1.25 1.557 2.016 6.28 14.593 6.28 16.725 0 1.576-2.835 4.255-4.185 3.954-.173-.039-1.195-.414-2.27-.835zm-18.353-.954c-.747-.474-2.003-5.416-2.928-11.522-1.47-9.705-1.475-10.836-.054-12.258 3.042-3.042 5.347-.842 8.666 8.27 3.37 9.248 3.688 11.447 2.088 14.435-1.078 2.016-5.356 2.607-7.772 1.075zm31.148-1.91c-.638-.405-1.487-4.484-1.886-9.063l-.727-8.327 2.886.33c2.62.3 3.106.998 5.27 7.567 1.94 5.894 2.149 7.518 1.127 8.75-1.328 1.6-4.729 1.98-6.67.744zm11.827-.98c-1.389-2.695-3.462-15.041-2.81-16.74.855-2.228 4.301-1.836 6.071.692.849 1.21 2.491 5.052 3.65 8.535 1.679 5.043 1.86 6.631.892 7.798-1.7 2.049-6.693 1.866-7.803-.285zm15.737.135c-.87-1.05-1.35-4.463-1.372-9.75-.03-7.557.12-8.157 2.102-8.44 1.523-.217 2.706.643 4.126 3 2.494 4.14 3.8 13.425 2.164 15.396-1.573 1.895-5.368 1.784-7.02-.206zm-91.405-3.764c-4.4-2.393-10.925-5.388-14.5-6.655-7.708-2.733-9-3.603-9-6.07 0-2.332 3.717-3.359 8.757-2.418 5.237.978 22.282 9.909 25.68 13.455 3.188 3.328 2.89 6.074-.655 6.053-1.255-.01-5.882-1.971-10.282-4.365zm107.25 2.29c-1.354-.782-1.75-2.343-1.75-6.902 0-6.153.801-7.525 3.83-6.564 2.046.65 5.868 11.296 4.507 12.555-1.587 1.47-4.842 1.92-6.587.911zm9.772-.533c-1.137-1.137-1.532-3.002-1.321-6.25.27-4.164.563-4.66 2.932-4.934 2.181-.252 2.825.245 3.75 2.9 1.643 4.712 1.368 7.701-.817 8.87-2.508 1.343-2.631 1.327-4.544-.586zm35.878-2.218c-3.553-1.22-5.575-1.452-6.666-.764-1.945 1.227-4.882-.915-4.497-3.28.206-1.263-.61-1.616-3.737-1.616-3.36 0-4.05-.352-4.313-2.202-.246-1.73-1.96-2.833-8-5.146-15.09-5.78-25.743-7.08-66.687-8.136-36.166-.934-45.03-1.92-58.5-6.505-9.417-3.205-29.978-13.37-45-22.247-9.746-5.76-11.548-7.213-11.816-9.53-.254-2.192.09-2.734 1.73-2.734 2.925 0 18.804 6.496 39.074 15.986 18.035 8.444 28.268 12.298 35.923 13.532l4.41.712-3.286-5.865c-4.722-8.428-9.006-13.987-16.359-21.23l-6.46-6.365-6.814 5.157c-3.747 2.837-7.625 5.026-8.618 4.865-2.613-.423-31.563-21.012-32.049-22.792-.605-2.22.235-4 1.889-4 2.31 0 9.062 3.747 20.12 11.165l10.245 6.872 3.756-3.542 3.755-3.54-4.5-3.994c-2.475-2.196-8.643-7.248-13.707-11.227-7.555-5.937-9.214-7.728-9.25-9.984-.084-5.4 4.572-3.231 26.502 12.344 23.785 16.894 31.049 24.61 44.856 47.656 2.848 4.754 4.292 6.25 6.032 6.25 1.259 0 4.34.28 6.85.625l4.56.625-.54-4.375c-1.25-10.129-7.101-16.871-24.063-27.73-3.346-2.142-5.24-4.05-5.24-5.281 0-4.396 6.102-3.184 15.921 3.163l6.065 3.92-3.582-5.394c-3.875-5.837-4.117-8.877-.744-9.36 1.578-.226 3.364 1.198 6.81 5.429 7.106 8.722 10.812 17.593 13.631 32.628l1.266 6.75h14.891l-.644-5.25c-.383-3.123-2.461-8.963-5.129-14.413-5.195-10.613-5.618-13.337-2.073-13.337 2.86 0 6.576 4.1 10.324 11.392l2.626 5.108.982-3.312c.736-2.483.532-5.236-.814-11-.988-4.229-1.849-9.038-1.913-10.688-.099-2.545.253-3 2.322-3 2.005 0 2.811.927 4.536 5.22l2.099 5.22 1.623-2.676c.893-1.472 4.701-6.18 8.463-10.463 6.482-7.379 7.06-7.787 11.023-7.794 3.356-.01 4.313.402 4.84 2.064.408 1.285.053 2.74-.932 3.829-1.298 1.434-1.59 4.391-1.59 16.08v14.324l6.247-5.902c3.436-3.246 6.71-6.798 7.275-7.894.565-1.095 1.916-2.134 3.003-2.308 4.514-.726 4.626-.981 2.384-5.43-3.431-6.813-8.527-12.407-13.487-14.808-4.055-1.963-5.713-2.167-14.049-1.731-8.487.443-9.552.304-10.447-1.369-1.928-3.602.428-5.573 8.241-6.89 13.202-2.228 21.406-.035 29.592 7.91 5.912 5.738 10.669 13.481 13.278 21.618 2.586 8.06 4.723 11.452 9.524 15.114l3.421 2.61 7.259-6.159c10.982-9.317 16.073-11.453 28.398-11.909 8.39-.31 11.491.017 17.76 1.879 7.654 2.272 10.316 3.999 9.128 5.92-.909 1.47-4.365 1.3-11.677-.572-8.401-2.153-18.805-1.486-24.85 1.591-2.476 1.26-8.581 6.394-13.569 11.408-9.01 9.06-24.432 28.712-24.432 31.136 0 3.018 3.5 2.037 12.217-3.423 11.503-7.207 16.485-9.182 17.823-7.066 1.845 2.918 1.28 3.539-9.88 10.866-4.488 2.946-8.16 5.75-8.16 6.23 0 1.927 5.04.667 12.5-3.125 8.939-4.544 12.178-4.874 24.293-2.473 10.317 2.045 12.207 2.935 12.207 5.744 0 2.306-.053 2.315-13.25 2.272-12.274-.04-13.655.15-18.75 2.575-7.486 3.564-15.08 4.282-21.6 2.042zm-8.615-31.472c6.211-7.734 6.263-7.85 4.5-10.092-.982-1.248-3.968-5.155-6.638-8.682-2.669-3.528-5.256-6.37-5.75-6.314a33.93 33.93 0 0 0-1.749.25c-.469.082-1.152 3.862-1.517 8.4-.366 4.537-1.513 12.075-2.549 16.75-1.036 4.675-1.816 8.553-1.733 8.618.083.065 1.501.83 3.151 1.703 2.86 1.51 3.07 1.482 4.5-.613.825-1.208 4.328-5.718 7.785-10.02zm-22.785 5.922c0-.215.9-4.764 2-10.11 1.1-5.347 1.982-10.684 1.96-11.86-.036-1.899-.382-1.745-3.057 1.36-3.138 3.641-12.226 18.022-11.702 18.517.263.249 8.055 2.09 10.05 2.375.412.06.75-.068.75-.282zm-18.893-16.11c1.113-3.926 2.24-11.832 2.567-18l.582-11-3.585 3.405c-4.97 4.72-10.17 15.084-13.15 26.208-1.384 5.163-2.517 9.927-2.518 10.587-.002.76 2.106 1.31 5.747 1.5 5.546.289 5.797.193 7.062-2.7.721-1.65 2.204-6.15 3.295-10zm-90.182 34.906c-5.462-5.843-14.378-11.464-23.979-15.116-9.54-3.63-12.082-5.643-10.451-8.282 1.818-2.942 16.04.6 26.125 6.507 6.916 4.051 15.38 12.753 15.38 15.812 0 2.16-1.609 3.673-3.907 3.673-.41 0-1.835-1.168-3.168-2.594zm-7.96-68.474c-.861-1.608-.752-2.608.494-4.51 1.847-2.818 1.225-4.522-3.122-8.55-4.261-3.948-6.647-4.897-18.23-7.252l-10.607-2.156v-2.982c0-2.714.722-3.359 8-7.155 4.4-2.295 12.275-5.63 17.5-7.41 5.225-1.78 10.468-3.586 11.651-4.014l2.151-.779-3.06-10.018c-2.529-8.284-2.837-10.287-1.778-11.563.705-.849 1.973-1.543 2.818-1.543 1.69 0 8.585 4.95 20.45 14.684l7.73 6.342 3.77-7.253c2.072-3.99 4.732-9.508 5.91-12.263 1.697-3.969 2.686-5.076 4.757-5.328 2.245-.272 2.875.294 4.455 4 1.012 2.375 2.644 6.793 3.628 9.818.983 3.025 1.917 5.652 2.075 5.838.158.186 3.146-1.026 6.64-2.694 7.677-3.664 14.903-5.704 17.15-4.842 2.129.817 2.203 6.89.153 12.698-.825 2.338-1.5 4.364-1.5 4.501 0 .138 2.813-.765 6.25-2.006 11.738-4.238 17.75-4.175 17.75.188 0 .79-3.213 5.123-7.14 9.627-10.49 12.033-16.116 21.057-16.25 26.067-.143 5.358-2.173 5.753-8.548 1.662-18.715-12.01-42.94-10.273-63.033 4.518-6.752 4.971-8.46 5.374-10.064 2.375zm10.986-22.987c-.545-5.195-1.208-10.429-1.474-11.631l-.482-2.186-8.247 2.815c-4.536 1.549-10.21 3.613-12.607 4.588l-4.359 1.773 7.392 2.132c8.246 2.378 12.908 4.94 17.254 9.483 1.61 1.683 3.059 2.927 3.22 2.765.163-.161-.151-4.544-.697-9.74zm66.009 3.135c1.1-2.156 4.239-6.879 6.976-10.495l4.976-6.574-4.706 2.405c-4.688 2.396-8.518 5.96-13.487 12.555l-2.615 3.47 2.698 1.198c3.924 1.742 3.973 1.722 6.158-2.56zm-49.761-22.08c-13.435-11.489-13.592-11.6-12.82-8.995 1.673 5.645 5.606 25.742 5.674 28.995.065 3.124.61 2.372 5.071-7l4.998-10.5-2.923-2.5zm18.969 19.06l4.667-.06 1.083-5.05c1.494-6.97 1.355-13.485-.437-20.364-2.433-9.343-2.807-9.555-6.098-3.46-3.609 6.683-7.492 15.373-10.7 23.948l-2.46 6.574 4.638-.765c2.552-.42 6.74-.791 9.307-.824zm26.018-18.976c1.478-4.15 2.539-7.694 2.358-7.874-.55-.55-7.479 2.607-10.602 4.83-2.89 2.06-2.941 2.254-2.935 11.278l.006 9.182 4.243-4.935c2.733-3.178 5.2-7.623 6.93-12.481zm100.923-12.666c-2.965-.797-7.24-2.258-9.5-3.247-3.539-1.548-4.684-1.627-8.264-.575-5.243 1.542-21.733 2.243-22.16.942-.174-.53 3.745-2.224 8.709-3.767l9.024-2.806-4.209-3.84c-4.738-4.324-8.709-6.705-8.709-5.222 0 1.575-17.975 17.23-19.033 16.576-1.835-1.134-.946-3.297 4.44-10.804 3.985-5.555 5.036-7.676 4-8.073-1.855-.712-1.786-3.615.15-6.38 1.147-1.637 2.563-2.222 5.378-2.222 2.347 0 4.35-.642 5.193-1.664 1.24-1.504 1.163-1.552-.812-.5-3.787 2.017-6.957 1.379-9.774-1.97-1.45-1.723-2.5-3.845-2.332-4.715.33-1.717 3.815-3.764 7.79-4.575 2.455-.501 2.506-.703 2.777-11.068.357-13.602 2.354-19.593 6.99-20.965 4.221-1.25 4.13-2.543-.178-2.543-2.56 0-4.039-.747-5.93-2.995-5.568-6.617-4.313-10 3.714-10.015 5.342-.01 27.901-2.399 33.143-3.508 2.248-.476 3.713-.09 5.75 1.512 5.05 3.972 2.263 10.006-4.623 10.006h-2.912l2.556 2.01c4.42 3.477 6.084 9.707 5.446 20.396-.325 5.447-1.206 10.609-2.11 12.355-1.48 2.862-6.09 7.372-8.836 8.643-1.006.466-1.017.722-.05 1.174.68.319 2.247 1.397 3.481 2.397l2.244 1.817-2.188 8.313c-1.204 4.572-1.999 8.503-1.765 8.736.233.233 5.908 1.512 12.612 2.842 14.701 2.917 18.88 4.502 18.88 7.159 0 2.134-1.831 3.158-5.65 3.158-1.366 0-3.959 1.125-5.762 2.5-3.826 2.918-9.027 3.191-17.48.918zm-12.677-29.242c-.135-.178-1.615.384-3.289 1.25-4.036 2.087-5.741 1.984-7.445-.448-1.214-1.734-1.587-1.816-2.616-.577-.988 1.19-.44 1.878 3.11 3.9 8.886 5.064 8.189 5.036 9.397.387.6-2.304.979-4.334.843-4.512zm2.22-7.874c1.788-.937 2.938-2.208 2.658-2.938-.629-1.639-9.755 1.636-12.663 4.544-1.928 1.928-1.905 1.937 2.454.995 2.42-.523 5.818-1.693 7.551-2.601zm-5.402-11.85l7.75-1.818V69.088l-8.484 2.63c-4.666 1.448-8.49 3.142-8.5 3.766-.01.737 1.909.426 5.469-.885 4.463-1.644 5.766-1.786 7-.763 3.639 3.02.989 6.872-5.31 7.717-3.19.428-4.172.139-5.378-1.584-2.178-3.108-2.797-1.635-2.797 6.654 0 5.537.32 7.32 1.25 6.97.688-.26 4.738-1.29 9-2.29zm-7.651-2.615c-1.98-2.828-1.534-3.366 4.45-5.353 3.978-1.322 5.329-1.416 6.488-.454 2.606 2.162 1.71 4.84-2.159 6.456-4.923 2.057-6.99 1.904-8.78-.65zm17.187-27.594c1.807-.828 3.118-1.673 2.914-1.878-.941-.94-9.599 1.052-11.772 2.71l-2.428 1.852 4-.59c2.2-.324 5.479-1.267 7.286-2.094zM138.184 137.65c-.751-.752-1.2-4.49-1.2-10 0-7.707-.217-8.803-1.75-8.822-.962-.012-5.575-2.051-10.25-4.533-4.675-2.48-11.804-6.141-15.843-8.134l-7.344-3.623-6.656 1.213c-3.661.668-7.669 1.461-8.907 1.764-3.762.922-2.66-2.032 2-5.364 6.527-4.665 14.292-8.277 19.259-8.958 6.119-.838 14.614 3.395 24.275 12.096 4.005 3.609 7.83 6.547 8.5 6.53.669-.017 2.791-2.15 4.716-4.74 5.773-7.767 11.242-13.388 15.946-16.391 7.737-4.94 16.827-3.336 25.554 4.507 5.136 4.615 3.905 5.61-7 5.661-9.585.045-14.314 1.891-21.231 8.29-2.623 2.425-6.778 5.847-9.234 7.604l-4.465 3.194-.035 8.799c-.023 5.943-.48 9.335-1.407 10.453-1.623 1.955-3.274 2.108-4.928.454zm.59-43.422c-.386-8.683-.786-10.797-2.191-11.583-4.184-2.342-8.598-7.227-10.112-11.193-4.238-11.095 5.18-21.92 19.106-21.96 7.916-.023 14.203 3.446 18.005 9.934 5.174 8.828 1.405 18-9.502 23.124l-5.834 2.74-1.734 7.53c-1.874 8.134-3.791 12.03-5.92 12.03-1.013 0-1.462-2.622-1.818-10.622zm13.46-21.532c2.378-2.81 2.27-8.913-.205-11.569-1.076-1.154-3.38-2.412-5.12-2.794-3.826-.84-7.822 1.71-9.212 5.878-2.771 8.314 8.912 15.133 14.537 8.485z" fill="#c38c8f"/><path d="M54.984 443.815c-21.277-5.528-38.799-19.593-48.082-38.594-7.298-14.939-6.88-3.9-6.9-182.461C-.015 67.358.047 61.926 1.914 54.624c5.237-20.475 19.211-37.406 38.57-46.731C57.164-.142 48.175.35 178.484.35c131.525 0 123.331-.48 140.813 8.255 7.558 3.777 10.798 6.2 18.27 13.668 7.375 7.37 9.864 10.674 13.245 17.577 8.326 17.003 7.672 1.366 7.672 183.5 0 153.497-.095 162.34-1.816 168.5-6.86 24.547-24.94 42.967-50.684 51.638-5.217 1.757-11.622 1.863-124.5 2.064-115.092.205-119.246.148-126.5-1.737zm240.935-3.025c15.31-2.484 28.682-9.3 39.065-19.914 7.546-7.712 12.064-14.907 15.821-25.192l2.68-7.334.267-161.73c.233-140.518.071-162.683-1.23-169-3.928-19.05-17.476-36.26-35.538-45.143-16.22-7.977-9.228-7.59-137.802-7.61-125.675-.02-121.033-.228-135.044 6.085C29.281 17.647 18.61 27.876 11.385 42.35 3.506 58.136 3.904 47.828 4.24 227.413c.33 176.88-.275 161.956 7.173 176.937 9.399 18.902 28.588 32.805 50.336 36.467 7.363 1.24 226.519 1.215 234.171-.026zm-135.935-49.065c-31.607-20.94-64.733-32.105-105-35.388-9.116-.744-10.49-1.768-6.735-5.021 5.83-5.051 25.722-9.466 42.646-9.466 11.789 0 17.53 1.17 16.784 3.422-.363 1.092-4.929 1.757-21.195 3.086l-9 .735 11.012 2.232c30.842 6.252 59.16 17.193 77.452 29.922l6.303 4.387 6.117-3.99c7.39-4.821 29.105-15.411 40.116-19.564 10.557-3.982 22.616-6.894 35.5-8.573l10.5-1.369-8.995-4.211c-14.206-6.651-15.653-9.077-5.414-9.077 6.773 0 14.46 2.32 26.842 8.103 9.314 4.35 15.067 8.292 15.067 10.325 0 2.834-3.237 3.682-17.652 4.624-28.724 1.877-49.355 6.49-67.348 15.06-12.14 5.783-17.821 9.23-27.352 16.593-3.769 2.912-7.369 5.257-8 5.21-.631-.046-5.873-3.214-11.648-7.04zm8.07-17.86c-9.34-7.023-20.734-13.697-27.362-16.027-6.838-2.403-18.639-4.988-22.773-4.988-1.614 0-2.94-.338-2.946-.75-.006-.413-1.126-12.675-2.489-27.25-1.362-14.575-2.482-27.226-2.488-28.112-.008-1.142-.684-1.483-2.322-1.17-1.287.247-2.845-.2-3.515-1.008-.984-1.186-.568-1.935 2.274-4.103 5.134-3.916 12.573-7.419 18.42-8.673 4.251-.911 7.317-.751 17.396.91 24.554 4.049 30.916 3.796 58.235-2.308 8.25-1.843 17.475-3.632 20.5-3.975 6.296-.713 20.226 1.414 29.733 4.54 12.043 3.96 13.667 8.416 2.824 7.747-4.975-.307-5.703-.11-6.121 1.652-.262 1.1-2.682 14.527-5.379 29.84-2.696 15.311-5.05 27.935-5.23 28.052-.18.118-4.773 1.47-10.207 3.006-18.677 5.278-30.638 11.262-44.048 22.035-3.81 3.062-7.186 5.533-7.5 5.492-.314-.041-3.465-2.25-7.002-4.91zm7.868-7.772c-1.62-1.134-2.375-1.202-3.272-.292-1.714 1.74 2.105 4.484 4.024 2.891 1.112-.923.978-1.387-.752-2.599zm11.562-5.815l3-2.499-2.9-2.546-2.9-2.545-3.026 3.027-3.028 3.027 2.427 2.02c3.016 2.511 2.814 2.526 6.427-.484zm-20.752.424c.863-.863.522-1.64-1.38-3.135-2.332-1.835-2.651-1.862-4.151-.362s-1.475 1.739.329 3.103c2.381 1.8 3.696 1.9 5.202.394zm-11.862-8.041c1.22-1.954 1.127-2.383-.87-4-2.914-2.36-3.47-2.292-5.402.656-1.559 2.379-1.518 2.52 1.135 3.96 3.573 1.938 3.54 1.942 5.137-.616zm21.067-1.26c2.5-2.661 2.246-4.84-.75-6.443-1.555-.832-2.449-.46-4.802 1.995l-2.891 3.018 2.495 1.917c3.172 2.437 3.203 2.434 5.948-.488zm25.424-2.965l3.616-4.415-3.073-2.585c-1.69-1.423-3.397-2.586-3.793-2.586-.397 0-2.5 1.836-4.674 4.081l-3.953 4.082 3.463 2.918c1.904 1.605 3.762 2.919 4.13 2.919.366 0 2.294-1.987 4.284-4.414zm-58.691-3.76c2.956-2.778 2.926-2.998-.772-5.732l-3.086-2.281-2.424 2.277-2.425 2.278 2.698 2.816c1.484 1.548 2.922 2.816 3.196 2.816s1.54-.979 2.813-2.175zm22.638-2.642l2.698-2.816-2.54-2.386-2.54-2.386-3.22 3.259-3.222 3.259 2.361 1.943c3.04 2.502 3.257 2.473 6.463-.873zm60.162 1.608c2.483-.664 4.514-1.51 4.514-1.881 0-.37-1.621-1.911-3.603-3.423l-3.604-2.748-3.646 3.658c-3.03 3.04-3.393 3.82-2.147 4.615 1.966 1.252 3.087 1.223 8.486-.22zm-37.003-5.774c2.138-2.19 3.692-4.107 3.452-4.26-.239-.154-1.441-1.127-2.672-2.162-2.231-1.878-2.246-1.872-6.157 2.51-3.607 4.043-3.795 4.533-2.358 6.144 2.265 2.537 3.396 2.211 7.735-2.232zm25.141-3.592l2.726-3.573-2.925-2.39c-1.608-1.316-3.24-2.408-3.624-2.427-.384-.02-1.943 1.594-3.463 3.588l-2.764 3.624 2.963 2.37c1.63 1.305 3.278 2.374 3.663 2.377.384 0 1.925-1.603 3.424-3.569zm-83.124-.426c1.747-1.93 1.747-2.07 0-4-2.204-2.436-3.291-2.5-5.686-.331-1.788 1.617-1.777 1.74.345 4 2.666 2.838 3.051 2.861 5.341.33zm23.44-1.194l2.441-3.082-2.824-2.43-2.823-2.428-3.286 3.184-3.286 3.185 2.67 2.35c3.433 3.024 4.161 2.945 7.109-.779zm23.432-3.675l3.778-3.869-2.766-2.175-2.766-2.176-4.059 4.1-4.059 4.099 2.361 1.945c1.299 1.07 2.67 1.945 3.047 1.945.378 0 2.387-1.741 4.464-3.87zm55.948-2.496c.589-3.844.58-3.855-1.456-2.012-3.617 3.273-4.353 5.546-2.285 7.057 2.203 1.612 2.858.729 3.741-5.045zm-32.464-1.987l3.248-3.35-2.677-1.755c-2.643-1.731-2.717-1.715-5.743 1.311-3.002 3.003-3.027 3.108-1.22 5.106 2.407 2.66 2.577 2.624 6.392-1.312zm-58.532-1.464l2.698-2.816-2.417-2.27c-2.67-2.509-4.499-2.083-8.09 1.885-1.958 2.165-1.957 2.174.511 4.07 3.301 2.537 4.129 2.439 7.298-.87zm81.872-.872c3.432-3.288 3.46-4.29.186-6.675-2.554-1.861-2.556-1.86-5.977 1.456l-3.423 3.317 2.76 2.259c1.517 1.242 2.959 2.275 3.204 2.295.245.02 1.707-1.174 3.25-2.652zm-58.268-2.04c1.69-2.05 3.072-4.024 3.072-4.385 0-.362-1.174-1.427-2.61-2.368-2.58-1.69-2.657-1.665-6.553 2.135l-3.944 3.846 2.61 2.25c1.435 1.237 3.001 2.25 3.48 2.25.48 0 2.255-1.678 3.945-3.728zm25.263-5.628c2.474-4.624-4.898-5.835-8.862-1.455-1.771 1.957-1.742 2.069 1.143 4.37 2.8 2.232 3.062 2.268 4.837.661 1.032-.934 2.329-2.543 2.882-3.576zm-60.707-.627c2.785-2.907 2.811-3.034 1.032-5-2.815-3.111-12.553-2.448-12.48.85.034 1.469 6.336 7.133 7.938 7.133.359 0 1.938-1.343 3.51-2.983zm81.973-1.713l2.956-3.552-2.367-1.916-2.367-1.917L207.33 308l-3.334 3.232 2.169 2.309c1.193 1.27 2.428 2.276 2.745 2.236.316-.04 1.906-1.67 3.532-3.623zm-60.132-3.928c-3.188-.936-4.13-.856-5.656.48-1.759 1.537-1.72 1.691.977 3.842l2.81 2.24 2.847-2.72 2.847-2.718-3.825-1.124zm82.732 1.374c1.032-1.238 1.892-3.488 1.91-5 .046-3.812-3.678-3.704-7.433.215l-2.841 2.965 2.404 2.001c3.079 2.564 3.685 2.546 5.96-.181zm-39.35-10.335c18.006-6.097 26.216-7.348 36.793-5.607 3.3.542 6.073.92 6.161.84.089-.082.468-1.79.843-3.798l.681-3.65-9.842-.74c-11.987-.9-20.611.308-33.989 4.76-9.67 3.218-10.172 3.277-26.854 3.168-11.418-.075-19.626-.65-25-1.75-8.211-1.681-24.07-2.199-26.185-.854-.76.483-.988 2.234-.634 4.872l.553 4.118 3.633-1.059c7.005-2.04 23.59-1.078 37.133 2.156 6.875 1.64 14.236 3.016 16.356 3.056 2.216.042 10.871-2.303 20.35-5.512zm26.793 2.585c.357-.578-.57-.994-2.19-.985-2.182.012-2.474.232-1.31.985 1.922 1.241 2.733 1.241 3.5 0zm-66.535-24.33c-1.965-.98-2.753-2.73-4.274-9.489-2.081-9.25-1.772-11.476 1.527-11.002 1.714.247 2.966 2.048 5.434 7.82 1.764 4.126 3.239 8.497 3.278 9.715.096 3.023-2.876 4.495-5.965 2.955zm-18.894-1.085c-.692-.834-1.965-6.097-2.828-11.695-1.504-9.753-1.492-10.235.285-11.534 1.02-.746 2.208-1.356 2.64-1.356 1.393 0 3.675 4.322 6.476 12.266 3.324 9.431 2.724 13.047-2.247 13.535-1.837.18-3.572-.308-4.326-1.216zm31.633-1.835c-1.263-.94-1.744-3.109-1.941-8.75-.26-7.404-.23-7.5 2.237-7.5 2.563 0 2.482-.156 6.546 12.644.565 1.78-1.92 4.856-3.926 4.856-.68 0-1.993-.563-2.916-1.25zm11.457-.5c-.5-.963-1.437-4.83-2.08-8.593-.893-5.218-.894-7.177-.004-8.25.642-.774 1.545-1.407 2.007-1.407 3.396 0 9.73 14.61 7.854 18.115-1.312 2.453-6.525 2.543-7.778.135zm16.39.41c-2.626-1.92-3.536-15.598-1.168-17.563 3.076-2.553 6.866 2.815 7.978 11.299.91 6.943-2.098 9.71-6.81 6.265zm-92.05-4.194c-4.4-2.436-11.234-5.612-15.186-7.058-7.4-2.707-9.256-4.57-7.121-7.142 2.069-2.492 9.325-.899 19.6 4.305 11.33 5.736 17.105 10.641 15.214 12.92-1.884 2.27-3.76 1.816-12.508-3.025zm117.614 1.901c-4.306-3.015-1.71-13.495 2.66-10.738 3.463 2.184 4.063 10.451.849 11.685-.767.294-2.346-.132-3.509-.947zm-10.915-.567c-1.857-1.858-1.558-11.726.378-12.469 2.216-.85 4.288 1.573 5.887 6.885 1.009 3.35 1.075 4.844.252 5.667-1.47 1.47-5.008 1.425-6.517-.083zm50.3-.492c-1.1-.221-3.677-1.12-5.727-1.997-3.077-1.317-4-1.368-5.292-.295-1.759 1.46-3.082.552-3.669-2.516-.31-1.627-1.055-1.948-3.989-1.72-3.18.246-3.724-.06-4.606-2.588-.877-2.517-2.177-3.258-10.611-6.055-15.074-4.998-25.41-6.159-63.606-7.14-46.166-1.186-51.624-2.215-76.856-14.5-20.16-9.816-39.144-21.274-39.144-23.627 0-1.063.646-2.181 1.435-2.484 1.778-.682 15.623 4.73 34.065 13.319 22.6 10.523 29.569 13.336 36.803 14.858 3.756.79 7.273 1.437 7.817 1.437 1.703 0-5.99-13.455-11.543-20.186-2.917-3.537-7.168-7.907-9.447-9.712l-4.143-3.281-7.004 5.192c-4.514 3.346-7.58 4.97-8.625 4.57-2.99-1.147-30.478-20.94-31.353-22.575-.476-.889-.495-2.215-.042-2.948 1.3-2.102 5.732-.064 19.572 9.001l12.389 8.116 4.02-3.339c2.211-1.836 4.028-3.61 4.038-3.94.01-.33-6.304-5.687-14.031-11.903-11-8.849-13.984-11.757-13.747-13.398.228-1.578.921-2.032 2.8-1.834 4.735.5 37.85 24.09 47.837 34.077 5.486 5.486 19.464 25.223 22.244 31.41.906 2.015 1.957 2.75 3.936 2.75 1.485 0 4.839.293 7.453.65l4.752.652-.651-3.401c-2.39-12.483-3.936-14.507-19.766-25.883-10.232-7.353-12.132-10.651-5.967-10.361 3.006.142 6.422 1.87 15.62 7.9 3.257 2.137 3.165 1.847-1.693-5.327-1.904-2.811-2.677-4.945-2.262-6.25.96-3.025 2.851-2.4 7.282 2.405 8.183 8.879 11.698 16.509 14.8 32.133l1.685 8.482H181.26l-.66-5.75c-.439-3.826-2.193-8.852-5.239-15.015-4.433-8.969-4.973-12.235-2.023-12.235 2.076 0 7.906 6.842 10.688 12.543l2.418 4.957.942-4.39c.749-3.487.492-6.238-1.249-13.374-1.666-6.831-1.917-9.314-1.049-10.36 2.101-2.532 3.689-1.419 6.028 4.226 2.308 5.567 2.331 5.587 3.828 3.25.828-1.294 4.04-5.052 7.14-8.352 3.098-3.3 6.16-7.013 6.803-8.25.904-1.74 2.04-2.25 5.011-2.25 5.065 0 6.913 2.09 4.757 5.381-1.204 1.838-1.637 5.833-1.868 17.255l-.302 14.864 6.621-6.575c3.642-3.616 7.145-7.553 7.785-8.75.794-1.483 2.108-2.175 4.13-2.175 1.63 0 2.964-.508 2.964-1.129 0-2.382-6.21-11.828-10.066-15.312-5.608-5.067-8.027-5.746-19.23-5.396-7.815.244-9.985.01-10.734-1.179-1.3-2.055-1.223-2.445.85-4.321 1.974-1.786 10.242-3.663 16.135-3.663 14.36 0 28.137 12.756 34.54 31.983 2.118 6.359 3.468 8.649 7.04 11.942 2.432 2.241 5.022 4.075 5.756 4.075s2.657-1.396 4.272-3.102c4.786-5.054 15.145-12.006 20.12-13.504 9.228-2.777 27.092-1.148 35.587 3.245 6.43 3.325.242 5.48-8.38 2.92-6.19-1.838-17.186-2.038-21.99-.4-7.76 2.644-17.01 10.734-28.54 24.961-6.998 8.634-14.36 18.875-14.36 19.975 0 .423.914 1.06 2.03 1.414 1.44.457 4.276-.792 9.75-4.295 13.454-8.61 18.528-10.681 19.502-7.964.848 2.365-1.201 4.439-10.214 10.337-4.97 3.252-9.043 6.25-9.052 6.663-.04 1.908 6.35.38 14.037-3.355 7.987-3.88 8.802-4.072 14.947-3.507 3.575.328 9.65 1.388 13.5 2.354 6.332 1.59 7 1.996 7 4.258v2.5l-12.174-.364c-11.773-.35-12.4-.263-19 2.673-6.606 2.938-13.7 4.33-17.826 3.5zm-18.62-24.558c1.636-2.338 5.231-6.95 7.99-10.25l5.015-6-2.82-3c-1.552-1.65-4.847-5.79-7.323-9.198-5.79-7.971-7.236-7.226-8.14 4.198-.349 4.4-1.302 10.925-2.118 14.5-.817 3.575-1.714 7.495-1.994 8.712-.384 1.67.168 2.58 2.25 3.71 3.828 2.076 3.81 2.083 7.14-2.672zm-15.516-8.5c.838-3.713 1.835-9.225 2.216-12.25l.692-5.5-2.73 2.5c-2.501 2.29-12.542 17.554-12.542 19.066 0 .577 6.605 2.499 9.67 2.813.66.068 1.834-2.822 2.694-6.63zm-21.996-4c3.346-10.247 4.632-17.905 4.632-27.59v-7.97l-2.052 1.857c-6.456 5.842-14.277 23.063-16.418 36.148l-.687 4.195 5.329.37c2.93.203 5.629.453 5.996.555.368.101 1.807-3.303 3.2-7.565zm-91.58 26.138c-6.628-5.915-13.19-9.646-23.583-13.41-6.422-2.325-8.72-4.528-7.233-6.933 1.397-2.26 10.214-.523 19.544 3.849 8.622 4.04 19.734 13.167 21.04 17.28.6 1.894-1.003 4.826-2.64 4.826-.462 0-3.67-2.526-7.128-5.612zm-4.216-64.96c-1.959-1.958-1.972-2.885-.072-4.786 2.18-2.178 1.873-3.735-1.553-7.89-3.315-4.023-10.026-6.663-22.427-8.822-6.68-1.164-8.92-2.644-8.352-5.523.449-2.277 16.84-10.35 29.332-14.445 5.5-1.803 10.16-3.404 10.354-3.557.194-.154-1.056-4.511-2.78-9.683-1.723-5.173-2.86-10.116-2.526-10.986 1.73-4.507 6.172-2.269 22.376 11.276 4.632 3.873 8.766 6.692 9.185 6.264 1.265-1.29 10.53-19.611 11.137-22.026.36-1.427 1.325-2.25 2.638-2.25 2.984 0 5.364 4.422 10.597 19.684.274.797 2.14.257 5.713-1.652 6.674-3.568 16.087-6.522 18.198-5.712 2.091.802 2.15 7.45.108 12.334-2.196 5.257-1.967 5.5 3.25 3.452 2.613-1.026 7.395-2.454 10.627-3.173 5.448-1.213 5.976-1.171 7.25.57 1.995 2.729 1.849 3.104-3.44 8.806-11.401 12.297-18.595 23.302-18.65 28.536-.058 5.465-2.146 5.857-9.037 1.696-9.011-5.441-15.294-7.045-27.5-7.02-8.258.017-11.914.506-17.125 2.29-7.21 2.469-16.882 7.901-20.93 11.756-2.984 2.842-4.224 3.01-6.373.861zm10.307-24.525c-.632-5.722-1.425-10.927-1.764-11.567-.562-1.064-11.559 2.154-22.615 6.617l-3 1.211 7.204 2.296c8.182 2.607 14.678 6.152 18.217 9.94 1.331 1.426 2.575 2.437 2.763 2.249.189-.189-.174-5.024-.805-10.746zm67.89 1.847c2.195-3.438 5.438-8.168 7.206-10.512l3.215-4.261-2.834 1.077c-5.678 2.16-9.676 5.376-14.025 11.283l-4.441 6.033 2.305 1.28c3.707 2.057 4.374 1.676 8.574-4.9zm-53.087-21.337c-2.61-2.362-6.426-5.627-8.482-7.255l-3.737-2.96 2.702 10.65c1.486 5.859 3.029 13.802 3.429 17.652l.726 7 5.054-10.396 5.053-10.395-4.745-4.296zm20.461 20.646c5.604-.072 5.814-.46 6.526-12.06.44-7.155.144-9.686-1.868-16l-2.39-7.5-5.643 11.5c-3.103 6.326-6.757 14.686-8.121 18.58l-2.48 7.078 4.667-.77c2.566-.422 6.756-.795 9.31-.828zm26.623-19.713l2.859-8.154-2.32.882c-3.885 1.477-8.708 4.082-10.555 5.701-1.434 1.258-1.75 3.235-1.75 10.979v9.444l4.454-5.35c2.997-3.6 5.387-8.014 7.312-13.502zm102.734-11.823c-3.3-.725-8.334-2.21-11.188-3.301-4.814-1.84-5.631-1.88-11.338-.562-3.383.781-9.598 1.29-13.812 1.13l-7.662-.29 7.303-2.295c4.017-1.262 8.457-2.734 9.868-3.27l2.565-.976-4.764-4.23c-2.62-2.326-5.283-4.539-5.918-4.917-.672-.401-4.68 2.625-9.604 7.252-7.893 7.416-11.402 9.817-12.599 8.62-.756-.756 2.42-6.564 6.798-12.434 2.154-2.888 3.425-5.25 2.823-5.25-.65 0-.967-1.508-.782-3.724.296-3.551.52-3.764 4.81-4.584 2.475-.473 5.175-1.56 6-2.418 1.34-1.393 1.304-1.49-.342-.912-4.955 1.737-6.344 1.672-9.006-.422-2.137-1.68-2.692-2.87-2.456-5.264.272-2.76.788-3.21 4.804-4.18l4.5-1.086.602-11.455c.79-15.038 3.5-21.812 8.148-20.365 1.154.359 1.75.01 1.75-1.023 0-1.086-.951-1.567-3.098-1.567-3.928 0-8.902-4.993-8.902-8.935V51.19l18.25-1.777c10.038-.978 19.029-2.19 19.98-2.695 4.533-2.405 11.052 3.022 9.011 7.502-.902 1.98-2.441 2.52-11.392 4-7.642 1.265-10.872 2.256-12.349 3.79l-2 2.08 4.5-.672c2.475-.369 5.538-1.35 6.806-2.18 1.268-.83 3.743-1.369 5.5-1.199 5.068.49 6.691 4.878 6.693 18.092.002 12.232-1.099 15.941-5.94 20.014-3.217 2.707-7.593 3.601-8.233 1.682-.539-1.617-9.253 1.782-11.949 4.66l-2.377 2.538 4-.722c2.2-.397 5.216-1.337 6.7-2.088 3.71-1.877 7.84-1.676 10.697.52l2.396 1.843-2.228 8.254c-1.225 4.54-1.853 8.618-1.396 9.062.457.445 5.853 1.75 11.99 2.902 14.644 2.748 18.841 4.23 18.841 6.653 0 1.436-.843 1.98-3.455 2.228-1.912.182-5.103 1.634-7.144 3.25-4.099 3.247-6.269 3.45-15.4 1.445zm-15.472-24.624c.607-2.256.891-4.314.631-4.574-.26-.26-1.842.235-3.516 1.1-4.036 2.088-5.741 1.985-7.445-.447-1.317-1.88-1.514-1.904-2.807-.338-.82.994-.98 1.83-.39 2.04.55.196 3.25 1.69 6 3.32 2.75 1.631 5.32 2.973 5.71 2.982.392.01 1.21-1.828 1.817-4.083zm-3.607-23.993c8.334-2.09 8.35-2.1 8.953-5.75.884-5.35.758-15.957-.197-16.547-.891-.551-16.268 4.07-17.311 5.202-1.243 1.35-2.084 19.189-.904 19.189.61 0 4.868-.943 9.459-2.094zm-6.22-2.106c-2.512-2.512-1.277-4.394 3.986-6.077 3.795-1.214 5.539-1.366 6.5-.569 2.526 2.097 1.452 4.573-2.707 6.237-4.807 1.924-6.192 1.996-7.78.409zm.05-8.941c-2.498-2.516-1.4-4.557 3.13-5.826 2.409-.674 5.221-1.066 6.25-.87 2.533.484 2.993 4.432.662 5.68-3.377 1.807-8.72 2.348-10.043 1.016zm-121.05 56.94c-.751-.75-1.2-4.478-1.2-9.952v-8.753l-3.622-1c-1.992-.55-9.08-4.06-15.75-7.797-13.192-7.393-15.844-7.944-28.398-5.895-4.321.706-5.173.611-4.737-.524.811-2.116 9.46-7.672 15.557-9.995 11.186-4.263 19.532-1.487 33.463 11.128 3.029 2.744 6.091 4.989 6.804 4.989.713 0 3.4-2.866 5.973-6.369 9.168-12.487 18.167-18.395 26.027-17.09 4.75.79 8.722 2.601 13.432 6.127 5.357 4.01 4.368 5.33-4 5.337-9.862.01-13.901 1.33-20.03 6.556-2.87 2.448-8.032 6.555-11.47 9.126l-6.25 4.675v8.385c0 10.8-2.082 14.77-5.8 11.053zm.8-43.051V84.346l-4.661-3.498c-6.371-4.782-8.569-9.084-8.065-15.79.688-9.171 6.316-14.085 17.127-14.953 3.566-.286 7.836 0 9.82.653 4.687 1.547 10.537 7.554 11.95 12.272 2.314 7.72-3.318 17.113-11.905 19.857-2.071.662-4.12 1.525-4.551 1.918-.432.393-1.682 4.47-2.778 9.06-2.075 8.688-3.238 10.985-5.56 10.985-1.08 0-1.378-2.211-1.378-10.252zm11.84-20.35c7.11-4.98 3.129-16.398-5.716-16.398-2.063 0-3.723.923-5.536 3.076-4.095 4.868-3.182 10.451 2.187 13.365 3.568 1.936 6.258 1.924 9.065-.042z" fill="#8c948b"/><path d="M54.984 443.815c-21.277-5.528-38.799-19.593-48.082-38.594-7.298-14.939-6.88-3.9-6.9-182.461C-.015 67.358.047 61.926 1.914 54.624c5.237-20.475 19.211-37.406 38.57-46.731C57.164-.142 48.175.35 178.484.35c131.525 0 123.331-.48 140.813 8.255 7.558 3.777 10.798 6.2 18.27 13.668 7.375 7.37 9.864 10.674 13.245 17.577 8.326 17.003 7.672 1.366 7.672 183.5 0 153.497-.095 162.34-1.816 168.5-6.86 24.547-24.94 42.967-50.684 51.638-5.217 1.757-11.622 1.863-124.5 2.064-115.092.205-119.246.148-126.5-1.737zm240.935-3.025c15.31-2.484 28.682-9.3 39.065-19.914 7.546-7.712 12.064-14.907 15.821-25.192l2.68-7.334.267-161.73c.233-140.518.071-162.683-1.23-169-3.928-19.05-17.476-36.26-35.538-45.143-16.22-7.977-9.228-7.59-137.802-7.61-125.675-.02-121.033-.228-135.044 6.085C29.281 17.647 18.61 27.876 11.385 42.35 3.506 58.136 3.904 47.828 4.24 227.413c.33 176.88-.275 161.956 7.173 176.937 9.399 18.902 28.588 32.805 50.336 36.467 7.363 1.24 226.519 1.215 234.171-.026zm-136.435-49.496c-21.762-14.65-48.189-25.815-73.272-30.957-13.066-2.678-26.348-4.48-33.201-4.503-14.645-.05-3.726-7.583 17.473-12.055 6.72-1.417 30.472-1.856 34.821-.643 5.905 1.647 2.17 3.204-9.447 3.937-6.306.398-13.245 1.1-15.42 1.56-3.824.811-3.643.895 5.546 2.558 28.58 5.173 60.272 17.035 78.85 29.514 3.107 2.088 6.118 4.068 6.69 4.4.572.33 3.047-.758 5.5-2.42 6.207-4.206 24.16-13.137 36.83-18.322 12.84-5.254 23.193-7.981 39.415-10.38l12.215-1.807-8-3.638c-11.612-5.28-13-6.105-13-7.727 0-4.51 16.767-.993 33.174 6.96 12.042 5.838 15.8 9.004 13.463 11.342-.577.577-8.606 1.65-17.843 2.383-42.33 3.364-65.297 10.975-91.57 30.341-5.23 3.857-9.897 6.978-10.367 6.937-.471-.042-5.807-3.408-11.857-7.48zm7.108-18.412c-16.415-12.027-25.237-16.165-41.19-19.32l-10.083-1.994-2.219-25.61c-2.789-32.192-2.563-31.014-5.89-30.788-7.28.494.51-7.132 11.585-11.34 6.62-2.516 12.038-2.492 27.918.122 17.87 2.942 29.769 2.31 50.771-2.692 14.05-3.347 17.464-3.806 28-3.763 12.418.05 23.422 2.188 31.437 6.11 5.94 2.905 4.7 4.778-3.007 4.537l-6.57-.206-5.239 29.706c-2.881 16.338-5.55 29.97-5.93 30.291-.38.323-4.516 1.605-9.19 2.85-17.655 4.702-28.5 10.164-44.089 22.204-4.174 3.223-7.774 5.819-8 5.768-.226-.05-3.963-2.694-8.304-5.875zm9.33-6.789c-1.62-1.134-2.375-1.202-3.272-.292-1.714 1.74 2.105 4.484 4.024 2.891 1.112-.923.978-1.387-.752-2.599zm-10.546-8.507c-2.39-1.88-2.656-1.9-4.22-.324-1.563 1.573-1.51 1.806.82 3.572 2.269 1.72 2.646 1.748 4.221.323 1.627-1.473 1.579-1.684-.82-3.571zm22.207 2.89l3.492-2.372-3.206-2.698-3.205-2.697-3.017 3.016-3.017 3.017 2.427 2.02c1.335 1.112 2.564 2.036 2.73 2.054.167.018 1.875-1.034 3.796-2.34zm-32.77-7.722c1.113-1.784 1.052-2.38-.415-4-.948-1.048-2.318-1.904-3.045-1.904-1.284 0-5.028 4.738-4.254 5.383 1.114.929 4.516 2.56 5.395 2.586.555.017 1.598-.913 2.318-2.065zm20.857-1.079c2.846-2.673 2.903-3.983.275-6.361-2-1.81-2.105-1.782-5.25 1.385l-3.21 3.231 2.5 1.938c3.111 2.411 2.906 2.418 5.685-.193zm25.894-3.358c3.578-4.365 3.645-4.587 1.817-6.017-5.009-3.92-5.42-3.9-9.777.495l-4.12 4.155 3.266 2.95c1.796 1.622 3.679 2.95 4.183 2.95.505 0 2.589-2.04 4.631-4.533zm-58.894-3.642c2.983-2.802 2.925-3.254-.75-5.871l-3.064-2.182-2.446 2.298-2.447 2.298 2.698 2.816c1.484 1.548 2.922 2.816 3.196 2.816s1.54-.979 2.813-2.175zm83.21-.912c2.258-.677 4.104-1.586 4.104-2.02 0-.436-1.604-2.015-3.565-3.51l-3.565-2.72-3.65 3.65c-3.55 3.55-3.597 3.692-1.685 5.14 1.081.82 2.481 1.31 3.111 1.09.63-.22 2.993-.954 5.25-1.63zm-60.572-1.73l2.698-2.815-2.54-2.386-2.54-2.386-3.22 3.259-3.222 3.259 2.361 1.943c3.04 2.502 3.257 2.473 6.463-.873zm-42.824-.183c.34-.55.142-1-.44-1-.583 0-1.06.45-1.06 1s.199 1 .441 1c.243 0 .72-.45 1.06-1zm65.708-3.703c2.086-2.037 3.792-4.01 3.792-4.385 0-.376-1.151-1.437-2.559-2.36-2.53-1.657-2.603-1.627-6.407 2.636-3.54 3.967-3.723 4.451-2.286 6.062 2.214 2.48 3.179 2.227 7.46-1.953zm25.204-3.374c1.423-1.692 2.588-3.408 2.588-3.812 0-.404-1.425-1.79-3.167-3.077l-3.168-2.342-2.832 3.17c-3.485 3.9-3.501 4.466-.198 7.065 3.414 2.685 3.709 2.642 6.777-1.004zm-57.438-5c.014-.316-1.104-1.637-2.485-2.934l-2.511-2.36-3.478 3.371-3.478 3.371 3.239 2.762 3.24 2.761 2.723-3.197c1.497-1.759 2.735-3.457 2.75-3.773zm-25.358 3.968l2.244-2.108-2.68-2.318-2.68-2.317-2.255 2.105-2.256 2.106 2.18 2.32c2.656 2.827 2.663 2.827 5.447.212zm46.699-4.701l3.72-3.81-2.549-2.394-2.548-2.394-4.162 4.162c-4.09 4.089-4.13 4.197-2.314 6.203 2.562 2.83 3.589 2.6 7.853-1.767zm55.685 1.935c0-1.032.294-3.394.653-5.25l.653-3.375-2.245 1.988c-3.788 3.355-4.586 5.654-2.496 7.182 2.487 1.82 3.435 1.669 3.435-.545zm-32.09-6.533l3.303-3.407-2.656-1.74c-2.626-1.72-2.697-1.702-6.135 1.63l-3.479 3.373 2.279 1.753c2.99 2.302 2.87 2.33 6.689-1.609zm-58.09-6.284c-2.84-3.024-3.865-2.917-7.382.774l-2.938 3.082 2.982 2.39 2.981 2.39 3.264-3.164 3.263-3.163-2.17-2.309zm82.061 3.314l3.273-3.377-3.153-2.245-3.153-2.245-3.433 3.327-3.433 3.328 2.76 2.259c1.517 1.242 3.008 2.275 3.312 2.295.305.02 2.027-1.484 3.827-3.342zm-58.984-1.157c3.77-4.293 3.803-4.777.493-6.946-2.58-1.69-2.657-1.665-6.553 2.135l-3.944 3.846 2.61 2.25c1.435 1.237 2.987 2.25 3.45 2.25.462 0 2.237-1.591 3.944-3.535zm25.265-5.768c.67-1.252.603-2.277-.215-3.261-1.767-2.13-4.485-1.75-7.64 1.07l-2.807 2.507 2.966 2.453c2.807 2.321 3.067 2.362 4.843.754 1.032-.934 2.316-2.52 2.853-3.523zm-60.642-.718l2.894-3.02-2.604-2.604c-2.514-2.515-2.78-2.562-7.707-1.38-2.806.673-5.103 1.742-5.103 2.374 0 1.34 6.995 7.558 8.563 7.613.585.02 2.366-1.322 3.957-2.983zm81.887-1.618l2.906-3.494-2.162-2.161-2.162-2.162-3.673 3.673-3.673 3.673 2.429 2.021c1.336 1.112 2.653 2.004 2.928 1.983.275-.021 1.808-1.611 3.407-3.533zm-57.15-3.45c-.416-.385-2.134-.99-3.817-1.344-2.31-.485-3.488-.171-4.802 1.281-1.669 1.844-1.628 2.014.978 4.064l2.72 2.14 2.84-2.72c1.56-1.495 2.497-3.035 2.081-3.42zm82.227-3.78c.7-2.7.719-2.668-2.034-3.511-1.514-.464-2.945.295-5.476 2.907l-3.427 3.536 2.977 2.392 2.976 2.392 2.185-2.674c1.202-1.47 2.462-3.74 2.8-5.041zm-42.014-5.381l15.03-5.25 14.499-.095 14.498-.095.586-3.604.586-3.604-5.414-.676c-11.314-1.414-25.923.123-38.255 4.024-17.433 5.515-28.72 5.683-57.568.856-7.645-1.28-11.495-1.459-16-.745l-5.932.939v9l4-.5c10.323-1.29 27.042-.277 37.5 2.274 15.737 3.838 18.878 3.62 36.47-2.524zm27.28 1.5c.262-.785-.544-1.25-2.166-1.25-2.524 0-3.288.961-1.882 2.367 1.028 1.03 3.568.328 4.049-1.117zm-84.86-24.456c-1.75-1.406-5.2-19.824-4.2-22.426.345-.9 1.571-1.358 3.14-1.173 2.262.268 2.96 1.389 5.794 9.305 2.688 7.511 3.334 12.123 1.984 14.168-.693 1.049-5.459 1.138-6.718.126zm17.294.34c-1.7-1.078-5.488-18.23-4.29-19.428.492-.492 1.675-.74 2.629-.55 2.11.418 9.076 16.84 8.158 19.234-.657 1.713-4.31 2.131-6.497.744zm26.148-1.884c-.642-.422-1.824-4.241-2.625-8.488-1.193-6.316-1.224-8.04-.173-9.478 1.222-1.671 1.388-1.666 3.355.115 2.6 2.352 6.31 12.095 5.911 15.521-.223 1.917-.941 2.646-2.8 2.839-1.375.142-3.025-.086-3.668-.509zm15.46-.5c-1.075-.844-1.81-3.714-2.26-8.821-.558-6.316-.4-7.794.954-8.918 3.38-2.805 7.43 4.834 7.49 14.132.03 4.586-2.821 6.248-6.185 3.607zm-93.6-5.238c-5.67-2.996-12.757-6.22-15.75-7.162-4.631-1.46-5.442-2.079-5.442-4.153 0-2.351.205-2.422 5.75-2.005 4.027.303 7.956 1.546 13.11 4.148 11.392 5.75 16.312 9.448 15.948 11.987-.169 1.184-.983 2.26-1.808 2.392-.825.133-6.138-2.21-11.808-5.207zm64.475 4.82c-.367-.366-.667-4.222-.667-8.569 0-7.567.094-7.889 2.195-7.583 1.73.252 2.575 1.592 3.987 6.32 2.706 9.064 2.5 10.5-1.515 10.5-1.833 0-3.633-.3-4-.667zm43.6-3.082c-.37-.962-.693-3.775-.72-6.25-.043-4.122.16-4.5 2.404-4.5 2.042 0 2.69.774 3.895 4.65.794 2.559 1.168 5.371.83 6.25-.835 2.18-5.558 2.068-6.41-.15zm10.4 1.083c-.367-.367-.667-2.856-.667-5.532 0-3.591.43-5.03 1.645-5.495 2.412-.926 4.355 2.37 4.355 7.385 0 3.847-.25 4.309-2.333 4.309-1.283 0-2.633-.3-3-.667zm34.833-2.807c-1.758-.84-4.345-1.2-6.25-.868-2.98.517-3.25.348-3.25-2.047 0-2.685-.532-2.953-5.25-2.642-2.122.14-2.75-.264-2.75-1.771 0-1.382-1.388-2.537-4.75-3.952-17.397-7.326-30.035-9.015-76.75-10.255-36.96-.981-41.788-1.657-58-8.12-15.975-6.37-48.508-24.335-50.871-28.094-.785-1.248-.77-2.035.052-2.858 1.46-1.46 11.357 2.293 36.32 13.77 23.576 10.839 28.958 12.959 37.25 14.672 5.024 1.038 6.75 1.095 6.75.225 0-2.95-11.01-18.755-17.648-25.336-4.022-3.988-7.693-7.25-8.158-7.25-.465 0-3.512 2.013-6.77 4.473-3.259 2.46-6.95 4.485-8.203 4.5-3.352.039-32.222-20.622-32.222-23.06 0-4.303 5.174-2.251 20.704 8.212 5.613 3.781 10.476 6.875 10.81 6.875.973 0 8.486-6.264 8.486-7.076 0-.408-6.3-5.773-14-11.924-13.804-11.028-16.969-15-11.95-15 3.068 0 7.095 2.347 21.95 12.796 25.21 17.731 32.086 24.624 43.648 43.762 7.761 12.846 7.28 12.442 14.843 12.442 6.436 0 6.51-.031 6.504-2.75-.018-9.04-5.602-16.339-20.09-26.262-5.903-4.043-8.905-6.734-8.905-7.984 0-1.038.34-2.096.753-2.352 1.15-.71 7.9 1.854 12.045 4.577a1766.43 1766.43 0 0 0 6.632 4.334l2.93 1.902-3.68-5.752c-2.024-3.164-3.68-6.617-3.68-7.674 0-5.538 5.539-1.717 12.147 8.382 4.402 6.728 8.387 18.33 9.414 27.414l.698 6.165h16.41l-.832-6.088c-.56-4.092-2.343-9.01-5.44-15.006-4.416-8.552-5.012-11.906-2.115-11.906 2.144 0 6.46 5.107 10.147 12.009l3.408 6.379.704-3.75c.791-4.22.248-10.401-1.66-18.883-.981-4.367-1.012-6.024-.128-6.908 1.779-1.779 3.868.494 5.8 6.308l1.66 5.002 3.291-4.829c1.81-2.656 5.18-6.628 7.488-8.828 2.308-2.2 4.603-5.039 5.1-6.308.777-1.986 1.496-2.265 5.156-2 3.645.264 4.302.657 4.597 2.752.19 1.344-.26 2.919-1 3.5-1.02.8-1.345 4.69-1.345 16.112v15.056l6.306-6.306c3.468-3.469 6.73-6.306 7.25-6.306.52 0 .944-.852.944-1.893 0-2.118 2.225-3.342 4.492-2.472 5.356 2.055.033-10-7.546-17.09-5.76-5.387-10.49-6.8-21.324-6.369-8.082.322-8.122.312-8.122-2.176 0-3.415 4.606-4.878 15.5-4.922 6.24-.025 9.6.465 12.637 1.844 9.085 4.125 17.308 14.336 21.675 26.913 3.04 8.756 5.662 12.809 10.55 16.311l3.638 2.607 6.5-5.92c3.575-3.257 9.416-7.364 12.98-9.127 6.14-3.039 7.055-3.204 17.5-3.15 9.067.046 12.248.492 17.942 2.514 9.136 3.246 10.048 5.402 1.955 4.622-3.232-.312-8.127-1.07-10.877-1.686-11.574-2.591-21.615 1.28-33.264 12.823-7.566 7.497-18.142 20.394-23.74 28.95-2.686 4.104-2.724 4.333-.945 5.634 2.004 1.465 1.191 1.844 15.012-6.996 4.484-2.869 12.26-6.417 14.063-6.417.206 0 .374 1.062.374 2.36 0 1.87-2.099 3.79-10.105 9.25l-10.104 6.89 4.151.31c3.226.24 5.536-.455 10.355-3.115 8.55-4.72 10.454-4.998 21.518-3.139 11.02 1.852 14.513 3.19 15.005 5.746.318 1.65-.652 1.774-12.57 1.606-12.326-.173-13.163-.055-18.333 2.593-6.568 3.363-18.462 4.392-23.417 2.025zm-13.292-22.778c1.488-2.337 4.91-6.906 7.603-10.154l4.897-5.905-6.104-7.676c-3.357-4.222-6.554-8.451-7.104-9.398-.867-1.494-1.248-1.54-2.87-.344-1.458 1.074-2.056 3.388-2.71 10.475-.462 5.004-1.533 12.085-2.38 15.737-1.974 8.515-2.013 8.196 1.21 9.945 4 2.17 4.476 1.999 7.458-2.68zm-15.16-9.89c.918-4.204 1.912-9.829 2.21-12.5l.54-4.858-4.148 4.606c-4.115 4.567-12.725 18.02-12.032 18.8.576.647 7.695 1.913 9.823 1.746 1.574-.124 2.254-1.591 3.607-7.795zm-23.065-.54c3.603-9.631 4.989-17.402 4.962-27.818l-.027-10-3.979 4.4c-2.188 2.422-5.55 7.597-7.47 11.5-3.378 6.869-8.747 25.324-7.81 26.85.252.412 3.1.75 6.329.75h5.869l2.126-5.682zm-89.994 25.13c-5.487-5.724-11.622-9.518-21.938-13.568-7.354-2.887-9.624-4.225-9.87-5.82-.447-2.883 1.88-3.476 8.058-2.054 8.893 2.048 19.324 7.626 25.797 13.794 6.777 6.459 8.228 10.494 3.953 10.993-1.81.211-3.488-.724-6-3.345zm-5.322-66.115c-1.13-1.13-.741-3.594.842-5.343 1.36-1.502 1.204-2.088-1.57-5.915-3.771-5.208-8.913-7.626-21.19-9.968-9.84-1.877-12.27-3.556-9.69-6.696 2.02-2.461 17.59-9.638 29.191-13.456 5.363-1.764 9.75-3.747 9.75-4.407 0-.659-1.125-4.506-2.5-8.548-5.28-15.527-2.576-16.769 12.208-5.606 5.386 4.068 10.883 8.568 12.217 10 1.333 1.433 2.914 2.606 3.513 2.606 1.227 0 11.562-19.966 11.562-22.336 0-.841.985-1.842 2.188-2.224 3.034-.963 4.739 1.445 8.234 11.629 1.591 4.637 3.012 8.583 3.157 8.769.146.186 2.212-.776 4.593-2.137 5.533-3.163 17.456-7.058 19.364-6.326 2.027.778 1.844 5.593-.46 12.15-1.058 3.01-1.747 5.475-1.53 5.475.216 0 3.839-1.125 8.051-2.5s9.401-2.5 11.531-2.5c3.444 0 3.872.27 3.872 2.452 0 1.595-2.138 4.828-6.118 9.25-9.452 10.501-16.76 22.126-16.553 26.33.233 4.718-2.587 5.029-8.959.986-18.288-11.604-44.383-9.266-63.038 5.649-3.946 3.155-7.18 4.15-8.665 2.666zm11.33-16.083c-.003-3.655-2.085-20.637-2.594-21.166-.478-.496-14.878 4.265-21.796 7.205l-4.894 2.08 8.451 2.635c8.3 2.588 17.448 7.82 18.511 10.59.912 2.376 2.326 1.558 2.323-1.344zm69.197-9.635c2.582-3.913 5.686-8.393 6.899-9.955l2.204-2.84-6.054 3.057c-5.69 2.872-10.17 7.243-14.692 14.333l-1.73 2.71 3.34 1.427c2.935 1.253 3.46 1.241 4.34-.095.55-.837 3.112-4.723 5.693-8.637zm-55.26-4.084l4.36-9.615-2.831-2.956c-5.034-5.254-14.917-12.581-14.063-10.426 1.175 2.967 5.355 22.248 6.118 28.216.369 2.889.982 5.059 1.363 4.823.381-.235 2.655-4.754 5.053-10.042zm17.778 7.482l7.211-.014 1.108-4.113c1.869-6.941 1.413-18.043-1.044-25.427-1.215-3.65-2.575-6.26-3.022-5.799-2.563 2.644-15.965 32.885-15.965 36.024 0 .302 1.013.277 2.25-.055 1.238-.331 5.496-.609 9.462-.616zm23.4-9.074c2.155-2.65 4.655-7.585 6.198-12.24l2.587-7.802-2.198.636c-4.213 1.218-13.199 7.306-13.115 8.887.046.869.172 5.292.282 9.83.16 6.696.427 7.956 1.416 6.69.67-.859 2.844-3.559 4.83-6zm108.388-23.416c-3.3-.725-8.334-2.21-11.188-3.301-4.814-1.84-5.631-1.88-11.338-.562-3.383.781-9.598 1.29-13.812 1.13l-7.662-.29 7.303-2.295c4.017-1.262 8.457-2.734 9.868-3.27l2.565-.976-4.764-4.23c-2.62-2.326-5.283-4.539-5.918-4.917-.672-.401-4.68 2.625-9.604 7.252-7.893 7.416-11.402 9.817-12.599 8.62-.756-.756 2.42-6.564 6.798-12.434 2.154-2.888 3.425-5.25 2.823-5.25-.65 0-.967-1.508-.782-3.724.296-3.551.52-3.764 4.81-4.584 2.475-.473 5.175-1.56 6-2.418 1.34-1.393 1.304-1.49-.342-.912-4.955 1.737-6.344 1.672-9.006-.422-2.137-1.68-2.692-2.87-2.456-5.264.272-2.76.788-3.21 4.804-4.18l4.5-1.086.602-11.455c.79-15.038 3.5-21.812 8.148-20.365 1.154.359 1.75.01 1.75-1.023 0-1.086-.951-1.567-3.098-1.567-3.928 0-8.902-4.993-8.902-8.935V51.19l18.25-1.777c10.038-.978 19.029-2.19 19.98-2.695 4.533-2.405 11.052 3.022 9.011 7.502-.902 1.98-2.441 2.52-11.392 4-7.642 1.265-10.872 2.256-12.349 3.79l-2 2.08 4.5-.672c2.475-.369 5.538-1.35 6.806-2.18 1.268-.83 3.743-1.369 5.5-1.199 5.068.49 6.691 4.878 6.693 18.092.002 12.232-1.099 15.941-5.94 20.014-3.217 2.707-7.593 3.601-8.233 1.682-.539-1.617-9.253 1.782-11.949 4.66l-2.377 2.538 4-.722c2.2-.397 5.216-1.337 6.7-2.088 3.71-1.877 7.84-1.676 10.697.52l2.396 1.843-2.228 8.254c-1.225 4.54-1.853 8.618-1.396 9.062.457.445 5.853 1.75 11.99 2.902 14.644 2.748 18.841 4.23 18.841 6.653 0 1.436-.843 1.98-3.455 2.228-1.912.182-5.103 1.634-7.144 3.25-4.099 3.247-6.269 3.45-15.4 1.445zm-15.472-24.624c.607-2.256.891-4.314.631-4.574-.26-.26-1.842.235-3.516 1.1-4.036 2.088-5.741 1.985-7.445-.447-1.317-1.88-1.514-1.904-2.807-.338-.82.994-.98 1.83-.39 2.04.55.196 3.25 1.69 6 3.32 2.75 1.631 5.32 2.973 5.71 2.982.392.01 1.21-1.828 1.817-4.083zm-3.607-23.993c8.334-2.09 8.35-2.1 8.953-5.75.884-5.35.758-15.957-.197-16.547-.891-.551-16.268 4.07-17.311 5.202-1.243 1.35-2.084 19.189-.904 19.189.61 0 4.868-.943 9.459-2.094zm-6.22-2.106c-2.512-2.512-1.277-4.394 3.986-6.077 3.795-1.214 5.539-1.366 6.5-.569 2.526 2.097 1.452 4.573-2.707 6.237-4.807 1.924-6.192 1.996-7.78.409zm.05-8.941c-2.498-2.516-1.4-4.557 3.13-5.826 2.409-.674 5.221-1.066 6.25-.87 2.533.484 2.993 4.432.662 5.68-3.377 1.807-8.72 2.348-10.043 1.016zm-121.05 56.94c-.751-.75-1.2-4.478-1.2-9.952v-8.753l-3.622-1c-1.992-.55-9.08-4.06-15.75-7.797-13.192-7.393-15.844-7.944-28.398-5.895-4.321.706-5.173.611-4.737-.524.811-2.116 9.46-7.672 15.557-9.995 11.186-4.263 19.532-1.487 33.463 11.128 3.029 2.744 6.091 4.989 6.804 4.989.713 0 3.4-2.866 5.973-6.369 9.168-12.487 18.167-18.395 26.027-17.09 4.75.79 8.722 2.601 13.432 6.127 5.357 4.01 4.368 5.33-4 5.337-9.862.01-13.901 1.33-20.03 6.556-2.87 2.448-8.032 6.555-11.47 9.126l-6.25 4.675v8.385c0 10.8-2.082 14.77-5.8 11.053zm.8-43.051V84.346l-4.661-3.498c-6.371-4.782-8.569-9.084-8.065-15.79.688-9.171 6.316-14.085 17.127-14.953 3.566-.286 7.836 0 9.82.653 4.687 1.547 10.537 7.554 11.95 12.272 2.314 7.72-3.318 17.113-11.905 19.857-2.071.662-4.12 1.525-4.551 1.918-.432.393-1.682 4.47-2.778 9.06-2.075 8.688-3.238 10.985-5.56 10.985-1.08 0-1.378-2.211-1.378-10.252zm11.84-20.35c7.11-4.98 3.129-16.398-5.716-16.398-2.063 0-3.723.923-5.536 3.076-4.095 4.868-3.182 10.451 2.187 13.365 3.568 1.936 6.258 1.924 9.065-.042z" fill="#7f7f7f"/><path d="M59.484 444.4c-27.876-5.162-49.55-24.714-57.162-51.568C.572 386.66.484 378.534.484 223.35c0-181.934-.54-167.766 6.972-183 7.13-14.46 17.347-24.357 33.028-31.996C56.566.52 50.475.85 179.377.85c97.239 0 115.536.222 121.513 1.48 25.438 5.35 45.128 22.573 53.77 47.03l2.824 7.99.268 162.73c.298 181.492.701 170.369-6.707 185.27-7.567 15.221-17.593 25.224-32.56 32.483-16.512 8.008-6.06 7.42-136 7.655-91.47.165-117.48-.065-123-1.087zm242.745-4.485c24.182-6.185 43.66-25.139 50.42-49.065 1.746-6.185 1.835-14.31 1.835-167.5 0-180.305.593-165.474-7.251-181.5-5.414-11.062-18.671-24.095-30.249-29.737-16.945-8.258-6.682-7.642-133.368-8.005C60.502 3.755 60.968 3.737 46.984 9.412 28.072 17.09 12.674 33.502 6.702 52.35l-2.218 7v328l2.318 7c5.97 18.032 20.437 33.974 37.803 41.656 2.4 1.061 7.629 2.785 11.62 3.831 6.927 1.815 12.555 1.905 122.85 1.957 111.112.053 115.883-.02 123.154-1.88zm-142.745-48.621c-21.762-14.65-48.189-25.815-73.272-30.957-13.066-2.678-26.348-4.48-33.201-4.503-14.645-.05-3.726-7.583 17.473-12.055 6.72-1.417 30.472-1.856 34.821-.643 5.905 1.647 2.17 3.204-9.447 3.937-6.306.398-13.245 1.1-15.42 1.56-3.824.811-3.643.895 5.546 2.558 28.58 5.173 60.272 17.035 78.85 29.514 3.107 2.088 6.118 4.068 6.69 4.4.572.33 3.047-.758 5.5-2.42 6.207-4.206 24.16-13.137 36.83-18.322 12.84-5.254 23.193-7.981 39.415-10.38l12.215-1.807-8-3.638c-11.612-5.28-13-6.105-13-7.727 0-4.51 16.767-.993 33.174 6.96 12.042 5.838 15.8 9.004 13.463 11.342-.577.577-8.606 1.65-17.843 2.383-42.33 3.364-65.297 10.975-91.57 30.341-5.23 3.857-9.897 6.978-10.367 6.937-.471-.042-5.807-3.408-11.857-7.48zm7.108-18.412c-16.415-12.027-25.237-16.165-41.19-19.32l-10.083-1.994-2.219-25.61c-2.789-32.192-2.563-31.014-5.89-30.788-7.28.494.51-7.132 11.585-11.34 6.62-2.516 12.038-2.492 27.918.122 17.87 2.942 29.769 2.31 50.771-2.692 14.05-3.347 17.464-3.806 28-3.763 12.418.05 23.422 2.188 31.437 6.11 5.94 2.905 4.7 4.778-3.007 4.537l-6.57-.206-5.239 29.706c-2.881 16.338-5.55 29.97-5.93 30.291-.38.323-4.516 1.605-9.19 2.85-17.655 4.702-28.5 10.164-44.089 22.204-4.174 3.223-7.774 5.819-8 5.768-.226-.05-3.963-2.694-8.304-5.875zm9.33-6.789c-1.62-1.134-2.375-1.202-3.272-.292-1.714 1.74 2.105 4.484 4.024 2.891 1.112-.923.978-1.387-.752-2.599zm-10.546-8.507c-2.39-1.88-2.656-1.9-4.22-.324-1.563 1.573-1.51 1.806.82 3.572 2.269 1.72 2.646 1.748 4.221.323 1.627-1.473 1.579-1.684-.82-3.571zm22.207 2.89l3.492-2.372-3.206-2.698-3.205-2.697-3.017 3.016-3.017 3.017 2.427 2.02c1.335 1.112 2.564 2.036 2.73 2.054.167.018 1.875-1.034 3.796-2.34zm-32.77-7.722c1.113-1.784 1.052-2.38-.415-4-.948-1.048-2.318-1.904-3.045-1.904-1.284 0-5.028 4.738-4.254 5.383 1.114.929 4.516 2.56 5.395 2.586.555.017 1.598-.913 2.318-2.065zm20.857-1.079c2.846-2.673 2.903-3.983.275-6.361-2-1.81-2.105-1.782-5.25 1.385l-3.21 3.231 2.5 1.938c3.111 2.411 2.906 2.418 5.685-.193zm25.894-3.358c3.578-4.365 3.645-4.587 1.817-6.017-5.009-3.92-5.42-3.9-9.777.495l-4.12 4.155 3.266 2.95c1.796 1.622 3.679 2.95 4.183 2.95.505 0 2.589-2.04 4.631-4.533zm-58.894-3.642c2.983-2.802 2.925-3.254-.75-5.871l-3.064-2.182-2.446 2.298-2.447 2.298 2.698 2.816c1.484 1.548 2.922 2.816 3.196 2.816s1.54-.979 2.813-2.175zm83.21-.912c2.258-.677 4.104-1.586 4.104-2.02 0-.436-1.604-2.015-3.565-3.51l-3.565-2.72-3.65 3.65c-3.55 3.55-3.597 3.692-1.685 5.14 1.081.82 2.481 1.31 3.111 1.09.63-.22 2.993-.954 5.25-1.63zm-60.572-1.73l2.698-2.815-2.54-2.386-2.54-2.386-3.22 3.259-3.222 3.259 2.361 1.943c3.04 2.502 3.257 2.473 6.463-.873zm-42.824-.183c.34-.55.142-1-.44-1-.583 0-1.06.45-1.06 1s.199 1 .441 1c.243 0 .72-.45 1.06-1zm65.708-3.703c2.086-2.037 3.792-4.01 3.792-4.385 0-.376-1.151-1.437-2.559-2.36-2.53-1.657-2.603-1.627-6.407 2.636-3.54 3.967-3.723 4.451-2.286 6.062 2.214 2.48 3.179 2.227 7.46-1.953zm25.204-3.374c1.423-1.692 2.588-3.408 2.588-3.812 0-.404-1.425-1.79-3.167-3.077l-3.168-2.342-2.832 3.17c-3.485 3.9-3.501 4.466-.198 7.065 3.414 2.685 3.709 2.642 6.777-1.004zm-57.438-5c.014-.316-1.104-1.637-2.485-2.934l-2.511-2.36-3.478 3.371-3.478 3.371 3.239 2.762 3.24 2.761 2.723-3.197c1.497-1.759 2.735-3.457 2.75-3.773zm-25.358 3.968l2.244-2.108-2.68-2.318-2.68-2.317-2.255 2.105-2.256 2.106 2.18 2.32c2.656 2.827 2.663 2.827 5.447.212zm46.699-4.701l3.72-3.81-2.549-2.394-2.548-2.394-4.162 4.162c-4.09 4.089-4.13 4.197-2.314 6.203 2.562 2.83 3.589 2.6 7.853-1.767zm55.685 1.935c0-1.032.294-3.394.653-5.25l.653-3.375-2.245 1.988c-3.788 3.355-4.586 5.654-2.496 7.182 2.487 1.82 3.435 1.669 3.435-.545zm-32.09-6.533l3.303-3.407-2.656-1.74c-2.626-1.72-2.697-1.702-6.135 1.63l-3.479 3.373 2.279 1.753c2.99 2.302 2.87 2.33 6.689-1.609zm-58.09-6.284c-2.84-3.024-3.865-2.917-7.382.774l-2.938 3.082 2.982 2.39 2.981 2.39 3.264-3.164 3.263-3.163-2.17-2.309zm82.061 3.314l3.273-3.377-3.153-2.245-3.153-2.245-3.433 3.327-3.433 3.328 2.76 2.259c1.517 1.242 3.008 2.275 3.312 2.295.305.02 2.027-1.484 3.827-3.342zm-58.984-1.157c3.77-4.293 3.803-4.777.493-6.946-2.58-1.69-2.657-1.665-6.553 2.135l-3.944 3.846 2.61 2.25c1.435 1.237 2.987 2.25 3.45 2.25.462 0 2.237-1.591 3.944-3.535zm25.265-5.768c.67-1.252.603-2.277-.215-3.261-1.767-2.13-4.485-1.75-7.64 1.07l-2.807 2.507 2.966 2.453c2.807 2.321 3.067 2.362 4.843.754 1.032-.934 2.316-2.52 2.853-3.523zm-60.642-.718l2.894-3.02-2.604-2.604c-2.514-2.515-2.78-2.562-7.707-1.38-2.806.673-5.103 1.742-5.103 2.374 0 1.34 6.995 7.558 8.563 7.613.585.02 2.366-1.322 3.957-2.983zm81.887-1.618l2.906-3.494-2.162-2.161-2.162-2.162-3.673 3.673-3.673 3.673 2.429 2.021c1.336 1.112 2.653 2.004 2.928 1.983.275-.021 1.808-1.611 3.407-3.533zm-57.15-3.45c-.416-.385-2.134-.99-3.817-1.344-2.31-.485-3.488-.171-4.802 1.281-1.669 1.844-1.628 2.014.978 4.064l2.72 2.14 2.84-2.72c1.56-1.495 2.497-3.035 2.081-3.42zm82.227-3.78c.7-2.7.719-2.668-2.034-3.511-1.514-.464-2.945.295-5.476 2.907l-3.427 3.536 2.977 2.392 2.976 2.392 2.185-2.674c1.202-1.47 2.462-3.74 2.8-5.041zm-42.014-5.381l15.03-5.25 14.499-.095 14.498-.095.586-3.604.586-3.604-5.414-.676c-11.314-1.414-25.923.123-38.255 4.024-17.433 5.515-28.72 5.683-57.568.856-7.645-1.28-11.495-1.459-16-.745l-5.932.939v9l4-.5c10.323-1.29 27.042-.277 37.5 2.274 15.737 3.838 18.878 3.62 36.47-2.524zm27.28 1.5c.262-.785-.544-1.25-2.166-1.25-2.524 0-3.288.961-1.882 2.367 1.028 1.03 3.568.328 4.049-1.117zm-84.86-24.456c-1.75-1.406-5.2-19.824-4.2-22.426.345-.9 1.571-1.358 3.14-1.173 2.262.268 2.96 1.389 5.794 9.305 2.688 7.511 3.334 12.123 1.984 14.168-.693 1.049-5.459 1.138-6.718.126zm17.294.34c-1.7-1.078-5.488-18.23-4.29-19.428.492-.492 1.675-.74 2.629-.55 2.11.418 9.076 16.84 8.158 19.234-.657 1.713-4.31 2.131-6.497.744zm26.148-1.884c-.642-.422-1.824-4.241-2.625-8.488-1.193-6.316-1.224-8.04-.173-9.478 1.222-1.671 1.388-1.666 3.355.115 2.6 2.352 6.31 12.095 5.911 15.521-.223 1.917-.941 2.646-2.8 2.839-1.375.142-3.025-.086-3.668-.509zm15.46-.5c-1.075-.844-1.81-3.714-2.26-8.821-.558-6.316-.4-7.794.954-8.918 3.38-2.805 7.43 4.834 7.49 14.132.03 4.586-2.821 6.248-6.185 3.607zm-93.6-5.238c-5.67-2.996-12.757-6.22-15.75-7.162-4.631-1.46-5.442-2.079-5.442-4.153 0-2.351.205-2.422 5.75-2.005 4.027.303 7.956 1.546 13.11 4.148 11.392 5.75 16.312 9.448 15.948 11.987-.169 1.184-.983 2.26-1.808 2.392-.825.133-6.138-2.21-11.808-5.207zm64.475 4.82c-.367-.366-.667-4.222-.667-8.569 0-7.567.094-7.889 2.195-7.583 1.73.252 2.575 1.592 3.987 6.32 2.706 9.064 2.5 10.5-1.515 10.5-1.833 0-3.633-.3-4-.667zm43.6-3.082c-.37-.962-.693-3.775-.72-6.25-.043-4.122.16-4.5 2.404-4.5 2.042 0 2.69.774 3.895 4.65.794 2.559 1.168 5.371.83 6.25-.835 2.18-5.558 2.068-6.41-.15zm10.4 1.083c-.367-.367-.667-2.856-.667-5.532 0-3.591.43-5.03 1.645-5.495 2.412-.926 4.355 2.37 4.355 7.385 0 3.847-.25 4.309-2.333 4.309-1.283 0-2.633-.3-3-.667zm34.833-2.807c-1.758-.84-4.345-1.2-6.25-.868-2.98.517-3.25.348-3.25-2.047 0-2.685-.532-2.953-5.25-2.642-2.122.14-2.75-.264-2.75-1.771 0-1.382-1.388-2.537-4.75-3.952-17.397-7.326-30.035-9.015-76.75-10.255-36.96-.981-41.788-1.657-58-8.12-15.975-6.37-48.508-24.335-50.871-28.094-.785-1.248-.77-2.035.052-2.858 1.46-1.46 11.357 2.293 36.32 13.77 23.576 10.839 28.958 12.959 37.25 14.672 5.024 1.038 6.75 1.095 6.75.225 0-2.95-11.01-18.755-17.648-25.336-4.022-3.988-7.693-7.25-8.158-7.25-.465 0-3.512 2.013-6.77 4.473-3.259 2.46-6.95 4.485-8.203 4.5-3.352.039-32.222-20.622-32.222-23.06 0-4.303 5.174-2.251 20.704 8.212 5.613 3.781 10.476 6.875 10.81 6.875.973 0 8.486-6.264 8.486-7.076 0-.408-6.3-5.773-14-11.924-13.804-11.028-16.969-15-11.95-15 3.068 0 7.095 2.347 21.95 12.796 25.21 17.731 32.086 24.624 43.648 43.762 7.761 12.846 7.28 12.442 14.843 12.442 6.436 0 6.51-.031 6.504-2.75-.018-9.04-5.602-16.339-20.09-26.262-5.903-4.043-8.905-6.734-8.905-7.984 0-1.038.34-2.096.753-2.352 1.15-.71 7.9 1.854 12.045 4.577a1766.43 1766.43 0 0 0 6.632 4.334l2.93 1.902-3.68-5.752c-2.024-3.164-3.68-6.617-3.68-7.674 0-5.538 5.539-1.717 12.147 8.382 4.402 6.728 8.387 18.33 9.414 27.414l.698 6.165h16.41l-.832-6.088c-.56-4.092-2.343-9.01-5.44-15.006-4.416-8.552-5.012-11.906-2.115-11.906 2.144 0 6.46 5.107 10.147 12.009l3.408 6.379.704-3.75c.791-4.22.248-10.401-1.66-18.883-.981-4.367-1.012-6.024-.128-6.908 1.779-1.779 3.868.494 5.8 6.308l1.66 5.002 3.291-4.829c1.81-2.656 5.18-6.628 7.488-8.828 2.308-2.2 4.603-5.039 5.1-6.308.777-1.986 1.496-2.265 5.156-2 3.645.264 4.302.657 4.597 2.752.19 1.344-.26 2.919-1 3.5-1.02.8-1.345 4.69-1.345 16.112v15.056l6.306-6.306c3.468-3.469 6.73-6.306 7.25-6.306.52 0 .944-.852.944-1.893 0-2.118 2.225-3.342 4.492-2.472 5.356 2.055.033-10-7.546-17.09-5.76-5.387-10.49-6.8-21.324-6.369-8.082.322-8.122.312-8.122-2.176 0-3.415 4.606-4.878 15.5-4.922 6.24-.025 9.6.465 12.637 1.844 9.085 4.125 17.308 14.336 21.675 26.913 3.04 8.756 5.662 12.809 10.55 16.311l3.638 2.607 6.5-5.92c3.575-3.257 9.416-7.364 12.98-9.127 6.14-3.039 7.055-3.204 17.5-3.15 9.067.046 12.248.492 17.942 2.514 9.136 3.246 10.048 5.402 1.955 4.622-3.232-.312-8.127-1.07-10.877-1.686-11.574-2.591-21.615 1.28-33.264 12.823-7.566 7.497-18.142 20.394-23.74 28.95-2.686 4.104-2.724 4.333-.945 5.634 2.004 1.465 1.191 1.844 15.012-6.996 4.484-2.869 12.26-6.417 14.063-6.417.206 0 .374 1.062.374 2.36 0 1.87-2.099 3.79-10.104 9.25l-10.105 6.89 4.151.31c3.226.24 5.536-.455 10.355-3.115 8.55-4.72 10.454-4.998 21.518-3.139 11.02 1.852 14.513 3.19 15.005 5.746.318 1.65-.652 1.774-12.57 1.606-12.326-.173-13.163-.055-18.333 2.593-6.568 3.363-18.462 4.392-23.417 2.025zm-13.292-22.778c1.488-2.337 4.91-6.906 7.603-10.154l4.897-5.905-6.104-7.676c-3.357-4.222-6.554-8.451-7.104-9.398-.867-1.494-1.248-1.54-2.87-.344-1.458 1.074-2.056 3.388-2.71 10.475-.462 5.004-1.533 12.085-2.38 15.737-1.974 8.515-2.013 8.196 1.21 9.945 4 2.17 4.476 1.999 7.458-2.68zm-15.16-9.89c.918-4.204 1.912-9.829 2.21-12.5l.54-4.858-4.148 4.606c-4.115 4.567-12.725 18.02-12.032 18.8.576.647 7.695 1.913 9.823 1.746 1.574-.124 2.254-1.591 3.607-7.795zm-23.065-.54c3.603-9.631 4.989-17.402 4.962-27.818l-.027-10-3.979 4.4c-2.188 2.422-5.55 7.597-7.47 11.5-3.378 6.869-8.747 25.324-7.81 26.85.252.412 3.1.75 6.329.75h5.869l2.126-5.682zm-89.994 25.13c-5.487-5.724-11.622-9.518-21.938-13.568-7.354-2.887-9.624-4.225-9.87-5.82-.447-2.883 1.88-3.476 8.058-2.054 8.893 2.048 19.324 7.626 25.797 13.794 6.777 6.459 8.228 10.494 3.953 10.993-1.81.211-3.488-.724-6-3.345zm-5.322-66.115c-1.13-1.13-.741-3.594.842-5.343 1.36-1.502 1.204-2.088-1.57-5.915-3.771-5.208-8.913-7.626-21.19-9.968-9.84-1.877-12.27-3.556-9.69-6.696 2.02-2.461 17.59-9.638 29.191-13.456 5.363-1.764 9.75-3.747 9.75-4.407 0-.659-1.125-4.506-2.5-8.548-5.28-15.527-2.576-16.769 12.208-5.606 5.386 4.068 10.883 8.568 12.217 10 1.333 1.433 2.914 2.606 3.513 2.606 1.227 0 11.562-19.966 11.562-22.336 0-.841.985-1.842 2.188-2.224 3.034-.963 4.739 1.445 8.234 11.629 1.591 4.637 3.012 8.583 3.157 8.769.146.186 2.212-.776 4.593-2.137 5.533-3.163 17.456-7.058 19.364-6.326 2.027.778 1.844 5.593-.46 12.15-1.058 3.01-1.747 5.475-1.53 5.475.216 0 3.839-1.125 8.051-2.5s9.401-2.5 11.531-2.5c3.444 0 3.872.27 3.872 2.452 0 1.595-2.138 4.828-6.118 9.25-9.452 10.501-16.76 22.126-16.553 26.33.233 4.718-2.587 5.029-8.959.986-18.288-11.604-44.383-9.266-63.038 5.649-3.946 3.155-7.18 4.15-8.665 2.666zm11.33-16.083c-.003-3.655-2.085-20.637-2.594-21.166-.478-.496-14.878 4.265-21.796 7.205l-4.894 2.08 8.451 2.635c8.3 2.588 17.448 7.82 18.511 10.59.912 2.376 2.326 1.558 2.323-1.344zm69.197-9.635c2.582-3.913 5.686-8.393 6.899-9.955l2.204-2.84-6.054 3.057c-5.69 2.872-10.17 7.243-14.692 14.333l-1.73 2.71 3.34 1.427c2.935 1.253 3.46 1.241 4.34-.095.55-.837 3.112-4.723 5.693-8.637zm-55.26-4.084l4.36-9.615-2.831-2.956c-5.034-5.254-14.917-12.581-14.063-10.426 1.175 2.967 5.355 22.248 6.118 28.216.369 2.889.982 5.059 1.363 4.823.381-.235 2.655-4.754 5.053-10.042zm17.778 7.482l7.211-.014 1.108-4.113c1.869-6.941 1.413-18.043-1.044-25.427-1.215-3.65-2.575-6.26-3.022-5.799-2.563 2.644-15.965 32.885-15.965 36.024 0 .302 1.013.277 2.25-.055 1.238-.331 5.496-.609 9.462-.616zm23.4-9.074c2.155-2.65 4.655-7.585 6.198-12.24l2.587-7.802-2.198.636c-4.213 1.218-13.199 7.306-13.115 8.887.046.869.172 5.292.282 9.83.16 6.696.427 7.956 1.416 6.69.67-.859 2.844-3.559 4.83-6zm108.293-23.425c-3.352-.729-8.326-2.286-11.053-3.459-4.738-2.038-5.22-2.064-10.865-.594-5.424 1.413-22.508 2.227-21.296 1.014.289-.288 3.806-1.433 7.817-2.545 12.202-3.381 12.19-3.364 5.895-9.004-2.971-2.662-5.775-4.86-6.231-4.883-.456-.024-4.87 3.669-9.811 8.207-4.94 4.537-9.406 8.4-9.922 8.583-3.233 1.148 1.15-7.885 6.78-13.97 2.073-2.242 2.256-2.932 1.214-4.6-.674-1.08-.942-3.092-.594-4.474.527-2.1 1.396-2.618 5.295-3.153 4.55-.623 7.366-2.041 7.366-3.708 0-.454-1.585-.164-3.522.646-2.797 1.168-3.983 1.227-5.75.285-5.554-2.958-6.383-8.087-1.578-9.762 1.732-.603 3.92-1.097 4.862-1.097 1.493 0 1.778-1.517 2.214-11.75.312-7.324 1.085-13.133 2.053-15.42 1.547-3.657 4.841-6.377 6.144-5.074.378.377 1.105.024 1.617-.785 1.484-2.348 1.117-3.156-1.113-2.448-4.457 1.414-10.927-4.041-10.927-9.213 0-1.707 1.689-2.05 18.156-3.689 9.986-.993 19.149-2.259 20.362-2.811 2.8-1.276 8.04 1.22 9.016 4.296 1.164 3.667-2.126 5.62-12.452 7.395-6.143 1.056-10.316 2.34-12 3.693l-2.582 2.074 5.5-.694c3.025-.382 6.54-1.37 7.81-2.196 3.354-2.182 6.307-1.347 8.906 2.52 2.034 3.024 2.284 4.6 2.284 14.363 0 9.464-.303 11.506-2.211 14.902-2.966 5.277-8.142 8.513-11.114 6.95-2.791-1.47-11.42 1.618-13.568 4.853-1.431 2.156-1.393 2.179 2.47 1.502 2.158-.379 5.23-1.314 6.827-2.078 3.827-1.833 6.173-1.754 9.692.325 3.309 1.955 3.425 2.557 1.532 7.922-.754 2.139-1.681 5.722-2.06 7.962l-.688 4.073 13.786 2.697c13.664 2.672 18.824 4.656 18.065 6.944-.216.653-2.358 1.454-4.76 1.78-2.401.326-4.54 1.114-4.752 1.75-.212.636-.968 1.157-1.68 1.157-.711 0-1.854.675-2.539 1.5-1.485 1.79-4.422 1.793-12.595.015zm-15.377-24.615c.607-2.256.854-4.351.548-4.657-.305-.305-2.404.278-4.663 1.297l-4.108 1.853-1.895-2.446c-1.607-2.076-2.045-2.219-2.887-.946-.545.825-.999 1.73-1.007 2.01-.018.58 11.102 6.93 12.196 6.966.391.013 1.208-1.822 1.816-4.077zm-3.187-23.84c4.037-1.049 7.586-2.153 7.887-2.454 1.17-1.17 1.539-19.323.407-20.022-.618-.382-4.95.568-9.627 2.111-8.154 2.69-8.505 2.93-8.513 5.806-.005 1.65-.296 6.037-.646 9.75-.749 7.927-1.026 7.8 10.492 4.809zm-6.305-2.41c-2.687-1.964-1.43-3.91 3.758-5.82 3.733-1.375 4.85-1.445 6.286-.395 2.18 1.594 1.287 4.29-1.804 5.447-5.21 1.95-6.465 2.066-8.24.768zm-.008-9.266c-2.372-2.371-1.444-3.655 3.827-5.292 4.16-1.292 4.879-1.287 6.212.046 2.205 2.205.856 4.42-3.485 5.72-4.804 1.44-4.629 1.452-6.554-.474zM138.734 137.77c-1.444-.841-1.762-2.536-1.82-9.72l-.072-8.7-16.785-8.401c-18.354-9.188-17.737-9.064-32.573-6.505l-4 .69 2.47-2.69c1.357-1.478 6.022-4.467 10.365-6.641 13.577-6.796 20.635-5.125 36.247 8.582 3.424 3.006 6.915 5.466 7.758 5.466s4.243-3.488 7.554-7.75c11.712-15.073 20.713-18.978 31.343-13.598 3.22 1.63 9.763 7.214 9.763 8.332 0 .427-4.162.972-9.25 1.211-10.067.473-15.141 2.347-19.75 7.294-1.375 1.476-5.537 4.937-9.25 7.692l-6.75 5.008v8.47c0 7.826-1.031 12.385-2.785 12.31-.393-.017-1.502-.489-2.465-1.05zm.25-43.846c0-6.694-.394-11.073-.997-11.073-1.597 0-8.998-7.092-10.567-10.126-1.826-3.53-1.84-9.198-.03-12.674 6.17-11.858 25.071-13.742 33.8-3.368 8.015 9.525 4.497 20.442-8.426 26.15-4.143 1.83-4.85 2.6-5.785 6.301-2.652 10.51-4.547 15.226-6.245 15.54-1.58.292-1.75-.748-1.75-10.75zm13.51-21.268c2.186-2.597 2.583-3.86 2.123-6.75-1.736-10.92-17.633-10.491-17.633.476 0 4.963 4.442 9.469 9.335 9.469 2.695 0 4.099-.727 6.176-3.195z" fill="#495547"/><path d="M61.815 444.84c-29.184-5.012-52.097-25.395-59.57-52.99-1.647-6.08-1.76-16.986-1.76-168.5C.484 90.95.73 60.345 1.83 55.85c.74-3.025 3.388-9.775 5.883-15 3.845-8.054 5.848-10.809 13.153-18.091 9.466-9.436 16.947-14.133 29.617-18.593l8-2.816h240l7.5 2.341c20.954 6.543 36.963 20.131 45.546 38.659 6.907 14.91 6.547 4.293 6.235 184l-.28 162-2.824 8c-4.228 11.978-8.132 18.1-17.602 27.602-7.163 7.187-10.139 9.367-18.075 13.244-17.964 8.777-6.758 8.1-137 8.284-63.525.09-117.6-.198-120.169-.64zm240.701-4.999c13.514-3.456 21.78-8.223 31.995-18.453 6.87-6.88 9.913-10.83 12.74-16.538 7.791-15.727 7.167-1.09 7.512-176 .215-109.143-.022-159.024-.784-164.84-3.003-22.913-16.26-41.802-36.222-51.605-17.626-8.656-7.286-8.055-138.773-8.055h-116.5L54.53 6.653c-12.86 3.723-20.95 8.51-30.665 18.147-8.718 8.647-12.458 14.505-17.269 27.045L4.484 57.35l-.28 162.5c-.315 182.141-.79 169.627 7.04 185.286 8.088 16.17 25.4 29.833 43.97 34.698 6.942 1.82 12.51 1.908 123.36 1.96 113.07.054 116.295 0 123.942-1.953zm-142.215-48.414c-13.363-8.788-31.3-18.046-44.317-22.876-17.39-6.452-47.865-12.674-62.284-12.717-14.726-.043-7.228-5.941 14.274-11.229 10.515-2.585 33.968-3.133 37.92-.885 3.596 2.046 1.29 2.76-11.41 3.535-6.05.369-12.575 1.024-14.5 1.455-3.355.752-3.21.836 3.5 2.023 29.452 5.21 60.054 16.53 80.218 29.673 6.879 4.484 9.022 5.443 10.24 4.582 4.986-3.52 21.975-12.682 30.58-16.49 19.959-8.832 35.793-13.223 54.788-15.19 3.754-.39 6.454-1.02 6-1.403-.454-.382-5.233-2.65-10.619-5.04-5.386-2.391-10.056-4.773-10.378-5.293-2.032-3.288 9.382-3.083 19.403.347 10.53 3.605 26.3 11.847 27.211 14.221.467 1.215.473 2.609.015 3.097-.458.489-8.624 1.504-18.145 2.257-32.19 2.546-51.44 7.36-71.865 17.972-5.87 3.05-13.997 8.047-18.06 11.104-4.063 3.057-8.293 6.152-9.399 6.878-1.808 1.185-3.135.579-13.172-6.021zm3.683-20.818c-6.325-4.33-14.2-9.197-17.5-10.815-5.975-2.93-17.896-6.253-26.548-7.402l-4.548-.605-2.287-26.718c-1.257-14.696-2.516-27.548-2.798-28.56-.328-1.181-1.155-1.674-2.304-1.373-.986.257-2.405.06-3.154-.438-1.824-1.215 3.226-5.566 10.933-9.42 4.816-2.408 6.955-2.859 13.706-2.89 4.4-.022 13.175.8 19.5 1.824 15.896 2.574 28.791 1.83 49-2.83 20.457-4.718 29.674-5.324 42.02-2.762 11.884 2.466 20.201 5.888 19.741 8.122-.268 1.308-1.49 1.554-6.545 1.318-3.952-.184-6.216.103-6.216.787 0 1.186-10.137 58.38-10.405 58.705-.092.112-5.533 1.83-12.093 3.818-18.967 5.75-27.886 10.356-42.502 21.954l-6.5 5.158-11.5-7.873zm12.926-2.17c.928-1.118.701-1.737-1.096-2.996-2.004-1.404-2.436-1.416-3.752-.1-1.315 1.316-1.262 1.657.468 2.965 2.458 1.858 2.935 1.873 4.38.132zm-9.827-7.208c1.16-1.399.945-1.935-1.594-3.96-2.72-2.168-3.068-2.222-4.72-.726-2.359 2.134-2.273 2.538.965 4.546 3.425 2.124 3.697 2.13 5.349.14zm20.533-.463c1.853-1.145 3.368-2.41 3.368-2.812 0-.943-5.618-5.106-6.891-5.106-.535 0-1.982 1.417-3.215 3.149l-2.243 3.15 2.286 1.85c2.821 2.285 2.613 2.292 6.695-.231zm-32.085-7.97c1.823-2.014 1.803-2.095-1.095-4.425L151.484 346l-2.75 2.612c-1.512 1.436-2.75 2.89-2.75 3.232 0 .648 4.703 2.715 6.595 2.9.603.057 1.931-.818 2.952-1.946zm20.92-1.914l2.841-2.965-2.404-2.001c-3.097-2.58-3.03-2.59-6.387.914-2.785 2.907-2.811 3.034-1.032 5 2.452 2.71 3.631 2.55 6.982-.948zm24.472-1.284c2.206-2.338 4.023-4.7 4.036-5.25.014-.55-1.525-2.238-3.42-3.75l-3.446-2.75-4.517 4.75-4.516 4.75 3.712 3.212c2.042 1.767 3.809 3.23 3.926 3.25.118.02 2.02-1.875 4.225-4.212zm-58.553-10.842l-3.713-2.95-2.336 2.195c-3.086 2.9-2.967 3.832.904 7.082l3.26 2.735 2.798-3.056 2.8-3.055-3.713-2.95zm23.053 3.416l2.939-3.531-2.439-1.875c-3.28-2.521-4.095-2.408-7.38 1.02l-2.814 2.938 2.878 2.53c1.582 1.392 3.102 2.512 3.377 2.49.275-.022 1.823-1.63 3.44-3.572zM225 344.186c3.291-.916 5.984-1.964 5.984-2.33 0-.367-1.986-2.094-4.415-3.838l-4.415-3.17-3.187 4.024c-2.605 3.289-2.964 4.295-1.963 5.501 1.493 1.799.792 1.815 7.996-.187zm-102.016-2.277c0-.518-.45-1.22-1-1.56-.55-.34-1 .084-1 .942 0 .857.45 1.559 1 1.559s1-.424 1-.941zm65.447-3.83c3.712-4.146 3.772-4.33 2.034-6.25-.985-1.09-2.264-1.98-2.843-1.98-1.287 0-8.638 7.058-8.638 8.293 0 1.036 4.237 4.737 5.062 4.422.308-.118 2.282-2.137 4.385-4.486zm25.013-2.98c1.917-2.062 3.495-3.974 3.507-4.25.01-.274-1.58-1.59-3.535-2.92l-3.555-2.422-3.662 3.662-3.662 3.661 3.474 2.97c1.91 1.632 3.58 2.987 3.71 3.009.13.022 1.805-1.647 3.723-3.71zm-82.774-.424c2.962-2.783 2.915-3.262-.57-5.743l-2.883-2.053-2.683 2.11-2.684 2.111 2.755 2.875c1.514 1.58 2.978 2.875 3.252 2.875.274 0 1.54-.979 2.813-2.175zm23.812-7.304c-1.648-1.347-3.24-2.466-3.535-2.485-.296-.02-2.096 1.314-4 2.964l-3.463 3 3.474 3.01 3.474 3.009 3.524-3.525 3.524-3.524-2.998-2.45zm23.377 2.106l4.292-4.373-2.988-2.127c-1.643-1.17-3.426-2.127-3.962-2.127-.537 0-2.579 1.956-4.538 4.347l-3.563 4.348 2.692 2.097c1.48 1.153 2.936 2.121 3.234 2.152.298.03 2.473-1.912 4.833-4.317zm55.136 2.623c.006-.963.29-3.438.631-5.5.761-4.603-.276-4.647-3.995-.172l-2.854 3.433 2.354 1.961c2.935 2.445 3.85 2.51 3.864.278zm-31.554-13.2l-2.6-2.55-3.495 3.994-3.495 3.994 2.78 2.391 2.78 2.392 3.315-3.835 3.315-3.835-2.6-2.55zm-59.403 4.393l3.446-3.556-2.5-1.922c-3.334-2.562-3.872-2.481-7.62 1.152l-3.218 3.118 2.67 2.35c1.467 1.294 2.918 2.366 3.222 2.383.305.017 2.105-1.569 4-3.525zm82.82-7.796l-3.135-2.853-3.62 3.67-3.619 3.67 3.5 2.981 3.5 2.982 3.254-3.799 3.254-3.798-3.134-2.853zm-57.059-1.345c-2.922-3.11-3.787-2.94-8.247 1.629l-3.84 3.93 2.887 2.506 2.885 2.506 4.24-4.134 4.238-4.134-2.163-2.303zm-46.71 7.401c-1.284-1.283-2.586-.291-1.636 1.246.368.596 1.128.8 1.688.454.683-.422.665-.981-.053-1.7zm68.95-5.273c3.334-3.455 3.383-3.617 1.504-5-2.824-2.08-5.002-1.77-8.557 1.222l-3.152 2.652 2.825 2.312c1.554 1.271 3.075 2.328 3.38 2.348.304.02 2.104-1.571 4-3.534zm-56.055-5.41c0-.354-1.373-1.66-3.051-2.9-2.326-1.72-3.813-2.104-6.25-1.614-8.255 1.659-8.604 2.745-2.51 7.807l4.188 3.478 3.812-3.063c2.096-1.685 3.811-3.353 3.811-3.708zm79.054 1.423l3.446-3.556-2.5-1.922c-1.375-1.056-2.749-1.931-3.053-1.943-.305-.012-2.105 1.578-4 3.534l-3.447 3.556 2.5 1.922c1.375 1.056 2.75 1.931 3.054 1.943.305.012 2.105-1.578 4-3.534zm-59.564-.433c1.576-1.644 2.654-3.2 2.396-3.458s-2.413-.6-4.788-.76c-5.75-.39-7.697 2.065-4.047 5.102 3.15 2.621 3.07 2.632 6.44-.884zm83.911-6.264c1.159-5.792-3.957-6.506-8.06-1.126l-2.762 3.62 2.834 2.438 2.834 2.438 2.266-2.128c1.246-1.17 2.546-3.53 2.888-5.242zm-37.9 1.254c.34-.55-.084-1-.942-1-.857 0-1.559.45-1.559 1s.424 1 .941 1c.518 0 1.22-.45 1.56-1zm-9.749-5.129c20.806-7.44 23.74-8.046 37.23-7.696l12.48.325.597-3.66c.56-3.435.416-3.696-2.356-4.25-1.624-.325-8.02-.59-14.214-.59-9.118 0-12.854.476-19.625 2.5-20.191 6.04-24.613 6.773-36.609 6.074-6.185-.36-16.535-1.528-23-2.594-12.468-2.057-17.446-2.34-23.505-1.339-3.749.62-3.75.622-3.75 5.606 0 4.934.03 4.979 2.75 4.32 1.513-.367 7.475-.89 13.25-1.161 9.205-.433 12.043-.13 23 2.456 16.78 3.96 22.697 3.963 33.752.01zm31.776-1.697c-3.387-.406-4.185.329-2.527 2.327 1.155 1.391 1.487 1.368 3.261-.226 1.95-1.752 1.94-1.78-.734-2.1zm-83.474-23.12c-.886-.56-2.115-4.904-3.175-11.222-1.84-10.968-1.413-13.213 2.401-12.63 2.722.415 9.07 17.746 7.762 21.188-1.232 3.242-4.254 4.394-6.988 2.664zm17.293.18c-1.8-1.147-5.61-18.372-4.342-19.639 1.938-1.938 4.298.84 7.83 9.212 2.831 6.715 3.217 8.426 2.18 9.675-1.348 1.624-3.79 1.948-5.668.752zm26.43-2.484c-.885-.689-2.266-4.532-3.072-8.55-1.296-6.459-1.292-7.47.035-8.797 2.314-2.314 4.834.629 7.426 8.677 1.814 5.635 1.966 7.057.888 8.355-1.569 1.89-3.133 1.983-5.278.315zm15.39-.5c-1.67-1.423-2.112-3.153-2.36-9.25-.289-7.068-.18-7.518 1.886-7.812 2.881-.41 5.282 4.169 6.041 11.522.423 4.094.211 5.711-.834 6.372-1.949 1.235-2.398 1.156-4.733-.832zm-92.028-3.958c-4.599-2.527-11.574-5.78-15.5-7.226-5.611-2.068-7.207-3.105-7.458-4.849-.292-2.025.095-2.217 4.454-2.217 9.038 0 31.708 13.057 30.072 17.32-.933 2.432-2.268 2.082-11.568-3.028zm62.528 4.04c-.367-.366-.667-4.19-.667-8.5 0-5.986.325-7.832 1.378-7.832.758 0 1.84.562 2.405 1.25 1.578 1.918 4.461 12.672 3.835 14.303-.557 1.452-5.702 2.029-6.95.78zm43.72-2.77c-.304-.79-.627-3.602-.72-6.25-.147-4.245.09-4.85 2.013-5.123 1.856-.264 2.444.527 3.954 5.316 1.536 4.875 1.579 5.748.32 6.545-2.178 1.377-4.945 1.135-5.568-.487zm10.322.813c-.39-.39-.709-2.898-.709-5.574 0-3.591.43-5.03 1.645-5.495 2.475-.95 4.492 2.546 4.15 7.194-.232 3.145-.73 4.062-2.336 4.292-1.122.16-2.36-.027-2.75-.417zm35.448-2.906c-1.84-.798-4.764-1.343-6.5-1.21-2.6.198-3.212-.156-3.475-2.01-.334-2.346-.89-2.58-5.432-2.28-2.188.144-2.75-.25-2.75-1.93 0-1.563-1.222-2.634-4.71-4.13-15.212-6.52-32.315-8.772-75.29-9.912-35.539-.942-41.415-1.64-55-6.53-14.57-5.244-54.414-26.778-55.687-30.096-2.01-5.236 6.427-2.5 39.687 12.872 20.901 9.66 27.408 12.166 34.5 13.295 2.2.35 4.815.86 5.811 1.136 1.583.436 1.472-.172-.888-4.838-4.306-8.514-9.73-15.83-17.142-23.119l-6.896-6.783-6.648 5.033c-3.656 2.768-7.457 5.033-8.447 5.033-.99 0-7.872-4.283-15.294-9.518-16.325-11.514-16.996-12.065-16.996-13.973 0-3.694 7.457-.348 22.62 10.15l9.31 6.446 4.518-4.164 4.517-4.164-9.302-7.639c-5.116-4.201-11.397-9.213-13.958-11.138-4.43-3.33-6.576-6.462-5.302-7.736 1.573-1.573 9.548 2.787 23.982 13.111 25.144 17.985 32.538 25.54 44.162 45.125 2.612 4.4 5.443 8.562 6.292 9.25.87.704 4.295 1.25 7.853 1.25 6.1 0 6.308-.084 6.308-2.558 0-10.026-4.857-16.474-20.25-26.885-5.986-4.05-8.75-6.534-8.75-7.869 0-3.258 6.522-1.392 14.742 4.218 3.992 2.724 7.258 4.626 7.258 4.227 0-.4-1.563-3.18-3.474-6.18-4.74-7.44-4.589-11.788.291-8.37 7.18 5.03 16.267 24.194 17.77 37.478l.672 5.939h16.374l-.734-6.25c-.526-4.475-2.025-8.745-5.274-15.03-4.35-8.412-4.94-11.72-2.09-11.72 1.885 0 7.085 6.58 10.188 12.892 2.185 4.443 2.782 5.059 3.394 3.5 1.282-3.266.973-10.621-.758-18.02-2.721-11.637.002-14.251 4.456-4.277l2.722 6.095 3.842-5.578c2.113-3.068 5.48-7.092 7.482-8.942 2.002-1.85 4.138-4.22 4.747-5.267 1.278-2.198 3.533-2.836 6.972-1.973 2.556.642 3.237 3.353 1.324 5.266-.682.682-1.19 7.102-1.34 16.95l-.243 15.854 7.34-7.23c4.037-3.976 7.34-7.673 7.34-8.215 0-1.207 3.522-3.2 4.293-2.429.306.306 1.268.159 2.137-.328 1.393-.78 1.258-1.532-1.135-6.341-1.493-3.002-4.783-7.53-7.311-10.061-5.56-5.568-11.216-7.247-22.708-6.74-7.355.325-7.793.225-8.087-1.839-.464-3.258 2.965-4.552 13.525-5.104 11.867-.621 15.997.863 23.718 8.522 6.845 6.79 9.756 11.528 13.066 21.26 2.757 8.106 6.214 13.25 10.762 16.017l3.028 1.841 7.606-6.434c4.183-3.538 9.435-7.33 11.67-8.426 5.834-2.86 14.9-4.305 22.598-3.603 7.408.675 18.96 4.425 19.594 6.36.56 1.708-3.565 1.603-12.757-.326-14.895-3.126-23.798.086-37.017 13.356-8.57 8.605-24.973 29.574-24.98 31.934-.001.669.823 1.657 1.831 2.196 1.454.779 3.472-.072 9.75-4.11 13.876-8.924 20.984-11.327 19.118-6.464-.31.809-4.983 4.551-10.383 8.317l-9.819 6.847 4.318.31c3.416.246 5.816-.468 11.5-3.423 8.291-4.31 11.553-4.562 24.682-1.9 8.887 1.8 11 2.8 11 5.2 0 1.193-2.203 1.402-12.75 1.21-12.38-.225-12.958-.14-19.917 2.935-8.038 3.552-15.448 4.125-21.176 1.637zm-14.054-22.22c1.759-2.612 5.408-7.333 8.109-10.49l4.91-5.742-6.737-8.759c-3.706-4.817-7.14-9.208-7.632-9.758-1.906-2.132-4.751 3.447-4.774 9.36-.012 3.102-.912 9.667-2 14.589-1.088 4.922-1.979 9.678-1.979 10.568 0 1.225 3.766 3.989 6.702 4.919.111.035 1.642-2.074 3.4-4.686zm-14.78-11.75c3.408-17.778 3.236-18.517-2.605-11.25-3.855 4.797-11.842 17.96-11.254 18.547.211.212 2.781.931 5.71 1.599 3.7.843 5.523.892 5.971.159.355-.58 1.335-4.654 2.178-9.054zm-21.943-2.5c2.477-7.245 2.965-10.419 3.305-21.5l.399-13-4.532 4.836c-6.771 7.226-12.294 20.332-14.943 35.46l-.577 3.295 6.722-.295 6.72-.295 2.906-8.5zm-91.38 27.81c-6.434-5.872-12.263-9.382-21.457-12.916-8.763-3.369-10.543-4.457-10.543-6.449 0-5.917 22.223 2.034 33.67 12.048 4.732 4.139 7.978 9.526 6.582 10.923-1.391 1.39-4.051.23-8.252-3.605zm-5.333-65.476c-1.152-1.152-.729-3.607.94-5.451 1.482-1.637 1.442-2.006-.512-4.75-4.072-5.718-7.712-7.876-16.937-10.042-4.898-1.15-10.071-2.09-11.496-2.09-3.222 0-5.128-3.007-3.373-5.321 1.836-2.42 15.905-9.073 27.961-13.223 5.913-2.035 10.75-4.164 10.75-4.732 0-.568-1.185-4.982-2.633-9.81-4.874-16.24-1.5-15.95 19.702 1.696l8.84 7.358 5.546-10.34c3.05-5.686 5.545-11.024 5.545-11.861 0-2.102 2.428-3.924 4.281-3.213 1.673.642 4.508 6.73 7.271 15.615l1.763 5.67 5.093-2.82c2.8-1.552 7.9-3.825 11.333-5.051 9.493-3.391 11.198-.917 7.26 10.532-1.1 3.197-2 5.883-2 5.97 0 .085 3.712-1.111 8.25-2.66 9.183-3.134 15.036-3.346 15.564-.565.196 1.038-2.404 4.881-6.405 9.47-10.381 11.902-16.515 21.832-16.182 26.198.228 3-.075 3.636-1.854 3.89-1.17.167-3.791-.826-5.825-2.206-8.973-6.089-23.334-9.178-35.049-7.539-11.63 1.627-19.954 5.076-29.092 12.053-4.903 3.744-7.326 4.637-8.74 3.222zm11.333-16.61c0-4.254-1.979-20.036-2.589-20.646-.573-.573-15.782 4.315-22.043 7.084-2.494 1.103-4.336 2.204-4.094 2.446s3.373 1.253 6.956 2.247c7.316 2.028 14.077 5.677 17.695 9.55 3.195 3.421 4.075 3.274 4.075-.68zm65.455-3.236c1.454-2.481 4.894-7.484 7.644-11.117 2.75-3.633 4.846-6.76 4.658-6.947-.953-.953-10.716 4.832-13.85 8.207-3.647 3.928-7.907 9.715-7.907 10.742 0 .59 5.023 3.518 6.155 3.588.36.022 1.845-1.991 3.3-4.473zm-48.85-15.152l2.294-5.164-8.564-7.137c-4.71-3.926-8.732-6.97-8.937-6.765-.205.205.71 4.643 2.034 9.862 1.324 5.218 2.978 13.216 3.675 17.772l1.268 8.284 2.967-5.843c1.632-3.215 4-8.168 5.262-11.009zm22.571 11.796c.372-.347 1.128-3.934 1.68-7.97 1.106-8.073.183-16.527-2.55-23.356-1.533-3.83-1.719-3.964-3.05-2.192-3.368 4.479-15.256 31.173-15.256 34.254 0 .971 18.093.277 19.176-.736zm21.734-19.065c1.681-4.638 2.913-8.577 2.736-8.754-.71-.71-7.403 2.18-11.497 4.964-3.906 2.656-4.29 3.267-3.75 5.966.33 1.654.61 5.989.622 9.633l.02 6.625 4.406-5c3.066-3.48 5.334-7.564 7.463-13.434zm102.495-12.552c-3.352-.729-8.326-2.286-11.053-3.459-4.738-2.038-5.22-2.064-10.865-.594-5.424 1.413-22.508 2.227-21.296 1.014.289-.288 3.806-1.433 7.817-2.545 12.202-3.381 12.19-3.364 5.895-9.004-2.971-2.662-5.775-4.86-6.231-4.883-.456-.024-4.87 3.669-9.811 8.207-4.94 4.537-9.406 8.4-9.922 8.583-3.233 1.148 1.15-7.885 6.78-13.97 2.073-2.242 2.256-2.932 1.214-4.6-.674-1.08-.942-3.092-.594-4.474.527-2.1 1.396-2.618 5.295-3.153 4.55-.623 7.366-2.041 7.366-3.708 0-.454-1.585-.164-3.522.646-2.797 1.168-3.983 1.227-5.75.285-5.554-2.958-6.383-8.087-1.578-9.762 1.732-.603 3.92-1.097 4.862-1.097 1.493 0 1.778-1.517 2.214-11.75.312-7.324 1.085-13.133 2.053-15.42 1.547-3.657 4.841-6.377 6.144-5.074.378.377 1.105.024 1.617-.785 1.484-2.348 1.117-3.156-1.113-2.448-4.457 1.414-10.927-4.041-10.927-9.213 0-1.707 1.689-2.05 18.156-3.689 9.986-.993 19.149-2.259 20.362-2.811 2.8-1.276 8.04 1.22 9.016 4.296 1.164 3.667-2.126 5.62-12.452 7.395-6.143 1.056-10.316 2.34-12 3.693l-2.582 2.074 5.5-.694c3.025-.382 6.54-1.37 7.81-2.196 3.354-2.182 6.307-1.347 8.906 2.52 2.034 3.024 2.284 4.6 2.284 14.363 0 9.464-.303 11.506-2.211 14.902-2.966 5.277-8.142 8.513-11.114 6.95-2.791-1.47-11.42 1.618-13.568 4.853-1.431 2.156-1.393 2.179 2.47 1.502 2.158-.379 5.23-1.314 6.827-2.078 3.827-1.833 6.173-1.754 9.692.325 3.309 1.955 3.425 2.557 1.532 7.922-.754 2.139-1.681 5.722-2.06 7.962l-.688 4.073 13.786 2.697c13.664 2.672 18.824 4.656 18.065 6.944-.216.653-2.358 1.454-4.76 1.78-2.401.326-4.54 1.114-4.752 1.75-.212.636-.968 1.157-1.68 1.157-.711 0-1.854.675-2.539 1.5-1.485 1.79-4.422 1.793-12.595.015zm-15.377-24.615c.607-2.256.854-4.351.548-4.657-.305-.305-2.404.278-4.663 1.297l-4.108 1.853-1.895-2.446c-1.607-2.076-2.045-2.219-2.887-.946-.545.825-.999 1.73-1.007 2.01-.018.58 11.102 6.93 12.196 6.966.391.013 1.208-1.822 1.816-4.077zm-3.187-23.84c4.037-1.049 7.586-2.153 7.887-2.454 1.17-1.17 1.539-19.323.407-20.022-.618-.382-4.95.568-9.627 2.111-8.154 2.69-8.505 2.93-8.513 5.806-.005 1.65-.296 6.037-.646 9.75-.749 7.927-1.026 7.8 10.492 4.809zm-6.305-2.41c-2.687-1.964-1.43-3.91 3.758-5.82 3.733-1.375 4.85-1.445 6.286-.395 2.18 1.594 1.287 4.29-1.804 5.447-5.21 1.95-6.465 2.066-8.24.768zm-.008-9.266c-2.372-2.371-1.444-3.655 3.827-5.292 4.16-1.292 4.879-1.287 6.212.046 2.205 2.205.856 4.42-3.485 5.72-4.804 1.44-4.629 1.452-6.554-.474zM138.734 137.77c-1.444-.841-1.762-2.536-1.82-9.72l-.072-8.7-16.785-8.401c-18.354-9.188-17.737-9.064-32.573-6.505l-4 .69 2.47-2.69c1.357-1.478 6.022-4.467 10.365-6.641 13.577-6.796 20.635-5.125 36.247 8.582 3.424 3.006 6.915 5.466 7.758 5.466s4.243-3.488 7.554-7.75c11.712-15.073 20.713-18.978 31.343-13.598 3.22 1.63 9.763 7.214 9.763 8.332 0 .427-4.162.972-9.25 1.211-10.067.473-15.141 2.347-19.75 7.294-1.375 1.476-5.537 4.937-9.25 7.692l-6.75 5.008v8.47c0 7.826-1.031 12.385-2.785 12.31-.393-.017-1.502-.489-2.465-1.05zm.25-43.846c0-6.694-.394-11.073-.997-11.073-1.597 0-8.998-7.092-10.567-10.126-1.826-3.53-1.84-9.198-.03-12.674 6.17-11.858 25.071-13.742 33.8-3.368 8.015 9.525 4.497 20.442-8.426 26.15-4.143 1.83-4.85 2.6-5.785 6.301-2.652 10.51-4.547 15.226-6.245 15.54-1.58.292-1.75-.748-1.75-10.75zm13.51-21.268c2.186-2.597 2.583-3.86 2.123-6.75-1.736-10.92-17.633-10.491-17.633.476 0 4.963 4.442 9.469 9.335 9.469 2.695 0 4.099-.727 6.176-3.195z" fill="#881c21"/><path d="M61.815 444.84c-29.184-5.012-52.097-25.395-59.57-52.99-1.647-6.08-1.76-16.986-1.76-168.5C.484 90.95.73 60.345 1.83 55.85c.74-3.025 3.388-9.775 5.883-15 3.845-8.054 5.848-10.809 13.153-18.091 9.466-9.436 16.947-14.133 29.617-18.593l8-2.816h240l7.5 2.341c20.954 6.543 36.963 20.131 45.546 38.659 6.907 14.91 6.547 4.293 6.235 184l-.28 162-2.824 8c-4.228 11.978-8.132 18.1-17.602 27.602-7.163 7.187-10.139 9.367-18.075 13.244-17.964 8.777-6.758 8.1-137 8.284-63.525.09-117.6-.198-120.169-.64zm240.701-4.999c13.514-3.456 21.78-8.223 31.995-18.453 6.87-6.88 9.913-10.83 12.74-16.538 7.791-15.727 7.167-1.09 7.512-176 .215-109.143-.022-159.024-.784-164.84-3.003-22.913-16.26-41.802-36.222-51.605-17.626-8.656-7.286-8.055-138.773-8.055h-116.5L54.53 6.653c-12.86 3.723-20.95 8.51-30.665 18.147-8.718 8.647-12.458 14.505-17.269 27.045L4.484 57.35l-.28 162.5c-.315 182.141-.79 169.627 7.04 185.286 8.088 16.17 25.4 29.833 43.97 34.698 6.942 1.82 12.51 1.908 123.36 1.96 113.07.054 116.295 0 123.942-1.953zm-142.215-48.414c-13.363-8.788-31.3-18.046-44.317-22.876-17.39-6.452-47.865-12.674-62.284-12.717-14.726-.043-7.228-5.941 14.274-11.229 10.515-2.585 33.968-3.133 37.92-.885 3.596 2.046 1.29 2.76-11.41 3.535-6.05.369-12.575 1.024-14.5 1.455-3.355.752-3.21.836 3.5 2.023 29.452 5.21 60.054 16.53 80.218 29.673 6.879 4.484 9.022 5.443 10.24 4.582 4.986-3.52 21.975-12.682 30.58-16.49 19.959-8.832 35.793-13.223 54.788-15.19 3.754-.39 6.454-1.02 6-1.403-.454-.382-5.233-2.65-10.619-5.04-5.386-2.391-10.056-4.773-10.378-5.293-2.032-3.288 9.382-3.083 19.403.347 10.53 3.605 26.3 11.847 27.211 14.221.467 1.215.473 2.609.015 3.097-.458.489-8.624 1.504-18.145 2.257-32.19 2.546-51.44 7.36-71.865 17.972-5.87 3.05-13.997 8.047-18.06 11.104-4.063 3.057-8.293 6.152-9.399 6.878-1.808 1.185-3.135.579-13.172-6.021zm3.683-20.818c-6.325-4.33-14.2-9.197-17.5-10.815-5.975-2.93-17.896-6.253-26.548-7.402l-4.548-.605-2.287-26.718c-1.257-14.696-2.516-27.548-2.798-28.56-.328-1.181-1.155-1.674-2.304-1.373-.986.257-2.405.06-3.154-.438-1.824-1.215 3.226-5.566 10.933-9.42 4.816-2.408 6.955-2.859 13.706-2.89 4.4-.022 13.175.8 19.5 1.824 15.896 2.574 28.791 1.83 49-2.83 20.457-4.718 29.674-5.324 42.02-2.762 11.884 2.466 20.201 5.888 19.741 8.122-.268 1.308-1.49 1.554-6.545 1.318-3.952-.184-6.216.103-6.216.787 0 1.186-10.137 58.38-10.405 58.705-.092.112-5.533 1.83-12.093 3.818-18.967 5.75-27.886 10.356-42.502 21.954l-6.5 5.158-11.5-7.873zm12.926-2.17c.928-1.118.701-1.737-1.096-2.996-2.004-1.404-2.436-1.416-3.752-.1-1.315 1.316-1.262 1.657.468 2.965 2.458 1.858 2.935 1.873 4.38.132zm-9.827-7.208c1.16-1.399.945-1.935-1.594-3.96-2.72-2.168-3.068-2.222-4.72-.726-2.359 2.134-2.273 2.538.965 4.546 3.425 2.124 3.697 2.13 5.349.14zm20.533-.463c1.853-1.145 3.368-2.41 3.368-2.812 0-.943-5.618-5.106-6.891-5.106-.535 0-1.982 1.417-3.215 3.149l-2.243 3.15 2.286 1.85c2.821 2.285 2.613 2.292 6.695-.231zm-32.085-7.97c1.823-2.014 1.803-2.095-1.095-4.425L151.484 346l-2.75 2.612c-1.512 1.436-2.75 2.89-2.75 3.232 0 .648 4.703 2.715 6.595 2.9.603.057 1.931-.818 2.952-1.946zm20.92-1.914l2.841-2.965-2.404-2.001c-3.097-2.58-3.03-2.59-6.387.914-2.785 2.907-2.811 3.034-1.032 5 2.452 2.71 3.631 2.55 6.982-.948zm24.472-1.284c2.206-2.338 4.023-4.7 4.036-5.25.014-.55-1.525-2.238-3.42-3.75l-3.446-2.75-4.517 4.75-4.516 4.75 3.712 3.212c2.042 1.767 3.809 3.23 3.926 3.25.118.02 2.02-1.875 4.225-4.212zm-58.553-10.842l-3.713-2.95-2.336 2.195c-3.086 2.9-2.967 3.832.904 7.082l3.26 2.735 2.798-3.056 2.8-3.055-3.713-2.95zm23.053 3.416l2.939-3.531-2.439-1.875c-3.28-2.521-4.095-2.408-7.38 1.02l-2.814 2.938 2.878 2.53c1.582 1.392 3.102 2.512 3.377 2.49.275-.022 1.823-1.63 3.44-3.572zM225 344.186c3.291-.916 5.984-1.964 5.984-2.33 0-.367-1.986-2.094-4.415-3.838l-4.415-3.17-3.187 4.024c-2.605 3.289-2.964 4.295-1.963 5.501 1.493 1.799.792 1.815 7.996-.187zm-102.016-2.277c0-.518-.45-1.22-1-1.56-.55-.34-1 .084-1 .942 0 .857.45 1.559 1 1.559s1-.424 1-.941zm65.447-3.83c3.712-4.146 3.772-4.33 2.034-6.25-.985-1.09-2.264-1.98-2.843-1.98-1.287 0-8.638 7.058-8.638 8.293 0 1.036 4.237 4.737 5.062 4.422.308-.118 2.282-2.137 4.385-4.486zm25.013-2.98c1.917-2.062 3.495-3.974 3.507-4.25.01-.274-1.58-1.59-3.535-2.92l-3.555-2.422-3.662 3.662-3.662 3.661 3.474 2.97c1.91 1.632 3.58 2.987 3.71 3.009.13.022 1.805-1.647 3.723-3.71zm-82.774-.424c2.962-2.783 2.915-3.262-.57-5.743l-2.883-2.053-2.683 2.11-2.684 2.111 2.755 2.875c1.514 1.58 2.978 2.875 3.252 2.875.274 0 1.54-.979 2.813-2.175zm23.812-7.304c-1.648-1.347-3.24-2.466-3.535-2.485-.296-.02-2.096 1.314-4 2.964l-3.463 3 3.474 3.01 3.474 3.009 3.524-3.525 3.524-3.524-2.998-2.45zm23.377 2.106l4.292-4.373-2.988-2.127c-1.643-1.17-3.426-2.127-3.962-2.127-.537 0-2.579 1.956-4.538 4.347l-3.563 4.348 2.692 2.097c1.48 1.153 2.936 2.121 3.234 2.152.298.03 2.473-1.912 4.833-4.317zm55.136 2.623c.006-.963.29-3.438.631-5.5.761-4.603-.276-4.647-3.995-.172l-2.854 3.433 2.354 1.961c2.935 2.445 3.85 2.51 3.864.278zm-31.554-13.2l-2.6-2.55-3.495 3.994-3.495 3.994 2.78 2.391 2.78 2.392 3.315-3.835 3.315-3.835-2.6-2.55zm-59.403 4.393l3.446-3.556-2.5-1.922c-3.334-2.562-3.872-2.481-7.62 1.152l-3.218 3.118 2.67 2.35c1.467 1.294 2.918 2.366 3.222 2.383.305.017 2.105-1.569 4-3.525zm82.82-7.796l-3.135-2.853-3.62 3.67-3.619 3.67 3.5 2.981 3.5 2.982 3.254-3.799 3.254-3.798-3.134-2.853zm-57.059-1.345c-2.922-3.11-3.787-2.94-8.247 1.629l-3.84 3.93 2.887 2.506 2.885 2.506 4.24-4.134 4.238-4.134-2.163-2.303zm-46.71 7.401c-1.284-1.283-2.586-.291-1.636 1.246.368.596 1.128.8 1.688.454.683-.422.665-.981-.053-1.7zm68.95-5.273c3.334-3.455 3.383-3.617 1.504-5-2.824-2.08-5.002-1.77-8.557 1.222l-3.152 2.652 2.825 2.312c1.554 1.271 3.075 2.328 3.38 2.348.304.02 2.104-1.571 4-3.534zm-56.055-5.41c0-.354-1.373-1.66-3.051-2.9-2.326-1.72-3.813-2.104-6.25-1.614-8.255 1.659-8.604 2.745-2.51 7.807l4.188 3.478 3.812-3.063c2.096-1.685 3.811-3.353 3.811-3.708zm79.054 1.423l3.446-3.556-2.5-1.922c-1.375-1.056-2.749-1.931-3.053-1.943-.305-.012-2.105 1.578-4 3.534l-3.447 3.556 2.5 1.922c1.375 1.056 2.75 1.931 3.054 1.943.305.012 2.105-1.578 4-3.534zm-59.564-.433c1.576-1.644 2.654-3.2 2.396-3.458s-2.413-.6-4.788-.76c-5.75-.39-7.697 2.065-4.047 5.102 3.15 2.621 3.07 2.632 6.44-.884zm83.911-6.264c1.159-5.792-3.957-6.506-8.06-1.126l-2.762 3.62 2.834 2.438 2.834 2.438 2.266-2.128c1.246-1.17 2.546-3.53 2.888-5.242zm-37.9 1.254c.34-.55-.084-1-.942-1-.857 0-1.559.45-1.559 1s.424 1 .941 1c.518 0 1.22-.45 1.56-1zm-9.749-5.129c20.806-7.44 23.74-8.046 37.23-7.696l12.48.325.597-3.66c.56-3.435.416-3.696-2.356-4.25-1.624-.325-8.02-.59-14.214-.59-9.118 0-12.854.476-19.625 2.5-20.191 6.04-24.613 6.773-36.609 6.074-6.185-.36-16.535-1.528-23-2.594-12.468-2.057-17.446-2.34-23.505-1.339-3.749.62-3.75.622-3.75 5.606 0 4.934.03 4.979 2.75 4.32 1.513-.367 7.475-.89 13.25-1.161 9.205-.433 12.043-.13 23 2.456 16.78 3.96 22.697 3.963 33.752.01zm31.776-1.697c-3.387-.406-4.185.329-2.527 2.327 1.155 1.391 1.487 1.368 3.261-.226 1.95-1.752 1.94-1.78-.734-2.1zm-83.474-23.12c-.886-.56-2.115-4.904-3.175-11.222-1.84-10.968-1.413-13.213 2.401-12.63 2.722.415 9.07 17.746 7.762 21.188-1.232 3.242-4.254 4.394-6.988 2.664zm17.293.18c-1.8-1.147-5.61-18.372-4.342-19.639 1.938-1.938 4.298.84 7.83 9.212 2.831 6.715 3.217 8.426 2.18 9.675-1.348 1.624-3.79 1.948-5.668.752zm26.43-2.484c-.885-.689-2.266-4.532-3.072-8.55-1.296-6.459-1.292-7.47.035-8.797 2.314-2.314 4.834.629 7.426 8.677 1.814 5.635 1.966 7.057.888 8.355-1.569 1.89-3.133 1.983-5.278.315zm15.39-.5c-1.67-1.423-2.112-3.153-2.36-9.25-.289-7.068-.18-7.518 1.886-7.812 2.881-.41 5.282 4.169 6.041 11.522.423 4.094.211 5.711-.834 6.372-1.949 1.235-2.398 1.156-4.733-.832zm-92.028-3.958c-4.599-2.527-11.574-5.78-15.5-7.226-5.611-2.068-7.207-3.105-7.458-4.849-.292-2.025.095-2.217 4.454-2.217 9.038 0 31.708 13.057 30.072 17.32-.933 2.432-2.268 2.082-11.568-3.028zm62.528 4.04c-.367-.366-.667-4.19-.667-8.5 0-5.986.325-7.832 1.378-7.832.758 0 1.84.562 2.405 1.25 1.578 1.918 4.461 12.672 3.835 14.303-.557 1.452-5.702 2.029-6.95.78zm43.72-2.77c-.304-.79-.627-3.602-.72-6.25-.147-4.245.09-4.85 2.013-5.123 1.856-.264 2.444.527 3.954 5.316 1.536 4.875 1.579 5.748.32 6.545-2.178 1.377-4.945 1.135-5.568-.487zm10.322.813c-.39-.39-.709-2.898-.709-5.574 0-3.591.43-5.03 1.645-5.495 2.475-.95 4.492 2.546 4.15 7.194-.232 3.145-.73 4.062-2.336 4.292-1.122.16-2.36-.027-2.75-.417zm35.448-2.906c-1.84-.798-4.764-1.343-6.5-1.21-2.6.198-3.212-.156-3.475-2.01-.334-2.346-.89-2.58-5.432-2.28-2.188.144-2.75-.25-2.75-1.93 0-1.563-1.222-2.634-4.71-4.13-15.212-6.52-32.315-8.772-75.29-9.912-35.539-.942-41.415-1.64-55-6.53-14.57-5.244-54.414-26.778-55.687-30.096-2.01-5.236 6.427-2.5 39.687 12.872 20.901 9.66 27.408 12.166 34.5 13.295 2.2.35 4.815.86 5.811 1.136 1.583.436 1.472-.172-.888-4.838-4.306-8.514-9.73-15.83-17.142-23.119l-6.896-6.783-6.648 5.033c-3.656 2.768-7.457 5.033-8.447 5.033-.99 0-7.872-4.283-15.294-9.518-16.325-11.514-16.996-12.065-16.996-13.973 0-3.694 7.457-.348 22.62 10.15l9.31 6.446 4.518-4.164 4.517-4.164-9.302-7.639c-5.116-4.201-11.397-9.213-13.958-11.138-4.43-3.33-6.576-6.462-5.302-7.736 1.573-1.573 9.548 2.787 23.982 13.111 25.144 17.985 32.538 25.54 44.162 45.125 2.612 4.4 5.443 8.562 6.292 9.25.87.704 4.295 1.25 7.853 1.25 6.1 0 6.308-.084 6.308-2.558 0-10.026-4.857-16.474-20.25-26.885-5.986-4.05-8.75-6.534-8.75-7.869 0-3.258 6.522-1.392 14.742 4.218 3.992 2.724 7.258 4.626 7.258 4.227 0-.4-1.563-3.18-3.474-6.18-4.74-7.44-4.589-11.788.291-8.37 7.18 5.03 16.267 24.194 17.77 37.478l.672 5.939h16.374l-.734-6.25c-.526-4.475-2.025-8.745-5.274-15.03-4.35-8.412-4.94-11.72-2.09-11.72 1.885 0 7.085 6.58 10.188 12.892 2.185 4.443 2.782 5.059 3.394 3.5 1.282-3.266.973-10.621-.758-18.02-2.721-11.637.002-14.251 4.456-4.277l2.722 6.095 3.842-5.578c2.113-3.068 5.48-7.092 7.482-8.942 2.002-1.85 4.138-4.22 4.747-5.267 1.278-2.198 3.533-2.836 6.972-1.973 2.556.642 3.237 3.353 1.324 5.266-.682.682-1.19 7.102-1.34 16.95l-.243 15.854 7.34-7.23c4.037-3.976 7.34-7.673 7.34-8.215 0-1.207 3.522-3.2 4.293-2.429.306.306 1.268.159 2.137-.328 1.393-.78 1.258-1.532-1.135-6.341-1.493-3.002-4.783-7.53-7.311-10.061-5.56-5.568-11.216-7.247-22.708-6.74-7.355.325-7.793.225-8.087-1.839-.464-3.258 2.965-4.552 13.525-5.104 11.867-.621 15.997.863 23.718 8.522 6.845 6.79 9.756 11.528 13.066 21.26 2.757 8.106 6.214 13.25 10.762 16.017l3.028 1.841 7.606-6.434c4.183-3.538 9.435-7.33 11.67-8.426 5.834-2.86 14.9-4.305 22.598-3.603 7.408.675 18.96 4.425 19.594 6.36.56 1.708-3.565 1.603-12.757-.326-14.895-3.126-23.798.086-37.017 13.356-8.57 8.605-24.973 29.574-24.98 31.934-.001.669.823 1.657 1.831 2.196 1.454.779 3.472-.072 9.75-4.11 13.876-8.924 20.984-11.327 19.118-6.464-.31.809-4.983 4.551-10.383 8.317l-9.819 6.847 4.318.31c3.416.246 5.816-.468 11.5-3.423 8.291-4.31 11.553-4.562 24.682-1.9 8.887 1.8 11 2.8 11 5.2 0 1.193-2.203 1.402-12.75 1.21-12.38-.225-12.958-.14-19.917 2.935-8.038 3.552-15.448 4.125-21.176 1.637zm-14.054-22.22c1.759-2.612 5.408-7.333 8.109-10.49l4.91-5.742-6.737-8.759c-3.706-4.817-7.14-9.208-7.632-9.758-1.906-2.132-4.751 3.447-4.774 9.36-.012 3.102-.912 9.667-2 14.589-1.088 4.922-1.979 9.678-1.979 10.568 0 1.225 3.766 3.989 6.702 4.919.111.035 1.642-2.074 3.4-4.686zm-14.78-11.75c3.408-17.778 3.236-18.517-2.605-11.25-3.855 4.797-11.842 17.96-11.254 18.547.211.212 2.781.931 5.71 1.599 3.7.843 5.523.892 5.971.159.355-.58 1.335-4.654 2.178-9.054zm-21.943-2.5c2.477-7.245 2.965-10.419 3.305-21.5l.399-13-4.532 4.836c-6.771 7.226-12.294 20.332-14.943 35.46l-.577 3.295 6.722-.295 6.72-.295 2.906-8.5zm-91.38 27.81c-6.434-5.872-12.263-9.382-21.457-12.916-8.763-3.369-10.543-4.457-10.543-6.449 0-5.917 22.223 2.034 33.67 12.048 4.732 4.139 7.978 9.526 6.582 10.923-1.391 1.39-4.051.23-8.252-3.605zm-5.333-65.476c-1.152-1.152-.729-3.607.94-5.451 1.482-1.637 1.442-2.006-.512-4.75-4.072-5.718-7.712-7.876-16.937-10.042-4.898-1.15-10.071-2.09-11.496-2.09-3.222 0-5.128-3.007-3.373-5.321 1.836-2.42 15.905-9.073 27.961-13.223 5.913-2.035 10.75-4.164 10.75-4.732 0-.568-1.185-4.982-2.633-9.81-4.874-16.24-1.5-15.95 19.702 1.696l8.84 7.358 5.546-10.34c3.05-5.686 5.545-11.024 5.545-11.861 0-2.102 2.428-3.924 4.281-3.213 1.673.642 4.508 6.73 7.271 15.615l1.763 5.67 5.093-2.82c2.8-1.552 7.9-3.825 11.333-5.051 9.493-3.391 11.198-.917 7.26 10.532-1.1 3.197-2 5.883-2 5.97 0 .085 3.712-1.111 8.25-2.66 9.183-3.134 15.036-3.346 15.564-.565.196 1.038-2.404 4.881-6.405 9.47-10.381 11.902-16.515 21.832-16.182 26.198.228 3-.075 3.636-1.854 3.89-1.17.167-3.791-.826-5.825-2.206-8.973-6.089-23.334-9.178-35.049-7.539-11.63 1.627-19.954 5.076-29.092 12.053-4.903 3.744-7.326 4.637-8.74 3.222zm11.333-16.61c0-4.254-1.979-20.036-2.589-20.646-.573-.573-15.782 4.315-22.043 7.084-2.494 1.103-4.336 2.204-4.094 2.446s3.373 1.253 6.956 2.247c7.316 2.028 14.077 5.677 17.695 9.55 3.195 3.421 4.075 3.274 4.075-.68zm65.455-3.236c1.454-2.481 4.894-7.484 7.644-11.117 2.75-3.633 4.846-6.76 4.658-6.947-.953-.953-10.716 4.832-13.85 8.207-3.647 3.928-7.907 9.715-7.907 10.742 0 .59 5.023 3.518 6.155 3.588.36.022 1.845-1.991 3.3-4.473zm-48.85-15.152l2.294-5.164-8.564-7.137c-4.71-3.926-8.732-6.97-8.937-6.765-.205.205.71 4.643 2.034 9.862 1.324 5.218 2.978 13.216 3.675 17.772l1.268 8.284 2.967-5.843c1.632-3.215 4-8.168 5.262-11.009zm22.571 11.796c.372-.347 1.128-3.934 1.68-7.97 1.106-8.073.183-16.527-2.55-23.356-1.533-3.83-1.719-3.964-3.05-2.192-3.368 4.479-15.256 31.173-15.256 34.254 0 .971 18.093.277 19.176-.736zm21.734-19.065c1.681-4.638 2.913-8.577 2.736-8.754-.71-.71-7.403 2.18-11.497 4.964-3.906 2.656-4.29 3.267-3.75 5.966.33 1.654.61 5.989.622 9.633l.02 6.625 4.406-5c3.066-3.48 5.334-7.564 7.463-13.434z" fill="#0e1f0b"/><path d="M61.815 444.84c-29.184-5.012-52.097-25.395-59.57-52.99-1.647-6.08-1.76-16.986-1.76-168.5C.484 90.95.73 60.345 1.83 55.85c.74-3.025 3.388-9.775 5.883-15 3.845-8.054 5.848-10.809 13.153-18.091 9.466-9.436 16.947-14.133 29.617-18.593l8-2.816h240l7.5 2.341c20.954 6.543 36.963 20.131 45.546 38.659 6.907 14.91 6.547 4.293 6.235 184l-.28 162-2.824 8c-4.228 11.978-8.132 18.1-17.602 27.602-7.163 7.187-10.139 9.367-18.075 13.244-17.964 8.777-6.758 8.1-137 8.284-63.525.09-117.6-.198-120.169-.64zm240.701-4.999c13.514-3.456 21.78-8.223 31.995-18.453 6.87-6.88 9.913-10.83 12.74-16.538 7.791-15.727 7.167-1.09 7.512-176 .215-109.143-.022-159.024-.784-164.84-3.003-22.913-16.26-41.802-36.222-51.605-17.626-8.656-7.286-8.055-138.773-8.055h-116.5L54.53 6.653c-12.86 3.723-20.95 8.51-30.665 18.147-8.718 8.647-12.458 14.505-17.269 27.045L4.484 57.35l-.28 162.5c-.315 182.141-.79 169.627 7.04 185.286 8.088 16.17 25.4 29.833 43.97 34.698 6.942 1.82 12.51 1.908 123.36 1.96 113.07.054 116.295 0 123.942-1.953z"/></svg>