<svg xmlns="http://www.w3.org/2000/svg" height="445.792" width="358.779"><path d="M54.868 443.817c-25.785-6.7-45.55-25.828-52.661-50.965-1.75-6.19-1.839-14.288-1.839-169.5 0-152.47.114-163.42 1.76-169.5 5.456-20.145 19.446-36.966 38.24-45.975C57.092-.141 48.028.352 178.868.352c131.833 0 123.897-.455 140.93 8.072 16.22 8.12 29.266 22.94 35.485 40.31l3.085 8.618.279 162c.311 181.16.697 170.601-6.787 186-8.846 18.2-23.396 30.588-44.492 37.882-5.926 2.049-7.467 2.077-125.5 2.303-115.616.221-119.743.165-127-1.72zm240.935-3.024c22.825-3.704 42.077-17.637 51.498-37.27 2.42-5.044 4.976-11.421 5.678-14.171 1.614-6.32 2.528-309.77.975-323.683-2.638-23.626-16.048-42.788-37.278-53.267-15.974-7.885-9.212-7.513-137.11-7.533-128.3-.02-120.889-.436-137.63 7.743-17.365 8.486-30.362 24.34-35.082 42.796-1.94 7.587-1.985 11.398-1.971 167.854.016 177.254-.391 166.075 6.566 180.177 9.491 19.238 29.283 33.692 51.183 37.38 7.363 1.24 225.519 1.215 233.17-.026zm-133.435-57.061c-18.705-12.37-42.79-23.135-63.5-28.383-12.802-3.244-34.188-6.481-43-6.508-7.308-.022-9.375-.849-8.41-3.362.94-2.451 7.004-5.277 17.656-8.227 16.26-4.504 45.953-4.513 44.46-.013-.36 1.085-3.948 1.638-20.03 3.09-4.304.39-7.655.877-7.448 1.084.207.207 4.982 1.269 10.61 2.36 28.015 5.43 55.585 15.894 75.169 28.527l6.506 4.197 3.938-2.856c5.864-4.252 31.693-17.053 42.55-21.088 12.276-4.563 19.538-6.403 33.576-8.507l11.43-1.713-10.083-4.366c-5.546-2.4-10.337-5.03-10.649-5.841-.937-2.442 1.881-3.412 8.364-2.877 7.595.627 16 3.41 28.143 9.317 9.845 4.79 13.392 8.167 11.267 10.728-1.224 1.474-2.78 1.705-24.049 3.572-36.152 3.174-61.269 12.344-86.569 31.605-3.888 2.96-7.938 5.343-9 5.297-1.062-.046-5.98-2.762-10.93-6.036zm4.195-20.362c-18.004-12.213-27.968-16.432-42.764-18.106-3.243-.367-6.284-1.172-6.756-1.79-.634-.828-6.323-51.98-6.195-55.7.011-.316-1.276-.386-2.861-.153-3.87.568-4.831-1.382-2.11-4.28 3.468-3.69 15.427-9.517 20.852-10.16 2.935-.347 11.059.321 20.268 1.667 20.116 2.94 28.06 2.46 51.371-3.101 15.813-3.773 19.337-4.286 29-4.215 16.257.118 34 5.243 34 9.82 0 1.805-.608 1.983-6.25 1.826-5.668-.158-6.296.029-6.745 2-.273 1.196-2.544 14.532-5.047 29.637-2.503 15.105-4.766 27.678-5.028 27.94-.262.262-4.09 1.52-8.506 2.794-19.29 5.57-30.389 11.17-44.403 22.404l-8.235 6.602-10.591-7.185zm11.682-4.318c.271-.44-.356-1.33-1.395-1.98-1.988-1.24-3.624-.068-2.482 1.78.74 1.197 3.183 1.323 3.877.2zm-11.007-9.344c-1.904-2.104-3.918-2.397-4.955-.72-1.066 1.727 3.72 4.996 5.343 3.65 1.043-.866.969-1.431-.388-2.93zm22.087-2.606c-3.217-2.819-3.586-2.806-6.43.22l-2.32 2.471 2.351 1.905c2.32 1.878 2.397 1.875 5.66-.221l3.308-2.125-2.569-2.25zm-33.028-3.172c1.666-1.84 1.629-1.994-.882-3.64-2.532-1.659-2.706-1.638-5.103.615l-2.482 2.331 2.77 1.227c3.733 1.654 3.717 1.655 5.697-.533zm20.986-1.989l2.788-2.91-2.569-1.683c-2.498-1.637-2.637-1.606-5.07 1.16l-2.502 2.844 2.08 1.75c1.144.962 2.17 1.75 2.282 1.75.111 0 1.457-1.31 2.99-2.91zm25.435-9.48l-3.197-2.891-4.013 4.303-4.014 4.303 3.437 2.896 3.437 2.896 3.773-4.308 3.773-4.308-3.196-2.891zm-58.072 3.127l2.126-2.263-3.507-2.404-3.507-2.403-2.195 2.226-2.195 2.226 2.806 2.44c3.444 2.997 3.814 3.007 6.472.178zm21.582-2.59l2.735-2.854-2.65-1.736c-2.59-1.697-2.711-1.675-5.491.988l-2.844 2.724 2.195 1.833c2.855 2.383 2.858 2.382 6.055-.955zm60.308 1.262l5.476-1.592-4.137-3.042-4.137-3.043-2.837 3.384c-2.046 2.44-2.552 3.734-1.813 4.635 1.27 1.549.881 1.567 7.448-.342zm-37.208-5.367l3.865-3.958-2.38-1.926-2.378-1.926-3.69 4.134c-3.395 3.803-3.565 4.275-2.129 5.885 2.117 2.371 2.297 2.312 6.712-2.209zm27.513-7.103c.015-.31-1.264-1.517-2.842-2.683l-2.868-2.121-3.203 3.304-3.203 3.305 3.322 2.623 3.321 2.623 2.723-3.244c1.498-1.785 2.736-3.498 2.75-3.807zm-85.106 3.704l2.215-2.358-2.625-1.72c-2.487-1.63-2.728-1.629-4.557.026-1.904 1.723-1.9 1.78.26 4.079 1.203 1.282 2.257 2.33 2.34 2.33.083 0 1.149-1.06 2.367-2.358zm23.45-1.451l2.691-2.81-3.096-2.289-3.097-2.29-2.97 2.847-2.97 2.846 2.618 2.252c3.318 2.854 3.577 2.833 6.824-.556zm23.542-4.349l3.354-3.657-2.66-1.743c-2.643-1.731-2.686-1.718-6.522 2.028l-3.862 3.77 2.666 2.31c1.466 1.271 2.892 2.004 3.168 1.63.277-.374 2.012-2.326 3.856-4.338zm55.155.908c.008-1.238.31-3.356.67-4.707.596-2.226.363-2.132-2.47 1-2.827 3.125-2.969 3.577-1.48 4.707 2.39 1.813 3.264 1.546 3.28-1zm-31.235-9.922c-2.212-1.673-2.375-1.631-5.557 1.448l-3.28 3.172 2.28 1.724c2.212 1.673 2.374 1.63 5.557-1.448l3.279-3.172-2.279-1.724zm-59.557-1.05l-2.23-2.231-3.173 3.173-3.173 3.172 2.427 1.997 2.427 1.997 2.977-2.94 2.976-2.938-2.23-2.23zm84.778-.875c0-.37-1.181-1.447-2.625-2.394-2.579-1.689-2.682-1.664-5.747 1.401l-3.12 3.121 2.996 2.46 2.996 2.461 2.75-3.188c1.513-1.754 2.75-3.491 2.75-3.861zm-61.043 2.493c3.017-3.435 3.084-3.693 1.45-5.5-2.392-2.642-3.525-2.401-7.37 1.565l-3.354 3.461 2.409 2.006c1.324 1.103 2.7 2.02 3.055 2.038.355.018 2.07-1.588 3.81-3.57zm23.977-4.581c2.3-2.906 2.335-3.145.652-4.376-2.052-1.5-4.168-.967-7.287 1.839l-2.202 1.98 2.202 1.837c2.963 2.474 3.79 2.314 6.635-1.28zm-59.554-1.69l2.754-2.875-2.724-2.142c-1.498-1.18-3.44-1.932-4.317-1.673-.876.258-2.83.765-4.343 1.126-3.588.856-3.47 2.177.5 5.575 4.099 3.509 4.759 3.508 8.13-.01zm21.99-5.394c-2.855-.593-4.123-.404-5.31.793-1.414 1.424-1.326 1.748.94 3.468 2.49 1.89 2.512 1.887 5.31-.792l2.81-2.69-3.75-.779zm60.096 3.305c2.375-2.48 2.63-3.215 1.564-4.5-1.853-2.233-3.298-1.91-6.531 1.465-2.802 2.925-2.826 3.04-.937 4.469 2.604 1.97 2.654 1.958 5.904-1.434zm24.534-7.485c0-3.609-2.892-4.029-6.163-.895-3.424 3.28-3.488 3.978-.587 6.406 2.223 1.86 2.278 1.853 4.5-.645 1.238-1.39 2.25-3.58 2.25-4.866zm-43.589-4.482c17.203-6.33 23.249-7.49 35.545-6.811l9.834.541.612-3.06c.337-1.682.375-3.296.085-3.585-.29-.29-5.608-.722-11.819-.96-12.01-.46-16.103.28-35.668 6.45-7.48 2.36-10.059 2.673-21.5 2.609-7.813-.043-18.586-.919-27-2.194-13.078-1.983-22.37-2.061-25.191-.213-.55.36-.79 2.38-.534 4.49.407 3.365.725 3.756 2.595 3.195 1.171-.352 6.855-.864 12.63-1.138 9.089-.432 12.315-.102 24 2.451 18.93 4.137 20.56 4.057 36.41-1.775zm29.09.93c.781-1.265-.542-1.265-2.5 0-1.293.836-1.267.972.19.985.93.01 1.97-.434 2.31-.984zm26.5 26.353c0-.356 3.856-4.649 8.57-9.539 11.872-12.315 16.444-22.671 16.421-37.2-.008-4.915-3.09-20.046-4.34-21.294-.332-.333-8.784 2.207-18.781 5.643-20.666 7.103-31.539 8.796-36.332 5.655-1.396-.915-2.536-2.215-2.533-2.89.003-.675 4.615-3.924 10.25-7.22 7.898-4.622 12.666-8.4 20.82-16.5 12.975-12.89 16.444-19.03 16.387-29.007-.06-10.717-5.677-18.446-18.14-24.969-13.445-7.036-25.972-20.133-30.287-31.665-2.475-6.614-3.769-16.795-2.254-17.731 2.067-1.278 4.228.698 10.062 9.203 8.775 12.792 13.12 17.291 28.803 29.83 28.394 22.7 30.467 32.194 12.619 57.793-3.083 4.421-7.158 9.951-9.056 12.289-3.844 4.734-3.736 4.919 1.572 2.686 7.08-2.978 24.585-7.436 29.196-7.436 3.376 0 5.851.774 9.136 2.857 5.55 3.52 10.886 9.829 10.886 12.87 0 2.963-2.074 2.917-8.752-.192-2.89-1.345-6.9-2.754-8.912-3.132-3.149-.59-3.57-.455-3.022.973 1.326 3.453 1.918 28.15.816 33.995-1.518 8.051-7.214 19.477-12.19 24.454-5.522 5.522-20.94 13.273-20.94 10.527zM94.75 313.87c-5.145-2.747-12.404-11.208-14.392-16.775-1.09-3.05-1.883-9.265-2.222-17.406l-.527-12.662-9.37.559-9.37.559v-2.71c0-2.36.82-3.082 6.378-5.602 3.509-1.591 8.421-3.407 10.917-4.035 3.572-.9 4.672-1.684 5.176-3.69.352-1.402 2.175-5.783 4.05-9.737l3.412-7.19-5.553-5.733c-3.055-3.153-6.699-8.235-8.099-11.292-2.296-5.017-2.495-6.432-2.035-14.493.946-16.598 8.63-27.547 27.366-38.996 9.301-5.684 9.325-5.735 6.887-14.816-2.148-8.005-1.984-10 .826-10 3.177 0 6.324 3.625 8.42 9.702l1.754 5.08 12-4.971c15.68-6.497 31.51-11.811 35.181-11.811 4.017 0 12.32 5.377 12.32 7.978 0 1.346-.66 2.022-1.973 2.022-5.502 0-33.555 8.25-44.045 12.952l-11.483 5.148.326 13.333c.293 12.023.087 14.018-2.102 20.31-1.991 5.727-2.293 7.945-1.683 12.368.925 6.695 2.597 10.421 5.544 12.352 1.251.82 8.257 3.822 15.568 6.671 11.592 4.518 13.942 5.832 18.37 10.273 7.41 7.434 9.639 12.662 9.273 21.753-.404 10.033-2.127 9.763-7.396-1.16-5.066-10.502-9.53-14.74-19.487-18.5-12.769-4.82-19.185-8.547-25.205-14.639-3.186-3.224-6.378-5.861-7.093-5.861-.715 0-2.158 1.609-3.207 3.576l-1.908 3.575 2.448 1.995c1.347 1.097 9.93 5.775 19.075 10.394 16.676 8.424 24.724 14.136 27.51 19.525 1.714 3.313 1.942 7.935.392 7.935-.59 0-4.303-2.096-8.25-4.657-3.946-2.562-13.53-7.686-21.296-11.387-7.766-3.701-16.662-8.356-19.769-10.343-3.107-1.987-5.803-3.613-5.993-3.613-.536 0-5.417 11.277-5.787 13.37-.251 1.427.622 2.161 3.67 3.088 12.76 3.88 27.11 15.483 19.25 15.565-1.237.013-7.29-.984-13.449-2.217-6.16-1.233-11.525-1.916-11.923-1.518-1.275 1.276 3.59 22.993 6.597 29.446 1.598 3.428 4.323 7.998 6.057 10.155 5.296 6.591 2.33 10.124-5.15 6.13zm8.21-103.294c7.387-14.38 8.908-19.483 8.908-29.882 0-4.864-.277-8.843-.616-8.843-1.313 0-10.327 7.194-13.723 10.954-6.492 7.185-8.154 11.49-8.127 21.046.02 7.17.46 9.438 2.814 14.5 3.31 7.121 2.964 7.372 10.745-7.775zm79.206 54.09c.942-7.02 7.007-14.347 18.308-22.119 22.818-15.69 28.42-20.74 25.315-22.818-4.015-2.687-16.24 2.794-28.42 12.742-16.417 13.407-19.443 15.38-23.586 15.38-3.81 0-3.857-.047-3.301-3.25 1.007-5.805 6.274-15.392 10.695-19.467 4.897-4.514 14.818-10.517 27.205-16.46l8.475-4.067-2.053-2.628c-1.13-1.446-2.971-4.09-4.093-5.878-1.831-2.917-2.517-3.248-6.692-3.226-8.63.045-22.384 4.536-23.6 7.705-.392 1.02 1.113 3.112 4.428 6.16 5.589 5.138 6.278 7.682 2.473 9.129-4.559 1.733-12.817-3.01-16.047-9.219-5.368-10.317 3.857-17.665 25.088-19.983l10.242-1.119.53-7.721c.59-8.606 1.9-11.976 4.656-11.976 3.048 0 5.036 5.712 4.905 14.09-.095 6.044.431 8.792 2.853 14.91 2.012 5.081 3.43 7.386 4.396 7.149.784-.194 3.936-.587 7.006-.874 5.192-.486 5.73-.33 7.75 2.236 3.121 3.969 3.01 12.896-.241 19.312-3.17 6.254-8.637 11.159-23.65 21.218-6.81 4.562-16.339 12.044-21.174 16.627-10.17 9.638-12.308 10.41-11.468 4.148zm-29.575-32.127c-8.316-8.439-11.347-9.942-19.885-9.862-5.884.055-7.006-.229-8.32-2.104-2.11-3.014-1.892-9.596.447-13.432 3.238-5.31 9.165-7.778 18.535-7.717 15.456.101 19.53 4.494 20.28 21.865.48 11.113-.537 16.891-3.057 17.377-.972.187-4.26-2.33-8-6.127zm-2.862-20.02c1.565-1.886-.814-5.007-3.137-4.116-1.71.656-2.338 3.5-1.057 4.781 1.075 1.075 3.003.77 4.194-.665zm7.515-16.133c-.31-.805.387-2.798 1.547-4.427 2.997-4.208 6.03-11.199 6.055-13.957.034-3.643-2.81-8.754-5.573-10.013-5.448-2.482-12.49-.616-21.774 5.772-2.407 1.656-4.659 2.729-5.004 2.384-2.78-2.782 3.857-10.957 11.632-14.327 7.203-3.121 18.015-3.73 22.721-1.28 7.976 4.154 10.596 15.436 5.81 25.02-4.148 8.304-13.785 15.074-15.414 10.828zm-27.231-.861c-4.147-4.997 14.747-23.674 23.948-23.674 3.377 0 6.907 2.672 6.907 5.228 0 2.87-7.306 9.676-15.805 14.725-8 4.753-13.14 6.023-15.05 3.72zm122.077-53.852c-.672-.672-1.222-1.83-1.222-2.572 0-1.056-1.361-1.213-6.25-.724-3.437.345-7.552 1.123-9.144 1.731-2.528.965-3.122.823-4.695-1.12-2.416-2.983-3.233-9.232-2.725-20.845l.422-9.648-2.054 2.88c-2.833 3.975-9.22 9.94-18.229 17.03-6.837 5.379-4.23-1.603 7.112-19.054 2.502-3.85 4.553-7.49 4.557-8.09.004-.599-1.122-1.603-2.501-2.232-1.38-.628-3.283-2.768-4.23-4.755-1.584-3.32-1.593-3.709-.106-4.796.89-.651 4.756-1.997 8.59-2.992 6.065-1.573 7.168-2.22 8.474-4.972 1.338-2.819 1.336-3.512-.022-6.365-1.248-2.624-1.291-3.482-.239-4.75.707-.852 2.075-1.548 3.04-1.548.966 0 2.316-.675 3-1.5 1.043-1.257.885-1.5-.977-1.5-3.164 0-9.254-6.35-8.846-9.223.283-1.994 1.167-2.402 7.107-3.277 5.898-.87 7.114-1.424 9.322-4.25 2.914-3.73 5.308-4.108 7.894-1.25 2.091 2.31 3.785 2.45 9.886.82 3.81-1.02 4.778-.943 7.068.557 3.198 2.096 3.964 3.822 3.144 7.088-.658 2.623-2.785 3.481-13.83 5.58-3.153.6-6.022 1.557-6.375 2.129-.416.672.373.837 2.232.467 9.47-1.887 9.816-1.865 12.29.768 2.042 2.174 2.254 3.012 1.46 5.778-.62 2.166-1.706 3.419-3.284 3.791-2.148.507-2.21.678-.7 1.93 1.236 1.027 3.41 1.212 8.594.73 6.74-.627 7.039-.556 10.477 2.462 1.946 1.709 3.524 3.848 3.506 4.753-.056 2.927-2.82 5.437-6.69 6.075l-3.778.623 8 6.245c13.432 10.486 18.327 14.642 18.944 16.08.908 2.116-1.49 4.36-3.874 3.625-7.03-2.165-9.661-2.461-11.524-1.298-2.534 1.583-7.4-.645-13.306-6.091l-4.24-3.911.29 12.65c.243 10.594-.001 13.205-1.5 16.074-1.832 3.506-2.578 4.063-7.79 5.818-1.65.556-3.687 1.3-4.528 1.656-.84.354-2.078.095-2.75-.577zm-4.472-13.47l5.25-.63v-7.532l-5.617 1.467c-3.09.806-6.24 1.228-7 .936-1.013-.389-1.383.397-1.383 2.938 0 3.86.026 3.869 8.75 2.82zm-1.489-15.912c2.428-.43 4.289-.229 5.25.569 1.282 1.064 1.49.594 1.49-3.387 0-5.265-.345-5.406-7.392-3.005-3.281 1.118-5.035 2.374-5.678 4.066-1.26 3.313-1.2 3.53.82 2.937.962-.282 3.442-.814 5.51-1.18zm10.196-16.004c5.757-3.405 2.669-4.051-9.226-1.93-10.243 1.825-13.23 2.872-13.23 4.635 0 .736 2.894.846 9.25.353 7-.543 10.212-1.287 13.206-3.058zm-7.54-16.053c.852-.27 1.051-.804.5-1.34-1.287-1.249-6.172-.124-6.823 1.573-.523 1.362 1.53 1.287 6.323-.233z" fill="#c38c8f"/><path d="M57.368 444.384c-23.22-5.065-44.475-23.01-52.573-44.386C-.28 386.596-.195 389.92.125 218.789.461 39.507-.265 55.76 8.147 39.352c3.129-6.104 6.25-10.148 13.161-17.06C31.334 12.266 40.342 6.848 53.896 2.69L61.368.398l112.5-.32c77.415-.22 115.095.021 120.82.774 25.647 3.37 47.19 18.855 57.754 41.516 6.825 14.639 6.514 5.402 6.205 184.484l-.279 161.5-2.932 8.4c-7.988 22.884-28.106 41.12-51.978 47.114-7.675 1.927-11.358 1.983-124 1.906-91.685-.063-117.351-.354-122.09-1.388zm246-4.809c3.3-.959 9.825-3.602 14.5-5.874 11.423-5.55 23.789-17.755 29.23-28.85 7.837-15.973 7.196-1.155 7.55-174.5.207-102.064-.038-158.301-.72-164.668-1.792-16.76-7.77-29.501-19.137-40.796-7.82-7.77-16.5-13.091-27.423-16.81l-8-2.725-116-.29c-81.562-.203-117.922.04-122.476.819-23.957 4.1-43.478 20.232-52.364 43.276l-3.16 8.195-.28 162.5c-.312 182.081-.783 169.649 7.015 185.23 4.757 9.504 15.71 21.186 24.93 26.59 6.637 3.89 17.354 7.784 24.956 9.067 3.046.513 55.27.836 120.38.743 106.101-.15 115.464-.298 121-1.907zm-141-56.292c-29.738-19.39-67.603-32.115-101.426-34.089-5.816-.34-11.418-1.05-12.449-1.582-1.787-.92-1.764-1.072.5-3.267 3.092-2.997 14.83-7.126 25.594-9.003 15.684-2.736 34.839-1.618 34.45 2.01-.104.965-3.539 1.475-20.669 3.073-6.983.65-7.555.842-4.5 1.506 40.276 8.755 63.718 17.284 83.398 30.343l6.897 4.577 5.603-3.72c21.982-14.59 52.293-26.07 77.568-29.378l9.588-1.254-9.277-3.916c-15.161-6.399-16.911-10.444-4.002-9.25 7.442.687 17.465 4.139 29.434 10.135 8.224 4.12 11.628 7.22 10.295 9.377-.981 1.588-7.443 2.777-18.656 3.434-37.73 2.208-66.209 11.92-91.465 31.19-4.6 3.51-8.931 6.372-9.624 6.358-.692-.013-5.759-2.958-11.259-6.544zm6-19.046c-17.622-12.104-26.87-16.247-41.023-18.382-4.387-.661-8.652-1.544-9.477-1.962-1.165-.59-2.099-6.644-4.185-27.15-1.477-14.515-2.715-27.187-2.75-28.16-.05-1.343-.625-1.629-2.389-1.186-1.43.359-2.79.023-3.532-.872-.997-1.202-.347-2.088 3.725-5.077 10.903-8.003 19.203-9.77 33.631-7.16 12.977 2.348 27.723 3.015 36.5 1.65 4.125-.64 14.189-2.732 22.364-4.648 20.308-4.759 26.61-5.153 39.636-2.48 10.466 2.148 21 6.093 21 7.864 0 2.115-3.074 3.242-8.097 2.967l-5.297-.29-4.95 29.698-4.95 29.697-7.103 2.09c-21.23 6.25-33.067 12.19-47.517 23.843-3.527 2.845-6.677 5.146-7 5.113-.322-.033-4.186-2.533-8.586-5.555zm10.094-4.537c1.088-1.76-2.598-4.09-4.273-2.7-1.107.92-1.034 1.35.418 2.452 2.191 1.662 2.95 1.711 3.855.248zm-11.585-10.832c-2.295-1.74-2.632-1.762-4.266-.283-1.685 1.525-1.636 1.697.98 3.412 2.466 1.619 2.911 1.648 4.265.283 1.35-1.36 1.246-1.725-.98-3.412zm22.398 2.535l2.907-2.377-2.907-2.532-2.907-2.532-3 3.002-3 3.002 2.361 1.943c2.924 2.406 2.99 2.401 6.546-.506zm-32.672-7.498c1.046-1.674.844-2.24-1.442-4.038l-2.658-2.09-2.23 2.787-2.23 2.788 2.162 1.214c3.12 1.752 5.013 1.557 6.398-.661zm21.019-1.934l2.13-2.88-2.256-2.12-2.255-2.118-2.857 2.982c-2.784 2.907-2.81 3.034-1.031 5 2.462 2.72 3.75 2.543 6.269-.864zm24.706-1.87c1.917-2.062 3.498-4.227 3.513-4.811.015-.584-1.368-2.094-3.074-3.355l-3.1-2.292-3.9 3.807c-2.144 2.094-3.899 4.188-3.899 4.653 0 .969 5.128 5.67 6.237 5.717.405.017 2.305-1.656 4.223-3.718zm-58.66-9.435l-3.3-2.715-2.456 2.43-2.457 2.43 2.898 3.024 2.897 3.025 2.86-2.74 2.858-2.738-3.3-2.716zm23.03-2.44l-2.63-2.63-3.074 3.378-3.075 3.378 2.721 2.234 2.721 2.234 2.983-2.982 2.982-2.983-2.629-2.629zm60.202 6.024l5.394-1.602-3.463-2.871c-1.904-1.58-4.002-2.884-4.662-2.898-1.684-.038-6.61 6.664-5.827 7.93.87 1.409 2.23 1.32 8.558-.56zm-37.486-5.019l3.786-4.62-2.416-1.83c-2.4-1.818-2.44-1.806-6.166 1.824-2.062 2.009-3.75 4.181-3.75 4.828 0 .875 3.004 3.708 4.63 4.366.071.03 1.833-2.027 3.916-4.568zm24.65-3.066c3.528-3.38 3.52-4.667-.04-7.203l-2.846-2.026-3.381 3.49-3.382 3.489 2.976 2.432c1.638 1.338 3.178 2.449 3.423 2.469.244.02 1.707-1.173 3.25-2.651zm-81.606-.412c1.88-2.077 1.868-2.125-1.068-4.465l-2.967-2.366-2.346 2.204-2.347 2.204 2.82 2.256c3.453 2.764 3.555 2.767 5.908.167zm22.912-6.651c-3.325-2.863-3.563-2.84-6.942.688l-2.815 2.938 2.877 2.494 2.878 2.495 3.308-3.183 3.308-3.182-2.614-2.25zm24.097-4.886l-2.902-2.53-3.801 4.333-3.801 4.333 2.702 2.236 2.701 2.236 4.001-4.04 4.001-4.039-2.901-2.529zm54.794 4.136l.648-5-3.06 3.5-3.059 3.5 2.18 1.775c1.2.976 2.285 1.651 2.412 1.5.126-.152.522-2.525.879-5.275zm-32.127-2.967l2.766-3.466-2.586-1.695c-2.527-1.655-2.656-1.623-5.707 1.427-3.057 3.057-3.083 3.163-1.275 5.16 2.54 2.807 3.603 2.584 6.802-1.426zm-58.942-6.255l-2.786-2.222-3.327 3.222-3.326 3.222 2.691 2.317 2.691 2.316 3.422-3.316 3.422-3.317-2.787-2.222zm-21.64 4.534c-.32-.797-.557-.56-.605.604-.043 1.055.193 1.645.525 1.313.333-.332.368-1.195.08-1.917zm46.505-8.503l-2.689-2.192-4 3.995-4 3.994 2.755 2.403 2.755 2.403 3.934-4.206 3.933-4.206-2.688-2.191zm59.811 4.027c0-.71-1.156-2.048-2.57-2.974-2.51-1.645-2.643-1.61-5.75 1.538l-3.18 3.221 2.978 2.409 2.977 2.408 2.773-2.656c1.525-1.461 2.772-3.237 2.772-3.946zm-35.68-6.535c-1.937-2.14-4.678-1.617-8.139 1.553l-2.319 2.124 2.8 2.233 2.8 2.233 3.258-3.157c3.063-2.97 3.158-3.265 1.6-4.986zm-61.124 3.512c3.39-3.248 3.45-3.95.554-6.384-1.573-1.322-3.152-1.724-5.25-1.335-7.876 1.458-8.347 2.703-2.75 7.275 2.063 1.685 3.95 3.079 4.196 3.097.244.018 1.707-1.175 3.25-2.653zm83.113-8.642c-2.342-1.842-2.46-1.844-4.45-.043-3.873 3.505-4.345 5.497-1.762 7.445 2.297 1.733 2.386 1.702 5.477-1.874l3.142-3.635-2.407-1.893zm-59.942 5.468l2.74-2.86-3.792-.616c-5.149-.835-7.558 1.306-4.843 4.306 2.367 2.615 2.63 2.578 5.895-.83zm83.848-7.15c.649-4.42-2.814-4.77-7.008-.707l-3.322 3.218 2.681 2.308 2.681 2.308 2.275-2.136c1.25-1.176 2.463-3.421 2.693-4.99zm-44.568-4.356c16.848-6.599 23.492-7.97 35.54-7.34l10.686.561.659-2.999c.362-1.649.353-3.304-.02-3.677-.373-.373-7.053-.678-14.845-.678-14.04 0-14.293.04-28.167 4.489-13.465 4.318-14.44 4.484-25.5 4.351-6.325-.076-18.53-1.127-27.122-2.336-11.723-1.65-16.964-1.979-21-1.32l-5.378.878.323 3.959c.178 2.177.472 4.107.653 4.287.18.181 2.93-.152 6.11-.74 9.267-1.713 17.985-1.187 32.414 1.955 17.21 3.748 23.117 3.517 35.647-1.39zm29.894 1.3c.917-1.483.055-2.1-1.892-1.352-.9.346-1.388 1.031-1.084 1.524.748 1.21 2.173 1.129 2.976-.172zm27.135 25.41c-.373-.374 2.907-4.194 7.29-8.49 9.494-9.304 13.426-15.777 15.655-25.768 1.908-8.555 1.445-20.344-1.135-28.902-1.58-5.242-1.648-5.307-4.794-4.625-1.756.38-10.167 3.142-18.692 6.138-17.96 6.312-27.38 7.71-32.863 4.874-1.796-.928-3.092-2.224-2.882-2.879.21-.655 4.498-3.666 9.527-6.691 22.083-13.284 35.892-29.046 37.83-43.18.815-5.947-1.637-14.226-5.644-19.063-1.771-2.138-6.825-5.783-11.783-8.5-11.199-6.137-25.6-20-29.523-28.42-3.34-7.17-5.587-19.312-3.888-21.01 1.644-1.645 4.29.912 10.528 10.173 6.712 9.963 16.015 19.527 28.198 28.986 17.853 13.86 23.81 21.913 23.825 32.204.013 8.51-4.607 16.792-22.203 39.81-1.869 2.444-1.617 2.402 11.233-1.858 15.168-5.028 23.733-6.183 28.309-3.816 3.75 1.939 12.07 10.262 12.913 12.917 1.208 3.806-1.143 4.225-7.557 1.346-3.337-1.497-7.702-2.988-9.701-3.312-3.455-.561-3.602-.472-2.98 1.816.36 1.324.94 8.257 1.29 15.407.509 10.387.306 14.281-1.007 19.375-2.297 8.904-8.134 19.525-13.165 23.954-6.405 5.637-17.192 11.102-18.78 9.514zm-155.176-4.428c-12.139-6.434-17.453-17.71-17.484-37.1l-.016-9.685-8.975.581c-8.037.52-9.047.393-9.667-1.22-.466-1.215-.004-2.36 1.416-3.51 2.33-1.886 13.208-6.52 17.41-7.414 1.63-.348 2.94-1.453 3.337-2.82.36-1.236 2.254-5.721 4.21-9.967l3.556-7.719-5.947-6.358c-7.48-7.996-9.636-12.435-10.152-20.91-1.076-17.666 8.361-31.566 30.044-44.25l6.473-3.786-1.5-6.629c-2.234-9.866-2.145-12.566.43-12.933 2.69-.383 5.793 3.425 8.114 9.96.948 2.67 1.957 4.74 2.242 4.6 4.46-2.191 33.473-13.2 39.194-14.871 7.533-2.202 7.765-2.21 11.695-.438 4.82 2.173 8.892 6.2 7.557 7.473-.515.491-4.762 1.662-9.437 2.602-13.212 2.656-27.168 7.098-37.791 12.028l-9.709 4.505.345 12.764c.31 11.463.093 13.523-2.137 20.222-2.068 6.218-2.35 8.375-1.691 12.96 1.6 11.134 2.59 12.164 16.983 17.676 14.256 5.459 18.077 7.629 23.34 13.257 6.584 7.038 8.833 12.441 8.458 20.319-.421 8.837-2.297 8.273-7.497-2.252-4.94-10-8.963-13.901-17.596-17.063-12.112-4.435-21.426-9.743-27.054-15.416-3.012-3.037-6.154-5.521-6.982-5.521-.828 0-2.514 1.631-3.746 3.625l-2.241 3.626 2.41 1.84c1.324 1.011 8.483 4.822 15.908 8.468 16.694 8.198 26.306 14.5 30.095 19.73 2.671 3.688 3.982 9.71 2.114 9.71-.435 0-4.372-2.284-8.75-5.078-4.377-2.793-14.46-8.202-22.404-12.02-7.945-3.82-16.591-8.32-19.214-10.004-2.623-1.683-5.186-2.802-5.695-2.487-.972.6-6.146 12.892-6.146 14.6 0 .544 1.079.99 2.398.99 3.293 0 15.682 6.515 20.122 10.582 6.254 5.728 3.105 6.736-10.706 3.425-4.573-1.096-9.551-1.996-11.064-2-3.38-.01-3.445 1.039-.842 13.493 2.523 12.069 5.431 19.42 10.184 25.74 5.862 7.797 4.234 10.822-3.592 6.675zm7.19-101.745c7.165-13.09 9.264-20.08 9.29-30.92.01-5.088-.362-9.25-.83-9.25-1.416 0-8.952 5.793-13.112 10.08-8.057 8.302-10.68 18.958-7.616 30.922.912 3.559 2.377 7.567 3.255 8.907 1.554 2.372 1.635 2.386 3.025.514.786-1.058 3.48-5.672 5.988-10.253zm79.657 55.292c-.945-2.464 2.429-9.926 6.666-14.74 2.15-2.442 9.434-8.217 16.186-12.832 13.421-9.174 22.266-16.985 21.583-19.062-.24-.73-1.994-1.462-3.898-1.626-5.177-.445-17.733 6.354-28.384 15.372-11.85 10.032-17.174 13.426-21.066 13.426h-3.176l.871-4.663c1.115-5.964 4.606-11.892 10.325-17.53 4.526-4.462 21.467-14.662 31.21-18.79l5.162-2.189-4.663-5.893c-4.584-5.795-4.749-5.895-9.731-5.915-8.002-.032-23.432 5.324-23.432 8.134 0 .612 2.25 3.328 5 6.035 2.75 2.707 5 5.528 5 6.268 0 1.965-5.022 3.449-7.975 2.356-6.235-2.306-12.025-8.957-12.025-13.813 0-8.483 10.081-13.823 29.25-15.495l7.75-.676.08-5.165c.114-7.262 2.048-14.076 4.107-14.467 3.26-.618 5.26 4.454 5.453 13.829.145 7.081.713 9.937 3.097 15.573 1.93 4.561 3.401 6.785 4.341 6.56.782-.188 3.672-.576 6.422-.864 7.153-.747 9.65 1.454 10.28 9.064 1 12.064-4.412 19.005-26.182 33.575-7.63 5.108-17.572 12.837-22.092 17.176-4.52 4.34-8.522 7.89-8.894 7.89-.37 0-.94-.692-1.265-1.538zm-29.33-34.945c-7.931-8.003-11.636-9.857-19.503-9.764-7.8.092-10.514-2.083-10.514-8.425 0-3.564.636-5.027 3.624-8.333 6.31-6.985 17.507-8.728 28.307-4.406 3.512 1.405 4.71 2.59 6.39 6.32 3.815 8.472 3.323 31.09-.677 31.09-.66 0-4.093-2.917-7.627-6.482zm-2.606-20.144c.724-1.888-1.018-4.373-3.065-4.373-1.702 0-2.776 2.435-1.984 4.5.769 2.004 4.265 1.916 5.049-.127zm-19.744-16.04c-2.492-2.492 2.453-11.9 8.932-16.992 5.907-4.644 9.85-6.341 14.73-6.341 8.805 0 8.762 5.527-.098 12.53-6.108 4.83-18.381 11.47-21.198 11.47-.935 0-2-.3-2.366-.667zm26.333-.349c0-.558 1.613-3.444 3.584-6.412 6.345-9.557 5.441-18.434-2.25-22.084-3.023-1.434-3.95-1.458-8.22-.207-2.646.776-7.288 3.055-10.316 5.065-7.953 5.279-9.89 4.596-5.833-2.056 2.741-4.496 8.454-7.98 16.235-9.9 15.313-3.778 24.497 2.04 24.724 15.663.15 8.95-8.418 20.947-14.959 20.947-1.63 0-2.965-.457-2.965-1.016zm94.49-56.016c-.653-2.057-1.135-2.18-6.348-1.626-3.103.33-7.48.888-9.725 1.239-3.842.6-4.157.46-5.33-2.37-.85-2.052-1.14-7.335-.916-16.611.181-7.482.292-13.602.245-13.602-.046.001-1.788 2.477-3.871 5.502-2.084 3.025-4.169 5.5-4.633 5.5-.465 0-2.329 1.462-4.142 3.25-4.75 4.682-10.799 9.054-11.524 8.329-.898-.899 2.887-8.288 9.852-19.233 3.333-5.237 5.912-9.595 5.731-9.684-6.083-3-8.839-6.588-7.58-9.87.305-.793 4.017-2.47 8.25-3.727 7.024-2.085 7.823-2.591 9.166-5.806 1.044-2.499 1.162-3.833.404-4.59-.588-.588-1.069-2.28-1.069-3.76 0-2.1.603-2.844 2.74-3.38 4.735-1.188 5.793-4.53 1.435-4.53-4.235 0-8.917-5.901-7.536-9.5.37-.965 1.916-1.5 4.343-1.5 6.653 0 10.114-1.12 11.049-3.58 1.765-4.642 7.318-5.192 9.687-.958.654 1.168 1.548 1.234 4.793.352 6.584-1.788 10.57-1.432 12.644 1.129 4.336 5.355 1.34 8.435-9.862 10.14-4.942.753-8.41 1.781-8.718 2.584-.608 1.583 2.106 1.708 7.906.363 5.012-1.162 7.52.72 7.52 5.647 0 2.623-.554 3.619-2.508 4.509-2.372 1.08-2.416 1.242-.822 3.004 1.459 1.611 2.637 1.777 8.757 1.23 6.303-.562 7.372-.394 9.822 1.548 5.029 3.983 2.664 11.033-3.7 11.033-2.494 0-2.647.18-1.422 1.675.755.922 4.972 4.35 9.372 7.616 11.17 8.294 15.5 12.386 15.5 14.647 0 2.975-1.46 3.279-7.021 1.46-4.164-1.362-5.526-1.443-7.399-.441-1.935 1.036-2.953.893-6.483-.908-2.303-1.175-5.865-3.652-7.915-5.504l-3.728-3.368.023 13.161c.02 11.495-.236 13.604-2.028 16.653-1.483 2.526-3.005 3.686-5.5 4.196-1.897.387-4.642.998-6.1 1.356-2.166.533-2.781.244-3.359-1.575zm.26-12.08c2.119-.79 2.25-1.399 2.25-10.43 0-11.468-.83-13.659-4.748-12.52-7.497 2.182-10.252 3.931-10.252 6.51 0 2.794.605 2.944 6.435 1.592 4.798-1.113 7.565.12 7.565 3.372 0 3.338-2.068 4.636-8.43 5.293l-5.57.575v7.426l5.25-.49c2.888-.269 6.263-.867 7.5-1.328zm-4.869-28.445c4.002-.394 7.582-1.296 8.225-2.07.627-.756 1.984-1.373 3.017-1.373 1.032 0 1.877-.424 1.877-.941 0-1.41-2.24-2.54-4.5-2.27-15.875 1.908-26.258 5.673-20.294 7.36 1.262.356 2.81.5 3.442.32.631-.18 4.336-.642 8.233-1.026zm3.053-19.05c.238-.234-.067-.926-.677-1.537-1.465-1.464-5.87-.308-6.659 1.749-.532 1.388-.08 1.52 3.14.92 2.07-.387 3.957-.896 4.196-1.131z" fill="#8d958c"/><path d="M57.368 444.384c-23.22-5.065-44.475-23.01-52.573-44.386C-.28 386.596-.195 389.92.125 218.789.461 39.507-.265 55.76 8.147 39.352c3.129-6.104 6.25-10.148 13.161-17.06C31.334 12.266 40.342 6.848 53.896 2.69L61.368.398l112.5-.32c77.415-.22 115.095.021 120.82.774 25.647 3.37 47.19 18.855 57.754 41.516 6.825 14.639 6.514 5.402 6.205 184.484l-.279 161.5-2.932 8.4c-7.988 22.884-28.106 41.12-51.978 47.114-7.675 1.927-11.358 1.983-124 1.906-91.685-.063-117.351-.354-122.09-1.388zm246-4.809c3.3-.959 9.825-3.602 14.5-5.874 11.423-5.55 23.789-17.755 29.23-28.85 7.837-15.973 7.196-1.155 7.55-174.5.207-102.064-.038-158.301-.72-164.668-1.792-16.76-7.77-29.501-19.137-40.796-7.82-7.77-16.5-13.091-27.423-16.81l-8-2.725-116-.29c-81.562-.203-117.922.04-122.476.819-23.957 4.1-43.478 20.232-52.364 43.276l-3.16 8.195-.28 162.5c-.312 182.081-.783 169.649 7.015 185.23 4.757 9.504 15.71 21.186 24.93 26.59 6.637 3.89 17.354 7.784 24.956 9.067 3.046.513 55.27.836 120.38.743 106.101-.15 115.464-.298 121-1.907zm-141-56.37c-29.313-19.39-64.008-31.263-100.79-34.49-11.607-1.02-13.744-1.46-13.5-2.787 1.205-6.552 43.176-14.815 56.605-11.144 5.263 1.439 5.053 3.474-.392 3.81-8.48.522-26.486 2.528-26.106 2.908.22.22 4.405 1.049 9.3 1.84 11.06 1.79 29.247 6.473 40.981 10.555 11.59 4.032 31.57 13.637 39.328 18.905l6.126 4.16 7.224-4.502c10.187-6.347 34.564-17.936 45.224-21.5 7.567-2.53 20.893-5.312 37.5-7.828l3.5-.53-6.5-2.847c-17.598-7.708-19.706-9.903-9.51-9.903 7.906 0 17.674 3.018 31.264 9.659 7.125 3.482 9.395 5.087 9.87 6.978.34 1.35.353 2.72.03 3.042-.321.322-4.988.982-10.37 1.467-49.151 4.429-72.036 11.847-98.54 31.942-5.015 3.801-9.595 6.905-10.18 6.896-.585-.01-5.564-2.993-11.064-6.63zm8-17.801c-17.095-12.404-29.454-17.974-45.63-20.566l-7.63-1.222-.549-4.132c-.302-2.273-1.502-14.032-2.666-26.132-2.676-27.795-2.474-26.855-5.59-26.073-1.78.447-2.657.156-3.113-1.03-.77-2.01 1.94-4.312 9.978-8.473 9.096-4.71 13.149-5.092 29.2-2.757 20.148 2.932 34.175 2.243 54-2.652 18.847-4.653 31.253-5.515 43.5-3.021 12.223 2.489 19 5.192 19 7.578 0 1.701-.745 1.928-6.352 1.928h-6.351l-4.895 29.633c-4.337 26.257-5.123 29.722-6.898 30.406-1.102.425-7.13 2.414-13.396 4.421-16.533 5.297-25.266 10.067-38.923 21.262-3.542 2.903-6.72 5.257-7.062 5.23-.342-.025-3.323-2.006-6.623-4.4zm8.06-5.648c.372-.603-.029-1.802-.891-2.664-1.297-1.297-1.838-1.344-3.13-.273-1.407 1.168-1.387 1.428.2 2.633 2.173 1.648 2.951 1.71 3.82.304zm-9.56-8.912c0-.42-1.075-1.467-2.39-2.328-2.204-1.445-2.52-1.42-4.085.308-1.612 1.781-1.555 1.948 1.14 3.363 2.714 1.424 5.335.765 5.335-1.343zm20.5.544l3-2.455-3-2.48-3-2.48-3 2.997-3 2.996 2.361 1.943c2.967 2.442 3.022 2.438 6.64-.521zm-33.965-11.456l-2.57-2.57-2.399 2.995-2.4 2.995 3.167 1.703c3.062 1.647 3.227 1.633 4.97-.425 1.752-2.07 1.731-2.2-.768-4.698zm22.211-2.844l-2.121-2.265-3.231 3.132-3.232 3.132 2.67 2.344 2.668 2.345 2.684-3.212 2.683-3.212-2.12-2.264zm28.22-1.736c.029-.55-1.354-2.156-3.073-3.57l-3.125-2.568-4.346 4.569-4.347 4.569 3.713 3.178 3.712 3.177 3.708-4.177c2.039-2.298 3.73-4.628 3.759-5.178zm-62.166-4.672l-3.3-2.703-2.656 2.535-2.657 2.535 3.157 2.835 3.156 2.834 2.8-2.667 2.8-2.667-3.3-2.702zm22.936-2.547l-2.722-2.722-2.963 3.47-2.963 3.47 2.703 2.235 2.702 2.234 2.983-2.982 2.982-2.983-2.722-2.722zm62.764 5.749l3-1.172-3.5-2.902c-1.925-1.596-4.022-2.915-4.66-2.93-1.204-.027-6.34 5.55-6.34 6.884 0 2.488 5.298 2.543 11.5.12zm-39.937-4.672l3.804-4.643-2.35-1.902-2.35-1.903-4.381 4.295-4.382 4.295 2.798 2.245c1.54 1.235 2.857 2.247 2.928 2.25.071 0 1.841-2.084 3.933-4.637zm25.435-3.856c3.298-3.403 3.337-3.54 1.446-5.017-2.574-2.012-5.574-3.73-5.78-3.311-.09.185-1.5 1.812-3.135 3.617l-2.972 3.28 2.972 2.429c1.634 1.335 3.22 2.444 3.525 2.464.305.02 2.08-1.538 3.944-3.462zm-82.412.403c1.873-2.07 1.861-2.124-.969-4.558l-2.864-2.464-2.445 2.298-2.446 2.297 2.82 2.256c3.453 2.764 3.555 2.767 5.904.171zm22.357-1.155l2.914-3.25-2.103-2.25c-2.763-2.957-3.81-2.844-7.288.786l-2.909 3.035 2.972 2.429c1.634 1.335 3.09 2.444 3.235 2.464.146.02 1.576-1.427 3.179-3.214zm25.31-10.425c-1.514-1.24-3.036-2.27-3.382-2.29-.347-.02-2.261 1.955-4.255 4.389l-3.625 4.423 2.682 2.11 2.683 2.11 4.324-4.244 4.325-4.244-2.752-2.254zm54.122 6.55c.344-1.719.612-4.081.596-5.25-.026-1.907-.341-1.782-3.07 1.219-2.903 3.193-2.963 3.43-1.316 5.25 2.377 2.626 3.065 2.405 3.79-1.22zm-32.172-5.263c2.578-3.23 2.62-3.462.921-5-2.465-2.23-3.328-2.052-6.607 1.37-2.785 2.908-2.812 3.035-1.032 5 2.509 2.773 3.588 2.553 6.718-1.37zm-58.879-6.334l-2.786-2.222-3.327 3.222-3.326 3.222 2.691 2.317 2.691 2.316 3.422-3.316 3.422-3.317-2.787-2.222zm-20.866 5.79c.316-.511.118-1.213-.441-1.558-.56-.346-1.017.073-1.017.93 0 1.757.6 2.016 1.458.629zm45.775-9.804l-2.73-2.237-4.002 4.04-4 4.04 2.754 2.402 2.755 2.403 3.977-4.206 3.977-4.206-2.731-2.236zm57.802 1.478l-3.083-2.757-3.186 3.628-3.186 3.629 2.844 2.446 2.843 2.445 3.425-3.316 3.426-3.317-3.083-2.758zm-33.57-4.218c-2.46-1.893-6.136-1.13-8.565 1.778-1.802 2.158-1.786 2.239.88 4.433l2.716 2.235 3.468-3.467c3.38-3.38 3.418-3.505 1.502-4.98zm-60.584 3.099l3.273-3.377-3.1-2.207c-2.432-1.732-3.905-2.071-6.847-1.574-6.818 1.152-7.12 1.975-2.385 6.48 2.344 2.23 4.605 4.055 5.024 4.055.42 0 2.235-1.52 4.035-3.377zm82.437-7.946c-2.35-1.848-2.47-1.85-4.46-.05-3.895 3.526-4.37 5.54-1.797 7.623 2.326 1.883 2.328 1.882 5.5-1.895l3.171-3.778-2.414-1.9zm-59.883 5.391l2.809-2.932-3.709-.696c-2.762-.518-4.115-.288-5.305.901-1.462 1.462-1.441 1.768.242 3.628 2.373 2.621 2.625 2.583 5.963-.901zm81.88-2.624c.999-1.371 1.899-3.719 2-5.218.28-4.125-3.1-4.075-7.152.106l-3.306 3.41 2.707 2.129c3.36 2.643 3.525 2.63 5.751-.427zm-40.168-9.514c17.085-6.106 24.717-7.439 35.353-6.172 8.84 1.052 9.46.768 9.485-4.359l.015-3.1-9.034-.641c-11.69-.83-20.36.46-34.229 5.09-11.187 3.735-11.308 3.751-27.237 3.666-10.185-.055-19.362-.69-25.25-1.75-9.59-1.725-18.727-2.119-24.125-1.04-2.74.549-3.125 1.03-3.125 3.919 0 5.758.591 6.341 5.311 5.236 7.913-1.852 21.466-1.258 34.69 1.521 20.472 4.302 19.27 4.377 38.146-2.37zm27.853 1.57c1.063-1.281.771-1.5-2-1.5-2.77 0-3.063.219-2 1.5.685.825 1.585 1.5 2 1.5.416 0 1.316-.675 2-1.5zm34.221 17.132c6.583-6.45 9.361-10.06 12.125-15.75 5.844-12.034 6.55-24.896 2.17-39.55l-1.545-5.169-7.235 2.272c-3.98 1.25-12.636 4.103-19.236 6.34-14.562 4.938-22.615 6.04-27.929 3.819-2.06-.861-3.57-2.094-3.356-2.739.215-.645 4.6-3.719 9.746-6.831 12.118-7.33 20.598-14.33 27.505-22.704 8.164-9.897 10.034-14.26 10.034-23.399 0-6.687-.355-8.153-3.021-12.465-3.279-5.303-7.804-9.017-17.617-14.456-8.02-4.446-20.688-16.428-24.21-22.9-3.61-6.63-5.628-13.555-5.64-19.35-.019-7.794 3.087-5.826 11.439 7.25 4.35 6.81 15.833 18.263 27.556 27.484 11.423 8.985 17.873 15.45 20.518 20.564 2.502 4.839 3.046 13.83 1.169 19.338-1.616 4.742-10.731 18.984-18.292 28.578-2.368 3.006-4.215 5.54-4.104 5.631.111.092 5.391-1.541 11.734-3.63 17.803-5.862 22.817-6.685 28.11-4.616 2.397.937 5.593 2.793 7.102 4.124 2.917 2.573 7.756 9.228 7.756 10.666 0 1.48-4.313.902-8.946-1.2-2.446-1.11-6.1-2.389-8.12-2.843l-3.671-.825.507 17.69c.56 19.547-.017 22.828-6.041 34.307-3.647 6.95-8.63 11.644-16.67 15.702-10.897 5.501-11.402 4.034-1.838-5.338zM92.605 311.9c-9.81-6.222-14.174-16.928-14.214-34.874l-.023-10.325-9.5.325c-8.942.307-9.5.208-9.5-1.674 0-2.333 8.588-6.906 16.5-8.786 4.806-1.141 4.935-1.273 7.05-7.188 1.186-3.315 3.18-7.896 4.43-10.182l2.274-4.156-5.287-5.221c-9.659-9.539-12.57-17.747-10.584-29.843 2.407-14.663 9.714-24.185 26.513-34.55 5.283-3.259 9.597-6.184 9.589-6.5-.01-.316-.668-3.274-1.465-6.574-1.833-7.594-1.929-12.5-.242-12.5 2.835 0 5.748 3.365 7.812 9.025 1.198 3.286 2.49 5.975 2.872 5.975.381 0 4.912-1.83 10.068-4.066 14.473-6.278 31.741-11.934 36.431-11.934 3.125 0 5.33.79 8.39 3.006 2.282 1.653 4.15 3.403 4.15 3.888 0 .485-6.188 2.338-13.75 4.117-15.33 3.608-23.264 6.26-35.471 11.857l-8.28 3.796-.042 14.418c-.037 12.688-.321 15.124-2.372 20.302-1.878 4.743-2.206 6.94-1.689 11.336 1.254 10.667 4.018 13.313 20.175 19.306 5.865 2.176 12.167 4.885 14.003 6.02 5.66 3.498 12.266 11.68 13.915 17.232 2.447 8.24 1.643 17.158-1.378 15.291-.61-.378-2.907-4.449-5.101-9.047-4.962-10.396-8.193-13.17-21.634-18.572-12.428-4.995-18.61-8.798-23.698-14.578-2.117-2.405-4.674-4.372-5.682-4.372-1.029 0-2.817 1.59-4.074 3.625l-2.241 3.626 2.409 1.874c1.325 1.03 9.834 5.7 18.91 10.378 19.384 9.991 25.22 14.048 27.975 19.449 4.261 8.353 2.132 9.018-7.965 2.486-3.878-2.509-13.51-7.633-21.402-11.386-7.893-3.754-16.834-8.414-19.87-10.356l-5.519-3.53-3.11 6.746c-3.947 8.563-3.931 9.751.14 10.632 7.616 1.646 21.75 10.422 21.75 13.504 0 2.423.664 2.45-13.806-.548-6.636-1.375-12.32-2.5-12.63-2.5-1.335 0-.38 9.468 1.838 18.21 2.627 10.358 5.722 17.19 10.497 23.177 1.706 2.138 3.101 4.5 3.101 5.25 0 2.353-5.354 1.524-10.263-1.59zm11.845-103.524c7.368-14.69 9.172-22.1 7.762-31.878l-.844-5.854-6 4.618c-7.347 5.655-12.807 12.208-15.037 18.048-2.615 6.846-1.749 18.43 1.94 25.947 3.49 7.114 2.883 7.656 12.18-10.88zm78.418 56.877c0-7.388 6.053-14.244 22.82-25.847 20.8-14.394 25.764-20.586 16.462-20.532-6.749.039-15.253 4.907-29.782 17.048-11.06 9.241-15.289 11.93-18.767 11.93-2.936 0-2.977-.071-2.336-4.083 2.152-13.455 11.598-22.265 37.082-34.586l9.5-4.592-2.971-3.383c-1.634-1.86-3.69-4.776-4.57-6.478l-1.6-3.094-6.528.7c-10.534 1.127-22.31 5.811-22.31 8.873 0 .721 2.25 3.442 5 6.045 5.216 4.939 6.084 6.968 3.418 7.99-4.53 1.74-12.391-1.66-15.453-6.683-2.126-3.485-2.578-9.695-.931-12.772 2.376-4.44 16.626-8.886 28.587-8.92l6.12-.017.677-7.25c.816-8.753 2.284-13.75 4.037-13.75 2.861 0 4.053 3.434 4.653 13.402.461 7.672 1.258 11.696 3.316 16.749l2.71 6.65 7.924-.542 7.925-.544 1.509 3.61c2.924 7 1.185 14.988-5.04 23.15-1.453 1.904-9.46 8.086-17.796 13.738-8.336 5.652-18.804 13.767-23.262 18.032-4.459 4.265-8.621 7.755-9.25 7.755-.63 0-1.144-1.17-1.144-2.599zm-30.974-33.87c-7.618-7.693-12.625-10.016-20.048-9.303-4.499.432-5.274.21-7.018-2.006-4.299-5.466-.999-13.926 7.01-17.972 7.57-3.825 21.367-2.828 26.633 1.924 3.821 3.448 6.116 17.173 4.653 27.826-1.08 7.862-3.061 7.78-11.23-.469zm-1.215-20.242c-.56-2.844-3.56-3.969-5.475-2.053-1.603 1.602-1.596 1.818.107 3.7 1.423 1.573 2.222 1.778 3.743.964 1.064-.57 1.795-1.744 1.625-2.61zm-20.144-14.956c-2.492-2.492 2.453-11.899 8.932-16.992 5.907-4.644 9.85-6.341 14.73-6.341 8.805 0 8.762 5.527-.098 12.531-6.108 4.829-18.381 11.469-21.198 11.469-.935 0-2-.3-2.366-.667zm26.333-.349c0-.558 1.613-3.444 3.584-6.412 6.345-9.557 5.441-18.434-2.25-22.084-3.023-1.434-3.95-1.458-8.22-.207-2.646.776-7.288 3.055-10.316 5.065-7.953 5.279-9.89 4.596-5.833-2.056 2.741-4.496 8.454-7.98 16.235-9.9 15.313-3.778 24.497 2.04 24.724 15.663.15 8.95-8.418 20.947-14.959 20.947-1.63 0-2.965-.457-2.965-1.016zm94.49-56.016c-.653-2.057-1.135-2.18-6.348-1.626-3.103.33-7.48.888-9.725 1.239-3.842.6-4.157.46-5.33-2.37-.85-2.052-1.14-7.335-.916-16.611.181-7.482.292-13.602.245-13.602-.046.001-1.788 2.477-3.871 5.502-2.084 3.025-4.169 5.5-4.633 5.5-.465 0-2.329 1.462-4.142 3.25-4.75 4.682-10.799 9.054-11.524 8.329-.898-.899 2.887-8.288 9.852-19.233 3.333-5.237 5.912-9.595 5.731-9.684-6.083-3-8.839-6.588-7.58-9.87.305-.793 4.017-2.47 8.25-3.727 7.024-2.085 7.823-2.591 9.166-5.806 1.044-2.499 1.162-3.833.404-4.59-.588-.588-1.069-2.28-1.069-3.76 0-2.1.603-2.844 2.74-3.38 4.735-1.188 5.793-4.53 1.435-4.53-4.235 0-8.917-5.901-7.536-9.5.37-.965 1.916-1.5 4.343-1.5 6.653 0 10.114-1.12 11.049-3.579 1.765-4.643 7.318-5.193 9.687-.96.654 1.17 1.548 1.235 4.793.353 6.584-1.788 10.57-1.432 12.644 1.129 4.336 5.355 1.34 8.435-9.862 10.141-4.942.752-8.41 1.78-8.718 2.583-.608 1.583 2.106 1.708 7.906.363 5.012-1.162 7.52.72 7.52 5.647 0 2.623-.554 3.619-2.508 4.509-2.372 1.08-2.416 1.242-.822 3.004 1.459 1.611 2.637 1.777 8.757 1.23 6.303-.562 7.372-.394 9.822 1.548 5.029 3.983 2.664 11.033-3.7 11.033-2.494 0-2.647.18-1.422 1.675.755.922 4.972 4.35 9.372 7.616 11.17 8.294 15.5 12.386 15.5 14.647 0 2.975-1.46 3.279-7.021 1.46-4.164-1.362-5.526-1.443-7.399-.44-1.935 1.035-2.953.892-6.483-.909-2.303-1.175-5.865-3.652-7.915-5.504l-3.728-3.368.023 13.161c.02 11.495-.236 13.604-2.028 16.653-1.483 2.526-3.005 3.686-5.5 4.196-1.897.387-4.642.998-6.1 1.356-2.166.533-2.781.244-3.359-1.575zm.26-12.08c2.119-.79 2.25-1.399 2.25-10.43 0-11.468-.83-13.659-4.748-12.52-7.497 2.182-10.252 3.931-10.252 6.51 0 2.794.605 2.944 6.435 1.592 4.798-1.113 7.565.12 7.565 3.372 0 3.338-2.068 4.636-8.43 5.293l-5.57.575v7.426l5.25-.49c2.888-.269 6.263-.867 7.5-1.328zm-4.869-28.445c4.002-.394 7.582-1.296 8.225-2.07.627-.756 1.984-1.373 3.017-1.373 1.032 0 1.877-.424 1.877-.941 0-1.41-2.24-2.54-4.5-2.27-15.875 1.908-26.258 5.673-20.294 7.36 1.262.356 2.81.5 3.442.32.631-.18 4.336-.642 8.233-1.026zm3.053-19.05c.238-.234-.067-.926-.677-1.537-1.465-1.464-5.87-.308-6.659 1.749-.532 1.388-.08 1.52 3.14.92 2.07-.387 3.957-.896 4.196-1.131z" fill="#7f7f7f"/><path d="M61.7 444.843c-29.463-5.06-51.804-25.014-58.85-52.56C.915 384.712.87 380.818.887 223.443.905 43.96.459 55.542 7.948 40.07c3.328-6.877 5.815-10.23 12.776-17.23 9.53-9.58 17.547-14.627 29.978-18.871l7.666-2.617h241l7.5 2.342c23.902 7.463 40.822 23.705 48.417 46.478 3.468 10.399 3.683 21.917 3.362 180.18-.354 175.106.348 159.529-7.96 176.5-3.325 6.793-5.884 10.223-12.742 17.083-7.127 7.129-10.192 9.374-18.08 13.245-17.93 8.799-6.663 8.118-137.497 8.302-63.8.09-118.1-.198-120.669-.64zm246.07-6.424c22.632-7.9 40.995-28.061 45.599-50.067 1.25-5.975 1.467-30.224 1.482-165.59.017-154.883-.03-158.772-1.965-166.342-5.196-20.316-18.27-36.12-37.328-45.12-15.662-7.396-6.893-6.948-136.19-6.948h-116l-7.955 2.303C35.32 12.473 19.366 25.623 10.895 43.352c-6.965 14.578-6.527 2.45-6.527 180.5v161.5l2.902 8.855c7.227 22.048 26.046 39.639 48.828 45.64 6.988 1.84 11.849 1.907 125.27 1.71l118-.205 8.401-2.933zm-145.402-55.214c-29.313-19.39-64.008-31.263-100.79-34.49-11.607-1.02-13.744-1.46-13.5-2.787 1.205-6.552 43.176-14.815 56.605-11.144 5.263 1.439 5.053 3.474-.392 3.81-8.48.522-26.486 2.528-26.106 2.908.22.22 4.405 1.049 9.3 1.84 11.06 1.79 29.247 6.473 40.981 10.555 11.59 4.032 31.57 13.637 39.328 18.905l6.126 4.16 7.224-4.502c10.187-6.347 34.564-17.936 45.224-21.5 7.567-2.53 20.893-5.312 37.5-7.828l3.5-.53-6.5-2.847c-17.598-7.708-19.706-9.903-9.51-9.903 7.906 0 17.674 3.018 31.264 9.659 7.125 3.482 9.395 5.087 9.87 6.978.34 1.35.353 2.72.03 3.042-.321.322-4.988.982-10.37 1.467-49.151 4.429-72.036 11.847-98.54 31.942-5.015 3.801-9.595 6.905-10.18 6.896-.585-.01-5.564-2.993-11.064-6.63zm8-17.801c-17.095-12.404-29.454-17.974-45.63-20.566l-7.63-1.222-.549-4.132c-.302-2.273-1.502-14.032-2.666-26.132-2.676-27.795-2.474-26.855-5.59-26.073-1.78.447-2.657.156-3.113-1.03-.77-2.01 1.94-4.312 9.978-8.473 9.096-4.71 13.149-5.092 29.2-2.757 20.148 2.932 34.175 2.243 54-2.652 18.847-4.653 31.253-5.515 43.5-3.021 12.223 2.489 19 5.192 19 7.578 0 1.701-.745 1.928-6.352 1.928h-6.351l-4.895 29.633c-4.337 26.257-5.123 29.722-6.898 30.406-1.102.425-7.13 2.414-13.396 4.421-16.533 5.297-25.266 10.067-38.923 21.262-3.542 2.903-6.72 5.257-7.062 5.23-.342-.025-3.323-2.006-6.623-4.4zm8.06-5.648c.372-.603-.029-1.802-.891-2.664-1.297-1.297-1.838-1.344-3.13-.273-1.407 1.168-1.387 1.428.2 2.633 2.173 1.648 2.951 1.71 3.82.304zm-9.56-8.912c0-.42-1.075-1.467-2.39-2.328-2.204-1.445-2.52-1.42-4.085.308-1.612 1.781-1.555 1.948 1.14 3.363 2.714 1.424 5.335.765 5.335-1.343zm20.5.544l3-2.455-3-2.48-3-2.48-3 2.997-3 2.996 2.361 1.943c2.967 2.442 3.022 2.438 6.64-.521zm-33.965-11.456l-2.57-2.57-2.399 2.995-2.4 2.995 3.167 1.703c3.062 1.647 3.227 1.633 4.97-.425 1.752-2.07 1.731-2.2-.768-4.698zm22.211-2.844l-2.121-2.265-3.231 3.132-3.232 3.132 2.67 2.344 2.668 2.345 2.684-3.212 2.683-3.212-2.12-2.264zm28.22-1.736c.029-.55-1.354-2.156-3.073-3.57l-3.125-2.568-4.346 4.569-4.347 4.569 3.713 3.178 3.712 3.177 3.708-4.177c2.039-2.298 3.73-4.628 3.759-5.178zm-62.166-4.672l-3.3-2.703-2.656 2.535-2.657 2.535 3.157 2.835 3.156 2.834 2.8-2.667 2.8-2.667-3.3-2.702zm22.936-2.547l-2.722-2.722-2.963 3.47-2.963 3.47 2.703 2.235 2.702 2.234 2.983-2.982 2.982-2.983-2.722-2.722zm62.764 5.749l3-1.172-3.5-2.902c-1.925-1.596-4.022-2.915-4.66-2.93-1.204-.027-6.34 5.55-6.34 6.884 0 2.488 5.298 2.543 11.5.12zm-39.937-4.672l3.804-4.643-2.35-1.902-2.35-1.903-4.381 4.295-4.382 4.295 2.798 2.245c1.54 1.235 2.857 2.247 2.928 2.25.071 0 1.841-2.084 3.933-4.637zm25.435-3.856c3.298-3.403 3.337-3.54 1.446-5.017-2.574-2.012-5.574-3.73-5.78-3.311-.09.185-1.5 1.812-3.135 3.617l-2.972 3.28 2.972 2.429c1.634 1.335 3.22 2.444 3.525 2.464.305.02 2.08-1.538 3.944-3.462zm-82.412.403c1.873-2.07 1.861-2.124-.969-4.558l-2.864-2.464-2.445 2.298-2.446 2.297 2.82 2.256c3.453 2.764 3.555 2.767 5.904.171zm22.357-1.155l2.914-3.25-2.103-2.25c-2.763-2.957-3.81-2.844-7.288.786l-2.909 3.035 2.972 2.429c1.634 1.335 3.09 2.444 3.235 2.464.146.02 1.576-1.427 3.179-3.214zm25.31-10.425c-1.514-1.24-3.036-2.27-3.382-2.29-.347-.02-2.261 1.955-4.255 4.389l-3.625 4.423 2.682 2.11 2.683 2.11 4.324-4.244 4.325-4.244-2.752-2.254zm54.122 6.55c.344-1.719.612-4.081.596-5.25-.026-1.907-.341-1.782-3.07 1.219-2.903 3.193-2.963 3.43-1.316 5.25 2.377 2.626 3.065 2.405 3.79-1.22zm-32.172-5.263c2.578-3.23 2.62-3.462.921-5-2.465-2.23-3.328-2.052-6.607 1.37-2.785 2.908-2.812 3.035-1.032 5 2.509 2.773 3.588 2.553 6.718-1.37zm-58.879-6.334l-2.786-2.222-3.327 3.222-3.326 3.222 2.691 2.317 2.691 2.316 3.422-3.316 3.422-3.317-2.787-2.222zm-20.866 5.79c.316-.511.118-1.213-.441-1.558-.56-.346-1.017.073-1.017.93 0 1.757.6 2.016 1.458.629zm45.775-9.804l-2.73-2.237-4.002 4.04-4 4.039 2.754 2.403 2.755 2.403 3.977-4.206 3.977-4.206-2.731-2.236zm57.802 1.478l-3.083-2.757-3.186 3.628-3.186 3.629 2.844 2.446 2.843 2.445 3.425-3.316 3.426-3.317-3.083-2.758zm-33.57-4.218c-2.46-1.893-6.136-1.13-8.565 1.778-1.802 2.158-1.786 2.239.88 4.433l2.716 2.235 3.468-3.467c3.38-3.38 3.418-3.505 1.502-4.98zm-60.584 3.099l3.273-3.377-3.1-2.207c-2.432-1.732-3.905-2.071-6.847-1.574-6.818 1.152-7.12 1.975-2.385 6.48 2.344 2.23 4.605 4.055 5.024 4.055.42 0 2.235-1.52 4.035-3.377zm82.437-7.946c-2.35-1.848-2.47-1.85-4.46-.05-3.895 3.526-4.37 5.54-1.797 7.623 2.326 1.883 2.328 1.882 5.5-1.895l3.171-3.778-2.414-1.9zm-59.883 5.39l2.809-2.931-3.709-.696c-2.762-.518-4.115-.288-5.305.901-1.462 1.462-1.441 1.768.242 3.628 2.373 2.621 2.625 2.583 5.963-.901zm81.88-2.623c.999-1.371 1.899-3.72 2-5.218.28-4.125-3.1-4.075-7.152.106l-3.306 3.41 2.707 2.129c3.36 2.643 3.525 2.63 5.751-.427zm-40.168-9.514c17.085-6.106 24.717-7.439 35.353-6.172 8.84 1.052 9.46.768 9.485-4.359l.015-3.1-9.034-.641c-11.69-.83-20.36.46-34.229 5.09-11.187 3.735-11.308 3.751-27.237 3.666-10.185-.055-19.362-.69-25.25-1.75-9.59-1.725-18.727-2.119-24.125-1.04-2.74.549-3.125 1.03-3.125 3.919 0 5.758.591 6.341 5.311 5.236 7.913-1.852 21.466-1.258 34.69 1.521 20.472 4.302 19.27 4.377 38.146-2.37zm27.853 1.57c1.063-1.281.771-1.5-2-1.5-2.77 0-3.063.219-2 1.5.685.825 1.585 1.5 2 1.5.416 0 1.316-.675 2-1.5zm34.221 17.132c6.583-6.45 9.361-10.06 12.125-15.75 5.844-12.034 6.55-24.896 2.17-39.55l-1.545-5.169-7.235 2.272c-3.98 1.25-12.636 4.103-19.236 6.34-14.562 4.938-22.615 6.04-27.929 3.819-2.06-.861-3.571-2.094-3.356-2.739.215-.645 4.6-3.72 9.746-6.831 12.118-7.33 20.598-14.33 27.505-22.704 8.164-9.897 10.034-14.26 10.034-23.399 0-6.687-.355-8.153-3.021-12.465-3.279-5.303-7.804-9.017-17.617-14.456-8.02-4.446-20.688-16.428-24.21-22.9-3.61-6.63-5.628-13.555-5.64-19.35-.019-7.794 3.087-5.826 11.439 7.25 4.35 6.81 15.833 18.263 27.556 27.484 11.423 8.985 17.873 15.449 20.518 20.564 2.502 4.839 3.046 13.83 1.169 19.338-1.616 4.742-10.731 18.984-18.292 28.578-2.369 3.006-4.215 5.54-4.104 5.631.111.092 5.391-1.541 11.734-3.63 17.803-5.862 22.817-6.685 28.11-4.616 2.397.937 5.593 2.793 7.102 4.124 2.917 2.573 7.756 9.228 7.756 10.666 0 1.48-4.313.902-8.946-1.2-2.446-1.11-6.1-2.389-8.12-2.843l-3.671-.825.507 17.69c.56 19.547-.017 22.828-6.041 34.307-3.647 6.95-8.63 11.644-16.67 15.702-10.897 5.501-11.402 4.034-1.838-5.338zM92.605 311.9c-9.81-6.222-14.174-16.928-14.214-34.874l-.023-10.325-9.5.325c-8.942.307-9.5.208-9.5-1.674 0-2.333 8.588-6.906 16.5-8.786 4.806-1.141 4.935-1.273 7.05-7.188 1.186-3.315 3.18-7.896 4.43-10.182l2.274-4.156-5.287-5.221c-9.659-9.539-12.57-17.747-10.584-29.843 2.407-14.663 9.714-24.185 26.513-34.55 5.283-3.259 9.597-6.184 9.589-6.5-.01-.316-.668-3.274-1.465-6.574-1.833-7.594-1.929-12.5-.242-12.5 2.835 0 5.748 3.365 7.812 9.025 1.198 3.286 2.49 5.975 2.872 5.975.381 0 4.912-1.83 10.068-4.066 14.473-6.278 31.741-11.934 36.431-11.934 3.125 0 5.33.79 8.39 3.006 2.282 1.653 4.15 3.403 4.15 3.888 0 .485-6.188 2.338-13.75 4.117-15.33 3.608-23.264 6.26-35.471 11.857l-8.28 3.796-.042 14.418c-.037 12.688-.321 15.124-2.372 20.302-1.878 4.743-2.206 6.94-1.689 11.336 1.254 10.667 4.018 13.313 20.175 19.306 5.865 2.176 12.167 4.885 14.003 6.02 5.66 3.498 12.266 11.68 13.915 17.232 2.447 8.24 1.643 17.158-1.378 15.291-.61-.378-2.907-4.449-5.101-9.047-4.962-10.396-8.193-13.17-21.634-18.572-12.428-4.995-18.61-8.798-23.698-14.578-2.117-2.405-4.674-4.372-5.682-4.372-1.029 0-2.817 1.59-4.074 3.625l-2.241 3.626 2.409 1.874c1.325 1.03 9.834 5.7 18.91 10.378 19.384 9.991 25.22 14.048 27.975 19.449 4.261 8.353 2.132 9.018-7.965 2.486-3.878-2.509-13.51-7.633-21.402-11.386-7.893-3.754-16.834-8.414-19.87-10.356l-5.519-3.53-3.11 6.746c-3.947 8.563-3.931 9.751.14 10.632 7.616 1.646 21.75 10.422 21.75 13.504 0 2.423.664 2.45-13.806-.548-6.636-1.375-12.32-2.5-12.63-2.5-1.335 0-.38 9.468 1.838 18.21 2.627 10.358 5.722 17.19 10.497 23.177 1.706 2.138 3.101 4.5 3.101 5.25 0 2.353-5.354 1.524-10.263-1.59zm11.845-103.524c7.368-14.69 9.172-22.1 7.762-31.878l-.844-5.854-6 4.618c-7.347 5.655-12.807 12.208-15.037 18.048-2.615 6.846-1.749 18.43 1.94 25.947 3.49 7.114 2.883 7.656 12.18-10.88zm78.418 56.877c0-7.388 6.053-14.244 22.82-25.847 20.8-14.394 25.764-20.586 16.462-20.532-6.749.039-15.253 4.907-29.782 17.048-11.06 9.241-15.289 11.93-18.767 11.93-2.936 0-2.977-.071-2.336-4.083 2.152-13.455 11.598-22.265 37.082-34.586l9.5-4.592-2.971-3.383c-1.634-1.861-3.69-4.776-4.57-6.478l-1.6-3.094-6.528.7c-10.534 1.127-22.31 5.811-22.31 8.873 0 .721 2.25 3.442 5 6.045 5.216 4.939 6.084 6.968 3.418 7.99-4.53 1.74-12.391-1.66-15.453-6.683-2.126-3.485-2.578-9.695-.931-12.772 2.376-4.44 16.626-8.886 28.587-8.92l6.12-.017.677-7.25c.816-8.753 2.284-13.75 4.037-13.75 2.861 0 4.053 3.434 4.653 13.402.461 7.672 1.258 11.696 3.316 16.749l2.71 6.65 7.924-.542 7.925-.544 1.509 3.61c2.924 7 1.185 14.988-5.04 23.15-1.453 1.904-9.46 8.086-17.796 13.738-8.336 5.652-18.804 13.767-23.262 18.032-4.459 4.265-8.621 7.755-9.25 7.755-.63 0-1.144-1.17-1.144-2.599zm-30.974-33.87c-7.618-7.693-12.625-10.016-20.048-9.303-4.499.432-5.274.21-7.018-2.006-4.299-5.466-.999-13.926 7.01-17.972 7.57-3.825 21.367-2.828 26.633 1.924 3.821 3.448 6.116 17.173 4.653 27.826-1.08 7.862-3.061 7.78-11.23-.469zm-1.215-20.242c-.56-2.844-3.56-3.969-5.475-2.053-1.603 1.602-1.596 1.818.107 3.7 1.423 1.573 2.222 1.778 3.743.964 1.064-.57 1.795-1.744 1.625-2.61zm-20.423-15.721c-1.556-4.054 5.776-13.815 15.002-19.972 7.42-4.953 17.852-2.653 14.698 3.24-2.688 5.022-19.333 16.463-25.847 17.766-2.474.494-3.357.258-3.853-1.034zm26.612.567c0-.476.838-1.939 1.863-3.25 10.044-12.862 7.166-26.697-5.452-26.209-4.455.173-8.302 1.82-15.09 6.464-6.771 4.632-8.326 3.275-3.83-3.34 1.665-2.452 4.662-4.735 9.049-6.894 5.515-2.716 7.706-3.235 13.76-3.262 12.527-.056 17.105 4.325 17.167 16.429.028 5.6-.393 7.217-2.847 10.925-4.135 6.248-8.58 10.002-11.843 10.002-1.527 0-2.777-.39-2.777-.865zm94.457-56.45c-.69-2.754-1.485-2.793-12.756-.613-2.64.51-5.434.928-6.21.928-2.568 0-3.716-7.1-3.346-20.69l.355-13.044-3.15 4.617c-3.042 4.455-11.365 12.263-18.1 16.978-5.8 4.06-3.95-.041 9.82-21.777 2.737-4.321 3.13-5.516 1.94-5.913-3.001-1.003-7.156-6.121-6.83-8.415.267-1.88 1.573-2.61 7.82-4.373 6.328-1.786 7.794-2.617 9.38-5.316 1.535-2.61 1.673-3.656.75-5.68-1.934-4.246-1.4-6.02 2.113-7.028 3.788-1.086 5.113-4.36 1.765-4.36-3.388 0-6.062-1.898-7.504-5.328-1.657-3.94-.48-5.667 3.869-5.682 7.15-.025 10.23-1.098 11.301-3.936 1.465-3.882 4.963-4.549 7.8-1.486 1.857 2.003 2.861 2.322 5.643 1.794 1.86-.354 4.16-1.04 5.11-1.525 2.372-1.211 8.404 1.425 9.232 4.035.359 1.13.164 2.965-.432 4.08-1.17 2.185-1.936 2.45-12.515 4.329-5.045.896-7.077 1.699-7.306 2.888-.272 1.415.217 1.522 3.489.763 6.365-1.478 10.121-1.143 11.27 1.003 2.054 3.838.615 8.031-3.197 9.314-.989.333-.95.811.177 2.176 1.242 1.504 2.505 1.656 9.014 1.08 7.172-.635 7.713-.537 10.305 1.865 4.983 4.617 2.543 10.604-4.342 10.658l-3.422.027 3.5 3.006c1.925 1.653 6.425 5.11 10 7.681 11.204 8.06 16.093 13.848 13.204 15.633-.438.27-3.438-.38-6.667-1.445-5.357-1.767-6.023-1.799-7.613-.36-1.564 1.416-2.04 1.422-4.667.064-1.609-.832-5.218-3.325-8.02-5.54l-5.094-4.027.55 10.717c.811 15.788-1.251 21.55-8.368 23.375-8.564 2.197-8.193 2.217-8.868-.473zm-2.207-11.182l4.75-.626-.015-10.689c-.008-5.878-.413-11.316-.899-12.084-.738-1.165-1.97-1.011-7.485.935-6.1 2.154-6.6 2.553-6.6 5.257 0 2.833.119 2.905 3.75 2.262 2.062-.366 4.461-.872 5.331-1.126 2.283-.664 5.243 2.97 4.45 5.465-.679 2.14-5.801 4.087-10.782 4.097-2.55.01-2.75.303-2.75 4.085 0 3.909.115 4.058 2.75 3.565 1.513-.284 4.888-.797 7.5-1.141zm-1.516-28.959c4.005-.442 7.741-1.412 8.372-2.172.627-.755 1.759-1.372 2.517-1.372 1.544 0 1.728-.9.56-2.738-.767-1.208-4.11-.827-20.183 2.303-3.137.611-6 2.736-6 4.454 0 .766 4.96.606 14.734-.475zm2.014-18.544c1.217 0 1.265-.28.252-1.5-1.495-1.802-5.137-1.963-6.8-.3-2.087 2.087-1.306 3.071 1.925 2.425 1.719-.344 3.8-.625 4.623-.625z" fill="#495547"/><path d="M60.368 444.405c-23.951-4.442-43.917-19.76-53.604-41.123C.577 389.637.899 399.498.883 223.262.869 66.279.918 61.975 2.837 54.475c3.207-12.539 9.175-22.853 18.716-32.343 6.986-6.948 9.854-8.99 18.54-13.195C57.665.43 50.367.852 179.76.852c97.836 0 114.994.214 121.158 1.51 26.468 5.568 47.79 25.267 55.146 50.949l2.303 8.04v161.5c0 151.929-.106 161.916-1.79 168.5-6.369 24.9-25.649 44.146-52.21 52.12-5.61 1.684-13.5 1.815-121.5 2.017-91.174.17-116.974-.058-122.5-1.083zm240.872-4.044c19.776-4.19 38.336-18.78 47.077-37.01 6.926-14.442 6.553-4.157 6.534-180.197-.02-177.184.422-165.967-7.136-181.302-5.913-11.998-17.832-23.873-29.847-29.736-17.087-8.338-6.886-7.764-138-7.764-108.683 0-116.97.12-123.5 1.79-24.373 6.234-43.645 24.953-50.225 48.782-1.666 6.033-1.775 16.338-1.775 167.928 0 176.612-.361 165.744 5.974 179.5 8.588 18.644 24.982 32.13 45.526 37.448 7.21 1.867 11.966 1.943 123 1.98 97.402.031 116.577-.191 122.372-1.419zm-139.372-57.646c-12.11-8.036-32.676-18.398-45.036-22.691-16.805-5.837-39.05-10.285-58.735-11.746-5.1-.378-9.552-1.14-9.894-1.694-1.05-1.7 3.765-4.513 12.504-7.303 14.874-4.75 35.71-6.793 44.473-4.36 4.806 1.335 4.313 3.359-.889 3.652-7.474.42-26.506 2.529-26.14 2.895.203.203 4.385 1.061 9.293 1.907 28.92 4.987 58.416 15.733 78.524 28.61 4.18 2.677 7.924 4.867 8.32 4.867.396 0 2.66-1.335 5.032-2.967 6.179-4.251 23.468-13.206 34.548-17.893 15.14-6.405 28.309-9.775 49.425-12.646l4.925-.67-10.425-4.527c-11.281-4.9-13.196-6.049-12.355-7.41 1.036-1.676 12.32-.91 19.025 1.292 8.931 2.931 26.59 11.883 27.872 14.13 1.715 3.002-1.605 4.393-12.248 5.132-45.032 3.125-71.398 11.872-98.14 32.558-4.265 3.3-8.166 5.963-8.667 5.917-.502-.046-5.637-3.22-11.412-7.053zm8.821-17.513c-18.063-12.787-29.8-18.062-45.463-20.432l-8.142-1.231-.564-4.594c-.31-2.526-1.505-14.493-2.655-26.593-2.573-27.078-2.525-26.823-4.825-25.592-1.13.604-2.308.602-3.226-.01-3.238-2.148 10.983-11.03 20.489-12.795 3.715-.69 8.038-.425 17.5 1.073 18.975 3.005 35.917 2.186 55.065-2.662 18.221-4.613 30.13-5.481 42.078-3.065 11.149 2.254 19.293 5.52 19.756 7.92.328 1.708-.212 1.837-6.112 1.461l-6.472-.412-4.694 28.54c-2.582 15.696-4.887 29.227-5.123 30.069-.27.966-4.94 2.93-12.68 5.334-16.568 5.143-26.344 10.112-38.436 19.534l-10.174 7.927-6.322-4.475zm7.96-5.6c.74-.904.386-1.727-1.28-2.972-2.015-1.507-2.455-1.538-3.524-.25-.963 1.16-.958 1.789.023 2.972 1.517 1.827 3.406 1.926 4.78.25zm-9.988-6.943c.924-.924.705-1.713-.974-3.5-2.55-2.714-4.082-2.9-5.897-.713-1.13 1.36-.964 1.87 1.128 3.478 2.872 2.207 4.112 2.366 5.743.735zm21.047-1.19l3.23-2.381-3.112-2.618c-1.711-1.44-3.487-2.618-3.946-2.618-.458 0-2.002 1.388-3.43 3.084l-2.595 3.085 2.257 1.882c2.944 2.456 3.742 2.41 7.596-.433zm-32.948-7.002l2.24-2.385-3.13-2.229-3.13-2.23-2.436 2.29c-3.093 2.905-3.056 3.538.314 5.367 3.596 1.95 3.539 1.958 6.142-.813zm20.99-1.992l3.272-3.377-3.152-2.245-3.153-2.245-2.88 3.372-2.88 3.372 2.705 2.245c1.489 1.235 2.73 2.247 2.76 2.25.03 0 1.527-1.515 3.327-3.372zm29.076-7.623c0-.275-1.752-1.739-3.892-3.253l-3.892-2.752-4.182 4.75-4.181 4.752 3.844 3.328 3.845 3.329 4.23-4.827c2.326-2.655 4.229-5.052 4.228-5.327zm-61.882 1.418l2.424-2.581-3.266-2.919c-1.796-1.605-3.63-2.918-4.075-2.918-.446 0-1.901 1.168-3.234 2.596l-2.425 2.597 3.462 2.903c1.905 1.597 3.739 2.904 4.076 2.904.338 0 1.705-1.162 3.038-2.582zm21.805-2.795l3.273-3.377-3.148-2.242-3.148-2.242-2.929 2.806c-1.61 1.543-2.929 3.212-2.929 3.709 0 .904 4.012 4.627 5.054 4.69.305.017 2.027-1.487 3.827-3.344zm60.87 1.102c2.337-.627 4.24-1.61 4.228-2.183-.032-1.558-8.029-6.923-8.815-5.914-.374.48-1.998 2.335-3.61 4.123-2.856 3.169-2.882 3.29-.992 4.722 1.066.809 2.613 1.228 3.438.93.825-.296 3.413-1.052 5.75-1.678zm-103.293-.656c.316-.512.118-1.214-.441-1.56-.56-.345-1.017.074-1.017.932 0 1.756.6 2.015 1.458.628zm65.5-4.525l4.372-4.456-2.415-2.011c-1.328-1.106-2.736-2.026-3.129-2.044-.392-.018-2.5 1.88-4.683 4.217l-3.97 4.25 2.108 2.25c1.16 1.237 2.386 2.25 2.725 2.25.34 0 2.586-2.005 4.991-4.456zm-57.64-3.353l2.69-2.81-3.09-2.284-3.09-2.284-2.424 2.277-2.425 2.278 2.698 2.816c1.483 1.549 2.754 2.816 2.823 2.816.07 0 1.337-1.264 2.817-2.81zm83.196-.798l2.751-3.607-2.882-2.357c-3.791-3.1-4.408-3.03-8.247.93l-3.257 3.36 3.137 2.64c4.117 3.465 5.214 3.34 8.498-.966zm-60.318-.08c3.489-3.343 3.45-4.215-.318-7.194l-3.011-2.382-3.501 3.382-3.501 3.38 3.28 2.75c1.804 1.513 3.497 2.75 3.763 2.75.265 0 1.745-1.208 3.288-2.686zm24.06-4.773l3.757-4.395-3.104-2.21-3.104-2.21-4.106 4.106-4.106 4.106 2.378 2.532c1.308 1.392 2.862 2.516 3.454 2.498.591-.018 2.766-2.01 4.832-4.427zm55.285-.29c.348-2.063.706-4.213.796-4.78.364-2.291-1.191-1.796-3.69 1.174-3.125 3.712-3.2 4.215-.897 5.964 2.644 2.007 3.104 1.72 3.791-2.358zm-29.572-7.696c-.017-.58-1.078-1.814-2.357-2.743-2.264-1.644-2.423-1.589-6.04 2.115l-3.714 3.804 2.821 2.07 2.821 2.07 3.25-3.131c1.788-1.722 3.236-3.606 3.219-4.185zm-61.241-3.281l-2.734-2.734-3.745 3.745-3.745 3.745 2.998 2.426 2.998 2.426 3.48-3.438 3.48-3.437-2.732-2.733zm-21.27 5.796c.316-.512.118-1.214-.441-1.559-.56-.345-1.017.073-1.017.93 0 1.757.6 2.016 1.458.629zm45.078-3.24l3.768-4.171-2.708-2.33c-1.489-1.28-3.04-2.328-3.449-2.328-.407 0-2.511 1.813-4.675 4.028l-3.933 4.029 2.98 2.435c1.64 1.34 3.266 2.452 3.615 2.472.348.02 2.33-1.841 4.402-4.135zm58.978.564l2.751-3.607-2.882-2.357c-1.586-1.296-3.132-2.373-3.437-2.393-.304-.02-2.094 1.553-3.976 3.496l-3.423 3.531 2.976 2.433c3.965 3.24 4.763 3.129 7.991-1.103zm-35.104-5.04c2.78-3.484 2.827-3.707 1.059-5-2.693-1.969-4.99-1.67-8.163 1.063l-2.806 2.416 2.425 2.584c3.183 3.393 4.025 3.274 7.485-1.063zm-59.592-1.665l3.21-3.313-2.478-2.328c-2.126-1.997-3.136-2.239-7.097-1.696-5.824.799-6.534 1.256-5.65 3.647.657 1.775 6.775 7.002 8.195 7.002.336 0 2.055-1.49 3.82-3.312zm24.96-5.243c-.34-.341-2.208-.978-4.149-1.416-2.87-.647-3.857-.434-5.28 1.139-1.684 1.86-1.637 2.028 1.2 4.323l2.951 2.387 2.949-2.907c1.622-1.599 2.67-3.186 2.33-3.526zm57.276 2.981l3.446-3.574-2.36-1.926c-3.093-2.523-3.188-2.503-7.102 1.535l-3.355 3.461 2.409 2.006c1.324 1.103 2.657 2.02 2.962 2.039.305.018 2.105-1.575 4-3.54zm24.608-7.73c.578-3.56.492-3.696-2.344-3.696-1.92 0-3.878.975-5.63 2.805-3.35 3.496-3.345 4.088.062 6.845l2.75 2.225 2.281-2.241c1.255-1.233 2.551-3.905 2.881-5.938zm-38.162 2.304c.34-.55-.083-1-.94-1-.858 0-1.56.45-1.56 1s.424 1 .941 1c.518 0 1.22-.45 1.56-1zm-5.326-6.595c16.873-6.234 26.012-7.898 36.194-6.587 4.473.576 8.432.74 8.798.365.366-.376.816-2.258 1-4.183l.334-3.5-9-.82c-11.53-1.05-20.797.3-35 5.099-10.948 3.699-11.075 3.716-27 3.63-10.267-.054-19.224-.679-25-1.743-9.307-1.716-18.942-2.128-24.375-1.041-2.814.563-3.123.985-3.11 4.25.024 5.537.804 6.183 6.01 4.977 8.022-1.86 20.657-1.312 33.975 1.47 20.532 4.291 20.347 4.3 37.174-1.917zm28.826 1.095c1.07-1.288.716-1.5-2.5-1.5-3.215 0-3.569.212-2.5 1.5.685.825 1.81 1.5 2.5 1.5s1.816-.675 2.5-1.5zm27 25.202c0-.283 3.151-3.557 7.003-7.275 12.489-12.057 17.135-22.153 17.222-37.427.044-7.72-2.365-21.313-4.118-23.23-.367-.402-9.203 2.135-19.637 5.637-21.942 7.365-28.233 8.472-34.317 6.037-2.284-.914-4.153-2.03-4.153-2.48 0-.45 2.588-2.276 5.75-4.058 17.594-9.917 33.351-24.416 39.155-36.032 3.423-6.849 4.061-13.919 1.906-21.11-1.715-5.724-8.498-12.707-16.722-17.216-19.843-10.876-31.443-25.82-32.835-42.298-.647-7.663.897-8.29 5.304-2.155 15.036 20.928 14.99 20.88 32.942 35.413 14.92 12.079 18.443 15.847 21.697 23.203 2.418 5.468 2.102 13.864-.731 19.377-2.737 5.325-11.866 18.774-17.419 25.662-2.771 3.437-4.644 6.25-4.162 6.25.483 0 3.824-1.11 7.425-2.465 10.898-4.102 26.544-7.785 30.175-7.104 1.804.338 5.13 1.956 7.394 3.596 3.892 2.82 10.121 10.28 10.121 12.123 0 1.474-3.57.928-8.623-1.32-2.682-1.193-6.527-2.476-8.544-2.85l-3.668-.681.566 16.732c.629 18.579.063 22.331-4.895 32.5-3.727 7.644-8.883 13.207-16.012 17.277-5.109 2.916-10.824 4.973-10.824 3.894zm-155.5-4.266c-4.854-2.51-11.23-9.38-13.412-14.453-2.627-6.107-4.342-17.332-3.921-25.657l.333-6.592-8.288.587c-9.006.638-11.212.246-11.212-1.993 0-1.657 13.42-8.197 18.517-9.025 2.836-.46 3.544-1.186 5.038-5.17.956-2.548 3.037-7.237 4.625-10.42l2.886-5.787-3.21-2.701c-1.766-1.486-5.125-5.302-7.465-8.481-5.603-7.61-7.08-13.932-5.46-23.352 2.476-14.394 8.627-22.883 23.57-32.527 4.95-3.195 9.822-6.385 10.829-7.09 1.736-1.215 1.749-1.625.25-8.09-1.986-8.561-2.04-12.685-.169-12.685 2.207 0 6.246 5.45 8.038 10.847l1.631 4.909 11.327-4.8c15.393-6.524 31.566-11.956 35.593-11.956 3.602 0 11.424 4.056 12.319 6.387.422 1.102-1.258 1.83-7.133 3.095-19.422 4.18-32.66 8.618-45.975 15.41l-4.217 2.152.583 11.228c.51 9.809.3 12.176-1.66 18.728-2.725 9.108-2.945 19.03-.536 24.107 1.972 4.157 5.85 6.553 17.63 10.897 4.628 1.706 10.592 4.288 13.255 5.737 8.312 4.524 14.953 13.52 16.328 22.12.753 4.711-.23 11.139-1.704 11.139-.56 0-2.747-3.713-4.859-8.25-4.967-10.673-9.35-14.893-19.55-18.82-12.611-4.857-21.337-9.877-25.202-14.5-4.624-5.533-8.017-7.158-9.84-4.712-3.933 5.28-4.063 6.372-1.045 8.779 1.568 1.25 8.083 4.836 14.479 7.969 20.685 10.133 30.587 17.274 33.066 23.849 2.33 6.181 1.053 6.15-8.981-.221-4.25-2.698-14.642-8.283-23.093-12.41-8.45-4.127-17.258-8.684-19.573-10.126l-4.208-2.621-1.652 3.194c-.908 1.757-2.444 5.498-3.413 8.314l-1.761 5.12 5.622 1.657c5.666 1.67 16.42 7.97 19.028 11.148 2.738 3.336-.081 3.9-9.026 1.803-4.61-1.08-10.294-2.276-12.632-2.656l-4.25-.693v4.13c0 5.826 2.763 18.5 5.501 25.24 1.276 3.14 4.15 8.265 6.387 11.389 2.237 3.124 3.826 6.07 3.53 6.549-.81 1.312-3.572 1.035-6.918-.696zm8.978-103.936c7.038-13.926 8.957-21.367 8.038-31.17-.377-4.032-.925-7.33-1.217-7.33-1.298 0-10.382 7.366-14.223 11.534-6.116 6.634-8.029 11.499-8.048 20.466-.019 8.45 1.208 13.931 4.225 18.87l2.058 3.37 1.804-2.37c.992-1.304 4.306-7.32 7.363-13.37zm78.522 55.95c0-2.87 2.143-7.432 5.67-12.073 1.306-1.718 8.641-7.503 16.302-12.857 16.44-11.49 22.028-16.403 22.028-19.366 0-1.868-.565-2.154-4.25-2.153-7.5 0-16.736 5.34-33.904 19.6-8.011 6.655-12.624 9.399-15.796 9.399-2.643 0-2.647-2.328-.016-9.36 3.948-10.552 11.669-17.057 32.934-27.746l12.072-6.068-2.059-2.663c-1.132-1.465-3.226-4.35-4.653-6.413-2.87-4.15-3.49-4.275-13.328-2.683-8.83 1.429-18 5.59-18 8.167 0 1.079 2.363 4.177 5.25 6.885 5.038 4.725 5.172 4.984 3.31 6.402-3.804 2.898-9.083 1.064-14.411-5.005-4.1-4.67-4.312-9.98-.574-14.422 3.326-3.953 12.978-7.025 24.49-7.794l8.565-.572 1.13-8.944c1.15-9.122 2.378-12.052 4.678-11.17 2.32.89 3.562 5.346 3.562 12.776 0 6.854 1.578 13.403 5.004 20.774 1.21 2.603 1.402 2.651 8.367 2.13 6.466-.483 7.315-.325 9.13 1.692 1.554 1.729 1.99 3.592 1.957 8.369-.074 10.927-4.834 16.77-24.408 29.963-7.452 5.022-17.493 12.856-22.313 17.407s-9.207 8.275-9.75 8.275c-.543 0-.987-1.147-.987-2.55zm-30.95-34.4c-7.75-7.735-12.045-9.593-20.332-8.797-4.257.41-5.029.168-6.853-2.146-4.214-5.346-.453-14.191 7.715-18.146 3.85-1.864 5.767-2.138 12.243-1.754 8.83.524 13.47 2.525 15.656 6.751 4.13 7.987 4.1 31.042-.04 31.042-.783 0-4.558-3.127-8.388-6.95zm-1.712-18.224c1.469-2.328.051-4.826-2.739-4.826-3.288 0-4.624 3.777-2.012 5.687 2.12 1.55 3.374 1.322 4.751-.86zm-19.95-17.258c-1.556-4.054 5.776-13.815 15.002-19.972 7.42-4.953 17.852-2.653 14.698 3.24-2.688 5.022-19.333 16.463-25.847 17.766-2.474.495-3.357.258-3.853-1.034zm26.612.567c0-.476.838-1.939 1.863-3.25 10.044-12.861 7.166-26.697-5.452-26.208-4.455.172-8.302 1.82-15.09 6.464-6.771 4.63-8.326 3.274-3.83-3.341 1.665-2.452 4.662-4.734 9.049-6.894 5.515-2.715 7.706-3.235 13.76-3.262 12.527-.056 17.105 4.325 17.167 16.429.028 5.6-.393 7.217-2.847 10.925-4.135 6.249-8.58 10.002-11.843 10.002-1.527 0-2.777-.39-2.777-.865zm94.457-56.45c-.69-2.754-1.485-2.792-12.756-.613-2.64.51-5.434.928-6.21.928-2.567 0-3.716-7.1-3.346-20.69l.355-13.044-3.15 4.617c-3.042 4.455-11.365 12.263-18.1 16.978-5.8 4.06-3.95-.041 9.82-21.777 2.737-4.32 3.13-5.516 1.94-5.913-3.001-1.003-7.156-6.121-6.83-8.415.267-1.88 1.573-2.61 7.82-4.373 6.328-1.786 7.794-2.617 9.38-5.316 1.535-2.61 1.673-3.656.75-5.68-1.934-4.246-1.4-6.02 2.113-7.028 3.788-1.086 5.113-4.36 1.765-4.36-3.388 0-6.062-1.898-7.504-5.328-1.657-3.94-.48-5.667 3.869-5.682 7.15-.025 10.23-1.098 11.301-3.936 1.465-3.882 4.963-4.548 7.8-1.486 1.857 2.003 2.861 2.322 5.643 1.794 1.86-.354 4.16-1.04 5.11-1.525 2.372-1.211 8.404 1.425 9.232 4.035.359 1.13.164 2.965-.432 4.08-1.17 2.185-1.936 2.45-12.515 4.329-5.045.896-7.077 1.7-7.306 2.888-.272 1.416.217 1.523 3.489.763 6.365-1.478 10.121-1.143 11.27 1.003 2.054 3.838.615 8.031-3.197 9.314-.989.333-.95.812.177 2.176 1.242 1.504 2.505 1.656 9.014 1.08 7.172-.635 7.713-.537 10.305 1.865 4.983 4.617 2.543 10.604-4.342 10.658l-3.422.027 3.5 3.006c1.925 1.653 6.425 5.11 10 7.682 11.204 8.059 16.093 13.847 13.204 15.632-.438.27-3.438-.38-6.667-1.445-5.357-1.767-6.023-1.799-7.613-.36-1.564 1.416-2.04 1.422-4.667.064-1.609-.832-5.218-3.325-8.02-5.54l-5.094-4.027.55 10.717c.811 15.788-1.251 21.55-8.368 23.375-8.564 2.197-8.193 2.217-8.868-.473zm-2.207-11.182l4.75-.626-.015-10.688c-.008-5.88-.413-11.317-.899-12.084-.738-1.166-1.97-1.012-7.485.934-6.1 2.154-6.6 2.553-6.6 5.257 0 2.833.119 2.905 3.75 2.262 2.062-.366 4.461-.872 5.331-1.126 2.283-.664 5.243 2.97 4.45 5.465-.679 2.14-5.801 4.087-10.782 4.097-2.55.01-2.75.303-2.75 4.085 0 3.909.116 4.058 2.75 3.565 1.513-.284 4.888-.797 7.5-1.141zm-1.516-28.958c4.005-.443 7.741-1.413 8.372-2.173.627-.754 1.76-1.372 2.517-1.372 1.544 0 1.728-.9.56-2.738-.767-1.208-4.11-.826-20.183 2.304-3.137.61-6 2.735-6 4.453 0 .766 4.96.606 14.734-.474zm2.014-18.545c1.217 0 1.265-.28.252-1.5-1.495-1.802-5.137-1.963-6.8-.3-2.087 2.088-1.306 3.071 1.925 2.425 1.719-.344 3.8-.625 4.623-.625z" fill="#871b20"/><path d="M60.368 444.405c-23.951-4.442-43.917-19.76-53.604-41.123C.577 389.637.899 399.498.883 223.262.869 66.279.918 61.975 2.837 54.475c3.207-12.539 9.175-22.853 18.716-32.343 6.986-6.948 9.854-8.99 18.54-13.195C57.665.43 50.367.852 179.76.852c97.836 0 114.994.214 121.158 1.51 26.468 5.568 47.79 25.267 55.146 50.949l2.303 8.04v161.5c0 151.929-.106 161.916-1.79 168.5-6.369 24.9-25.649 44.146-52.21 52.12-5.61 1.684-13.5 1.815-121.5 2.017-91.174.17-116.974-.058-122.5-1.083zm240.872-4.044c19.776-4.19 38.336-18.78 47.077-37.01 6.926-14.442 6.553-4.157 6.534-180.197-.02-177.184.422-165.967-7.136-181.302-5.913-11.998-17.832-23.873-29.847-29.736-17.087-8.338-6.886-7.764-138-7.764-108.683 0-116.97.12-123.5 1.79-24.373 6.234-43.645 24.953-50.225 48.782-1.666 6.033-1.775 16.338-1.775 167.928 0 176.612-.361 165.744 5.974 179.5 8.588 18.644 24.982 32.13 45.526 37.448 7.21 1.867 11.966 1.943 123 1.98 97.402.031 116.577-.191 122.372-1.419zm-139.372-57.646c-12.11-8.036-32.676-18.398-45.036-22.691-16.805-5.837-39.05-10.285-58.735-11.746-5.1-.378-9.552-1.14-9.894-1.694-1.05-1.7 3.765-4.513 12.504-7.303 14.874-4.75 35.71-6.793 44.473-4.36 4.806 1.335 4.313 3.359-.889 3.652-7.474.42-26.506 2.529-26.14 2.895.203.203 4.385 1.061 9.293 1.907 28.92 4.987 58.416 15.733 78.524 28.61 4.18 2.677 7.924 4.867 8.32 4.867.396 0 2.66-1.335 5.032-2.967 6.179-4.251 23.468-13.206 34.548-17.893 15.14-6.405 28.309-9.775 49.425-12.646l4.925-.67-10.425-4.527c-11.281-4.9-13.196-6.049-12.355-7.41 1.036-1.676 12.32-.91 19.025 1.292 8.931 2.931 26.59 11.883 27.872 14.13 1.715 3.002-1.605 4.393-12.248 5.132-45.032 3.125-71.398 11.872-98.14 32.558-4.265 3.3-8.166 5.963-8.667 5.917-.502-.046-5.637-3.22-11.412-7.053zm8.821-17.513c-18.063-12.787-29.8-18.062-45.463-20.432l-8.142-1.231-.564-4.594c-.31-2.526-1.505-14.493-2.655-26.593-2.573-27.078-2.525-26.823-4.825-25.592-1.13.604-2.308.602-3.226-.01-3.238-2.148 10.983-11.03 20.489-12.795 3.715-.69 8.038-.425 17.5 1.073 18.975 3.005 35.917 2.186 55.065-2.662 18.221-4.613 30.13-5.481 42.078-3.065 11.149 2.254 19.293 5.52 19.756 7.92.328 1.708-.212 1.837-6.112 1.461l-6.472-.412-4.694 28.54c-2.582 15.696-4.887 29.227-5.123 30.069-.27.966-4.94 2.93-12.68 5.334-16.568 5.143-26.344 10.112-38.436 19.534l-10.174 7.927-6.322-4.475zm7.96-5.6c.74-.904.386-1.727-1.28-2.972-2.015-1.507-2.455-1.538-3.524-.25-.963 1.16-.958 1.789.023 2.972 1.517 1.827 3.406 1.926 4.78.25zm-9.988-6.943c.924-.924.705-1.713-.974-3.5-2.55-2.714-4.082-2.9-5.897-.713-1.13 1.36-.964 1.87 1.128 3.478 2.872 2.207 4.112 2.366 5.743.735zm21.047-1.19l3.23-2.381-3.112-2.618c-1.711-1.44-3.487-2.618-3.946-2.618-.458 0-2.002 1.388-3.43 3.084l-2.595 3.085 2.257 1.882c2.944 2.456 3.742 2.41 7.596-.433zm-32.948-7.002l2.24-2.385-3.13-2.229-3.13-2.23-2.436 2.29c-3.093 2.905-3.056 3.538.314 5.367 3.596 1.95 3.539 1.958 6.142-.813zm20.99-1.992l3.272-3.377-3.152-2.245-3.153-2.245-2.88 3.372-2.88 3.372 2.705 2.245c1.489 1.235 2.73 2.247 2.76 2.25.03 0 1.527-1.515 3.327-3.372zm29.076-7.623c0-.275-1.752-1.739-3.892-3.253l-3.892-2.752-4.182 4.75-4.181 4.752 3.844 3.328 3.845 3.329 4.23-4.827c2.326-2.655 4.229-5.052 4.228-5.327zm-61.882 1.418l2.424-2.581-3.266-2.919c-1.796-1.605-3.63-2.918-4.075-2.918-.446 0-1.901 1.168-3.234 2.596l-2.425 2.597 3.462 2.903c1.905 1.597 3.739 2.904 4.076 2.904.338 0 1.705-1.162 3.038-2.582zm21.805-2.795l3.273-3.377-3.148-2.242-3.148-2.242-2.929 2.806c-1.61 1.543-2.929 3.212-2.929 3.709 0 .904 4.012 4.627 5.054 4.69.305.017 2.027-1.487 3.827-3.344zm60.87 1.102c2.337-.627 4.24-1.61 4.228-2.183-.032-1.558-8.029-6.923-8.815-5.914-.374.48-1.998 2.335-3.61 4.123-2.856 3.169-2.882 3.29-.992 4.722 1.066.809 2.613 1.228 3.438.93.825-.296 3.413-1.052 5.75-1.678zm-103.293-.656c.316-.512.118-1.214-.441-1.56-.56-.345-1.017.074-1.017.932 0 1.756.6 2.015 1.458.628zm65.5-4.525l4.372-4.456-2.415-2.011c-1.328-1.106-2.736-2.026-3.129-2.044-.392-.018-2.5 1.88-4.683 4.217l-3.97 4.25 2.108 2.25c1.16 1.237 2.386 2.25 2.725 2.25.34 0 2.586-2.005 4.991-4.456zm-57.64-3.353l2.69-2.81-3.09-2.284-3.09-2.284-2.424 2.277-2.425 2.278 2.698 2.816c1.483 1.549 2.754 2.816 2.823 2.816.07 0 1.337-1.264 2.817-2.81zm83.196-.798l2.751-3.607-2.882-2.357c-3.791-3.1-4.408-3.03-8.247.93l-3.257 3.36 3.137 2.64c4.117 3.465 5.214 3.34 8.498-.966zm-60.318-.08c3.489-3.343 3.45-4.215-.318-7.194l-3.011-2.382-3.501 3.382-3.501 3.38 3.28 2.75c1.804 1.513 3.497 2.75 3.763 2.75.265 0 1.745-1.208 3.288-2.686zm24.06-4.773l3.757-4.395-3.104-2.21-3.104-2.21-4.106 4.106-4.106 4.106 2.378 2.532c1.308 1.392 2.862 2.516 3.454 2.498.591-.018 2.766-2.01 4.832-4.427zm55.285-.29c.348-2.063.706-4.213.796-4.78.364-2.291-1.191-1.796-3.69 1.174-3.125 3.712-3.2 4.215-.897 5.964 2.644 2.007 3.104 1.72 3.791-2.358zm-29.572-7.696c-.017-.58-1.078-1.814-2.357-2.743-2.264-1.644-2.423-1.589-6.04 2.115l-3.714 3.804 2.821 2.07 2.821 2.07 3.25-3.131c1.788-1.722 3.236-3.606 3.219-4.185zm-61.241-3.281l-2.734-2.734-3.745 3.745-3.745 3.745 2.998 2.426 2.998 2.426 3.48-3.438 3.48-3.437-2.732-2.733zm-21.27 5.796c.316-.512.118-1.214-.441-1.559-.56-.345-1.017.073-1.017.93 0 1.757.6 2.016 1.458.629zm45.078-3.24l3.768-4.171-2.708-2.33c-1.489-1.28-3.04-2.328-3.449-2.328-.407 0-2.511 1.813-4.675 4.028l-3.933 4.029 2.98 2.435c1.64 1.34 3.266 2.452 3.615 2.472.348.02 2.33-1.841 4.402-4.135zm58.978.564l2.751-3.607-2.882-2.357c-1.586-1.296-3.132-2.373-3.437-2.393-.304-.02-2.094 1.553-3.976 3.496l-3.423 3.531 2.976 2.433c3.965 3.24 4.763 3.129 7.991-1.103zm-35.104-5.04c2.78-3.484 2.827-3.707 1.059-5-2.693-1.969-4.99-1.67-8.163 1.063l-2.806 2.416 2.425 2.584c3.183 3.393 4.025 3.274 7.485-1.063zm-59.592-1.665l3.21-3.313-2.478-2.328c-2.126-1.997-3.136-2.239-7.097-1.696-5.824.799-6.534 1.256-5.65 3.647.657 1.775 6.775 7.002 8.195 7.002.336 0 2.055-1.49 3.82-3.312zm24.96-5.243c-.34-.341-2.208-.978-4.149-1.416-2.87-.647-3.857-.434-5.28 1.139-1.684 1.86-1.637 2.028 1.2 4.323l2.951 2.387 2.949-2.907c1.622-1.599 2.67-3.186 2.33-3.526zm57.276 2.981l3.446-3.574-2.36-1.926c-3.093-2.523-3.188-2.503-7.102 1.535l-3.355 3.461 2.409 2.006c1.324 1.103 2.657 2.02 2.962 2.039.305.018 2.105-1.575 4-3.54zm24.608-7.73c.578-3.56.492-3.696-2.344-3.696-1.92 0-3.878.975-5.63 2.805-3.35 3.496-3.345 4.088.062 6.845l2.75 2.225 2.281-2.241c1.255-1.233 2.551-3.905 2.881-5.938zm-38.162 2.304c.34-.55-.083-1-.94-1-.858 0-1.56.45-1.56 1s.424 1 .941 1c.518 0 1.22-.45 1.56-1zm-5.326-6.595c16.873-6.234 26.012-7.898 36.194-6.587 4.473.576 8.432.74 8.798.365.366-.376.816-2.258 1-4.183l.334-3.5-9-.82c-11.53-1.05-20.797.3-35 5.099-10.948 3.699-11.075 3.716-27 3.63-10.267-.054-19.224-.679-25-1.743-9.307-1.716-18.942-2.128-24.375-1.041-2.814.563-3.123.985-3.11 4.25.024 5.537.804 6.183 6.01 4.977 8.022-1.86 20.657-1.312 33.975 1.47 20.532 4.291 20.347 4.3 37.174-1.917zm28.826 1.095c1.07-1.288.716-1.5-2.5-1.5-3.215 0-3.569.212-2.5 1.5.685.825 1.81 1.5 2.5 1.5s1.816-.675 2.5-1.5zm27 25.202c0-.283 3.151-3.557 7.003-7.275 12.489-12.057 17.135-22.153 17.222-37.427.044-7.72-2.365-21.313-4.118-23.23-.367-.402-9.203 2.135-19.637 5.637-21.942 7.365-28.233 8.472-34.317 6.037-2.284-.914-4.153-2.03-4.153-2.48 0-.45 2.588-2.276 5.75-4.058 17.594-9.917 33.351-24.416 39.155-36.032 3.423-6.849 4.061-13.919 1.906-21.11-1.715-5.724-8.498-12.707-16.722-17.216-19.843-10.876-31.443-25.82-32.835-42.298-.647-7.663.897-8.29 5.304-2.155 15.036 20.928 14.99 20.88 32.942 35.413 14.92 12.079 18.443 15.847 21.697 23.203 2.418 5.468 2.102 13.864-.731 19.377-2.737 5.325-11.866 18.774-17.419 25.662-2.771 3.437-4.644 6.25-4.162 6.25.483 0 3.824-1.11 7.425-2.465 10.898-4.102 26.544-7.785 30.175-7.104 1.804.338 5.13 1.956 7.394 3.596 3.892 2.82 10.121 10.28 10.121 12.123 0 1.474-3.57.928-8.623-1.32-2.682-1.193-6.527-2.476-8.544-2.85l-3.668-.681.566 16.732c.629 18.579.063 22.331-4.895 32.5-3.727 7.644-8.883 13.207-16.012 17.277-5.109 2.916-10.824 4.973-10.824 3.894zm-155.5-4.266c-4.854-2.51-11.23-9.38-13.412-14.453-2.627-6.107-4.342-17.332-3.921-25.657l.333-6.592-8.288.587c-9.006.638-11.212.246-11.212-1.993 0-1.657 13.42-8.197 18.517-9.025 2.836-.46 3.544-1.186 5.038-5.17.956-2.548 3.037-7.237 4.625-10.42l2.886-5.787-3.21-2.701c-1.766-1.486-5.125-5.302-7.465-8.481-5.603-7.61-7.08-13.932-5.46-23.352 2.476-14.394 8.627-22.883 23.57-32.527 4.95-3.195 9.822-6.385 10.829-7.09 1.736-1.215 1.749-1.625.25-8.09-1.986-8.561-2.04-12.685-.169-12.685 2.207 0 6.246 5.45 8.038 10.847l1.631 4.909 11.327-4.8c15.393-6.524 31.566-11.956 35.593-11.956 3.602 0 11.424 4.056 12.319 6.387.422 1.102-1.258 1.83-7.133 3.095-19.422 4.18-32.66 8.618-45.975 15.41l-4.217 2.152.583 11.228c.51 9.809.3 12.176-1.66 18.728-2.725 9.108-2.945 19.03-.536 24.107 1.972 4.157 5.85 6.553 17.63 10.897 4.628 1.706 10.592 4.288 13.255 5.737 8.312 4.524 14.953 13.52 16.328 22.12.753 4.711-.23 11.139-1.704 11.139-.56 0-2.747-3.713-4.859-8.25-4.967-10.673-9.35-14.893-19.55-18.82-12.611-4.857-21.337-9.877-25.202-14.5-4.624-5.533-8.017-7.158-9.84-4.712-3.933 5.28-4.063 6.372-1.045 8.779 1.568 1.25 8.083 4.836 14.479 7.969 20.685 10.133 30.587 17.274 33.066 23.849 2.33 6.181 1.053 6.15-8.981-.221-4.25-2.698-14.642-8.283-23.093-12.41-8.45-4.127-17.258-8.684-19.573-10.126l-4.208-2.621-1.652 3.194c-.908 1.757-2.444 5.498-3.413 8.314l-1.761 5.12 5.622 1.657c5.666 1.67 16.42 7.97 19.028 11.148 2.738 3.336-.081 3.9-9.026 1.803-4.61-1.08-10.294-2.276-12.632-2.656l-4.25-.693v4.13c0 5.826 2.763 18.5 5.501 25.24 1.276 3.14 4.15 8.265 6.387 11.389 2.237 3.124 3.826 6.07 3.53 6.549-.81 1.312-3.572 1.035-6.918-.696zm8.978-103.936c7.038-13.926 8.957-21.367 8.038-31.17-.377-4.032-.925-7.33-1.217-7.33-1.298 0-10.382 7.366-14.223 11.534-6.116 6.634-8.029 11.499-8.048 20.466-.019 8.45 1.208 13.931 4.225 18.87l2.058 3.37 1.804-2.37c.992-1.304 4.306-7.32 7.363-13.37zm78.522 55.95c0-2.87 2.143-7.432 5.67-12.073 1.306-1.718 8.641-7.503 16.302-12.857 16.44-11.49 22.028-16.403 22.028-19.366 0-1.868-.565-2.154-4.25-2.153-7.5 0-16.736 5.34-33.904 19.6-8.011 6.655-12.624 9.399-15.796 9.399-2.643 0-2.647-2.328-.016-9.36 3.948-10.552 11.669-17.057 32.934-27.746l12.072-6.068-2.059-2.663c-1.132-1.465-3.226-4.35-4.653-6.413-2.87-4.15-3.49-4.275-13.328-2.683-8.83 1.429-18 5.59-18 8.167 0 1.079 2.363 4.177 5.25 6.885 5.038 4.725 5.172 4.984 3.31 6.402-3.804 2.898-9.083 1.064-14.411-5.005-4.1-4.67-4.312-9.98-.574-14.422 3.326-3.953 12.978-7.025 24.49-7.794l8.565-.572 1.13-8.944c1.15-9.122 2.378-12.052 4.678-11.17 2.32.89 3.562 5.346 3.562 12.776 0 6.854 1.578 13.403 5.004 20.774 1.21 2.603 1.402 2.651 8.367 2.13 6.466-.483 7.315-.325 9.13 1.692 1.554 1.729 1.99 3.592 1.957 8.369-.074 10.927-4.834 16.77-24.408 29.963-7.452 5.022-17.493 12.856-22.313 17.407s-9.207 8.275-9.75 8.275c-.543 0-.987-1.147-.987-2.55zm-30.95-34.4c-7.75-7.735-12.045-9.593-20.332-8.797-4.257.41-5.029.168-6.853-2.146-4.214-5.346-.453-14.191 7.715-18.146 3.85-1.864 5.767-2.138 12.243-1.754 8.83.524 13.47 2.525 15.656 6.751 4.13 7.987 4.1 31.042-.04 31.042-.783 0-4.558-3.127-8.388-6.95zm-1.712-18.224c1.469-2.328.051-4.826-2.739-4.826-3.288 0-4.624 3.777-2.012 5.687 2.12 1.55 3.374 1.322 4.751-.86z" fill="#0e1f0b"/><path d="M60.368 444.405c-23.951-4.442-43.917-19.76-53.604-41.123C.577 389.637.899 399.498.883 223.262.869 66.279.918 61.975 2.837 54.475c3.207-12.539 9.175-22.853 18.716-32.343 6.986-6.948 9.854-8.99 18.54-13.195C57.665.43 50.367.852 179.76.852c97.836 0 114.994.214 121.158 1.51 26.468 5.568 47.79 25.267 55.146 50.949l2.303 8.04v161.5c0 151.929-.106 161.916-1.79 168.5-6.369 24.9-25.649 44.146-52.21 52.12-5.61 1.684-13.5 1.815-121.5 2.017-91.174.17-116.974-.058-122.5-1.083zm240.872-4.044c19.776-4.19 38.336-18.78 47.077-37.01 6.926-14.442 6.553-4.157 6.534-180.197-.02-177.184.422-165.967-7.136-181.302-5.913-11.998-17.832-23.873-29.847-29.736-17.087-8.338-6.886-7.764-138-7.764-108.683 0-116.97.12-123.5 1.79-24.373 6.234-43.645 24.953-50.225 48.782-1.666 6.033-1.775 16.338-1.775 167.928 0 176.612-.361 165.744 5.974 179.5 8.588 18.644 24.982 32.13 45.526 37.448 7.21 1.867 11.966 1.943 123 1.98 97.402.031 116.577-.191 122.372-1.419z"/></svg>