<svg xmlns="http://www.w3.org/2000/svg" width="358.835" height="445.473"><path d="M54.22 443.538c-24.957-6.579-44.507-25.57-52.019-50.533C.5 387.347.38 377.879.097 227.067-.152 93.838.031 65.781 1.192 59.053 5.934 31.578 25.602 10.577 54.34 2.307l8-2.302h117c111.27 0 117.343.092 124 1.876 21.871 5.862 38.788 19.27 48.1 38.124 7.844 15.884 7.363 3.984 7.383 182.684.02 179.24.512 167.205-7.523 183.56-8.088 16.463-23.108 29.332-41.96 35.948l-8 2.808-120 .205c-114.542.195-120.324.12-127.12-1.672zm243.988-3.477c21.015-4.02 39.033-17.197 48.525-35.486 8.173-15.747 7.492-.559 7.85-175.046.194-94.956-.056-158.822-.642-164.073-.528-4.728-1.926-11.49-3.107-15.024-5.35-16.024-18.575-30.784-34.45-38.45-16.35-7.897-10.169-7.578-140.544-7.26l-115.5.283-8 2.724C30.781 15.071 14.005 31.657 7.558 52.005l-2.218 7v329l2.68 7.334c8.468 23.185 27.106 39.307 51.487 44.537 10.144 2.176 227.414 2.345 238.701.185zm-119.61-71.71c-1.289-1.29-5.187-7.521-8.664-13.846-10.155-18.472-23.946-39.28-41.376-62.428-1.4-1.86-1.712-1.757-8.835 2.954-9.458 6.254-29.692 16.307-41.883 20.809-13.287 4.906-24.812 8.185-25.689 7.31-1.57-1.572 1.718-4.107 16.69-12.863 16.64-9.733 34.563-21.181 43.517-27.796l5.544-4.096-3.598-4.195c-4.328-5.046-3.148-5.724 4.629-2.659l5.392 2.126 8.758-9.028c4.816-4.966 8.744-9.39 8.727-9.831-.034-.932-40.347-41.99-46.827-47.694-4.728-4.161-8.542-11.466-9.667-18.51l-.703-4.402 4.617.632c5.348.734 10.473 3.166 16.074 7.632 2.18 1.738 4.655 2.95 5.5 2.694 5.258-1.595 54.64-19.966 55.108-20.5.315-.36.382-3.049.149-5.974-.313-3.936-.773-5.183-1.77-4.8-3.628 1.391-17.326 3.691-22.793 3.826-7.968.197-10.113-.59-12.608-4.627-3.474-5.62-3.059-6.017 7.7-7.341 5.363-.66 14.025-2.233 19.25-3.495l9.5-2.295.293-8.969c.37-11.348-.672-14.136-10.298-27.565-12.83-17.898-18.885-32.923-14.883-36.927 2.09-2.09 63.502 11.182 70.888 15.32 4.41 2.472 5.656 6.163 3.464 10.26-1.322 2.469-8.238 6.5-14.464 8.432-2.2.682-6.112 2.368-8.692 3.747-5.892 3.148-7.474 6.784-8.423 19.347l-.7 9.266 3.408-2.417c1.874-1.33 6.26-5.235 9.745-8.68 7.78-7.688 10.123-7.985 21.19-2.686 13.861 6.635 14.254 8.567 2.833 13.927-4.476 2.1-14.7 6.422-22.718 9.604-9.41 3.734-14.832 6.425-15.29 7.588-.392.992-.744 3.521-.783 5.621-.086 4.665-1.93 5.091 23.93-5.535 20.698-8.506 25.986-9.818 31.233-7.753 5.786 2.277 19.22 11.68 24.021 16.811 8.508 9.095 7.493 12.41-6.336 20.714-7.18 4.312-9.238 6.197-13.994 12.824-7.524 10.484-12.532 20.782-14.532 29.882-2.328 10.594-2.323 10.589-8.219 8.495-4.596-1.633-5.448-1.64-13.655-.118l-8.753 1.624 8.368 5.463c10.266 6.703 25.69 14.177 36.367 17.62 4.4 1.42 17.225 4.863 28.5 7.651 28.543 7.06 34.657 8.957 37.573 11.66 4.516 4.185 2.625 4.638-16.135 3.856-17.072-.711-17.372-.688-22.62 1.77-2.925 1.369-7.974 4.77-11.22 7.558-6.76 5.805-9.996 6.868-14.744 4.845-7.758-3.305-26.462-21.487-44.169-42.934-11.06-13.398-14.535-16.42-16.053-13.964-.762 1.233 1.255 28.591 2.965 40.214.85 5.775 3.581 20.625 6.07 33 6.683 33.223 6.483 43.623-.93 48.418-4.378 2.831-7.447 2.963-9.979.427zm-16.303-66.096c1.046-6.236 2.468-23.36 3.156-38 .848-18.068.15-18.623-8.005-6.366-3.068 4.611-8.77 11.802-12.672 15.98l-7.094 7.595 8.202 9.27c8.102 9.158 13.792 14.691 15.163 14.744.387.015.95-1.436 1.25-3.223zm3.792-66.75c.414 0 .753-4.95.753-11s-.251-11-.558-11c-.308 0-5.82 1.3-12.25 2.89s-12.965 3.182-14.52 3.539l-2.829.648 5.984 6.397c3.29 3.518 6.768 7.724 7.727 9.348l1.744 2.951 6.598-1.886c3.629-1.038 6.937-1.887 7.35-1.887zm31.753-8.064l7.5-1.106 2.348-5.356c1.29-2.946 4.281-8.645 6.646-12.665 2.364-4.02 4.18-7.436 4.037-7.592-.373-.402-17.28 3.396-28.78 6.465l-9.75 2.602v21.535l5.25-1.389c2.887-.763 8.624-1.885 12.75-2.494zm-53.646-19.48c7.762-2.5 16.033-5.029 18.38-5.62l4.266-1.074v-5.881c0-3.235-.112-5.881-.25-5.881-.137 0-4.525 1.508-9.75 3.352-5.225 1.843-15.93 5.1-23.79 7.238l-14.29 3.888 4.79 4.222c2.635 2.323 5.182 4.24 5.66 4.261.48.021 7.222-2.006 14.984-4.506zm46.251-17.239c6.42-5.074 8.658-6.222 12.08-6.195 3.403.026 9.769 2.818 15.645 6.86l4.336 2.984 2.167-4.46c2.712-5.581 2.723-7.594.057-10.001-1.823-1.646-3.623-1.893-13.25-1.818-9.086.072-12.8.59-20.14 2.812-4.95 1.498-9.42 3.14-9.935 3.647-.514.508-1.134 3.672-1.377 7.03l-.442 6.106 2.961-1.531c1.63-.842 5.183-3.287 7.898-5.434z" fill="#bfbfbf"/><path d="M54.952 443.46c-25.388-6.65-44.43-24.848-52.27-49.955l-2.342-7.5v-162.5C.34 90.687.586 60 1.686 55.505c.741-3.025 3.383-9.775 5.871-15 3.908-8.206 5.769-10.736 13.663-18.574 7.466-7.411 10.82-9.915 18.317-13.668C56.99-.473 48.873.005 179.84.005c115.207 0 115.52.005 123.589 2.16 25.287 6.757 44.11 24.008 52.197 47.84l2.714 8v329l-2.332 7.5c-3.721 11.97-8.457 19.499-18.649 29.647-7.82 7.785-10.589 9.82-18.603 13.665-16.915 8.118-9.144 7.695-140.113 7.633-111.687-.053-116.596-.132-123.691-1.99zm243.256-3.399c21.015-4.02 39.033-17.197 48.525-35.486 8.173-15.747 7.492-.559 7.85-175.046.194-94.956-.056-158.822-.642-164.073-.528-4.728-1.926-11.49-3.107-15.024-5.35-16.024-18.575-30.784-34.45-38.45-16.35-7.897-10.169-7.578-140.544-7.26l-115.5.283-8 2.724C30.781 15.071 14.005 31.657 7.558 52.005l-2.218 7v329l2.68 7.334c8.468 23.185 27.106 39.307 51.487 44.537 10.144 2.176 227.414 2.345 238.701.185zm-119.61-71.71c-1.289-1.29-5.187-7.521-8.664-13.846-10.155-18.472-23.946-39.28-41.376-62.428-1.4-1.86-1.712-1.757-8.835 2.954-9.458 6.254-29.692 16.307-41.883 20.809-13.287 4.906-24.812 8.185-25.689 7.31-1.57-1.572 1.718-4.107 16.69-12.863 16.64-9.733 34.563-21.181 43.517-27.796l5.544-4.096-3.598-4.195c-4.328-5.046-3.148-5.724 4.629-2.659l5.392 2.126 8.758-9.028c4.816-4.966 8.744-9.39 8.727-9.831-.034-.932-40.347-41.99-46.827-47.694-4.728-4.161-8.542-11.466-9.667-18.51l-.703-4.402 4.617.632c5.348.734 10.473 3.166 16.074 7.632 2.18 1.738 4.655 2.95 5.5 2.694 5.258-1.595 54.64-19.966 55.108-20.5.315-.36.382-3.049.149-5.974-.313-3.936-.773-5.183-1.77-4.8-3.628 1.391-17.326 3.691-22.793 3.826-7.968.197-10.113-.59-12.608-4.627-3.474-5.62-3.059-6.017 7.7-7.341 5.363-.66 14.025-2.233 19.25-3.495l9.5-2.295.293-8.969c.37-11.348-.672-14.136-10.298-27.565-12.83-17.898-18.885-32.923-14.883-36.927 2.09-2.09 63.502 11.182 70.888 15.32 4.41 2.472 5.656 6.163 3.464 10.26-1.322 2.469-8.238 6.5-14.464 8.432-2.2.682-6.112 2.368-8.692 3.747-5.892 3.148-7.474 6.784-8.423 19.347l-.7 9.266 3.408-2.417c1.874-1.33 6.26-5.235 9.745-8.68 7.78-7.688 10.123-7.985 21.19-2.686 13.861 6.635 14.254 8.567 2.833 13.927-4.476 2.1-14.7 6.422-22.718 9.604-9.41 3.734-14.832 6.425-15.29 7.588-.392.992-.744 3.521-.783 5.621-.086 4.665-1.93 5.091 23.93-5.535 20.698-8.506 25.986-9.818 31.233-7.753 5.786 2.277 19.22 11.68 24.021 16.811 8.508 9.095 7.493 12.41-6.336 20.714-7.18 4.312-9.238 6.197-13.994 12.824-7.524 10.484-12.532 20.782-14.532 29.882-2.328 10.594-2.323 10.589-8.219 8.495-4.596-1.633-5.448-1.64-13.655-.118l-8.753 1.624 8.368 5.463c10.266 6.703 25.69 14.177 36.367 17.62 4.4 1.42 17.225 4.863 28.5 7.651 28.543 7.06 34.657 8.957 37.573 11.66 4.516 4.185 2.625 4.638-16.135 3.856-17.072-.711-17.372-.688-22.62 1.77-2.925 1.369-7.974 4.77-11.22 7.558-6.76 5.805-9.996 6.868-14.744 4.845-7.758-3.305-26.462-21.487-44.169-42.934-11.06-13.398-14.535-16.42-16.053-13.964-.762 1.233 1.255 28.591 2.965 40.214.85 5.775 3.581 20.625 6.07 33 6.683 33.223 6.483 43.623-.93 48.418-4.378 2.831-7.447 2.963-9.979.427zm-16.303-66.096c1.046-6.236 2.468-23.36 3.156-38 .848-18.068.15-18.623-8.005-6.366-3.068 4.611-8.77 11.802-12.672 15.98l-7.094 7.595 8.202 9.27c8.102 9.158 13.792 14.691 15.163 14.744.387.015.95-1.436 1.25-3.223zm3.792-66.75c.414 0 .753-4.95.753-11s-.251-11-.558-11c-.308 0-5.82 1.3-12.25 2.89s-12.965 3.182-14.52 3.539l-2.829.648 5.984 6.397c3.29 3.518 6.768 7.724 7.727 9.348l1.744 2.951 6.598-1.886c3.629-1.038 6.937-1.887 7.35-1.887zm31.753-8.064l7.5-1.106 2.348-5.356c1.29-2.946 4.281-8.645 6.646-12.665 2.364-4.02 4.18-7.436 4.037-7.592-.373-.402-17.28 3.396-28.78 6.465l-9.75 2.602v21.535l5.25-1.389c2.887-.763 8.624-1.885 12.75-2.494zm-53.646-19.48c7.762-2.5 16.033-5.029 18.38-5.62l4.266-1.074v-5.881c0-3.235-.112-5.881-.25-5.881-.137 0-4.525 1.508-9.75 3.352-5.225 1.843-15.93 5.1-23.79 7.238l-14.29 3.888 4.79 4.222c2.635 2.323 5.182 4.24 5.66 4.261.48.021 7.222-2.006 14.984-4.506zm46.251-17.239c6.42-5.074 8.658-6.222 12.08-6.195 3.403.026 9.769 2.818 15.645 6.86l4.336 2.984 2.167-4.46c2.712-5.581 2.723-7.594.057-10.001-1.823-1.646-3.623-1.893-13.25-1.818-9.086.072-12.8.59-20.14 2.812-4.95 1.498-9.42 3.14-9.935 3.647-.514.508-1.134 3.672-1.377 7.03l-.442 6.106 2.961-1.531c1.63-.842 5.183-3.287 7.898-5.434z" fill="#bebebe"/><path d="M54.952 443.46c-25.388-6.65-44.43-24.848-52.27-49.955l-2.342-7.5v-162.5C.34 90.687.586 60 1.686 55.505c.741-3.025 3.383-9.775 5.871-15 3.908-8.206 5.769-10.736 13.663-18.574 7.466-7.411 10.82-9.915 18.317-13.668C56.99-.473 48.873.005 179.84.005c115.207 0 115.52.005 123.589 2.16 25.287 6.757 44.11 24.008 52.197 47.84l2.714 8v329l-2.332 7.5c-3.721 11.97-8.457 19.499-18.649 29.647-7.82 7.785-10.589 9.82-18.603 13.665-16.915 8.118-9.144 7.695-140.113 7.633-111.687-.053-116.596-.132-123.691-1.99zm248.888-4.207c24.453-7.493 41.877-24.75 48.716-48.248 1.623-5.574 1.77-17.02 2.063-161 .208-102.065-.037-158.302-.718-164.669-2.95-27.566-19.514-48.031-46.56-57.524l-8-2.807-116.808-.274C68.088 4.462 65.553 4.498 57.171 6.489c-23.152 5.498-40.676 21.297-49.626 44.74L5.34 57.005l-.28 162.5c-.254 146.245-.121 163.229 1.326 169.787 5.67 25.71 28.156 46.557 55.217 51.194 2.606.446 56.937.73 120.737.632 105.623-.163 116.492-.33 121.5-1.865zm-124.906-71.452c-1.673-1.538-6.247-8.646-10.166-15.796-10.7-19.526-39.298-61.5-41.9-61.5-.54 0-4.029 2.065-7.754 4.588-17.557 11.893-63.362 30.723-66.676 27.41-1.429-1.429-.847-1.851 15.902-11.55 12.753-7.384 41.673-26.043 47.897-30.903 1.827-1.426 1.76-1.648-1.817-6.013-4.179-5.1-3.795-5.366 3.66-2.533 2.893 1.1 5.631 2 6.084 2 1.342.001 12.272-10.808 15.196-15.028l2.7-3.897-17.445-18.523c-9.595-10.187-21.083-21.671-25.53-25.52-8.412-7.281-12.218-13.21-13.666-21.294-.536-2.991-.335-3.894.982-4.399 2.757-1.058 11.61 2.388 17.342 6.75 4.59 3.494 5.808 3.985 8.088 3.262 1.476-.468 14.412-5.125 28.745-10.35l26.061-9.5-.536-5.5c-.296-3.025-.587-5.568-.649-5.652-.062-.083-3.937.702-8.612 1.746-12.108 2.702-22.309 2.841-25.07.343-2.12-1.92-4.93-6.576-4.93-8.17 0-.459 4.644-1.385 10.32-2.06 5.676-.674 14.338-2.234 19.25-3.466l8.93-2.241.287-9.774c.322-10.992-.829-14.764-6.933-22.726-6.628-8.648-12.035-17.174-15.414-24.31-4.531-9.566-5.09-12.683-2.772-15.466l1.832-2.201 19 3.903c39.046 8.02 48.52 10.58 52.343 14.142 5.56 5.18.232 11.906-13.31 16.806-14.882 5.385-16.058 6.936-17.162 22.648l-.683 9.715 2.265-1.212c1.245-.667 5.815-4.604 10.155-8.75 7.63-7.29 8.022-7.521 11.888-7.003 4.341.583 15.049 5.412 18.91 8.53 1.566 1.263 2.183 2.523 1.767 3.608-.75 1.953-11.663 7.114-31.04 14.677-14.887 5.811-15.633 6.454-15.633 13.478 0 1.889.42 3.435.931 3.435.513 0 8.275-2.984 17.25-6.63 31.821-12.928 31.234-12.793 39.32-9.014 6.45 3.015 20.463 13.596 23.8 17.972 4.362 5.719 4.464 8.214.49 11.963-1.892 1.783-6.19 4.709-9.552 6.5-7.328 3.906-11.987 8.993-18.953 20.695-5.717 9.603-7.315 13.546-9.7 23.932-.875 3.806-1.824 7.153-2.11 7.44-.287.286-2.662-.25-5.278-1.19-4.43-1.593-5.335-1.6-13.227-.104-4.659.883-8.603 1.737-8.764 1.897-.535.532 15.178 10.217 22.766 14.031 13.222 6.648 23.961 10.187 51.527 16.984 14.85 3.662 28.8 7.462 31 8.446 4.535 2.026 8.15 5.558 6.642 6.49-.543.335-9.235.493-19.315.349-20.846-.297-22.098.044-32.374 8.823-6.974 5.958-10.296 7.06-14.62 4.848-9.529-4.875-25.6-20.599-44.741-43.777-8.923-10.805-11.793-13.655-13.745-13.655-2.433 0-2.46.096-1.934 6.75.293 3.712.795 10.8 1.115 15.75.801 12.4 2.769 25.167 7.938 51.5 6.938 35.345 6.975 42.321.253 47.357-5.248 3.93-7.185 4.102-10.625.939zm-16.722-64.644c.889-3.54 3.628-38.827 3.628-46.731 0-5.403-.32-6.921-1.46-6.921-1.756 0-2.396.732-7.554 8.64-2.203 3.377-7.403 10.028-11.557 14.779l-7.552 8.638 8.097 9.412c7.984 9.281 13.401 14.53 14.994 14.53.449 0 1.08-1.056 1.404-2.347zm-1.57-66.177l6.198-1.739v-10.868c0-5.978-.185-10.868-.411-10.868-.573 0-21.268 4.872-25.841 6.084l-3.753.994 6.405 7.344c3.522 4.038 6.933 8.33 7.579 9.538.646 1.207 1.726 1.983 2.4 1.724.675-.258 4.015-1.253 7.424-2.209zm33.948-8.776c10.985-2.116 11.273-2.24 12.277-5.28.565-1.713 3.5-7.298 6.522-12.412 3.022-5.114 5.32-9.472 5.106-9.685-.553-.553-18.49 3.336-29.405 6.375l-9.25 2.576v10.97c0 10.038.149 10.913 1.75 10.296.963-.37 6.812-1.649 13-2.84zm-46.097-21.421l18.347-5.722v-5.778c0-3.178-.212-5.778-.471-5.778-.26 0-3.972 1.273-8.25 2.83-4.278 1.557-14.88 4.788-23.56 7.18l-15.781 4.35 4.24 4.32c2.33 2.376 4.889 4.32 5.683 4.32.795 0 9.701-2.575 19.792-5.722zm43.526-16.898c9.021-6.992 13.508-6.87 24.261.663 3.107 2.176 5.876 3.957 6.153 3.957 1.013 0 4.364-8.577 4.385-11.225.058-7.246-16.845-7.936-38.298-1.564-7.637 2.269-8.68 3.636-8.68 11.38v4.46l3.25-1.634c1.788-.899 5.806-3.615 8.93-6.037z" fill="#7f7f7f"/><path d="M58.84 444.003c-25.897-5.348-45.797-22.31-54.415-46.38l-3.085-8.618v-332l2.326-7c6.547-19.71 21.91-36.25 40.792-43.923C58.68.302 55.786.414 182.84.735c130.424.33 120.294-.244 136.5 7.722 18.375 9.032 31.565 25.349 37.223 46.048 1.669 6.103 1.777 16.39 1.777 168.5 0 181.984.64 166.533-7.588 183.318-6.838 13.953-20.814 26.998-35.282 32.935-14.8 6.072-5.54 5.663-133.13 5.884-94.605.164-118.244-.054-123.5-1.14zm242.936-4.1c14.01-3.419 28.63-12.577 37.86-23.715 5.837-7.044 11.927-19.654 13.74-28.455 1.303-6.316 1.464-28.365 1.232-168l-.268-160.728-2.823-8c-7.898-22.384-24.63-37.857-48.378-44.74l-7.799-2.26h-115.5c-130.04 0-121.23-.494-138 7.734-6.898 3.385-10.2 5.876-17.521 13.218-9.85 9.88-13.813 16.292-17.638 28.548l-2.34 7.5v324l2.33 7.5c3.251 10.455 8.255 18.993 15.854 27.049 9.707 10.29 19.789 16.246 33.815 19.978 6.63 1.764 13.124 1.865 122.936 1.918 103.055.048 116.666-.123 122.5-1.547zM178.16 367.255c-1.117-1.238-5.435-8.398-9.597-15.91-8.218-14.836-20.864-34.165-33.404-51.054l-7.954-10.713-4.932 3.306c-14.87 9.969-33.108 18.722-53.5 25.676-12.07 4.117-17.255 4.95-16.365 2.631.277-.723 7.109-5.084 15.182-9.692 15.486-8.84 50.251-31.583 50.251-32.874 0-.418-1.659-2.698-3.686-5.067-4.022-4.699-3.681-4.806 4.558-1.434 1.855.76 4.144 1.38 5.086 1.38 1.773 0 13.34-11.4 16.49-16.255l1.79-2.755-13.87-14.542c-7.627-7.999-14.918-15.845-16.202-17.438-1.284-1.592-6.385-6.388-11.337-10.657-9.724-8.384-13.398-13.927-14.485-21.859l-.616-4.493 3.386.022c4.311.028 11.12 3.109 16.362 7.404l4.09 3.352 8.967-3.386c4.932-1.862 17.855-6.596 28.717-10.52l19.75-7.135v-5.868c0-4.036-.39-5.865-1.25-5.856-.687.007-5.525.901-10.75 1.987-11.614 2.413-19.742 2.57-22.783.439-2.37-1.66-5.714-7.276-4.847-8.142.284-.285 4.382-.942 9.107-1.461 4.724-.52 13.412-2.157 19.306-3.64l10.717-2.696-.039-10c-.045-11.676-.786-13.514-10.997-27.299-8.459-11.418-14.6-23.553-15.228-30.094-.401-4.178-.18-5.191 1.25-5.74 3.379-1.297 61.984 11.39 69.842 15.118 4.283 2.033 5.46 5.1 3.512 9.16-1.56 3.252-6.887 6.496-15.34 9.341-7.987 2.689-12.08 5.3-13.939 8.895-1.498 2.898-4.168 21.845-3.213 22.8.978.977 5.316-2.194 12.944-9.46 7.398-7.046 8.035-7.43 11.425-6.88 7.13 1.157 21.283 8.947 21.283 11.713 0 1.428-8.965 5.691-28.5 13.553l-18 7.243-.298 6.08-.298 6.078 4.798-1.894c2.64-1.041 12.894-5.165 22.788-9.164 11.356-4.589 19.47-7.296 22-7.342 10.054-.18 34.51 18.341 34.51 26.136 0 4.122-1.826 6.102-9.952 10.789-4.34 2.503-9.524 6.358-11.519 8.566-8.362 9.256-16.446 24.807-19.04 36.63-1.764 8.036-1.867 8.215-4.398 7.611-1.425-.34-3.66-1.16-4.965-1.822-1.908-.968-4.03-.866-10.794.516-4.631.946-8.676 1.977-8.99 2.29-.707.707 11.068 8.38 20.843 13.58 12.71 6.762 24.513 10.74 53.386 17.995 15.438 3.879 29.65 7.712 31.58 8.519 3.815 1.594 6.532 4.232 5.461 5.303-.37.37-5.271.522-10.892.338-26.93-.882-27.779-.685-40.193 9.32-8.697 7.01-11.542 7.295-19.54 1.962-7.69-5.127-26.396-24.276-39.897-40.841-6.276-7.7-11.788-13.955-12.25-13.9-.462.055-1.582.167-2.49.25-1.48.134-1.579 1.513-.967 13.4.857 16.662 3.456 34.711 8.678 60.256 4.87 23.823 6.114 39.32 3.554 44.271-3.058 5.915-10.643 8.022-14.296 3.973zm-15.952-62.535c1.353-2.19 5.206-53.48 4.146-55.194-1.29-2.086-4.6.946-10.348 9.479-3.335 4.95-8.899 12.015-12.364 15.7l-6.3 6.7 3 3.385c17.762 20.046 20.341 22.397 21.866 19.93zm-2.452-67.181c3.529-1.073 6.784-2.532 7.235-3.243.884-1.392 1.185-20.123.338-20.97-.45-.45-29.357 6.055-30.384 6.836-.218.166 1.44 2.294 3.685 4.73 2.244 2.434 5.727 6.718 7.74 9.52 2.012 2.8 3.954 5.09 4.315 5.085.36-.004 3.543-.885 7.071-1.958zm32.405-8.535c3.949-.786 8.479-1.557 10.066-1.714 2.564-.253 3.46-1.404 8.012-10.285 2.82-5.5 5.908-11.113 6.864-12.473.956-1.36 1.738-2.978 1.738-3.596 0-1.19-14.114 1.581-30.04 5.898l-8.46 2.293-.887 6.53c-.489 3.59-.567 8.666-.176 11.278.667 4.444.873 4.709 3.207 4.123 1.372-.345 5.726-1.269 9.676-2.054zm-24.32-33.697c0-6.71-.054-6.733-8.593-3.714-3.249 1.148-13.505 4.284-22.79 6.967-9.287 2.683-17.056 5.05-17.266 5.26-.21.21 1.814 2.436 4.497 4.946l4.88 4.564 19.636-6.11 19.636-6.112v-5.801zm18.637-1.253c2.675-1.897 6.616-4.7 8.759-6.229 2.655-1.894 5.048-2.749 7.518-2.684 4.017.105 12.174 3.884 16.815 7.79l3.015 2.536 2.675-5.96c3.242-7.226 2.62-9.058-3.924-11.557-5.66-2.162-14.073-1.537-27.982 2.077-13.83 3.593-13.513 3.335-13.513 11.013 0 3.555.4 6.465.887 6.465.488 0 3.075-1.553 5.75-3.45z" fill="#404040"/><path d="M61.078 444.408c-28.267-4.784-51.405-25.685-58.306-52.67C.902 384.427.84 379.016.84 223.005.84 67.05.903 61.58 2.77 54.279 8.956 30.093 26.566 12.001 52.34 3.353l7-2.348 116.5-.282C277.488.477 293.313.637 299.973 1.979c15.084 3.041 27.035 9.493 37.867 20.444 12.09 12.221 18.195 24.962 20.088 41.923.602 5.392.85 68.068.652 164.682-.297 144.937-.443 156.436-2.073 162.461-5.476 20.252-19.106 36.702-38.167 46.066-16.205 7.96-6.102 7.397-136 7.58-64.113.09-118.354-.235-121.262-.727zm240.698-4.505c14.01-3.419 28.63-12.577 37.86-23.715 5.837-7.044 11.927-19.654 13.74-28.455 1.303-6.316 1.464-28.365 1.232-168l-.268-160.728-2.823-8c-7.898-22.384-24.63-37.857-48.378-44.74l-7.799-2.26h-115.5c-130.04 0-121.23-.494-138 7.734-6.898 3.385-10.2 5.876-17.521 13.218-9.85 9.88-13.813 16.292-17.638 28.548l-2.34 7.5v324l2.33 7.5c3.251 10.455 8.255 18.993 15.854 27.049 9.707 10.29 19.789 16.246 33.815 19.978 6.63 1.764 13.124 1.865 122.936 1.918 103.055.048 116.666-.123 122.5-1.547zM178.16 367.255c-1.117-1.238-5.435-8.398-9.597-15.91-8.218-14.836-20.864-34.165-33.404-51.054l-7.954-10.713-4.932 3.306c-14.87 9.969-33.108 18.722-53.5 25.676-12.07 4.117-17.255 4.95-16.365 2.631.277-.723 7.109-5.084 15.182-9.692 15.486-8.84 50.251-31.583 50.251-32.874 0-.418-1.659-2.698-3.686-5.067-4.022-4.699-3.681-4.806 4.558-1.434 1.855.76 4.144 1.38 5.086 1.38 1.773 0 13.34-11.4 16.49-16.255l1.79-2.755-13.87-14.542c-7.627-7.999-14.918-15.845-16.202-17.438-1.284-1.592-6.385-6.388-11.337-10.657-9.724-8.384-13.398-13.927-14.485-21.859l-.616-4.493 3.386.022c4.311.028 11.12 3.109 16.362 7.404l4.09 3.352 8.967-3.386c4.932-1.862 17.855-6.596 28.717-10.52l19.75-7.135v-5.868c0-4.036-.39-5.865-1.25-5.856-.687.007-5.525.901-10.75 1.987-11.614 2.413-19.742 2.57-22.783.439-2.37-1.66-5.714-7.276-4.847-8.142.284-.285 4.382-.942 9.107-1.461 4.724-.52 13.412-2.157 19.306-3.64l10.717-2.696-.039-10c-.045-11.676-.786-13.514-10.997-27.299-8.459-11.418-14.6-23.553-15.228-30.094-.401-4.178-.18-5.191 1.25-5.74 3.379-1.297 61.984 11.39 69.842 15.118 4.283 2.033 5.46 5.1 3.512 9.16-1.56 3.252-6.887 6.496-15.34 9.341-7.987 2.689-12.08 5.3-13.939 8.895-1.498 2.898-4.168 21.845-3.213 22.8.978.977 5.316-2.194 12.944-9.46 7.398-7.046 8.035-7.43 11.425-6.88 7.13 1.157 21.283 8.947 21.283 11.713 0 1.428-8.965 5.691-28.5 13.553l-18 7.243-.298 6.08-.298 6.078 4.798-1.894c2.64-1.041 12.894-5.165 22.788-9.164 11.356-4.589 19.47-7.296 22-7.342 10.054-.18 34.51 18.341 34.51 26.136 0 4.122-1.826 6.102-9.952 10.789-4.34 2.503-9.524 6.358-11.519 8.566-8.362 9.256-16.446 24.807-19.04 36.63-1.764 8.036-1.867 8.215-4.398 7.611-1.425-.34-3.66-1.16-4.965-1.822-1.908-.968-4.03-.866-10.794.516-4.631.946-8.676 1.977-8.99 2.29-.707.707 11.068 8.38 20.843 13.58 12.71 6.762 24.513 10.74 53.386 17.995 15.438 3.879 29.65 7.712 31.58 8.519 3.815 1.594 6.532 4.232 5.461 5.303-.37.37-5.271.522-10.892.338-26.93-.882-27.779-.685-40.193 9.32-8.697 7.01-11.542 7.295-19.54 1.962-7.69-5.127-26.396-24.276-39.897-40.841-6.276-7.7-11.788-13.955-12.25-13.9-.462.055-1.582.167-2.49.25-1.48.134-1.579 1.513-.967 13.4.857 16.662 3.456 34.711 8.678 60.256 4.87 23.823 6.114 39.32 3.554 44.271-3.058 5.915-10.643 8.022-14.296 3.973zm-15.952-62.535c1.353-2.19 5.206-53.48 4.146-55.194-1.29-2.086-4.6.946-10.348 9.479-3.335 4.95-8.899 12.015-12.364 15.7l-6.3 6.7 3 3.385c17.762 20.046 20.341 22.397 21.866 19.93zm-2.452-67.181c3.529-1.073 6.784-2.532 7.235-3.243.884-1.392 1.185-20.123.338-20.97-.45-.45-29.357 6.055-30.384 6.836-.218.166 1.44 2.294 3.685 4.73 2.244 2.434 5.727 6.718 7.74 9.52 2.012 2.8 3.954 5.09 4.315 5.085.36-.004 3.543-.885 7.071-1.958zm32.405-8.535c3.949-.786 8.479-1.557 10.066-1.714 2.564-.253 3.46-1.404 8.012-10.285 2.82-5.5 5.908-11.113 6.864-12.473.956-1.36 1.738-2.978 1.738-3.596 0-1.19-14.114 1.581-30.04 5.898l-8.46 2.293-.887 6.53c-.489 3.59-.567 8.666-.176 11.278.667 4.444.873 4.709 3.207 4.123 1.372-.345 5.726-1.269 9.676-2.054zm-24.32-33.697c0-6.71-.054-6.733-8.593-3.714-3.249 1.148-13.505 4.284-22.79 6.967-9.287 2.683-17.056 5.05-17.266 5.26-.21.21 1.814 2.436 4.497 4.946l4.88 4.564 19.636-6.11 19.636-6.112v-5.801zm18.637-1.253c2.675-1.897 6.616-4.7 8.759-6.229 2.655-1.894 5.048-2.749 7.518-2.684 4.017.105 12.174 3.884 16.815 7.79l3.015 2.536 2.675-5.96c3.242-7.226 2.62-9.058-3.924-11.557-5.66-2.162-14.073-1.537-27.982 2.077-13.83 3.593-13.513 3.335-13.513 11.013 0 3.555.4 6.465.887 6.465.488 0 3.075-1.553 5.75-3.45z" fill="#3f3f3f"/><path d="M61.078 444.408c-28.267-4.784-51.405-25.685-58.306-52.67C.902 384.427.84 379.016.84 223.005.84 67.05.903 61.58 2.77 54.279 8.956 30.093 26.566 12.001 52.34 3.353l7-2.348 116.5-.282C277.488.477 293.313.637 299.973 1.979c15.084 3.041 27.035 9.493 37.867 20.444 12.09 12.221 18.195 24.962 20.088 41.923.602 5.392.85 68.068.652 164.682-.297 144.937-.443 156.436-2.073 162.461-5.476 20.252-19.106 36.702-38.167 46.066-16.205 7.96-6.102 7.397-136 7.58-64.113.09-118.354-.235-121.262-.727zm242.139-4.872c12.15-3.107 22.887-9.229 31.623-18.028 8.442-8.503 12.903-15.443 16.82-26.168l2.68-7.335.268-161.73c.299-180.593.732-168.894-6.835-184.527-3.296-6.808-5.769-10.159-12.28-16.634-12.87-12.8-24.893-18.58-43.007-20.672-6.069-.7-46.324-.943-119.646-.72C48.413 4.1 58.624 3.452 41.038 12.08c-18.7 9.174-32.267 27.188-35.764 47.488-1.268 7.355-1.434 30.98-1.177 167.5C4.38 376.897 4.5 386.345 6.2 391.95c5.758 18.974 18.47 33.948 36.147 42.58 14.695 7.176 7.21 6.799 136.583 6.891 112.842.08 116.838.02 124.287-1.885zm-125.963-73.781c-1.412-2.063-5.274-8.7-8.583-14.75-8.453-15.456-27.79-44.416-39.623-59.344l-1.858-2.344-7.925 5.199c-11.489 7.537-33.89 18.186-49.298 23.434-23.384 7.964-23.617 6.077-.871-7.06 13.847-7.997 35.48-21.835 45.625-29.184l4.134-2.995-3.508-4.198c-1.929-2.308-3.507-4.373-3.507-4.588 0-.325 3.16.829 11.589 4.23 1.058.427 19.443-18.014 19.38-19.438-.036-.78-40.726-42.123-48.188-48.96-4.718-4.322-8.78-12.555-8.78-17.79 0-2.127.456-2.462 3.35-2.462 3.713 0 10.827 3.443 16.469 7.971l3.68 2.954 11-4.088c6.05-2.249 18.875-6.91 28.5-10.36l17.5-6.27.293-6.485.293-6.486-7.793 1.846c-4.286 1.016-11.192 2.145-15.346 2.51-8.96.786-12.754-.654-15.255-5.79l-1.608-3.302 3.208-.66c1.765-.362 6.808-1.158 11.208-1.768 4.4-.61 11.938-2.073 16.75-3.249l8.75-2.139v-8.16c0-11.573-1.848-16.698-9.966-27.632-8.371-11.276-17.04-27.673-17.019-32.19.03-6.247.544-6.392 13.678-3.862 21.853 4.21 48.736 10.348 54.074 12.345 6.546 2.45 8.973 5.617 7.331 9.57-1.502 3.619-5.98 6.549-14.904 9.754-14.505 5.21-15.469 6.418-17.212 21.584-1.476 12.839-1.576 12.364 2.137 10.213 1.715-.993 6.536-5.1 10.713-9.128 7.166-6.907 7.795-7.286 11.132-6.712 4.698.808 17.16 6.907 19.582 9.584 1.886 2.084 1.887 2.16.043 3.508-2.238 1.637-29.222 13.122-38.839 16.531l-6.75 2.393v12.5l6.25-2.357c3.438-1.296 13.67-5.385 22.739-9.085 19.568-7.985 22.236-8.294 30.653-3.555 12.994 7.318 24.358 18.052 24.358 23.008 0 3.343-3.424 6.543-12.752 11.918-8.135 4.688-11.903 9.088-20.107 23.484-3.438 6.034-5.608 11.342-6.744 16.5-.92 4.183-2.052 8.62-2.513 9.86l-.838 2.254-4.773-1.794c-4.504-1.692-5.266-1.702-13.522-.172-4.812.892-8.965 1.838-9.23 2.102-.784.784 14.279 10.28 23.98 15.115 13.451 6.706 21.326 9.28 51.375 16.8 25.854 6.468 36.091 9.962 36.878 12.585.527 1.759-7.959 2.208-19.375 1.026-13.589-1.406-19.218-.149-27.51 6.146-11.269 8.554-12.294 9.183-14.99 9.183-6.545 0-26.295-17.89-45.717-41.412a7720.612 7720.612 0 0 0-12.72-15.378c-1.594-1.909-2.588-2.299-4.397-1.725l-2.338.742.684 13.617c.886 17.669 2.724 30.594 8.268 58.156 4.954 24.628 6.426 40.658 4.128 44.97-1.696 3.182-7.412 7.03-10.444 7.03-1.606 0-3.183-1.2-4.929-3.75zm-14.245-64.996c.695-4.069 2.014-20.404 3.396-42.051l.658-10.297-2.862.701c-1.573.386-3.023 1.12-3.221 1.629-1.315 3.38-11.322 16.827-17.232 23.155l-7.059 7.559 8.701 9.775c14.177 15.927 16.329 17.09 17.62 9.529zm-3.169-63.026c3.025-.957 6.063-2.102 6.75-2.544.875-.562 1.25-4.085 1.25-11.743 0-6.018-.112-10.94-.25-10.938-.58.007-29.369 7.094-30.61 7.535-.907.322.867 2.846 5.307 7.553 3.668 3.888 7.165 8.158 7.772 9.489 1.307 2.87 2.515 2.95 9.781.648zm26.5-7.359c2.2-.615 7.329-1.637 11.397-2.27l7.396-1.152 4.258-8.208c2.342-4.514 5.677-10.513 7.411-13.332 1.734-2.819 3.004-5.275 2.822-5.457-.396-.396-23.556 4.756-32.776 7.29-5.834 1.605-6.558 2.089-7.132 4.773-.851 3.977-1 14.422-.246 17.237.688 2.564 1.33 2.67 6.87 1.12zm-40.157-22.292c9.436-2.982 18.17-5.713 19.407-6.067 2.033-.583 2.25-1.265 2.25-7.078 0-3.538-.208-6.432-.463-6.432s-2.842.939-5.75 2.087c-2.908 1.148-13.536 4.484-23.617 7.413-10.082 2.93-18.606 5.602-18.943 5.94-.5.5 8.458 9.363 9.616 9.515.189.024 8.064-2.395 17.5-5.378zm37.957-12.221c1.76-.905 5.675-3.547 8.7-5.871 3.025-2.325 6.549-4.478 7.83-4.784 3.264-.779 9.41 1.604 16.342 6.336l5.91 4.033 1.885-4.285c3.407-7.74 3.479-9.29.538-11.603-5.578-4.387-18.884-3.862-36.561 1.443l-8.944 2.684v6.845c0 3.765.247 6.846.55 6.846.302 0 1.99-.74 3.75-1.644z"/></svg>