<svg xmlns="http://www.w3.org/2000/svg" width="358.805" height="445.229"><path d="M57.984 444.022c-27.688-5.636-49.289-25.773-56.065-52.27C.045 384.427-.015 379.13.002 223.1.02 45.414-.31 54.929 6.334 41.037c7.094-14.83 18.375-26.224 33.15-33.482C55.951-.535 45.916.009 178.984.009c132.895 0 123.325-.511 139.5 7.445 18.831 9.261 32.018 25.013 38.138 45.555 1.678 5.63 1.808 15.694 2.113 163.5.204 98.993-.04 160.471-.657 165.5-2.14 17.453-8.01 29.436-20.58 42.023-8.67 8.68-17.904 14.226-31.014 18.627l-7 2.35-117.5.168c-94.04.134-118.797-.096-124-1.155zm235-3.547c29.448-3.815 53.818-25.304 59.501-52.466 2.202-10.522 2.197-320.543 0-330.936-5.046-23.822-25.273-44.241-50.119-50.596C294.928 4.575 290.78 4.51 178.99 4.51 67.13 4.509 63.055 4.574 55.6 6.48 31.96 12.527 12.99 31.039 6.313 54.58c-1.73 6.1-1.824 14.65-1.824 167.928 0 153.15.095 161.831 1.82 167.913 7.715 27.19 30.863 46.79 59.18 50.11 9.45 1.107 218.917 1.055 227.5-.057zm-73.5-75.054c-2.75-.442-9.725-3.22-15.5-6.174-45.574-23.312-50.837-26.3-49.203-27.934 1.283-1.284 14.31-1.3 19.833-.024l4.13.953-2.385-3.513c-2.314-3.41-5.359-11.97-5.39-15.152-.035-3.587-1.402-4.185-5.923-2.59-11.16 3.938-21.87 3.71-25.312-.54-3.002-3.706-2.193-4.658 5-5.882 8.42-1.433 22.462-5.061 23.612-6.1.474-.43.545-4.36.158-8.734l-.704-7.953-10.378 3.365c-13.01 4.219-19.44 4.454-23.05.844-1.505-1.505-2.393-3.389-2.204-4.675.267-1.816 2.28-2.77 12.816-6.078 6.875-2.158 12.675-4.091 12.887-4.295.213-.204-2.262-3.627-5.5-7.607-3.237-3.98-6.354-7.851-6.926-8.603-.853-1.12-2.664-.651-10.065 2.606-15.349 6.754-31.505 15.187-30.918 16.137.308.498 3.64 5.007 7.404 10.02 15.203 20.245 29.067 46.849 29.102 55.844.034 8.89-8.633 12.787-18.488 8.31-5.33-2.421-12.597-10.55-21.746-24.322-20.163-30.352-37.318-62.373-38.426-71.727l-.638-5.394 4.154.557c5.8.778 15.668 5.634 22.04 10.848 2.96 2.42 6.19 4.997 7.18 5.726 1.578 1.162 3.617.333 16.62-6.76 8.151-4.445 16.733-8.815 19.07-9.71 2.338-.895 4.25-2.026 4.25-2.513 0-1.384-8.792-6.616-13.895-8.27-2.532-.821-8.78-2.202-13.884-3.068-12.01-2.04-13.813-2.788-16.216-6.73-2.444-4.007-2.682-10.3-.423-11.167 5.592-2.146 23.734 1.446 34.894 6.908 4.121 2.017 10.248 6.345 14.823 10.47 6.242 5.63 8.147 6.846 9.545 6.098.96-.514 11.176-4.164 22.701-8.112 24.361-8.343 27.614-9.622 28.655-11.26 1.153-1.814.958-4.113-.518-6.133-1.264-1.728-1.92-1.688-15.628.946-9.21 1.77-14.79 3.325-15.66 4.363-.744.887-3.5 4.733-6.123 8.546-6.089 8.85-7.576 9.466-5.727 2.373 1.274-4.886 6.456-33.1 6.456-35.148 0-.49-1.012-.655-2.25-.365-19.07 4.461-35.507 5.977-39.815 3.672-2.408-1.29-2.494-4.172-.185-6.166.963-.83 5.8-2.294 10.75-3.253 9.648-1.868 21.808-5.463 29.21-8.636l4.568-1.958-.597-13.726c-.506-11.63-1.351-16.935-5.533-34.726l-4.936-21 7.609-9.5c11.617-14.505 16.09-19 18.906-19 4.708 0 25.632 23.433 29.773 33.343.825 1.976 1.5 5.207 1.5 7.18 0 4.289-2.65 7.01-14.244 14.631-6.462 4.248-7.901 5.691-8.693 8.718-3.776 14.44-5.084 20.44-4.57 20.953.326.327 5.434-4.45 11.35-10.616 5.916-6.165 11.09-11.21 11.497-11.21 1.736 0 9.579 4.609 14.775 8.682 6.592 5.167 9.928 10.443 8.268 13.074-2.297 3.642-15.445 10.065-38.383 18.75-13.487 5.107-13.5 5.115-14.658 9.053-.638 2.168-2.267 7.64-3.622 12.158-2.85 9.51-4.085 9.396 10.28.953 13.138-7.722 21.816-13.832 30-21.125 4.125-3.676 9.17-7.552 11.21-8.614 7.172-3.731 15.346-1.618 21.69 5.608 2.572 2.93 3.15 4.377 2.905 7.289-.265 3.166-1.01 4.1-5.805 7.267-5.397 3.566-14.612 12.626-13.735 13.504.246.245 3.324-.232 6.84-1.061 15.732-3.708 23.928-.423 41.027 16.447 10.723 10.58 16.868 19.763 16.868 25.208 0 7.191-10.44 30.781-30.452 68.808-14.993 28.489-19.344 35.745-24.683 41.163-4.521 4.587-5.186 4.876-14.365 6.252-1.1.165-4.25-.062-7-.503zm-3.061-33.297c13.403-10.223 35.867-58.156 37.272-79.53.476-7.236.36-7.776-2.533-11.726-4.813-6.573-12.322-9.714-24.383-10.199-11.285-.453-8.603-2.301-22.848 15.748-4.523 5.731-7.368 10.082-6.33 9.682 6.82-2.63 17.294-4.757 21.458-4.357 7.018.674 14.35 4.612 14.732 7.912.267 2.304-.251 2.854-4 4.25-2.369.882-9.257 2.742-15.307 4.134-6.05 1.392-16.096 3.927-22.324 5.635-10.353 2.838-11.282 3.286-10.822 5.22.276 1.164 1.034 4.88 1.684 8.26l1.181 6.145 5.42-2.481c2.981-1.365 9.345-4.685 14.141-7.377 9.483-5.323 13.61-6.049 19.767-3.476 4.061 1.697 5.231 3.895 3.315 6.229-1.658 2.02-13.5 7.525-28.556 13.275l-11.195 4.276.552 11.632c.32 6.732.136 12.686-.435 14.133a287.819 287.819 0 0 0-1.358 3.49c-.61 1.632 5.008 2.388 16.222 2.183 9.971-.183 10.811-.362 14.347-3.058zM179.74 263.22l8.255-3.212 3.131-7.5c1.722-4.125 3.93-9.817 4.906-12.648l1.774-5.148-7.16 2.023c-7.52 2.123-24.862 8.009-30.43 10.325l-3.267 1.36 4.016 5.294c2.208 2.912 4.804 7.209 5.767 9.549 1.227 2.98 2.202 4.092 3.252 3.712.825-.298 5.215-1.988 9.756-3.755z" fill="#bfbfbf"/><path d="M57.537 443.869c-24.924-5.385-46.32-24.193-54.297-47.73l-2.756-8.13v-331L3.57 48.39C9.866 30.805 22.943 16.05 39.396 7.973 56.82-.582 46.426.01 179.484.01c111.133 0 118.379.106 124.5 1.823 20.843 5.845 37.944 19.722 47.045 38.177 8.07 16.365 7.455 1.31 7.455 182.5 0 151.63-.108 161.897-1.776 168-5.725 20.943-19.374 37.739-38.224 47.034-16.2 7.99-5.95 7.419-137 7.634-100.793.166-117.962-.015-123.947-1.308zm235.447-3.394c29.448-3.815 53.818-25.304 59.501-52.466 2.202-10.522 2.197-320.543 0-330.936-5.046-23.822-25.273-44.241-50.119-50.596C294.928 4.575 290.78 4.51 178.99 4.51 67.13 4.509 63.055 4.574 55.6 6.48 31.96 12.527 12.99 31.039 6.313 54.58c-1.73 6.1-1.824 14.65-1.824 167.928 0 153.15.095 161.831 1.82 167.913 7.715 27.19 30.863 46.79 59.18 50.11 9.45 1.107 218.917 1.055 227.5-.057zm-73.5-75.054c-2.75-.442-9.725-3.22-15.5-6.174-45.574-23.312-50.837-26.3-49.203-27.934 1.283-1.284 14.31-1.3 19.833-.024l4.13.953-2.385-3.513c-2.314-3.41-5.359-11.97-5.39-15.152-.035-3.587-1.402-4.185-5.923-2.59-11.16 3.938-21.87 3.71-25.312-.54-3.002-3.706-2.193-4.658 5-5.882 8.42-1.433 22.462-5.061 23.612-6.1.474-.43.545-4.36.158-8.734l-.704-7.953-10.378 3.365c-13.01 4.219-19.44 4.454-23.05.844-1.505-1.505-2.393-3.389-2.204-4.675.267-1.816 2.28-2.77 12.816-6.078 6.875-2.158 12.675-4.091 12.887-4.295.213-.204-2.262-3.627-5.5-7.607-3.237-3.98-6.354-7.851-6.926-8.603-.853-1.12-2.664-.651-10.065 2.606-15.349 6.754-31.505 15.187-30.918 16.137.308.498 3.64 5.007 7.404 10.02 15.203 20.245 29.067 46.849 29.102 55.844.034 8.89-8.633 12.787-18.488 8.31-5.33-2.421-12.597-10.55-21.746-24.322-20.163-30.352-37.318-62.373-38.426-71.727l-.638-5.394 4.154.557c5.8.778 15.668 5.634 22.04 10.848 2.96 2.42 6.19 4.997 7.18 5.726 1.578 1.162 3.617.333 16.62-6.76 8.151-4.445 16.733-8.815 19.07-9.71 2.338-.895 4.25-2.026 4.25-2.513 0-1.384-8.792-6.616-13.895-8.27-2.532-.821-8.78-2.202-13.884-3.068-12.01-2.04-13.813-2.788-16.216-6.73-2.444-4.007-2.682-10.3-.423-11.167 5.592-2.146 23.734 1.446 34.894 6.908 4.121 2.017 10.248 6.345 14.823 10.47 6.242 5.63 8.147 6.846 9.545 6.098.96-.514 11.176-4.164 22.701-8.112 24.361-8.343 27.614-9.622 28.655-11.26 1.153-1.814.958-4.113-.518-6.133-1.264-1.728-1.92-1.688-15.628.946-9.21 1.77-14.79 3.325-15.66 4.363-.744.887-3.5 4.733-6.123 8.546-6.089 8.85-7.576 9.466-5.727 2.373 1.274-4.886 6.456-33.1 6.456-35.148 0-.49-1.012-.655-2.25-.365-19.07 4.461-35.507 5.977-39.815 3.672-2.408-1.29-2.494-4.172-.185-6.166.963-.83 5.8-2.294 10.75-3.253 9.648-1.868 21.808-5.463 29.21-8.636l4.568-1.958-.597-13.726c-.506-11.63-1.351-16.935-5.533-34.726l-4.936-21 7.609-9.5c11.617-14.505 16.09-19 18.906-19 4.708 0 25.632 23.433 29.773 33.343.825 1.976 1.5 5.207 1.5 7.18 0 4.289-2.65 7.01-14.244 14.631-6.462 4.248-7.901 5.691-8.693 8.718-3.776 14.44-5.084 20.44-4.57 20.953.326.327 5.434-4.45 11.35-10.616 5.916-6.165 11.09-11.21 11.497-11.21 1.736 0 9.579 4.609 14.775 8.682 6.592 5.167 9.928 10.443 8.268 13.074-2.297 3.642-15.445 10.065-38.383 18.75-13.487 5.107-13.5 5.115-14.658 9.053-.638 2.168-2.267 7.64-3.622 12.158-2.85 9.51-4.085 9.396 10.28.953 13.138-7.722 21.816-13.832 30-21.125 4.125-3.676 9.17-7.552 11.21-8.614 7.172-3.731 15.346-1.618 21.69 5.608 2.572 2.93 3.15 4.377 2.905 7.289-.265 3.166-1.01 4.1-5.805 7.267-5.397 3.566-14.612 12.626-13.735 13.504.246.245 3.324-.232 6.84-1.061 15.732-3.708 23.928-.423 41.027 16.447 10.723 10.58 16.868 19.763 16.868 25.208 0 7.191-10.44 30.781-30.452 68.808-14.993 28.489-19.344 35.745-24.683 41.163-4.521 4.587-5.186 4.876-14.365 6.252-1.1.165-4.25-.062-7-.503zm-3.061-33.297c13.403-10.223 35.867-58.156 37.272-79.53.476-7.236.36-7.776-2.533-11.726-4.813-6.573-12.322-9.714-24.383-10.199-11.285-.453-8.603-2.301-22.848 15.748-4.523 5.731-7.368 10.082-6.33 9.682 6.82-2.63 17.294-4.757 21.458-4.357 7.018.674 14.35 4.612 14.732 7.912.267 2.304-.251 2.854-4 4.25-2.369.882-9.257 2.742-15.307 4.134-6.05 1.392-16.096 3.927-22.324 5.635-10.353 2.838-11.282 3.286-10.822 5.22.276 1.164 1.034 4.88 1.684 8.26l1.181 6.145 5.42-2.481c2.981-1.365 9.345-4.685 14.141-7.377 9.483-5.323 13.61-6.049 19.767-3.476 4.061 1.697 5.231 3.895 3.315 6.229-1.658 2.02-13.5 7.525-28.556 13.275l-11.195 4.276.552 11.632c.32 6.732.136 12.686-.435 14.133a287.819 287.819 0 0 0-1.358 3.49c-.61 1.632 5.008 2.388 16.222 2.183 9.971-.183 10.811-.362 14.347-3.058zM179.74 263.22l8.255-3.212 3.131-7.5c1.722-4.125 3.93-9.817 4.906-12.648l1.774-5.148-7.16 2.023c-7.52 2.123-24.862 8.009-30.43 10.325l-3.267 1.36 4.016 5.294c2.208 2.912 4.804 7.209 5.767 9.549 1.227 2.98 2.202 4.092 3.252 3.712.825-.298 5.215-1.988 9.756-3.755z" fill="#bebebe"/><path d="M57.537 443.869c-24.924-5.385-46.32-24.193-54.297-47.73l-2.756-8.13v-331L3.57 48.39C9.866 30.805 22.943 16.05 39.396 7.973 56.82-.582 46.426.01 179.484.01c111.133 0 118.379.106 124.5 1.823 20.843 5.845 37.944 19.722 47.045 38.177 8.07 16.365 7.455 1.31 7.455 182.5 0 151.63-.108 161.897-1.776 168-5.725 20.943-19.374 37.739-38.224 47.034-16.2 7.99-5.95 7.419-137 7.634-100.793.166-117.962-.015-123.947-1.308zm245.591-5.062c25.26-7.145 42.65-24.533 48.874-48.866 1.936-7.57 1.982-11.492 1.982-167.432 0-154.53-.062-159.924-1.931-167.234-5.017-19.616-17.49-34.972-35.569-43.786-15.187-7.405-7.696-7.043-139.724-6.746l-118.276.266-8 2.816C39.708 11.618 29.464 18.173 22.235 25.9c-7.142 7.635-11.123 14.332-14.927 25.109l-2.824 8v326l2.332 7.5c3.49 11.225 8.56 19.562 17.083 28.085 11.24 11.238 24.391 17.783 39.809 19.808 3.727.49 57.401.817 119.276.729 112.046-.161 112.531-.17 120.144-2.324zM220 365.267c-3.016-.445-8.866-2.511-13-4.591-14.676-7.386-47.559-24.775-50.344-26.623-2.513-1.668-2.638-1.984-1.116-2.835 2.204-1.234 14.905-1.058 19.438.268 1.921.563 3.615 1.023 3.764 1.023.149 0-.836-1.688-2.188-3.75-1.352-2.063-3.373-7.077-4.49-11.143-1.117-4.066-2.16-7.522-2.32-7.68-.158-.16-3.432.595-7.274 1.676-3.842 1.08-9.594 2.013-12.782 2.073-5.078.095-6.163-.243-8.75-2.721-1.625-1.556-2.954-3.367-2.954-4.024 0-.722 3.727-1.866 9.414-2.89 5.177-.932 12.04-2.483 15.25-3.447l5.836-1.753-.23-8.317c-.126-4.575-.351-8.433-.5-8.573-.148-.14-4.32 1.107-9.27 2.773-4.95 1.665-11.7 3.241-15 3.502-5.65.446-6.165.3-8.842-2.527-4.707-4.97-3.611-6.104 9.842-10.186 6.6-2.003 12.57-3.84 13.267-4.082 1.3-.454-12.167-17.931-13.818-17.931-1.272 0-26.462 11.626-34.141 15.758l-6.693 3.6 4 4.779c13.115 15.664 32.578 49.957 33.625 59.246 1.696 15.045-15.147 17.043-27.326 3.242-12.395-14.047-44.362-67.394-49.342-82.344-2.854-8.568-2.76-11.281.391-11.281 5.872 0 18.46 6.778 27.71 14.92l4.417 3.889 9.082-5.155c4.994-2.835 13.636-7.386 19.205-10.114 5.568-2.728 10.123-5.313 10.123-5.744 0-1.59-8.483-6.863-13.413-8.336-2.798-.836-9.316-2.204-14.484-3.04-11.314-1.832-14.32-3.251-16.468-7.777-3.945-8.314-1.24-11.266 9.42-10.275 14.756 1.372 27.502 7.008 39.627 17.523l8.182 7.095 8.818-3.326c4.85-1.83 16.614-5.968 26.142-9.196 18.456-6.253 19.835-7.188 18.64-12.634-.774-3.52.02-3.534-20.316.367l-11.352 2.177-4.386 6.563c-5.54 8.288-8.36 11.842-8.383 10.563-.01-.55 1.291-7.75 2.892-16 1.6-8.25 3.205-17.283 3.566-20.074l.655-5.074-9.32 2.398c-10.656 2.743-27.88 4.019-32.07 2.377-3.164-1.24-3.62-4.095-1-6.27.963-.8 5.8-2.244 10.75-3.21 11.086-2.163 21.23-5.111 28.206-8.196l5.294-2.341v-10.69c0-11.047-1.855-22.072-7.853-46.658l-2.851-11.69 6.474-8.286c8.327-10.658 18.219-20.786 20.3-20.786 1.934 0 19.197 17.566 23.587 24 4.87 7.138 7.343 12.647 7.343 16.356 0 4.513-3.571 7.668-21.866 19.31-.202.13-1.847 6.444-3.655 14.034l-3.288 13.8 11.835-12.293 11.835-12.293 3.678 1.537c7.525 3.144 20.461 14.533 20.461 18.013 0 .802-1.012 2.417-2.25 3.59-3.234 3.066-22.116 11.964-37.25 17.554-7.15 2.64-13.15 4.898-13.336 5.016-.184.118-1.452 4.612-2.817 9.987-1.365 5.375-2.938 10.625-3.495 11.666-.558 1.042-.813 2.095-.567 2.34.576.576 18.088-9.502 27.476-15.812 3.993-2.684 11.193-8.288 16-12.454 12.597-10.917 16.674-12.256 25.014-8.219 5.068 2.454 10.225 8.93 10.225 12.841 0 2.185-1.265 3.538-6.924 7.405-5.653 3.863-14.076 12.155-14.076 13.858 0 .22 3.038-.392 6.75-1.36 15.822-4.127 23.404-1.44 39.484 13.995 12.362 11.865 18.847 20.66 19.496 26.437.673 6.005-4.018 17.195-22.719 54.192-22.12 43.76-28.67 54.654-35.816 59.563-4.105 2.82-10.031 3.75-17.179 2.695zm-7.89-30.776c6.852-1.904 15.246-12.76 25.116-32.482 10.09-20.16 16.737-41.094 16.751-52.747.006-5.178-.342-6.135-3.522-9.654-5.64-6.243-11.194-8.336-23.56-8.878l-10.59-.465-8.11 10.372c-4.461 5.704-9.252 11.785-10.647 13.512l-2.536 3.14 8.986-2.89c11.377-3.66 15.365-3.645 23.582.08 5.571 2.527 6.503 3.31 6.228 5.24-.423 2.971-3.44 4.32-16.537 7.398-12.253 2.88-35.452 9.224-36.1 9.872-.237.237.411 4.12 1.441 8.628l1.872 8.197 14.745-7.652c8.11-4.21 15.862-7.653 17.23-7.653 3.601 0 10.269 2.889 10.987 4.76.35.913-.156 2.367-1.173 3.37-1.878 1.85-19.472 9.608-32.37 14.273l-7.58 2.741.771 4.678c1.284 7.791.964 19.424-.61 22.178-.786 1.375-1.445 2.807-1.464 3.183-.09 1.725 21.466 2.36 27.09.799zm-33.147-70.784l9.48-3.74 4.846-12.32c2.665-6.777 4.633-12.534 4.373-12.794-.623-.623-40.678 12.724-40.678 13.554 0 .353 2.022 3.332 4.492 6.621 2.47 3.29 4.98 7.443 5.578 9.23.597 1.788 1.388 3.237 1.758 3.22.37-.017 4.938-1.714 10.151-3.77z" fill="#7f7f7f"/><path d="M63.204 444.42c-16.068-1.907-30.8-9.255-42.734-21.313-8.858-8.95-13.768-17.187-17.644-29.598l-2.342-7.5v-163C.484 39.752-.17 55.505 8.156 38.52c3.287-6.706 5.858-10.17 12.245-16.5C29.593 12.91 37.929 7.668 49.484 3.733l8-2.724 119-.297c133.876-.333 125.27-.775 142 7.296 17.761 8.569 30.288 22.92 36.662 42l2.338 7 .281 162.5c.314 181.624.747 169.824-6.796 185.5-8.796 18.282-25.502 31.762-46.849 37.801-7.604 2.152-8.102 2.161-120.636 2.319-62.15.086-116.276-.232-120.28-.707zm243.28-6.22c11.223-3.938 20.855-9.93 28.473-17.713 11.346-11.59 17.2-23.946 19.076-40.257.716-6.233.956-59.455.74-164.221-.297-144.085-.443-155.423-2.07-161-5.89-20.206-18.899-35.386-38.218-44.601-15.16-7.23-10.385-7.001-139-6.683l-115 .284-7 2.348C40.75 10.63 33.128 15.307 23.955 24.48c-9.785 9.785-14.888 18.471-18 30.638-1.922 7.516-1.972 11.74-1.972 167.39 0 155.652.05 159.875 1.972 167.391 3.119 12.194 8.19 20.86 17.979 30.727 7.23 7.288 10.015 9.323 18.05 13.196 16.53 7.967 9.001 7.57 140 7.367l116.5-.18 8-2.808zm-90.5-74.045c-2.475-.67-9-3.638-14.5-6.594-5.5-2.957-16.842-8.858-25.204-13.114-8.362-4.255-16.625-8.749-18.362-9.985-2.83-2.016-2.975-2.35-1.397-3.234 1.709-.956 14.06-.411 19.607.865l2.644.608-2.877-5.703c-1.582-3.137-3.424-8.355-4.094-11.596-.669-3.241-1.69-5.883-2.267-5.87-.577.013-4.394.913-8.482 2-12.77 3.396-20.775 2.027-22.303-3.816-.42-1.603.503-1.988 7.127-2.974 4.185-.624 11.169-2.168 15.52-3.433l7.911-2.3-.23-8.487c-.128-4.667-.408-8.662-.623-8.877-.214-.214-4.748 1.02-10.075 2.745-5.327 1.725-12.07 3.416-14.986 3.758-4.984.586-5.487.436-8.436-2.513-5.067-5.067-4.555-5.508 12.352-10.647 8.615-2.62 11.581-3.918 10.927-4.787-.493-.656-3.734-4.714-7.201-9.019-5.655-7.02-6.574-7.76-8.927-7.18-1.443.356-10.859 4.646-20.925 9.534l-18.3 8.886 4.926 6.293c7.884 10.074 19.992 29.064 25.73 40.356 8.957 17.627 9.413 25.882 1.612 29.142-7.176 2.998-16.16-1.112-23.912-10.939-10.462-13.262-31.42-47.168-41.193-66.643-5.593-11.144-8.874-21.71-7.248-23.336 2.623-2.623 18.518 4.982 28.835 13.797l5.264 4.497 4.172-2.634c4.419-2.79 31.373-16.827 33.915-17.663 1.186-.39.976-.956-1-2.698-4.679-4.128-14.27-7.946-24-9.555-14.535-2.403-17.551-3.79-19.534-8.981-2.737-7.166-2.1-8.003 6.352-8.344 14.324-.58 29.681 5.432 42.986 16.826l8.303 7.111 12.697-4.576a2643.978 2643.978 0 0 1 26.696-9.417c15.003-5.188 15.587-5.683 14.03-11.888-.612-2.439-.854-2.512-6.367-1.936-3.151.33-10.215 1.564-15.696 2.744l-9.967 2.145-5.838 8.971c-3.211 4.934-6.013 8.796-6.227 8.583-.213-.214.69-5.536 2.009-11.828 3.048-14.549 5.447-29.945 4.662-29.923-.333.01-3.98.897-8.106 1.973-11.14 2.905-25.711 4.522-30.5 3.385-3.552-.844-4-1.282-4-3.913 0-2.646.428-3.054 4-3.824 14.294-3.081 26.021-6.23 32.614-8.759l7.614-2.92.62-6.23c.92-9.265-.665-21.133-5.769-43.161-2.518-10.87-4.579-20.14-4.579-20.6 0-2.895 23.229-28.968 25.808-28.968 1.961 0 13.465 11.226 20.494 20 6.656 8.307 10.674 15.978 10.689 20.405.012 3.662-4.984 8.578-15.167 14.926l-7.366 4.59-3.256 13.18c-1.79 7.248-3.086 13.348-2.879 13.555.207.207 5.378-4.806 11.491-11.14 6.113-6.334 11.918-11.512 12.9-11.507 4.957.026 20.34 11.836 22.139 16.996.896 2.573.742 3.294-1.062 4.975-3.182 2.965-17.082 9.473-35.041 16.406l-16.086 6.21-2.786 10.681c-1.532 5.875-3.287 11.618-3.9 12.763-1.093 2.044-1.057 2.052 2.009.467 4.659-2.41 22.887-13.384 27.86-16.774 2.39-1.63 8.17-6.296 12.843-10.37 10.123-8.827 13.43-10.685 19.024-10.691 8.31-.01 18.549 9.439 16.895 15.591-.339 1.262-3.252 3.98-6.683 6.237-5.573 3.664-14.753 13.005-13.76 13.999.231.23 3.098-.28 6.37-1.135 3.695-.964 8.799-1.423 13.458-1.209 7.018.323 7.965.651 14.553 5.037 13.34 8.881 31.417 29.915 31.444 36.59.026 6.271-11.744 32.65-30.57 68.514-22.939 43.698-26.44 47.823-40.42 47.63-2.476-.033-6.526-.61-9-1.28zm-6.095-28.72c4.257-.912 5.866-2.003 10.799-7.322 7.061-7.613 13.715-18.561 20.437-33.625 9.75-21.85 15.167-42.489 12.93-49.266-1.234-3.738-6.994-9.701-11.613-12.021-4.686-2.355-14.876-3.858-21.227-3.132l-5.73.655-5.713 7.642c-3.142 4.204-7.862 10.32-10.489 13.591-2.754 3.43-4.026 5.661-3.004 5.27 7.096-2.724 17.007-5.106 21.205-5.097 6.363.013 16.5 4.575 16.5 7.426 0 2.808-3.737 4.275-21.5 8.439-8.8 2.062-19.487 4.841-23.75 6.175-6.621 2.073-7.744 2.747-7.714 4.632.04 2.515 2.595 13.67 3.289 14.365.523.523 8.175-3.11 20.968-9.954 4.836-2.587 9.594-4.704 10.572-4.704.979 0 3.884.717 6.457 1.594 3.821 1.302 4.678 2.032 4.678 3.983 0 2.958-4.072 5.134-25.251 13.49-8.31 3.278-15.25 6.102-15.423 6.274-.172.172.162 4.098.742 8.724 1.189 9.48.478 17.246-1.784 19.508-1.948 1.948-1.731 2.115 4.238 3.253 6.946 1.325 14.5 1.363 20.383.1zm-19.994-78.815c3.113-6.213 8.404-21.13 7.733-21.801-.618-.619-23.4 6.434-35.6 11.02l-5.938 2.233 3.94 4.968c2.167 2.733 4.902 7.273 6.078 10.09l2.138 5.122 9.92-4.01c8.746-3.536 10.133-4.437 11.729-7.622z" fill="#404040"/><path d="M63.645 444.397c-29.56-3.885-53.39-24.43-61.344-52.888-1.721-6.16-1.817-15.02-1.817-169 0-154.469.091-162.822 1.832-169C8.134 32.853 21.51 17.053 41.338 7.416 56.41.091 49.67.412 181.984.726l118.5.283 8 2.808c18.874 6.624 33.799 19.37 41.903 35.788 8.074 16.357 7.563 3.998 7.563 182.904 0 178.503.48 166.613-7.366 182.5-9.202 18.631-25.782 31.897-47.6 38.083-6.123 1.737-13.038 1.854-119.5 2.024-62.321.099-116.067-.223-119.839-.72zm242.84-6.196c11.222-3.939 20.854-9.931 28.472-17.714 11.346-11.59 17.2-23.946 19.076-40.257.716-6.233.956-59.455.74-164.221-.297-144.085-.443-155.423-2.07-161-5.89-20.206-18.899-35.386-38.218-44.601-15.16-7.23-10.385-7.001-139-6.683l-115 .284-7 2.348C40.75 10.63 33.128 15.307 23.955 24.48c-9.785 9.785-14.888 18.471-18 30.638-1.922 7.516-1.972 11.74-1.972 167.39 0 155.652.05 159.875 1.972 167.391 3.119 12.194 8.19 20.86 17.979 30.727 7.23 7.288 10.015 9.323 18.05 13.196 16.53 7.967 9.001 7.57 140 7.367l116.5-.18 8-2.808zm-90.5-74.046c-2.476-.67-9-3.638-14.5-6.594-5.5-2.957-16.843-8.858-25.205-13.114-8.362-4.255-16.625-8.749-18.362-9.985-2.83-2.016-2.975-2.35-1.397-3.234 1.709-.956 14.06-.411 19.607.865l2.644.608-2.877-5.703c-1.582-3.137-3.424-8.355-4.094-11.596-.669-3.241-1.69-5.883-2.267-5.87-.577.013-4.394.913-8.482 2-12.77 3.396-20.775 2.027-22.303-3.816-.42-1.603.503-1.988 7.127-2.974 4.185-.624 11.169-2.168 15.52-3.433l7.911-2.3-.23-8.487c-.128-4.667-.408-8.662-.623-8.877-.214-.214-4.748 1.02-10.075 2.745-5.327 1.725-12.07 3.416-14.986 3.758-4.984.586-5.487.436-8.436-2.513-5.067-5.067-4.555-5.508 12.352-10.647 8.615-2.62 11.581-3.918 10.927-4.787-.493-.656-3.734-4.714-7.201-9.019-5.655-7.02-6.574-7.76-8.927-7.18-1.443.356-10.859 4.646-20.925 9.534l-18.3 8.886 4.926 6.293c7.884 10.074 19.992 29.064 25.73 40.356 8.957 17.627 9.413 25.882 1.612 29.142-7.176 2.998-16.16-1.112-23.912-10.939-10.462-13.262-31.42-47.168-41.193-66.643-5.593-11.144-8.874-21.71-7.248-23.336 2.623-2.623 18.518 4.982 28.835 13.797l5.264 4.497 4.172-2.634c4.419-2.79 31.373-16.827 33.915-17.663 1.186-.39.976-.956-1-2.698-4.679-4.128-14.27-7.946-24-9.555-14.535-2.403-17.551-3.79-19.534-8.981-2.737-7.166-2.1-8.003 6.352-8.344 14.324-.58 29.681 5.432 42.986 16.826l8.303 7.111 12.697-4.576a2643.978 2643.978 0 0 1 26.696-9.417c15.003-5.188 15.587-5.683 14.03-11.888-.612-2.439-.854-2.512-6.367-1.936-3.151.33-10.215 1.564-15.696 2.744l-9.967 2.145-5.838 8.971c-3.211 4.934-6.013 8.796-6.227 8.583-.213-.214.69-5.536 2.009-11.828 3.048-14.549 5.447-29.945 4.662-29.923-.333.01-3.98.897-8.106 1.973-11.14 2.905-25.711 4.522-30.5 3.385-3.552-.844-4-1.282-4-3.913 0-2.646.428-3.054 4-3.824 14.294-3.081 26.021-6.23 32.614-8.759l7.614-2.92.62-6.23c.92-9.265-.665-21.133-5.769-43.161-2.518-10.87-4.579-20.14-4.579-20.6 0-2.895 23.229-28.968 25.808-28.968 1.961 0 13.465 11.226 20.494 20 6.656 8.307 10.674 15.978 10.689 20.405.012 3.662-4.984 8.578-15.167 14.926l-7.366 4.59-3.256 13.18c-1.79 7.248-3.086 13.348-2.879 13.555.207.207 5.378-4.806 11.491-11.14 6.113-6.334 11.918-11.512 12.9-11.507 4.957.026 20.34 11.836 22.139 16.996.896 2.573.742 3.294-1.062 4.975-3.182 2.965-17.082 9.473-35.041 16.406l-16.086 6.21-2.786 10.681c-1.532 5.875-3.287 11.618-3.9 12.763-1.093 2.044-1.057 2.052 2.009.467 4.659-2.41 22.887-13.384 27.86-16.774 2.39-1.63 8.17-6.296 12.843-10.37 10.123-8.827 13.43-10.685 19.024-10.691 8.31-.01 18.549 9.439 16.895 15.591-.339 1.262-3.252 3.98-6.683 6.237-5.573 3.664-14.753 13.005-13.76 13.999.231.23 3.098-.28 6.37-1.135 3.695-.964 8.799-1.423 13.458-1.209 7.018.323 7.965.651 14.553 5.037 13.34 8.881 31.417 29.915 31.444 36.59.026 6.271-11.744 32.65-30.57 68.514-22.939 43.698-26.44 47.823-40.42 47.63-2.476-.033-6.526-.61-9-1.28zm-6.096-28.72c4.257-.912 5.866-2.003 10.799-7.322 7.061-7.613 13.715-18.561 20.437-33.625 9.75-21.85 15.167-42.489 12.93-49.266-1.234-3.738-6.994-9.701-11.613-12.021-4.686-2.355-14.876-3.858-21.227-3.132l-5.73.655-5.713 7.642c-3.142 4.204-7.862 10.32-10.489 13.591-2.754 3.43-4.026 5.661-3.004 5.27 7.096-2.724 17.007-5.106 21.205-5.097 6.363.013 16.5 4.575 16.5 7.426 0 2.808-3.737 4.275-21.5 8.439-8.8 2.062-19.487 4.841-23.75 6.175-6.621 2.073-7.744 2.747-7.714 4.632.04 2.515 2.595 13.67 3.289 14.365.523.523 8.175-3.11 20.968-9.954 4.836-2.587 9.594-4.704 10.572-4.704.979 0 3.884.717 6.457 1.594 3.821 1.302 4.678 2.032 4.678 3.983 0 2.958-4.072 5.134-25.251 13.49-8.31 3.278-15.25 6.102-15.423 6.274-.172.172.162 4.098.742 8.724 1.189 9.48.478 17.246-1.784 19.508-1.948 1.948-1.731 2.115 4.238 3.253 6.946 1.325 14.5 1.363 20.383.1zm-19.994-78.815c3.113-6.213 8.404-21.13 7.733-21.801-.618-.619-23.4 6.434-35.6 11.02l-5.938 2.233 3.94 4.968c2.167 2.733 4.902 7.273 6.078 10.09l2.138 5.122 9.92-4.01c8.746-3.536 10.133-4.437 11.729-7.622z" fill="#3f3f3f"/><path d="M63.645 444.397c-29.56-3.885-53.39-24.43-61.344-52.888-1.721-6.16-1.817-15.02-1.817-169 0-154.469.091-162.822 1.832-169C8.134 32.853 21.51 17.053 41.338 7.416 56.41.091 49.67.412 181.984.726l118.5.283 8 2.808c18.874 6.624 33.799 19.37 41.903 35.788 8.074 16.357 7.563 3.998 7.563 182.904 0 178.503.48 166.613-7.366 182.5-9.202 18.631-25.782 31.897-47.6 38.083-6.123 1.737-13.038 1.854-119.5 2.024-62.321.099-116.067-.223-119.839-.72zm236.132-4.449c11.466-2.32 24.326-8.923 32.972-16.927 12.3-11.39 19.291-25.12 21.322-41.882.622-5.127.867-65.942.665-164.63-.302-147.416-.425-156.849-2.125-162.5-6.69-22.252-23.632-39.615-46.127-47.276l-8-2.724h-118.5c-111.46 0-118.886.108-125 1.816C34.86 11.45 17.98 25.446 9.817 43.28 3.625 56.805 3.93 46.886 4.22 225.228l.264 162.78 2.68 7.335c8.462 23.168 27.02 39.325 51.32 44.684 4.77 1.051 29.331 1.339 119.793 1.402 99.355.07 114.77-.118 121.5-1.48zm-85.069-76.393c-3.177-1.015-11.052-4.77-17.5-8.345-6.448-3.574-15.999-8.618-21.224-11.209-5.225-2.59-12.164-6.315-15.421-8.278-4.993-3.008-5.62-3.686-4-4.32 3.077-1.207 11.45-.974 17.671.49 3.163.744 5.75 1.14 5.75.879 0-.261-1.113-1.798-2.475-3.416-2.46-2.924-5.04-10.038-6.157-16.973l-.583-3.626-8.642 2.43c-13.26 3.728-21.854 2.356-23.45-3.743-.42-1.609.022-1.935 2.621-1.935 1.72 0 8.907-1.398 15.973-3.107 10.153-2.456 12.727-3.416 12.28-4.582-.312-.811-.567-4.991-.567-9.288v-7.814l-10.75 3.506c-12.611 4.113-20.004 4.713-23.14 1.88-1.16-1.048-2.11-2.93-2.11-4.182 0-2.043 1.34-2.7 13-6.376 7.15-2.254 13-4.348 13-4.653 0-.305-3.2-4.454-7.113-9.22-4.45-5.42-7.702-8.538-8.686-8.328-2.452.525-30.614 13.63-35.72 16.622l-4.57 2.679 3.58 4.681c16.957 22.176 33.811 52.555 33.939 61.176.122 8.243-5.139 11.994-13.88 9.898-4.086-.979-6.207-2.373-11.113-7.301-9.493-9.538-34.373-48.54-45.987-72.091-4.897-9.932-8.003-20.347-6.511-21.838 2.418-2.418 17.94 5.245 27.893 13.77 2.933 2.513 5.536 4.568 5.785 4.568.249 0 3.925-1.968 8.168-4.372 4.244-2.405 12.89-6.956 19.215-10.115 6.325-3.158 11.723-5.95 11.994-6.205 1.002-.939-6.656-6.338-11.74-8.277-2.885-1.1-10.295-2.892-16.465-3.982-12.615-2.227-15.478-3.788-17.463-9.524-2.218-6.407-1.263-7.525 6.428-7.525 14.57 0 31.024 6.672 43.043 17.454 4.013 3.6 7.613 6.544 8 6.542.724-.004 46.493-15.888 51.511-17.878 2.545-1.008 2.779-1.51 2.5-5.365-.289-3.994-.506-4.272-3.562-4.567-2.653-.256-28.007 4.201-28.814 5.065-.128.137-2.553 3.725-5.388 7.974-2.836 4.25-5.541 7.964-6.012 8.255-.471.291-.194-2.285.616-5.725 1.708-7.253 6.355-34.086 5.97-34.471-.143-.143-5.086.83-10.985 2.163-19.312 4.364-31.777 4.325-32.43-.102-.452-3.057 1.607-4.144 11.888-6.275 10.545-2.186 21.119-5.293 28.028-8.236l4.619-1.968.605-6.183c.938-9.586-.763-22.41-5.83-43.951l-4.65-19.768 6.799-8.732c8.064-10.356 17.433-20.232 19.194-20.232.691 0 5.477 4.282 10.634 9.515 13.703 13.905 21.642 26.839 20.143 32.813-.57 2.27-10.845 10.572-18.242 14.74l-4.11 2.314-3.145 13.47c-1.73 7.409-2.92 13.696-2.645 13.971.275.276 5.58-4.747 11.79-11.161 6.21-6.414 11.991-11.662 12.85-11.662 2.348 0 12.798 7.1 17.67 12.005 5.858 5.9 5.522 8.4-1.71 12.714-6.22 3.708-25.333 11.934-38.054 16.376l-8.702 3.039-1.79 7.683c-.984 4.225-2.624 9.906-3.643 12.623-1.02 2.717-1.693 5.101-1.496 5.298.428.429 17.473-9.31 26.594-15.196 3.575-2.307 9.38-6.635 12.898-9.618 17.116-14.511 19.5-15.758 26.455-13.837 6.796 1.876 14.904 11.196 13.323 15.316-.304.79-3.211 3.244-6.462 5.452-5.597 3.8-15.748 13.943-14.852 14.84.23.23 3.12-.283 6.422-1.14 3.303-.855 9.1-1.555 12.884-1.555 6.135 0 7.575.405 13.328 3.75 11.94 6.942 32.01 29.013 33.59 36.938.959 4.806-5.032 19.086-22.575 53.812-24.65 48.794-30.351 57.933-38.43 61.602-5.158 2.343-12.415 2.323-19.857-.056zm.041-29.425c12.48-6.454 35.681-53.213 39.38-79.367.99-7 .912-8.333-.68-11.689-2.16-4.55-9.282-9.958-15.465-11.74-2.475-.714-8.517-1.283-13.427-1.264-8.652.032-8.99.12-11 2.889-1.14 1.57-5.807 7.565-10.37 13.321-4.565 5.756-8.126 10.638-7.915 10.85.211.211 2.96-.502 6.109-1.586 3.149-1.083 8.35-2.445 11.56-3.027 5.1-.925 6.535-.796 11.398 1.023 3.06 1.145 6.58 2.905 7.822 3.91 1.995 1.616 2.092 2.03.832 3.548-1.967 2.37-4.32 3.149-21.509 7.112-8.25 1.902-18.666 4.57-23.146 5.93l-8.147 2.47 1.737 8.007c.956 4.403 2.076 8.34 2.489 8.749.412.409 7.481-2.776 15.708-7.076 15.958-8.34 17.152-8.59 24.11-5.035 6.446 3.294 3.016 5.928-19.478 14.96-17.787 7.14-18.267 7.408-18.077 10.114.108 1.529.333 7.126.5 12.438.273 8.654.076 9.968-1.897 12.644l-2.201 2.985 5.701 1.044c7.618 1.396 22.246.714 25.966-1.21zm-31.112-71.83l5.153-1.994 4.028-10.149c4.995-12.583 5.804-15.648 4.133-15.648-2.712 0-39.302 12.119-40.789 13.51-.177.165 1.705 2.93 4.183 6.145 2.477 3.215 5.25 7.735 6.16 10.045l1.657 4.2 5.161-2.057c2.839-1.131 7.48-2.955 10.314-4.052z"/></svg>