<svg xmlns="http://www.w3.org/2000/svg" width="358.752" height="445.444"><path d="M57.898 444.01c-23.178-4.674-41.911-19.285-51.724-40.343C-.492 389.364-.165 399.343.13 219.24L.398 56.01l2.341-6.5c8.666-24.057 26.63-40.8 51.159-47.678C60.02.116 67.282.01 178.898.01c133.837 0 123.11-.62 140.925 8.131 7.712 3.788 10.893 6.106 17.5 12.75 12.431 12.499 18.421 24.376 20.568 40.778.76 5.81.999 56.282.787 166.34-.34 177.06.336 161.55-7.764 178.101-6.99 14.282-21.469 27.535-36.914 33.79-14.205 5.751-10.94 5.618-135.31 5.516-89.993-.074-115.674-.373-120.792-1.405zm235.026-3.558c17.109-2.136 29.035-8.012 41.489-20.442 9.252-9.236 14.468-18.202 17.513-30.11 1.922-7.516 1.972-11.74 1.972-167.39 0-155.651-.05-159.875-1.972-167.39-5.509-21.54-21.972-39.17-43.91-47.025l-8.618-3.085-117.758-.27C51.47 4.44 57.968 4.153 43.579 10.86c-17.71 8.255-30.017 22.143-36.467 41.15l-2.714 8v161.5c0 176.625-.362 165.752 5.979 179.5 10.062 21.816 30.752 36.678 55.02 39.523 10.1 1.183 217.988 1.11 227.527-.081zM134.008 339.114c-2.926-1.621-7.098-8.29-7.105-11.354-.005-1.994.497-2.25 4.394-2.25h4.4l-16.24-33.75c-8.932-18.563-20.424-41.625-25.537-51.25-14.822-27.9-15.035-28.32-14.603-28.753.227-.226 3.772-.86 7.88-1.41 6.68-.892 7.88-.787 11.379.998 4.945 2.523 11.298 9.38 15.363 16.583 1.732 3.07 3.298 5.582 3.48 5.582.181 0 7.45-2.713 16.154-6.028 8.704-3.316 16.296-6.192 16.872-6.391.722-.25.665-3.274-.183-9.722-1.328-10.098-1.753-30.662-.74-35.734.345-1.72 1.205-3.125 1.912-3.125 1.807 0 6.417 5.724 8.473 10.52 2.14 4.993 4.99 17.29 4.99 21.528 0 2.806 1.727.91 15.663-17.197 8.614-11.193 19.639-24.73 24.5-30.081 4.86-5.351 8.838-10.14 8.838-10.64 0-3.97-27.808-.864-92.5 10.33-26.88 4.652-35.713 5.33-44.588 3.427-5.467-1.172-11.248-5.59-12.335-9.427-.553-1.951 1.028-2.306 36.753-8.247 58.63-9.75 79.572-14.226 122.64-26.217 17.25-4.802 26.071-6.334 31.343-5.443 7.698 1.3 34.915 21.546 40.694 30.271 8.716 13.158-1.013 17.708-42.007 19.647-15.134.715-26.656 2.155-31.728 3.963l-3.772 1.345 3 1.095c10.73 3.914 10.952 6.11 1.571 15.554-5.035 5.07-7.681 8.672-9.089 12.375l-1.984 5.225 3.75-1.567c2.064-.862 7.166-3.568 11.34-6.014 4.173-2.446 8.497-4.447 9.609-4.447 2.978 0 34.175 21.013 41.835 28.178 13.406 12.541 13.073 15.748-4.034 38.822-12.107 16.33-14.17 19.692-26.991 44-13.265 25.148-17.725 32.322-21.029 33.828-2.418 1.102-10.033 1.679-54.978 4.167-10.45.579-20.8 1.48-23 2.005-5.592 1.331-11.57 1.167-14.39-.396zm33.637-17.051c.136-.118-.199-2.653-.745-5.634-.545-2.98-3.913-23.6-7.484-45.823-3.57-22.222-6.71-40.62-6.975-40.887-.49-.49-26.846 9.117-29.47 10.744-1.152.713.902 5.503 10.595 24.715 15.156 30.044 20.588 43.633 20.729 51.86l.103 6.03 6.5-.395c3.575-.218 6.611-.492 6.747-.61zm17.84-1.85c.09-.111 1.824-17.528 3.854-38.703 2.03-21.175 4.324-44.324 5.099-51.443.775-7.118 1.284-13.066 1.133-13.218-.312-.311-16.81 3.885-23.673 6.021-3.78 1.177-4.47 1.78-4.313 3.77.103 1.304 2.333 23.225 4.955 48.715l4.767 46.345 4.008-.641c2.204-.353 4.081-.733 4.17-.845zm22.951-1.356c.936-.36 3.947-5.422 6.69-11.25 22.078-46.895 26.772-59.972 26.772-74.577 0-9.974-1.608-12.854-8.654-15.5-3.69-1.386-9.217-2.4-14.984-2.748-10.581-.64-9.39-1.927-11.784 12.728-1.478 9.048-9.578 84.916-9.578 89.713 0 2.072.461 2.287 4.918 2.287 2.705 0 5.684-.294 6.62-.653zm-11.775-115.138c.195-.583-.135-2.876-.732-5.095-.954-3.542-1.524-4.116-4.67-4.707-3.51-.658-3.82-.438-14.63 10.372l-11.044 11.045 15.361-5.277c8.45-2.902 15.52-5.754 15.715-6.338z" fill="#bfbfbf"/><path d="M57.926 443.96C32.287 438.354 11.86 420.445 3.222 396l-2.824-7.99-.265-162.244C-.165 43.277-.677 56.156 7.541 39.512 11.42 31.66 13.717 28.53 20.817 21.43c7.125-7.126 10.202-9.38 18.083-13.252C56.796-.613 46.08.01 179.398.01c111.132 0 118.378.106 124.5 1.822 25.68 7.202 45.586 26.762 52.68 51.764 1.726 6.083 1.82 14.796 1.82 168.914 0 154.468-.091 162.82-1.831 169-5.76 20.45-20.16 37.584-39.17 46.612-15.457 7.341-5.83 6.842-136 7.058-97.697.163-118.067-.039-123.47-1.22zm234.998-3.508c17.109-2.136 29.035-8.012 41.489-20.442 9.252-9.236 14.468-18.202 17.513-30.11 1.922-7.516 1.972-11.74 1.972-167.39 0-155.651-.05-159.875-1.972-167.39-5.509-21.54-21.972-39.17-43.91-47.025l-8.618-3.085-117.758-.27C51.47 4.44 57.968 4.153 43.579 10.86c-17.71 8.255-30.017 22.143-36.467 41.15l-2.714 8v161.5c0 176.625-.362 165.752 5.979 179.5 10.062 21.816 30.752 36.678 55.02 39.523 10.1 1.183 217.988 1.11 227.527-.081zM134.008 339.114c-2.926-1.621-7.098-8.29-7.105-11.354-.005-1.994.497-2.25 4.394-2.25h4.4l-16.24-33.75c-8.932-18.563-20.424-41.625-25.537-51.25-14.822-27.9-15.035-28.32-14.603-28.753.227-.226 3.772-.86 7.88-1.41 6.68-.892 7.88-.787 11.379.998 4.945 2.523 11.298 9.38 15.363 16.583 1.732 3.07 3.298 5.582 3.48 5.582.181 0 7.45-2.713 16.154-6.028 8.704-3.316 16.296-6.192 16.872-6.391.722-.25.665-3.274-.183-9.722-1.328-10.098-1.753-30.662-.74-35.734.345-1.72 1.205-3.125 1.912-3.125 1.807 0 6.417 5.724 8.473 10.52 2.14 4.993 4.99 17.29 4.99 21.528 0 2.806 1.727.91 15.663-17.197 8.614-11.193 19.639-24.73 24.5-30.081 4.86-5.351 8.838-10.14 8.838-10.64 0-3.97-27.808-.864-92.5 10.33-26.88 4.652-35.713 5.33-44.588 3.427-5.467-1.172-11.248-5.59-12.335-9.427-.553-1.951 1.028-2.306 36.753-8.247 58.63-9.75 79.572-14.226 122.64-26.217 17.25-4.802 26.071-6.334 31.343-5.443 7.698 1.3 34.915 21.546 40.694 30.271 8.716 13.158-1.013 17.708-42.007 19.647-15.134.715-26.656 2.155-31.728 3.963l-3.772 1.345 3 1.095c10.73 3.914 10.952 6.11 1.571 15.554-5.035 5.07-7.681 8.672-9.089 12.375l-1.984 5.225 3.75-1.567c2.064-.862 7.166-3.568 11.34-6.014 4.173-2.446 8.497-4.447 9.609-4.447 2.978 0 34.175 21.013 41.835 28.178 13.406 12.541 13.073 15.748-4.034 38.822-12.107 16.33-14.17 19.692-26.991 44-13.265 25.148-17.725 32.322-21.029 33.828-2.418 1.102-10.033 1.679-54.978 4.167-10.45.579-20.8 1.48-23 2.005-5.592 1.331-11.57 1.167-14.39-.396zm33.637-17.051c.136-.118-.199-2.653-.745-5.634-.545-2.98-3.913-23.6-7.484-45.823-3.57-22.222-6.71-40.62-6.975-40.887-.49-.49-26.846 9.117-29.47 10.744-1.152.713.902 5.503 10.595 24.715 15.156 30.044 20.588 43.633 20.729 51.86l.103 6.03 6.5-.395c3.575-.218 6.611-.492 6.747-.61zm17.84-1.85c.09-.111 1.824-17.528 3.854-38.703 2.03-21.175 4.324-44.324 5.099-51.443.775-7.118 1.284-13.066 1.133-13.218-.312-.311-16.81 3.885-23.673 6.021-3.78 1.177-4.47 1.78-4.313 3.77.103 1.304 2.333 23.225 4.955 48.715l4.767 46.345 4.008-.641c2.204-.353 4.081-.733 4.17-.845zm22.951-1.356c.936-.36 3.947-5.422 6.69-11.25 22.078-46.895 26.772-59.972 26.772-74.577 0-9.974-1.608-12.854-8.654-15.5-3.69-1.386-9.217-2.4-14.984-2.748-10.581-.64-9.39-1.927-11.784 12.728-1.478 9.048-9.578 84.916-9.578 89.713 0 2.072.461 2.287 4.918 2.287 2.705 0 5.684-.294 6.62-.653zm-11.775-115.138c.195-.583-.135-2.876-.732-5.095-.954-3.542-1.524-4.116-4.67-4.707-3.51-.658-3.82-.438-14.63 10.372l-11.044 11.045 15.361-5.277c8.45-2.902 15.52-5.754 15.715-6.338z" fill="#bebebe"/><path d="M57.926 443.96C32.287 438.354 11.86 420.445 3.222 396l-2.824-7.99-.265-162.244C-.165 43.277-.677 56.156 7.541 39.512 11.42 31.66 13.717 28.53 20.817 21.43c7.125-7.126 10.202-9.38 18.083-13.252C56.796-.613 46.08.01 179.398.01c111.132 0 118.378.106 124.5 1.822 25.68 7.202 45.586 26.762 52.68 51.764 1.726 6.083 1.82 14.796 1.82 168.914 0 154.468-.091 162.82-1.831 169-5.76 20.45-20.16 37.584-39.17 46.612-15.457 7.341-5.83 6.842-136 7.058-97.697.163-118.067-.039-123.47-1.22zm245.81-5.26c23.688-7.252 39.978-22.635 47.329-44.69l2.333-7v-330l-3.102-8.035c-6.988-18.103-18.139-30.22-35.079-38.115-14.392-6.708-7.839-6.419-138.56-6.12l-118.26.27-7.99 2.823C25.067 16.79 8.26 37.033 4.91 62.642c-.765 5.845-1.004 55.707-.791 165.368.34 175.639-.308 160.49 7.553 176.5 4.34 8.84 16.34 21.514 25.392 26.82 7.42 4.349 17.904 7.94 26.459 9.064 3.812.5 57.225.825 119.876.728l113-.175 7.339-2.247zM132.495 337.46c-3.493-3.067-6.281-9.033-5.108-10.93.346-.562 2.372-1.02 4.501-1.02h3.872l-5.049-10.75c-10.985-23.393-33.011-67.693-42.132-84.738-10.99-20.54-11.071-19.365 1.36-19.785 6.13-.207 7.143.055 11.103 2.881 3.671 2.62 11.448 12.169 15.417 18.931.986 1.68 2.259 1.34 18-4.79 9.317-3.629 16.868-6.97 16.78-7.424-2.15-11.146-2.951-45.048-1.108-46.891 1.314-1.314 5.3 2.29 7.952 7.19 3.136 5.794 5.556 13.786 6.576 21.713l.74 5.759 15.211-19.798c8.367-10.89 19.076-24.032 23.8-29.206 11.32-12.401 11.463-12.698 6.43-13.373-8.83-1.185-35.208 2.2-81.941 10.513-34.133 6.072-48.1 6.839-56.223 3.086-4.63-2.14-9.544-7.962-8.003-9.483.4-.394 11.076-2.357 23.726-4.36 51.465-8.154 90.663-15.986 117.596-23.496 30.715-8.565 37.488-10.131 44.568-10.304l7.163-.175 11.837 8c13.354 9.025 27.791 22.482 28.912 26.948 1.13 4.503-1.273 7.704-7.707 10.267-5.806 2.312-14.403 3.335-44.37 5.277-13.965.906-25.607 2.782-27.21 4.386-.278.277 1.214 1.223 3.316 2.101 4.59 1.918 7.395 4.304 7.395 6.29 0 .803-3.329 4.896-7.397 9.095-5.096 5.26-7.866 9.035-8.905 12.136-.83 2.475-1.395 4.618-1.257 4.763.496.518 7.195-2.673 15.059-7.172 4.4-2.517 8.66-4.58 9.466-4.584 2.794-.014 36.33 23.27 43.113 29.934 10.914 10.72 10.549 15.195-2.658 32.562-12.165 15.997-16.914 23.428-26.024 40.727-15.216 28.894-18.831 35.13-22.532 38.868-4.213 4.255-1.673 3.92-48.865 6.452-15.125.812-29.525 1.9-32 2.42-8.294 1.738-11.62 1.302-15.404-2.02zm35.104-15.366c.11-.083-.675-5.536-1.744-12.118-1.069-6.581-4.39-27.198-7.381-45.814-2.99-18.617-5.663-34.074-5.94-34.35-.275-.276-2.219.049-4.318.721-3.61 1.157-26.558 9.984-27.045 10.403-.126.109 3.398 7.144 7.832 15.635 17.298 33.133 26.563 55.93 25.612 63.022l-.492 3.668 6.638-.508c3.65-.28 6.728-.576 6.838-.659zm17.915-1.88c.104-.112 1.834-17.53 3.843-38.704 2.01-21.175 4.315-44.301 5.124-51.391.808-7.09 1.3-13.062 1.09-13.27-.434-.435-21.748 4.964-25.969 6.577-2.466.943-2.731 1.455-2.244 4.327.695 4.09 9.54 89.479 9.54 92.09 0 1.699.49 1.844 4.213 1.249 2.317-.37 4.298-.766 4.403-.878zm23.686-1.954c1.967-1.461 18.336-35.979 25.115-52.962 2.572-6.442 5.366-14.992 6.209-19 2.023-9.615 1.557-22.826-.9-25.54-2.677-2.957-11.16-5.323-21.363-5.96-10.62-.661-9.495-1.885-11.848 12.877-1.54 9.657-9.514 84.507-9.514 89.3 0 2.395.293 2.535 5.309 2.535 2.92 0 6.066-.563 6.992-1.25zm-13.014-117.902c-.244-4.956-2.108-6.848-6.746-6.848-2.572 0-4.757 1.686-13.309 10.267-5.628 5.647-10.232 10.566-10.232 10.932 0 .366 6.862-1.74 15.25-4.682l15.25-5.348-.213-4.32z" fill="#7f7f7f"/><path d="M63.395 444.45c-23.235-2.779-45.627-18.154-55.347-38.006C-.245 389.508.459 405.352.118 228.01-.094 117.95.145 67.479.905 61.67c2.12-16.196 8.186-28.367 20.017-40.16 8.66-8.632 17.104-13.903 28.476-17.776l8-2.724 119-.282C310.44.41 302.758.015 318.71 8.05c15.159 7.635 25.283 17.698 32.153 31.96 7.486 15.538 7.037 3.837 7.018 182.697-.02 178.274.398 167.254-6.912 182.174-9.265 18.91-25.188 31.775-46.953 37.934-7.582 2.145-8.158 2.156-120.618 2.313-62.15.087-116.151-.218-120.003-.679zm243.003-6.264c19.982-7.053 34.316-19.846 42.386-37.83 5.924-13.203 5.614-3.362 5.614-178.346v-161l-2.347-7.475c-6.07-19.331-18.004-33.491-35.704-42.364-15.243-7.642-5.99-7.161-137.95-7.161h-118l-7.666 2.617c-12.204 4.166-20.475 9.32-29.348 18.285C14.134 34.257 8.894 43.295 5.87 55.119c-1.922 7.516-1.972 11.74-1.972 167.39 0 155.652.05 159.875 1.972 167.391 3.106 12.145 8.214 20.845 18.048 30.74 7.226 7.269 10.067 9.349 18.029 13.195 16.46 7.952 8.97 7.558 139.95 7.355l116.5-.18 8-2.824zm-171.23-99.159c-3.561-1.548-7.26-6.77-7.266-10.256-.003-1.838.71-2.352 3.996-2.877 2.2-.352 4-.727 4-.834 0-1.017-35.209-72.919-40.179-82.05-9.987-18.35-16.117-30.538-15.613-31.042.25-.25 3.872-.744 8.047-1.097 6.948-.587 7.957-.427 11.918 1.895 4.932 2.89 9.123 7.755 13.757 15.967l3.21 5.688 4.68-1.885c2.574-1.037 10.456-4.055 17.516-6.706l12.836-4.82-.568-3.5c-2.602-16.062-2.984-43.03-.63-44.485 1.551-.958 7.042 5.912 9.13 11.423 1.16 3.059 2.776 9.387 3.594 14.062.817 4.675 1.598 8.616 1.735 8.757.137.142 7.333-8.966 15.992-20.239 8.659-11.273 18.944-23.988 22.856-28.257 11.911-12.998 11.361-12.243 9.693-13.299-4.579-2.895-28.713-.05-89.963 10.604-28.449 4.948-41.915 5.708-50.335 2.839-4.835-1.648-8.968-5.67-8.464-8.238.22-1.119 9.196-2.953 37.868-7.736 48.94-8.164 77.78-14.066 102.42-20.957 43.02-12.032 48.412-12.706 57.564-7.195 14.715 8.861 30.797 22.568 34.119 29.08 3.447 6.757 1.03 10.138-9.293 12.996-6.592 1.824-11.256 2.317-34.89 3.684-19.494 1.128-31.484 3.016-33.79 5.322-1.178 1.178-.866 1.48 2.102 2.037 5.066.95 8.924 4.26 8.104 6.952-.36 1.182-3.908 5.525-7.885 9.65-6.54 6.781-10.808 14.056-9.195 15.67.717.716 9.97-3.6 16.11-7.516 7.703-4.913 9.135-4.54 26.133 6.8 25.883 17.266 32.988 24.212 32.782 32.05-.137 5.22-2.764 9.958-13.203 23.809-11.057 14.672-14.13 19.516-22.631 35.687-20.009 38.056-21.899 40.992-27.304 42.422-2.048.542-18.123 1.7-35.723 2.572-17.6.872-35.825 2.242-40.5 3.043-10.024 1.717-8.73 1.72-12.73-.02zM167.74 322c.327-.327-4.476-31.34-13.706-88.49-.603-3.733-1.06-4.442-2.682-4.157-2.248.395-27.344 9.835-29.167 10.972-.862.538 2.608 8.39 12.03 27.22 14.56 29.101 19.713 42.404 19.694 50.853l-.012 5.388 6.717-.688c3.694-.379 6.9-.873 7.126-1.098zm18.584-5.24c.514-3.977 2.314-22.249 9.27-94.141l.618-6.391-3.907.682c-9.307 1.625-25.408 6.892-25.408 8.312 0 2.143 8.92 88.145 9.597 92.538.566 3.665.677 3.75 4.897 3.75h4.318l.615-4.75zm23.756 1.87c1.08-.982 21.18-44.656 25.158-54.664 5.155-12.97 6.963-20.772 7.067-30.496.11-10.295-1.34-13.15-8.242-16.227-3.446-1.535-7.438-2.196-15.265-2.528l-10.6-.45-.66 3.872c-2.342 13.73-4.125 28.355-7.597 62.31-2.162 21.14-3.71 38.794-3.44 39.23.538.87 12.483-.05 13.58-1.046zM182.64 209.9l14.241-4.89.008-3.528c.011-4.685-2.211-7.628-6.216-8.231-3.049-.46-4.018.237-14.025 10.075-9.987 9.818-12.587 13.083-9.5 11.931.687-.256 7.659-2.667 15.491-5.357z" fill="#404040"/><path d="M63.558 444.398c-29.43-3.868-53.325-24.475-61.329-52.888-1.74-6.18-1.831-14.532-1.831-169 0-154.13.094-162.83 1.82-168.915C7.931 33.46 21.16 17.545 40.086 8.038 56.053.018 48.437.41 181.898.728l118.5.282 8 2.724c11.558 3.936 19.892 9.177 29.093 18.297 6.621 6.563 8.945 9.746 12.773 17.5 8.207 16.623 7.696 3.768 7.399 186.235l-.265 162.244-2.824 7.99c-8.274 23.414-26.389 39.923-51.676 47.093-6.124 1.737-13.038 1.854-119.5 2.023-62.322.1-116.067-.222-119.84-.718zm242.84-6.212c19.982-7.053 34.316-19.846 42.386-37.83 5.924-13.203 5.614-3.362 5.614-178.346v-161l-2.347-7.475c-6.07-19.331-18.004-33.491-35.704-42.364-15.243-7.642-5.99-7.161-137.95-7.161h-118l-7.666 2.617c-12.204 4.166-20.475 9.32-29.348 18.285C14.134 34.257 8.894 43.295 5.87 55.119c-1.922 7.516-1.972 11.74-1.972 167.39 0 155.652.05 159.875 1.972 167.391 3.106 12.145 8.214 20.845 18.048 30.74 7.226 7.269 10.067 9.349 18.029 13.195 16.46 7.952 8.97 7.558 139.95 7.355l116.5-.18 8-2.824zm-171.23-99.159c-3.561-1.548-7.26-6.77-7.266-10.256-.003-1.838.71-2.352 3.996-2.877 2.2-.352 4-.727 4-.834 0-1.017-35.209-72.919-40.179-82.05-9.987-18.35-16.117-30.538-15.613-31.042.25-.25 3.872-.744 8.047-1.097 6.948-.587 7.957-.427 11.918 1.895 4.932 2.89 9.123 7.755 13.757 15.967l3.21 5.688 4.68-1.885c2.574-1.037 10.456-4.055 17.516-6.706l12.836-4.82-.568-3.5c-2.602-16.062-2.984-43.03-.63-44.485 1.551-.958 7.042 5.912 9.13 11.423 1.16 3.059 2.776 9.387 3.594 14.062.817 4.675 1.598 8.616 1.735 8.757.137.142 7.333-8.966 15.992-20.239 8.659-11.273 18.944-23.988 22.856-28.257 11.911-12.998 11.361-12.243 9.693-13.299-4.579-2.895-28.713-.05-89.963 10.604-28.449 4.948-41.915 5.708-50.335 2.839-4.835-1.648-8.968-5.67-8.464-8.238.22-1.119 9.196-2.953 37.868-7.736 48.94-8.164 77.78-14.066 102.42-20.957 43.02-12.032 48.412-12.706 57.564-7.195 14.715 8.861 30.797 22.568 34.119 29.08 3.447 6.757 1.03 10.138-9.293 12.996-6.592 1.824-11.256 2.317-34.89 3.684-19.494 1.128-31.484 3.016-33.79 5.322-1.178 1.178-.866 1.48 2.102 2.037 5.066.95 8.924 4.26 8.104 6.952-.36 1.182-3.908 5.525-7.885 9.65-6.54 6.781-10.808 14.056-9.195 15.67.717.716 9.97-3.6 16.11-7.516 7.703-4.913 9.135-4.54 26.133 6.8 25.883 17.266 32.988 24.212 32.782 32.05-.137 5.22-2.764 9.958-13.203 23.809-11.057 14.672-14.13 19.516-22.631 35.687-20.009 38.056-21.899 40.992-27.304 42.422-2.048.542-18.123 1.7-35.723 2.572-17.6.872-35.825 2.242-40.5 3.043-10.024 1.717-8.73 1.72-12.73-.02zM167.74 322c.327-.327-4.476-31.34-13.706-88.49-.603-3.733-1.06-4.442-2.682-4.157-2.248.395-27.344 9.835-29.167 10.972-.862.538 2.608 8.39 12.03 27.22 14.56 29.101 19.713 42.404 19.694 50.853l-.012 5.388 6.717-.688c3.694-.379 6.9-.873 7.126-1.098zm18.584-5.24c.514-3.977 2.314-22.249 9.27-94.141l.618-6.391-3.907.682c-9.307 1.625-25.408 6.892-25.408 8.312 0 2.143 8.92 88.145 9.597 92.538.566 3.665.677 3.75 4.897 3.75h4.318l.615-4.75zm23.756 1.87c1.08-.982 21.18-44.656 25.158-54.664 5.155-12.97 6.963-20.772 7.067-30.496.11-10.295-1.34-13.15-8.242-16.227-3.446-1.535-7.438-2.196-15.265-2.528l-10.6-.45-.66 3.872c-2.342 13.73-4.125 28.355-7.597 62.31-2.162 21.14-3.71 38.794-3.44 39.23.538.87 12.483-.05 13.58-1.046zM182.64 209.9l14.241-4.89.008-3.528c.011-4.685-2.211-7.628-6.216-8.231-3.049-.46-4.018.237-14.025 10.075-9.987 9.818-12.587 13.083-9.5 11.931.687-.256 7.659-2.667 15.491-5.357z" fill="#3f3f3f"/><path d="M63.558 444.398c-29.43-3.868-53.325-24.475-61.329-52.888-1.74-6.18-1.831-14.532-1.831-169 0-154.13.094-162.83 1.82-168.915C7.931 33.46 21.16 17.545 40.086 8.038 56.053.018 48.437.41 181.898.728l118.5.282 8 2.724c11.558 3.936 19.892 9.177 29.093 18.297 6.621 6.563 8.945 9.746 12.773 17.5 8.207 16.623 7.696 3.768 7.399 186.235l-.265 162.244-2.824 7.99c-8.274 23.414-26.389 39.923-51.676 47.093-6.124 1.737-13.038 1.854-119.5 2.023-62.322.1-116.067-.222-119.84-.718zm236.132-4.449c28.144-5.697 50.244-28.897 54.129-56.824 1.504-10.817 1.504-310.414 0-321.231-3.582-25.754-21.272-46.226-47.754-55.267l-7.667-2.617-115.5-.284C80.115 3.473 66.523 3.618 59.45 5.046 34.79 10.025 16.598 25.39 7.526 48.902L4.398 57.01v330l2.317 7c6.35 19.18 21.343 35.044 40.183 42.517 12.34 4.895 10.292 4.819 131.292 4.903 99.356.07 114.77-.118 121.5-1.48zM135.154 338.865c-3.556-1.753-7.256-6.922-7.256-10.135 0-1.606.858-2.19 4-2.72 2.2-.372 4-.805 4-.963 0-2.005-31.713-66.394-45.728-92.843-5.772-10.893-10.295-20.005-10.051-20.249.243-.243 3.852-.73 8.018-1.083 6.719-.568 7.978-.391 11.14 1.562 4.58 2.831 10.828 9.946 14.743 16.79 1.695 2.961 3.404 5.25 3.798 5.085.393-.165 8.27-3.214 17.503-6.775l16.787-6.476-.586-4.272c-2.813-20.523-3.038-41.284-.465-42.874 3.056-1.89 9.85 10.471 11.873 21.598 2.643 14.544.551 15.352 17.456-6.745 8.244-10.776 19.382-24.488 24.75-30.472 5.37-5.984 9.762-11.26 9.762-11.725 0-4.33-25.96-1.852-80 7.639-36.463 6.404-52.979 7.728-60.508 4.853-4.49-1.715-9.875-6.903-9.216-8.88.198-.592 5.729-1.906 12.292-2.92 64.973-10.031 103.201-17.974 148.432-30.841 11.76-3.346 16.226-4.152 23.636-4.267l9.135-.142 8.849 6c11.129 7.546 24.182 18.298 27.15 22.362 3.813 5.224 4.51 8.06 2.672 10.866-3.615 5.518-13.264 7.565-43.626 9.257-10.276.573-21.076 1.491-24 2.042-6.662 1.253-11.816 2.917-11.816 3.815 0 .379 2.243 1.485 4.984 2.458 8.33 2.959 8.3 4.479-.262 13.467-6.855 7.196-12.093 16.195-10.408 17.88.869.869 7.12-1.83 15.17-6.552 3.841-2.252 8.04-4.095 9.33-4.095 3.005 0 32.736 19.772 40.42 26.88 7.958 7.363 10.01 10.482 9.947 15.115-.073 5.234-1.837 8.373-13.212 23.505-11.053 14.702-15.082 21.279-26.953 44-15.482 29.63-17.978 33.183-24.516 34.899-1.1.288-16.4 1.235-34 2.103-17.6.868-35.825 2.234-40.5 3.035-10.17 1.743-8.8 1.762-12.744-.182zm32.541-16.82c.282-.282-2.717-20.655-6.665-45.274s-7.168-45.549-7.155-46.511c.013-.963-.393-1.75-.902-1.75s-6.696 2.198-13.75 4.885c-18.272 6.96-18.325 6.982-18.325 7.874 0 .444 3.423 7.318 7.607 15.274 16.956 32.246 25.393 52.859 25.393 62.038v5.218l6.642-.62c3.654-.342 6.873-.851 7.155-1.133zm18.661-4.785c.32-2.338 2.16-20.9 4.092-41.25 1.93-20.35 3.943-40.825 4.472-45.5.529-4.675.965-9.795.97-11.378.008-2.773-.13-2.856-3.794-2.27-4.417.706-24.183 6.3-24.941 7.057-.461.462 8.02 86.443 9.305 94.34.503 3.094.74 3.25 4.922 3.25h4.393l.581-4.25zm21.565 2.25c1.746 0 2.935-.637 3.27-1.75.29-.963 4.818-10.843 10.064-21.956 19.565-41.446 24.813-60.33 20.065-72.197-1.654-4.134-4.328-5.928-11.922-7.996-3.904-1.064-21.5-1.574-21.5-.623 0 .263-.885 6-1.967 12.75s-3.567 28.247-5.523 47.772c-1.955 19.525-3.837 37.708-4.182 40.406l-.627 4.906 4.789-.656c2.634-.361 6.024-.656 7.533-.656zm-26.075-109.113l15.052-5.113v-3.806c0-5.63-.787-6.834-5.256-8.037l-4.051-1.091-10.847 10.813c-9.629 9.599-11.943 12.347-10.398 12.347.246 0 7.221-2.301 15.5-5.113z"/></svg>