<svg xmlns="http://www.w3.org/2000/svg" width="358.916" height="445.724"><path d="M58.006 444.452c-24.02-5.22-43.587-21.238-52.88-43.287-5.24-12.431-5.12-8.259-5.12-178.295 0-177.734-.484-166.12 7.6-182.678C15.858 23.29 30.759 10.456 49.778 3.87L59.506.5h119c98.43 0 119.938.24 124.428 1.393 29.313 7.52 50.66 30.064 55.022 58.107.862 5.545 1.086 49.33.858 168l-.308 160.5-2.82 8c-6.595 18.708-19.086 33.014-36.18 41.437-16.375 8.069-5.788 7.475-137.5 7.714-98.08.179-118.575-.02-124-1.199zm245.3-5.194c19.565-5.523 35.731-18.6 44.092-35.666 7.065-14.422 6.61-1.953 6.593-180.236-.016-178.516.422-166.718-6.739-181.356-5.42-11.08-18.674-24.103-30.246-29.72-16.097-7.813-8.084-7.41-140.5-7.076l-118 .296-7.31 2.71c-10.344 3.837-17.415 8.133-24.885 15.12-7.211 6.747-11 11.832-15.361 20.623C4.726 56.498 5.035 47.146 5.035 223c0 178.154-.438 166.379 6.734 181 5.53 11.277 18.793 24.349 30.237 29.803 9.343 4.453 14.184 5.936 23.388 7.164 3.361.449 56.512.743 118.112.655l112-.162 7.8-2.202zM61.713 329.388c-6.087-1.871-12.717-8.215-12.685-12.138.032-4.053 2.947-9.704 9.93-19.25 11.827-16.167 19.353-28.25 23.576-37.856 3.984-9.06 14.472-37.275 14.472-38.932 0-.416-3.27-3.484-7.265-6.819-8.273-6.904-14.3-15.086-15.32-20.798l-.696-3.905 7.39.597c6.504.525 18.294 3.163 23.026 5.152 1.316.553 1.872-.302 2.85-4.376.667-2.785 1.62-5.063 2.114-5.063.495 0 .9 2.692.9 5.982v5.981l7.592 4.269c15.504 8.718 19.378 12.546 17.305 17.097-1.978 4.34-14.376 8.554-21.328 7.25l-3.29-.617-1.199 10.769c-1.454 13.069-3.927 24.752-8.703 41.122-2.93 10.047-3.4 12.801-2.511 14.75.6 1.318 1.902 2.397 2.891 2.397 2.72 0 14.731-6.02 32.49-16.28l15.955-9.22-.656-21c-.361-11.55-1.06-27.16-1.55-34.69-1.054-16.14-1.058-16.15-14.768-36.147-9.79-14.28-13.243-21.322-13.205-26.924.027-3.995 3.35-11.561 5.43-12.359 2.478-.951 20.622 3.124 26.69 5.994 11.568 5.473 27.858 23.712 27.858 31.193 0 1.195-2.265 5.27-5.033 9.053-2.767 3.784-5.256 7.78-5.53 8.88-.273 1.1-.37 16.052-.217 33.227l.28 31.227 12.744-7.227 12.745-7.227-.008-22.5c-.007-20.822-1.974-54.034-3.593-60.666-.38-1.559-2.162-5.759-3.958-9.334-1.797-3.575-3.807-9.28-4.465-12.679l-1.198-6.178 3.748-3.322c6.398-5.669 17.492-13.646 22.041-15.848 7.677-3.717 10-3.158 16.754 4.027 12.216 12.997 19.711 27.741 18.199 35.802-.698 3.719-3.038 6.32-14.86 16.51-4.03 3.476-5.723 5.699-6.087 8-.278 1.754-.638 14.037-.8 27.296l-.296 24.108 5.888-3.608c3.238-1.984 8.242-5.73 11.119-8.323 5.11-4.607 5.245-4.872 5.864-11.491.826-8.853 2.86-11.684 8.698-12.11 4.953-.362 12.602 2.143 24.057 7.878 15.13 7.575 19.243 13.645 11.842 17.472-1.553.803-15.336 5.705-30.629 10.894-15.293 5.189-30.013 10.417-32.711 11.619l-4.906 2.184.653 21.135c.774 25.014 1.769 30.13 6.478 33.296 4.856 3.266 16.945 5.68 25.641 5.122 5.737-.368 8.794-1.23 14.69-4.144 11.156-5.512 22.59-6.525 29.84-2.645 10.472 5.604-1.763 24.273-18.636 28.438-16.559 4.088-55.572 4.708-65.854 1.048-13.828-4.923-16.12-11.47-17.362-49.579l-.638-19.598-12.736 7.013c-11.497 6.33-12.78 7.312-13.196 10.098-3.044 20.414-5.68 30.697-8.624 33.64-3.88 3.88-6.506 1.294-7.386-7.275-.355-3.454-.904-8.659-1.222-11.566l-.576-5.286-15.63 15.512c-23.374 23.197-30.166 28.177-42.349 31.05-7.978 1.88-23.797 1.827-30.074-.102z" fill="#bfbfbf"/><path d="M58.37 444.519c-14.476-3.177-26.663-9.876-37.339-20.526-8.627-8.606-13.906-17.057-17.801-28.493l-2.724-8v-329l2.724-8c3.874-11.376 9.138-19.77 17.84-28.453C32.32 10.824 43.595 4.774 59.214 1.577 65.964.197 80.885 0 179.375 0c121.49 0 120.28-.048 133.62 5.34 9.981 4.031 17.036 8.737 24.985 16.667 8.627 8.606 13.907 17.057 17.801 28.493l2.725 8 .278 161c.312 179.98.692 169.576-6.769 185-8.903 18.406-24.402 31.57-45.51 38.651l-7 2.35-117.5.182c-95.3.148-118.658-.072-123.634-1.164zm244.936-5.26c19.565-5.524 35.731-18.601 44.092-35.667 7.065-14.422 6.61-1.953 6.593-180.236-.016-178.516.422-166.718-6.739-181.356-5.42-11.08-18.674-24.103-30.246-29.72-16.097-7.813-8.084-7.41-140.5-7.076l-118 .296-7.31 2.71c-10.344 3.837-17.415 8.133-24.885 15.12-7.211 6.747-11 11.832-15.361 20.623C4.726 56.498 5.035 47.146 5.035 223c0 178.154-.438 166.379 6.734 181 5.53 11.277 18.793 24.349 30.237 29.803 9.343 4.453 14.184 5.936 23.388 7.164 3.361.449 56.512.743 118.112.655l112-.162 7.8-2.202zM61.713 329.387c-6.087-1.871-12.717-8.215-12.685-12.138.032-4.053 2.947-9.704 9.93-19.25 11.827-16.167 19.353-28.25 23.576-37.856 3.984-9.06 14.472-37.275 14.472-38.932 0-.416-3.27-3.484-7.265-6.819-8.273-6.904-14.3-15.086-15.32-20.798l-.696-3.905 7.39.597c6.504.525 18.294 3.163 23.026 5.152 1.316.553 1.872-.302 2.85-4.376.667-2.785 1.62-5.063 2.114-5.063.495 0 .9 2.692.9 5.982v5.981l7.592 4.269c15.504 8.718 19.378 12.546 17.305 17.097-1.978 4.34-14.376 8.554-21.328 7.25l-3.29-.617-1.199 10.769c-1.454 13.069-3.927 24.752-8.703 41.122-2.93 10.047-3.4 12.801-2.511 14.75.6 1.318 1.902 2.397 2.891 2.397 2.72 0 14.731-6.02 32.49-16.28l15.955-9.22-.656-21c-.361-11.55-1.06-27.16-1.55-34.69-1.054-16.14-1.058-16.15-14.768-36.147-9.79-14.28-13.243-21.322-13.205-26.924.027-3.995 3.35-11.561 5.43-12.359 2.478-.951 20.622 3.124 26.69 5.994 11.568 5.473 27.858 23.712 27.858 31.193 0 1.195-2.265 5.27-5.033 9.053-2.767 3.784-5.256 7.78-5.53 8.88-.273 1.1-.37 16.052-.217 33.227l.28 31.227 12.744-7.227 12.745-7.227-.008-22.5c-.007-20.822-1.974-54.034-3.593-60.666-.38-1.559-2.162-5.759-3.958-9.334-1.797-3.575-3.807-9.28-4.465-12.679l-1.198-6.178 3.748-3.322c6.398-5.669 17.492-13.646 22.041-15.848 7.677-3.717 10-3.158 16.754 4.027 12.216 12.997 19.711 27.741 18.199 35.802-.698 3.719-3.038 6.32-14.86 16.51-4.03 3.476-5.723 5.699-6.087 8-.278 1.754-.638 14.037-.8 27.296l-.296 24.108 5.888-3.608c3.238-1.984 8.242-5.73 11.119-8.323 5.11-4.607 5.245-4.872 5.864-11.491.826-8.853 2.86-11.684 8.698-12.11 4.953-.362 12.602 2.143 24.057 7.878 15.13 7.575 19.243 13.645 11.842 17.472-1.553.803-15.336 5.705-30.629 10.894-15.293 5.189-30.013 10.417-32.711 11.619l-4.906 2.184.653 21.135c.774 25.014 1.769 30.13 6.478 33.296 4.856 3.266 16.945 5.68 25.641 5.122 5.737-.368 8.794-1.23 14.69-4.144 11.156-5.512 22.59-6.525 29.84-2.645 10.472 5.604-1.763 24.273-18.636 28.438-16.559 4.088-55.572 4.708-65.854 1.048-13.828-4.923-16.12-11.47-17.362-49.579l-.638-19.598-12.736 7.013c-11.497 6.33-12.78 7.312-13.196 10.098-3.044 20.414-5.68 30.697-8.624 33.64-3.88 3.88-6.506 1.294-7.386-7.275-.355-3.454-.904-8.659-1.222-11.566l-.576-5.286-15.63 15.512c-23.374 23.197-30.166 28.177-42.349 31.05-7.978 1.88-23.797 1.827-30.074-.102z" fill="#bebebe"/><path d="M58.37 444.519c-14.476-3.177-26.663-9.876-37.339-20.526-8.627-8.606-13.906-17.057-17.801-28.493l-2.724-8v-329l2.724-8c3.874-11.376 9.138-19.77 17.84-28.453C32.32 10.824 43.595 4.774 59.214 1.577 65.964.197 80.885 0 179.375 0c121.49 0 120.28-.048 133.62 5.34 9.981 4.031 17.036 8.737 24.985 16.667 8.627 8.606 13.907 17.057 17.801 28.493l2.725 8 .278 161c.312 179.98.692 169.576-6.769 185-8.903 18.406-24.402 31.57-45.51 38.651l-7 2.35-117.5.182c-95.3.148-118.658-.072-123.634-1.164zm235.498-3.56c23.314-2.924 43.587-16.817 53.202-36.459 7.446-15.213 6.936-1.843 6.936-181.5 0-180.018.538-166.231-7.106-181.846-7.941-16.22-24.678-29.367-43.518-34.185C295.944 5.066 291.792 5 179.506 5 67.965 5 63.024 5.077 55.772 6.932c-23.903 6.113-42.268 23.86-48.696 47.055-2.055 7.416-2.07 8.704-2.07 169.033 0 180.119-.549 166.193 7.165 181.946 9.169 18.725 29.954 33.099 51.996 35.958 9.654 1.253 219.736 1.284 229.701.034zM63.999 330.13c-7.137-2.355-15.005-9.137-14.984-12.915.02-3.422 4.986-11.999 14.888-25.715 12.433-17.221 18-27.877 26.504-50.738C96.773 223.649 97.995 219 96.127 219c-1.522 0-15.082-13.082-18.086-17.449-1.581-2.298-3.2-5.908-3.596-8.023l-.722-3.845 7.391.638c6.33.547 17.512 3.058 22.997 5.165 1.24.477 1.897-.424 2.887-3.96 1.884-6.73 3.006-6.483 3.02.665l.011 6.31 6.238 3.396c10.475 5.703 16.743 10.211 18.25 13.124 1.301 2.517 1.25 3.013-.549 5.3-2.75 3.496-10 6.023-17.522 6.108l-6.335.07-.622 6.5c-1.156 12.072-4.423 28.428-8.464 42.37-2.21 7.629-4.02 14.626-4.02 15.55 0 2.114 1.923 4.088 3.95 4.057 3.255-.05 13.187-4.94 30.44-14.986l17.891-10.417-.687-21.537c-.377-11.845-1.122-27.807-1.653-35.471-1.106-15.94-.691-14.935-14.47-35.065-4.518-6.6-9.16-13.872-10.316-16.159-4.196-8.302-3.741-16.562 1.166-21.172 2.075-1.95 2.77-2.044 8.398-1.137 9.037 1.455 18.168 4.506 23.378 7.812 6.908 4.384 19.196 17.025 21.804 22.432 2.846 5.901 2.48 7.49-3.608 15.682l-4.792 6.447-.289 33.297c-.158 18.314-.043 33.298.255 33.298.3 0 6.221-3.236 13.16-7.19l12.615-7.19-.516-30.06c-.701-40.814-1.78-50.59-6.808-61.637-2.147-4.717-4.376-11.017-4.954-14l-1.05-5.423 3.793-3.371c5.822-5.173 17.397-13.698 21.235-15.638 6.202-3.137 8.608-3.443 11.797-1.504 4.061 2.47 15.47 16.968 19.619 24.93 7.06 13.55 5.917 18.526-6.456 28.098-4.36 3.372-8.546 7.336-9.305 8.808-1.038 2.015-1.468 9.14-1.739 28.829-.414 30.125-1.764 27.777 10.949 19.041 8.946-6.148 11.192-8.87 11.2-13.578.007-5.211 1.805-10.927 4.185-13.307 1.726-1.726 2.898-1.973 7.185-1.517 10.013 1.065 32.313 12.253 36.177 18.15 3.277 5.001.503 6.476-33.553 17.838-14.025 4.68-28.088 9.656-31.25 11.06l-5.75 2.55.015 12.806c.023 17.97 1.657 36.156 3.503 38.974 3.48 5.31 16.92 8.96 29.853 8.108 5.617-.37 8.65-1.239 14.302-4.098 6.656-3.366 16.433-5.837 20.215-5.11 5.831 1.122 7.281 1.703 10.034 4.02 3.953 3.325 3.983 6.7.113 12.543-3.507 5.295-9.447 10.283-15.31 12.857-7.172 3.148-28.734 5.3-47.604 4.753-19.078-.553-25.163-1.978-31.012-7.262-6.05-5.467-7.95-14.956-8.948-44.706l-.661-19.726-12.714 7.024c-11.633 6.427-12.755 7.296-13.196 10.226-3.172 21.072-5.956 30.913-9.707 34.307-2.035 1.842-2.108 1.836-3.88-.352-1.076-1.33-2.06-4.755-2.438-8.491-.349-3.444-.89-8.435-1.204-11.09l-.57-4.829-15.146 14.887c-22.152 21.774-29.872 27.838-39.29 30.86-5.478 1.758-27.434 2.836-31.362 1.54z" fill="#7f7f7f"/><path d="M63.666 444.888c-27.217-3.576-49.208-20.817-59.032-46.28L1.506 390.5l-.28-164C.915 43.59.482 55.658 7.906 40.354c9.012-18.579 26.017-32.142 46.927-37.43C62.369 1.02 66.15.968 182.053 1.23l119.453.27 8 2.808c21.542 7.56 36.828 22.238 44.871 43.084l3.129 8.108.293 164.5c.327 182.984.746 170.885-6.431 185.614-8.783 18.025-23.928 30.53-44.89 37.062l-8.972 2.797-113.5.157c-62.457.087-116.576-.247-120.34-.742zm242.84-6.112c21.516-7.328 38.322-23.704 45.217-44.061l2.783-8.215v-327l-2.824-7.99c-8.592-24.315-28.205-41.263-53.308-46.067-11.216-2.146-226.52-2.146-237.737 0C35.534 10.247 15.922 27.195 7.33 51.51L4.506 59.5v327l2.823 7.99c8.433 23.865 27.287 40.501 52.177 46.04 4.842 1.078 28.472 1.3 122.5 1.153l116.5-.183 8-2.724zm-239-108.399c-1.1-.29-3.713-.969-5.807-1.507-2.094-.538-5.581-2.58-7.75-4.54-6.975-6.301-5.515-11.378 8.978-31.222 15.099-20.675 19.119-28.384 29.071-55.75l6.089-16.744-3.29-2.534c-11.749-9.05-19.791-19.148-19.791-24.85v-3.426l6.25.714c5.326.61 13.686 2.488 22.43 5.042 1.886.551 2.35.068 3.444-3.582 1.016-3.39 1.41-3.851 2-2.349.404 1.03.767 3.462.805 5.407.068 3.407.422 3.735 9.73 9 11.5 6.504 15.34 9.834 15.34 13.297 0 4.879-8.537 8.651-19.6 8.661l-6.1.01-.643 9.061c-.797 11.229-3.524 24.793-8.127 40.422-4.724 16.038-4.531 19.517 1.08 19.517 2.91 0 18.704-8.03 34.89-17.742l13-7.8-.264-12.479c-.146-6.863-.754-22.373-1.35-34.465-1.264-25.594-.35-22.876-14.999-44.574-5.406-8.008-10.517-16.206-11.358-18.218-2.22-5.314-1.97-13.487.54-17.603l2.062-3.382 6.66.683c8.624.883 20.226 4.807 26.04 8.807 6.59 4.534 16.7 14.933 19.109 19.654 3.254 6.38 2.728 9.315-3.19 17.788l-5.25 7.517-.27 31.157c-.154 17.657.125 31.758.643 32.543.729 1.105 3.468-.075 13.52-5.825l12.608-7.21-.021-27.176c-.012-16.014-.615-33.305-1.468-42.102-1.302-13.42-1.797-15.642-4.9-22-3.87-7.927-5.598-13.549-5.606-18.237-.005-2.76 1.017-3.979 8.007-9.546 10.778-8.585 18.037-12.853 22.991-13.517 3.953-.53 4.319-.337 9.146 4.837 15.549 16.666 22.371 33.04 17.094 41.03-.959 1.451-4.853 5.051-8.655 8-11.05 8.57-10.387 6.372-11.184 37.11-.381 14.713-.38 26.75.003 26.75 1.703 0 17.668-11.322 20.478-14.523 2.597-2.957 3.114-4.377 3.114-8.544 0-15.178 7.426-16.425 30.5-5.123 15.748 7.714 19.987 13.1 13.443 17.079-1.681 1.022-11.694 4.668-22.25 8.102s-25.155 8.494-32.443 11.245l-13.25 5.003.031 18.13c.033 19.267 1.125 31.306 3.13 34.518 3.087 4.943 14.504 8.422 27.441 8.362 7.667-.035 8.848-.339 17.068-4.393 8.336-4.112 9.308-4.356 17.374-4.356 9.466 0 13.266 1.554 15.01 6.14 2.076 5.463-6.133 16.8-15.423 21.297-5.279 2.555-20.881 4.856-38.63 5.696-21.155 1-36.256-1.766-42.706-7.825-4.705-4.42-6.723-16.23-7.877-46.096-.378-9.784-.996-17.659-1.372-17.5-.377.158-6.32 3.38-13.209 7.16l-12.523 6.873-1.233 9.42c-1.4 10.698-4.484 22.723-6.707 26.146-2.1 3.235-5.505 2.554-6.553-1.31-.447-1.65-1.107-7.38-1.466-12.734l-.653-9.733-16.65 16.27c-22.719 22.2-29.669 27.405-40.552 30.37-5.325 1.45-22.661 2.586-26 1.703z" fill="#404040"/><path d="M64.816 444.975c-17.32-2.066-30.508-8.59-43.342-21.435-10.315-10.324-15.33-18.77-18.496-31.15-1.923-7.518-1.972-11.722-1.958-169.3C1.037 42.69.522 55.74 8.242 40c3.381-6.893 5.88-10.207 13.216-17.533C31.863 12.08 41.838 6.374 55.568 2.958c7.876-1.959 10.813-2 127-1.732l118.938.274 6.5 2.342c12.954 4.67 20.048 9.143 29.531 18.626 10.316 10.316 15.329 18.756 18.497 31.142 1.922 7.517 1.972 11.749 1.972 169.39 0 157.642-.05 161.873-1.972 169.39-3.186 12.457-8.154 20.838-18.477 31.17-10.23 10.239-19.776 15.893-33.265 19.702l-7.786 2.199-112.5.156c-61.875.086-115.51-.203-119.19-.642zm241.69-6.2c21.516-7.327 38.322-23.703 45.217-44.06l2.783-8.215v-327l-2.824-7.99c-8.592-24.315-28.205-41.263-53.308-46.067-11.216-2.146-226.52-2.146-237.737 0C35.534 10.247 15.922 27.195 7.33 51.51L4.506 59.5v327l2.823 7.99c8.433 23.865 27.287 40.501 52.177 46.04 4.842 1.078 28.472 1.3 122.5 1.153l116.5-.183 8-2.724zm-239-108.398c-1.1-.29-3.713-.969-5.807-1.507-2.094-.538-5.581-2.58-7.75-4.54-6.975-6.301-5.515-11.378 8.978-31.222 15.099-20.675 19.119-28.384 29.071-55.75l6.089-16.744-3.29-2.534c-11.749-9.05-19.791-19.148-19.791-24.85v-3.426l6.25.714c5.326.61 13.686 2.488 22.43 5.042 1.886.551 2.35.068 3.444-3.582 1.016-3.39 1.41-3.851 2-2.349.404 1.03.767 3.462.805 5.407.068 3.407.422 3.735 9.73 9 11.5 6.504 15.34 9.834 15.34 13.297 0 4.879-8.537 8.651-19.6 8.661l-6.1.01-.643 9.061c-.797 11.229-3.524 24.793-8.127 40.422-4.724 16.038-4.531 19.517 1.08 19.517 2.91 0 18.704-8.03 34.89-17.742l13-7.8-.264-12.479c-.146-6.863-.754-22.373-1.35-34.465-1.264-25.594-.35-22.876-14.999-44.574-5.406-8.008-10.517-16.206-11.358-18.218-2.22-5.314-1.97-13.487.54-17.603l2.062-3.382 6.66.683c8.624.883 20.226 4.807 26.04 8.807 6.59 4.534 16.7 14.933 19.109 19.654 3.254 6.38 2.728 9.315-3.19 17.788l-5.25 7.517-.27 31.157c-.154 17.657.125 31.758.643 32.543.729 1.105 3.468-.075 13.52-5.825l12.608-7.21-.021-27.176c-.012-16.014-.615-33.305-1.468-42.102-1.302-13.42-1.797-15.642-4.9-22-3.87-7.927-5.598-13.549-5.606-18.237-.005-2.76 1.017-3.979 8.007-9.546 10.778-8.585 18.037-12.853 22.991-13.517 3.953-.53 4.319-.337 9.146 4.837 15.549 16.666 22.371 33.04 17.094 41.03-.959 1.451-4.853 5.051-8.655 8-11.05 8.57-10.387 6.372-11.184 37.11-.381 14.713-.38 26.75.003 26.75 1.703 0 17.668-11.322 20.478-14.523 2.597-2.957 3.114-4.377 3.114-8.544 0-15.178 7.426-16.425 30.5-5.123 15.748 7.714 19.987 13.1 13.443 17.079-1.681 1.022-11.694 4.668-22.25 8.102s-25.155 8.494-32.443 11.245l-13.25 5.003.031 18.13c.033 19.267 1.125 31.306 3.13 34.518 3.087 4.943 14.504 8.422 27.441 8.362 7.667-.035 8.848-.339 17.068-4.393 8.336-4.112 9.308-4.356 17.374-4.356 9.466 0 13.266 1.554 15.01 6.14 2.076 5.463-6.133 16.8-15.423 21.297-5.279 2.555-20.881 4.856-38.63 5.696-21.155 1-36.256-1.766-42.706-7.825-4.705-4.42-6.723-16.23-7.877-46.096-.378-9.784-.996-17.659-1.372-17.5-.377.158-6.32 3.38-13.209 7.16l-12.523 6.873-1.233 9.42c-1.4 10.698-4.484 22.723-6.707 26.146-2.1 3.235-5.505 2.554-6.553-1.31-.447-1.65-1.107-7.38-1.466-12.734l-.653-9.733-16.65 16.27c-22.719 22.2-29.669 27.405-40.552 30.37-5.325 1.45-22.661 2.586-26 1.703z" fill="#3f3f3f"/><path d="M64.816 444.975c-17.32-2.066-30.508-8.59-43.342-21.435-10.315-10.324-15.33-18.77-18.496-31.15-1.923-7.518-1.972-11.722-1.958-169.3C1.037 42.69.522 55.74 8.242 40c3.381-6.893 5.88-10.207 13.216-17.533C31.863 12.08 41.838 6.374 55.568 2.958c7.876-1.959 10.813-2 127-1.732l118.938.274 6.5 2.342c12.954 4.67 20.048 9.143 29.531 18.626 10.316 10.316 15.329 18.756 18.497 31.142 1.922 7.517 1.972 11.749 1.972 169.39 0 157.642-.05 161.873-1.972 169.39-3.186 12.457-8.154 20.838-18.477 31.17-10.23 10.239-19.776 15.893-33.265 19.702l-7.786 2.199-112.5.156c-61.875.086-115.51-.203-119.19-.642zm234.516-4.41c27.923-5.343 50.508-28.116 54.663-55.119.735-4.771.981-57.041.788-166.946-.268-152.433-.368-160.26-2.125-165.5-3.772-11.244-8.747-19.19-17.603-28.117-7.23-7.288-10.015-9.324-18.05-13.196-16.892-8.141-10.226-7.788-141-7.469l-115.5.282-7 2.349c-12.938 4.34-20.362 8.894-29.643 18.182-6.986 6.99-9.42 10.262-12.684 17.059C3.587 57.892 4.006 47.33 4.006 223c0 137.072.195 158.066 1.532 164.792 5.113 25.727 26.715 47.008 53.468 52.673 9.857 2.087 229.462 2.178 240.326.1zM66.35 329.959c-9.263-1.833-16.343-7.523-16.343-13.134 0-4.212 2.69-8.911 14.594-25.48 12.048-16.77 19.423-31.108 27.181-52.845 2.748-7.7 5.285-14.953 5.636-16.117.524-1.737-.58-3.102-6.152-7.604-8.966-7.244-15.272-15.457-15.993-20.827l-.554-4.132 5.894.731c3.241.402 9.269 1.603 13.394 2.67 11.668 3.016 12.217 2.948 13.532-1.68 1.042-3.665 1.174-3.776 1.783-1.5.361 1.353.663 3.88.67 5.617.013 2.922.658 3.518 8.658 8 11.815 6.618 16.868 11.167 16.046 14.444-1.06 4.226-7.796 7.21-17.416 7.715l-8.273.434v4.775c0 7.893-3.752 27.6-8.058 42.328-2.378 8.134-3.925 15.36-3.747 17.5.282 3.38.56 3.667 3.805 3.926 4.173.333 11.736-3.31 33.927-16.336l15.226-8.94-.595-12.502a84760.66 84760.66 0 0 0-1.653-34.465c-.666-13.842-1.555-23.155-2.403-25.186-.74-1.772-5.858-9.9-11.373-18.062-11.872-17.572-14.08-22.077-14.104-28.789-.025-6.99 2.805-11.502 7.21-11.493 5.424.012 19.746 3.861 25.17 6.765 6.463 3.461 22.052 18.686 24.066 23.505 2.39 5.722 1.898 7.812-3.721 15.78l-5.25 7.443-.312 31c-.171 17.05.054 31.962.5 33.137.777 2.046 1.347 1.83 13.312-5.053l12.5-7.19-.064-32.947c-.078-39.916-1.05-49.745-5.87-59.316-1.879-3.73-3.988-9.55-4.687-12.934-1.235-5.982-1.203-6.224 1.175-8.774 7.229-7.751 25.54-19.39 30.543-19.413 1.266-.01 4.252 2.271 7.527 5.74 11.734 12.429 18.873 25.184 18.875 33.72 0 4.776-.22 5.167-5.626 10-3.095 2.767-7.754 7.055-10.353 9.53l-4.727 4.5-.646 18.41c-.356 10.126-.647 22.437-.647 27.357 0 7.929.189 8.874 1.661 8.31 3.766-1.446 15.35-9.848 18.72-13.578 3.188-3.528 3.619-4.63 3.622-9.252.004-6.3 2.72-11.389 6.597-12.361 8.167-2.05 40.4 14.476 40.4 20.714 0 2.73-6.52 5.637-30 13.378-11.275 3.717-25.164 8.56-30.865 10.76l-10.364 4.003.5 23.13c.29 13.388.996 24.73 1.676 26.931 2.11 6.823 12.417 10.945 27.55 11.016 8.584.04 9.507-.174 18.426-4.282 12.071-5.561 20.212-6.423 27.002-2.859 4.972 2.61 6.15 4.878 4.917 9.466-1.238 4.608-9.163 12.878-15.14 15.798-7.8 3.812-22.974 5.833-44.702 5.955-16.594.093-19.24-.129-25.684-2.155-3.95-1.242-8.562-3.418-10.247-4.836-5.3-4.46-7.402-15.928-8.64-47.155-.377-9.487-.904-17.25-1.172-17.25-.267 0-6.226 3.146-13.242 6.991l-12.755 6.992-.693 6.258c-1.09 9.86-4.246 23.209-6.557 27.74-1.62 3.175-2.614 4.071-4.245 3.832-2.716-.399-3.57-3.51-4.412-16.063-.36-5.362-.88-9.75-1.158-9.75-.277 0-7.747 7.188-16.6 15.974-17.76 17.624-26.913 25.374-33.351 28.234-8.95 3.976-24.22 5.666-33.9 3.75z"/></svg>